<svg width="508" height="100" viewBox="0 0 508 100" fill="none" xmlns="http://www.w3.org/2000/svg">
<path d="M72.8402 13.5398L70.172 13.5467V27.2373H82.4082C83.7466 26.6694 84.4634 25.6876 84.7405 24.5414H72.8332L72.8402 13.5398ZM92.8073 16.2755H103.014C104.432 15.995 105.488 14.7431 105.785 13.5328H90.0352C90.3296 14.7431 91.4014 15.995 92.8073 16.2755ZM59.7521 16.2374C61.1702 15.8253 62.3649 14.7431 62.6558 13.5432H47.6787V21.6326H59.9374V24.4722L50.3226 24.4808C48.8145 24.8998 47.5402 25.911 46.9012 27.2477L47.6787 27.2338H62.5726V18.9436H50.3226V16.2374H59.7521ZM90.4473 27.2338H93.1016V21.7226H102.765V27.2338H105.417V18.9679L90.4473 18.954V27.2338ZM27.0501 16.2668H37.2553C38.6751 15.9846 39.7296 14.7327 40.0256 13.5224H24.2781C24.5724 14.7327 25.6425 15.9846 27.0501 16.2668ZM0.5 13.5536C0.806467 14.7518 1.84361 15.9724 3.26513 16.2806H7.56087L7.77903 16.3672V27.2061H10.4628V16.3672L10.7052 16.2806H15.0061C16.4415 15.9101 17.4561 14.7518 17.7591 13.5536V13.5276H0.5V13.5536ZM27.0501 27.2356H37.2553C38.6751 26.9516 39.7296 25.7032 40.0256 24.4912H24.2781C24.5724 25.7032 25.6425 26.9516 27.0501 27.2356ZM27.0501 21.6776H37.2553C38.6751 21.3971 39.7296 20.1453 40.0256 18.935H24.2781C24.5724 20.1453 25.6425 21.3971 27.0501 21.6776Z" fill="#898D9A"/>
<path d="M192.35 11.6535L185.096 22.3955C184.342 23.5323 183.018 24.2195 181.633 24.2195C179.377 24.2195 177.51 22.366 177.51 20.1295C177.51 17.86 179.377 16.0099 181.649 16.0099C181.874 15.9811 182.176 15.9495 182.387 15.9495C183.953 15.9495 185.548 16.6065 186.632 17.7117L188.798 14.4283C187.113 12.6984 184.614 11.5911 182.115 11.5911C177.449 11.5911 173.175 15.4415 173.175 20.0979C173.175 24.7268 176.998 28.5162 181.665 28.5162C183.922 28.5162 186.179 27.5613 187.745 25.9783H192.742L192.772 28.5162H197.108V11.6535H192.35H192.35ZM190.366 22.2768L192.742 18.9666L192.772 22.2768H190.366H190.366Z" fill="#898D9A"/>
<path d="M205.416 28.5157H201.081V15.5907H197.71V11.6813L208.786 11.6531V15.5907H205.416V28.5157V28.5157Z" fill="#898D9A"/>
<path d="M223.237 11.6533L218.902 11.6544L218.872 17.9501H213.754L213.721 11.6531H209.39V28.5157H213.754V21.8589H218.902V28.5157H223.237V11.6531L223.237 11.6533Z" fill="#898D9A"/>
<path d="M257.976 11.6531V19.5002L252.016 11.6531L248.071 11.6805L248.041 17.8307C247.048 14.2486 243.646 11.6531 239.853 11.6531C235.187 11.6531 231.364 15.4411 231.364 20.0974C231.364 21.5926 231.815 23.1111 232.536 24.4264H228.242V11.6531H223.824V28.5157H233.923V26.1563C235.518 27.6199 237.686 28.5157 239.853 28.5157C243.646 28.5157 246.988 25.9778 248.041 22.3951L248.071 28.5157H252.437V20.3096L258.365 28.5157H262.308L262.313 11.6531H257.977H257.976ZM239.853 24.3969C237.475 24.3969 235.518 22.4871 235.518 20.0974C235.518 17.7408 237.475 15.8015 239.853 15.8015C242.262 15.8015 244.219 17.7408 244.219 20.0974C244.219 22.4871 242.262 24.3969 239.853 24.3969Z" fill="#898D9A"/>
<path d="M167.932 24.4288V22.0687H172.584L172.576 17.9519H167.932V15.8039H173.06L173.051 11.6555L163.178 11.683V17.4741C162.154 14.3108 159.203 11.9816 155.832 11.683L148.336 11.6555V28.5175H155.862C159.203 28.2202 162.154 25.8924 163.178 22.7579V28.5175H173.06L173.051 24.4288H167.932H167.932ZM158.391 22.6673C158.121 23.8027 157.036 24.6066 155.862 24.6368H153.093V15.5925H155.862C157.036 15.5925 158.121 16.432 158.391 17.5942C158.663 18.3706 158.813 19.2658 158.813 20.0999C158.813 20.9676 158.663 21.8614 158.391 22.6673Z" fill="#898D9A"/>
<path d="M319.088 28.9676C317.573 28.8861 316.443 28.2628 315.782 27.1443C315.338 26.3935 315.203 25.4061 315.406 24.3971C315.631 23.2791 316.394 22.2717 317.566 21.5471C318.239 21.1304 318.816 20.8718 319.989 20.4593C320.284 20.3557 320.539 20.2602 320.555 20.2469C320.579 20.2282 320.582 20.1621 320.57 19.9474C320.536 19.3367 320.638 18.3852 320.811 17.6986C321.101 16.5431 321.659 15.6109 322.4 15.0455C322.932 14.6392 323.63 14.3338 324.324 14.2028C324.707 14.1306 325.349 14.1309 325.71 14.2034C327.256 14.5147 328.123 15.7061 327.782 17.0486C327.71 17.3316 327.482 17.7956 327.29 18.0522C326.797 18.7098 326.055 19.2945 325.008 19.8508C324.876 19.921 324.445 20.1328 324.05 20.3219C323.655 20.5108 323.32 20.678 323.304 20.6935C323.282 20.7155 323.288 20.7797 323.33 20.9955C323.527 21.9931 323.857 22.836 324.421 23.7786C324.645 24.1538 324.956 24.6269 324.991 24.6489C325.042 24.6804 325.251 24.3432 325.387 24.0095C325.555 23.5966 325.651 23.0505 325.604 22.7792C325.57 22.585 325.463 22.3798 325.328 22.2473C325.266 22.186 325.214 22.1281 325.214 22.1185C325.214 22.1092 325.74 22.1039 326.383 22.1072L327.552 22.1132L327.545 22.2615C327.536 22.4642 327.461 22.8964 327.382 23.2041C327.158 24.0692 326.737 24.8092 326.008 25.6172C325.923 25.7125 325.852 25.8059 325.852 25.825C325.852 25.8441 325.973 25.9766 326.12 26.1196C327.041 27.012 328.672 28.0412 330 28.5676C330.129 28.6188 330.234 28.671 330.233 28.6834C330.233 28.6985 329.466 28.7083 327.993 28.7123L325.754 28.7181L325.626 28.6464C325.366 28.5001 324.79 28.0345 324.237 27.5231C324.119 27.4147 324.008 27.3262 323.99 27.3262C323.971 27.3262 323.841 27.4019 323.701 27.4944C322.982 27.9686 322.122 28.3946 321.396 28.6371C320.569 28.913 319.886 29.0107 319.088 28.9678V28.9676ZM320.974 27.0273C321.309 26.9676 321.721 26.846 322.099 26.6948C322.48 26.5429 322.952 26.3107 322.969 26.2668C322.976 26.2495 322.888 26.1036 322.775 25.9424C322.254 25.2001 321.698 24.156 321.324 23.2196C321.186 22.8744 320.928 22.1099 320.879 21.9003C320.863 21.8335 320.835 21.7729 320.816 21.7656C320.764 21.7456 320.336 21.9736 319.967 22.2187C318.653 23.0896 318.023 24.1527 318.163 25.2636C318.225 25.7573 318.382 26.1172 318.666 26.4211C319.192 26.9827 320.013 27.1987 320.974 27.0273ZM323.204 19.3027C323.69 19.0181 324.461 18.3271 324.892 17.7898C325.444 17.1023 325.738 16.4607 325.738 15.9404C325.738 15.6429 325.696 15.5097 325.558 15.372C325.421 15.2353 325.267 15.1787 325.031 15.1785C324.331 15.1785 323.573 16.0096 323.244 17.1405C323.077 17.7106 323.037 18.0174 323.036 18.7138C323.035 19.2457 323.043 19.364 323.083 19.364C323.092 19.364 323.146 19.3365 323.204 19.3027ZM334.784 28.9543C333.63 28.8382 332.87 28.6657 332.012 28.326C330.844 27.8634 330.116 27.2904 329.5 26.3516C329.316 26.0705 329.02 25.4805 328.901 25.1544C328.367 23.7014 328.25 21.8721 328.568 19.9638C328.89 18.0325 329.623 16.171 330.636 14.716C331.292 13.7726 332.269 12.7789 333.278 12.0285C334.943 10.7898 336.86 10.0283 338.99 9.76062C339.636 9.67937 339.998 9.6585 340.761 9.65894C341.915 9.65961 342.794 9.74752 343.955 9.97817C344.696 10.1256 345.875 10.4439 345.898 10.5028C345.909 10.5325 345.162 12.9281 345.131 12.9603C345.122 12.9703 345.007 12.8937 344.876 12.7893C343.827 11.9524 342.739 11.4429 341.638 11.2735C341.287 11.2194 340.627 11.2187 340.282 11.2722C338.74 11.5111 337.309 12.4965 336.04 14.1955C335.627 14.7473 335.173 15.487 334.82 16.1814C334.341 17.1227 334.011 17.9548 333.678 19.0674C332.618 22.6074 332.564 25.0807 333.519 26.4195C333.912 26.9712 334.487 27.3226 335.216 27.4569C335.635 27.5342 336.651 27.4873 336.752 27.3863C336.768 27.3703 337.264 25.8179 337.854 23.9365C338.824 20.8461 338.929 20.4975 338.94 20.3224C338.955 20.087 338.911 19.8768 338.805 19.6744C338.709 19.4903 338.455 19.2406 338.246 19.1245C338.155 19.0743 338.081 19.0255 338.081 19.0161C338.081 19.0068 339.708 18.999 341.696 18.999C343.685 18.999 345.312 19.0068 345.312 19.0161C345.312 19.0255 345.224 19.0736 345.116 19.1227C344.553 19.3802 344.145 19.766 343.903 20.2709C343.85 20.3801 343.395 21.7938 342.711 23.9707L341.605 27.4938L341.285 27.6469C339.983 28.2719 338.391 28.7219 336.802 28.9139C336.51 28.9494 335.028 28.9789 334.784 28.9543H334.784ZM301.5 28.6968C301.492 28.6852 301.541 28.6446 301.607 28.6066C301.999 28.3804 302.441 27.9111 302.628 27.52C302.682 27.4067 307.642 11.6094 307.751 11.2012C307.771 11.1297 307.787 10.9787 307.787 10.8659C307.789 10.5214 307.681 10.273 307.43 10.0346C307.361 9.96952 307.305 9.90669 307.305 9.89493C307.305 9.86362 315.966 9.86629 316.363 9.89781C317.223 9.96596 318.084 10.1946 318.742 10.5294C319.866 11.101 320.54 11.9686 320.746 13.1126C320.804 13.4309 320.815 14.1391 320.768 14.4818C320.575 15.8791 319.942 17.3611 319.08 18.4334C317.684 20.1703 315.4 21.2809 312.597 21.5864C311.709 21.6832 310.589 21.7076 309.797 21.6472C309.568 21.6297 309.375 21.6202 309.37 21.6259C309.341 21.6543 307.553 27.3919 307.533 27.52C307.47 27.9149 307.673 28.3589 308.024 28.5915C308.093 28.6375 308.143 28.6848 308.136 28.6963C308.119 28.725 301.517 28.7252 301.5 28.6965L301.5 28.6968ZM311.331 20.175C311.982 20.0595 312.557 19.8184 313.111 19.4284C313.38 19.239 313.934 18.6865 314.162 18.379C314.733 17.6102 315.153 16.7031 315.492 15.5084C315.707 14.7469 315.799 14.1668 315.799 13.569C315.799 13.1081 315.757 12.8328 315.641 12.524C315.469 12.0658 315.119 11.7038 314.674 11.5239C314.292 11.3694 313.965 11.3288 313.18 11.3379L312.589 11.3446L311.213 15.725C310.456 18.1344 309.842 20.1172 309.847 20.1314C309.852 20.1457 309.947 20.1696 310.058 20.1847C310.169 20.1998 310.274 20.2158 310.293 20.2205C310.379 20.2416 311.146 20.208 311.331 20.1752V20.175Z" fill="#898D9A"/>
<path fill-rule="evenodd" clip-rule="evenodd" d="M452.884 19.7097C452.884 19.7097 451.739 19.0015 451.031 18.7275C451.031 18.7275 448.839 17.7116 448.404 17.2282C448.404 17.2282 447.549 16.4231 448.05 15.488C448.05 15.488 448.259 14.8761 449.162 14.8761C449.162 14.8761 450.337 14.9407 450.337 15.9067V17.2694H454.549L454.542 15.2625C454.542 15.2625 454.866 11.9759 449.58 11.8312C449.58 11.8312 445.423 11.5579 444.231 13.797C444.231 13.797 443.763 14.2965 443.763 16.036V17.2929C443.763 17.2929 443.716 18.743 444.456 19.6774C444.456 19.6774 444.875 20.29 445.906 20.9658C445.906 20.9658 448 22.0934 449.257 22.7391C449.257 22.7391 450.526 23.4634 450.359 24.616C450.359 24.616 450.256 25.7994 449.03 25.751C449.03 25.751 447.91 25.701 447.91 24.5404V23.1784H443.422V25.1567C443.422 25.1567 443.296 28.9398 449.063 28.9398C449.063 28.9398 454.574 29.0515 454.831 25.0575V23.4465C454.831 23.4465 455.026 20.9989 452.884 19.7097ZM431.319 12.3021L429.909 21.1407H429.579L428.232 12.3814H421.196L420.843 28.3874H425.009L425.059 16.3276H425.387L427.595 28.3852H431.977L434.158 16.332H434.449L434.549 28.3874H438.737L438.286 12.3021H431.319ZM406.521 12.3689L403.749 28.369H408.234L409.876 15.9633H410.245L411.886 28.369H416.37L413.599 12.3689H406.521ZM500.624 19.4893V21.8496H501.774V24.3832C501.774 25.6217 500.715 25.6444 500.715 25.6444C499.428 25.6444 499.477 24.4676 499.477 24.4676V15.704C499.477 14.8011 500.619 14.7527 500.619 14.7527C501.715 14.7527 501.722 15.8296 501.722 15.8296V17.1621H505.945C506.083 14.5609 505.564 13.9314 505.564 13.9314C504.517 11.5792 500.554 11.7078 500.554 11.7078C494.465 11.7078 495.141 16.3798 495.141 16.3798V24.8533C495.272 29.2351 501.272 28.79 501.374 28.7863C504.042 28.491 504.848 27.6425 504.848 27.6425C505.59 27.0916 505.781 26.3284 505.781 26.3284C505.993 25.8839 506.046 24.4676 506.046 24.4676V19.4893H500.624ZM486.627 22.0934H486.444L482.159 12.3065H477.032V28.3889H481.205L480.955 18.6034H481.141L485.581 28.3889H490.552V12.305H486.326L486.627 22.0934ZM466.847 24.3817C466.847 24.3817 466.907 25.7017 465.683 25.7017C465.683 25.7017 464.396 25.7708 464.396 24.4147L464.383 12.316H459.807V24.3185C459.807 24.3185 459.337 28.8612 465.748 28.8612C465.748 28.8612 471.319 28.9273 471.319 24.5271V12.3168H466.847V24.3817ZM397.796 19.7097C397.796 19.7097 396.652 19.0015 395.944 18.7283C395.944 18.7283 393.753 17.7131 393.318 17.229C393.318 17.229 392.464 16.4224 392.965 15.4895C392.965 15.4895 393.173 14.8775 394.076 14.8775C394.076 14.8775 395.252 14.9415 395.252 15.9074V17.2701H399.465L399.457 15.2625C399.457 15.2625 399.779 11.9759 394.496 11.8319C394.496 11.8319 394.098 11.8062 393.514 11.8356C393.514 11.8356 390.313 12.0075 389.168 13.7632C389.162 13.7764 389.152 13.7859 389.146 13.7977C389.146 13.7977 388.678 14.2965 388.678 16.0367V17.2936C388.678 17.2936 388.63 18.7437 389.371 19.6781C389.371 19.6781 389.79 20.2907 390.821 20.9666C390.821 20.9666 392.915 22.0942 394.172 22.7399C394.172 22.7399 395.442 23.4627 395.274 24.6168C395.274 24.6168 395.17 25.8002 393.945 25.7517C393.945 25.7517 392.825 25.7017 392.825 24.5411V23.1784H388.336V25.1581C388.336 25.1581 388.211 28.9413 393.978 28.9413C393.978 28.9413 399.487 29.0529 399.747 25.059V23.4495C399.747 23.448 399.939 20.9989 397.796 19.7097Z" fill="#898D9A"/>
<path fill-rule="evenodd" clip-rule="evenodd" d="M127.734 73.882C128.821 73.2897 129.907 72.993 131.29 72.993C134.65 72.993 137.219 75.9578 137.219 80.0085C137.219 85.1467 134.057 88.4076 128.82 88.4076C126.942 88.4076 125.064 88.1109 123.286 87.7155C123.385 85.6403 123.485 72.993 123.286 70.6216C123.09 69.4354 122.792 68.9418 121.904 68.7444L121.212 68.6456V68.0528L127.833 66.8677C127.734 67.8554 127.734 70.7203 127.734 73.882ZM127.832 87.2219C128.127 87.3201 128.622 87.3201 129.017 87.3201C131.093 87.3201 132.575 84.2577 132.576 80.304C132.576 77.143 131.39 74.5741 129.215 74.5741C128.72 74.5741 128.325 74.6728 127.732 74.8708C127.634 80.0085 127.732 85.8388 127.832 87.2219ZM78.9209 67.2625H96.3115L96.4108 73.0923L95.4225 73.389C94.4348 70.4242 93.0517 68.7449 90.383 68.7449H86.9252C86.8259 70.6222 86.7272 73.7839 86.7272 77.1435L89.098 77.0442C90.5804 77.0442 91.2709 75.8591 91.5681 74.1793H92.4577V81.1925H91.5681C91.2714 79.5132 90.5804 78.3275 89.098 78.3275L86.7266 78.2288C86.7266 80.797 86.8254 82.8723 86.9246 84.1573C87.1221 86.0351 87.6162 86.9241 88.9006 87.0222L90.0863 87.2208V88.0111H78.9209V87.2208L79.9092 87.0222C81.1936 86.9247 81.6871 86.0351 81.8846 84.1573C82.0826 81.0955 82.1818 74.6723 81.8846 71.1152C81.6877 69.2379 81.193 68.4477 79.9092 68.2502L78.9209 68.1515V67.2625ZM109.355 80.6012C109.355 76.1551 106.885 72.7955 101.945 72.7955C97.0038 72.7955 94.2376 76.3526 94.2376 80.6012C94.2376 85.0478 96.7077 88.4081 101.648 88.4081C106.589 88.4081 109.355 84.8498 109.355 80.6012ZM98.8811 80.6012C98.8811 76.748 99.4739 73.7837 101.648 73.7837C103.724 73.7837 104.711 76.8467 104.711 80.6012C104.711 84.4544 104.117 87.4187 101.846 87.4187C99.8694 87.4187 98.8811 84.3557 98.8811 80.6012ZM146.112 72.7955C141.072 72.7955 138.503 76.6493 138.503 80.7005C138.503 85.2458 141.665 88.4075 146.112 88.4081C148.878 88.4081 151.051 87.0238 152.039 85.6407L151.645 85.1471C150.656 85.8393 149.866 86.2335 148.285 86.2335C144.727 86.2335 142.949 83.5654 143.048 79.9096H152.237C152.237 75.859 150.26 72.7955 146.112 72.7955ZM147.692 78.7239L143.048 78.8232C143.146 76.55 144.037 73.7837 145.716 73.7837C147.395 73.7837 147.692 76.748 147.692 78.7239ZM159.453 72.7955C161.231 72.7955 162.812 73.0916 163.997 73.5863L164.098 77.4395L163.407 77.637C162.517 74.9689 161.331 73.8819 159.554 73.8819C158.368 73.8819 157.477 74.7714 157.477 76.0558C157.477 77.3408 158.464 78.0324 161.232 79.1188C163.801 80.1076 164.888 81.2928 164.888 83.368C164.888 86.4304 162.417 88.4075 158.564 88.4075C156.686 88.4075 154.512 88.0115 153.327 87.518L153.227 83.1706L153.92 82.972C155.006 85.9368 156.39 87.0232 158.267 87.0232C159.848 87.0232 160.738 85.9368 160.738 84.7511C160.738 83.5654 160.045 82.8733 157.576 81.9849C155.202 81.194 153.524 80.1076 153.524 77.5382C153.524 74.9689 155.797 72.7955 159.453 72.7955ZM115.976 76.2544C117.556 72.6967 120.521 72.2038 122.2 73.1909L120.619 77.2427C118.643 75.9583 116.469 76.5505 115.976 77.2427C115.876 79.6141 115.876 83.3686 116.074 85.2464C116.173 86.431 116.47 87.0238 117.457 87.1231L118.643 87.2224V88.0127H109.454V87.2224L110.146 87.1231C111.036 87.0238 111.43 86.431 111.529 85.2464C111.628 83.1717 111.727 79.0212 111.529 76.6498C111.43 75.3649 111.036 74.8713 110.146 74.772L109.454 74.6733V74.0804L116.074 72.796L115.976 76.2544Z" fill="#898D9A"/>
<path fill-rule="evenodd" clip-rule="evenodd" d="M221.12 68.985C221.121 68.9912 221.124 68.9974 221.126 69.0035C221.129 69.0128 221.133 69.0221 221.134 69.0314C221.136 69.0604 221.136 69.0874 221.136 69.1164V70.2647L221.136 70.2814C221.136 70.3447 221.136 70.3755 221.121 70.3906C221.106 70.4049 221.078 70.4051 221.022 70.4055L220.993 70.4058H220.389H211.21C211.179 70.4058 211.153 70.4063 211.13 70.4068C211.064 70.4081 211.031 70.4088 211.016 70.3928C211.001 70.3776 211.001 70.3472 211.002 70.2876C211.003 70.2651 211.003 70.2384 211.003 70.2067V68.985H221.12ZM255.721 77.7726L255.712 77.7739C255.704 77.7748 255.698 77.7756 255.695 77.7784C255.685 77.7958 255.676 77.8132 255.668 77.8325C255.628 77.9387 255.589 78.0448 255.55 78.1513L255.55 78.1526L255.549 78.1534L255.549 78.1537L255.549 78.1541C255.524 78.2232 255.499 78.2926 255.473 78.3622C255.461 78.397 255.447 78.4299 255.431 78.4647C255.42 78.4658 255.41 78.4675 255.4 78.4692C255.393 78.4704 255.386 78.4716 255.38 78.4724C255.354 78.4737 255.329 78.4733 255.304 78.4728C255.291 78.4726 255.279 78.4724 255.266 78.4724H247.567C247.556 78.4724 247.544 78.4727 247.532 78.4729C247.49 78.4739 247.445 78.4749 247.4 78.4627C247.386 78.4299 247.372 78.3951 247.36 78.3622C247.295 78.1902 247.231 78.0181 247.168 77.8461C247.163 77.8315 247.156 77.8177 247.149 77.8037L247.143 77.7904L247.138 77.7784C247.136 77.7765 247.132 77.7746 247.128 77.7746C247.12 77.7726 247.112 77.7784 247.112 77.7881L247.112 77.7932V77.7932C247.11 77.8203 247.108 77.8459 247.108 77.8731V78.3255C247.108 78.3583 247.108 78.3912 247.106 78.4241C247.106 78.4531 247.09 78.4705 247.062 78.4724C247.054 78.4724 247.046 78.4729 247.038 78.4734C247.029 78.4738 247.021 78.4743 247.013 78.4743H246.925H242.899C242.853 78.4743 242.807 78.4743 242.76 78.4724C242.732 78.4724 242.716 78.455 242.716 78.4241C242.716 78.4093 242.716 78.3946 242.715 78.3801V78.3801L242.715 78.3799C242.715 78.3695 242.714 78.3591 242.714 78.349L242.714 78.339V77.1888C242.714 77.1724 242.715 77.156 242.715 77.1395L242.715 77.1393C242.716 77.123 242.716 77.1066 242.716 77.0902C242.716 77.0748 242.732 77.0574 242.746 77.0574C242.762 77.0554 242.78 77.0535 242.795 77.0535H242.909H250.809C250.84 77.0535 250.866 77.0529 250.888 77.0525C250.946 77.0512 250.974 77.0506 250.992 77.0636C251.007 77.0753 251.015 77.0979 251.029 77.1409C251.037 77.1632 251.046 77.191 251.059 77.2256C251.137 77.4319 251.213 77.6393 251.29 77.8469C251.322 77.9349 251.354 78.0229 251.387 78.1109C251.39 78.1201 251.394 78.1293 251.397 78.1385L251.397 78.1386L251.397 78.1386C251.405 78.1602 251.413 78.1814 251.423 78.2018C251.425 78.2068 251.433 78.2103 251.442 78.2142C251.447 78.2163 251.452 78.2184 251.456 78.2211C251.495 78.1294 251.527 78.0377 251.559 77.9467L251.559 77.9466C251.572 77.911 251.585 77.8756 251.597 77.8403C251.621 77.7753 251.645 77.7099 251.669 77.6445C251.693 77.5794 251.717 77.5144 251.74 77.4498L251.789 77.3163C251.819 77.234 251.849 77.1509 251.879 77.067C251.887 77.0657 251.895 77.0638 251.902 77.0619C251.916 77.0586 251.928 77.0554 251.941 77.0554C251.979 77.0535 252.017 77.0535 252.054 77.0535H259.905C259.923 77.0535 259.94 77.0534 259.955 77.0532C260.024 77.0526 260.057 77.0522 260.073 77.0688C260.089 77.0848 260.089 77.1164 260.088 77.1782L260.087 77.2092L260.087 77.2294V78.3293C260.087 78.366 260.085 78.4027 260.083 78.4393L260.083 78.4395C260.083 78.455 260.068 78.4705 260.052 78.4724C260.04 78.4743 260.026 78.4743 260.014 78.4743H259.926H255.888H255.838L255.827 78.4743C255.774 78.4744 255.747 78.4744 255.734 78.4612C255.721 78.4482 255.721 78.4223 255.721 78.3712L255.721 78.3603V77.8712C255.725 77.8395 255.723 77.8096 255.721 77.7763L255.721 77.7726ZM237.957 86.5433H238.088C238.161 86.4796 238.207 86.4061 238.247 86.3307C238.3 86.2321 238.344 86.1316 238.382 86.0272C238.479 85.7662 238.545 85.4956 238.602 85.225C238.605 85.2122 238.606 85.1986 238.607 85.1853L238.607 85.178L238.608 85.1651C238.61 85.1496 238.594 85.1303 238.58 85.1303L238.575 85.1301C238.517 85.1282 238.461 85.1264 238.404 85.1264H222.764H222.689L222.673 85.1264C222.61 85.1263 222.578 85.1262 222.563 85.1419C222.548 85.1572 222.548 85.1877 222.548 85.248L222.548 85.2694V86.3945L222.548 86.4204C222.548 86.4833 222.547 86.5143 222.563 86.5295C222.578 86.5443 222.608 86.5441 222.667 86.5436H222.667L222.707 86.5433H237.957ZM230.569 73.0948H222.743C222.718 73.0948 222.693 73.0943 222.667 73.0938L222.667 73.0938L222.667 73.0938C222.642 73.0933 222.617 73.0928 222.592 73.0928C222.57 73.0928 222.552 73.0754 222.55 73.0542C222.548 73.0348 222.546 73.0136 222.546 72.9923V71.7687C222.546 71.7493 222.548 71.7281 222.55 71.7087C222.552 71.6933 222.568 71.6797 222.584 71.6778C222.596 71.6759 222.61 71.6759 222.622 71.6759H222.735H237.909H237.997L238.009 71.6759C238.043 71.6758 238.061 71.6757 238.077 71.6824C238.095 71.6902 238.11 71.7076 238.142 71.7456L238.144 71.7474C238.199 71.8131 238.241 71.8885 238.281 71.9658C238.35 72.105 238.402 72.2519 238.448 72.4008C238.509 72.596 238.555 72.7951 238.598 72.9942C238.602 73.012 238.604 73.0313 238.606 73.0493L238.606 73.0542C238.608 73.0754 238.594 73.0928 238.569 73.0928C238.519 73.0948 238.467 73.0948 238.418 73.0948H233.285H230.569ZM236.761 87.8134H229.753C227.715 87.8134 225.677 87.8134 223.637 87.8115H222.719C222.678 87.8115 222.636 87.8134 222.594 87.8154C222.572 87.8173 222.555 87.8328 222.553 87.854C222.551 87.8908 222.549 87.9275 222.549 87.9642V88.6988V89.1028C222.549 89.1318 222.551 89.1608 222.557 89.1879C222.558 89.1975 222.57 89.2091 222.58 89.2111C222.612 89.2149 222.646 89.2169 222.68 89.2169C222.932 89.2188 223.182 89.2188 223.435 89.2188C223.947 89.2188 224.46 89.2193 224.972 89.2198C225.483 89.2202 225.994 89.2207 226.506 89.2207C227.101 89.2207 227.697 89.2212 228.292 89.2217L228.299 89.2217C228.892 89.2222 229.486 89.2227 230.079 89.2227H232.834L232.856 89.2226L232.884 89.2222C232.918 89.2218 232.952 89.2214 232.985 89.2227C233.249 89.2285 233.514 89.2265 233.778 89.2149C233.895 89.2091 234.012 89.1975 234.127 89.1801C234.36 89.1453 234.588 89.097 234.813 89.0274C235.566 88.7954 236.239 88.4224 236.841 87.9275C236.871 87.9043 236.899 87.8773 236.924 87.8521L236.924 87.8521C236.928 87.8482 236.93 87.8366 236.928 87.8308C236.926 87.825 236.918 87.8173 236.912 87.8173C236.863 87.8154 236.811 87.8134 236.761 87.8134ZM229.747 70.406H222.739C222.689 70.406 222.638 70.4041 222.588 70.4022C222.572 70.4022 222.556 70.3867 222.554 70.3712C222.553 70.3613 222.553 70.3516 222.552 70.3419C222.55 70.3234 222.548 70.3052 222.548 70.2862V69.1244V69.0761C222.55 69.0239 222.562 69.0142 222.616 69.0123H222.703H223.786H230.14H233.476H233.664C233.871 69.0123 234.073 69.0393 234.276 69.0761C234.868 69.1805 235.418 69.395 235.937 69.685C236.255 69.8628 236.553 70.0639 236.831 70.2958C236.858 70.319 236.888 70.3442 236.914 70.3693C236.918 70.3732 236.92 70.3828 236.92 70.3906C236.92 70.4002 236.914 70.4041 236.904 70.4041C236.858 70.406 236.813 70.406 236.765 70.406H229.747ZM236.483 78.4743H236.604C236.614 78.4673 236.623 78.4624 236.631 78.458L236.64 78.453C236.902 78.2462 237.147 78.0239 237.371 77.7803C237.494 77.6469 237.61 77.5058 237.709 77.355C237.759 77.2796 237.806 77.2023 237.844 77.1211C237.864 77.0766 237.854 77.0573 237.808 77.0554C237.766 77.0535 237.725 77.0535 237.683 77.0535H235.117H225.653H225.528C225.516 77.0535 225.502 77.0554 225.49 77.0573C225.474 77.0593 225.459 77.0747 225.459 77.0902C225.457 77.1269 225.455 77.1636 225.455 77.2004V78.3254L225.454 78.3644C225.454 78.4205 225.454 78.4484 225.467 78.4622C225.481 78.4757 225.509 78.4754 225.563 78.4747C225.578 78.4745 225.593 78.4743 225.611 78.4743H236.483ZM236.632 79.7726L236.662 79.7977C236.687 79.8182 236.712 79.8384 236.737 79.8586C236.987 80.0654 237.224 80.2839 237.436 80.5274C237.547 80.655 237.653 80.7865 237.74 80.9314C237.778 80.9952 237.812 81.061 237.845 81.1267C237.848 81.1332 237.846 81.1415 237.844 81.1509C237.843 81.1555 237.842 81.1603 237.841 81.1653H237.7H235.221H225.635C225.585 81.1653 225.533 81.1634 225.484 81.1615C225.468 81.1615 225.454 81.146 225.452 81.1286C225.45 81.0996 225.45 81.0726 225.45 81.0436V79.8702C225.45 79.8557 225.451 79.8417 225.451 79.8277C225.452 79.8136 225.452 79.7996 225.452 79.7851C225.452 79.7658 225.472 79.7484 225.494 79.7465C225.51 79.7445 225.528 79.7445 225.543 79.7445H225.669H236.413L236.442 79.7436H236.442C236.498 79.7417 236.551 79.7399 236.6 79.7465L236.632 79.7726ZM220.951 71.6758H216.07C214.531 71.6758 212.991 71.6758 211.456 71.6778H211.128C211.1 71.6778 211.074 71.6795 211.046 71.6813L211.046 71.6813L211.041 71.6816C211.027 71.6816 211.011 71.699 211.011 71.7145C211.009 71.7551 211.007 71.7957 211.007 71.8363V72.9362V73.0213C211.007 73.0851 211.015 73.0928 211.076 73.0947H211.202H220.939H221.064C221.076 73.0947 221.09 73.0928 221.102 73.0909C221.118 73.0889 221.134 73.0735 221.134 73.058C221.136 73.0271 221.138 72.9942 221.138 72.9613V71.8112C221.138 71.7841 221.138 71.7551 221.136 71.7261C221.134 71.6971 221.118 71.6778 221.09 71.6778C221.042 71.6758 220.997 71.6758 220.951 71.6758ZM216.136 86.5434H211.255C211.211 86.5434 211.168 86.5416 211.122 86.5398L211.116 86.5395C211.1 86.5395 211.084 86.5241 211.084 86.5086C211.082 86.4893 211.08 86.468 211.08 86.4487V85.227C211.08 85.2164 211.081 85.2062 211.081 85.1961C211.082 85.1859 211.082 85.1758 211.082 85.1651C211.084 85.1497 211.098 85.1342 211.112 85.1323L211.112 85.1323C211.124 85.1303 211.136 85.1284 211.15 85.1284H211.263H221.024C221.074 85.1284 221.126 85.1303 221.175 85.1323C221.191 85.1323 221.207 85.1497 221.209 85.1632L221.21 85.1683C221.211 85.1915 221.213 85.2132 221.213 85.2367V86.4352C221.213 86.4564 221.213 86.4758 221.211 86.497C221.209 86.526 221.193 86.5434 221.165 86.5453C221.128 86.5473 221.09 86.5473 221.052 86.5473H219.429C218.333 86.5434 217.234 86.5434 216.136 86.5434ZM211.269 89.2165H216.15C217.769 89.2165 219.386 89.2165 221.007 89.2146H221.12C221.136 89.2146 221.154 89.2146 221.17 89.2127C221.195 89.2108 221.211 89.1934 221.213 89.1644C221.215 89.1392 221.215 89.116 221.215 89.0909V87.9407C221.215 87.9117 221.215 87.8847 221.213 87.8557C221.213 87.8363 221.193 87.817 221.173 87.817L221.168 87.8168C221.122 87.8149 221.078 87.8131 221.034 87.8131H211.259H211.172C211.166 87.8131 211.159 87.8136 211.153 87.8141L211.153 87.8141H211.153H211.153H211.153H211.153H211.153H211.153H211.153H211.153H211.153H211.153H211.153H211.153H211.153H211.153H211.153H211.153H211.153H211.153H211.153H211.153H211.152H211.152H211.152L211.152 87.8141C211.146 87.8146 211.14 87.8151 211.134 87.8151C211.102 87.817 211.086 87.8325 211.084 87.8595C211.082 87.8808 211.082 87.9001 211.082 87.9214V89.1083C211.082 89.1317 211.084 89.1535 211.086 89.1767L211.086 89.1818C211.086 89.1972 211.102 89.2127 211.118 89.2127C211.168 89.2146 211.219 89.2165 211.269 89.2165ZM249.522 73.089C249.517 73.0897 249.512 73.0905 249.506 73.0914C249.496 73.0931 249.485 73.0948 249.474 73.0948C249.449 73.0961 249.424 73.0957 249.399 73.0953C249.386 73.0951 249.374 73.0948 249.361 73.0948H239.999C239.949 73.0948 239.898 73.0929 239.848 73.091C239.832 73.091 239.816 73.0755 239.814 73.06C239.814 73.0514 239.813 73.043 239.812 73.0346L239.812 73.0346C239.81 73.0187 239.808 73.003 239.808 72.9866V71.7881C239.808 71.7668 239.808 71.7475 239.81 71.7262C239.812 71.6914 239.828 71.676 239.866 71.676C239.904 71.674 239.942 71.674 239.979 71.674H248.863C248.872 71.674 248.882 71.6739 248.892 71.6737C248.933 71.6731 248.974 71.6725 249.016 71.6818C249.027 71.7069 249.039 71.734 249.049 71.7591C249.208 72.1921 249.367 72.627 249.524 73.06C249.526 73.0639 249.524 73.0678 249.522 73.0716C249.524 73.0774 249.524 73.0813 249.522 73.089ZM253.346 73.0629C253.345 73.0707 253.344 73.0789 253.342 73.0871C253.378 73.0961 253.412 73.0966 253.444 73.097C253.461 73.0972 253.477 73.0974 253.493 73.0987H262.75H262.851C262.865 73.0987 262.879 73.0987 262.889 73.0929C262.899 73.0871 262.911 73.0775 262.913 73.0678C262.919 73.0427 262.919 73.0195 262.919 72.9944V71.7842C262.919 71.7608 262.917 71.739 262.915 71.7157L262.915 71.7108C262.915 71.6973 262.897 71.6818 262.881 71.6818L262.875 71.6816C262.83 71.6797 262.786 71.6779 262.742 71.6779H254.002C253.99 71.6779 253.979 71.6777 253.968 71.6775C253.945 71.6771 253.923 71.6766 253.9 71.6779L253.884 71.6799L253.868 71.6817L253.853 71.6837C253.829 71.7115 253.819 71.7423 253.809 71.7735L253.805 71.7842C253.692 72.0965 253.577 72.4106 253.462 72.7248L253.461 72.7276L253.438 72.792L253.438 72.792L253.438 72.7921C253.408 72.8744 253.378 72.956 253.35 73.0388C253.348 73.046 253.347 73.0542 253.346 73.0629ZM248.034 69.0177L248.042 69.0331L248.043 69.0332L248.043 69.0334L248.043 69.0337C248.048 69.0429 248.052 69.0516 248.056 69.0603L248.056 69.0603L248.056 69.0603V69.0604V69.0604V69.0604V69.0604V69.0604V69.0604V69.0604V69.0605V69.0605V69.0605V69.0605V69.0605V69.0605V69.0605V69.0606V69.0606V69.0606V69.0606V69.0606V69.0606V69.0606V69.0607C248.217 69.4974 248.378 69.9341 248.537 70.3709C248.538 70.3735 248.538 70.3761 248.537 70.3786C248.537 70.3799 248.537 70.3812 248.537 70.3825C248.537 70.3849 248.536 70.3873 248.535 70.3906C248.534 70.3926 248.534 70.395 248.533 70.398C248.525 70.3989 248.517 70.4004 248.509 70.4018C248.501 70.4033 248.493 70.4047 248.485 70.4057C248.457 70.407 248.43 70.4066 248.402 70.4061C248.388 70.4059 248.374 70.4057 248.36 70.4057H240.009C239.959 70.4057 239.908 70.4057 239.858 70.4038C239.83 70.4038 239.814 70.3864 239.812 70.3554C239.811 70.3264 239.811 70.2994 239.811 70.2704V69.1453C239.811 69.1125 239.812 69.0796 239.814 69.0487C239.816 69.0332 239.83 69.0158 239.846 69.0158C239.858 69.0139 239.872 69.0139 239.884 69.0139H239.997H247.869L247.889 69.0131C247.936 69.0112 247.985 69.0092 248.034 69.0177ZM254.325 70.3829C254.326 70.3877 254.327 70.3927 254.327 70.3981C254.373 70.4094 254.418 70.4073 254.464 70.4051L254.492 70.4039H262.734H262.847C262.859 70.4039 262.873 70.402 262.885 70.4C262.901 70.4 262.916 70.3846 262.916 70.3691C262.918 70.3285 262.92 70.2879 262.92 70.2473C262.92 70.1311 262.921 70.0146 262.921 69.8981V69.8979V69.8976V69.8974V69.8972V69.897V69.8968V69.8965V69.8963V69.8961V69.8959V69.8957V69.8955V69.8952V69.895V69.8948V69.8946V69.8944V69.8942V69.8939V69.8937V69.8935V69.8933C262.921 69.6568 262.922 69.4201 262.92 69.1841C262.92 69.1603 262.92 69.1397 262.92 69.1219V69.1219V69.1219V69.1219V69.1219V69.1218V69.1218V69.1218V69.1218V69.1218V69.1218V69.1218V69.1218V69.1218V69.1218V69.1218V69.1218V69.1218V69.1217V69.1217V69.1217V69.1217C262.921 69.0656 262.921 69.0374 262.907 69.0235C262.893 69.0094 262.864 69.01 262.807 69.0112C262.787 69.0116 262.764 69.0121 262.738 69.0121H254.987H254.911H254.873C254.824 69.014 254.814 69.0198 254.798 69.0604C254.788 69.0836 254.78 69.1068 254.772 69.13C254.645 69.478 254.518 69.8279 254.391 70.1777L254.325 70.3633C254.323 70.3691 254.324 70.3757 254.325 70.3829ZM246.624 75.7833H242.887C242.843 75.7833 242.8 75.7815 242.754 75.7797L242.748 75.7795C242.732 75.7795 242.718 75.7621 242.718 75.7466C242.717 75.7176 242.717 75.6905 242.717 75.6615V74.4882C242.717 74.4553 242.718 74.4224 242.722 74.3915C242.722 74.3857 242.732 74.378 242.74 74.3741C242.752 74.3702 242.764 74.3683 242.778 74.3683H242.903H249.846L249.874 74.3685L249.888 74.3687C249.915 74.3692 249.943 74.3696 249.971 74.3683C250.001 74.3683 250.017 74.3838 250.027 74.4089C250.05 74.4708 250.072 74.5307 250.094 74.5925C250.227 74.9521 250.36 75.3136 250.491 75.6731C250.501 75.7002 250.509 75.7272 250.517 75.7542L250.517 75.7543C250.521 75.764 250.507 75.7795 250.497 75.7795C250.452 75.7814 250.406 75.7814 250.358 75.7814C249.115 75.7833 247.869 75.7833 246.624 75.7833ZM252.367 75.7669C252.368 75.7704 252.37 75.774 252.37 75.7777C252.401 75.7838 252.433 75.7845 252.464 75.7852C252.482 75.7856 252.5 75.7859 252.517 75.7873H259.911H259.975L259.99 75.7871C260.09 75.7857 260.092 75.7857 260.092 75.6714V74.4864V74.4862C260.092 74.4612 260.092 74.438 260.09 74.4129C260.09 74.3897 260.074 74.3723 260.052 74.3723C260.004 74.3704 259.959 74.3704 259.913 74.3704H253.034H252.921L252.915 74.3704C252.896 74.3702 252.877 74.3701 252.859 74.3878C252.855 74.4001 252.85 74.413 252.844 74.4265L252.844 74.4267L252.844 74.4268L252.844 74.427L252.844 74.4271C252.839 74.4387 252.834 74.4507 252.829 74.4632C252.684 74.8653 252.537 75.2693 252.39 75.6714C252.38 75.6984 252.372 75.7255 252.365 75.7526C252.363 75.7562 252.365 75.7613 252.367 75.7669ZM259.362 86.5434H255.904C255.862 86.5434 255.821 86.5434 255.779 86.5415C255.747 86.5415 255.731 86.526 255.729 86.4989C255.729 86.4913 255.729 86.4831 255.728 86.475L255.728 86.4748L255.727 86.4622L255.727 86.4506V85.2154C255.727 85.2076 255.728 85.1994 255.728 85.1912L255.729 85.1812L255.729 85.1755L255.729 85.1671C255.731 85.1458 255.747 85.1284 255.771 85.1284C255.817 85.1265 255.862 85.1265 255.91 85.1265H258.627H262.803C262.83 85.1265 262.853 85.126 262.874 85.1257C262.938 85.1245 262.97 85.1239 262.985 85.1395C263 85.1547 262.999 85.1851 262.998 85.2453C262.998 85.2644 262.997 85.2865 262.997 85.312C262.999 85.5517 262.998 85.7904 262.998 86.0295C262.998 86.1491 262.997 86.2688 262.997 86.3888C262.997 86.4294 262.996 86.4699 262.994 86.5105C262.994 86.526 262.976 86.5395 262.96 86.5415C262.954 86.5415 262.947 86.542 262.941 86.5424C262.934 86.5429 262.928 86.5434 262.922 86.5434H262.809H259.362ZM240.071 86.5433H243.491C244.636 86.5433 245.782 86.5433 246.924 86.5452C246.941 86.5452 246.958 86.545 246.974 86.5447L246.995 86.5443H246.995H246.995H246.995C247.018 86.5438 247.04 86.5433 247.063 86.5433C247.085 86.5433 247.103 86.5259 247.105 86.5066L247.105 86.5016C247.107 86.4783 247.109 86.4566 247.109 86.4331V85.2346C247.109 85.2112 247.107 85.1894 247.105 85.1662L247.105 85.1612C247.103 85.1476 247.087 85.1302 247.071 85.1302L247.071 85.1302C247.025 85.1283 246.98 85.1264 246.934 85.1264H240.069C240.031 85.1264 239.993 85.1264 239.956 85.1283C239.908 85.1302 239.894 85.1418 239.892 85.1844C239.89 85.2211 239.89 85.2578 239.89 85.2945C239.89 85.4133 239.89 85.5323 239.89 85.6514V85.6516V85.6518V85.652V85.6522V85.6525V85.653C239.889 85.8919 239.889 86.131 239.89 86.3693C239.89 86.3903 239.89 86.4089 239.89 86.4252V86.4253C239.889 86.4854 239.888 86.5155 239.903 86.5304C239.918 86.5454 239.948 86.5449 240.01 86.5439H240.01H240.01C240.027 86.5436 240.048 86.5433 240.071 86.5433ZM259.357 89.2168H255.923C255.895 89.2168 255.871 89.2172 255.851 89.2176H255.851C255.786 89.2188 255.755 89.2193 255.74 89.2038C255.725 89.1889 255.726 89.1592 255.727 89.1009V89.1009C255.727 89.0811 255.728 89.0581 255.728 89.0312C255.727 88.7875 255.727 88.5438 255.727 88.3007V88.2995V88.2968C255.728 88.1748 255.728 88.053 255.728 87.9313C255.728 87.8173 255.728 87.8153 255.845 87.8153H255.932H262.79C262.819 87.8153 262.844 87.8149 262.866 87.8145C262.935 87.8133 262.968 87.8127 262.985 87.8292C263 87.8449 263 87.8762 262.999 87.9373V87.9374V87.9375V87.9376V87.9377V87.9378C262.998 87.9528 262.998 87.9695 262.998 87.9883L262.998 88.0144C263 88.2567 262.999 88.498 262.999 88.7396C262.998 88.8606 262.998 88.9816 262.998 89.1028V89.1084C262.998 89.1621 262.998 89.1892 262.985 89.2029C262.971 89.2168 262.943 89.2168 262.887 89.2168H262.881H262.78H259.357ZM240.085 89.2169H243.493C244.638 89.2169 245.782 89.2169 246.928 89.2149C246.976 89.2149 247.021 89.2149 247.067 89.213C247.089 89.2111 247.109 89.1937 247.109 89.1743C247.109 89.156 247.109 89.1376 247.11 89.1192L247.11 89.096C247.111 89.0854 247.111 89.0747 247.111 89.0641C247.111 88.9442 247.111 88.8243 247.111 88.7044C247.112 88.465 247.112 88.2258 247.111 87.9874C247.11 87.9659 247.111 87.9469 247.111 87.9303C247.111 87.8728 247.111 87.8428 247.096 87.8273C247.08 87.8105 247.046 87.8107 246.975 87.8113L246.928 87.8115H240.073C240.035 87.8115 239.997 87.8115 239.96 87.8134C239.906 87.8154 239.894 87.8289 239.892 87.8792C239.89 87.9159 239.89 87.9526 239.89 87.9893C239.89 88.1055 239.89 88.2214 239.89 88.3372V88.3376V88.338V88.3384V88.3389V88.3393V88.3397V88.3402V88.3406V88.341V88.3415V88.3419V88.3423V88.3427V88.3432V88.3436V88.344C239.889 88.5728 239.889 88.8011 239.89 89.0293L239.89 89.0656L239.89 89.0961C239.889 89.1569 239.889 89.1877 239.904 89.2031C239.92 89.2191 239.952 89.2186 240.018 89.2175C240.037 89.2172 240.059 89.2169 240.085 89.2169ZM248.41 81.1596C248.394 81.1229 248.382 81.092 248.37 81.061C248.219 80.6597 248.071 80.2584 247.922 79.8571L247.921 79.8548L247.897 79.7852C247.889 79.762 247.903 79.7446 247.927 79.7446C247.961 79.7427 247.995 79.7427 248.028 79.7427H254.818C254.856 79.7427 254.893 79.7446 254.931 79.7465C254.947 79.7465 254.959 79.7659 254.953 79.7813C254.949 79.7929 254.946 79.8045 254.942 79.8161C254.939 79.8277 254.935 79.8393 254.931 79.8509C254.857 80.0539 254.782 80.2573 254.708 80.4608C254.633 80.6643 254.559 80.8677 254.484 81.0707C254.476 81.0939 254.466 81.1171 254.456 81.1383C254.45 81.148 254.439 81.1557 254.429 81.1596C254.417 81.1635 254.405 81.1635 254.391 81.1635H254.29H248.569C248.556 81.1635 248.543 81.1637 248.53 81.164C248.492 81.1647 248.453 81.1654 248.41 81.1596ZM249.374 83.7535C249.385 83.7869 249.396 83.8203 249.423 83.8503C249.457 83.8503 249.495 83.8523 249.533 83.8542H253.345C253.372 83.8542 253.402 83.8542 253.432 83.8523C253.452 83.8503 253.464 83.8407 253.472 83.8252C253.482 83.8039 253.492 83.7808 253.499 83.7576C253.574 83.5546 253.648 83.3511 253.723 83.1477C253.797 82.9442 253.872 82.7408 253.946 82.5378C253.954 82.5146 253.962 82.4914 253.968 82.4682C253.972 82.4527 253.958 82.4353 253.94 82.4353C253.899 82.4334 253.857 82.4315 253.815 82.4315H249.06H248.958C248.947 82.4315 248.933 82.4334 248.921 82.4353C248.911 82.4353 248.897 82.4508 248.899 82.4605C248.905 82.4837 248.911 82.5069 248.919 82.5301C248.934 82.5706 248.949 82.6108 248.963 82.6509C248.978 82.691 248.993 82.7311 249.008 82.7717C249.068 82.9302 249.127 83.0892 249.186 83.2482L249.186 83.2484L249.186 83.2487L249.186 83.2489C249.245 83.4077 249.304 83.5664 249.364 83.7247C249.367 83.7342 249.37 83.7439 249.374 83.7535ZM238.441 75.7775L238.432 75.7788C238.421 75.7804 238.411 75.7819 238.4 75.7819C238.377 75.7832 238.354 75.7828 238.332 75.7823C238.321 75.7821 238.309 75.7819 238.298 75.7819H234.248C234.206 75.7819 234.164 75.78 234.123 75.778C234.107 75.778 234.093 75.7606 234.091 75.7452L234.091 75.7401C234.089 75.7169 234.087 75.6952 234.087 75.6717V74.4732C234.087 74.4442 234.089 74.4171 234.093 74.3882C234.093 74.3824 234.103 74.3746 234.109 74.3708C234.117 74.3669 234.125 74.365 234.133 74.365C234.152 74.365 234.17 74.3645 234.189 74.364C234.208 74.3635 234.227 74.363 234.246 74.363H238.572H238.674C238.717 74.365 238.731 74.3766 238.729 74.4229C238.729 74.4848 238.727 74.5447 238.721 74.6066C238.686 74.9739 238.602 75.3296 238.483 75.6794C238.477 75.7162 238.465 75.7471 238.453 75.7761L238.441 75.7775ZM238.466 82.4834L238.452 82.445C238.398 82.4271 238.355 82.4291 238.314 82.4311L238.305 82.4315H234.252L234.239 82.4316L234.21 82.4324C234.195 82.4329 234.18 82.4334 234.165 82.4334C234.151 82.4334 234.139 82.4354 234.127 82.4373C234.113 82.4392 234.093 82.4566 234.093 82.4702C234.091 82.5069 234.089 82.5436 234.089 82.5804C234.089 82.702 234.089 82.8238 234.089 82.9458V82.9462V82.9466V82.9469V82.9473V82.9477V82.948V82.9484V82.9487V82.9491V82.9495V82.9498V82.9502C234.089 83.1932 234.088 83.4367 234.089 83.6803C234.089 83.6958 234.089 83.71 234.089 83.7229L234.089 83.7373C234.088 83.7982 234.088 83.8282 234.103 83.8428C234.117 83.8569 234.146 83.8563 234.203 83.8551C234.222 83.8547 234.244 83.8542 234.27 83.8542H238.549H238.674C238.678 83.8536 238.683 83.8532 238.687 83.8528C238.695 83.8519 238.704 83.8511 238.712 83.8484C238.718 83.8446 238.726 83.8368 238.728 83.831C238.732 83.8117 238.734 83.7905 238.734 83.7711C238.736 83.6474 238.718 83.5256 238.7 83.4058C238.66 83.1274 238.591 82.8548 238.503 82.5861C238.492 82.5523 238.479 82.5185 238.466 82.484L238.466 82.4834L238.466 82.4834ZM213.945 74.3713L213.945 74.3713L213.945 74.3713C213.955 74.3697 213.965 74.3683 213.975 74.3683H214.076H218.138C218.159 74.3683 218.18 74.3688 218.201 74.3693L218.201 74.3693C218.222 74.3698 218.242 74.3702 218.263 74.3702C218.285 74.3702 218.301 74.3876 218.301 74.4108C218.303 74.4321 218.303 74.4514 218.303 74.4727V75.6828C218.303 75.7079 218.301 75.7311 218.297 75.7563C218.295 75.7659 218.283 75.7756 218.273 75.7814C218.265 75.786 218.255 75.7857 218.244 75.7854L218.236 75.7853H218.134H214.072H214.072C214.034 75.7853 213.996 75.7853 213.959 75.7833C213.925 75.7814 213.909 75.7756 213.907 75.7292C213.905 75.6925 213.905 75.6557 213.905 75.619V75.619V74.5307V74.5307C213.905 74.494 213.905 74.4572 213.907 74.4205C213.909 74.4128 213.912 74.405 213.915 74.3973C213.918 74.3896 213.921 74.3818 213.923 74.3741C213.931 74.3734 213.938 74.3723 213.945 74.3713L213.945 74.3713ZM214.075 78.4743H216.113C216.623 78.4743 217.136 78.4743 217.652 78.4723H218.192C218.222 78.4723 218.25 78.4723 218.28 78.4685C218.292 78.4665 218.302 78.4569 218.304 78.4433L218.304 78.4383C218.306 78.4151 218.308 78.3933 218.308 78.3699V77.1598C218.308 77.1363 218.306 77.1146 218.304 77.0914L218.304 77.0863C218.304 77.0728 218.286 77.0573 218.27 77.0573C218.228 77.0554 218.186 77.0535 218.145 77.0535H214.081C214.047 77.0535 214.013 77.0535 213.979 77.0554C213.97 77.0554 213.961 77.0572 213.953 77.059L213.953 77.059L213.953 77.059C213.949 77.0598 213.945 77.0606 213.941 77.0612C213.926 77.0631 213.92 77.0747 213.918 77.0863C213.914 77.1114 213.912 77.1346 213.912 77.1598V78.3699C213.912 78.3933 213.913 78.4151 213.915 78.4383L213.916 78.4433C213.916 78.4569 213.934 78.4723 213.949 78.4723C213.991 78.4743 214.033 78.4743 214.075 78.4743ZM216.106 81.1635H214.07C214.049 81.1635 214.028 81.163 214.008 81.1625L214.008 81.1625L214.007 81.1625C213.987 81.162 213.966 81.1615 213.945 81.1615C213.929 81.1615 213.915 81.1461 213.913 81.1287L213.913 81.1237C213.911 81.1004 213.909 81.0787 213.909 81.0552V79.8586C213.909 79.8012 213.909 79.7722 213.924 79.7576C213.938 79.7427 213.968 79.7427 214.028 79.7427H214.092H218.126C218.172 79.7427 218.218 79.7446 218.263 79.7465C218.285 79.7465 218.301 79.7639 218.301 79.7871C218.303 79.8161 218.303 79.8432 218.303 79.8722V81.0456C218.303 81.0784 218.299 81.1113 218.295 81.1422C218.295 81.148 218.285 81.1557 218.279 81.1596C218.271 81.1635 218.263 81.1635 218.256 81.1635C218.235 81.1635 218.214 81.164 218.193 81.1644L218.193 81.1644C218.172 81.1649 218.151 81.1654 218.13 81.1654C217.455 81.1635 216.78 81.1635 216.106 81.1635ZM242.875 81.1635H244.913C245.589 81.1635 246.262 81.1635 246.945 81.1654C246.966 81.1654 246.987 81.1649 247.008 81.1644C247.029 81.164 247.05 81.1635 247.07 81.1635C247.092 81.1635 247.11 81.1461 247.112 81.1267C247.112 81.1197 247.112 81.1128 247.113 81.1059L247.113 81.09C247.114 81.0779 247.114 81.0659 247.114 81.0533V79.8548C247.114 79.8314 247.112 79.8096 247.111 79.7865L247.11 79.7813C247.108 79.7678 247.092 79.7504 247.078 79.7485C247.066 79.7478 247.053 79.747 247.041 79.7461L247.041 79.7461C247.015 79.7444 246.99 79.7427 246.965 79.7427H242.863C242.829 79.7427 242.796 79.7427 242.762 79.7446C242.74 79.7465 242.72 79.7639 242.72 79.7833C242.72 79.7977 242.72 79.8117 242.719 79.8256L242.719 79.8258C242.719 79.8398 242.718 79.8538 242.718 79.8683V81.0417C242.718 81.0707 242.718 81.0977 242.72 81.1267C242.72 81.1441 242.734 81.1596 242.75 81.1596C242.792 81.1615 242.833 81.1635 242.875 81.1635ZM216.099 83.8523H214.074H214.074C214.037 83.8523 213.999 83.8523 213.961 83.8504C213.927 83.8484 213.912 83.8426 213.91 83.7962C213.908 83.7595 213.908 83.7228 213.908 83.6861V82.5997C213.908 82.5629 213.908 82.5262 213.91 82.4895C213.91 82.4779 213.914 82.4663 213.919 82.4547C213.923 82.4489 213.929 82.4412 213.937 82.4392C213.949 82.4354 213.961 82.4315 213.973 82.4315C214.011 82.4296 214.049 82.4296 214.086 82.4296H218.121C218.14 82.4296 218.156 82.4294 218.171 82.4293L218.172 82.4293C218.24 82.4286 218.274 82.4283 218.29 82.4448C218.305 82.4606 218.305 82.4918 218.304 82.5529C218.304 82.5679 218.304 82.5847 218.304 82.6035V83.6899C218.304 83.7267 218.304 83.7634 218.302 83.8001C218.3 83.8368 218.286 83.8504 218.246 83.8504H218.133C217.456 83.8523 216.779 83.8523 216.1 83.8523H216.099ZM242.875 83.8521H244.901H244.902C245.581 83.8521 246.26 83.8521 246.939 83.8501H247.052C247.09 83.8501 247.104 83.8366 247.106 83.7999V83.7631V82.5279C247.106 82.5066 247.104 82.4854 247.102 82.4661C247.102 82.4525 247.084 82.4332 247.07 82.4332C247.052 82.4325 247.035 82.4316 247.018 82.4307C246.984 82.4291 246.952 82.4274 246.919 82.4274H242.907H242.831C242.716 82.4293 242.714 82.4313 242.714 82.5453V83.4983V83.7438C242.714 83.7673 242.716 83.789 242.718 83.8123L242.718 83.8173C242.718 83.8327 242.734 83.8482 242.75 83.8482C242.792 83.8501 242.833 83.8521 242.875 83.8521ZM227.651 74.3686H229.676L229.711 74.3684C229.766 74.368 229.793 74.3678 229.807 74.3814C229.821 74.3951 229.821 74.4229 229.821 74.4786L229.821 74.5039V75.6522C229.821 75.685 229.819 75.7179 229.817 75.7488C229.817 75.7643 229.801 75.7778 229.783 75.7798C229.771 75.7817 229.757 75.7817 229.745 75.7817H229.644H225.621C225.6 75.7817 225.581 75.782 225.564 75.7823C225.507 75.7832 225.479 75.7836 225.465 75.7696C225.451 75.7558 225.451 75.7278 225.452 75.6722L225.452 75.672C225.452 75.6572 225.452 75.6403 225.452 75.6213V74.5213C225.452 74.4807 225.454 74.4401 225.456 74.3995C225.456 74.3841 225.472 74.3706 225.488 74.3686C225.5 74.3667 225.514 74.3667 225.526 74.3667H225.639C226.311 74.3686 226.98 74.3686 227.651 74.3686ZM255.892 81.1632H257.904C258.572 81.1632 259.237 81.1632 259.907 81.167H260.02C260.032 81.167 260.046 81.167 260.058 81.1651C260.075 81.1632 260.089 81.1496 260.091 81.1342C260.093 81.109 260.095 81.0858 260.095 81.0607V79.8622C260.095 79.8371 260.095 79.8139 260.093 79.7888C260.091 79.7675 260.073 79.7482 260.054 79.7482L260.048 79.7479C260.002 79.7461 259.958 79.7443 259.915 79.7443H255.914H255.801C255.789 79.7443 255.775 79.7462 255.763 79.7482C255.749 79.7501 255.731 79.7636 255.731 79.7791C255.729 79.81 255.727 79.8429 255.727 79.8757V81.0375V81.111C255.727 81.1496 255.739 81.1612 255.779 81.1632H255.892ZM227.639 83.8522H225.615C225.573 83.8522 225.532 83.8502 225.49 83.8483C225.474 83.8483 225.458 83.8328 225.458 83.8174L225.458 83.8124V83.8123V83.8123C225.456 83.7891 225.454 83.7674 225.454 83.7439V83.5004V82.5473C225.454 82.4333 225.456 82.4314 225.571 82.4294H225.647H229.634C229.666 82.4294 229.699 82.4311 229.732 82.4328C229.749 82.4337 229.767 82.4346 229.785 82.4352C229.798 82.4352 229.816 82.4546 229.816 82.4681L229.817 82.4731L229.817 82.4731C229.819 82.4963 229.82 82.5181 229.82 82.5415V83.7517C229.82 83.7768 229.818 83.8 229.814 83.8251C229.812 83.8367 229.804 83.8483 229.789 83.8483C229.755 83.8502 229.721 83.8522 229.689 83.8522H228.72H227.639ZM255.875 83.8521H257.913H259.925C259.967 83.8521 260.009 83.8521 260.05 83.8501C260.07 83.8482 260.088 83.8308 260.088 83.8095C260.088 83.7966 260.088 83.7836 260.088 83.7706C260.089 83.7574 260.089 83.7441 260.089 83.7309L260.089 83.7303L260.09 83.6958C260.09 83.6808 260.09 83.6658 260.09 83.651V82.5743C260.09 82.5377 260.088 82.5011 260.086 82.4645L260.086 82.4641C260.086 82.4525 260.064 82.4313 260.052 82.4313C260.003 82.4293 259.951 82.4274 259.901 82.4274H255.915H255.839C255.782 82.4284 255.753 82.4288 255.739 82.4435C255.724 82.4584 255.724 82.4878 255.724 82.5472V83.7458V83.7459C255.724 83.7671 255.724 83.7864 255.726 83.8076L255.727 83.812L255.727 83.8158C255.728 83.8214 255.729 83.8269 255.732 83.8308C255.736 83.8366 255.744 83.8463 255.75 83.8463C255.791 83.8501 255.833 83.8521 255.875 83.8521ZM252.47 86.5394L252.46 86.5402L252.46 86.5402C252.441 86.5419 252.423 86.5433 252.404 86.5433H250.493C250.478 86.5433 250.46 86.5433 250.444 86.5414C250.426 86.5394 250.414 86.5278 250.406 86.5143C250.392 86.4853 250.38 86.4544 250.368 86.4235C250.351 86.3776 250.334 86.3318 250.317 86.2858C250.295 86.228 250.274 86.17 250.252 86.112C250.191 85.9481 250.129 85.7837 250.068 85.6193C250.045 85.5564 250.021 85.4931 249.998 85.4297C249.975 85.3665 249.951 85.3032 249.927 85.2404C249.922 85.2269 249.918 85.2133 249.913 85.1998C249.909 85.1863 249.905 85.1728 249.9 85.1592C249.896 85.1496 249.908 85.1322 249.917 85.1302C249.929 85.1283 249.941 85.1264 249.955 85.1264H250.043H252.822C252.863 85.1264 252.905 85.1283 252.947 85.1302L252.947 85.1302C252.969 85.1302 252.982 85.1515 252.975 85.1747C252.971 85.1863 252.967 85.1979 252.963 85.2096C252.956 85.2327 252.948 85.2559 252.939 85.2791C252.887 85.4193 252.836 85.559 252.785 85.6987C252.734 85.8383 252.683 85.9779 252.631 86.118C252.609 86.177 252.587 86.2364 252.565 86.2959C252.543 86.3553 252.522 86.4148 252.5 86.4737C252.495 86.4919 252.485 86.5101 252.475 86.5295L252.47 86.5394ZM251.985 87.8867C251.991 87.8674 251.997 87.8481 251.989 87.8268C251.968 87.8139 251.944 87.8144 251.918 87.815C251.913 87.8151 251.907 87.8152 251.902 87.8152H250.984C250.964 87.8152 250.942 87.8191 250.923 87.821C250.913 87.8229 250.901 87.8384 250.903 87.8481C250.908 87.8616 250.912 87.8751 250.917 87.8887C250.921 87.9022 250.926 87.9157 250.931 87.9292C251.078 88.3217 251.225 88.716 251.372 89.1104C251.381 89.1374 251.391 89.1625 251.403 89.1896C251.405 89.194 251.41 89.1983 251.414 89.2027C251.416 89.2041 251.418 89.2056 251.419 89.207C251.443 89.2244 251.495 89.2128 251.507 89.1857C251.516 89.1654 251.524 89.1441 251.532 89.1225C251.535 89.1133 251.539 89.1041 251.542 89.0949C251.589 88.9683 251.635 88.8417 251.681 88.7151C251.728 88.5885 251.774 88.4618 251.82 88.3352C251.848 88.2608 251.876 88.1859 251.903 88.111C251.93 88.036 251.958 87.9611 251.985 87.8867Z" fill="#898D9A"/>
<path d="M309 69.937C309 69.937 311.982 82.1562 312.458 84.1396C313.013 86.4545 314.014 87.3065 316.9 86.7319L318.762 79.1561C319.234 77.2743 319.55 75.9327 319.854 74.0185H319.907C320.12 75.9515 320.424 77.2799 320.812 79.1627C320.812 79.1627 321.57 82.6019 321.958 84.4083C322.347 86.2141 323.431 87.3522 326.257 86.7326L330.694 69.9382H327.112L325.597 77.1992C325.19 79.3128 324.82 80.9643 324.535 82.8978H324.485C324.226 80.9835 323.896 79.3975 323.482 77.3383L321.905 69.9382H318.173L316.486 77.1518C316.008 79.3438 315.561 81.1139 315.277 82.9818H315.225C314.934 81.2227 314.547 78.9981 314.127 76.8762C314.127 76.8762 313.124 71.7167 312.773 69.9382L309 69.9387L309 69.937ZM343.148 69.937V86.7313H346.558V83.1651V69.9362H343.148V69.937ZM391.181 69.937V82.3264C391.181 84.0346 391.503 85.2314 392.19 85.9625C392.791 86.602 393.781 87.016 394.967 87.016C395.975 87.016 396.967 86.8248 397.435 86.6506L397.391 83.9855C397.043 84.0711 396.643 84.1396 396.095 84.1396C394.934 84.1396 394.544 83.3955 394.544 81.8618V77.1216H397.514V73.9084H394.544V69.937H391.181L391.181 69.937ZM335.526 73.8302C333.407 73.8302 331.724 74.4253 330.807 74.9553L331.478 77.2536C332.318 76.7244 333.654 76.2864 334.92 76.2864C337.015 76.281 337.357 77.471 337.357 78.2342V78.4147C332.792 78.4079 329.908 79.9875 329.908 83.2076C329.908 85.1736 331.376 87.016 333.929 87.016C335.5 87.016 336.814 86.3893 337.602 85.3853H337.679C337.679 85.3853 338.2 87.5658 341.074 86.732C340.923 85.8244 340.874 84.8568 340.874 83.6913V79.2048C340.874 76.3453 339.653 73.8303 335.526 73.8303L335.526 73.8302ZM355.927 73.8302C353.793 73.8302 352.834 74.9118 352.253 75.8294H352.202V74.115H348.947V86.7321H352.376V79.3327C352.376 78.9858 352.416 78.619 352.537 78.2999C352.821 77.5549 353.514 76.6835 354.621 76.6835C356.004 76.6835 356.651 77.8531 356.651 79.541V86.732H360.076V79.2431C360.076 78.9119 360.122 78.5131 360.219 78.2203C360.501 77.3729 361.248 76.6834 362.277 76.6834C363.679 76.6834 364.352 77.8326 364.352 79.8188V86.732H367.78V79.301C367.78 75.382 365.79 73.8303 363.543 73.8303C362.548 73.8303 361.763 74.0798 361.053 74.5156C360.457 74.8818 359.922 75.402 359.455 76.0871H359.405C358.862 74.7273 357.587 73.8303 355.927 73.8303L355.927 73.8302ZM374.755 73.8302C372.636 73.8302 370.954 74.4253 370.036 74.9553L370.708 77.2536C371.546 76.7244 372.884 76.2864 374.148 76.2864C376.242 76.281 376.585 77.471 376.585 78.2342V78.4147C372.021 78.4079 369.137 79.9875 369.137 83.2076C369.137 85.1736 370.606 87.016 373.159 87.016C374.729 87.016 376.044 86.3893 376.83 85.3853H376.908C376.908 85.3853 377.429 87.5658 380.303 86.732C380.151 85.8244 380.103 84.8568 380.103 83.6913V79.2048C380.103 76.3453 378.882 73.8303 374.755 73.8303L374.755 73.8302ZM388.993 73.8302C387.68 73.8302 386.186 74.6777 385.559 76.4944H385.464V74.1149H382.377V86.7319H385.896V80.2712C385.896 79.9227 385.917 79.6188 385.972 79.3401C386.232 77.9868 387.267 77.1216 388.753 77.1216C389.161 77.1216 389.453 77.1658 389.769 77.2114V73.9083C389.504 73.8548 389.323 73.8301 388.993 73.8301L388.993 73.8302ZM337.467 80.6505V82.2245C337.467 82.4573 337.447 82.6976 337.382 82.9076C337.119 83.7818 336.213 84.5205 335.081 84.5205C334.137 84.5205 333.387 83.9848 333.387 82.8517C333.387 81.1184 335.295 80.6393 337.467 80.6505H337.467ZM376.696 80.6505V82.2245C376.696 82.4573 376.675 82.6976 376.611 82.9076C376.347 83.7818 375.442 84.5205 374.31 84.5205C373.366 84.5205 372.616 83.9848 372.616 82.8517C372.616 81.1184 374.524 80.6393 376.696 80.6505H376.696Z" fill="#898D9A"/>
<path d="M415.954 63.8633C414.853 63.8633 413.978 64.4781 413.978 65.2267L414.647 72.7981C414.721 73.2543 415.279 73.6062 415.955 73.6062C416.632 73.6053 417.189 73.2537 417.264 72.7981L417.936 65.2267C417.936 64.4782 417.058 63.8633 415.956 63.8633L415.954 63.8633ZM405.058 69.9368C404.486 69.9503 403.837 70.3831 403.424 71.0992C402.871 72.0528 402.969 73.1185 403.615 73.4923L410.506 76.7013C410.937 76.8614 411.521 76.5557 411.86 75.9721C411.86 75.972 411.86 75.9718 411.86 75.9717C412.2 75.3852 412.174 74.7257 411.815 74.4332L405.592 70.0681C405.43 69.9745 405.249 69.9323 405.058 69.9369L405.058 69.9368ZM426.851 69.9368C426.66 69.9323 426.479 69.9744 426.318 70.068L420.093 74.4331C419.737 74.7256 419.711 75.3851 420.049 75.9716L420.05 75.972C420.389 76.5556 420.972 76.8613 421.403 76.7012L428.296 73.4924C428.945 73.1185 429.038 72.0529 428.49 71.0993C428.075 70.3832 427.424 69.9504 426.853 69.9368L426.851 69.9368ZM410.764 79.9263C410.674 79.9251 410.588 79.9388 410.507 79.9693L403.616 83.1744C402.97 83.5499 402.872 84.616 403.425 85.5706C403.975 86.5223 404.946 86.9747 405.592 86.6015L411.816 82.2398C412.175 81.9437 412.201 81.2844 411.861 80.6984L411.864 80.6997C411.588 80.2224 411.15 79.9314 410.764 79.9262L410.764 79.9263ZM421.148 79.9263C420.762 79.9315 420.325 80.2225 420.049 80.6998L420.051 80.6985C419.713 81.2845 419.739 81.9438 420.095 82.2399L426.319 86.6016C426.964 86.9748 427.936 86.5224 428.489 85.5707C429.038 84.616 428.945 83.55 428.296 83.1745L421.404 79.9694C421.323 79.9389 421.237 79.9252 421.148 79.9264L421.148 79.9263ZM415.953 83.0642C415.279 83.065 414.721 83.4154 414.648 83.8704L413.979 91.4415C413.979 92.1913 414.854 92.8049 415.955 92.8049C417.058 92.8049 417.935 92.1913 417.935 91.4415L417.265 83.8704C417.189 83.4154 416.633 83.0651 415.956 83.0642H415.953H415.953Z" fill="#898D9A"/>
</svg>
