<svg width="685" height="400" fill="none" xmlns="http://www.w3.org/2000/svg"><rect width="685" height="400" rx="16" fill="#fff"/><path d="m47.483 47.992 3.036-.005-.02-13.706 4.817-.007-.004-2.794-12.65.019.004 2.794 4.796-.007.02 13.706Zm12.945-11.283c-3.389.005-5.87 2.45-5.866 5.75.005 3.322 2.495 5.739 5.883 5.734 3.388-.005 5.87-2.43 5.865-5.751-.005-3.3-2.495-5.739-5.883-5.733Zm.003 2.574c1.782-.003 2.95 1.271 2.953 3.163.003 1.914-1.161 3.192-2.943 3.195-1.782.002-2.972-1.272-2.975-3.186-.003-1.892 1.183-3.17 2.965-3.172Zm6.743-.715v.815l2.09-.004.009 5.302c.003 2.178 1.413 3.496 3.745 3.493a6.137 6.137 0 0 0 2.727-.642l-.62-2.287c-.55.22-1.01.353-1.495.354-.99.001-1.563-.438-1.564-1.582l-.007-4.642 3.828-.005-.004-2.442-3.828.005-.004-2.508-.77.001-4.107 4.142Zm17.35 9.369 2.464-.004-.01-6.644c-.004-3.08-1.92-4.617-4.847-4.613-2.772.004-4.53 1.459-5.077 3.55l2.663.48c.306-1.123 1.12-1.674 2.374-1.676 1.122-.001 1.87.46 2.114 1.56l-2.815.641c-2.31.532-4.244 1.415-4.24 3.68.003 2.113 1.588 3.254 3.568 3.251 1.54-.002 2.793-.664 3.606-1.743l.2 1.518Zm-4.537-3.228c-.001-.814.658-1.145 1.582-1.366l2.705-.664v.242c.004 2.002-1.491 2.95-2.965 2.953-.792 0-1.32-.395-1.322-1.165Zm10.01 3.22 2.793-.005-.025-16.5-2.793.005.024 16.5Zm11.377-.017 3.036-.005-.025-16.5-3.036.005.025 16.5Zm17.49-.026-.024-16.5-2.794.004.01 6.644a4.58 4.58 0 0 0-3.346-1.403c-3.058.004-5.409 2.45-5.404 5.75.005 3.322 2.363 5.738 5.421 5.734a4.598 4.598 0 0 0 3.451-1.523l.178 1.297 2.508-.004Zm-5.733-8.682c1.782-.003 2.928 1.272 2.931 3.164.003 1.914-1.139 3.191-2.921 3.194-1.76.003-2.906-1.272-2.909-3.186-.003-1.892 1.139-3.17 2.899-3.172Zm13.936 8.89c2.662-.005 4.574-1.261 5.23-3.462l-2.596-.525c-.351.925-1.186 1.564-2.638 1.566-1.584.003-2.707-.744-2.974-2.46l8.184-.011c.088-.419.131-.859.13-1.255-.004-3.19-2.252-5.342-5.486-5.338-3.344.005-5.694 2.473-5.689 5.817.005 3.278 2.187 5.673 5.839 5.667Zm-.146-9.175c1.408-.002 2.311.767 2.555 2.153l-5.302.008c.394-1.453 1.471-2.159 2.747-2.16Zm14.601 8.933 2.464-.004-.01-6.644c-.004-3.08-1.921-4.617-4.847-4.613-2.772.004-4.53 1.459-5.077 3.55l2.663.48c.307-1.123 1.12-1.674 2.374-1.676 1.122-.001 1.87.46 2.114 1.56l-2.815.641c-2.309.532-4.244 1.415-4.241 3.68.004 2.113 1.589 3.254 3.569 3.251 1.54-.002 2.793-.664 3.606-1.743l.2 1.518Zm-4.537-3.227c-.001-.815.658-1.145 1.582-1.367l2.705-.664.001.242c.003 2.002-1.492 2.95-2.966 2.953-.792 0-1.321-.395-1.322-1.165Zm13.903 3.433c3.146-.005 4.684-1.57 4.681-3.66-.004-2.573-2.314-2.966-4.141-3.249-1.276-.196-2.266-.37-2.268-1.185-.001-.66.659-1.123 1.737-1.124.99-.002 1.65.415 1.872 1.361l2.771-.576c-.641-1.957-2.139-3.055-4.647-3.051-2.662.004-4.595 1.48-4.592 3.527.003 2.53 2.072 3.01 3.877 3.294 1.32.24 2.508.348 2.509 1.184.001.77-.68 1.211-1.802 1.213-1.122.002-1.937-.46-2.158-1.603l-2.859.576c.619 2.353 2.556 3.297 5.02 3.293ZM165.848 181.59l-10.64.016 2.167-2.139c5.871-5.713 7.933-8.376 7.927-11.911-.007-4.725-3.302-8.08-8.447-8.073-4.55.007-8.361 2.533-9.159 7.504l4.622.903c.346-2.801 2.304-4.098 4.334-4.102 2.38-.003 3.817 1.605 3.82 3.915.004 2.275-1.358 4.342-6.81 9.6l-5.138 4.978.006 3.815 17.325-.026-.007-4.48Zm21.198-4.232c-.008-4.935-3.303-8.465-8.483-8.457-1.33.002-2.555.249-3.674.775l.867-5.601 10.08-.015-.007-4.27-13.895.021-2.149 13.968 3.992 1.079c.698-1.226 2.202-1.928 3.917-1.931 2.66-.004 4.553 1.778 4.557 4.578.004 2.66-1.813 4.518-4.613 4.522-2.24.004-4.237-1.148-4.521-3.773l-4.688 1.197c.777 4.759 4.84 6.958 9.215 6.951 5.775-.008 9.409-3.829 9.402-9.044Zm13.368 9.01c5.915-.008 9.792-4.984 9.78-13.559-.013-8.47-3.905-13.399-9.82-13.391-5.95.009-9.863 4.95-9.85 13.42.012 8.575 3.94 13.539 9.89 13.53Zm-.034-22.645c3.535-.005 5.011 3.668 5.019 9.093.008 5.565-1.457 9.242-4.992 9.247-3.64.006-5.045-3.667-5.053-9.232-.008-5.425 1.421-9.102 5.026-9.108Z" fill="#000"/><path d="m147.228 198.655.001 1.023-3.699.006-.001-1.023 3.699-.006Zm-2.675 6.55-.011-7.304c-.001-.409.088-.749.267-1.019a1.64 1.64 0 0 1 .711-.611c.295-.136.616-.205.962-.206.256 0 .475.021.657.063.182.04.317.077.405.111l-.297 1.031a7.045 7.045 0 0 0-.23-.059 1.343 1.343 0 0 0-.341-.038c-.31.001-.531.078-.665.231-.13.154-.195.376-.195.665l.011 7.134-1.274.002Zm6.499.122c-.614.001-1.15-.139-1.608-.419a2.858 2.858 0 0 1-1.067-1.179c-.253-.505-.381-1.096-.382-1.772-.001-.679.125-1.273.377-1.782a2.838 2.838 0 0 1 1.064-1.186c.457-.282.992-.424 1.606-.425.613-.001 1.149.139 1.607.42.458.28.813.675 1.067 1.183.253.508.381 1.102.382 1.781.001.676-.125 1.267-.377 1.773s-.606.9-1.063 1.182c-.457.282-.993.423-1.606.424Zm.002-1.069c.398-.001.727-.107.988-.317.262-.211.454-.491.579-.841.127-.349.19-.734.19-1.155a3.32 3.32 0 0 0-.194-1.15 1.876 1.876 0 0 0-.58-.847c-.262-.213-.592-.319-.99-.318-.4 0-.732.107-.996.321a1.898 1.898 0 0 0-.583.849 3.418 3.418 0 0 0-.186 1.151c.001.42.064.805.19 1.154.128.349.323.629.585.839.264.21.597.314.997.314Zm4.471.93-.01-6.545 1.232-.002.001 1.04h.068a1.58 1.58 0 0 1 .63-.832 1.798 1.798 0 0 1 1.031-.308c.079-.001.173.002.281.008.111.005.197.012.26.021l.002 1.218a2.401 2.401 0 0 0-.273-.046 2.472 2.472 0 0 0-.392-.029c-.301 0-.57.064-.805.193a1.42 1.42 0 0 0-.757 1.283l.006 3.997-1.274.002Zm7.764-.011-.001-.955 2.948-3.064c.315-.333.575-.624.779-.875.207-.253.361-.493.463-.72.102-.228.153-.469.152-.725 0-.29-.069-.54-.205-.75a1.335 1.335 0 0 0-.559-.489 1.77 1.77 0 0 0-.797-.173 1.67 1.67 0 0 0-.818.192 1.314 1.314 0 0 0-.536.542 1.71 1.71 0 0 0-.187.819l-1.257.002c-.001-.531.121-.996.365-1.394a2.48 2.48 0 0 1 1.004-.926c.426-.223.91-.334 1.453-.335.548-.001 1.031.108 1.449.326.421.215.749.51.986.885.236.372.355.792.355 1.261.001.324-.06.64-.182.95-.118.31-.327.656-.624 1.037a17.77 17.77 0 0 1-1.243 1.378l-1.731 1.818v.064l3.929-.006.001 1.129-5.744.009Zm6.986-1.715-.001-1.065 3.762-5.963.839-.002.003 1.568-.533.001-2.691 4.274v.068l5.169-.007.002 1.116-6.55.01Zm4.14 1.698-.003-2.028.008-.486-.009-6.213 1.249-.002.013 8.727-1.258.002Zm7.094 2.444-.013-9 1.244-.002.001 1.061h.107c.074-.136.18-.294.319-.473s.332-.336.579-.47c.247-.137.573-.205.98-.206a2.55 2.55 0 0 1 1.415.399c.415.266.741.651.977 1.153.24.503.36 1.107.361 1.815.001.707-.116 1.314-.351 1.82-.235.503-.558.891-.97 1.165a2.52 2.52 0 0 1-1.41.407c-.397 0-.723-.066-.976-.199a1.853 1.853 0 0 1-.589-.468 3.592 3.592 0 0 1-.328-.477h-.077l.005 3.473-1.274.002Zm1.24-5.729c.001.46.068.864.202 1.21s.328.617.581.813c.253.193.563.289.929.288.381 0 .699-.101.954-.304.256-.204.448-.482.579-.831.133-.35.199-.744.198-1.181 0-.432-.066-.82-.198-1.163a1.778 1.778 0 0 0-.58-.813c-.256-.199-.576-.298-.96-.297-.369.001-.681.096-.937.287a1.758 1.758 0 0 0-.574.798 3.32 3.32 0 0 0-.194 1.193Zm8.068 3.406c-.415 0-.79-.076-1.126-.229a1.897 1.897 0 0 1-.798-.676c-.193-.295-.29-.657-.291-1.086-.001-.37.07-.674.212-.913.141-.238.333-.428.574-.567.241-.14.511-.245.809-.317.298-.071.602-.126.912-.163l.954-.112c.245-.032.422-.082.533-.15.111-.069.166-.179.166-.333l-.001-.03c0-.372-.106-.66-.316-.864-.208-.204-.518-.306-.93-.306-.429.001-.767.097-1.013.287a1.533 1.533 0 0 0-.507.628l-1.197-.271c.141-.398.348-.72.62-.964.276-.248.592-.427.95-.539a3.728 3.728 0 0 1 1.129-.172c.261 0 .538.031.831.093.295.059.571.169.827.331.259.161.471.393.636.693.165.298.248.686.249 1.163l.006 4.347-1.244.002-.001-.895h-.051a1.813 1.813 0 0 1-.37.486 1.97 1.97 0 0 1-.635.398 2.48 2.48 0 0 1-.928.159Zm.275-1.023c.352-.001.653-.071.903-.211.253-.139.444-.321.575-.546.133-.227.199-.47.199-.729l-.001-.844a.666.666 0 0 1-.264.129c-.128.037-.275.07-.439.098l-.482.073-.392.052a3.184 3.184 0 0 0-.677.159 1.161 1.161 0 0 0-.485.32c-.119.137-.179.319-.178.546 0 .315.117.554.35.715.233.159.53.238.891.238Zm7.4 3.457c-.52.001-.968-.066-1.343-.202a2.608 2.608 0 0 1-.913-.54 2.274 2.274 0 0 1-.529-.737l1.094-.453c.077.125.18.257.308.396.131.142.307.262.529.361.224.1.513.149.865.148.483 0 .882-.119 1.197-.355.315-.234.472-.606.471-1.117l-.002-1.287h-.081a2.933 2.933 0 0 1-.331.465c-.142.17-.338.318-.588.444-.25.125-.575.188-.975.189a2.728 2.728 0 0 1-1.399-.36c-.412-.244-.739-.603-.981-1.077-.24-.477-.36-1.063-.361-1.759-.001-.696.116-1.293.351-1.791.238-.497.564-.878.979-1.143a2.546 2.546 0 0 1 1.409-.403c.407 0 .735.067.985.203.25.133.445.289.585.468.142.179.252.336.328.473l.094-.001-.001-1.061 1.248-.001.01 6.69c.001.562-.129 1.024-.39 1.385a2.302 2.302 0 0 1-1.06.803 4.09 4.09 0 0 1-1.499.262Zm-.019-3.745c.367-.001.676-.087.929-.257.255-.174.448-.422.578-.743.133-.324.2-.712.199-1.163a3.203 3.203 0 0 0-.198-1.164 1.726 1.726 0 0 0-.576-.783c-.253-.19-.566-.284-.938-.284-.384.001-.703.101-.959.3a1.8 1.8 0 0 0-.578.802 3.182 3.182 0 0 0-.19 1.134c.001.429.067.805.198 1.129.131.323.324.576.58.757.259.182.578.272.955.272Zm7.498 1.275c-.645.001-1.2-.136-1.667-.411a2.794 2.794 0 0 1-1.075-1.17c-.251-.505-.377-1.097-.378-1.776-.001-.671.123-1.262.372-1.774a2.92 2.92 0 0 1 1.055-1.199c.454-.287.986-.431 1.593-.432.37-.001.728.06 1.075.181.346.122.658.313.934.574.276.261.493.6.653 1.018.16.414.24.918.241 1.512l.001.452-5.203.008-.002-.955 3.955-.006a1.882 1.882 0 0 0-.206-.89 1.55 1.55 0 0 0-1.437-.842 1.667 1.667 0 0 0-.938.266 1.767 1.767 0 0 0-.612.683 1.967 1.967 0 0 0-.212.908l.001.745c.001.438.078.81.232 1.116.157.307.374.541.653.703.279.158.604.237.976.237a2.06 2.06 0 0 0 .661-.103 1.366 1.366 0 0 0 .846-.833l1.207.216a2.185 2.185 0 0 1-.519.934 2.521 2.521 0 0 1-.932.619 3.468 3.468 0 0 1-1.274.219Zm9.119-5.093-1.154.206a1.387 1.387 0 0 0-.231-.421 1.15 1.15 0 0 0-.418-.328 1.505 1.505 0 0 0-.661-.126c-.361 0-.662.082-.903.244-.241.159-.362.365-.361.618 0 .219.081.395.244.528.162.134.423.243.784.327l1.04.237c.603.139 1.052.352 1.348.642.296.289.444.665.445 1.128 0 .392-.113.742-.34 1.049-.224.305-.537.544-.94.718-.401.173-.865.261-1.393.262-.733.001-1.332-.155-1.795-.467-.464-.314-.749-.761-.855-1.341l1.232-.189c.077.321.235.564.474.728.239.162.55.242.933.242.418-.001.752-.088 1.001-.262.25-.176.375-.391.375-.644a.673.673 0 0 0-.231-.515c-.151-.139-.383-.244-.695-.314l-1.109-.242c-.611-.138-1.063-.359-1.356-.662-.29-.304-.436-.689-.436-1.155a1.65 1.65 0 0 1 .322-1.014c.216-.29.514-.517.894-.679a3.24 3.24 0 0 1 1.308-.249c.707-.001 1.264.151 1.671.457.407.304.676.711.807 1.222Z" fill="#898D9A"/><path d="M288.436 132.128a134.368 134.368 0 0 0-106.243-56.806l-1.052 40.295a94.05 94.05 0 0 1 74.369 39.764l32.926-23.253Z" fill="#FFC200"/><path d="M313.046 209.638c0-26.072-7.585-51.58-21.83-73.415l-33.76 22.024a94.054 94.054 0 0 1 15.282 51.391h40.308Z" fill="#B880FF"/><path d="M178.684 75.276A134.366 134.366 0 0 0 54.55 158.22a134.357 134.357 0 0 0-10.228 51.418h40.309a94.054 94.054 0 0 1 94.053-94.054V75.276Z" fill="#89CA4F"/><path d="M441.728 81.992c-.464-1.984-2.016-3.136-4.32-3.136-2.384 0-4.272 1.392-4.272 3.408 0 2.528 2.112 2.992 4 3.408 1.488.336 2.816.624 2.816 1.904 0 1.344-1.136 1.952-2.528 1.952-1.584 0-2.64-.784-2.976-2.352l-1.824.48c.512 2.128 2.096 3.488 4.8 3.488 2.576 0 4.384-1.392 4.384-3.616 0-2.512-2.096-3.056-3.968-3.488-1.504-.336-2.848-.608-2.848-1.856 0-1.104.928-1.744 2.416-1.744 1.344 0 2.272.8 2.528 2l1.792-.448Zm.743 2.064v.432h1.44v4.224c0 1.536.944 2.432 2.544 2.432a4.4 4.4 0 0 0 1.872-.432l-.384-1.36c-.4.16-.784.272-1.152.272-.8 0-1.232-.368-1.232-1.264v-3.872h2.864v-1.44h-2.864V81.4h-.4l-2.688 2.656ZM449.904 91h1.648v-4.144c0-1.504.928-2.32 2.032-2.32.272 0 .544.032.816.112l.224-1.616a2.81 2.81 0 0 0-.784-.112c-1.056 0-1.824.48-2.288 1.216l-.08-1.088h-1.568V91Zm10.958 0h1.488v-4.864c0-2.128-1.344-3.232-3.392-3.232-1.904 0-3.168.976-3.552 2.496l1.584.288c.24-.944.928-1.376 1.952-1.376.944 0 1.616.432 1.776 1.408l-2.144.496c-1.776.416-3.12 1.056-3.12 2.64 0 1.44 1.072 2.288 2.544 2.288 1.184 0 2.16-.544 2.784-1.456l.08 1.312Zm-3.712-2.256c0-.688.56-.992 1.472-1.216L460.75 87v.192c0 1.696-1.232 2.56-2.464 2.56-.704 0-1.136-.368-1.136-1.008Zm6.384-4.688v.432h1.44v4.224c0 1.536.944 2.432 2.544 2.432a4.4 4.4 0 0 0 1.872-.432l-.384-1.36c-.4.16-.784.272-1.152.272-.8 0-1.232-.368-1.232-1.264v-3.872h2.864v-1.44h-2.864V81.4h-.4l-2.688 2.656Zm10.843 7.088c1.92 0 3.296-.96 3.728-2.544l-1.584-.288c-.288.848-.976 1.376-2.144 1.376-1.328 0-2.272-.736-2.432-2.208h6.16c.032-.256.064-.528.064-.768 0-2.256-1.6-3.808-3.888-3.808-2.352 0-4.048 1.744-4.048 4.112 0 2.4 1.584 4.128 4.144 4.128Zm-.096-6.848c1.168 0 1.968.704 2.128 1.856h-4.4c.272-1.232 1.216-1.856 2.272-1.856Zm5.187 2.672c0 2.336 1.648 4.048 3.872 4.048 1.056 0 1.968-.432 2.608-1.168v1.168c0 1.36-.896 2.128-2.32 2.128-1.232 0-1.968-.56-2.144-1.504l-1.696.32c.256 1.552 1.6 2.704 3.824 2.704 2.464 0 3.984-1.552 3.984-3.776v-7.84h-1.536l-.08 1.072a3.397 3.397 0 0 0-2.64-1.216c-2.224 0-3.872 1.712-3.872 4.064Zm1.728 0c0-1.52.96-2.544 2.384-2.544 1.408 0 2.368 1.024 2.368 2.544 0 1.504-.96 2.528-2.368 2.528-1.424 0-2.384-1.024-2.384-2.528Zm7.744-3.92 3.424 7.904-1.392 3.568h1.712l4.48-11.472h-1.744l-2.176 5.808-2.464-5.808h-1.84ZM502.493 91h1.792V79h-1.792v12Zm12.292 0V79h-1.664v5.088a3.413 3.413 0 0 0-2.624-1.184c-2.224 0-3.904 1.744-3.904 4.112 0 2.384 1.68 4.128 3.904 4.128 1.088 0 2.032-.464 2.672-1.248l.064 1.104h1.552Zm-4.064-6.576c1.44 0 2.4 1.04 2.4 2.592s-.96 2.608-2.4 2.608c-1.424 0-2.4-1.056-2.4-2.608s.976-2.592 2.4-2.592Zm10.063 6.72c1.92 0 3.296-.96 3.728-2.544l-1.584-.288c-.288.848-.976 1.376-2.144 1.376-1.328 0-2.272-.736-2.432-2.208h6.16c.032-.256.064-.528.064-.768 0-2.256-1.6-3.808-3.888-3.808-2.352 0-4.048 1.744-4.048 4.112 0 2.4 1.584 4.128 4.144 4.128Zm-.096-6.848c1.168 0 1.968.704 2.128 1.856h-4.4c.272-1.232 1.216-1.856 2.272-1.856ZM531.362 91h1.488v-4.864c0-2.128-1.344-3.232-3.392-3.232-1.904 0-3.168.976-3.552 2.496l1.584.288c.24-.944.928-1.376 1.952-1.376.944 0 1.616.432 1.776 1.408l-2.144.496c-1.776.416-3.12 1.056-3.12 2.64 0 1.44 1.072 2.288 2.544 2.288 1.184 0 2.16-.544 2.784-1.456l.08 1.312Zm-3.712-2.256c0-.688.56-.992 1.472-1.216L531.25 87v.192c0 1.696-1.232 2.56-2.464 2.56-.704 0-1.136-.368-1.136-1.008Zm10.208 2.4c2.176 0 3.248-1.104 3.248-2.56 0-1.824-1.616-2.096-2.96-2.32-.96-.16-1.776-.288-1.776-1.008 0-.592.592-.992 1.488-.992.816 0 1.344.368 1.552 1.152l1.648-.352c-.432-1.392-1.504-2.16-3.2-2.16-1.856 0-3.184 1.024-3.184 2.432 0 1.792 1.504 2.112 2.816 2.336 1.008.176 1.904.288 1.904 1.024 0 .72-.608 1.088-1.52 1.088-1.008 0-1.632-.464-1.84-1.392l-1.68.352c.416 1.648 1.728 2.4 3.504 2.4ZM626.665 91h2.489v-3.04h2.033v-2.318h-2.033V76.75H626l-5.776 9.044v2.166h6.441V91Zm-3.743-5.358 3.743-5.814v5.814h-3.743Zm19.307.646c0-2.679-1.786-4.598-4.598-4.598-.722 0-1.387.133-1.995.418l.475-3.04h5.472V76.75h-7.543l-1.178 7.581 2.166.589c.38-.665 1.197-1.045 2.128-1.045 1.444 0 2.47.969 2.47 2.489 0 1.444-.988 2.451-2.508 2.451-1.216 0-2.299-.627-2.451-2.052l-2.546.646c.418 2.584 2.622 3.781 4.997 3.781 3.135 0 5.111-2.071 5.111-4.902Z" fill="#000"/><rect x="374" y="67" width="40" height="40" rx="4" fill="#89CA4F"/><path d="M395.688 81.72c-.66-2.52-2.6-3.92-5.56-3.92-3.08 0-5.54 1.82-5.54 4.38 0 3.3 2.74 3.9 5.08 4.42 1.74.36 3.24.66 3.24 2.08 0 1.46-1.22 2.08-2.78 2.08-1.72 0-2.92-.76-3.34-2.62l-2.82.78c.74 2.74 2.78 4.28 6.14 4.28 3.34 0 5.64-1.78 5.64-4.62 0-3.2-2.68-3.94-5-4.44-1.76-.4-3.3-.7-3.3-2.08 0-1.16.98-1.84 2.66-1.84 1.54 0 2.52.86 2.82 2.22l2.76-.72Zm.824 2.74v.74h1.9v4.82c0 1.98 1.28 3.18 3.4 3.18.86 0 1.72-.2 2.48-.58l-.56-2.08c-.5.2-.92.32-1.36.32-.9 0-1.42-.4-1.42-1.44V85.2h3.48v-2.22h-3.48V80.7h-.7l-3.74 3.76Z" fill="#fff"/><path d="M433.696 143h4.512c2.256 0 3.712-1.328 3.712-3.424 0-1.408-.736-2.432-2.128-2.912.96-.512 1.568-1.376 1.568-2.592 0-1.888-1.36-3.072-3.424-3.072h-4.24v12Zm4.112-10.464c1.088 0 1.792.672 1.792 1.712 0 1.088-.688 1.776-1.776 1.776h-2.336v-3.488h2.32Zm.336 5.072c1.2 0 1.968.784 1.968 1.968 0 1.168-.768 1.888-1.952 1.888h-2.672v-3.856h2.656ZM448.831 143h1.488v-4.864c0-2.128-1.344-3.232-3.392-3.232-1.904 0-3.168.976-3.552 2.496l1.584.288c.24-.944.928-1.376 1.952-1.376.944 0 1.616.432 1.776 1.408l-2.144.496c-1.776.416-3.12 1.056-3.12 2.64 0 1.44 1.072 2.288 2.544 2.288 1.184 0 2.16-.544 2.784-1.456l.08 1.312Zm-3.712-2.256c0-.688.56-.992 1.472-1.216l2.128-.528v.192c0 1.696-1.232 2.56-2.464 2.56-.704 0-1.136-.368-1.136-1.008Zm6.896-1.728c0 2.384 1.728 4.128 4.064 4.128 1.984 0 3.488-1.232 3.76-2.88l-1.648-.288c-.208.992-.96 1.648-2.112 1.648-1.376 0-2.336-1.04-2.336-2.608 0-1.584.976-2.592 2.352-2.592 1.056 0 1.792.608 2.032 1.568l1.664-.272c-.368-1.696-1.76-2.816-3.696-2.816-2.336 0-4.08 1.728-4.08 4.112Zm14.555-3.968-2.448 2.784h-.96V131h-1.648v12h1.648v-3.584h.864l2.688 3.584h1.952l-3.296-4.384 3.2-3.568h-2Zm3.444 7.952h1.648v-12h-1.648v12Zm3.9-10.544c0 .608.448 1.056 1.056 1.056.624 0 1.072-.448 1.072-1.056 0-.608-.448-1.04-1.072-1.04-.608 0-1.056.432-1.056 1.04Zm.24 10.544h1.648v-7.952h-1.648V143Zm4.141 0h1.648v-4.448c0-1.536 1.024-2.112 2.032-2.112 1.056 0 1.84.672 1.84 2V143h1.664v-4.784c0-2.192-1.424-3.312-3.12-3.312a3.141 3.141 0 0 0-2.464 1.136l-.064-.992h-1.536V143Zm14.54-7.952-2.448 2.784h-.96V131h-1.648v12h1.648v-3.584h.864l2.688 3.584h1.952l-3.296-4.384 3.2-3.568h-2Zm6.023 8.096c2.176 0 3.248-1.104 3.248-2.56 0-1.824-1.616-2.096-2.96-2.32-.96-.16-1.776-.288-1.776-1.008 0-.592.592-.992 1.488-.992.816 0 1.344.368 1.552 1.152l1.648-.352c-.432-1.392-1.504-2.16-3.2-2.16-1.856 0-3.184 1.024-3.184 2.432 0 1.792 1.504 2.112 2.816 2.336 1.008.176 1.904.288 1.904 1.024 0 .72-.608 1.088-1.52 1.088-1.008 0-1.632-.464-1.84-1.392l-1.68.352c.416 1.648 1.728 2.4 3.504 2.4Zm8.885-.144h1.792v-12h-1.792v12Zm12.292 0v-12h-1.664v5.088a3.413 3.413 0 0 0-2.624-1.184c-2.224 0-3.904 1.744-3.904 4.112 0 2.384 1.68 4.128 3.904 4.128 1.088 0 2.032-.464 2.672-1.248l.064 1.104h1.552Zm-4.064-6.576c1.44 0 2.4 1.04 2.4 2.592s-.96 2.608-2.4 2.608c-1.424 0-2.4-1.056-2.4-2.608s.976-2.592 2.4-2.592Zm10.063 6.72c1.92 0 3.296-.96 3.728-2.544l-1.584-.288c-.288.848-.976 1.376-2.144 1.376-1.328 0-2.272-.736-2.432-2.208h6.16c.032-.256.064-.528.064-.768 0-2.256-1.6-3.808-3.888-3.808-2.352 0-4.048 1.744-4.048 4.112 0 2.4 1.584 4.128 4.144 4.128Zm-.096-6.848c1.168 0 1.968.704 2.128 1.856h-4.4c.272-1.232 1.216-1.856 2.272-1.856ZM536.612 143h1.488v-4.864c0-2.128-1.344-3.232-3.392-3.232-1.904 0-3.168.976-3.552 2.496l1.584.288c.24-.944.928-1.376 1.952-1.376.944 0 1.616.432 1.776 1.408l-2.144.496c-1.776.416-3.12 1.056-3.12 2.64 0 1.44 1.072 2.288 2.544 2.288 1.184 0 2.16-.544 2.784-1.456l.08 1.312Zm-3.712-2.256c0-.688.56-.992 1.472-1.216L536.5 139v.192c0 1.696-1.232 2.56-2.464 2.56-.704 0-1.136-.368-1.136-1.008Zm10.208 2.4c2.176 0 3.248-1.104 3.248-2.56 0-1.824-1.616-2.096-2.96-2.32-.96-.16-1.776-.288-1.776-1.008 0-.592.592-.992 1.488-.992.816 0 1.344.368 1.552 1.152l1.648-.352c-.432-1.392-1.504-2.16-3.2-2.16-1.856 0-3.184 1.024-3.184 2.432 0 1.792 1.504 2.112 2.816 2.336 1.008.176 1.904.288 1.904 1.024 0 .72-.608 1.088-1.52 1.088-1.008 0-1.632-.464-1.84-1.392l-1.68.352c.416 1.648 1.728 2.4 3.504 2.4ZM625.442 143.19c2.793 0 5.111-1.596 5.111-4.332 0-1.596-.855-2.831-2.185-3.496.969-.703 1.577-1.71 1.577-2.926 0-2.432-2.014-3.876-4.503-3.876-2.47 0-4.484 1.444-4.484 3.876 0 1.235.589 2.261 1.596 2.926-1.368.665-2.204 1.9-2.204 3.496 0 2.736 2.299 4.332 5.092 4.332Zm2.033-10.564c0 1.121-.874 1.862-2.033 1.862-1.121 0-1.995-.741-1.995-1.862 0-1.102.874-1.805 1.995-1.805 1.159 0 2.033.703 2.033 1.805Zm.456 6.061c0 1.33-1.102 2.109-2.47 2.109-1.387 0-2.489-.779-2.489-2.109 0-1.349 1.121-2.128 2.489-2.128 1.349 0 2.47.779 2.47 2.128Zm14.298-.399c0-2.679-1.786-4.598-4.598-4.598-.722 0-1.387.133-1.995.418l.475-3.04h5.472v-2.318h-7.543l-1.178 7.581 2.166.589c.38-.665 1.197-1.045 2.128-1.045 1.444 0 2.47.969 2.47 2.489 0 1.444-.988 2.451-2.508 2.451-1.216 0-2.299-.627-2.451-2.052l-2.546.646c.418 2.584 2.622 3.781 4.997 3.781 3.135 0 5.111-2.071 5.111-4.902Z" fill="#000"/><rect x="374" y="119" width="40" height="40" rx="4" fill="#FFC200"/><path d="M384.194 145h5.94c2.82 0 4.72-1.7 4.72-4.34 0-1.7-.86-2.94-2.56-3.6 1.16-.68 1.86-1.72 1.86-3.18 0-2.36-1.74-3.88-4.36-3.88h-5.6v15Zm5.36-12.66c1.16 0 1.92.74 1.92 1.84 0 1.18-.76 1.92-1.92 1.92h-2.62v-3.76h2.62Zm.46 6.16c1.24 0 2.08.82 2.08 2.12 0 1.24-.82 2.04-2.08 2.04h-3.08v-4.16h3.08Zm13.217 6.5h2.24v-6.04c0-2.8-1.74-4.2-4.4-4.2-2.52 0-4.12 1.32-4.62 3.22l2.42.44c.28-1.02 1.02-1.52 2.16-1.52 1.02 0 1.7.42 1.92 1.42l-2.56.58c-2.1.48-3.86 1.28-3.86 3.34 0 1.92 1.44 2.96 3.24 2.96 1.4 0 2.54-.6 3.28-1.58l.18 1.38Zm-4.12-2.94c0-.74.6-1.04 1.44-1.24l2.46-.6v.22c0 1.82-1.36 2.68-2.7 2.68-.72 0-1.2-.36-1.2-1.06Z" fill="#fff"/><path d="M431.88 189c0 3.456 2.224 6.144 5.856 6.144 2.768 0 4.752-1.472 5.424-4l-1.808-.48c-.352 1.68-1.648 2.832-3.616 2.832-2.576 0-3.984-2.064-3.984-4.496 0-2.416 1.456-4.496 4-4.496 1.904 0 3.072 1.12 3.472 2.832l1.808-.496c-.56-2.432-2.56-3.984-5.28-3.984-3.504 0-5.872 2.72-5.872 6.144Zm16.529-2.096c-2.4 0-4.176 1.744-4.176 4.112 0 2.384 1.776 4.128 4.176 4.128 2.416 0 4.176-1.744 4.176-4.128 0-2.368-1.76-4.112-4.176-4.112Zm0 1.52c1.456 0 2.448 1.04 2.448 2.592s-.992 2.608-2.448 2.608-2.448-1.056-2.448-2.608.992-2.592 2.448-2.592Zm6.042 6.576h1.648v-4.448c0-1.536 1.024-2.112 2.032-2.112 1.056 0 1.84.672 1.84 2V195h1.664v-4.784c0-2.192-1.424-3.312-3.12-3.312a3.141 3.141 0 0 0-2.464 1.136l-.064-.992h-1.536V195Zm8.349-6.944v.432h1.44v4.224c0 1.536.944 2.432 2.544 2.432a4.4 4.4 0 0 0 1.872-.432l-.384-1.36c-.4.16-.784.272-1.152.272-.8 0-1.232-.368-1.232-1.264v-3.872h2.864v-1.44h-2.864V185.4h-.4l-2.688 2.656Zm10.843 7.088c1.92 0 3.296-.96 3.728-2.544l-1.584-.288c-.288.848-.976 1.376-2.144 1.376-1.328 0-2.272-.736-2.432-2.208h6.16c.032-.256.064-.528.064-.768 0-2.256-1.6-3.808-3.888-3.808-2.352 0-4.048 1.744-4.048 4.112 0 2.4 1.584 4.128 4.144 4.128Zm-.096-6.848c1.168 0 1.968.704 2.128 1.856h-4.4c.272-1.232 1.216-1.856 2.272-1.856Zm5.81 6.704h1.648v-4.448c0-1.536 1.024-2.112 2.032-2.112 1.056 0 1.84.672 1.84 2V195h1.664v-4.784c0-2.192-1.424-3.312-3.12-3.312a3.141 3.141 0 0 0-2.464 1.136l-.064-.992h-1.536V195Zm8.349-6.944v.432h1.44v4.224c0 1.536.944 2.432 2.544 2.432a4.4 4.4 0 0 0 1.872-.432l-.384-1.36c-.4.16-.784.272-1.152.272-.8 0-1.232-.368-1.232-1.264v-3.872h2.864v-1.44h-2.864V185.4h-.4l-2.688 2.656ZM499.102 195h1.792v-12h-1.792v12Zm12.292 0v-12h-1.664v5.088a3.413 3.413 0 0 0-2.624-1.184c-2.224 0-3.904 1.744-3.904 4.112 0 2.384 1.68 4.128 3.904 4.128 1.088 0 2.032-.464 2.672-1.248l.064 1.104h1.552Zm-4.064-6.576c1.44 0 2.4 1.04 2.4 2.592s-.96 2.608-2.4 2.608c-1.424 0-2.4-1.056-2.4-2.608s.976-2.592 2.4-2.592Zm10.063 6.72c1.92 0 3.296-.96 3.728-2.544l-1.584-.288c-.288.848-.976 1.376-2.144 1.376-1.328 0-2.272-.736-2.432-2.208h6.16c.032-.256.064-.528.064-.768 0-2.256-1.6-3.808-3.888-3.808-2.352 0-4.048 1.744-4.048 4.112 0 2.4 1.584 4.128 4.144 4.128Zm-.096-6.848c1.168 0 1.968.704 2.128 1.856h-4.4c.272-1.232 1.216-1.856 2.272-1.856ZM527.971 195h1.488v-4.864c0-2.128-1.344-3.232-3.392-3.232-1.904 0-3.168.976-3.552 2.496l1.584.288c.24-.944.928-1.376 1.952-1.376.944 0 1.616.432 1.776 1.408l-2.144.496c-1.776.416-3.12 1.056-3.12 2.64 0 1.44 1.072 2.288 2.544 2.288 1.184 0 2.16-.544 2.784-1.456l.08 1.312Zm-3.712-2.256c0-.688.56-.992 1.472-1.216l2.128-.528v.192c0 1.696-1.232 2.56-2.464 2.56-.704 0-1.136-.368-1.136-1.008Zm10.208 2.4c2.176 0 3.248-1.104 3.248-2.56 0-1.824-1.616-2.096-2.96-2.32-.96-.16-1.776-.288-1.776-1.008 0-.592.592-.992 1.488-.992.816 0 1.344.368 1.552 1.152l1.648-.352c-.432-1.392-1.504-2.16-3.2-2.16-1.856 0-3.184 1.024-3.184 2.432 0 1.792 1.504 2.112 2.816 2.336 1.008.176 1.904.288 1.904 1.024 0 .72-.608 1.088-1.52 1.088-1.008 0-1.632-.464-1.84-1.392l-1.68.352c.416 1.648 1.728 2.4 3.504 2.4ZM613.393 195h2.527v-14.25h-2.052c-.342 1.159-1.501 2.356-3.382 2.47v1.558h2.907V195Zm14.823-2.432h-5.776l1.178-1.159c3.192-3.097 4.313-4.541 4.313-6.46 0-2.565-1.786-4.389-4.579-4.389-2.47 0-4.541 1.368-4.978 4.066l2.508.494c.19-1.52 1.254-2.223 2.356-2.223 1.292 0 2.071.874 2.071 2.128 0 1.235-.741 2.356-3.705 5.206l-2.793 2.698V195h9.405v-2.432Zm7.33 2.622c3.211 0 5.32-2.698 5.32-7.353 0-4.598-2.109-7.277-5.32-7.277-3.23 0-5.358 2.679-5.358 7.277 0 4.655 2.128 7.353 5.358 7.353Zm0-12.293c1.919 0 2.717 1.995 2.717 4.94 0 3.021-.798 5.016-2.717 5.016-1.976 0-2.736-1.995-2.736-5.016 0-2.945.779-4.94 2.736-4.94Z" fill="#000"/><rect x="374" y="171" width="40" height="40" rx="4" fill="#B880FF"/><path d="M381.124 189.5c0 4.32 2.74 7.7 7.42 7.7 3.4 0 5.9-1.76 6.82-4.92l-2.74-.76c-.48 1.92-1.9 3.14-4.08 3.14-2.98 0-4.56-2.36-4.56-5.16 0-2.78 1.64-5.16 4.58-5.16 2.14 0 3.4 1.2 3.9 3.16l2.76-.76c-.74-3.06-3.28-4.94-6.66-4.94-4.48 0-7.44 3.42-7.44 7.7Zm20.742-2.74c-3.08 0-5.34 2.22-5.34 5.22 0 3.02 2.26 5.22 5.34 5.22s5.34-2.2 5.34-5.22c0-3-2.26-5.22-5.34-5.22Zm0 2.34c1.62 0 2.68 1.16 2.68 2.88 0 1.74-1.06 2.9-2.68 2.9s-2.7-1.16-2.7-2.9c0-1.72 1.08-2.88 2.7-2.88Z" fill="#fff"/><rect x="42.5" y="252.5" width="600" height="109" rx="5.5" stroke="#D1D4DB"/><path d="M71.59 286h1.68v-4.26h2.55c2.28 0 3.78-1.515 3.78-3.495 0-2.04-1.5-3.495-3.78-3.495h-4.23V286Zm4.23-9.735c1.305 0 2.1.765 2.1 1.98 0 1.185-.795 1.98-2.1 1.98h-2.55v-3.96h2.55Zm8.407 2.145c-2.25 0-3.915 1.635-3.915 3.855 0 2.235 1.665 3.87 3.915 3.87 2.265 0 3.915-1.635 3.915-3.87 0-2.22-1.65-3.855-3.915-3.855Zm0 1.425c1.365 0 2.295.975 2.295 2.43s-.93 2.445-2.295 2.445c-1.365 0-2.295-.99-2.295-2.445 0-1.455.93-2.43 2.295-2.43Zm4.599-.345v.405h1.35v3.96c0 1.44.885 2.28 2.385 2.28.615 0 1.215-.15 1.755-.405l-.36-1.275c-.375.15-.735.255-1.08.255-.75 0-1.155-.345-1.155-1.185v-3.63h2.685v-1.35H91.72V277h-.375l-2.52 2.49Zm10.166 6.645c1.799 0 3.089-.9 3.494-2.385l-1.485-.27c-.27.795-.915 1.29-2.01 1.29-1.245 0-2.13-.69-2.28-2.07h5.775c.03-.24.06-.495.06-.72 0-2.115-1.5-3.57-3.645-3.57-2.204 0-3.794 1.635-3.794 3.855 0 2.25 1.484 3.87 3.885 3.87Zm-.09-6.42c1.094 0 1.844.66 1.994 1.74h-4.124c.254-1.155 1.14-1.74 2.13-1.74Zm5.447 6.285h1.545v-4.17c0-1.44.96-1.98 1.905-1.98.99 0 1.725.63 1.725 1.875V286h1.56v-4.485c0-2.055-1.335-3.105-2.925-3.105-.945 0-1.74.39-2.31 1.065l-.06-.93h-1.44V286Zm7.826-6.51v.405h1.35v3.96c0 1.44.885 2.28 2.385 2.28.615 0 1.215-.15 1.755-.405l-.36-1.275c-.375.15-.735.255-1.08.255-.75 0-1.155-.345-1.155-1.185v-3.63h2.685v-1.35h-2.685V277h-.375l-2.52 2.49Zm6.744-3.375c0 .57.42.99.99.99.585 0 1.005-.42 1.005-.99 0-.57-.42-.975-1.005-.975-.57 0-.99.405-.99.975Zm.225 9.885h1.545v-7.455h-1.545V286Zm8.441 0h1.395v-4.56c0-1.995-1.26-3.03-3.18-3.03-1.785 0-2.97.915-3.33 2.34l1.485.27c.225-.885.87-1.29 1.83-1.29.885 0 1.515.405 1.665 1.32l-2.01.465c-1.665.39-2.925.99-2.925 2.475 0 1.35 1.005 2.145 2.385 2.145 1.11 0 2.025-.51 2.61-1.365l.075 1.23Zm-3.48-2.115c0-.645.525-.93 1.38-1.14l1.995-.495v.18c0 1.59-1.155 2.4-2.31 2.4-.66 0-1.065-.345-1.065-.945Zm7.05 2.115h1.545v-11.25h-1.545V286Zm6.113-6.51v.405h1.35v3.96c0 1.44.885 2.28 2.385 2.28.615 0 1.215-.15 1.755-.405l-.36-1.275c-.375.15-.735.255-1.08.255-.75 0-1.155-.345-1.155-1.185v-3.63h2.685v-1.35h-2.685V277h-.375l-2.52 2.49Zm6.968 6.51h1.545v-3.885c0-1.41.87-2.175 1.905-2.175.255 0 .51.03.765.105l.21-1.515a2.634 2.634 0 0 0-.735-.105c-.99 0-1.71.45-2.145 1.14l-.075-1.02h-1.47V286Zm10.273 0h1.395v-4.56c0-1.995-1.26-3.03-3.18-3.03-1.785 0-2.97.915-3.33 2.34l1.485.27c.225-.885.87-1.29 1.83-1.29.885 0 1.515.405 1.665 1.32l-2.01.465c-1.665.39-2.925.99-2.925 2.475 0 1.35 1.005 2.145 2.385 2.145 1.11 0 2.025-.51 2.61-1.365l.075 1.23Zm-3.48-2.115c0-.645.525-.93 1.38-1.14l1.995-.495v.18c0 1.59-1.155 2.4-2.31 2.4-.66 0-1.065-.345-1.065-.945Zm9.27-6.6c0-.87.465-1.29 1.245-1.29.285 0 .51.075.78.165l.315-1.335a3.657 3.657 0 0 0-1.23-.21c-1.5 0-2.655 1.05-2.655 2.685v1.245h-.945l-.825.945v.405h1.77V286h1.545v-6.105h3.51V286h1.545v-6.105h2.595v-1.35h-2.595v-1.26c0-.87.45-1.29 1.245-1.29.285 0 .51.075.78.165l.315-1.335a3.68 3.68 0 0 0-1.245-.21c-1.485 0-2.64 1.05-2.64 2.685v1.245h-3.51v-1.26Zm8.703-1.17c0 .57.42.99.99.99.585 0 1.005-.42 1.005-.99 0-.57-.42-.975-1.005-.975-.57 0-.99.405-.99.975Zm.225 9.885h1.545v-7.455h-1.545V286Zm3.296-3.735c0 2.235 1.62 3.87 3.81 3.87 1.86 0 3.27-1.155 3.525-2.7l-1.545-.27c-.195.93-.9 1.545-1.98 1.545-1.29 0-2.19-.975-2.19-2.445 0-1.485.915-2.43 2.205-2.43.99 0 1.68.57 1.905 1.47l1.56-.255c-.345-1.59-1.65-2.64-3.465-2.64-2.19 0-3.825 1.62-3.825 3.855Zm11.977-6.15c0 .57.42.99.99.99.585 0 1.005-.42 1.005-.99 0-.57-.42-.975-1.005-.975-.57 0-.99.405-.99.975Zm.225 9.885h1.545v-7.455h-1.545V286Zm3.882 0h1.545v-4.17c0-1.44.96-1.98 1.905-1.98.99 0 1.725.63 1.725 1.875V286h1.56v-4.485c0-2.055-1.335-3.105-2.925-3.105-.945 0-1.74.39-2.31 1.065l-.06-.93h-1.44V286Zm8.306-3.735c0 2.235 1.62 3.87 3.81 3.87 1.86 0 3.27-1.155 3.525-2.7l-1.545-.27c-.195.93-.9 1.545-1.98 1.545-1.29 0-2.19-.975-2.19-2.445 0-1.485.915-2.43 2.205-2.43.99 0 1.68.57 1.905 1.47l1.56-.255c-.345-1.59-1.65-2.64-3.465-2.64-2.19 0-3.825 1.62-3.825 3.855Zm8.905 3.735h1.545v-3.885c0-1.41.87-2.175 1.905-2.175.255 0 .51.03.765.105l.21-1.515a2.634 2.634 0 0 0-.735-.105c-.99 0-1.71.45-2.145 1.14l-.075-1.02h-1.47V286Zm8.911.135c1.8 0 3.09-.9 3.495-2.385l-1.485-.27c-.27.795-.915 1.29-2.01 1.29-1.245 0-2.13-.69-2.28-2.07h5.775c.03-.24.06-.495.06-.72 0-2.115-1.5-3.57-3.645-3.57-2.205 0-3.795 1.635-3.795 3.855 0 2.25 1.485 3.87 3.885 3.87Zm-.09-6.42c1.095 0 1.845.66 1.995 1.74h-4.125c.255-1.155 1.14-1.74 2.13-1.74ZM224.646 286h1.395v-4.56c0-1.995-1.26-3.03-3.18-3.03-1.785 0-2.97.915-3.33 2.34l1.485.27c.225-.885.87-1.29 1.83-1.29.885 0 1.515.405 1.665 1.32l-2.01.465c-1.665.39-2.925.99-2.925 2.475 0 1.35 1.005 2.145 2.385 2.145 1.11 0 2.025-.51 2.61-1.365l.075 1.23Zm-3.48-2.115c0-.645.525-.93 1.38-1.14l1.995-.495v.18c0 1.59-1.155 2.4-2.31 2.4-.66 0-1.065-.345-1.065-.945Zm9.57 2.25c2.04 0 3.045-1.035 3.045-2.4 0-1.71-1.515-1.965-2.775-2.175-.9-.15-1.665-.27-1.665-.945 0-.555.555-.93 1.395-.93.765 0 1.26.345 1.455 1.08l1.545-.33c-.405-1.305-1.41-2.025-3-2.025-1.74 0-2.985.96-2.985 2.28 0 1.68 1.41 1.98 2.64 2.19.945.165 1.785.27 1.785.96 0 .675-.57 1.02-1.425 1.02-.945 0-1.53-.435-1.725-1.305l-1.575.33c.39 1.545 1.62 2.25 3.285 2.25Zm7.914 0c1.8 0 3.09-.9 3.495-2.385l-1.485-.27c-.27.795-.915 1.29-2.01 1.29-1.245 0-2.13-.69-2.28-2.07h5.775c.03-.24.06-.495.06-.72 0-2.115-1.5-3.57-3.645-3.57-2.205 0-3.795 1.635-3.795 3.855 0 2.25 1.485 3.87 3.885 3.87Zm-.09-6.42c1.095 0 1.845.66 1.995 1.74h-4.125c.255-1.155 1.14-1.74 2.13-1.74ZM70.214 317.356c.013 8.88 6.303 15.391 15.183 15.378 8.88-.014 15.15-6.543 15.137-15.423-.014-8.92-6.303-15.391-15.183-15.377-8.88.013-15.15 6.502-15.137 15.422Zm24.6-.037c.01 6.24-3.745 10.326-9.425 10.335-5.68.008-9.446-4.066-9.455-10.306-.01-6.24 3.744-10.326 9.424-10.334 5.68-.009 9.447 4.065 9.456 10.305Zm15.436 14.977 5.68-.008 7.49-20.051-5.32.008-4.859 14.007-4.901-13.993-5.6.009 7.51 20.028Zm25.064.363c4.84-.007 8.317-2.292 9.511-6.294l-4.722-.953c-.637 1.681-2.156 2.843-4.796 2.847-2.88.004-4.922-1.353-5.406-4.472l14.88-.022c.159-.76.237-1.56.236-2.28-.008-5.8-4.094-9.714-9.974-9.705-6.08.009-10.354 4.495-10.344 10.575.008 5.96 3.975 10.314 10.615 10.304Zm-.265-16.679c2.56-.004 4.202 1.393 4.646 3.913l-9.64.014c.716-2.641 2.674-3.924 4.994-3.927Zm14.426 16.258 5.08-.008-.015-10.32c-.005-3.28 2.113-5.083 4.753-5.087.64-.001 1.36.038 2.08.237l.593-4.961c-.761-.198-1.241-.278-1.961-.277-2.52.004-4.318 1.087-5.516 2.729l-.283-2.36-4.76.007.029 20.04Zm28.809-.043 5.32-.008-.045-30-4.32.007c-.716 2.441-3.152 4.964-7.112 5.21l.005 3.28 6.12-.009.032 21.52Zm23.006.366c6.76-.01 11.191-5.697 11.177-15.497-.015-9.68-4.463-15.313-11.223-15.303-6.8.01-11.272 5.657-11.257 15.337.014 9.8 4.503 15.473 11.303 15.463Zm-.039-25.88c4.04-.006 5.727 4.191 5.736 10.391.009 6.36-1.664 10.563-5.704 10.569-4.16.006-5.767-4.192-5.776-10.552-.009-6.2 1.624-10.402 5.744-10.408Zm27.265 25.839c6.76-.01 11.192-5.696 11.177-15.496-.014-9.68-4.462-15.314-11.222-15.304-6.8.01-11.272 5.657-11.258 15.337.015 9.8 4.503 15.473 11.303 15.463Zm-.038-25.88c4.04-.006 5.726 4.192 5.735 10.392.01 6.36-1.664 10.562-5.704 10.568-4.16.006-5.766-4.191-5.776-10.551-.009-6.2 1.625-10.403 5.745-10.409Zm27.265 25.84c6.76-.01 11.192-5.697 11.177-15.497-.015-9.68-4.463-15.313-11.223-15.303-6.8.01-11.272 5.657-11.257 15.337.015 9.8 4.503 15.473 11.303 15.463Zm-.039-25.88c4.04-.006 5.727 4.191 5.736 10.391.009 6.36-1.664 10.563-5.704 10.569-4.16.006-5.767-4.192-5.776-10.552-.009-6.2 1.624-10.402 5.744-10.408Zm24.266 26.204 21.396-29.272-3.163-2.276-21.396 29.232 3.163 2.316Zm-.264-15.84c4.72-.007 8.076-3.292 8.069-7.732-.007-4.4-3.371-7.595-8.091-7.588-4.68.007-8.076 3.212-8.069 7.612.007 4.44 3.411 7.715 8.091 7.708Zm3.789-7.726c.003 2.2-1.674 3.803-3.794 3.806-2.12.003-3.763-1.594-3.766-3.794-.003-2.16 1.634-3.723 3.754-3.726 2.12-.003 3.803 1.554 3.806 3.714Zm14.995 23.178c4.72-.007 8.075-3.292 8.068-7.732-.007-4.4-3.371-7.595-8.091-7.588-4.68.007-8.076 3.212-8.069 7.612.007 4.44 3.412 7.715 8.092 7.708Zm3.788-7.726c.003 2.2-1.674 3.803-3.794 3.806-2.12.003-3.763-1.594-3.766-3.794-.003-2.16 1.634-3.723 3.754-3.726 2.12-.003 3.803 1.554 3.806 3.714Z" fill="#000"/><rect x="345" y="308" width="270" height="24" rx="4" fill="#E9EBEF"/><path d="M345 312a4 4 0 0 1 4-4h225.145v24H349a4 4 0 0 1-4-4v-16Z" fill="#00A8FF"/></svg>