<svg width="148" height="148" viewBox="0 0 148 148" fill="none" xmlns="http://www.w3.org/2000/svg">
<path d="M58.9146 128.951C62.0488 133.677 65.4925 138.19 69.2232 142.46C58.6432 140.48 48.8061 135.644 40.7769 128.476C32.7477 121.307 26.8321 112.079 23.6704 101.79L43.4773 99.8923C44.5031 102.323 45.6929 104.703 46.893 107.072L47.8572 109.011C48.565 110.447 49.2727 111.883 50.001 113.319C52.2063 117.648 54.1039 121.115 55.9708 124.223C56.9657 125.956 57.9504 127.515 58.9146 128.951ZM42.1336 96.4868L23.9268 98.2306C23.7012 98.2306 23.4755 98.2306 23.2499 98.2306C23.0688 98.2408 22.8873 98.2408 22.7062 98.2306C22.8909 98.9896 23.0857 99.7384 23.2909 100.487L42.9439 98.5998C42.6362 97.8613 42.3695 97.1536 42.1336 96.4868ZM110.519 92.1275C111.445 92.0415 112.334 91.724 113.104 91.2043L112.294 90.4555C112.212 90.3948 112.139 90.3222 112.078 90.2401L111.648 89.8503L75.2853 93.3276C75.6238 94.1071 75.9418 94.7841 76.2393 95.4303L110.519 92.1377V92.1275ZM142.881 20.162H112.981L117.381 54.4933C118.038 55.6524 118.725 56.7704 119.433 57.7962L120.459 59.2219C123.096 63.2297 126.176 66.9284 129.639 70.2486C132.291 72.6232 135.234 74.65 138.399 76.2799C140.253 77.2419 142.161 78.0981 144.112 78.8442L144.451 78.9981V21.6698C144.437 21.2635 144.266 20.8785 143.972 20.5968C143.679 20.3151 143.288 20.1591 142.881 20.162ZM113.781 50.5955C111.945 47.0773 110.201 43.8667 108.899 44.4411C108.488 44.6668 108.375 45.4669 108.386 46.0823C110.398 47.3105 112.217 48.8316 113.781 50.5955ZM114.089 92.1172C113.087 92.8746 111.893 93.3365 110.642 93.4507L76.8547 96.692C77.0701 97.133 77.2752 97.5638 77.4906 97.9741L78.2087 99.3076C79.9712 102.319 82.0073 105.162 84.2913 107.801C92.9673 118.002 104.067 125.86 116.571 130.654C118.324 129.257 119.995 127.76 121.577 126.172L136.911 110.786C131.331 106.683 126.285 102.713 121.054 98.2408C119.002 96.5484 116.766 94.5687 114.089 92.1172ZM32.2661 40.7382C33.3632 42.4493 34.9351 43.8037 36.7895 44.636C37.9322 45.1611 39.1734 45.4373 40.4309 45.4463H40.7489C41.7423 45.4236 42.7202 45.1948 43.6206 44.7746C44.5211 44.3544 45.3245 43.7518 45.9801 43.0051C46.2066 42.7446 46.4124 42.4668 46.5956 42.1742C47.6568 40.5225 48.1168 38.5556 47.8982 36.6045C47.8129 35.726 47.62 34.8614 47.3238 34.0299C46.6639 32.0753 45.43 30.3651 43.7831 29.1226C42.1362 27.8801 40.1529 27.1631 38.0922 27.0652H37.764H37.5281C36.5782 27.1183 35.6484 27.3597 34.7926 27.7752C33.9368 28.1908 33.1721 28.7723 32.543 29.4859C31.7972 30.3663 31.2403 31.3906 30.9068 32.4951C30.5733 33.5997 30.4704 34.761 30.6044 35.907C30.7559 37.6288 31.3264 39.2875 32.2661 40.7382ZM38.0614 25.7728C40.2915 25.8573 42.4487 26.589 44.2701 27.8785C46.0915 29.168 47.4982 30.9597 48.3188 33.035C48.7896 34.1419 49.0872 35.3147 49.2009 36.5122C49.4183 38.5561 48.9954 40.6171 47.9906 42.4102L55.7143 48.5646C58.2624 44.7631 59.4117 40.195 58.9659 35.6403C58.6607 32.124 57.4985 28.736 55.581 25.7728C53.7082 22.8026 51.1247 20.3459 48.064 18.6249C45.0034 16.9038 41.5621 15.9726 38.0512 15.9155H37.3537C37.005 15.9155 36.6665 15.9155 36.328 15.9975L38.0614 25.7728ZM29.9479 53.6625C33.3123 55.6969 37.1998 56.6991 41.1284 56.5448C43.8088 56.4609 46.4384 55.7911 48.8324 54.5826C51.2264 53.3741 53.3268 51.6561 54.986 49.5493L47.3033 43.4564L46.9853 43.8462C46.2146 44.7277 45.2702 45.4405 44.2112 45.9401C43.1521 46.4396 42.0014 46.715 40.8309 46.749H40.4822C38.8664 46.7543 37.2717 46.382 35.8254 45.6617C34.1071 44.8098 32.6217 43.5531 31.4968 41.9999L23.5166 47.2003C23.4346 47.2353 23.3484 47.2594 23.2601 47.2721C25.0117 49.838 27.292 51.9994 29.9479 53.6112V53.6625ZM101.103 34.4607C98.0258 34.6556 92.8972 35.0249 87.5941 35.4249L79.8498 35.9993L80.2191 38.8919L80.455 40.7793L86.0042 40.3587C92.2612 39.8869 98.1797 39.4458 101.718 39.2407C102.021 39.2194 102.315 39.1366 102.584 38.9974C102.854 38.8583 103.091 38.6656 103.284 38.4313C103.476 38.197 103.618 37.926 103.701 37.6348C103.785 37.3436 103.808 37.0384 103.77 36.7379C103.7 36.0852 103.387 35.4828 102.893 35.0511C102.398 34.6194 101.759 34.3902 101.103 34.4094V34.4607ZM84.7015 20.6441L84.7939 21.3621C90.4354 20.9416 95.7282 20.5415 98.9695 20.3364C99.2607 20.317 99.5459 20.244 99.8106 20.121C100.236 19.9257 100.588 19.5993 100.815 19.1896C101.042 18.7799 101.132 18.3084 101.072 17.8439C100.981 17.2061 100.658 16.6246 100.163 16.2117C99.6687 15.7987 99.0388 15.5836 98.3951 15.6078C95.164 15.8026 89.8712 16.1924 84.2195 16.6335L84.681 20.1723L84.7015 20.6441ZM93.2664 30.0398C95.9846 29.8449 98.4772 29.6706 100.323 29.568C100.626 29.5467 100.92 29.4639 101.189 29.3248C101.459 29.1856 101.696 28.993 101.889 28.7587C102.081 28.5244 102.223 28.2533 102.306 27.9621C102.39 27.6709 102.413 27.3657 102.375 27.0652C102.308 26.4179 101.999 25.8197 101.511 25.39C101.022 24.9603 100.389 24.7307 99.7388 24.747L92.6715 25.2189L93.0613 28.2961L93.2664 30.0398ZM22.3985 96.8356C21.1986 96.6372 20.0935 96.0603 19.2446 95.1893C18.3958 94.3183 17.8476 93.1988 17.6801 91.9941C14.4593 72.0641 9.82302 37.1379 8.31519 18.8901C8.26864 18.4571 8.26864 18.0204 8.31519 17.5874C8.44854 16.2796 9.0336 15.0592 9.96968 14.1362C10.9058 13.2132 12.1343 12.6454 13.4439 12.5306C36.0818 10.8381 81.6551 7.67883 104.457 6.37615C105.884 6.29055 107.291 6.74702 108.396 7.65421C109.501 8.56141 110.223 9.85242 110.417 11.2689L111.566 20.162L115.556 51.2417L115.084 50.3596C112.694 45.7541 110.786 42.1537 108.242 43.2513C107.88 43.4855 107.58 43.8037 107.368 44.1787C107.155 44.5537 107.037 44.9745 107.022 45.4053C102.601 43.3538 99.5747 44.677 98.99 44.9745C98.99 44.9745 98.99 44.9745 98.908 45.036C96.6284 44.4852 94.2329 44.6719 92.0663 45.5694C89.1943 45.0155 86.9377 45.2617 85.8504 46.2567C85.6293 46.441 85.4567 46.6767 85.3477 46.9431C85.2386 47.2095 85.1964 47.4985 85.2247 47.785C85.3375 48.8723 86.4248 50.0006 88.8763 51.5494L89.5533 51.9597C89.0492 52.687 88.7937 53.5577 88.825 54.442C88.8076 54.5954 88.8076 54.7502 88.825 54.9036C88.9595 55.9378 89.3978 56.9089 90.0843 57.694C90.7708 58.4791 91.6747 59.043 92.6818 59.3143C92.6099 60.5759 92.4869 61.7042 92.3228 62.7505L91.9535 62.5863C89.9533 61.7247 87.7685 61.0067 86.8248 62.2376C85.8811 63.4685 86.8248 65.4071 89.5533 68.5971C89.7892 68.8741 90.0354 69.1408 90.2713 69.4075C89.1215 71.6801 87.3955 73.6112 85.2657 75.008C84.8369 74.2451 84.2273 73.5992 83.4904 73.127C82.7535 72.6548 81.912 72.3709 81.0397 72.3H80.9576C79.8597 72.2316 78.7792 72.6003 77.9522 73.3258C77.196 74.0111 76.7361 74.9639 76.6701 75.9824C73.9929 75.1208 71.2439 73.2437 68.2898 70.2691C67.6128 69.5921 66.9564 68.9049 66.2999 68.2176C64.3024 65.9724 62.0707 63.9471 59.6429 62.176C56.5041 58.4321 54.2065 57.0474 52.6371 57.8782C52.3936 58.0382 52.1932 58.2557 52.0537 58.5116C51.9141 58.7674 51.8397 59.0536 51.8371 59.345C47.1432 59.02 42.4837 60.3482 38.6666 63.0992C34.8401 65.9694 31.8135 69.7729 29.8761 74.1464C29.545 74.0264 29.2006 73.9472 28.8504 73.9104C28.772 73.9019 28.6929 73.9019 28.6145 73.9104C28.0705 73.8731 27.5245 73.9446 27.0085 74.1207C26.4925 74.2969 26.0167 74.5741 25.609 74.9362C25.1662 75.3346 24.8176 75.8268 24.5888 76.3768C24.3599 76.9268 24.2564 77.5209 24.2859 78.1159C24.3435 79.3948 24.8645 80.6089 25.7516 81.5319C26.6387 82.4548 27.8313 83.0235 29.1068 83.1318H29.4658C30.0194 83.1409 30.569 83.0362 31.0804 82.8242C31.5919 82.6121 32.0543 82.2972 32.439 81.8991C32.8237 81.5009 33.1225 81.0279 33.3169 80.5095C33.5112 79.991 33.5969 79.4382 33.5687 78.8852C33.5342 78.0374 33.2927 77.211 32.8654 76.4779C32.4381 75.7449 31.8379 75.1275 31.1172 74.6797C32.9612 70.5193 35.839 66.8999 39.477 64.166C43.0614 61.5572 47.4577 60.3099 51.8781 60.6477C52.3602 63.7249 54.6783 69.0895 55.981 72.0436L55.2938 71.7256C54.2494 71.2277 53.0673 71.0976 51.9396 71.3564C51.3991 71.4979 50.9097 71.7899 50.5285 72.1984C50.1472 72.607 49.8896 73.1152 49.7856 73.6643H49.5497C48.3137 73.6787 47.0996 73.9919 46.0109 74.5772L45.6724 74.772L44.6467 74.9567C43.9357 74.9459 43.232 75.1006 42.5911 75.4086C41.9502 75.7165 41.3898 76.1693 40.954 76.7312L40.7489 76.9363C39.8647 76.9606 39.0034 77.223 38.256 77.696C37.5086 78.1691 36.9027 78.8351 36.5023 79.6238C36.0343 80.8224 35.9378 82.134 36.2254 83.3882C36.7842 86.51 38.3048 89.379 40.5745 91.5941L40.6771 91.6864C40.9232 92.7121 41.2002 93.7379 41.5182 94.7636C41.5797 94.9482 41.6413 95.1021 41.6926 95.2765L23.814 96.9894C23.3374 97.0015 22.8614 96.9498 22.3985 96.8356ZM69.3361 33.1273H69.5925C74.4237 32.799 80.2499 32.3682 85.7273 31.9579L92.7536 31.4348C95.7179 31.2092 98.4361 31.0245 100.426 30.9014C100.913 30.8798 101.391 30.7574 101.828 30.5419C102.266 30.3265 102.654 30.0227 102.968 29.6497C103.282 29.2767 103.516 28.8426 103.654 28.3748C103.792 27.907 103.831 27.4157 103.77 26.9318C103.654 25.941 103.166 25.0314 102.404 24.3876C101.642 23.7437 100.663 23.4138 99.667 23.4649C97.6976 23.588 94.9897 23.7726 91.892 23.9982L86.2299 24.4188C80.496 24.8599 74.0032 25.3522 68.7924 25.6907C68.3046 25.719 67.8279 25.8475 67.3919 26.0681C66.9559 26.2887 66.57 26.5968 66.2582 26.973C65.9464 27.3492 65.7155 27.7857 65.5797 28.255C65.4439 28.7244 65.4063 29.2167 65.469 29.7013C65.6007 30.6391 66.0623 31.4991 66.7711 32.1271C67.4799 32.755 68.3893 33.1096 69.3361 33.1273ZM105.144 36.5327C105.01 35.5506 104.516 34.6533 103.758 34.0146C103 33.3759 102.032 33.0415 101.041 33.076C97.9643 33.2709 92.8356 33.6504 87.5121 34.0504L79.0703 34.6761C75.9931 34.9018 72.9159 35.1275 70.1464 35.3121C69.661 35.3394 69.1864 35.4664 68.7523 35.6853C68.3181 35.9041 67.9338 36.21 67.6231 36.584C67.3138 36.9618 67.0844 37.3983 66.9486 37.8673C66.8129 38.3363 66.7736 38.8279 66.8333 39.3125C66.9615 40.2581 67.426 41.1259 68.1418 41.7569C68.8576 42.388 69.7768 42.74 70.7311 42.7487H70.9772C73.7365 42.564 76.8034 42.3486 79.9627 42.1127L86.1171 41.6511C92.374 41.1793 98.2823 40.7382 101.801 40.5331C102.289 40.5086 102.767 40.3836 103.205 40.166C103.643 39.9485 104.032 39.643 104.347 39.2685C104.661 38.8941 104.896 38.4589 105.035 37.9899C105.174 37.521 105.214 37.0284 105.155 36.543L105.144 36.5327ZM64.0535 20.121C64.0436 20.237 64.0436 20.3537 64.0535 20.4697C64.1815 21.4136 64.6445 22.28 65.3582 22.9109C66.0719 23.5417 66.9886 23.8949 67.9411 23.9059H68.1975C72.6594 23.6085 77.9522 23.2084 83.0296 22.8289L84.2502 22.7366H84.4964C90.2713 22.3058 95.7282 21.8955 99.031 21.7109C99.5186 21.6846 99.9956 21.5592 100.433 21.3422C100.87 21.1253 101.259 20.8214 101.575 20.4492C101.647 20.3569 101.698 20.2543 101.759 20.162C102.256 19.4588 102.476 18.5965 102.375 17.7413C102.257 16.7515 101.768 15.8433 101.006 15.1999C100.245 14.5565 99.2677 14.2257 98.272 14.2743C94.9179 14.4794 89.3789 14.8897 83.522 15.3H83.3681L79.9729 15.5565C75.6033 15.8847 71.1824 16.2129 67.3769 16.4694C66.4527 16.5172 65.5845 16.9273 64.9605 17.6108C64.3365 18.2943 64.007 19.1962 64.0433 20.121H64.0535ZM21.5164 47.0567C23.4453 50.1966 26.0926 52.8333 29.2402 54.7497C32.6111 56.808 36.4813 57.9042 40.4309 57.9193H41.1797C44.1694 57.823 47.098 57.0481 49.7441 55.6531C52.3901 54.2581 54.6842 52.2796 56.4529 49.8672C56.4579 49.8401 56.4579 49.8123 56.4529 49.7852C59.4362 45.6249 60.7968 40.518 60.2788 35.4249C59.9206 31.6135 58.6199 27.9511 56.4939 24.7675C54.4285 21.5576 51.5759 18.9298 48.2076 17.1343C44.8392 15.3388 41.0674 14.4355 37.2511 14.5102C36.6675 14.5291 36.0853 14.5805 35.5074 14.6641H35.4151C24.7372 16.0796 17.1365 25.8753 18.152 37.0558C18.485 40.6048 19.6367 44.0281 21.5164 47.0567ZM81.7885 81.5214H81.3782C80.2696 81.4158 79.223 80.962 78.3882 80.2249C77.5535 79.4879 76.9736 78.5054 76.7316 77.4184C73.6544 76.5671 70.5772 74.5464 67.3051 71.264C66.6384 70.5871 65.9717 69.8896 65.3049 69.2126C64.6382 68.5356 63.8279 67.6842 63.0688 66.9252C64.6232 69.2557 66.018 71.6889 67.2436 74.2079C68.5873 77.0697 70.013 80.6187 71.5311 84.3832C72.5569 86.968 73.6441 89.6349 74.7212 92.1377L110.335 88.722L109.217 87.6963L107.627 86.0859C103.524 82.2565 99.4482 78.4237 95.4 74.5874L95.0922 74.3002C95.0922 74.3002 93.1946 72.5872 91.2355 70.505C89.9313 72.8481 88.0492 74.8185 85.7683 76.2286C85.858 76.5636 85.9096 76.9077 85.9222 77.2543C85.9439 77.8494 85.836 78.442 85.6057 78.9911C85.3754 79.5402 85.0284 80.0326 84.5887 80.4341C83.8326 81.1475 82.8279 81.5376 81.7885 81.5214ZM102.006 67.3252C102.321 67.4177 102.654 67.423 102.972 67.3408C103.29 67.2586 103.579 67.0918 103.81 66.8582C104.04 66.6246 104.203 66.333 104.281 66.0143C104.359 65.6955 104.349 65.3616 104.252 65.0481C103.749 63.4069 102.201 60.7503 97.7181 57.2423C97.3947 57.9422 96.874 58.5325 96.2198 58.9406C95.5657 59.3488 94.8066 59.5571 94.0357 59.5399C93.9434 60.9452 93.8101 62.2171 93.6152 63.3864C94.4768 63.807 95.3692 64.2583 96.2513 64.7096C98.0962 65.7344 100.021 66.6091 102.006 67.3252ZM89.1635 63.0684C88.9088 63.001 88.6473 62.9631 88.3839 62.9556H88.2814C88.5776 62.9736 88.8723 63.0113 89.1635 63.0684ZM113.525 88.8451C113.551 88.8865 113.586 88.9216 113.627 88.9477C114.36 88.8909 115.087 88.7777 115.802 88.6092C117.146 88.1653 118.428 87.5518 119.618 86.7834C121.819 85.3133 123.717 83.4327 125.208 81.2444C126.91 78.8442 128.849 75.09 128.5 71.0589C125.045 67.7196 121.967 64.0117 119.32 60.0015L118.294 58.5552C117.638 57.6423 116.951 56.7089 116.243 55.7755C115.904 55.3241 115.556 54.8626 115.217 54.4112C114.684 53.7343 114.13 53.0675 113.566 52.3598C111.84 50.2403 109.757 48.4387 107.411 47.0362C105.523 45.8735 103.291 45.3989 101.093 45.6925L101.298 45.7746C104.514 47.1597 107.507 49.0123 110.181 51.2725C110.249 51.3281 110.306 51.3967 110.348 51.4744C110.389 51.5521 110.415 51.6373 110.424 51.7251C110.433 51.8128 110.424 51.9014 110.398 51.9857C110.372 52.07 110.329 52.1484 110.273 52.2162C110.209 52.2896 110.13 52.3486 110.042 52.3892C109.954 52.4299 109.858 52.4513 109.76 52.4521C109.604 52.4553 109.452 52.4045 109.329 52.3085C106.77 50.1315 103.901 48.3476 100.816 47.0157C100.266 46.799 99.6999 46.6241 99.1234 46.4926H99.0516H98.9798C97.5173 46.1303 95.9981 46.0571 94.5076 46.2772C98.8641 47.764 102.964 49.9161 106.663 52.6572C106.736 52.7055 106.798 52.7683 106.847 52.8415C106.895 52.9148 106.928 52.9972 106.943 53.0836C106.958 53.1699 106.956 53.2585 106.936 53.3439C106.916 53.4294 106.879 53.5098 106.827 53.5804C106.765 53.6678 106.684 53.7394 106.589 53.7893C106.495 53.8392 106.39 53.866 106.283 53.8676C106.144 53.8664 106.008 53.8236 105.893 53.7445C99.4413 49.2005 94.7743 47.5901 92.0048 46.9952C90.866 46.7298 89.6939 46.6365 88.5275 46.7182C88.9891 49.6826 101.585 54.2779 104.355 62.2478C104.863 62.9918 105.274 63.7986 105.575 64.6481C105.743 65.1934 105.759 65.7739 105.624 66.3279C105.488 66.8819 105.204 67.3888 104.804 67.7948C104.403 68.2008 103.9 68.4907 103.347 68.6338C102.795 68.7769 102.215 68.7677 101.667 68.6074C99.602 67.8726 97.6017 66.9668 95.6872 65.8995C94.7435 65.4174 93.7998 64.9353 92.8972 64.5045C90.7021 64.1147 89.6969 64.4327 89.2866 64.966C89.8388 65.7581 90.4311 66.5216 91.0611 67.2534C91.3996 67.6329 91.7381 68.033 92.0868 68.4022C94.2511 70.7922 96.5488 72.8539 96.5488 72.8539L109.073 84.6396C110.345 85.8089 111.596 87.009 112.878 88.1784L113.525 88.8451ZM38.5846 81.7778C38.3335 82.3554 38.1909 82.9743 38.164 83.6036C38.1383 84.3523 38.1898 85.1016 38.3179 85.8397C38.7562 86.9359 39.3355 87.9704 40.0411 88.9169L39.4872 86.25L39.3744 85.6653C39.2 84.8755 39.0462 84.0652 38.882 83.2651L38.5846 81.7778ZM75.234 96.4253C74.7622 95.3995 74.2698 94.3738 73.6954 93.0301C72.5569 90.394 71.408 87.5527 70.3003 84.8242C68.8027 81.0906 67.3769 77.5518 66.0435 74.731C64.5749 71.732 62.8594 68.8603 60.9148 66.1456C58.6992 63.4069 56.1862 60.6067 55.3245 61.1503C54.0731 61.7965 54.8835 65.3968 55.7759 68.3304C56.8016 70.8537 57.8786 73.0078 58.1248 73.5207C58.5886 73.8912 59.0178 74.3032 59.407 74.7515C59.4648 74.8166 59.5092 74.8925 59.5375 74.9748C59.5657 75.0571 59.5773 75.1443 59.5716 75.2311C59.5659 75.318 59.5429 75.4028 59.5041 75.4808C59.4653 75.5587 59.4113 75.6281 59.3454 75.685C59.2227 75.7906 59.0663 75.8489 58.9044 75.8491C58.8092 75.8501 58.715 75.8305 58.6282 75.7915C58.5415 75.7526 58.4642 75.6952 58.4017 75.6234C58.0357 75.1962 57.6267 74.8078 57.1811 74.4643C56.4835 73.9115 55.714 73.456 54.8937 73.1104C54.4419 73.106 54.0003 73.2445 53.6319 73.506C53.2635 73.7676 52.9871 74.1389 52.8423 74.5669C53.5556 74.9006 54.2103 75.3474 54.7809 75.8901C54.8766 75.9815 54.943 76.0994 54.9715 76.2287C55 76.358 54.9894 76.4928 54.941 76.6161C54.8926 76.7393 54.8086 76.8453 54.6997 76.9206C54.5908 76.9959 54.462 77.0371 54.3296 77.0389C54.1579 77.0381 53.9929 76.9721 53.868 76.8543C53.2722 76.3101 52.5751 75.8884 51.8165 75.6132C50.8306 75.423 49.8106 75.5264 48.8829 75.9106C48.7102 75.9971 48.5483 76.1038 48.4008 76.2286C49.0471 76.5773 49.642 76.9569 50.1651 77.2543C50.313 77.351 50.4173 77.5017 50.4556 77.6741C50.4939 77.8466 50.4633 78.0273 50.3702 78.1775C50.3078 78.2702 50.2239 78.3466 50.1257 78.4002C50.0275 78.4537 49.9179 78.4829 49.8061 78.4852C49.679 78.4865 49.5543 78.4509 49.4471 78.3826C48.6353 77.825 47.7774 77.3378 46.8828 76.9261C46.6407 76.9005 46.3966 76.9005 46.1545 76.9261C45.689 76.9485 45.2461 77.1337 44.9031 77.4492C44.7242 77.6275 44.5966 77.8508 44.5338 78.0954C44.9681 78.3506 45.3799 78.6423 45.7647 78.9673C46.0211 79.1827 46.2673 79.3981 46.5032 79.634C46.6261 79.7604 46.6948 79.9297 46.6948 80.1059C46.6948 80.2821 46.6261 80.4513 46.5032 80.5777C46.4413 80.6396 46.3677 80.6887 46.2867 80.7221C46.2057 80.7555 46.119 80.7727 46.0314 80.7726C45.9436 80.7739 45.8565 80.7572 45.7754 80.7237C45.6943 80.6902 45.6209 80.6405 45.5596 80.5777C45.3442 80.3726 45.139 80.1777 44.9134 79.993C44.6502 79.7776 44.3763 79.5756 44.0928 79.3878C43.3268 79.3193 42.5553 79.3434 41.7951 79.4596C40.9266 79.6077 40.1127 79.9828 39.4359 80.5469C39.5368 80.6407 39.6081 80.7619 39.6411 80.8957L40.0821 83.101L40.5745 85.491L40.6873 86.0756C41.0156 87.686 41.3541 89.3477 41.7131 90.9479C41.9798 92.0762 42.2772 93.1942 42.6465 94.3533C42.7696 94.7841 42.9132 95.1944 43.067 95.6047C43.4158 96.6304 43.8363 97.7587 44.3595 98.9999C45.4467 101.554 46.6776 104.046 47.9393 106.601L48.9035 108.539L50.1959 111.134C50.3515 110.591 50.5364 110.057 50.7498 109.534C52.64 104.81 56.201 100.945 60.7553 98.6756C65.3096 96.406 70.5393 95.8899 75.4494 97.2254C75.3264 96.9792 75.2135 96.7227 75.0904 96.4663L75.234 96.4253Z" fill="#FFFF00"/>
<path d="M115.834 88.6092C114.894 88.9158 113.924 89.1221 112.941 89.2246C112.736 89.04 112.531 88.8554 112.326 88.6502L110.131 86.5987L108.53 85.1012L96.3447 73.6232L96.0268 73.3155C96.0268 73.3155 93.7394 71.264 91.6161 68.9151C91.2776 68.5458 90.9391 68.1561 90.5904 67.7765C89.9339 67.0072 89.421 66.3508 89.0312 65.7969C87.8517 64.1249 87.7388 63.3248 87.9029 63.1197C87.9029 63.1197 88.0363 62.9966 88.2517 62.9761H88.3235C88.6195 62.9907 88.9142 63.0249 89.2056 63.0787C89.9862 63.2752 90.7481 63.5394 91.4827 63.8685C91.852 64.0326 92.2213 64.1967 92.6008 64.3814L92.8777 64.5147C90.6827 64.1249 89.6775 64.4429 89.2672 64.9763C89.8194 65.7684 90.4117 66.5318 91.0417 67.2637C91.3802 67.6432 91.7187 68.0432 92.0674 68.4125C94.2317 70.8024 96.5294 72.8642 96.5294 72.8642L109.054 84.6498C110.325 85.8192 111.577 87.0193 112.859 88.1886L113.567 88.8554C113.593 88.8968 113.628 88.9318 113.669 88.9579C114.399 88.8972 115.122 88.7806 115.834 88.6092ZM90.8981 51.2827L96.6935 54.8215C97.0935 55.0985 97.4525 55.3549 97.791 55.6113L97.8628 55.6831C100.398 57.4627 102.596 59.6786 104.356 62.2273C101.586 54.2574 88.9697 49.6621 88.5286 46.6977C87.8818 46.716 87.2544 46.9228 86.7233 47.2926C86.6591 47.3368 86.6073 47.3969 86.5732 47.467C86.539 47.5371 86.5236 47.6148 86.5285 47.6927C86.5797 48.1132 87.1337 48.9338 89.5544 50.4622L90.8981 51.2827ZM55.8077 68.2381C54.9154 65.3456 54.105 61.7452 55.3564 61.058C56.218 60.5143 58.7311 63.3146 60.9467 66.0533C60.1774 64.9558 59.3978 63.93 58.6388 62.9761C55.6847 59.4373 53.8896 58.586 53.2434 58.9347C53.2434 58.9347 53.0896 59.0988 53.1409 59.9604C53.2639 61.9299 54.5769 65.325 55.8077 68.2381ZM41.0474 78.2595C40.371 78.2328 39.7004 78.394 39.1102 78.7254C38.5199 79.0567 38.033 79.5452 37.7036 80.1366C37.3646 81.0916 37.3041 82.1232 37.5292 83.1113C37.6937 84.0332 37.9585 84.9343 38.319 85.7987C38.191 85.0606 38.1394 84.3112 38.1651 83.5626C38.192 82.9333 38.3346 82.3144 38.5857 81.7368L38.4421 81.0393C38.4056 80.8665 38.4391 80.6864 38.5352 80.5383C38.6314 80.3903 38.7823 80.2864 38.955 80.2495C39.0593 80.2307 39.1665 80.2368 39.268 80.267C39.3696 80.2973 39.4626 80.351 39.5396 80.4238C40.2164 79.8597 41.0303 79.4846 41.8988 79.3366C42.659 79.2203 43.4305 79.1962 44.1965 79.2648C43.3553 78.6953 42.3862 78.3429 41.3757 78.239L41.0474 78.2595ZM54.9154 73.0078H54.8436C54.0718 72.6261 53.1953 72.5107 52.351 72.6795C52.0557 72.7585 51.7877 72.9169 51.5761 73.1375C51.3645 73.3581 51.2174 73.6326 51.1509 73.9309C51.7583 74.0393 52.3483 74.229 52.9049 74.4951C53.0423 74.068 53.3101 73.6947 53.6708 73.4279C54.0315 73.1611 54.4668 73.0141 54.9154 73.0078ZM45.7761 76.4645H45.5812C45.3042 76.4093 45.0225 76.3818 44.7401 76.3824C43.9066 76.3638 43.0919 76.6317 42.4322 77.1415C43.2092 77.3325 43.9528 77.6403 44.6375 78.0544C44.7003 77.8097 44.8278 77.5865 45.0068 77.4082C45.3498 77.0926 45.7926 76.9075 46.2582 76.885C46.5002 76.8594 46.7444 76.8594 46.9864 76.885C46.6809 76.7513 46.3654 76.6416 46.0428 76.5568L45.7761 76.4645ZM50.3714 75.1105H50.2688H49.6739C48.8457 75.1132 48.0263 75.2806 47.2634 75.6029C47.6883 75.7691 48.1028 75.9609 48.5045 76.1773C48.652 76.0525 48.8139 75.9458 48.9866 75.8593C49.9143 75.4751 50.9343 75.3717 51.9202 75.5619C51.4277 75.3393 50.9063 75.1874 50.3714 75.1105ZM29.8567 75.5516C29.4428 75.3596 28.9984 75.2416 28.5438 75.2028L28.4514 74.5259V75.1926C28.0804 75.1673 27.7079 75.216 27.3558 75.3357C27.0036 75.4554 26.6788 75.6439 26.4 75.8901C26.1086 76.1724 25.8831 76.5155 25.7395 76.8949C25.5959 77.2743 25.5377 77.6807 25.5691 78.0852C25.6199 79.0327 26.011 79.9301 26.6706 80.6123C27.3302 81.2945 28.2139 81.7157 29.1592 81.7983H29.2515C29.6226 81.8242 29.9952 81.7758 30.3474 81.656C30.6997 81.5363 31.0245 81.3475 31.303 81.1008C31.6008 80.8255 31.8343 80.4878 31.9867 80.112C32.1392 79.7361 32.2069 79.3313 32.1851 78.9263C32.15 78.2094 31.9192 77.5159 31.5178 76.921C31.1163 76.326 30.5596 75.8524 29.908 75.5516H29.8567ZM19.4865 36.9225C19.7793 40.2294 20.8324 43.424 22.5637 46.2566C22.6146 46.1853 22.677 46.1229 22.7484 46.072L30.7799 40.8818C29.9296 39.3924 29.4084 37.738 29.2515 36.0301C29.0988 34.7037 29.2203 33.36 29.6085 32.0826C29.9967 30.8051 30.6433 29.621 31.5081 28.6038C32.8467 27.0625 34.6973 26.057 36.7188 25.7728L35.0059 16.1309C25.1691 17.731 18.5326 26.5215 19.4865 36.9225ZM70.7014 41.4152H70.804C73.4093 41.2408 76.2301 41.0357 79.1329 40.8203L78.7944 38.2046L78.5175 36.0506C75.6044 36.266 72.7734 36.4712 70.2193 36.6353C69.9128 36.6554 69.6133 36.7366 69.3385 36.8739C69.0638 37.0113 68.8192 37.2022 68.6192 37.4353C68.4248 37.6743 68.2809 37.9503 68.1963 38.2465C68.1117 38.5427 68.0881 38.853 68.1268 39.1586C68.2131 39.7813 68.5208 40.3522 68.9936 40.7666C69.4664 41.181 70.0727 41.4113 70.7014 41.4152ZM90.6827 52.6983C90.3164 53.2219 90.1424 53.8561 90.1903 54.4933C90.1845 54.5924 90.1845 54.6917 90.1903 54.7908C90.2906 55.5114 90.5865 56.1907 91.0458 56.755C91.5052 57.3192 92.1104 57.7467 92.7957 57.991C93.105 58.1108 93.4295 58.1868 93.7599 58.2167H93.8727H94.1291C94.7892 58.2031 95.4238 57.9601 95.9242 57.5295C96.2523 57.228 96.5022 56.8514 96.6525 56.4319L95.996 55.9498L90.7032 52.729L90.6827 52.6983ZM76.4352 98.8563C71.7304 97.2418 66.5851 97.4964 62.0627 99.5677C57.5403 101.639 53.9864 105.368 52.1356 109.985C51.7316 110.945 51.449 111.951 51.2945 112.981C53.0383 116.407 54.5871 119.279 56.0847 121.863C56.2765 120.927 56.5547 120.01 56.9155 119.125C58.8258 114.375 62.4256 110.501 67.0219 108.247C71.6181 105.994 76.8857 105.52 81.8101 106.919C80.0459 104.732 78.4514 102.414 77.0404 99.9846C76.8558 99.6256 76.6404 99.2255 76.4352 98.8357V98.8563ZM137.415 77.3159C134.737 75.8961 132.214 74.2013 129.886 72.259C129.698 75.802 128.459 79.2087 126.327 82.0445C124.737 84.3718 122.714 86.3708 120.367 87.9322C118.501 89.1596 116.409 90.0034 114.213 90.4145L114.613 90.794C117.352 93.307 119.608 95.3175 121.711 97.1125H121.957C124.641 96.6953 127.173 95.597 129.312 93.9225C131.504 92.1963 133.349 90.0696 134.748 87.6553C136.215 85.1217 137.856 81.3265 137.374 77.2851L137.415 77.3159ZM84.3539 76.1875C84.0918 75.4788 83.6333 74.8594 83.032 74.4016C82.4308 73.9439 81.7117 73.6668 80.9587 73.6027H80.692C79.9867 73.5905 79.3023 73.843 78.7739 74.3105C78.4769 74.5842 78.2439 74.9201 78.0914 75.2942C77.9389 75.6683 77.8708 76.0713 77.8918 76.4748C77.886 76.5738 77.886 76.6731 77.8918 76.7722C78.0282 77.6606 78.4613 78.4767 79.1206 79.0876C79.7799 79.6985 80.6267 80.0683 81.5229 80.1366H81.6357C82.0075 80.1605 82.3803 80.1102 82.7325 79.9887C83.0847 79.8672 83.4092 79.6769 83.6872 79.4289C83.9855 79.1556 84.2201 78.8201 84.3743 78.4461C84.5285 78.072 84.5986 77.6687 84.5796 77.2646C84.5729 76.8713 84.4965 76.4823 84.3539 76.1157V76.1875Z" fill="white"/>
<path d="M69.5932 33.1168C74.4244 32.7885 80.2506 32.3577 85.728 31.9474L92.7543 31.4243C95.7186 31.1986 98.4368 31.014 100.427 30.8909C100.914 30.8693 101.391 30.7469 101.829 30.5314C102.267 30.316 102.655 30.0122 102.969 29.6392C103.283 29.2661 103.517 28.832 103.655 28.3643C103.793 27.8965 103.832 27.4052 103.771 26.9213C103.655 25.9305 103.166 25.0209 102.404 24.3771C101.642 23.7332 100.664 23.4033 99.6677 23.4544C97.6983 23.5774 94.9904 23.7621 91.8926 23.9877L86.2306 24.4083C80.4967 24.8494 74.0039 25.3417 68.7931 25.6802C68.3053 25.7085 67.8286 25.837 67.3926 26.0576C66.9566 26.2782 66.5707 26.5863 66.2589 26.9625C65.9471 27.3387 65.7162 27.7751 65.5804 28.2445C65.4446 28.7139 65.407 29.2062 65.4697 29.6908C65.6 30.6356 66.0651 31.5022 66.7805 32.1328C67.4959 32.7635 68.4139 33.1163 69.3675 33.127L69.5932 33.1168ZM99.7395 24.7468C100.411 24.698 101.074 24.9129 101.59 25.3457C102.105 25.7786 102.431 26.3954 102.499 27.0649C102.537 27.3655 102.514 27.6707 102.43 27.9619C102.347 28.253 102.204 28.5241 102.012 28.7584C101.82 28.9927 101.582 29.1854 101.313 29.3245C101.044 29.4637 100.749 29.5464 100.447 29.5677C98.6009 29.6703 96.1084 29.8447 93.3902 30.0396L93.1645 28.3163L92.7748 25.2391L99.7395 24.7468ZM101.791 40.4815C102.279 40.457 102.758 40.3321 103.196 40.1145C103.634 39.8969 104.022 39.5914 104.337 39.217C104.652 38.8426 104.886 38.4073 105.025 37.9384C105.164 37.4694 105.205 36.9769 105.145 36.4914C105.011 35.5093 104.517 34.612 103.759 33.9733C103.001 33.3347 102.033 33.0002 101.042 33.0347C97.965 33.2296 92.8363 33.6091 87.5128 34.0092L79.071 34.6349C75.9938 34.8605 72.9166 35.0862 70.1471 35.2708C69.6586 35.3032 69.1821 35.4366 68.7477 35.6626C68.3134 35.8886 67.9307 36.2023 67.6238 36.5837C67.3145 36.9615 67.0851 37.3981 66.9493 37.867C66.8136 38.336 66.7743 38.8276 66.834 39.3122C66.9622 40.2578 67.4267 41.1256 68.1425 41.7567C68.8583 42.3877 69.7775 42.7398 70.7318 42.7484H70.9779C73.7372 42.5638 76.8041 42.3484 79.9634 42.1124L86.1178 41.6509C92.3645 41.1585 98.2727 40.7277 101.791 40.5226V40.4815ZM70.8036 41.3739H70.701C70.0723 41.37 69.466 41.1398 68.9932 40.7253C68.5204 40.3109 68.2127 39.7401 68.1264 39.1173C68.0876 38.8117 68.1113 38.5014 68.1959 38.2052C68.2805 37.909 68.4244 37.6331 68.6188 37.3941C68.8188 37.1609 69.0634 36.9701 69.3381 36.8327C69.6129 36.6953 69.9124 36.6142 70.2189 36.594C72.773 36.4299 75.604 36.2247 78.5171 36.0093L78.794 38.1634L79.1325 40.779C76.2297 41.0354 73.4089 41.2406 70.8036 41.415V41.3739ZM80.4557 40.6867L80.2198 38.7993L79.8505 35.9068L87.5948 35.3324C92.9389 34.9323 97.9855 34.5631 101.104 34.3682C101.759 34.3372 102.402 34.5545 102.904 34.9766C103.405 35.3987 103.73 35.9946 103.812 36.6453C103.85 36.9458 103.827 37.251 103.743 37.5422C103.66 37.8334 103.517 38.1044 103.325 38.3388C103.133 38.5731 102.895 38.7657 102.626 38.9049C102.357 39.044 102.062 39.1268 101.76 39.1481C98.2214 39.3532 92.3029 39.7943 86.046 40.2661L80.4557 40.6867ZM144.051 78.8029C142.1 78.0568 140.192 77.2006 138.338 76.2386C135.181 74.6104 132.245 72.5871 129.599 70.2175C126.135 66.8974 123.056 63.1987 120.418 59.1909L119.393 57.7651C118.685 56.7394 117.998 55.6214 117.341 54.4623L112.941 20.131L111.771 11.0635C111.529 9.31366 110.637 7.7192 109.272 6.59769C107.907 5.47618 106.17 4.90991 104.407 5.01168C81.6045 6.32462 36.0209 9.47362 13.3728 11.1661C12.9875 11.2188 12.6068 11.3011 12.2342 11.4123C9.58912 11.9415 7.21464 13.3847 5.52678 15.4889C3.83893 17.5931 2.94534 20.2241 3.00259 22.921C3.85395 33.2911 6.68497 56.0214 8.23383 67.8173C8.25392 67.9768 8.33186 68.1235 8.45286 68.2293C8.57386 68.3352 8.72952 68.393 8.8903 68.3917H8.98262C9.15699 68.3662 9.31454 68.2737 9.4218 68.1339C9.52906 67.9941 9.57757 67.818 9.55702 67.6429C8.01842 55.8573 5.17715 33.1578 4.32579 22.7979C4.32869 21.3217 4.63943 19.8623 5.23816 18.513C5.83688 17.1636 6.71043 15.954 7.80302 14.9613C7.40669 15.727 7.14967 16.5571 7.04398 17.4128C6.98167 17.9444 6.98167 18.4814 7.04398 19.0129C8.55181 37.2915 13.1984 72.2587 16.4192 92.2195C16.6401 93.7917 17.387 95.2427 18.5382 96.3361C19.6893 97.4294 21.1768 98.1007 22.7582 98.2406C22.9393 98.2508 23.1208 98.2508 23.3018 98.2406C23.5275 98.2406 23.7532 98.2406 23.9788 98.2406L42.1856 96.4968C42.4215 97.1635 42.6882 97.8713 42.9959 98.6201L23.3429 100.497L19.8451 100.825C18.3843 100.963 16.9271 100.529 15.7795 99.6146C14.632 98.7003 13.8833 97.377 13.6907 95.9224C12.4701 88.3935 11.6393 82.6699 10.1827 72.269C10.1426 72.1095 10.0449 71.9704 9.90836 71.8785C9.77186 71.7867 9.60622 71.7486 9.4433 71.7715C9.28038 71.7944 9.13169 71.8767 9.02581 72.0026C8.91994 72.1286 8.86437 72.2892 8.86979 72.4536C10.275 82.8648 11.1572 88.5987 12.3778 96.1378C12.6092 97.8059 13.4328 99.3351 14.6983 100.446C15.9638 101.557 17.5867 102.176 19.2707 102.19C19.4964 102.19 19.722 102.19 19.9477 102.19L23.6916 101.831L43.4985 99.933C44.5243 102.364 45.7141 104.744 46.9142 107.113L47.8784 109.052C48.5862 110.488 49.2939 111.924 50.0222 113.36C52.2275 117.688 54.1251 121.155 55.992 124.263C57.0177 125.925 57.9716 127.484 58.9358 128.92C62.07 133.646 65.5137 138.159 69.2445 142.429L70.2702 142.604L71.2959 142.768C79.0059 143.922 86.8685 143.53 94.4253 141.614C101.982 139.698 109.082 136.296 115.31 131.608L115.926 131.126L116.541 130.654C104.059 125.861 92.9778 118.014 84.3125 107.831C82.0286 105.193 79.9924 102.35 78.2299 99.3381L77.5119 98.0046C77.2965 97.5944 77.0913 97.1635 76.8759 96.7225L110.643 93.4709C111.894 93.3568 113.088 92.8949 114.09 92.1375C116.767 94.589 119.003 96.5789 121.075 98.2918C126.306 102.764 131.332 106.682 136.933 110.837L137.107 110.672L137.887 109.883L143.6 104.169C144.112 103.657 144.403 102.965 144.41 102.241V78.9978L144.051 78.8029ZM88.8667 51.6005L89.5437 52.0108C89.0396 52.738 88.7842 53.6087 88.8154 54.493C88.7981 54.6464 88.7981 54.8013 88.8154 54.9546C88.95 55.9888 89.3882 56.9599 90.0747 57.745C90.7612 58.5301 91.6652 59.094 92.6722 59.3653C92.6004 60.6269 92.4773 61.7552 92.3132 62.8015L91.9439 62.6374C89.9438 61.7758 87.7589 61.0577 86.8153 62.2886C85.8716 63.5195 86.8153 65.4581 89.5437 68.6482C89.7796 68.9251 90.0258 69.1918 90.2617 69.4585C89.1075 71.7111 87.3857 73.6238 85.2664 75.0077C84.8376 74.2448 84.228 73.5989 83.4911 73.1267C82.7542 72.6546 81.9127 72.3706 81.0404 72.2998H80.9583C79.8604 72.2313 78.7799 72.6001 77.9529 73.3255C77.1967 74.0109 76.7368 74.9637 76.6708 75.9822C73.9936 75.1205 71.2446 73.2434 68.2905 70.2688C67.6135 69.5918 66.9571 68.9046 66.3006 68.2174C64.3031 65.9722 62.0714 63.9468 59.6436 62.1758C56.5048 58.4319 54.2072 57.0471 52.6378 57.878C52.3943 58.038 52.1939 58.2555 52.0544 58.5113C51.9148 58.7671 51.8404 59.0534 51.8378 59.3448C47.1439 59.0197 42.4844 60.3479 38.6673 63.0989C34.8408 65.9691 31.8142 69.7727 29.8768 74.1461C29.5457 74.0261 29.2013 73.9469 28.8511 73.9102C28.7727 73.9016 28.6936 73.9016 28.6152 73.9102C28.0712 73.8729 27.5252 73.9444 27.0092 74.1205C26.4932 74.2966 26.0174 74.5738 25.6097 74.9359C25.1669 75.3344 24.8183 75.8265 24.5895 76.3765C24.3606 76.9266 24.2571 77.5207 24.2866 78.1157C24.3442 79.3945 24.8652 80.6087 25.7523 81.5316C26.6394 82.4546 27.832 83.0232 29.1075 83.1315H29.4665C30.0201 83.1407 30.5697 83.036 31.0811 82.8239C31.5926 82.6119 32.055 82.297 32.4397 81.8988C32.8244 81.5006 33.1232 81.0277 33.3176 80.5092C33.5119 79.9908 33.5976 79.4379 33.5694 78.885C33.5349 78.0372 33.2934 77.2107 32.8661 76.4777C32.4388 75.7446 31.8386 75.1273 31.1179 74.6795C32.9619 70.519 35.8397 66.8997 39.4777 64.1657C43.0621 61.5569 47.4584 60.3097 51.8788 60.6474C52.3609 63.7246 54.679 69.0892 55.9817 72.0433L55.2945 71.7254C54.2501 71.2275 53.068 71.0973 51.9403 71.3561C51.3998 71.4977 50.9104 71.7897 50.5292 72.1982C50.1479 72.6067 49.8903 73.115 49.7863 73.664H49.5504C48.3144 73.6784 47.1003 73.9916 46.0116 74.5769L45.6731 74.7718L44.6474 74.9564C43.9364 74.9456 43.2327 75.1003 42.5918 75.4083C41.9509 75.7163 41.3905 76.1691 40.9547 76.7309L40.7496 76.9361C39.8654 76.9603 39.0041 77.2228 38.2567 77.6958C37.5093 78.1688 36.9034 78.8348 36.503 79.6235C36.035 80.8221 35.9385 82.1338 36.2261 83.3879C36.785 86.5097 38.3055 89.3788 40.5752 91.5938L40.6778 91.6861C40.9239 92.7119 41.2009 93.7376 41.5189 94.7633C41.5804 94.948 41.642 95.1018 41.6933 95.2762L23.8147 96.9892C23.3456 97.0307 22.8731 97.01 22.4095 96.9276C21.2095 96.7292 20.1044 96.1524 19.2556 95.2814C18.4067 94.4104 17.8586 93.2908 17.6911 92.0862C14.4703 72.1562 9.83398 37.23 8.32615 18.9822C8.27959 18.5492 8.27959 18.1125 8.32615 17.6795C8.45949 16.3717 9.04456 15.1513 9.98064 14.2283C10.9167 13.3053 12.1453 12.7375 13.4548 12.6226C36.0928 10.9302 81.6661 7.7709 104.468 6.46822C105.895 6.38262 107.302 6.83908 108.407 7.74628C109.512 8.65348 110.234 9.94449 110.428 11.361L111.576 20.2541L115.567 51.3338L115.095 50.4517C112.705 45.8461 110.797 42.2458 108.253 43.3433C107.891 43.5776 107.591 43.8957 107.379 44.2708C107.166 44.6458 107.047 45.0666 107.032 45.4974C102.612 43.4459 99.5856 44.7691 99.001 45.0666C99.001 45.0666 99.001 45.0666 98.9189 45.1281C96.6394 44.5772 94.2439 44.764 92.0773 45.6615C89.2052 45.1076 86.9486 45.3538 85.8613 46.3487C85.6403 46.5331 85.4677 46.7688 85.3586 47.0352C85.2496 47.3016 85.2073 47.5906 85.2356 47.8771C85.3279 48.9233 86.4152 50.0516 88.8667 51.6005ZM96.6315 56.4112C96.4813 56.8306 96.2314 57.2073 95.9033 57.5087C95.4029 57.9394 94.7682 58.1824 94.1082 58.1959H93.8518H93.739C93.4086 58.166 93.0841 58.0901 92.7748 57.9703C92.0933 57.7229 91.4923 57.294 91.0368 56.73C90.5812 56.166 90.2884 55.4883 90.1899 54.77C90.1841 54.6709 90.1841 54.5716 90.1899 54.4725C90.1611 53.8408 90.3493 53.2182 90.7233 52.7083L96.0161 55.9291L96.6726 56.4112H96.6315ZM96.8059 58.4626C97.1869 58.1073 97.4967 57.6826 97.7188 57.2112C102.191 60.7192 103.75 63.3656 104.253 65.0171C104.349 65.3306 104.359 65.6645 104.281 65.9832C104.204 66.302 104.041 66.5936 103.81 66.8272C103.58 67.0608 103.29 67.2276 102.973 67.3098C102.655 67.392 102.321 67.3866 102.006 67.2942C100.023 66.6012 98.0992 65.7506 96.252 64.7504C95.3699 64.2991 94.4775 63.8477 93.6159 63.4272C93.8108 62.2578 93.9441 60.9859 94.0364 59.5807C95.0631 59.5775 96.0513 59.1896 96.8059 58.4934V58.4626ZM74.7219 92.0349C73.6961 89.5321 72.5678 86.9062 71.5318 84.2803C70.0137 80.5159 68.588 76.9669 67.2443 74.1051C66.0187 71.586 64.6239 69.1529 63.0695 66.8224C63.8286 67.5814 64.5671 68.3404 65.3056 69.1097C66.0442 69.879 66.6391 70.5047 67.3058 71.1612C70.5984 74.4846 73.6859 76.5053 76.7323 77.3156C76.9743 78.4026 77.5542 79.385 78.3889 80.1221C79.2236 80.8592 80.2703 81.313 81.3789 81.4185H81.7892C82.8166 81.4487 83.816 81.0813 84.5792 80.3928C85.0188 79.9913 85.3659 79.4989 85.5961 78.9498C85.8264 78.4007 85.9344 77.8081 85.9126 77.213C85.9 76.8664 85.8484 76.5223 85.7588 76.1873C88.0307 74.7872 89.9087 72.8316 91.2157 70.5047C93.1748 72.5562 95.0622 74.2897 95.0724 74.2999L95.3801 74.5872C99.442 78.4234 103.524 82.2562 107.627 86.0856L109.228 87.5832L110.346 88.6089L74.7219 92.0349ZM77.9324 76.454C77.9114 76.0506 77.9796 75.6475 78.132 75.2734C78.2845 74.8994 78.5175 74.5635 78.8145 74.2897C79.3429 73.8222 80.0273 73.5697 80.7327 73.5819H80.9583C81.7005 73.6509 82.4084 73.9268 83.0014 74.3784C83.5944 74.8299 84.0487 75.4389 84.3125 76.136C84.4551 76.5026 84.5315 76.8916 84.5381 77.2848C84.5572 77.6889 84.4871 78.0923 84.3329 78.4663C84.1786 78.8403 83.9441 79.1759 83.6457 79.4491C83.3678 79.6972 83.0433 79.8875 82.6911 80.009C82.3389 80.1305 81.9661 80.1808 81.5943 80.1569H81.4814C80.5887 80.0729 79.7504 79.6899 79.1025 79.07C78.4546 78.45 78.0351 77.6294 77.9119 76.7412C77.9133 76.6452 77.9202 76.5493 77.9324 76.454ZM29.9076 75.5513C30.5543 75.852 31.107 76.3231 31.5063 76.9139C31.9057 77.5048 32.1366 78.1933 32.1744 78.9055C32.1963 79.3105 32.1286 79.7154 31.9761 80.0912C31.8236 80.4671 31.5901 80.8047 31.2923 81.08C31.0139 81.3268 30.689 81.5155 30.3368 81.6353C29.9846 81.755 29.612 81.8034 29.2409 81.7775H29.1485C28.2084 81.6931 27.3298 81.2739 26.6728 80.5961C26.0157 79.9184 25.6239 79.0272 25.5687 78.0849C25.5497 77.6808 25.6198 77.2774 25.774 76.9034C25.9282 76.5294 26.1628 76.1939 26.4611 75.9206C26.7399 75.6744 27.0648 75.4859 27.4169 75.3662C27.7691 75.2465 28.1415 75.1978 28.5126 75.2231V74.5564L28.6049 75.2334C29.0542 75.2635 29.4949 75.3711 29.9076 75.5513ZM108.386 46.0923C108.386 45.5076 108.489 44.6768 108.899 44.4511C110.202 43.8665 111.977 47.077 113.782 50.6055C112.217 48.8416 110.399 47.3205 108.386 46.0923ZM117.741 57.6523C117.403 57.1292 117.074 56.6266 116.715 56.0214C117.074 56.5445 117.403 57.1292 117.741 57.6523ZM50.3402 111.062L49.0478 108.467L48.0836 106.528C46.8219 103.974 45.591 101.482 44.5038 98.9278C44.0319 97.6867 43.5601 96.5481 43.2113 95.5224C43.0575 95.1121 42.9139 94.7018 42.7908 94.271C42.4215 93.1119 42.1241 91.9939 41.8574 90.8655C41.4573 89.2654 41.1188 87.6037 40.8316 85.9933L40.7188 85.4086L40.2264 83.0187L39.7854 80.8134C39.7524 80.6796 39.6811 80.5584 39.5802 80.4646C39.5032 80.3918 39.4102 80.3381 39.3087 80.3078C39.2071 80.2775 39.0999 80.2715 38.9956 80.2902C38.8229 80.3272 38.672 80.431 38.5758 80.5791C38.4797 80.7272 38.4462 80.9073 38.4827 81.08L38.6263 81.7775L38.9238 83.2751C39.0879 84.0752 39.2417 84.8855 39.4161 85.6753L39.529 86.26L40.0828 88.9269C39.3772 87.9804 38.7979 86.9459 38.3596 85.8497C37.9991 84.9854 37.7343 84.0842 37.5698 83.1623C37.3447 82.1743 37.4052 81.1426 37.7442 80.1877C38.0657 79.5934 38.5454 79.0997 39.1301 78.7612C39.7148 78.4226 40.3819 78.2525 41.0573 78.2695H41.3855C42.396 78.3734 43.3651 78.7258 44.2063 79.2953C44.4899 79.483 44.7637 79.685 45.0269 79.9005C45.2525 80.0851 45.4577 80.28 45.6731 80.4851C45.7344 80.5479 45.8078 80.5976 45.889 80.6311C45.9701 80.6646 46.0572 80.6813 46.1449 80.68C46.2325 80.6801 46.3193 80.663 46.4002 80.6295C46.4812 80.5961 46.5548 80.547 46.6168 80.4851C46.7396 80.3588 46.8083 80.1895 46.8083 80.0133C46.8083 79.8371 46.7396 79.6678 46.6168 79.5415C46.3809 79.3055 46.1347 79.0901 45.8782 78.8747C45.4934 78.5497 45.0817 78.258 44.6474 78.0028C43.9627 77.5887 43.2191 77.2809 42.442 77.09C43.1018 76.5802 43.9164 76.3123 44.7499 76.3309C45.0323 76.3303 45.3141 76.3578 45.591 76.413H45.7859L46.0526 76.4848C46.3752 76.5695 46.6907 76.6793 46.9963 76.813C47.891 77.2247 48.7489 77.7119 49.5606 78.2695C49.6678 78.3378 49.7926 78.3734 49.9196 78.3721C50.0315 78.3698 50.1411 78.3407 50.2393 78.2871C50.3374 78.2335 50.4213 78.1572 50.4838 78.0644C50.5768 77.9142 50.6075 77.7335 50.5691 77.5611C50.5308 77.3886 50.4265 77.2379 50.2786 77.1412C49.7555 76.8027 49.1606 76.4232 48.5144 76.1155C48.1127 75.8991 47.6982 75.7073 47.2732 75.5411C48.0362 75.2188 48.8555 75.0514 49.6837 75.0487H50.2786H50.3812C50.9136 75.1092 51.435 75.2438 51.9301 75.4488C52.6886 75.724 53.3857 76.1457 53.9815 76.6899C54.1064 76.8078 54.2714 76.8738 54.4431 76.8745C54.5755 76.8727 54.7043 76.8315 54.8132 76.7562C54.9221 76.6809 55.0061 76.5749 55.0545 76.4517C55.1029 76.3285 55.1135 76.1936 55.085 76.0643C55.0565 75.935 54.9902 75.8172 54.8944 75.7257C54.3238 75.183 53.6691 74.7362 52.9558 74.4025C52.3992 74.1365 51.8092 73.9467 51.2018 73.8384C51.2683 73.54 51.4154 73.2656 51.627 73.045C51.8386 72.8243 52.1066 72.6659 52.4019 72.587C53.2462 72.4181 54.1227 72.5335 54.8944 72.9152H54.9662C55.7865 73.2609 56.556 73.7163 57.2536 74.2692C57.6758 74.6492 58.0574 75.072 58.3922 75.5308C58.4546 75.6026 58.5319 75.66 58.6187 75.6989C58.7055 75.7379 58.7997 75.7575 58.8948 75.7565C59.0567 75.7563 59.2132 75.6981 59.3359 75.5924C59.4018 75.5355 59.4557 75.4661 59.4945 75.3882C59.5334 75.3103 59.5563 75.2254 59.562 75.1386C59.5678 75.0517 59.5562 74.9646 59.5279 74.8822C59.4996 74.7999 59.4553 74.724 59.3974 74.659C59.0082 74.2106 58.5791 73.7986 58.1152 73.4281C57.8691 72.9152 56.8331 70.7612 55.7663 68.2379C54.5354 65.3248 53.2635 61.9296 53.0994 60.032C53.0994 59.2217 53.2122 59.0063 53.202 59.0063C53.8482 58.6575 55.6432 59.5089 58.5973 63.0477C59.3564 63.9606 60.1359 64.9863 60.9052 66.1249C62.8499 68.8395 64.5653 71.7112 66.0339 74.7102C67.3674 77.531 68.7931 81.0698 70.2907 84.8035C71.3985 87.5627 72.5473 90.404 73.6859 93.0093C74.2603 94.3428 74.7116 95.4301 75.2245 96.4045C75.3476 96.6609 75.4604 96.9174 75.5835 97.1635C70.6734 95.828 65.4437 96.3442 60.8894 98.6138C56.3351 100.883 52.774 104.748 50.8838 109.472C50.6742 109.992 50.4928 110.523 50.3402 111.062ZM77.0092 99.9638C78.4202 102.393 80.0147 104.711 81.7789 106.898C76.8575 105.509 71.5964 105.988 67.0068 108.243C62.4172 110.498 58.823 114.37 56.9151 119.114C56.5543 120 56.2761 120.916 56.0843 121.853C54.5867 119.268 53.0071 116.396 51.2941 112.97C51.4486 111.941 51.7312 110.934 52.1352 109.975C53.986 105.358 57.5399 101.628 62.0623 99.5572C66.5847 97.4859 71.73 97.2312 76.4348 98.8457C76.64 99.2253 76.8554 99.6253 77.04 99.9638H77.0092ZM110.489 92.1272L76.2297 95.4198C75.9322 94.7736 75.6143 94.0966 75.2758 93.317L111.638 89.8398L112.069 90.2296C112.13 90.3117 112.202 90.3843 112.284 90.445L113.095 91.1938C112.328 91.7155 111.443 92.0365 110.52 92.1272H110.489ZM112.91 89.2244C112.705 89.0397 112.5 88.8551 112.294 88.65L110.099 86.5985L108.499 85.1009L96.3443 73.623L96.0264 73.3152C96.0264 73.3152 93.739 71.2638 91.6157 68.9149C91.2772 68.5456 90.9387 68.1558 90.59 67.7763C89.9335 67.007 89.4206 66.3505 89.0308 65.7966C87.8512 64.1247 87.7384 63.3246 87.9025 63.1195C87.9025 63.1195 88.0359 62.9964 88.2513 62.9759H88.4257C88.689 62.9834 88.9506 63.0212 89.2052 63.0887C89.9858 63.2852 90.7477 63.5495 91.4823 63.8785C91.8516 64.0426 92.2209 64.2067 92.6004 64.3914L92.8773 64.5247C93.78 64.9555 94.7237 65.4376 95.6673 65.9197C97.5819 66.9871 99.5822 67.8929 101.647 68.6277C102.198 68.7949 102.784 68.8084 103.342 68.6668C103.9 68.5251 104.409 68.2337 104.813 67.824C105.218 67.4143 105.503 66.9019 105.637 66.3421C105.771 65.7823 105.75 65.1965 105.576 64.6478C105.292 63.7938 104.899 62.9802 104.407 62.2271C102.647 59.6783 100.449 57.4625 97.9137 55.6829L97.8419 55.6111C97.5034 55.3547 97.1444 55.0982 96.7444 54.8213L90.949 51.2825L89.6155 50.4619C87.1948 48.9336 86.6409 48.113 86.5896 47.6924C86.5848 47.6146 86.6002 47.5368 86.6343 47.4667C86.6685 47.3966 86.7202 47.3366 86.7845 47.2924C87.3155 46.9226 87.9429 46.7158 88.5898 46.6975C89.7562 46.6157 90.9283 46.7091 92.067 46.9744C94.8365 47.5386 99.5036 49.1798 105.955 53.7237C106.07 53.8028 106.206 53.8456 106.345 53.8468C106.452 53.8453 106.557 53.8184 106.652 53.7685C106.746 53.7186 106.827 53.647 106.889 53.5596C106.941 53.489 106.978 53.4086 106.998 53.3232C107.018 53.2378 107.021 53.1492 107.005 53.0628C106.99 52.9764 106.957 52.8941 106.909 52.8208C106.861 52.7475 106.798 52.6848 106.725 52.6365C103.009 49.9015 98.8911 47.7596 94.5185 46.2872C96.0091 46.0671 97.5282 46.1403 98.9907 46.5026H99.0625H99.1343C99.7108 46.6341 100.277 46.809 100.827 47.0257C103.912 48.3576 106.781 50.1415 109.34 52.3185C109.463 52.4145 109.615 52.4653 109.771 52.4621C109.868 52.4613 109.965 52.4399 110.053 52.3992C110.141 52.3586 110.22 52.2996 110.284 52.2262C110.34 52.1584 110.383 52.08 110.409 51.9957C110.435 51.9114 110.443 51.8228 110.435 51.7351C110.426 51.6473 110.4 51.5621 110.359 51.4844C110.317 51.4067 110.26 51.3381 110.192 51.2825C107.518 49.0223 104.524 47.1697 101.309 45.7846L101.104 45.7025C103.302 45.4089 105.534 45.8835 107.422 47.0462C109.768 48.4487 111.851 50.2503 113.577 52.3698C114.141 53.0468 114.695 53.7135 115.228 54.4212C115.587 54.8726 115.936 55.3341 116.254 55.7855C116.951 56.7189 117.639 57.6523 118.305 58.5652L119.331 60.0115C121.978 64.0217 125.056 67.7296 128.511 71.0689C128.86 75.1718 126.921 78.8542 125.219 81.2544C123.728 83.4427 121.83 85.3233 119.628 86.7934C118.445 87.5566 117.17 88.1667 115.833 88.6089C114.893 88.9155 113.924 89.1218 112.941 89.2244H112.91ZM134.686 87.6242C133.287 90.0386 131.442 92.1653 129.25 93.8915C127.111 95.5659 124.579 96.6642 121.895 97.0815H121.649C119.598 95.2865 117.29 93.276 114.551 90.763L114.151 90.3834C116.347 89.9724 118.439 89.1286 120.305 87.9012C122.652 86.3398 124.675 84.3408 126.265 82.0135C128.397 79.1776 129.636 75.771 129.824 72.228C132.158 74.1715 134.688 75.8663 137.374 77.2848C137.856 81.3262 136.215 85.1214 134.717 87.6242H134.686ZM68.2085 23.9365C72.6704 23.639 77.9632 23.239 83.0406 22.8594L84.2612 22.7671H84.5074C90.2822 22.3363 95.7392 21.926 99.042 21.7414C99.5295 21.7151 100.007 21.5897 100.444 21.3727C100.881 21.1558 101.27 20.852 101.586 20.4797C101.658 20.3874 101.709 20.2848 101.77 20.1925C102.267 19.4893 102.487 18.627 102.386 17.7718C102.268 16.782 101.779 15.8738 101.017 15.2304C100.256 14.587 99.2786 14.2562 98.283 14.3048C94.9288 14.51 89.3898 14.9203 83.5329 15.3306H83.3791L79.9839 15.587C75.6143 15.9152 71.1934 16.2435 67.3879 16.4999C66.4636 16.5477 65.5954 16.9579 64.9715 17.6414C64.3475 18.3249 64.0179 19.2267 64.0542 20.1515C64.0443 20.2675 64.0443 20.3842 64.0542 20.5002C64.1822 21.4441 64.6452 22.3106 65.3589 22.9414C66.0726 23.5722 66.9893 23.9254 67.9418 23.9365H68.2085ZM98.3958 15.6075C99.0526 15.5739 99.6979 15.7899 100.202 16.2123C100.706 16.6347 101.032 17.2321 101.114 17.8846C101.174 18.3491 101.084 18.8207 100.857 19.2304C100.63 19.6401 100.278 19.9665 99.8523 20.1618C99.5876 20.2848 99.3025 20.3578 99.0112 20.3772C95.7699 20.5721 90.4771 20.9721 84.8356 21.4029L84.7433 20.6849L84.6817 20.172L84.2201 16.6332C89.8309 16.1922 95.1237 15.8024 98.3958 15.6075ZM56.5869 24.8391C54.5216 21.6292 51.6689 19.0013 48.3006 17.2059C44.9323 15.4104 41.1604 14.507 37.3441 14.5818C36.7605 14.6007 36.1783 14.652 35.6004 14.7356H35.5081C24.7379 16.0793 17.1372 25.8751 18.1527 37.0556C18.5014 40.6643 19.6847 44.1425 21.6092 47.2151C23.5336 50.2878 26.1463 52.8707 29.2409 54.7597C32.6118 56.818 36.482 57.9142 40.4316 57.9293H41.1804C44.1701 57.833 47.0987 57.0581 49.7448 55.6631C52.3908 54.2681 54.6849 52.2896 56.4536 49.8773C56.4586 49.8501 56.4586 49.8223 56.4536 49.7952C59.4369 45.6349 60.7975 40.528 60.2795 35.4349C59.9334 31.6352 58.6505 27.9805 56.5459 24.7981L56.5869 24.8391ZM22.5941 46.2872C20.8628 43.4545 19.8096 40.26 19.5169 36.953C18.563 26.5521 25.1995 17.7615 35.0362 16.2024L36.7492 25.8443C34.7334 26.1178 32.8836 27.1082 31.5385 28.6343C30.6737 29.6515 30.0271 30.8356 29.6389 32.1131C29.2507 33.3906 29.1292 34.7342 29.2819 36.0606C29.4483 37.7708 29.98 39.4254 30.841 40.9123L22.8095 46.1026C22.7271 46.1506 22.6542 46.2131 22.5941 46.2872ZM37.498 27.0957H37.7339H38.0621C40.1228 27.1936 42.1061 27.9106 43.753 29.1531C45.3999 30.3956 46.6338 32.1058 47.2938 34.0604C47.5899 34.8919 47.7828 35.7566 47.8682 36.635C48.0941 38.5746 47.6488 40.533 46.6065 42.1842C46.4233 42.4768 46.2176 42.7546 45.9911 43.0151C45.3355 43.7618 44.5321 44.3644 43.6316 44.7846C42.7311 45.2048 41.7533 45.4336 40.7598 45.4563H40.4419C39.1844 45.4473 37.9431 45.1711 36.8005 44.646C34.9461 43.8137 33.3742 42.4593 32.277 40.7482C31.3265 39.3004 30.7454 37.6415 30.5846 35.917C30.4506 34.771 30.5535 33.6097 30.887 32.5051C31.2205 31.4006 31.7774 30.3763 32.5232 29.4959C33.1502 28.7816 33.9129 28.1989 34.7668 27.7816C35.6208 27.3643 36.5492 27.1207 37.498 27.0649V27.0957ZM41.1291 56.5445C37.1922 56.6742 33.3041 55.6433 29.9486 53.5801C27.2963 51.9903 25.0129 49.8539 23.2506 47.3129C23.3388 47.3002 23.425 47.2761 23.507 47.2411L31.5385 42.0406C32.6568 43.5738 34.1273 44.8157 35.8261 45.6615C37.242 46.3786 38.8036 46.7611 40.3906 46.7795H40.7393C41.9097 46.7455 43.0605 46.4701 44.1195 45.9706C45.1786 45.4711 46.123 44.7582 46.8937 43.8767L47.2117 43.4869L54.8944 49.5798C53.2421 51.6693 51.1552 53.3745 48.7783 54.5771C46.4013 55.7797 43.7913 56.451 41.1291 56.5445ZM55.7561 48.4617L48.0323 42.3073C49.0371 40.5142 49.46 38.4533 49.2427 36.4094C49.1289 35.2119 48.8314 34.039 48.3605 32.9321C47.5399 30.8568 46.1332 29.0652 44.3118 27.7757C42.4905 26.4861 40.3332 25.7545 38.1032 25.6699L36.3697 15.946C36.7082 15.946 37.0467 15.8742 37.3954 15.8639H38.0929C41.6016 15.9334 45.0377 16.8756 48.091 18.6055C51.1443 20.3354 53.7187 22.7985 55.5817 25.7725C57.5042 28.7139 58.6802 32.0799 59.0076 35.5785C59.451 40.1298 58.3018 44.6939 55.7561 48.4925V48.4617Z" fill="black"/>
</svg>
