<svg width="148" height="148" viewBox="0 0 148 148" fill="none" xmlns="http://www.w3.org/2000/svg">
<path d="M128.96 58.0637C129.493 49.0706 128.559 40.0508 126.051 31.3246C125.917 30.7908 125.384 30.2571 124.85 30.1237C116.124 27.6152 107.104 26.6812 98.1108 27.215L91.0924 20.1966C82.7665 11.8707 69.2635 11.8707 60.9109 20.1966L53.8925 27.0815C44.8994 26.5478 35.8797 27.4818 27.1534 29.9903C26.6197 30.1237 26.086 30.6574 25.9526 31.1911C23.4441 39.9174 22.5101 48.9372 23.0438 57.9302L16.0255 64.9486C7.69952 73.2745 7.69952 86.7775 16.0255 95.1302L23.0438 102.149C22.5101 111.142 23.4441 120.161 25.9526 128.888C26.086 129.421 26.6197 129.955 27.1534 130.088C35.8797 132.597 44.8994 133.531 53.8925 132.997L60.9109 140.016C69.2368 148.342 82.7398 148.342 91.0924 140.016L98.1108 132.997C107.104 133.531 116.124 132.597 124.85 130.088C125.384 129.955 125.917 129.421 126.051 128.888C128.559 120.161 129.493 111.142 128.96 102.149L135.978 95.1302C144.304 86.8042 144.304 73.3012 135.978 64.9486L128.96 58.0637Z" fill="#FFFF00"/>
<mask id="mask0_6575_2746" style="mask-type:alpha" maskUnits="userSpaceOnUse" x="1" y="2" width="146" height="145">
<path d="M132.912 59.6579C140.117 52.3193 148.79 53.3067 146.281 44.5804C147.082 43.2505 136.808 31.5044 136.274 31.371C141.427 16.4717 115.112 1.48013 106.119 2.01384L91.0925 20.1939C82.7666 11.8679 48.0245 6.63331 39.6718 14.9593L23.0439 13.8918C14.0508 13.3581 12.4523 19.229 8.84973 26.1673C8.31602 26.3007 3.91294 33.239 3.77951 33.7727C1.27105 42.4989 4.17968 59.6045 4.7134 68.5976L3.77937 71.533C-4.54658 79.859 7.69959 86.7748 16.0255 95.1274L23.0439 102.146C22.5102 111.139 23.4442 120.159 25.9526 128.885C26.0861 129.419 26.6198 129.952 27.1535 130.086C35.8797 132.594 44.37 142.519 60.911 140.013C69.2369 148.339 82.7399 148.339 91.0925 140.013L98.1109 132.994C107.104 133.528 116.124 132.594 124.85 130.086C125.384 129.952 125.917 129.419 126.051 128.885C128.559 120.159 129.493 111.139 128.96 102.146L135.978 95.1274C144.304 86.8015 144.304 73.2985 135.978 64.9459L132.138 61.1256L132.912 59.6579Z" fill="#C7FA73"/>
</mask>
<g mask="url(#mask0_6575_2746)">
<path d="M52.8521 80.05H52.9855M52.8521 80.05L45.9672 74.2325C45.8337 74.099 45.8337 73.9656 45.8337 73.8322L52.8521 80.05ZM48.6091 67.7212C48.6091 67.5877 48.7425 67.5877 48.8759 67.5877L56.1611 66.12L78.7906 62.6776C78.9241 62.6776 79.0575 62.6776 79.0575 62.811L79.7246 64.4121C79.7246 64.5456 79.7246 64.679 79.7246 64.679C74.8145 70.4965 71.2653 72.3645 68.7301 73.5386C67.0222 74.3392 68.1163 73.8055 64.834 74.8996" stroke="black" stroke-miterlimit="10"/>
<path d="M74.281 64.6794L91.3599 67.4547L96.0032 50.7761L92.6942 43.7578L82.7671 40.3153L74.281 64.6794Z" fill="black"/>
<path d="M92.2939 64.2793L75.6153 60.8368L75.4819 61.3705L74.281 64.6795L91.3599 67.4549L92.2939 64.2793Z" fill="#FFFF00"/>
<path d="M91.3598 67.7217L74.2809 64.9464C74.1475 64.9464 74.1475 64.9464 74.1475 64.8129C74.1475 64.6795 74.1475 64.6795 74.1475 64.5461L82.6068 40.182" stroke="black" stroke-miterlimit="10"/>
<path d="M48.4759 68.7885L48.209 69.3222L46.1008 73.9655L52.9858 79.783L62.4592 78.6889C63.153 77.7015 63.7134 76.5807 64.8075 74.9262C62.0322 70.95 52.3186 67.9879 48.4759 68.7885Z" fill="white" stroke="black"/>
<path d="M78.6571 94.0603C70.7047 103.187 62.779 109.004 59.47 107.03C56.0275 104.921 57.4953 93.7934 63.5796 79.7567C62.3788 78.289 59.3366 75.1134 54.1862 73.5389C49.5429 72.0712 45.5934 72.7384 43.8589 73.1387C31.1564 102.92 30.3559 126.75 43.8589 134.409C56.2944 141.561 74.4407 132.034 76.4154 130.967C77.7497 125.95 79.1908 120.906 80.5251 115.889L78.6571 94.0603Z" fill="#FFFF00"/>
<path d="M36.9477 127.151C32.4378 106.896 41.0573 83.8665 47.1416 72.7653C45.6739 72.8987 44.4997 73.0321 43.6992 73.1655C32.8648 95.6616 31.2636 116.05 36.9477 127.151Z" fill="white"/>
<path d="M79.3245 101.612L78.6573 94.0604C71.3721 102.386 64.0869 107.964 60.4043 107.43C64.3538 109.565 76.9228 103.08 79.3245 101.612Z" fill="black"/>
<path d="M54.5603 137.345C50.3173 137.345 46.7414 136.411 43.5658 134.703C36.9477 130.994 33.3718 122.534 33.3718 111.006C33.3718 99.6114 36.9477 86.1351 43.4323 73.1391C43.4323 73.0057 43.5658 73.0057 43.5658 73.0057C45.9408 72.472 49.7836 72.0717 54.0266 73.406C58.6699 74.8737 61.8455 77.649 63.5534 79.6237C57.7359 92.9933 55.8679 104.895 59.3104 106.897C62.2191 108.604 70.038 103.321 78.0971 93.9273C78.2306 93.7939 78.2306 93.7939 78.364 93.7939C78.4974 93.7939 78.4974 93.9273 78.4974 94.0607L80.3387 115.89C80.3387 115.89 80.3387 115.89 80.3387 116.023L78.4707 130.033C78.4707 130.167 76.1224 131.261 76.1224 131.261C75.5887 131.528 70.3049 134.436 63.6868 136.171C60.6447 136.945 57.469 137.345 54.5603 137.345Z" fill="#FFFF00" stroke="black" stroke-miterlimit="10"/>
<path d="M128.96 62.9712L129.093 65.7465L128.56 71.6974L119.033 84.6667L121.808 97.3691L119.833 109.538L116.925 110.605L107.798 76.8478L103.555 68.255V43.7574L117.859 44.8249L127.519 49.6016L130.428 54.8854L128.96 62.9712Z" fill="#FFFF00"/>
<path d="M143.904 83.5992C143.237 80.8239 143.424 77.9151 142.223 74.7395C140.755 70.8968 138.353 67.4543 136.752 64.5456C135.685 68.6552 120.207 76.4474 116.898 78.182C117.832 82.0248 118.606 86.6414 119.006 91.8184C119.54 98.7033 119.006 104.788 118.339 109.564" fill="#FFFF00"/>
<path d="M118.099 109.564C118.899 103.747 119.166 97.7961 118.766 91.8185C118.499 87.3086 117.698 82.692 116.658 78.3155C116.658 78.1821 116.658 78.0486 116.791 78.0486C121.941 75.5402 135.578 68.3884 136.512 64.6791C136.512 64.5457 136.645 64.5457 136.779 64.4122C136.912 64.4122 137.046 64.4122 137.046 64.5457C139.206 66.7658 141.048 70.63 142.516 74.7396C143.584 77.6484 143.397 80.6905 144.197 83.5993" stroke="black" stroke-miterlimit="10"/>
<path d="M117.832 44.8253C118.499 46.0262 119.3 47.6006 119.807 49.4686C120.474 51.5768 120.741 53.5782 120.874 55.0193C123.116 53.3114 125.784 52.7777 127.092 53.685C128.8 54.8858 129.067 59.1022 125.891 62.6781C126.158 63.0784 126.558 63.7455 127.092 64.2792C127.759 64.9464 128.56 65.4801 128.933 65.7469C130.641 63.2385 132.509 59.6626 133.95 55.1527C134.884 52.1105 135.418 49.3352 135.658 47.0669C129.867 46.293 123.783 45.6259 117.832 44.8253Z" fill="black"/>
<path d="M129.066 66.0136C129.066 66.0136 128.96 66.0136 129.066 66.0136C128.132 65.6133 127.465 65.0796 126.958 64.5459C126.425 64.0122 126.024 63.4785 125.757 62.838C125.757 62.7046 125.757 62.5711 125.757 62.5711C127.465 60.7298 128.266 58.3281 127.999 56.3534C127.866 55.2859 127.465 54.5121 126.932 53.9783C125.731 53.0443 123.089 53.5781 120.981 55.3126C120.847 55.3126 120.847 55.4461 120.714 55.3126C120.58 55.3126 120.58 55.1792 120.58 55.0458C120.447 53.2045 120.18 51.3365 119.646 49.4951C119.113 47.894 118.446 46.3195 117.672 44.9852C117.672 44.8518 117.672 44.7184 117.672 44.7184C117.672 44.585 117.805 44.585 117.938 44.585L135.951 46.8266C136.085 46.8266 136.218 46.96 136.218 47.0934C135.951 49.8687 135.284 52.6441 134.51 55.3126C133.309 59.0219 131.602 62.5978 129.493 66.0403C129.2 66.0136 129.2 66.0136 129.066 66.0136ZM126.291 62.838C126.558 63.3717 126.958 63.772 127.359 64.3057C127.892 64.8394 128.426 65.2397 128.96 65.5066C131.068 62.331 132.669 58.8885 133.87 55.1792C134.67 52.6707 135.204 50.0288 135.578 47.3603L118.365 45.2521C119.033 46.5864 119.7 48.0274 120.073 49.4951C120.607 51.203 120.874 52.9376 121.007 54.6455C123.249 53.0443 125.784 52.6707 127.225 53.5781C127.892 54.1118 128.426 55.0458 128.559 56.2199C128.826 58.3281 128.026 60.8366 126.291 62.838Z" fill="black"/>
<path d="M48.2091 34.765C47.2751 31.1891 46.7413 30.6554 44.4997 29.4812L43.1655 28.2804L30.5965 18.3533L15.7859 63.8791L33.9055 65.7205C44.6332 65.7471 49.2765 39.1415 48.2091 34.765Z" fill="black"/>
<path d="M16.3196 64.146L33.9322 65.4803C36.1738 65.4803 38.4421 64.146 40.4168 61.6375C46.3677 54.0855 48.7427 38.074 47.9689 34.765C47.1683 31.3225 46.5011 30.7888 44.393 29.7481L43.0587 28.5472L31.0234 18.3533L16.3196 64.146Z" fill="black" stroke="black" stroke-miterlimit="10"/>
<path d="M30.1157 28.5472L43.0583 34.765C43.0583 34.765 48.7424 38.074 47.9685 34.765C47.1679 31.3225 46.5008 30.7888 44.3926 29.7481L43.0583 28.5472L31.023 18.3533L30.1157 28.5472Z" fill="#FFFF00" stroke="black" stroke-miterlimit="10"/>
<path d="M16.3196 64.6794L33.9322 65.48C36.1738 65.48 38.4421 64.1457 40.4168 61.6372C46.3677 54.0852 48.7427 38.0737 47.9689 34.7647C47.1683 31.3222 43.2722 59.9827 41.164 58.942L18.8547 56.1933L16.3196 64.6794Z" fill="#FFFF00" stroke="black" stroke-miterlimit="10"/>
<path d="M81.1655 31.4556L95.0688 27.6129C96.2697 24.7041 101.553 13.843 104.062 10.9343C105.903 8.6927 110.413 8.02556 113.455 10.6674C115.163 12.2686 117.698 13.9765 120.74 15.6844C126.024 18.7265 130.534 18.0594 131.735 19.3937C133.203 21.7687 133.977 33.1635 134.243 37.5133C137.419 39.7549 141.662 43.0639 144.571 45.1988C145.238 45.7325 145.238 47.387 144.571 47.8941C142.062 50.0022 131.095 47.7339 108.198 45.5991" fill="#FFFF00"/>
<path d="M81.1655 31.4556L95.0688 27.6129C96.2697 24.7041 101.553 13.843 104.062 10.9343C105.903 8.6927 110.413 8.02556 113.455 10.6674C115.163 12.2686 117.698 13.9765 120.74 15.6844C126.024 18.7265 130.534 18.0594 131.735 19.3937C133.203 21.7687 133.977 33.1635 134.243 37.5133C137.419 39.7549 141.662 43.0639 144.571 45.1988C145.238 45.7325 145.238 47.387 144.571 47.894C142.062 50.0022 131.095 47.7339 108.198 45.5991" stroke="black" stroke-miterlimit="10"/>
<path d="M109.239 11.7349C111.748 10.8009 113.616 12.5354 114.923 11.8683C114.39 11.468 113.856 11.0677 113.456 10.6674C110.413 8.02556 105.904 8.6927 104.062 10.9343C101.554 13.843 96.2433 24.7041 95.0691 27.6129L80.8723 31.2955L82.6336 34.5512C90.5859 32.8433 95.9764 30.4149 97.5776 28.0399C98.5116 26.0651 99.5523 24.0637 100.486 22.0889C105.13 14.5102 107.905 12.2686 109.239 11.7349Z" fill="white"/>
<path d="M79.5909 29.7478L65.8211 16.5117L48.4753 67.9885L66.0612 68.6023C66.4615 68.6023 66.5149 68.6823 66.9152 68.6823C67.0486 68.6823 67.1554 68.6557 67.2888 68.6557L67.6624 68.1219C73.6133 67.8551 79.751 61.7707 82.6598 51.9771C85.4084 42.5837 83.9407 33.5906 79.5909 29.7478Z" fill="black"/>
<path d="M48.4753 68.2559L67.2621 68.6562C73.213 68.3893 79.5642 61.2376 82.3395 51.8442C84.9814 42.7176 83.9407 34.0982 79.4308 30.0152L66.9952 17.6331L48.4753 68.2559Z" fill="black" stroke="black" stroke-miterlimit="10"/>
<path d="M48.4753 68.2553L67.2621 68.6556C70.3576 68.5222 73.5332 66.5474 76.2819 63.3451L52.4782 57.2875L48.4753 68.2553Z" fill="#FFFF00" stroke="black" stroke-miterlimit="10"/>
<path d="M85.8088 66.547C83.8341 67.481 82.9001 68.1481 80.525 69.856C78.8171 71.1903 77.3494 72.4979 76.282 73.6988C77.4828 85.734 78.1233 99.5039 77.6163 114.741C77.0826 126.643 76.0151 137.638 74.4407 147.431C76.9491 147.165 79.9913 147.165 83.3003 147.431C87.6768 147.832 91.3861 148.766 94.2949 149.807C93.6277 121.493 92.9606 95.928 92.3201 67.6144L85.8088 66.547Z" fill="black"/>
<path d="M114.79 50.6425C113.589 49.4417 111.481 51.71 111.081 52.3504C110.28 48.1074 108.038 42.4233 102.861 41.4893C101.527 40.4219 99.5523 39.7815 96.9104 40.2885C95.3093 39.6213 93.2011 39.221 90.4258 40.0216C87.5171 39.3545 84.7151 39.3545 84.5816 40.1551C84.3148 41.4893 86.5564 42.1298 91.0663 44.3981C93.041 46.3728 93.8416 48.3743 93.8416 50.4824C93.975 54.9923 90.9328 59.7424 90.666 65.1863C90.666 66.8942 90.8528 69.0557 91.2264 71.0304L90.8795 75.9406L92.1337 78.0221L109.613 76.9547L109.346 74.3128C109.213 72.9785 109.346 71.5375 109.613 70.2032C111.748 64.2789 115.19 55.6861 114.79 50.6425Z" fill="#FFFF00"/>
<path d="M97.0438 51.1758C97.1772 48.5339 96.8036 46.5325 96.5367 45.0915C95.6828 41.7024 100.219 45.0915 101.127 44.6912C101.74 44.5311 101.474 41.5422 100.006 40.7417C99.0719 40.6082 97.7109 40.7417 97.1505 41.0886C95.5493 40.4214 94.642 39.6209 91.84 40.4214C88.9313 39.7543 84.288 39.5141 84.1545 40.3147C83.8877 41.649 85.9692 41.4088 90.6392 44.5577C92.6139 46.5325 93.4145 48.5339 93.4145 50.6421C93.5479 55.152 90.5057 59.902 90.2389 65.3459C90.2389 67.0538 90.7726 69.1086 91.1729 71.0834L90.6392 75.3264L90.906 76.4739L92.3737 72.7646C92.9075 68.1212 93.708 64.5454 94.4819 62.0369C95.6027 57.9273 96.7769 55.4188 97.0438 51.1758Z" fill="white"/>
<path d="M109.212 74.3659C109.212 73.2984 109.613 70.4964 109.613 70.4964C105.236 67.7211 93.868 69.0287 90.8258 71.5639V72.3644L90.6924 76.0737L109.746 75.2732L109.212 74.3659Z" fill="white"/>
<path d="M90.9594 71.5638L90.8259 75.6734L109.346 74.8729V74.2057C109.346 73.2717 109.613 71.1635 109.613 70.4964C107.638 69.429 104.062 68.8953 99.819 69.1621C96.003 69.5891 92.5605 70.4964 90.9594 71.5638Z" fill="white" stroke="black" stroke-miterlimit="10"/>
<path d="M101.153 44.6918C100.139 43.0372 97.3105 39.3546 91.5464 40.3954" stroke="black" stroke-miterlimit="10" stroke-linecap="round"/>
<path d="M96.1902 44.6441C94.6792 41.3219 88.8966 38.4306 83.6922 40.7437C83.1137 41.9003 89.0638 41.5408 91.7878 45.3699C97.1805 52.9502 88.8965 55.7787 91.2095 71.3919" stroke="black" stroke-miterlimit="10" stroke-linecap="round"/>
<path d="M105.396 45.225C103.688 41.5157 100.886 40.0747 97.0701 40.7151" stroke="black" stroke-miterlimit="10" stroke-linecap="round"/>
<path d="M111.214 55.5531C111.214 51.7103 109.106 43.1175 102.995 41.9167" stroke="black" stroke-miterlimit="10" stroke-linecap="round"/>
<path d="M109.61 70.5013C110.871 67.9223 114.34 53.4656 114.34 49.4177C114.081 48.2169 112.027 50.5742 110.871 52.309" stroke="black" stroke-miterlimit="10" stroke-linecap="round"/>
<path d="M93.2008 144.363L90.6924 75.941C92.4003 74.8736 96.5099 72.632 102.087 72.632C106.464 72.632 109.906 73.5126 111.747 74.7402C114.389 89.0437 121.274 124.776 124.05 139.053" fill="#FFFF00"/>
<path d="M101.42 72.632C99.7125 73.0323 97.711 73.8329 95.4694 75.007C94.2686 75.6742 93.2278 76.4748 92.2938 77.1152C92.1604 78.8231 92.027 80.5577 91.8935 82.1321C91.2264 94.034 92.1604 130.567 92.961 141.428C92.4273 127.925 91.1197 88.6168 90.5859 75.2472C91.9202 74.4467 93.7615 74.1798 96.0031 73.5127C98.1113 72.8989 99.9526 72.632 101.42 72.632Z" fill="white"/>
<path d="M92.934 144.363L90.4255 75.5408C90.4255 75.4074 90.4255 75.4074 90.559 75.274C91.6264 74.6068 95.7093 72.3652 102.061 72.3652C105.37 72.3652 108.812 73.0324 111.854 74.4734C111.988 74.4734 111.988 74.6068 111.988 74.7403L124.29 139.053" stroke="black" stroke-miterlimit="10"/>
<path d="M63.1531 24.784L83.7811 41.8629C83.7011 36.8193 82.2334 32.5496 79.4314 30.0145L66.9958 16.6449L63.1531 24.784Z" fill="#FFFF00" stroke="black" stroke-miterlimit="10"/>
<path d="M80.9255 31.5357L95.069 27.6129C96.2698 24.7041 101.554 13.843 104.062 10.9343C105.903 8.6927 110.413 8.02556 113.455 10.6674C115.163 12.2686 117.698 13.9765 120.741 15.6844C126.024 18.7265 130.534 18.0594 131.735 19.3937C133.203 21.7687 133.977 33.1635 134.244 37.5133C137.419 39.7549 141.662 43.0639 144.571 45.1988C145.238 45.7325 145.238 47.387 144.571 47.894C142.063 50.0022 131.095 47.7339 108.198 45.5991" stroke="black" stroke-miterlimit="10"/>
<path d="M58.6695 15.577C59.4701 15.577 60.1373 15.7105 60.9111 15.8439C64.3536 16.9113 66.9955 20.3538 68.3298 25.5041C69.6641 31.0548 69.3972 37.9397 67.3958 44.6912C65.6879 50.7755 62.619 56.2194 59.0698 60.1689C55.6274 63.8782 51.9181 65.853 48.609 65.853C47.8085 65.853 47.1413 65.7195 46.3674 65.5861C42.925 64.5187 40.2831 61.0762 38.9488 55.9259C37.6145 50.3752 37.8814 43.4903 39.8828 36.7388C41.5907 30.6545 44.6595 25.2106 48.2087 21.2611C51.6512 17.5785 55.3605 15.577 58.6695 15.577Z" fill="#FFFF00"/>
<path d="M63.2865 17.0447C62.6193 16.6445 59.844 15.8439 59.1769 15.577C59.0434 15.577 58.7766 15.577 58.6431 15.577C55.3341 15.577 51.6248 17.5518 48.1823 21.2611C44.6065 25.1038 41.5643 30.6545 39.8564 36.7388C38.0151 43.2234 37.6148 49.7081 38.6555 55.1253L40.3634 56.3262L41.4308 56.9933C38.9491 46.826 50.7175 17.8186 63.2865 17.0447Z" fill="white"/>
<path d="M51.918 66.5475C50.984 66.5475 50.2101 66.4141 49.4095 66.1472C41.4571 63.7722 38.2815 50.9364 42.2577 37.3C45.8336 25.1313 53.8927 16.6452 61.3113 16.6452C62.2453 16.6452 63.0192 16.7786 63.8198 17.0455C65.6611 17.5792 67.2623 18.7534 68.5965 20.2211C66.9954 17.0455 64.6204 14.8039 61.5782 13.8699C60.6442 13.603 59.7369 13.4696 58.8029 13.4696C50.7171 13.4696 41.8574 22.863 38.0147 36.0991C33.6382 50.9097 37.0807 64.9464 45.8336 67.5883C46.7676 67.8551 47.6749 67.9886 48.6089 67.9886C50.8505 67.9886 53.1188 67.3214 55.3604 66.0138C54.1596 66.2807 52.9854 66.5475 51.918 66.5475Z" fill="black"/>
<path d="M48.4758 68.255C47.5418 68.255 46.501 68.1215 45.567 67.8547C41.324 66.5204 38.0149 62.5709 36.5739 56.4599C35.1062 50.5089 35.3731 43.2237 37.5079 35.9385C41.3507 22.7024 50.2103 13.1756 58.563 13.1756C59.497 13.1756 60.5377 13.309 61.4717 13.5759C64.3805 14.5099 66.8889 16.7515 68.6235 20.0605C68.6235 20.1939 68.6235 20.3274 68.4901 20.4608C68.3566 20.5942 68.2232 20.4608 68.0898 20.4608C66.7555 18.8597 65.181 17.8189 63.4465 17.2852C62.6459 17.0183 61.8453 16.8849 60.938 16.8849C57.4955 16.8849 53.6528 18.8597 50.2103 22.569C46.7679 26.2783 43.8591 31.5621 42.1245 37.3796C40.2832 43.8642 39.8829 50.4823 41.1905 55.8995C42.5248 61.1832 45.3002 64.7591 49.0095 65.8266C50.8508 66.3603 52.7188 66.2268 54.827 65.5597C54.9604 65.5597 55.0938 65.5597 55.2272 65.6931C55.2272 65.8266 55.2272 65.96 55.0938 66.0934C53.1191 67.5878 50.7174 68.255 48.4758 68.255ZM58.6697 13.736C54.827 13.736 50.5839 15.9776 46.9013 19.9538C43.0585 24.0634 40.0164 29.7474 38.1751 36.0986C33.7986 50.8025 37.2411 64.6791 45.8606 67.2142C46.7946 67.4811 47.7019 67.6145 48.6359 67.6145C50.1036 67.6145 51.678 67.2142 53.2792 66.5471C51.9449 66.6805 50.6373 66.5471 49.4364 66.2802C45.4603 65.0794 42.5515 61.37 41.2172 55.9528C39.8829 50.5356 40.1498 43.7841 42.1512 37.1661C45.7271 24.9974 53.7862 16.2445 61.4717 16.2445C62.4057 16.2445 63.313 16.3779 64.1136 16.6447C65.3145 17.045 66.3552 17.5787 67.4226 18.3526C65.8215 16.2445 63.9802 14.6433 61.7386 13.9762C60.511 13.8694 59.6037 13.736 58.6697 13.736Z" fill="black"/>
<path d="M70.8382 24.8374C69.237 18.7531 66.0614 14.6434 61.7116 13.3092C60.7776 13.0423 59.7369 12.9089 58.8029 12.9089C50.3435 12.9089 41.3237 22.5691 37.481 35.9387C35.3728 43.2239 34.9725 50.5091 36.547 56.5934C38.1481 62.6778 41.3238 66.7874 45.6735 68.1217C46.6075 68.3885 47.6483 68.522 48.5823 68.522C57.0416 68.522 66.0614 58.8617 69.9042 45.4922C72.039 38.207 72.3059 30.9217 70.8382 24.8374ZM48.4755 65.3464C47.8084 65.3464 47.0078 65.2129 46.3674 65.0795C43.0583 64.1455 40.6833 60.8365 39.349 55.8195C38.0147 50.2689 38.2816 43.6508 40.283 36.8994C41.9909 30.9484 44.9263 25.5045 48.4755 21.6885C51.7846 18.1126 55.3604 16.1378 58.536 16.1378C59.2032 16.1378 60.0038 16.2713 60.6442 16.4047C63.9533 17.3387 66.3283 20.6477 67.6626 25.6647C68.9969 31.2153 68.73 37.8334 66.7286 44.5848C65.0207 50.5358 62.0852 55.9797 58.5094 59.7957C55.227 63.3716 51.6511 65.3464 48.4755 65.3464Z" fill="white"/>
<path d="M48.4756 68.7885C47.4082 68.7885 46.3675 68.6551 45.4335 68.3882C40.9236 67.0539 37.6145 62.971 36.0401 56.6198C34.5724 50.5355 34.8392 43.1168 37.1075 35.8316C41.0837 22.3286 50.2102 12.6684 58.6696 12.6684C59.737 12.6684 60.7778 12.8018 61.7118 13.0687C66.2217 14.403 69.5307 18.4859 71.1051 24.8371C72.5729 30.9214 72.306 38.3401 70.0377 45.6253C66.2217 58.9948 57.0684 68.7885 48.4756 68.7885ZM48.4756 65.6129C47.6751 65.6129 47.0079 65.4795 46.3675 65.3461C43.0584 64.4121 40.4165 60.9696 39.2157 55.9527C37.8814 50.402 38.1483 43.6505 40.1497 36.899C41.8576 30.8147 44.9264 25.3708 48.4756 21.5547C51.7847 17.9522 55.494 15.9774 58.6696 15.9774C59.4702 15.9774 60.1373 16.1109 60.7778 16.2443C64.0868 17.1783 66.7287 20.6207 67.9295 25.6377C69.2638 31.1883 68.997 37.9398 66.9955 44.6913C65.2876 50.7756 62.2188 56.2195 58.6696 60.0356C55.3606 63.6382 51.7847 65.6129 48.4756 65.6129Z" fill="white" stroke="black" stroke-miterlimit="10"/>
<path d="M25.3128 18.4868C25.98 18.4868 26.6471 18.6202 27.2876 18.7536C30.3297 19.6876 32.5714 22.5964 33.6388 27.0796C34.8396 31.9897 34.5728 37.8072 32.8382 43.7581C31.2371 49.0419 28.7286 53.8187 25.553 57.1277C22.6443 60.3033 19.3352 62.0379 16.5599 62.0379C15.8928 62.0379 15.2256 61.9044 14.5852 61.771C11.543 60.837 9.30139 57.9283 8.23396 53.4451C7.0331 48.5349 7.29996 42.7174 9.03453 36.7665C10.6357 31.4827 13.1441 26.706 16.3197 23.3969C19.2285 20.2213 22.4041 18.4868 25.3128 18.4868Z" fill="#FFFF00"/>
<path d="M29.022 19.5542C28.4883 19.1539 27.8212 18.887 27.3141 18.7536C26.647 18.6202 25.9798 18.4868 25.3394 18.4868C22.4306 18.4868 19.255 20.1946 16.3463 23.3969C13.1707 26.8394 10.6622 31.6161 9.06109 36.7665C7.3532 42.7174 7.08635 48.6683 8.26052 53.4451C9.19452 54.3791 10.2353 55.2864 11.1693 56.2204C9.56812 48.4015 16.5865 21.7958 29.022 19.5542Z" fill="white"/>
<path d="M19.4949 62.7047C18.6943 62.7047 18.0271 62.5713 17.2532 62.4379C10.3683 60.4631 7.59301 49.2017 11.0355 37.4333C14.0776 26.8391 21.2294 19.4205 27.5806 19.4205C28.3812 19.4205 29.0483 19.5539 29.8222 19.6873C31.4234 20.221 32.8644 21.155 33.9318 22.4626C32.4641 19.6873 30.4894 17.6859 27.8475 16.912C27.0469 16.6451 26.2463 16.5117 25.4725 16.5117C18.4274 16.5117 10.7419 24.5708 7.4329 36.0991C3.59015 48.9349 6.63232 61.237 14.1844 63.3719C14.985 63.6387 15.7855 63.7722 16.5594 63.7722C18.5342 63.7722 20.5356 63.105 22.3769 62.0643C21.3362 62.4379 20.4022 62.7047 19.4949 62.7047Z" fill="black"/>
<path d="M16.4529 64.1451C15.6523 64.1451 14.745 64.0117 13.9444 63.7448C10.2351 62.6774 7.45981 59.1015 6.12552 53.8177C4.79123 48.6674 5.19152 42.2895 6.92609 36.0717C10.3686 24.5435 18.054 16.2175 25.1791 16.2175C25.9797 16.2175 26.887 16.351 27.6876 16.6178C30.3295 17.4184 32.4643 19.3931 33.9054 22.3019C33.9054 22.4353 33.9054 22.5687 33.7719 22.7022C33.6385 22.8356 33.5051 22.7022 33.3717 22.7022C32.1708 21.3679 30.8632 20.4606 29.3955 19.9268C28.7283 19.66 27.9278 19.66 27.2873 19.66C24.2451 19.66 20.9361 21.3679 18.0274 24.5702C14.9852 27.8792 12.4767 32.3891 11.009 37.406C9.30112 43.0901 9.03427 48.8008 10.2084 53.4175C11.4093 58.0608 13.7843 61.103 16.9599 62.0103C18.5611 62.4106 20.269 62.4106 21.9768 61.8768C22.1103 61.8768 22.2437 61.8768 22.3771 62.0103C22.3771 62.1437 22.3771 62.2771 22.2437 62.4106C20.4024 63.6381 18.4276 64.1451 16.4529 64.1451ZM25.3126 16.9114C22.0035 16.9114 18.4276 18.8861 15.1186 22.3286C11.8096 25.9045 9.16769 30.7879 7.43312 36.3653C3.7238 49.0677 6.63255 61.103 14.0512 63.3712C14.8518 63.6381 15.6523 63.7715 16.4262 63.7715C17.6271 63.7715 18.9347 63.5047 20.1355 62.971C19.0681 63.1044 18.0274 62.971 16.9599 62.7041C13.5175 61.6367 11.009 58.4611 9.80815 53.711C8.60729 48.9343 8.87415 43.1168 10.6087 37.4327C13.6509 26.8385 20.8027 19.3131 27.4207 19.3131C28.2213 19.3131 29.0219 19.4465 29.6623 19.5799C30.5963 19.8468 31.5037 20.3805 32.3042 20.9142C30.9699 19.2063 29.3955 18.0055 27.5275 17.3383C26.887 17.0448 26.1131 16.9114 25.3126 16.9114Z" fill="black"/>
<path d="M34.7859 26.5722C33.4516 21.2884 30.5428 17.7125 26.7001 16.5117C25.8995 16.2448 24.9922 16.1114 24.0582 16.1114C16.6395 16.1114 8.84731 24.5708 5.53828 36.099C3.69697 42.4502 3.43011 48.8014 4.60428 54.1119C5.93857 59.3956 8.84731 62.9715 12.6901 64.1724C13.4906 64.4393 14.3979 64.5727 15.3319 64.5727C22.7506 64.5727 30.5428 56.1133 33.8519 44.5851C35.8533 38.0738 36.1201 31.7225 34.7859 26.5722ZM13.6241 61.3704C10.8487 60.5698 8.71388 57.6611 7.67314 53.418C6.47228 48.6413 6.73914 42.8238 8.47371 37.0063C10.0749 31.856 12.5833 27.0792 15.6255 23.7702C18.3741 20.7547 21.5764 19.0201 24.2183 19.0201C24.8854 19.0201 25.4192 19.1536 25.9262 19.287C28.7015 20.0876 30.8364 22.9963 31.8771 27.2393C33.078 32.0161 32.8111 37.8336 31.0765 43.6511C29.4754 48.8014 26.9669 53.5782 23.9248 56.8872C20.509 60.5698 16.7997 62.171 13.6241 61.3704Z" fill="white"/>
<path d="M15.3319 64.8131C14.3979 64.8131 13.4905 64.6797 12.69 64.4128C8.71379 63.212 5.80505 59.6361 4.47076 54.0854C3.13647 48.8017 3.40333 42.317 5.40476 35.9658C8.84722 24.1974 16.7996 15.7114 24.325 15.7114C25.259 15.7114 26.1663 15.8448 26.9668 16.1117C30.943 17.3125 33.8518 20.8884 35.1861 26.439C36.5203 31.7228 36.2535 38.2074 34.252 44.5586C30.8363 56.2203 22.8839 64.8131 15.3319 64.8131ZM15.3319 61.9044C14.6647 61.9044 14.131 61.7709 13.4905 61.6375C10.5818 60.8369 8.34019 57.9282 7.27276 53.4183C6.07191 48.6416 6.33876 42.6906 8.07334 36.8731C9.67448 31.7228 12.1829 26.9461 15.3585 23.5036C18.2673 20.328 21.4429 18.5934 24.2182 18.5934C24.8854 18.5934 25.4191 18.7269 26.0595 18.8603C28.9683 19.6609 31.2099 22.5696 32.2773 27.0795C33.4782 31.8562 33.2113 37.8072 31.4767 43.6246C29.8756 48.775 27.3671 53.5517 24.1915 56.9942C21.3095 60.1965 18.2673 61.9044 15.3319 61.9044Z" fill="white" stroke="black" stroke-miterlimit="10"/>
<path d="M136.939 64.7596V64.7329V64.7062C136.992 64.0658 136.512 63.532 135.978 63.1318C135.418 62.7315 134.644 62.3846 133.843 62.1177C133.043 61.8508 132.325 60.1653 131.604 60.0586C131.257 60.0052 130.801 61.4239 130.507 61.4239C130.241 61.3972 129.974 61.4239 129.787 61.4505L129.707 61.4772L129.654 61.5306C129.413 61.6907 129.253 61.8508 129.173 62.0376C129.066 62.2511 129.12 62.4112 129.147 62.4913C129.12 62.518 129.066 62.598 128.88 62.7315L128.746 62.8115L128.72 62.9716L127.812 71.0574L127.732 71.7513L128.319 71.3777C129.066 70.8973 129.84 70.4436 130.614 69.99C131.762 69.3228 132.856 68.6557 133.817 68.0152C134.617 67.4815 135.311 66.9745 135.845 66.4408C136.378 65.9071 136.805 65.3467 136.939 64.7596Z" fill="black" stroke="black"/>
<path d="M133.71 31.1889C128.56 29.0807 122.582 27.0793 115.83 25.238C109.346 23.5301 103.261 22.4627 97.8176 21.6621C96.6167 24.1706 95.576 26.4389 95.0422 27.4796C100.993 28.547 107.344 29.8546 114.096 31.5892C121.248 33.4305 127.999 35.432 134.217 37.5401C134.11 36.0991 133.843 33.7241 133.71 31.1889Z" fill="black"/>
<path d="M134.58 37.8525C127.828 35.6109 120.607 33.6974 113.856 31.9896C107.638 30.3884 101.153 28.6805 94.8022 27.4797C95.2025 26.4122 96.5834 24.1706 97.9177 21.5287C104.002 22.3293 110.013 23.5035 115.964 25.1046C122.048 26.7058 127.946 28.6805 133.763 31.0556C133.924 33.057 134.313 35.4775 134.58 37.8525Z" fill="black" stroke="black" stroke-miterlimit="10" stroke-linecap="round" stroke-linejoin="round"/>
<path d="M26.0862 48.6675C26.0862 49.6015 25.9528 50.5088 25.6859 51.3094C25.419 52.1099 24.8853 52.9105 24.3516 53.551C23.8179 54.2181 23.1508 54.8853 22.5103 55.3923C21.8432 55.926 20.9092 56.3263 20.0018 56.4597C20.0018 56.4597 20.0018 56.4597 19.8684 56.4597C20.1353 56.1929 20.5356 55.926 20.8024 55.6591C21.0693 55.3923 21.4696 55.1254 21.7364 54.7251C22.2701 54.058 22.8038 53.5243 23.3376 52.8838C23.8713 52.2167 24.2716 51.5495 24.8053 50.9091C25.0721 50.5088 25.2056 50.2419 25.4724 49.8417C25.6859 49.4681 25.8193 49.0678 26.0862 48.6675C26.0862 48.6675 25.9528 48.6675 26.0862 48.6675Z" fill="#FFFF00"/>
<path d="M62.112 48.4011C62.112 48.8014 62.2455 49.0682 62.2455 49.4685C62.2455 49.8688 62.2455 50.1357 62.2455 50.4025C62.2455 51.0697 62.112 51.7368 61.8452 52.2438C61.4449 53.4447 60.9112 54.6189 60.1373 55.6863C59.4701 56.7537 58.5361 57.661 57.4954 58.4616C56.9617 58.8619 56.428 59.2622 55.8943 59.529C55.6274 59.6625 55.3605 59.7959 54.9603 59.9293C54.6934 60.0627 54.2931 60.1962 54.0263 60.1962C54.0263 60.1962 53.8928 60.1962 53.8928 60.0627C53.8928 60.0627 53.8928 60.0627 53.8928 59.9293C54.2931 59.529 54.8268 59.1287 55.2271 58.595C55.6274 58.1947 56.0277 57.661 56.428 57.2607C57.2285 56.3267 58.0291 55.4194 58.6696 54.352C59.3367 53.418 60.0039 52.3773 60.5109 51.3098C60.7777 50.7761 61.0446 50.2424 61.3115 49.7087C61.5783 49.175 61.8452 48.6413 61.9786 48.0008C61.9786 48.2677 61.9786 48.2677 62.112 48.4011C62.112 48.2677 62.112 48.2677 62.112 48.4011Z" fill="white"/>
<path d="M65.2874 40.3423C65.5543 40.876 65.6877 41.2763 65.6877 41.6765C65.6877 42.0768 65.6877 42.4771 65.5543 42.744C65.4208 43.1443 65.2874 43.4111 65.0206 43.678C64.7537 43.9448 64.4868 44.2117 63.9531 44.4785L64.0866 43.9448L64.22 43.4111C64.3534 43.0108 64.4868 42.744 64.4868 42.3437C64.6203 41.9434 64.7537 41.6765 64.8871 41.2763L65.0206 40.7425L65.2874 40.3423C65.2874 40.2088 65.154 40.2088 65.2874 40.3423C65.2874 40.3423 65.2874 40.2088 65.2874 40.3423Z" fill="white"/>
<path d="M13.8693 46.1291C13.968 46.0125 14.0327 45.815 14.0525 45.6636C14.1984 44.5504 14.5387 43.0537 14.8908 41.3195C14.9362 41.0956 14.9756 40.8612 14.8994 40.6458C14.8906 40.6206 14.8807 40.596 14.8698 40.5723C14.7515 40.3145 14.4192 40.2807 14.144 40.2119L13.9053 40.1522C13.6301 40.0834 13.3339 40.0196 13.0767 40.1393C13.0538 40.15 13.0317 40.1617 13.0107 40.1742C12.8123 40.2934 12.8004 40.5632 12.7554 40.7903C12.4254 42.4577 12.1876 43.9409 11.9581 45.1224C11.9137 45.3511 11.8586 45.5999 11.9756 45.8014C12.0291 45.8936 12.1103 45.9773 12.2267 46.0454C12.3506 46.1178 12.4953 46.1419 12.6377 46.1597L12.984 46.203C13.3098 46.2437 13.6574 46.3798 13.8693 46.1291Z" fill="black"/>
<path d="M26.0596 27.8795C23.248 33.7608 21.6581 42.6091 20.9766 46.5434C20.9316 46.8034 20.8702 47.0901 21.0196 47.3076C21.0318 47.3253 21.0452 47.3428 21.0597 47.3597C21.2578 47.5911 21.5952 47.6193 21.8975 47.6571L22.5104 47.7337C22.5384 47.7337 22.5664 47.7322 22.5943 47.7293C23.0791 47.6781 23.2131 47.0879 23.2901 46.6065C23.9263 42.6253 25.5843 34.1459 28.0877 28.8135C28.2212 28.5466 28.0877 28.1464 27.8209 28.0129L26.7534 27.6126C26.4599 27.4792 26.193 27.6126 26.0596 27.8795Z" fill="black"/>
<path d="M18.6745 36.2823C18.4108 36.4468 18.3327 36.7841 18.2544 37.0849C17.3286 40.6392 16.8247 43.8355 16.4692 45.8925C16.4231 46.1592 16.3585 46.4554 16.5155 46.6759C16.526 46.6907 16.5374 46.7053 16.5496 46.7196C16.7478 46.951 17.0852 46.9791 17.3875 47.0169L18.0004 47.0935C18.1516 47.0935 18.3028 47.0507 18.4297 46.9408C18.6581 46.7429 18.6857 46.4093 18.7275 46.11C19.0159 44.0427 19.6258 40.8646 20.5379 37.5424C20.6066 37.2922 20.7368 37.0176 20.6215 36.7852C20.4728 36.4854 20.0778 36.4583 19.7532 36.3771L19.1745 36.2325C18.9745 36.1658 18.8079 36.199 18.6745 36.2823Z" fill="black"/>
<path d="M61.1781 28.013C58.5362 32.2561 55.494 40.0483 53.7594 44.2913C53.2257 42.5834 52.692 39.648 52.5586 37.273C52.5586 37.1095 52.5085 36.9961 52.4084 36.9021C52.2631 36.7657 52.0623 36.7105 51.8715 36.6532L51.1108 36.425C50.92 36.3678 50.7292 36.2573 50.5333 36.2939C50.4517 36.3092 50.3754 36.348 50.3092 36.4055C50.1819 36.516 50.109 36.6736 50.014 36.8129C47.2823 40.8168 44.4545 47.5099 43.4054 49.9754C43.3599 50.1118 43.3609 50.2327 43.3925 50.338C43.5102 50.7301 44.0139 50.7991 44.4207 50.8443L45.0065 50.9094C45.0099 50.9094 45.0132 50.9094 45.0166 50.9093C45.5007 50.9032 45.6415 50.281 45.8345 49.837C46.8313 47.543 48.5209 43.5598 50.4504 40.4486C50.8507 43.0905 51.9181 46.1326 52.5586 47.6004C52.5748 47.6375 52.6005 47.6758 52.6314 47.7133C52.8146 47.9364 53.1035 48.0328 53.3853 48.0954L53.664 48.1573C53.9935 48.2306 54.367 48.3168 54.6319 48.1077C54.7105 48.0456 54.7777 47.9655 54.8269 47.8672C56.0277 44.5582 60.1106 33.9639 63.0461 29.2139C63.1795 28.947 63.1795 28.6802 62.9126 28.4133C62.6458 28.1465 62.4257 27.9063 61.9786 27.7462C61.5751 27.6016 61.3115 27.7462 61.1781 28.013Z" fill="black"/>
<path d="M60.3778 48.0008C60.6091 50.2793 60.8214 52.7421 59.4051 55.2005C57.74 58.0908 54.779 59.2483 52.292 59.9292C52.6923 59.529 53.226 59.1287 53.6263 58.595C54.0266 58.1947 54.4269 57.661 54.8271 57.2607C55.6277 56.3267 56.4283 55.4194 57.0687 54.3519C57.7359 53.4179 58.403 52.3772 58.9101 51.3098C59.1769 50.776 59.4438 50.2423 59.7106 49.7086C59.9775 49.1749 60.2443 48.6413 60.3778 48.0008Z" fill="#FFFF00"/>
<path d="M63.6863 40.3421C63.9532 40.8758 64.0866 41.2761 64.0866 41.6764C64.0866 42.0767 64.0866 42.477 63.9532 42.7438C63.8198 43.1441 63.6863 43.411 63.4195 43.6778C63.1526 43.9447 62.8858 44.2115 62.3521 44.4784C62.4855 44.0781 63.5529 40.7424 63.6863 40.3421Z" fill="#FFFF00"/>
</g>
</svg>
