<svg width="930" height="165" fill="none" xmlns="http://www.w3.org/2000/svg"><g clip-path="url(#a)"><g clip-path="url(#b)"><path d="M56.86 66.624c0-.472-.258-.72-.716-.72h-3.05c-.469 0-.715.259-.715.72v1.45c0 .473.257.619.715.72l3.944.855c1.654.36 3.05 1.36 3.05 3.07v2.766c0 1.787-1.229 3.024-3.005 3.024h-4.748c-1.777 0-3.005-1.237-3.005-3.024v-1.957h2.96v1.36c0 .473.257.72.715.72h3.307c.47 0 .715-.258.715-.72V73.27c0-.472-.257-.618-.715-.72l-3.944-.854c-1.653-.36-3.05-1.36-3.05-3.07v-2.597c0-1.788 1.23-3.025 3.006-3.025h4.49c1.777 0 3.006 1.237 3.006 3.025v1.788h-2.96v-1.192ZM72.12 63.082v2.901h-6.927v3.148h5.609v2.902h-5.609v3.497h6.927v2.9h-9.976V63.083h9.976ZM76.566 78.42h-3.15l4.916-15.338h3.552L86.8 78.419h-3.285l-.994-3.452h-4.938l-1.017 3.452Zm1.866-6.343h3.262l-1.609-5.622-1.653 5.623ZM96.385 78.42l-2.457-5.69H91.47v5.69h-3.05V63.081h7.775c1.777 0 3.006 1.237 3.006 3.025v3.598c0 1.45-.805 2.53-2.078 2.901l2.536 5.813h-3.274Zm-.234-11.717c0-.473-.257-.72-.715-.72H91.48v3.902h3.955c.469 0 .715-.259.715-.72v-2.462ZM108.931 66.624c0-.472-.257-.72-.715-.72h-3.307c-.469 0-.715.259-.715.72v8.265c0 .472.257.72.715.72h3.307c.469 0 .715-.26.715-.72V73.01h3.05v2.474c0 1.787-1.229 3.024-3.005 3.024h-4.826c-1.777 0-3.005-1.237-3.005-3.024v-9.457c0-1.788 1.228-3.025 3.005-3.025h4.826c1.776 0 3.005 1.237 3.005 3.025v2.474h-3.05v-1.878ZM113.959 63.082h3.05v6.05h5.251v-6.05h3.05v15.337h-3.05v-6.398h-5.251v6.398h-3.05V63.082ZM47.05 96.86H43.9l4.916-15.348h3.553l4.915 15.348H54l-.995-3.452h-4.938l-1.016 3.452Zm1.867-6.341h3.262l-1.61-5.623-1.653 5.623ZM68.199 96.86l-2.503-10.097-2.502 10.097h-3.005L56.4 81.523h3.262l2.079 11.21 2.748-11.21h2.413l2.748 11.21 2.078-11.21h3.14L71.08 96.872H68.2v-.012ZM77.16 96.86h-3.151l4.915-15.348h3.553l4.916 15.348h-3.285l-.994-3.452h-4.938l-1.017 3.452Zm1.865-6.341h3.262l-1.609-5.623-1.653 5.623ZM96.977 96.86l-2.458-5.69h-2.457v5.69h-3.05V81.523h7.775c1.777 0 3.005 1.237 3.005 3.025v3.598c0 1.45-.804 2.53-2.078 2.901l2.537 5.813h-3.274Zm-.234-11.716c0-.473-.257-.72-.715-.72h-3.955v3.902h3.955c.469 0 .715-.259.715-.72v-2.462ZM110.082 81.523c1.776 0 3.005 1.237 3.005 3.025v9.288c0 1.788-1.229 3.024-3.005 3.024h-7.943V81.523h7.943Zm-.76 12.448c.469 0 .715-.259.715-.72v-8.096c0-.472-.257-.72-.715-.72h-4.133v9.547h4.133v-.011ZM122.527 85.054c0-.472-.257-.72-.715-.72h-3.05c-.469 0-.715.259-.715.72v1.45c0 .473.257.619.715.72l3.944.855c1.653.36 3.05 1.36 3.05 3.07v2.765c0 1.788-1.229 3.025-3.005 3.025h-4.748c-1.777 0-3.006-1.237-3.006-3.025v-1.956h2.961v1.372c0 .472.257.72.715.72h3.307c.469 0 .715-.26.715-.72v-1.62c0-.472-.257-.618-.715-.72l-3.944-.854c-1.653-.36-3.05-1.36-3.05-3.07V84.47c0-1.788 1.229-3.025 3.006-3.025h4.491c1.776 0 3.005 1.237 3.005 3.025v1.788h-2.961v-1.203Z" fill="#fff"/><path d="M51.525 59.806c-1.782 0-3.03-1.224-3.03-2.972v-9.268c0-1.749 1.248-2.973 3.03-2.973h2.14v2.798h-1.427c-.535 0-.713.175-.713.7v8.218c0 .525.178.7.713.7h1.426v2.797h-2.139Z" fill="#C6A75C"/><path fill-rule="evenodd" clip-rule="evenodd" d="M55.803 57.009c.535 0 .713-.175.713-.7v-2.273h-2.852v-2.798h5.882v5.596c0 1.748-1.248 2.972-3.03 2.972h-2.139V57.01h1.426Z" fill="#C6A75C"/><path d="M56.516 44.593c1.782 0 3.03 1.224 3.03 2.973v1.923h-3.03v-1.398c0-.525-.178-.7-.713-.7h-1.426v-2.798h2.139ZM65.606 44.592V59.63h-3.03V44.592h3.03Zm6.417 15.038H66.14v-2.797h5.882v2.797ZM77.548 47.39c-.535 0-.713.175-.713.7v8.218c0 .525.178.7.713.7h1.426v2.797h-2.317c-1.782 0-3.03-1.224-3.03-2.972v-9.268c0-1.749 1.248-2.973 3.03-2.973h2.317v2.798h-1.426Zm4.278-2.798c1.782 0 3.03 1.224 3.03 2.973v9.268c0 1.748-1.248 2.972-3.03 2.972h-2.317v-2.798h1.426c.535 0 .713-.174.713-.7V48.09c0-.524-.178-.7-.713-.7h-1.426v-2.797h2.317ZM87.887 44.593h3.03v15.038h-3.03V44.593Zm7.842 0c1.783 0 3.03 1.224 3.03 2.973v2.098c0 .874-.356 1.749-1.425 2.273 1.069.525 1.604 1.4 1.604 2.274v2.448c0 1.748-1.248 2.972-3.03 2.972H91.45v-2.797h3.565c.535 0 .713-.175.713-.7v-2.098c0-.7-.356-.7-1.07-.7h-3.208v-2.623h3.209c.535 0 .713-.175.713-.7v-1.748c0-.524-.178-.7-.713-.7H91.45v-2.972h4.278ZM105.176 44.593l1.426 4.547-3.208 10.492h-3.208l4.99-15.039Zm4.278 11.716h-4.456l.891-2.798h2.674l-2.674-8.918h2.852l4.991 15.038h-3.387l-.891-3.322ZM118.9 44.593v15.038h-3.03V44.593h3.03Zm6.417 15.038h-5.882v-2.797h5.882v2.797ZM87.678 115.24h-5.06v-5.162c0-1.709 1.44-2.518 3.05-3.069l3.641-1.282c.547-.191.85-.304.85-.855v-1.327c0-.551-.303-.854-.85-.854h-.994V99.79h1.843c1.698 0 3.05 1.36 3.05 3.069v2.688c0 1.709-1.441 2.519-3.05 3.07l-3.642 1.281c-.547.192-.849.304-.849.855v1.574h2.011v2.913Zm-4.882-12.358a3.043 3.043 0 0 1 3.05-3.07h1.843v2.901h-1.083c-.548 0-.85.304-.85.855v.978h-2.96v-1.664Zm5.519 12.358v-2.902h4.938v2.902h-4.938ZM98.783 102.713c-.47 0-.715.259-.715.72v8.264c0 .473.257.72.715.72h1.296v2.901h-2.067c-1.776 0-3.005-1.237-3.005-3.025v-9.456c0-1.788 1.229-3.025 3.005-3.025h2.056v2.901h-1.285Zm3.999-2.901c1.777 0 3.006 1.237 3.006 3.025v9.456c0 1.788-1.229 3.025-3.006 3.025h-2.078v-2.901h1.319c.469 0 .715-.259.715-.72v-8.264c0-.473-.257-.72-.715-.72h-1.319v-2.901h2.078ZM112.569 115.24h-5.061v-5.162c0-1.709 1.441-2.518 3.05-3.069l3.642-1.282c.547-.191.849-.304.849-.855v-1.327c0-.551-.302-.854-.849-.854h-.995V99.79h1.844c1.698 0 3.05 1.36 3.05 3.069v2.688c0 1.709-1.442 2.519-3.05 3.07l-3.642 1.281c-.548.192-.849.304-.849.855v1.574h2.011v2.913Zm-4.882-12.358a3.042 3.042 0 0 1 3.049-3.07h1.844v2.901h-1.084c-.547 0-.849.304-.849.855v.978h-2.96v-1.664Zm5.518 12.358v-2.902h4.938v2.902h-4.938ZM122.259 103.096l-2.771.978v-2.552l3.408-1.62h2.413v15.349h-3.05v-12.155Z" fill="#C6A75C"/><path d="M96.045 164.19s-9.032-10.997-30.12-14.573c-20.527-4.79-45.36-24.817-51.727-52.94-7.378-27.852 5.04-56.975 20.92-70.592C50.887 11.793 65.666 9.578 65.373 9.387c.36.427-14.295 2.98-29.67 17.328C20.204 40.41 8.406 69.15 15.885 96.262c6.501 27.38 30.807 46.552 50.67 51.005a68.712 68.712 0 0 1 12.709 3.193c14.014 4.97 19.401 11.38 19.401 11.38l-2.62 2.35Z" fill="#FFE84D"/><path d="M73.955 164.19s9.031-10.997 30.12-14.573c20.526-4.79 45.349-24.817 51.726-52.94 7.378-27.852-5.039-56.975-20.92-70.592-15.769-14.292-30.548-16.507-30.244-16.698-.36.427 14.295 2.98 29.659 17.328 15.499 13.695 27.297 42.436 19.818 69.547-6.501 27.38-30.818 46.552-50.669 51.005a68.71 68.71 0 0 0-12.71 3.193c-14.014 4.97-19.401 11.38-19.401 11.38l2.62 2.35ZM59.85 132.222s5.748 1.979 7.649 6.555c2.384 5.724 1.35 10.525 1.35 10.525s-5.759-2.991-7.682-6.094c-2.71-4.363-1.316-10.986-1.316-10.986ZM49.762 157.387s5.815 1.788 10.055-.798c5.297-3.228 7.288-7.714 7.288-7.714s-6.422-.967-9.808.405c-4.757 1.934-7.535 8.107-7.535 8.107ZM50.898 127.285s5.207 2.89 6.265 7.635c1.327 5.937-.484 10.39-.484 10.39s-5.05-3.868-6.377-7.196c-1.867-4.678.596-10.829.596-10.829ZM36.884 149.853s5.309 2.71 9.841.933c5.657-2.215 8.346-6.207 8.346-6.207s-6.029-2.024-9.538-1.27c-4.926 1.057-8.65 6.544-8.65 6.544ZM42.868 120.876s4.532 3.677 4.746 8.434c.27 5.948-2.238 9.94-2.238 9.94s-4.218-4.588-4.926-8.029c-1.013-4.824 2.418-10.345 2.418-10.345ZM25.502 140.273s4.656 3.519 9.335 2.575c5.837-1.181 9.11-4.565 9.11-4.565s-5.477-2.98-8.986-2.856c-4.926.191-9.459 4.846-9.459 4.846ZM36.051 113.106s3.757 4.318 3.15 8.951c-.754 5.791-3.847 9.209-3.847 9.209s-3.284-5.15-3.397-8.591c-.157-4.824 4.094-9.569 4.094-9.569ZM15.986 128.871s3.903 4.183 8.57 4.07c5.838-.146 9.572-2.856 9.572-2.856s-4.78-3.812-8.188-4.284c-4.791-.663-9.954 3.07-9.954 3.07ZM30.643 104.291s2.89 4.801 1.518 9.175c-1.71 5.454-5.286 8.242-5.286 8.242s-2.295-5.521-1.811-8.86c.664-4.701 5.579-8.557 5.579-8.557ZM8.598 116.097s3.048 4.701 7.58 5.387c5.658.854 9.718-1.136 9.718-1.136s-3.96-4.487-7.176-5.521c-4.51-1.451-10.122 1.27-10.122 1.27ZM26.907 94.722s1.969 5.127-.1 9.108c-2.576 4.981-6.502 7.05-6.502 7.05s-1.27-5.724-.247-8.861c1.45-4.408 6.85-7.297 6.85-7.297ZM3.626 102.357s2.137 5.06 6.388 6.488c5.31 1.788 9.572.562 9.572.562s-3.06-5.004-5.984-6.556c-4.094-2.159-9.976-.494-9.976-.494ZM24.85 84.68s1.023 5.285-1.642 8.77c-3.34 4.364-7.48 5.702-7.48 5.702s-.258-5.746 1.282-8.602c2.137-4.003 7.84-5.87 7.84-5.87ZM1.084 88.087s1.203 5.251 5.061 7.354c4.825 2.631 9.144 2.17 9.144 2.17s-2.103-5.352-4.656-7.342c-3.588-2.789-9.549-2.182-9.549-2.182ZM24.568 74.38s.09 5.274-3.082 8.186c-3.97 3.643-8.176 4.228-8.176 4.228s.73-5.577 2.699-8.085c2.733-3.497 8.56-4.329 8.56-4.329ZM1.04 73.627s.269 5.273 3.643 7.96c4.207 3.363 8.458 3.655 8.458 3.655s-1.113-5.52-3.24-7.87C6.9 74.053 1.04 73.626 1.04 73.626ZM26.042 63.855s-.81 5.105-4.364 7.377c-4.443 2.845-8.616 2.687-8.616 2.687s1.654-5.262 3.982-7.342c3.24-2.913 8.998-2.721 8.998-2.721ZM3.469 59.121s-.642 5.128 2.159 8.299c3.487 3.958 7.536 4.97 7.536 4.97s-.135-5.521-1.789-8.152c-2.328-3.7-7.906-5.117-7.906-5.117ZM29.337 53.59s-1.642 4.79-5.466 6.375c-4.78 1.99-8.773 1.124-8.773 1.124s2.496-4.801 5.083-6.41c3.633-2.248 9.156-1.09 9.156-1.09ZM8.36 45.178s-1.484 4.847.676 8.377c2.7 4.408 6.433 6.072 6.433 6.072s.81-5.352-.337-8.174c-1.62-3.958-6.771-6.275-6.771-6.275ZM34.432 44.065s-2.407 4.34-6.366 5.229c-4.95 1.102-8.66-.405-8.66-.405s3.227-4.205 5.994-5.319c3.892-1.563 9.032.495 9.032.495ZM15.615 32.382s-2.26 4.42-.776 8.197c1.845 4.723 5.174 6.96 5.174 6.96s1.687-5.026 1.057-7.95c-.877-4.103-5.455-7.207-5.455-7.207ZM41.158 35.587s-3.06 3.778-7.04 3.958c-4.96.225-8.29-1.867-8.29-1.867s3.835-3.508 6.692-4.115c4.027-.833 8.638 2.024 8.638 2.024ZM24.985 21.115s-2.936 3.88-2.149 7.781c.979 4.869 3.813 7.59 3.813 7.59s2.486-4.565 2.373-7.489c-.157-4.104-4.037-7.882-4.037-7.882ZM49.188 28.48s-3.599 3.126-7.468 2.62c-4.825-.63-7.682-3.205-7.682-3.205s4.297-2.732 7.165-2.833c4.015-.124 7.985 3.418 7.985 3.418ZM36.04 11.76s-3.498 3.25-3.396 7.14c.112 4.869 2.384 7.972 2.384 7.972s3.183-3.98 3.577-6.825c.54-3.98-2.565-8.288-2.565-8.288ZM58.277 22.914s-4.004 2.406-7.648 1.26c-4.555-1.429-6.872-4.397-6.872-4.397s4.611-1.912 7.4-1.507c3.892.562 7.12 4.644 7.12 4.644ZM48.435 4.54s-3.925 2.542-4.499 6.32c-.72 4.711.945 8.107.945 8.107s3.745-3.306 4.6-5.982c1.215-3.755-1.046-8.444-1.046-8.444ZM68.028 19.057s-4.275 1.642-7.604-.078c-4.15-2.148-5.882-5.42-5.882-5.42s4.769-1.057 7.4-.203c3.679 1.203 6.086 5.701 6.086 5.701ZM61.661-.35s-4.217 1.787-5.41 5.33c-1.495 4.43-.472 7.983-.472 7.983s4.184-2.553 5.466-4.982c1.8-3.418.416-8.332.416-8.332ZM61.842 10.58s3.16 1.787 5.96.82c3.499-1.203 5.23-3.565 5.23-3.565s-3.61-1.383-5.769-1.023c-3.003.529-5.421 3.767-5.421 3.767Z" fill="#FFE84D"/><path d="M110.149 132.222s-5.747 1.979-7.648 6.555c-2.385 5.724-1.35 10.525-1.35 10.525s5.759-2.991 7.682-6.094c2.711-4.363 1.316-10.986 1.316-10.986ZM120.238 157.387s-5.815 1.788-10.055-.799c-5.286-3.227-7.288-7.713-7.288-7.713s6.422-.967 9.807.404c4.758 1.935 7.536 8.108 7.536 8.108ZM119.102 127.285s-5.219 2.89-6.276 7.635c-1.327 5.937.484 10.39.484 10.39s5.05-3.868 6.377-7.196c1.878-4.678-.585-10.829-.585-10.829ZM133.117 149.853s-5.309 2.71-9.842.933c-5.657-2.215-8.345-6.207-8.345-6.207s6.028-2.024 9.537-1.27c4.915 1.057 8.65 6.544 8.65 6.544ZM127.132 120.876s-4.533 3.677-4.746 8.434c-.27 5.948 2.238 9.94 2.238 9.94s4.217-4.588 4.937-8.029c1.001-4.824-2.429-10.345-2.429-10.345ZM144.497 140.273s-4.656 3.519-9.335 2.575c-5.837-1.181-9.11-4.565-9.11-4.565s5.477-2.98 8.986-2.856c4.927.191 9.459 4.846 9.459 4.846ZM133.948 113.106s-3.756 4.318-3.149 8.951c.753 5.791 3.846 9.209 3.846 9.209s3.285-5.15 3.397-8.591c.158-4.824-4.094-9.569-4.094-9.569ZM154.013 128.871s-3.903 4.183-8.57 4.07c-5.838-.146-9.572-2.856-9.572-2.856s4.78-3.812 8.188-4.284c4.78-.664 9.954 3.07 9.954 3.07ZM139.358 104.29s-2.891 4.802-1.519 9.176c1.71 5.454 5.287 8.242 5.287 8.242s2.294-5.521 1.81-8.86c-.663-4.701-5.578-8.558-5.578-8.558ZM161.402 116.097s-3.048 4.701-7.581 5.387c-5.657.854-9.717-1.136-9.717-1.136s3.959-4.487 7.175-5.521c4.51-1.451 10.123 1.27 10.123 1.27ZM143.092 94.722s-1.969 5.127.101 9.108c2.575 4.981 6.501 7.05 6.501 7.05s1.271-5.724.247-8.861c-1.451-4.408-6.849-7.297-6.849-7.297ZM166.373 102.357s-2.137 5.06-6.399 6.488c-5.32 1.788-9.572.562-9.572.562s3.06-5.004 5.973-6.556c4.116-2.159 9.998-.494 9.998-.494ZM145.15 84.68s-1.023 5.285 1.642 8.77c3.341 4.364 7.48 5.702 7.48 5.702s.258-5.746-1.271-8.602c-2.149-4.003-7.851-5.87-7.851-5.87ZM168.926 88.087s-1.203 5.251-5.072 7.354c-4.825 2.631-9.144 2.17-9.144 2.17s2.103-5.352 4.656-7.342c3.588-2.789 9.56-2.182 9.56-2.182ZM145.431 74.38s-.09 5.274 3.082 8.186c3.959 3.643 8.176 4.228 8.176 4.228s-.731-5.577-2.699-8.085c-2.744-3.497-8.559-4.329-8.559-4.329ZM168.96 73.627s-.27 5.273-3.633 7.96c-4.206 3.363-8.458 3.655-8.458 3.655s1.114-5.52 3.239-7.87c2.992-3.318 8.852-3.745 8.852-3.745ZM143.958 63.855s.81 5.105 4.364 7.377c4.443 2.845 8.615 2.687 8.615 2.687s-1.653-5.262-3.981-7.342c-3.239-2.913-8.998-2.721-8.998-2.721ZM166.531 59.121s.641 5.128-2.159 8.299c-3.487 3.958-7.536 4.97-7.536 4.97s.135-5.521 1.788-8.152c2.328-3.7 7.907-5.117 7.907-5.117ZM140.662 53.59s1.653 4.79 5.478 6.375c4.78 1.99 8.772 1.124 8.772 1.124s-2.497-4.801-5.083-6.41c-3.644-2.248-9.167-1.09-9.167-1.09ZM161.639 45.178s1.484 4.847-.675 8.377c-2.7 4.408-6.434 6.072-6.434 6.072s-.809-5.352.338-8.174c1.619-3.958 6.771-6.275 6.771-6.275ZM135.567 44.065s2.407 4.34 6.366 5.229c4.949 1.102 8.661-.405 8.661-.405s-3.228-4.205-5.995-5.319c-3.903-1.563-9.032.495-9.032.495ZM154.384 32.382s2.261 4.42.788 8.198c-1.845 4.722-5.174 6.96-5.174 6.96s-1.687-5.026-1.057-7.95c.866-4.104 5.443-7.208 5.443-7.208ZM128.842 35.587s3.059 3.778 7.029 3.958c4.96.225 8.29-1.867 8.29-1.867s-3.836-3.508-6.693-4.115c-4.015-.833-8.626 2.024-8.626 2.024ZM145.015 21.115s2.935 3.88 2.148 7.781c-.978 4.869-3.813 7.59-3.813 7.59s-2.485-4.565-2.384-7.489c.169-4.104 4.049-7.882 4.049-7.882ZM120.812 28.48s3.599 3.126 7.468 2.62c4.825-.63 7.682-3.205 7.682-3.205s-4.297-2.732-7.165-2.833c-4.026-.124-7.985 3.418-7.985 3.418ZM133.96 11.76s3.497 3.25 3.396 7.14c-.112 4.869-2.384 7.972-2.384 7.972s-3.183-3.98-3.566-6.825c-.551-3.98 2.554-8.288 2.554-8.288ZM111.724 22.914s4.004 2.406 7.648 1.26c4.555-1.429 6.872-4.397 6.872-4.397s-4.612-1.912-7.401-1.507c-3.903.562-7.119 4.644-7.119 4.644ZM121.565 4.54s3.925 2.542 4.499 6.32c.719 4.711-.945 8.107-.945 8.107s-3.745-3.306-4.6-5.982c-1.215-3.756 1.046-8.444 1.046-8.444ZM101.972 19.057s4.285 1.642 7.603-.078c4.15-2.148 5.882-5.42 5.882-5.42s-4.769-1.057-7.389-.203c-3.689 1.203-6.096 5.701-6.096 5.701ZM108.337-.35s4.229 1.787 5.422 5.33c1.484 4.43.472 7.983.472 7.983s-4.173-2.553-5.466-4.982c-1.811-3.418-.428-8.332-.428-8.332ZM108.147 10.58s-3.16 1.787-5.961.82c-3.498-1.203-5.23-3.565-5.23-3.565s3.622-1.383 5.77-1.023c3.014.529 5.421 3.767 5.421 3.767ZM286.045 164.54s-9.032-10.997-30.121-14.572c-20.526-4.791-45.36-24.817-51.726-52.94-7.378-27.852 5.039-56.975 20.92-70.592 15.769-14.292 30.548-16.507 30.255-16.698.36.427-14.295 2.98-29.67 17.327-15.499 13.696-27.297 42.437-19.818 69.547 6.501 27.381 30.807 46.553 50.669 51.005a68.716 68.716 0 0 1 12.71 3.194c14.014 4.97 19.401 11.379 19.401 11.379l-2.62 2.35Z" fill="#FFE84D"/><path d="M263.955 164.54s9.031-10.997 30.12-14.572c20.526-4.791 45.349-24.817 51.726-52.94 7.378-27.852-5.039-56.975-20.92-70.592-15.769-14.292-30.548-16.507-30.244-16.698-.36.427 14.295 2.98 29.659 17.327 15.499 13.696 27.297 42.437 19.818 69.547-6.501 27.381-30.818 46.553-50.669 51.005a68.684 68.684 0 0 0-12.709 3.194c-14.015 4.97-19.402 11.379-19.402 11.379l2.621 2.35ZM249.851 132.572s5.747 1.979 7.648 6.556c2.384 5.723 1.35 10.525 1.35 10.525s-5.759-2.991-7.682-6.095c-2.711-4.363-1.316-10.986-1.316-10.986ZM239.762 157.737s5.815 1.788 10.055-.798c5.297-3.227 7.288-7.714 7.288-7.714s-6.422-.967-9.808.405c-4.757 1.934-7.535 8.107-7.535 8.107ZM240.898 127.636s5.207 2.89 6.265 7.635c1.327 5.937-.484 10.39-.484 10.39s-5.05-3.868-6.377-7.197c-1.867-4.677.596-10.828.596-10.828ZM226.884 150.204s5.308 2.71 9.841.933c5.658-2.215 8.346-6.207 8.346-6.207s-6.029-2.024-9.538-1.271c-4.926 1.057-8.649 6.545-8.649 6.545ZM232.868 121.227s4.532 3.677 4.746 8.433c.27 5.949-2.238 9.94-2.238 9.94s-4.218-4.587-4.926-8.028c-1.013-4.824 2.418-10.345 2.418-10.345ZM215.502 140.624s4.656 3.519 9.335 2.575c5.837-1.181 9.11-4.566 9.11-4.566s-5.477-2.98-8.986-2.856c-4.926.191-9.459 4.847-9.459 4.847ZM226.051 113.457s3.757 4.317 3.15 8.95c-.754 5.791-3.847 9.209-3.847 9.209s-3.284-5.15-3.397-8.59c-.157-4.824 4.094-9.569 4.094-9.569ZM205.986 129.221s3.903 4.183 8.571 4.071c5.837-.146 9.571-2.856 9.571-2.856s-4.78-3.812-8.188-4.284c-4.791-.664-9.954 3.069-9.954 3.069ZM220.643 104.641s2.89 4.802 1.518 9.176c-1.71 5.453-5.286 8.242-5.286 8.242s-2.295-5.521-1.811-8.861c.664-4.7 5.579-8.557 5.579-8.557ZM198.598 116.448s3.048 4.7 7.58 5.386c5.658.855 9.718-1.136 9.718-1.136s-3.959-4.486-7.176-5.521c-4.51-1.45-10.122 1.271-10.122 1.271ZM216.907 95.072s1.969 5.128-.101 9.108c-2.576 4.981-6.501 7.05-6.501 7.05s-1.271-5.723-.247-8.86c1.451-4.408 6.849-7.298 6.849-7.298ZM193.626 102.707s2.137 5.06 6.388 6.488c5.309 1.788 9.572.562 9.572.562s-3.059-5.003-5.984-6.555c-4.094-2.159-9.976-.495-9.976-.495ZM214.85 85.03s1.023 5.286-1.642 8.772c-3.341 4.362-7.48 5.7-7.48 5.7s-.258-5.745 1.282-8.602c2.137-4.003 7.84-5.87 7.84-5.87ZM191.084 88.438s1.203 5.251 5.061 7.354c4.825 2.631 9.144 2.17 9.144 2.17s-2.103-5.352-4.656-7.343c-3.588-2.788-9.549-2.181-9.549-2.181ZM214.568 74.73s.09 5.274-3.082 8.187c-3.97 3.643-8.176 4.228-8.176 4.228s.731-5.578 2.699-8.085c2.733-3.497 8.559-4.33 8.559-4.33ZM191.039 73.977s.27 5.274 3.644 7.962c4.207 3.362 8.458 3.654 8.458 3.654s-1.113-5.521-3.239-7.871c-3.003-3.317-8.863-3.745-8.863-3.745ZM216.042 64.206s-.81 5.105-4.364 7.376c-4.443 2.845-8.616 2.688-8.616 2.688s1.654-5.263 3.982-7.343c3.239-2.912 8.998-2.72 8.998-2.72ZM193.469 59.472s-.642 5.128 2.159 8.298c3.487 3.959 7.536 4.97 7.536 4.97s-.135-5.52-1.789-8.152c-2.328-3.7-7.906-5.116-7.906-5.116ZM219.337 53.94s-1.642 4.79-5.466 6.375c-4.781 1.99-8.773 1.125-8.773 1.125s2.497-4.802 5.083-6.41c3.633-2.248 9.156-1.09 9.156-1.09ZM198.361 45.529s-1.485 4.846.675 8.377c2.699 4.408 6.433 6.072 6.433 6.072s.81-5.352-.337-8.175c-1.62-3.958-6.771-6.274-6.771-6.274ZM224.432 44.416s-2.407 4.34-6.366 5.229c-4.949 1.101-8.661-.405-8.661-.405s3.228-4.206 5.995-5.319c3.892-1.563 9.032.495 9.032.495ZM205.615 32.733s-2.261 4.419-.776 8.197c1.845 4.723 5.174 6.96 5.174 6.96s1.687-5.026 1.057-7.95c-.877-4.104-5.455-7.207-5.455-7.207ZM231.158 35.937s-3.059 3.778-7.041 3.958c-4.96.225-8.289-1.866-8.289-1.866s3.835-3.509 6.692-4.116c4.027-.832 8.638 2.024 8.638 2.024ZM214.985 21.466s-2.936 3.879-2.149 7.78c.979 4.87 3.813 7.59 3.813 7.59s2.486-4.564 2.373-7.488c-.157-4.104-4.037-7.882-4.037-7.882ZM239.188 28.83s-3.599 3.127-7.468 2.62c-4.825-.629-7.682-3.204-7.682-3.204s4.297-2.732 7.165-2.834c4.015-.123 7.985 3.419 7.985 3.419ZM226.04 12.11s-3.497 3.25-3.396 7.14c.112 4.87 2.384 7.973 2.384 7.973s3.183-3.98 3.577-6.826c.54-3.98-2.565-8.287-2.565-8.287ZM248.277 23.265s-4.004 2.406-7.648 1.259c-4.555-1.428-6.872-4.397-6.872-4.397s4.611-1.911 7.401-1.506c3.891.562 7.119 4.644 7.119 4.644ZM238.435 4.891s-3.925 2.541-4.499 6.32c-.719 4.711.945 8.107.945 8.107s3.746-3.306 4.6-5.982c1.215-3.756-1.046-8.445-1.046-8.445ZM258.027 19.408s-4.274 1.642-7.603-.079c-4.15-2.148-5.882-5.42-5.882-5.42s4.769-1.057 7.401-.202c3.678 1.203 6.084 5.7 6.084 5.7ZM251.661 0s-4.217 1.788-5.409 5.33c-1.496 4.43-.473 7.983-.473 7.983s4.184-2.552 5.466-4.98c1.8-3.42.416-8.333.416-8.333ZM251.842 10.93s3.16 1.788 5.961.82c3.498-1.203 5.23-3.564 5.23-3.564s-3.611-1.383-5.77-1.023c-3.003.528-5.421 3.767-5.421 3.767Z" fill="#FFE84D"/><path d="M300.149 132.572s-5.747 1.979-7.648 6.556c-2.385 5.723-1.35 10.525-1.35 10.525s5.759-2.991 7.682-6.095c2.711-4.363 1.316-10.986 1.316-10.986ZM310.238 157.737s-5.815 1.788-10.055-.798c-5.286-3.227-7.288-7.714-7.288-7.714s6.422-.967 9.807.405c4.758 1.934 7.536 8.107 7.536 8.107ZM309.102 127.636s-5.219 2.89-6.276 7.635c-1.327 5.937.484 10.39.484 10.39s5.05-3.868 6.377-7.197c1.878-4.677-.585-10.828-.585-10.828ZM323.117 150.204s-5.309 2.71-9.842.933c-5.657-2.215-8.345-6.207-8.345-6.207s6.028-2.024 9.537-1.271c4.915 1.057 8.65 6.545 8.65 6.545ZM317.132 121.227s-4.533 3.677-4.746 8.433c-.27 5.948 2.238 9.94 2.238 9.94s4.217-4.587 4.937-8.028c1.001-4.824-2.429-10.345-2.429-10.345ZM334.497 140.624s-4.656 3.519-9.335 2.575c-5.837-1.181-9.11-4.566-9.11-4.566s5.477-2.98 8.986-2.856c4.927.191 9.459 4.847 9.459 4.847ZM323.948 113.457s-3.756 4.318-3.149 8.95c.753 5.791 3.846 9.21 3.846 9.21s3.285-5.15 3.397-8.591c.158-4.824-4.094-9.569-4.094-9.569ZM344.013 129.221s-3.903 4.183-8.57 4.071c-5.838-.146-9.572-2.856-9.572-2.856s4.78-3.812 8.188-4.284c4.78-.664 9.954 3.069 9.954 3.069ZM329.358 104.641s-2.891 4.801-1.519 9.176c1.71 5.453 5.286 8.242 5.286 8.242s2.295-5.521 1.811-8.861c-.663-4.7-5.578-8.557-5.578-8.557ZM351.403 116.448s-3.048 4.7-7.581 5.386c-5.657.855-9.718-1.136-9.718-1.136s3.96-4.486 7.176-5.521c4.51-1.45 10.123 1.271 10.123 1.271ZM333.092 95.072s-1.969 5.128.101 9.108c2.575 4.981 6.501 7.05 6.501 7.05s1.271-5.723.247-8.86c-1.451-4.408-6.849-7.298-6.849-7.298ZM356.373 102.707s-2.137 5.06-6.399 6.488c-5.32 1.788-9.572.562-9.572.562s3.06-5.003 5.973-6.555c4.116-2.159 9.998-.495 9.998-.495ZM335.15 85.03s-1.023 5.286 1.642 8.771c3.341 4.363 7.48 5.701 7.48 5.701s.258-5.745-1.271-8.602c-2.148-4.003-7.851-5.87-7.851-5.87ZM358.926 88.438s-1.203 5.251-5.072 7.354c-4.825 2.631-9.144 2.17-9.144 2.17s2.103-5.352 4.656-7.343c3.588-2.788 9.56-2.181 9.56-2.181ZM335.431 74.73s-.09 5.274 3.082 8.187c3.959 3.643 8.176 4.228 8.176 4.228s-.731-5.578-2.699-8.085c-2.744-3.497-8.559-4.33-8.559-4.33ZM358.96 73.978s-.27 5.273-3.633 7.96c-4.206 3.363-8.458 3.655-8.458 3.655s1.114-5.521 3.239-7.871c2.992-3.317 8.852-3.744 8.852-3.744ZM333.958 64.206s.81 5.105 4.364 7.376c4.443 2.845 8.615 2.688 8.615 2.688s-1.653-5.263-3.981-7.343c-3.239-2.912-8.998-2.72-8.998-2.72ZM356.531 59.472s.641 5.128-2.159 8.299c-3.487 3.958-7.536 4.97-7.536 4.97s.135-5.521 1.788-8.153c2.328-3.7 7.907-5.116 7.907-5.116ZM330.662 53.94s1.653 4.79 5.478 6.375c4.78 1.99 8.772 1.125 8.772 1.125s-2.497-4.802-5.083-6.41c-3.644-2.248-9.167-1.09-9.167-1.09ZM351.639 45.529s1.484 4.846-.675 8.377c-2.7 4.408-6.434 6.072-6.434 6.072s-.809-5.352.338-8.175c1.619-3.958 6.771-6.274 6.771-6.274ZM325.567 44.416s2.407 4.34 6.366 5.229c4.949 1.101 8.661-.405 8.661-.405s-3.228-4.206-5.995-5.319c-3.903-1.563-9.032.495-9.032.495ZM344.384 32.733s2.261 4.419.788 8.197c-1.845 4.723-5.174 6.96-5.174 6.96s-1.687-5.026-1.057-7.95c.866-4.104 5.443-7.207 5.443-7.207ZM318.842 35.937s3.059 3.778 7.029 3.958c4.96.225 8.29-1.866 8.29-1.866s-3.836-3.509-6.693-4.116c-4.015-.832-8.626 2.024-8.626 2.024ZM335.015 21.466s2.935 3.879 2.148 7.78c-.978 4.87-3.813 7.59-3.813 7.59s-2.485-4.564-2.384-7.488c.169-4.104 4.049-7.882 4.049-7.882ZM310.812 28.83s3.599 3.127 7.468 2.62c4.825-.629 7.682-3.204 7.682-3.204s-4.297-2.732-7.165-2.834c-4.026-.123-7.985 3.419-7.985 3.419ZM323.96 12.11s3.497 3.25 3.396 7.14c-.112 4.87-2.384 7.973-2.384 7.973s-3.183-3.98-3.566-6.826c-.551-3.98 2.554-8.287 2.554-8.287ZM301.724 23.265s4.004 2.406 7.648 1.259c4.555-1.428 6.872-4.397 6.872-4.397s-4.612-1.911-7.401-1.506c-3.903.562-7.119 4.644-7.119 4.644ZM311.565 4.891s3.925 2.541 4.499 6.32c.719 4.711-.945 8.107-.945 8.107s-3.745-3.306-4.6-5.982c-1.215-3.756 1.046-8.445 1.046-8.445ZM291.972 19.408s4.285 1.642 7.603-.079c4.15-2.148 5.882-5.42 5.882-5.42s-4.769-1.057-7.389-.202c-3.689 1.203-6.096 5.7-6.096 5.7ZM298.337 0s4.229 1.788 5.422 5.33c1.484 4.43.472 7.983.472 7.983s-4.173-2.552-5.466-4.98c-1.811-3.42-.428-8.333-.428-8.333ZM298.147 10.93s-3.16 1.788-5.961.82c-3.498-1.203-5.23-3.564-5.23-3.564s3.622-1.383 5.77-1.023c3.014.528 5.421 3.767 5.421 3.767Z" fill="#FFE84D"/><path d="M294.919 60.069c-1.788 0-3.025-1.237-3.025-3.025V44.641h3.07v11.807c0 .472.259.72.72.72h1.361v2.9h-2.126Zm4.128-2.901c.472 0 .72-.259.72-.72V44.641h3.07v12.403c0 1.788-1.237 3.025-3.025 3.025h-2.137v-2.901h1.372ZM311.857 57.167c.473 0 .72-.258.72-.72v-1.619c0-.472-.259-.618-.72-.72l-3.97-.854c-1.665-.36-3.071-1.36-3.071-3.07v-2.597c0-1.788 1.238-3.025 3.026-3.025h2.069v2.901h-1.304c-.473 0-.72.259-.72.72v1.45c0 .473.259.619.72.72l3.97.855c1.665.36 3.071 1.36 3.071 3.07v2.766c0 1.788-1.238 3.024-3.026 3.024h-2.069v-2.9h1.304Zm-4.004 2.901c-1.788 0-3.025-1.236-3.025-3.024v-1.957h2.98v1.36c0 .473.259.72.72.72h1.383v2.901h-2.058Zm4.51-15.517c1.789 0 3.026 1.237 3.026 3.025v1.788h-2.981v-1.192c0-.472-.258-.72-.72-.72h-1.124v-2.901h1.799Z" fill="#29B6CB"/><path d="M246.297 66.624c0-.472-.259-.72-.72-.72h-3.07c-.473 0-.72.259-.72.72v1.45c0 .473.259.619.72.72l3.97.855c1.665.36 3.07 1.36 3.07 3.07v2.766c0 1.787-1.237 3.024-3.025 3.024h-4.78c-1.788 0-3.026-1.237-3.026-3.024v-1.957h2.981v1.36c0 .473.259.72.72.72h3.329c.472 0 .72-.258.72-.72V73.27c0-.472-.259-.618-.72-.72l-3.97-.854c-1.665-.36-3.071-1.36-3.071-3.07v-2.597c0-1.788 1.237-3.025 3.026-3.025h4.521c1.788 0 3.025 1.237 3.025 3.025v1.788h-2.98v-1.192ZM261.661 63.082v2.901h-6.973v3.148h5.646v2.902h-5.646v3.497h6.973v2.9h-10.044V63.083h10.044ZM266.137 78.42h-3.172l4.949-15.338h3.576l4.949 15.337h-3.307l-1.001-3.452h-4.971l-1.023 3.453Zm1.878-6.342h3.284l-1.62-5.623-1.664 5.623ZM286.09 78.42l-2.475-5.69h-2.474v5.69h-3.071V63.081h7.828c1.789 0 3.026 1.237 3.026 3.025v3.598c0 1.45-.81 2.53-2.092 2.901l2.553 5.814h-3.295Zm-.237-11.717c0-.473-.258-.72-.719-.72h-3.982v3.902h3.982c.472 0 .719-.259.719-.72v-2.462ZM298.72 66.624c0-.472-.258-.72-.72-.72h-3.329c-.472 0-.72.259-.72.72v8.265c0 .472.259.72.72.72H298c.473 0 .72-.26.72-.72V73.01h3.071v2.474c0 1.787-1.237 3.024-3.026 3.024h-4.859c-1.788 0-3.025-1.237-3.025-3.024v-9.457c0-1.788 1.237-3.025 3.025-3.025h4.859c1.789 0 3.026 1.237 3.026 3.025v2.474h-3.071v-1.878ZM303.781 63.082h3.071v6.05h5.286v-6.05h3.07v15.337h-3.07v-6.398h-5.286v6.398h-3.071V63.082ZM236.422 96.86h-3.172l4.949-15.348h3.576l4.949 15.348h-3.306l-1.001-3.452h-4.972l-1.023 3.452Zm1.878-6.341h3.284l-1.619-5.623-1.665 5.623ZM257.713 96.86l-2.519-10.097-2.52 10.097h-3.025l-3.813-15.337h3.284l2.092 11.21 2.767-11.21h2.429l2.767 11.21 2.092-11.21h3.161l-3.813 15.349h-2.902v-.012ZM266.733 96.86h-3.171l4.948-15.348h3.577l4.949 15.348h-3.307l-1.001-3.452h-4.971l-1.024 3.452Zm1.879-6.341h3.284l-1.62-5.623-1.664 5.623ZM286.685 96.86l-2.474-5.69h-2.474v5.69h-3.071V81.523h7.828c1.788 0 3.026 1.237 3.026 3.025v3.598c0 1.45-.81 2.53-2.092 2.901l2.553 5.813h-3.296Zm-.236-11.716c0-.473-.259-.72-.72-.72h-3.981v3.902h3.981c.473 0 .72-.259.72-.72v-2.462ZM299.879 81.523c1.788 0 3.025 1.237 3.025 3.025v9.288c0 1.788-1.237 3.024-3.025 3.024h-7.997V81.523h7.997Zm-.765 12.448c.472 0 .72-.259.72-.72v-8.096c0-.472-.259-.72-.72-.72h-4.162v9.547h4.162v-.011ZM312.408 85.054c0-.472-.258-.72-.72-.72h-3.07c-.472 0-.72.259-.72.72v1.45c0 .473.259.619.72.72l3.97.855c1.665.36 3.071 1.36 3.071 3.07v2.765c0 1.788-1.237 3.025-3.026 3.025h-4.78c-1.788 0-3.025-1.237-3.025-3.025v-1.956h2.98v1.372c0 .472.259.72.72.72h3.329c.473 0 .72-.26.72-.72v-1.62c0-.472-.259-.618-.72-.72l-3.97-.854c-1.665-.36-3.071-1.36-3.071-3.07V84.47c0-1.788 1.238-3.025 3.026-3.025h4.521c1.789 0 3.026 1.237 3.026 3.025v1.788h-2.981v-1.203Z" fill="#fff"/><path d="M276.41 115.24h-5.06v-5.162c0-1.709 1.441-2.518 3.049-3.069l3.642-1.282c.548-.191.85-.304.85-.855v-1.327c0-.551-.302-.854-.85-.854h-.994V99.79h1.844a3.042 3.042 0 0 1 3.049 3.069v2.688c0 1.709-1.441 2.519-3.049 3.07l-3.642 1.281c-.548.192-.85.304-.85.855v1.574h2.011v2.913Zm-4.882-12.358a3.043 3.043 0 0 1 3.05-3.07h1.844v2.901h-1.084c-.547 0-.849.304-.849.855v.978h-2.961v-1.664Zm5.519 12.358v-2.902h4.938v2.902h-4.938ZM287.515 102.713c-.469 0-.715.259-.715.72v8.264c0 .473.257.72.715.72h1.296v2.901h-2.067c-1.776 0-3.005-1.237-3.005-3.025v-9.456c0-1.788 1.229-3.025 3.005-3.025h2.056v2.901h-1.285Zm4-2.901c1.776 0 3.005 1.237 3.005 3.025v9.456c0 1.788-1.229 3.025-3.005 3.025h-2.078v-2.901h1.318c.469 0 .715-.259.715-.72v-8.264c0-.473-.257-.72-.715-.72h-1.318v-2.901h2.078ZM301.301 115.24h-5.061v-5.162c0-1.709 1.441-2.518 3.05-3.069l3.642-1.282c.548-.191.849-.304.849-.855v-1.327c0-.551-.301-.854-.849-.854h-.994V99.79h1.843c1.698 0 3.05 1.36 3.05 3.069v2.688c0 1.709-1.441 2.519-3.05 3.07l-3.642 1.281c-.547.192-.849.304-.849.855v1.574h2.011v2.913Zm-4.882-12.358a3.043 3.043 0 0 1 3.05-3.07h1.843v2.901h-1.083c-.548 0-.85.304-.85.855v.978h-2.96v-1.664Zm5.519 12.358v-2.902h4.938v2.902h-4.938ZM310.99 103.096l-2.77.978v-2.552l3.407-1.62h2.413v15.349h-3.05v-12.155Z" fill="#29B6CB"/><g clip-path="url(#c)"><path d="M475.971 164.54s-8.971-10.997-29.918-14.572c-20.389-4.791-45.056-24.817-51.379-52.94-7.329-27.852 5.005-56.975 20.779-70.592 15.663-14.292 30.343-16.507 30.053-16.698.357.427-14.2 2.98-29.472 17.327-15.394 13.696-27.114 42.437-19.684 69.547 6.457 27.381 30.599 46.553 50.329 51.005a67.893 67.893 0 0 1 12.624 3.194c13.92 4.97 19.271 11.379 19.271 11.379l-2.603 2.35Z" fill="#FFE84D"/><path d="M454.029 164.54s8.971-10.997 29.918-14.572c20.388-4.791 45.044-24.817 51.379-52.94 7.328-27.852-5.005-56.975-20.78-70.592-15.663-14.292-30.342-16.507-30.041-16.698-.357.427 14.2 2.98 29.46 17.327 15.395 13.696 27.114 42.437 19.685 69.547-6.457 27.381-30.611 46.553-50.329 51.005a67.893 67.893 0 0 0-12.624 3.194c-13.92 4.97-19.271 11.379-19.271 11.379l2.603 2.35ZM440.02 132.572s5.709 1.979 7.597 6.556c2.369 5.723 1.341 10.525 1.341 10.525s-5.72-2.991-7.631-6.095c-2.692-4.363-1.307-10.986-1.307-10.986ZM429.999 157.737s5.776 1.788 9.988-.798c5.261-3.227 7.239-7.714 7.239-7.714s-6.379-.967-9.742.405c-4.726 1.934-7.485 8.107-7.485 8.107ZM431.127 127.636s5.173 2.89 6.223 7.635c1.318 5.937-.48 10.39-.48 10.39s-5.016-3.868-6.335-7.197c-1.854-4.677.592-10.828.592-10.828ZM417.207 150.204s5.273 2.71 9.775.933c5.62-2.215 8.29-6.207 8.29-6.207s-5.988-2.024-9.474-1.271c-4.893 1.057-8.591 6.545-8.591 6.545ZM423.151 121.227s4.502 3.677 4.714 8.433c.269 5.949-2.223 9.94-2.223 9.94s-4.189-4.587-4.893-8.028c-1.005-4.824 2.402-10.345 2.402-10.345ZM405.901 140.624s4.625 3.519 9.273 2.575c5.798-1.181 9.049-4.566 9.049-4.566s-5.441-2.98-8.926-2.856c-4.893.191-9.396 4.847-9.396 4.847ZM416.38 113.457s3.732 4.317 3.128 8.95c-.748 5.791-3.82 9.209-3.82 9.209s-3.262-5.15-3.374-8.59c-.157-4.824 4.066-9.569 4.066-9.569ZM396.45 129.221s3.877 4.183 8.513 4.071c5.798-.146 9.507-2.856 9.507-2.856s-4.748-3.812-8.133-4.284c-4.759-.664-9.887 3.069-9.887 3.069ZM411.007 104.641s2.871 4.802 1.508 9.176c-1.698 5.453-5.25 8.242-5.25 8.242s-2.279-5.521-1.799-8.861c.659-4.7 5.541-8.557 5.541-8.557ZM389.11 116.448s3.028 4.7 7.53 5.386c5.62.855 9.653-1.136 9.653-1.136s-3.933-4.486-7.128-5.521c-4.48-1.45-10.055 1.271-10.055 1.271ZM407.297 95.072s1.955 5.128-.1 9.108c-2.559 4.981-6.458 7.05-6.458 7.05s-1.262-5.723-.245-8.86c1.441-4.408 6.803-7.298 6.803-7.298ZM384.172 102.707s2.123 5.06 6.345 6.488c5.274 1.788 9.508.562 9.508.562s-3.039-5.003-5.944-6.555c-4.066-2.159-9.909-.495-9.909-.495ZM405.253 85.03s1.017 5.286-1.631 8.772c-3.318 4.362-7.429 5.7-7.429 5.7s-.257-5.745 1.274-8.602c2.122-4.003 7.786-5.87 7.786-5.87ZM381.647 88.438s1.196 5.251 5.028 7.354c4.792 2.631 9.082 2.17 9.082 2.17s-2.089-5.352-4.625-7.343c-3.564-2.788-9.485-2.181-9.485-2.181ZM404.974 74.73s.089 5.274-3.061 8.187c-3.944 3.643-8.122 4.228-8.122 4.228s.726-5.578 2.681-8.085c2.715-3.497 8.502-4.33 8.502-4.33ZM381.603 73.977s.268 5.274 3.619 7.962c4.178 3.362 8.401 3.654 8.401 3.654s-1.106-5.521-3.217-7.871c-2.983-3.317-8.803-3.745-8.803-3.745ZM406.438 64.206s-.804 5.105-4.335 7.376c-4.412 2.845-8.557 2.688-8.557 2.688s1.642-5.263 3.955-7.343c3.217-2.912 8.937-2.72 8.937-2.72ZM384.016 59.472s-.637 5.128 2.145 8.298c3.463 3.959 7.485 4.97 7.485 4.97s-.134-5.52-1.776-8.152c-2.313-3.7-7.854-5.116-7.854-5.116ZM409.711 53.94s-1.631 4.79-5.43 6.375c-4.748 1.99-8.714 1.125-8.714 1.125s2.481-4.802 5.05-6.41c3.609-2.248 9.094-1.09 9.094-1.09ZM388.875 45.529s-1.475 4.846.67 8.377c2.682 4.408 6.391 6.072 6.391 6.072s.804-5.352-.335-8.175c-1.609-3.958-6.726-6.274-6.726-6.274ZM414.771 44.416s-2.391 4.34-6.323 5.229c-4.916 1.101-8.602-.405-8.602-.405s3.206-4.206 5.954-5.319c3.866-1.563 8.971.495 8.971.495ZM396.081 32.733s-2.245 4.419-.771 8.197c1.832 4.723 5.139 6.96 5.139 6.96s1.676-5.026 1.05-7.95c-.871-4.104-5.418-7.207-5.418-7.207ZM421.452 35.937s-3.039 3.778-6.994 3.958c-4.927.225-8.233-1.866-8.233-1.866s3.809-3.509 6.647-4.116c3.999-.832 8.58 2.024 8.58 2.024ZM405.387 21.466s-2.916 3.879-2.134 7.78c.972 4.87 3.788 7.59 3.788 7.59s2.469-4.564 2.357-7.488c-.157-4.104-4.011-7.882-4.011-7.882ZM429.429 28.83s-3.575 3.127-7.418 2.62c-4.793-.629-7.63-3.204-7.63-3.204s4.267-2.732 7.116-2.834c3.989-.123 7.932 3.419 7.932 3.419ZM416.369 12.11s-3.474 3.25-3.374 7.14c.112 4.87 2.369 7.973 2.369 7.973s3.161-3.98 3.552-6.826c.537-3.98-2.547-8.287-2.547-8.287ZM438.456 23.265s-3.977 2.406-7.597 1.259c-4.524-1.428-6.826-4.397-6.826-4.397s4.581-1.911 7.351-1.506c3.866.562 7.072 4.644 7.072 4.644ZM428.68 4.891s-3.899 2.541-4.468 6.32c-.715 4.711.938 8.107.938 8.107s3.72-3.306 4.569-5.982c1.207-3.756-1.039-8.445-1.039-8.445ZM448.142 19.408s-4.245 1.642-7.552-.079c-4.122-2.148-5.843-5.42-5.843-5.42s4.737-1.057 7.351-.202c3.653 1.203 6.044 5.7 6.044 5.7ZM441.819 0s-4.189 1.788-5.374 5.33c-1.486 4.43-.469 7.983-.469 7.983s4.156-2.552 5.43-4.98c1.787-3.42.413-8.333.413-8.333ZM441.997 10.93s3.139 1.788 5.921.82c3.475-1.203 5.195-3.564 5.195-3.564s-3.586-1.383-5.731-1.023c-2.983.528-5.385 3.767-5.385 3.767Z" fill="#FFE84D"/><path d="M489.98 132.572s-5.709 1.979-7.597 6.556c-2.369 5.723-1.341 10.525-1.341 10.525s5.72-2.991 7.631-6.095c2.692-4.363 1.307-10.986 1.307-10.986ZM500 157.737s-5.775 1.788-9.987-.798c-5.251-3.227-7.24-7.714-7.24-7.714s6.38-.967 9.742.405c4.726 1.934 7.485 8.107 7.485 8.107ZM498.873 127.636s-5.184 2.89-6.234 7.635c-1.318 5.937.481 10.39.481 10.39s5.016-3.868 6.334-7.197c1.866-4.677-.581-10.828-.581-10.828ZM512.793 150.204s-5.273 2.71-9.775.933c-5.619-2.215-8.289-6.207-8.289-6.207s5.988-2.024 9.473-1.271c4.882 1.057 8.591 6.545 8.591 6.545ZM506.849 121.227s-4.502 3.677-4.715 8.433c-.268 5.948 2.224 9.94 2.224 9.94s4.189-4.587 4.904-8.028c.994-4.824-2.413-10.345-2.413-10.345ZM524.098 140.624s-4.625 3.519-9.272 2.575c-5.799-1.181-9.05-4.566-9.05-4.566s5.441-2.98 8.927-2.856c4.893.191 9.395 4.847 9.395 4.847ZM513.619 113.457s-3.731 4.318-3.128 8.95c.748 5.791 3.821 9.21 3.821 9.21s3.262-5.15 3.373-8.591c.157-4.824-4.066-9.569-4.066-9.569ZM533.549 129.221s-3.876 4.183-8.513 4.071c-5.798-.146-9.507-2.856-9.507-2.856s4.748-3.812 8.133-4.284c4.748-.664 9.887 3.069 9.887 3.069ZM518.992 104.641s-2.871 4.801-1.508 9.176c1.698 5.453 5.251 8.242 5.251 8.242s2.279-5.521 1.799-8.861c-.659-4.7-5.542-8.557-5.542-8.557ZM540.889 116.448s-3.027 4.7-7.53 5.386c-5.619.855-9.652-1.136-9.652-1.136s3.933-4.486 7.128-5.521c4.48-1.45 10.054 1.271 10.054 1.271ZM522.702 95.072s-1.955 5.128.101 9.108c2.558 4.981 6.457 7.05 6.457 7.05s1.262-5.723.246-8.86c-1.441-4.408-6.804-7.298-6.804-7.298ZM545.828 102.707s-2.123 5.06-6.357 6.488c-5.284 1.788-9.507.562-9.507.562s3.039-5.003 5.932-6.555c4.089-2.159 9.932-.495 9.932-.495ZM524.747 85.03s-1.017 5.286 1.631 8.771c3.318 4.363 7.429 5.701 7.429 5.701s.257-5.745-1.263-8.602c-2.133-4.003-7.797-5.87-7.797-5.87ZM548.363 88.438s-1.195 5.251-5.038 7.354c-4.793 2.631-9.083 2.17-9.083 2.17s2.089-5.352 4.625-7.343c3.564-2.788 9.496-2.181 9.496-2.181ZM525.026 74.73s-.09 5.274 3.061 8.187c3.932 3.643 8.122 4.228 8.122 4.228s-.727-5.578-2.682-8.085c-2.726-3.497-8.501-4.33-8.501-4.33ZM548.397 73.978s-.268 5.273-3.608 7.96c-4.178 3.363-8.401 3.655-8.401 3.655s1.106-5.521 3.217-7.871c2.972-3.317 8.792-3.744 8.792-3.744ZM523.562 64.206s.805 5.105 4.335 7.376c4.413 2.845 8.558 2.688 8.558 2.688s-1.643-5.263-3.955-7.343c-3.218-2.912-8.938-2.72-8.938-2.72ZM545.985 59.472s.636 5.128-2.145 8.299c-3.464 3.958-7.486 4.97-7.486 4.97s.135-5.521 1.777-8.153c2.312-3.7 7.854-5.116 7.854-5.116ZM520.289 53.94s1.642 4.79 5.441 6.375c4.748 1.99 8.714 1.125 8.714 1.125s-2.48-4.802-5.05-6.41c-3.62-2.248-9.105-1.09-9.105-1.09ZM541.124 45.529s1.475 4.846-.67 8.377c-2.681 4.408-6.39 6.072-6.39 6.072s-.805-5.352.335-8.175c1.609-3.958 6.725-6.274 6.725-6.274ZM515.229 44.416s2.39 4.34 6.323 5.229c4.915 1.101 8.602-.405 8.602-.405s-3.206-4.206-5.955-5.319c-3.876-1.563-8.97.495-8.97.495ZM533.919 32.733s2.246 4.419.782 8.197c-1.832 4.723-5.139 6.96-5.139 6.96s-1.676-5.026-1.05-7.95c.86-4.104 5.407-7.207 5.407-7.207ZM508.547 35.937s3.039 3.778 6.982 3.958c4.927.225 8.234-1.866 8.234-1.866s-3.81-3.509-6.647-4.116c-3.989-.832-8.569 2.024-8.569 2.024ZM524.612 21.466s2.916 3.879 2.134 7.78c-.972 4.87-3.788 7.59-3.788 7.59s-2.469-4.564-2.368-7.488c.167-4.104 4.022-7.882 4.022-7.882ZM500.57 28.83s3.575 3.127 7.418 2.62c4.793-.629 7.631-3.204 7.631-3.204s-4.268-2.732-7.117-2.834c-3.999-.123-7.932 3.419-7.932 3.419ZM513.63 12.11s3.475 3.25 3.374 7.14c-.111 4.87-2.368 7.973-2.368 7.973s-3.162-3.98-3.542-6.826c-.547-3.98 2.536-8.287 2.536-8.287ZM491.544 23.265s3.977 2.406 7.597 1.259c4.524-1.428 6.826-4.397 6.826-4.397s-4.581-1.911-7.351-1.506c-3.877.562-7.072 4.644-7.072 4.644ZM501.319 4.891s3.899 2.541 4.469 6.32c.715 4.711-.939 8.107-.939 8.107s-3.72-3.306-4.569-5.982c-1.207-3.756 1.039-8.445 1.039-8.445ZM481.858 19.408s4.257 1.642 7.553-.079c4.122-2.148 5.842-5.42 5.842-5.42s-4.736-1.057-7.339-.202c-3.665 1.203-6.056 5.7-6.056 5.7ZM488.182 0s4.2 1.788 5.384 5.33c1.475 4.43.47 7.983.47 7.983s-4.145-2.552-5.43-4.98c-1.798-3.42-.424-8.333-.424-8.333ZM487.991 10.93s-3.139 1.788-5.921.82c-3.475-1.203-5.195-3.564-5.195-3.564s3.597-1.383 5.731-1.023c2.994.528 5.385 3.767 5.385 3.767Z" fill="#FFE84D"/><path d="M436.489 66.624c0-.473-.257-.72-.715-.72h-3.05c-.469 0-.715.259-.715.72v1.45c0 .472.257.619.715.72l3.944.855c1.653.36 3.05 1.36 3.05 3.07v2.765c0 1.788-1.229 3.025-3.005 3.025h-4.748c-1.777 0-3.006-1.237-3.006-3.025v-1.956h2.961v1.36c0 .473.257.72.715.72h3.307c.469 0 .715-.259.715-.72V73.27c0-.472-.257-.618-.715-.72l-3.944-.854c-1.653-.36-3.05-1.36-3.05-3.07v-2.597c0-1.788 1.229-3.025 3.005-3.025h4.492c1.776 0 3.005 1.237 3.005 3.025v1.788h-2.961v-1.192ZM451.75 63.082v2.9h-6.927v3.15h5.609v2.9h-5.609v3.497h6.927v2.901h-9.977V63.082h9.977ZM456.196 78.42h-3.15l4.915-15.338h3.553l4.916 15.337h-3.285l-.994-3.452h-4.938l-1.017 3.452Zm1.866-6.343h3.262l-1.609-5.622-1.653 5.622ZM476.015 78.42l-2.458-5.69H471.1v5.69h-3.05V63.081h7.775c1.777 0 3.006 1.237 3.006 3.024v3.599c0 1.45-.805 2.53-2.078 2.9l2.536 5.814h-3.274Zm-.234-11.718c0-.472-.257-.72-.715-.72h-3.955v3.903h3.955c.469 0 .715-.259.715-.72v-2.463ZM488.561 66.624c0-.473-.257-.72-.715-.72h-3.307c-.469 0-.715.259-.715.72v8.264c0 .473.257.72.715.72h3.307c.469 0 .715-.259.715-.72v-1.877h3.05v2.473c0 1.788-1.229 3.025-3.005 3.025h-4.826c-1.777 0-3.006-1.237-3.006-3.025v-9.456c0-1.788 1.229-3.025 3.006-3.025h4.826c1.776 0 3.005 1.237 3.005 3.025V68.5h-3.05v-1.877ZM493.589 63.082h3.05v6.05h5.25v-6.05h3.05v15.337h-3.05v-6.398h-5.25v6.398h-3.05V63.082ZM426.681 96.86h-3.151l4.916-15.349h3.552l4.916 15.35h-3.284l-.995-3.453h-4.938l-1.016 3.452Zm1.865-6.342h3.263l-1.609-5.622-1.654 5.622ZM447.829 96.86l-2.503-10.097-2.502 10.097h-3.006l-3.787-15.337h3.262l2.078 11.21 2.749-11.21h2.413l2.748 11.21 2.078-11.21h3.139l-3.787 15.348h-2.882v-.01ZM456.789 96.86h-3.15l4.915-15.349h3.553l4.915 15.35h-3.284l-.994-3.453h-4.938l-1.017 3.452Zm1.866-6.342h3.262l-1.609-5.622-1.653 5.622ZM476.607 96.86l-2.458-5.69h-2.458v5.69h-3.049V81.523h7.775c1.776 0 3.005 1.237 3.005 3.024v3.599c0 1.45-.804 2.53-2.078 2.9l2.536 5.814h-3.273Zm-.235-11.717c0-.472-.256-.72-.715-.72h-3.954v3.903h3.954c.47 0 .715-.259.715-.72v-2.463ZM489.712 81.523c1.776 0 3.005 1.237 3.005 3.024v9.288c0 1.788-1.229 3.025-3.005 3.025h-7.943V81.523h7.943Zm-.76 12.447c.469 0 .715-.258.715-.72v-8.095c0-.473-.257-.72-.715-.72h-4.134v9.547h4.134v-.012ZM502.157 85.053c0-.472-.257-.72-.715-.72h-3.05c-.469 0-.715.26-.715.72v1.451c0 .472.257.618.715.72l3.944.854c1.653.36 3.05 1.36 3.05 3.07v2.766c0 1.788-1.229 3.025-3.005 3.025h-4.748c-1.777 0-3.006-1.237-3.006-3.025v-1.956h2.961v1.371c0 .473.257.72.715.72h3.307c.469 0 .715-.259.715-.72V91.71c0-.472-.257-.618-.715-.72l-3.944-.854c-1.653-.36-3.05-1.36-3.05-3.07V84.47c0-1.788 1.229-3.025 3.005-3.025h4.491c1.777 0 3.006 1.237 3.006 3.025v1.788h-2.961v-1.204Z" fill="#fff"/><path d="M482.315 59.83c-1.789 0-3.026-1.236-3.026-3.024V44.403h3.071V56.21c0 .472.258.72.719.72h1.361v2.9h-2.125Zm4.127-2.9c.473 0 .72-.26.72-.72V44.403h3.071v12.403c0 1.788-1.238 3.024-3.026 3.024h-2.137v-2.9h1.372Z" fill="#3B75C4"/><path fill-rule="evenodd" clip-rule="evenodd" d="M496.402 55.73v3.884h-3.158V44.403h3.158v7.138l5.529-7.138h3.761l-4.912 6.004 5.151 9.22h-3.607l-3.691-6.618-2.231 2.722Z" fill="#3B75C4"/><path d="M467.678 115.24h-5.061v-5.162c0-1.709 1.441-2.518 3.05-3.069l3.642-1.282c.547-.191.849-.304.849-.855v-1.327c0-.551-.302-.854-.849-.854h-.994V99.79h1.843c1.698 0 3.05 1.36 3.05 3.069v2.688c0 1.709-1.441 2.519-3.05 3.07l-3.642 1.281c-.547.192-.849.304-.849.855v1.574h2.011v2.913Zm-4.882-12.358a3.043 3.043 0 0 1 3.05-3.07h1.843v2.901h-1.083c-.548 0-.85.304-.85.855v.978h-2.96v-1.664Zm5.519 12.358v-2.902h4.938v2.902h-4.938ZM478.783 102.713c-.469 0-.715.259-.715.72v8.264c0 .473.257.72.715.72h1.296v2.901h-2.067c-1.776 0-3.005-1.237-3.005-3.025v-9.456c0-1.788 1.229-3.025 3.005-3.025h2.056v2.901h-1.285Zm3.999-2.901c1.777 0 3.006 1.237 3.006 3.025v9.456c0 1.788-1.229 3.025-3.006 3.025h-2.078v-2.901h1.319c.469 0 .715-.259.715-.72v-8.264c0-.473-.257-.72-.715-.72h-1.319v-2.901h2.078ZM492.569 115.24h-5.061v-5.162c0-1.709 1.441-2.518 3.05-3.069l3.642-1.282c.547-.191.849-.304.849-.855v-1.327c0-.551-.302-.854-.849-.854h-.995V99.79h1.844c1.698 0 3.05 1.36 3.05 3.069v2.688c0 1.709-1.442 2.519-3.05 3.07l-3.642 1.281c-.548.192-.849.304-.849.855v1.574h2.011v2.913Zm-4.882-12.358a3.042 3.042 0 0 1 3.049-3.07h1.844v2.901h-1.084c-.547 0-.849.304-.849.855v.978h-2.96v-1.664Zm5.518 12.358v-2.902h4.938v2.902h-4.938ZM502.259 103.096l-2.771.978v-2.552l3.408-1.62h2.413v15.349h-3.05v-12.155Z" fill="#3B75C3"/></g><g clip-path="url(#d)"><path d="M666.045 164.19s-9.032-10.997-30.121-14.573c-20.526-4.79-45.36-24.817-51.726-52.94-7.378-27.852 5.039-56.975 20.92-70.592 15.769-14.292 30.548-16.507 30.255-16.698.36.427-14.295 2.98-29.67 17.328-15.499 13.695-27.297 42.436-19.818 69.547 6.501 27.38 30.807 46.552 50.669 51.005a68.719 68.719 0 0 1 12.71 3.193c14.014 4.97 19.401 11.38 19.401 11.38l-2.62 2.35Z" fill="#FFE84D"/><path d="M643.955 164.19s9.031-10.997 30.12-14.573c20.526-4.79 45.349-24.817 51.726-52.94 7.378-27.852-5.039-56.975-20.92-70.592-15.769-14.292-30.548-16.507-30.244-16.698-.36.427 14.295 2.98 29.659 17.328 15.499 13.695 27.297 42.436 19.818 69.547-6.501 27.38-30.818 46.552-50.669 51.005a68.687 68.687 0 0 0-12.709 3.193c-14.015 4.97-19.402 11.38-19.402 11.38l2.621 2.35ZM629.851 132.222s5.747 1.979 7.648 6.555c2.384 5.724 1.35 10.525 1.35 10.525s-5.759-2.991-7.682-6.094c-2.711-4.363-1.316-10.986-1.316-10.986ZM619.762 157.387s5.815 1.788 10.055-.798c5.297-3.228 7.288-7.714 7.288-7.714s-6.422-.967-9.808.405c-4.757 1.934-7.535 8.107-7.535 8.107ZM620.898 127.285s5.207 2.89 6.265 7.635c1.327 5.937-.484 10.39-.484 10.39s-5.05-3.868-6.377-7.196c-1.867-4.678.596-10.829.596-10.829ZM606.884 149.853s5.308 2.71 9.841.933c5.658-2.215 8.346-6.207 8.346-6.207s-6.029-2.024-9.538-1.27c-4.926 1.057-8.649 6.544-8.649 6.544ZM612.868 120.876s4.532 3.677 4.746 8.434c.27 5.948-2.238 9.94-2.238 9.94s-4.218-4.588-4.926-8.029c-1.013-4.824 2.418-10.345 2.418-10.345ZM595.502 140.273s4.656 3.519 9.335 2.575c5.837-1.181 9.11-4.565 9.11-4.565s-5.477-2.98-8.986-2.856c-4.926.191-9.459 4.846-9.459 4.846ZM606.051 113.106s3.757 4.318 3.15 8.951c-.754 5.791-3.847 9.209-3.847 9.209s-3.284-5.15-3.397-8.591c-.157-4.824 4.094-9.569 4.094-9.569ZM585.986 128.871s3.903 4.183 8.571 4.07c5.837-.146 9.571-2.856 9.571-2.856s-4.78-3.812-8.188-4.284c-4.791-.663-9.954 3.07-9.954 3.07ZM600.643 104.291s2.89 4.801 1.518 9.175c-1.71 5.454-5.286 8.242-5.286 8.242s-2.295-5.521-1.811-8.86c.664-4.701 5.579-8.557 5.579-8.557ZM578.598 116.097s3.048 4.701 7.58 5.387c5.658.854 9.718-1.136 9.718-1.136s-3.959-4.487-7.176-5.521c-4.51-1.451-10.122 1.27-10.122 1.27ZM596.908 94.722s1.969 5.127-.101 9.108c-2.576 4.981-6.501 7.05-6.501 7.05s-1.271-5.724-.247-8.861c1.451-4.408 6.849-7.297 6.849-7.297ZM573.626 102.357s2.137 5.06 6.388 6.488c5.309 1.788 9.572.562 9.572.562s-3.059-5.004-5.984-6.556c-4.094-2.159-9.976-.494-9.976-.494ZM594.85 84.68s1.023 5.285-1.642 8.77c-3.341 4.364-7.48 5.702-7.48 5.702s-.258-5.746 1.282-8.602c2.137-4.003 7.84-5.87 7.84-5.87ZM571.084 88.087s1.203 5.251 5.061 7.354c4.825 2.631 9.144 2.17 9.144 2.17s-2.103-5.352-4.656-7.342c-3.588-2.789-9.549-2.182-9.549-2.182ZM594.568 74.38s.09 5.274-3.082 8.186c-3.97 3.643-8.176 4.228-8.176 4.228s.731-5.577 2.699-8.085c2.733-3.497 8.559-4.329 8.559-4.329ZM571.039 73.627s.27 5.273 3.644 7.96c4.207 3.363 8.458 3.655 8.458 3.655s-1.113-5.52-3.239-7.87c-3.003-3.318-8.863-3.745-8.863-3.745ZM596.042 63.855s-.81 5.105-4.364 7.377c-4.443 2.845-8.616 2.687-8.616 2.687s1.654-5.262 3.982-7.342c3.239-2.913 8.998-2.721 8.998-2.721ZM573.469 59.121s-.642 5.128 2.159 8.299c3.487 3.958 7.536 4.97 7.536 4.97s-.135-5.521-1.789-8.152c-2.328-3.7-7.906-5.117-7.906-5.117ZM599.337 53.59s-1.642 4.79-5.466 6.375c-4.781 1.99-8.773 1.124-8.773 1.124s2.497-4.801 5.083-6.41c3.633-2.248 9.156-1.09 9.156-1.09ZM578.361 45.178s-1.485 4.847.675 8.377c2.699 4.408 6.433 6.072 6.433 6.072s.81-5.352-.337-8.174c-1.62-3.958-6.771-6.275-6.771-6.275ZM604.432 44.065s-2.407 4.34-6.366 5.229c-4.949 1.102-8.661-.405-8.661-.405s3.228-4.205 5.995-5.319c3.892-1.563 9.032.495 9.032.495ZM585.615 32.382s-2.261 4.42-.776 8.197c1.845 4.723 5.174 6.96 5.174 6.96s1.687-5.026 1.057-7.95c-.877-4.103-5.455-7.207-5.455-7.207ZM611.158 35.587s-3.059 3.778-7.041 3.958c-4.96.225-8.289-1.867-8.289-1.867s3.835-3.508 6.692-4.115c4.027-.833 8.638 2.024 8.638 2.024ZM594.985 21.115s-2.936 3.88-2.149 7.781c.979 4.869 3.813 7.59 3.813 7.59s2.486-4.565 2.373-7.489c-.157-4.104-4.037-7.882-4.037-7.882ZM619.188 28.48s-3.599 3.126-7.468 2.62c-4.825-.63-7.682-3.205-7.682-3.205s4.297-2.732 7.165-2.833c4.015-.124 7.985 3.418 7.985 3.418ZM606.04 11.76s-3.497 3.25-3.396 7.14c.112 4.869 2.384 7.972 2.384 7.972s3.183-3.98 3.577-6.825c.54-3.98-2.565-8.288-2.565-8.288ZM628.277 22.914s-4.004 2.406-7.648 1.26c-4.555-1.429-6.872-4.397-6.872-4.397s4.611-1.912 7.401-1.507c3.891.562 7.119 4.644 7.119 4.644ZM618.435 4.54s-3.925 2.542-4.499 6.32c-.719 4.711.945 8.107.945 8.107s3.746-3.306 4.6-5.982c1.215-3.755-1.046-8.444-1.046-8.444ZM638.027 19.057s-4.274 1.642-7.603-.078c-4.15-2.148-5.882-5.42-5.882-5.42s4.769-1.057 7.401-.203c3.678 1.203 6.084 5.701 6.084 5.701ZM631.661-.35s-4.217 1.787-5.409 5.33c-1.496 4.43-.473 7.983-.473 7.983s4.184-2.553 5.466-4.982c1.8-3.418.416-8.332.416-8.332ZM631.842 10.58s3.16 1.787 5.961.82c3.498-1.203 5.23-3.565 5.23-3.565s-3.611-1.383-5.77-1.023c-3.003.529-5.421 3.767-5.421 3.767Z" fill="#FFE84D"/><path d="M680.149 132.222s-5.747 1.979-7.648 6.555c-2.385 5.724-1.35 10.525-1.35 10.525s5.759-2.991 7.682-6.094c2.711-4.363 1.316-10.986 1.316-10.986ZM690.238 157.387s-5.815 1.788-10.055-.799c-5.286-3.227-7.288-7.713-7.288-7.713s6.422-.967 9.807.404c4.758 1.935 7.536 8.108 7.536 8.108ZM689.102 127.285s-5.219 2.89-6.276 7.635c-1.327 5.937.484 10.39.484 10.39s5.05-3.868 6.377-7.196c1.878-4.678-.585-10.829-.585-10.829ZM703.117 149.853s-5.309 2.71-9.842.933c-5.657-2.215-8.345-6.207-8.345-6.207s6.028-2.024 9.537-1.27c4.915 1.057 8.65 6.544 8.65 6.544ZM697.132 120.876s-4.533 3.677-4.746 8.434c-.27 5.948 2.238 9.94 2.238 9.94s4.217-4.588 4.937-8.029c1.001-4.824-2.429-10.345-2.429-10.345ZM714.497 140.273s-4.656 3.519-9.335 2.575c-5.837-1.181-9.11-4.565-9.11-4.565s5.477-2.98 8.986-2.856c4.927.191 9.459 4.846 9.459 4.846ZM703.948 113.106s-3.756 4.318-3.149 8.951c.753 5.791 3.846 9.209 3.846 9.209s3.285-5.15 3.397-8.591c.158-4.824-4.094-9.569-4.094-9.569ZM724.013 128.871s-3.903 4.183-8.57 4.07c-5.838-.146-9.572-2.856-9.572-2.856s4.78-3.812 8.188-4.284c4.78-.664 9.954 3.07 9.954 3.07ZM709.358 104.29s-2.891 4.802-1.519 9.176c1.71 5.454 5.287 8.242 5.287 8.242s2.294-5.521 1.81-8.86c-.663-4.701-5.578-8.558-5.578-8.558ZM731.403 116.097s-3.048 4.701-7.581 5.387c-5.657.854-9.718-1.136-9.718-1.136s3.96-4.487 7.176-5.521c4.51-1.451 10.123 1.27 10.123 1.27ZM713.092 94.722s-1.969 5.127.101 9.108c2.575 4.981 6.501 7.05 6.501 7.05s1.271-5.724.247-8.861c-1.451-4.408-6.849-7.297-6.849-7.297ZM736.373 102.357s-2.137 5.06-6.399 6.488c-5.32 1.788-9.572.562-9.572.562s3.06-5.004 5.973-6.556c4.116-2.159 9.998-.494 9.998-.494ZM715.15 84.68s-1.023 5.285 1.642 8.77c3.341 4.364 7.48 5.702 7.48 5.702s.258-5.746-1.271-8.602c-2.148-4.003-7.851-5.87-7.851-5.87ZM738.926 88.087s-1.203 5.251-5.072 7.354c-4.825 2.631-9.144 2.17-9.144 2.17s2.103-5.352 4.656-7.342c3.588-2.789 9.56-2.182 9.56-2.182ZM715.431 74.38s-.09 5.274 3.082 8.186c3.959 3.643 8.176 4.228 8.176 4.228s-.731-5.577-2.699-8.085c-2.744-3.497-8.559-4.329-8.559-4.329ZM738.96 73.627s-.27 5.273-3.633 7.96c-4.206 3.363-8.458 3.655-8.458 3.655s1.114-5.52 3.239-7.87c2.992-3.318 8.852-3.745 8.852-3.745ZM713.958 63.855s.81 5.105 4.364 7.377c4.443 2.845 8.615 2.687 8.615 2.687s-1.653-5.262-3.981-7.342c-3.239-2.913-8.998-2.721-8.998-2.721ZM736.531 59.121s.641 5.128-2.159 8.299c-3.487 3.958-7.536 4.97-7.536 4.97s.135-5.521 1.788-8.152c2.328-3.7 7.907-5.117 7.907-5.117ZM710.662 53.59s1.653 4.79 5.478 6.375c4.78 1.99 8.772 1.124 8.772 1.124s-2.497-4.801-5.083-6.41c-3.644-2.248-9.167-1.09-9.167-1.09ZM731.639 45.178s1.484 4.847-.675 8.377c-2.7 4.408-6.434 6.072-6.434 6.072s-.809-5.352.338-8.174c1.619-3.958 6.771-6.275 6.771-6.275ZM705.567 44.065s2.407 4.34 6.366 5.229c4.949 1.102 8.661-.405 8.661-.405s-3.228-4.205-5.995-5.319c-3.903-1.563-9.032.495-9.032.495ZM724.384 32.382s2.261 4.42.788 8.198c-1.845 4.722-5.174 6.96-5.174 6.96s-1.687-5.026-1.057-7.95c.866-4.104 5.443-7.208 5.443-7.208ZM698.842 35.587s3.059 3.778 7.029 3.958c4.96.225 8.29-1.867 8.29-1.867s-3.836-3.508-6.693-4.115c-4.015-.833-8.626 2.024-8.626 2.024ZM715.015 21.115s2.935 3.88 2.148 7.781c-.978 4.869-3.813 7.59-3.813 7.59s-2.485-4.565-2.384-7.489c.169-4.104 4.049-7.882 4.049-7.882ZM690.812 28.48s3.599 3.126 7.468 2.62c4.825-.63 7.682-3.205 7.682-3.205s-4.297-2.732-7.165-2.833c-4.026-.124-7.985 3.418-7.985 3.418ZM703.96 11.76s3.497 3.25 3.396 7.14c-.112 4.869-2.384 7.972-2.384 7.972s-3.183-3.98-3.566-6.825c-.551-3.98 2.554-8.288 2.554-8.288ZM681.724 22.914s4.004 2.406 7.648 1.26c4.555-1.429 6.872-4.397 6.872-4.397s-4.612-1.912-7.401-1.507c-3.903.562-7.119 4.644-7.119 4.644ZM691.565 4.54s3.925 2.542 4.499 6.32c.719 4.711-.945 8.107-.945 8.107s-3.745-3.306-4.6-5.982c-1.215-3.756 1.046-8.444 1.046-8.444ZM671.972 19.057s4.285 1.642 7.603-.078c4.15-2.148 5.882-5.42 5.882-5.42s-4.769-1.057-7.389-.203c-3.689 1.203-6.096 5.701-6.096 5.701ZM678.337-.35s4.229 1.787 5.422 5.33c1.484 4.43.472 7.983.472 7.983s-4.173-2.553-5.466-4.982c-1.811-3.418-.428-8.332-.428-8.332ZM678.147 10.58s-3.16 1.787-5.961.82c-3.498-1.203-5.23-3.565-5.23-3.565s3.622-1.383 5.77-1.023c3.014.529 5.421 3.767 5.421 3.767Z" fill="#FFE84D"/><path d="M608.908 64.43V50.88h2.711v13.55h-2.711Zm8.863-10.987h-5.59V50.88h5.59v2.563Zm-1.17 5.341h-4.42v-2.563h4.42v2.563Zm1.17 5.645h-5.59v-2.564h5.59v2.564ZM622.102 64.508c-1.586 0-2.677-1.09-2.677-2.676V50.879h2.71v10.424c0 .416.225.641.641.641h1.204v2.564h-1.878Zm3.644-2.564c.416 0 .641-.225.641-.64V50.878h2.71v10.953c0 1.585-1.091 2.676-2.676 2.676h-1.879v-2.564h1.204ZM633.787 50.88v13.55h-2.711V50.88h2.711Zm4.364 13.55-2.182-5.027h-1.62v-2.519h2.958c.416 0 .641-.225.641-.64v-2.16c0-.416-.225-.64-.641-.64h-2.958v-2.565h3.633c1.586 0 2.677 1.091 2.677 2.677v3.182c0 1.282-.72 2.237-1.845 2.564l2.261 5.138h-2.924v-.01ZM645.743 53.364c-.416 0-.641.225-.641.641v7.31c0 .415.225.64.641.64h1.316v2.564h-2.002c-1.586 0-2.677-1.09-2.677-2.676v-8.355c0-1.585 1.091-2.676 2.677-2.676h2.002v2.564h-1.316v-.012Zm3.858-2.552c1.574 0 2.676 1.09 2.676 2.676v8.355c0 1.585-1.091 2.676-2.676 2.676h-1.969v-2.575h1.294c.416 0 .641-.225.641-.641v-7.309c0-.416-.225-.64-.641-.64h-1.294v-2.542h1.969ZM654.189 64.43V50.88h2.711v13.55h-2.711Zm6.929-13.55c1.586 0 2.677 1.09 2.677 2.676v3.43c0 1.585-1.091 2.675-2.677 2.675h-3.656v-2.563h2.97c.416 0 .641-.225.641-.641v-2.373c0-.416-.225-.64-.641-.64h-2.97v-2.565h3.656ZM665.448 64.43V50.88h2.711v13.55h-2.711Zm8.863-10.987h-5.59V50.88h5.59v2.563Zm-1.158 5.341h-4.421v-2.563h4.421v2.563Zm1.158 5.645h-5.59v-2.564h5.59v2.564ZM679.845 50.88h.135l1.17 4.014-2.857 9.546h-2.801l4.353-13.56Zm3.734 10.502h-3.858l.754-2.564h2.373l-2.295-7.938h2.464l4.364 13.55h-2.914l-.888-3.048ZM691.385 64.43h-2.542V51.542l2.542 4.723v8.163Zm-2.317-13.55h2.688l7.299 13.55h-2.688l-7.299-13.55Zm7.682 8.174v-8.163h2.541v12.897l-2.541-4.734Z" fill="#EFC43A"/><path d="M638.365 70.287c0-.416-.225-.64-.641-.64h-2.711c-.416 0-.641.224-.641.64v1.282c0 .416.225.551.641.641l3.498.753c1.462.315 2.711 1.204 2.711 2.71v2.452c0 1.585-1.091 2.676-2.677 2.676h-4.218c-1.586 0-2.677-1.09-2.677-2.676v-1.732h2.632v1.203c0 .416.225.641.641.641h2.936c.416 0 .641-.225.641-.64v-1.429c0-.416-.225-.55-.641-.64l-3.498-.754c-1.462-.326-2.699-1.203-2.699-2.71V69.77c0-1.585 1.091-2.676 2.676-2.676h3.993c1.586 0 2.677 1.09 2.677 2.676v1.585h-2.632v-1.068h-.011ZM651.952 67.172v2.564h-6.153v2.789h4.994v2.564h-4.994v3.092h6.153v2.564h-8.863V67.172h8.863ZM655.911 80.722h-2.801l4.364-13.55h3.161l4.364 13.55h-2.925l-.888-3.047h-4.387l-.888 3.047Zm1.665-5.611h2.901l-1.428-4.97-1.473 4.97ZM673.546 80.722l-2.182-5.026h-2.182v5.026h-2.71v-13.55h6.905c1.586 0 2.677 1.091 2.677 2.677v3.182c0 1.282-.719 2.237-1.844 2.564l2.26 5.138h-2.924v-.011Zm-.202-10.356c0-.416-.225-.641-.641-.641h-3.521v3.44h3.521c.416 0 .641-.224.641-.64v-2.16ZM684.715 70.287c0-.416-.225-.64-.641-.64h-2.936c-.416 0-.641.224-.641.64v7.31c0 .415.225.64.641.64h2.936c.416 0 .641-.225.641-.64v-1.654h2.711v2.182c0 1.585-1.091 2.676-2.677 2.676h-4.297c-1.586 0-2.677-1.09-2.677-2.676V69.77c0-1.585 1.091-2.676 2.677-2.676h4.297c1.586 0 2.677 1.09 2.677 2.676v2.181h-2.711v-1.664ZM689.202 67.172h2.711v5.342h4.667v-5.342h2.711v13.55h-2.711v-5.645h-4.667v5.645h-2.711v-13.55ZM629.648 97.004h-2.8l4.364-13.55h3.16l4.364 13.55h-2.913l-.889-3.047h-4.386l-.9 3.047Zm1.654-5.61h2.901l-1.428-4.97-1.473 4.97ZM648.453 97.004l-2.216-8.917-2.215 8.917h-2.677l-3.374-13.55h2.901l1.845 9.896 2.452-9.895h2.148l2.452 9.895 1.845-9.895h2.789l-3.374 13.55h-2.576ZM656.439 97.004h-2.8l4.364-13.55h3.16l4.364 13.55h-2.924l-.889-3.047h-4.386l-.889 3.047Zm1.665-5.61h2.902l-1.429-4.97-1.473 4.97ZM674.075 97.004l-2.182-5.026h-2.182v5.026H667v-13.55h6.906c1.586 0 2.677 1.091 2.677 2.677v3.182c0 1.282-.72 2.238-1.845 2.564l2.261 5.138h-2.924v-.01Zm-.203-10.356c0-.416-.225-.641-.641-.641h-3.52v3.44h3.52c.416 0 .641-.224.641-.64v-2.159ZM685.738 83.454c1.586 0 2.677 1.091 2.677 2.677v8.208c0 1.586-1.091 2.676-2.677 2.676h-7.063v-13.56h7.063Zm-.675 10.986c.416 0 .641-.224.641-.64v-7.152c0-.416-.225-.641-.641-.641h-3.666v8.433h3.666ZM696.817 86.58c0-.415-.225-.64-.641-.64h-2.711c-.416 0-.641.225-.641.64v1.282c0 .416.225.551.641.641l3.498.754c1.474.315 2.711 1.203 2.711 2.71v2.451c0 1.585-1.091 2.676-2.677 2.676h-4.218c-1.585 0-2.676-1.09-2.676-2.676v-1.732h2.631v1.203c0 .416.225.641.641.641h2.936c.416 0 .641-.225.641-.64V92.46c0-.416-.225-.55-.641-.64l-3.498-.754c-1.462-.326-2.71-1.203-2.71-2.71v-2.294c0-1.585 1.091-2.676 2.676-2.676h3.993c1.586 0 2.677 1.09 2.677 2.676v1.586h-2.632V86.58Z" fill="#fff"/><path d="M660.538 113.286h-4.499v-4.554c0-1.507 1.282-2.226 2.711-2.71l3.239-1.124c.495-.169.753-.259.753-.754v-1.169c0-.495-.258-.754-.753-.754h-.889v-2.563h1.642a2.697 2.697 0 0 1 2.711 2.71v2.372c0 1.507-1.282 2.227-2.711 2.71l-3.239 1.125c-.495.168-.753.258-.753.753v1.394h1.788v2.564Zm-4.353-10.918a2.698 2.698 0 0 1 2.711-2.71h1.642v2.563h-.956c-.484 0-.754.259-.754.754v.866h-2.631v-1.473h-.012Zm4.915 10.918v-2.564h4.387v2.564H661.1ZM682.996 113.286h-4.499v-4.554c0-1.507 1.282-2.226 2.711-2.71l3.239-1.124c.495-.169.753-.259.753-.754v-1.169c0-.495-.258-.754-.753-.754h-.889v-2.563h1.642a2.697 2.697 0 0 1 2.711 2.71v2.372c0 1.507-1.282 2.227-2.711 2.71l-3.239 1.125c-.495.168-.753.258-.753.753v1.394h1.788v2.564Zm-4.353-10.918a2.698 2.698 0 0 1 2.711-2.71h1.642v2.563h-.956c-.484 0-.754.259-.754.754v.866h-2.631v-1.473h-.012Zm4.915 10.918v-2.564h4.387v2.564h-4.387ZM670.412 102.222c-.416 0-.641.224-.641.64v7.309c0 .416.225.641.641.641h1.147v2.564h-1.822c-1.585 0-2.676-1.091-2.676-2.676v-8.355c0-1.585 1.091-2.676 2.676-2.676h1.822v2.564h-1.147v-.011Zm3.554-2.564c1.586 0 2.677 1.09 2.677 2.676v8.355c0 1.585-1.091 2.676-2.677 2.676h-1.844v-2.564h1.17c.416 0 .641-.225.641-.641v-7.309c0-.416-.225-.641-.641-.641h-1.17v-2.563h1.844v.01ZM692.87 102.222c-.416 0-.641.224-.641.64v7.309c0 .416.225.641.641.641h1.147v2.564h-1.822c-1.585 0-2.676-1.091-2.676-2.676v-8.355c0-1.585 1.091-2.676 2.676-2.676h1.822v2.564h-1.147v-.011Zm3.554-2.564c1.586 0 2.677 1.09 2.677 2.676v8.355c0 1.585-1.091 2.676-2.677 2.676h-1.844v-2.564h1.17c.416 0 .641-.225.641-.641v-7.309c0-.416-.225-.641-.641-.641h-1.17v-2.563h1.844v.01Z" fill="#EFC43A"/></g><g clip-path="url(#e)"><path d="M856.045 164.54s-9.032-10.997-30.121-14.572c-20.526-4.791-45.36-24.817-51.726-52.94-7.378-27.852 5.039-56.975 20.92-70.592 15.769-14.292 30.548-16.507 30.255-16.698.36.427-14.295 2.98-29.67 17.327-15.499 13.696-27.297 42.437-19.818 69.547 6.501 27.381 30.807 46.553 50.669 51.005a68.716 68.716 0 0 1 12.71 3.194c14.014 4.97 19.401 11.379 19.401 11.379l-2.62 2.35Z" fill="#FFE84D"/><path d="M833.955 164.54s9.031-10.997 30.12-14.572c20.526-4.791 45.349-24.817 51.726-52.94 7.378-27.852-5.039-56.975-20.92-70.592-15.769-14.292-30.548-16.507-30.244-16.698-.36.427 14.295 2.98 29.659 17.327 15.499 13.696 27.297 42.437 19.818 69.547-6.501 27.381-30.818 46.553-50.669 51.005a68.684 68.684 0 0 0-12.709 3.194c-14.015 4.97-19.402 11.379-19.402 11.379l2.621 2.35ZM819.851 132.572s5.747 1.979 7.648 6.556c2.384 5.723 1.35 10.525 1.35 10.525s-5.759-2.991-7.682-6.095c-2.711-4.363-1.316-10.986-1.316-10.986ZM809.762 157.737s5.815 1.788 10.055-.798c5.297-3.227 7.288-7.714 7.288-7.714s-6.422-.967-9.808.405c-4.757 1.934-7.535 8.107-7.535 8.107ZM810.898 127.636s5.207 2.89 6.265 7.635c1.327 5.937-.484 10.39-.484 10.39s-5.05-3.868-6.377-7.197c-1.867-4.677.596-10.828.596-10.828ZM796.884 150.204s5.308 2.71 9.841.933c5.658-2.215 8.346-6.207 8.346-6.207s-6.029-2.024-9.538-1.271c-4.926 1.057-8.649 6.545-8.649 6.545ZM802.868 121.227s4.532 3.677 4.746 8.433c.27 5.949-2.238 9.94-2.238 9.94s-4.218-4.587-4.926-8.028c-1.013-4.824 2.418-10.345 2.418-10.345ZM785.502 140.624s4.656 3.519 9.335 2.575c5.837-1.181 9.11-4.566 9.11-4.566s-5.477-2.98-8.986-2.856c-4.926.191-9.459 4.847-9.459 4.847ZM796.051 113.457s3.757 4.318 3.15 8.95c-.754 5.791-3.847 9.21-3.847 9.21s-3.284-5.15-3.397-8.591c-.157-4.824 4.094-9.569 4.094-9.569ZM775.986 129.221s3.903 4.183 8.571 4.071c5.837-.146 9.571-2.856 9.571-2.856s-4.78-3.812-8.188-4.284c-4.791-.664-9.954 3.069-9.954 3.069ZM790.643 104.641s2.89 4.802 1.518 9.176c-1.71 5.453-5.286 8.242-5.286 8.242s-2.295-5.521-1.811-8.861c.664-4.7 5.579-8.557 5.579-8.557ZM768.598 116.448s3.048 4.7 7.58 5.386c5.658.854 9.718-1.136 9.718-1.136s-3.959-4.486-7.176-5.521c-4.51-1.45-10.122 1.271-10.122 1.271ZM786.907 95.072s1.969 5.128-.101 9.108c-2.576 4.981-6.501 7.05-6.501 7.05s-1.271-5.723-.247-8.86c1.451-4.408 6.849-7.298 6.849-7.298ZM763.625 102.707s2.137 5.06 6.388 6.488c5.309 1.788 9.572.562 9.572.562s-3.059-5.003-5.984-6.555c-4.094-2.159-9.976-.495-9.976-.495ZM784.85 85.03s1.023 5.286-1.642 8.772c-3.341 4.362-7.48 5.7-7.48 5.7s-.258-5.745 1.282-8.602c2.137-4.003 7.84-5.87 7.84-5.87ZM761.084 88.439s1.203 5.251 5.061 7.354c4.825 2.63 9.144 2.17 9.144 2.17s-2.103-5.352-4.656-7.343c-3.588-2.788-9.549-2.181-9.549-2.181ZM784.568 74.73s.09 5.274-3.082 8.187c-3.97 3.643-8.176 4.228-8.176 4.228s.731-5.578 2.699-8.085c2.733-3.497 8.559-4.33 8.559-4.33ZM761.039 73.977s.27 5.274 3.644 7.962c4.207 3.362 8.458 3.654 8.458 3.654s-1.113-5.521-3.239-7.871c-3.003-3.317-8.863-3.745-8.863-3.745ZM786.042 64.206s-.81 5.105-4.364 7.376c-4.443 2.845-8.616 2.688-8.616 2.688s1.654-5.263 3.982-7.343c3.239-2.912 8.998-2.72 8.998-2.72ZM763.468 59.472s-.642 5.128 2.159 8.298c3.487 3.959 7.536 4.97 7.536 4.97s-.135-5.52-1.789-8.152c-2.328-3.7-7.906-5.116-7.906-5.116ZM789.337 53.94s-1.642 4.79-5.466 6.375c-4.781 1.99-8.773 1.125-8.773 1.125s2.497-4.802 5.083-6.41c3.633-2.248 9.156-1.09 9.156-1.09ZM768.361 45.529s-1.485 4.846.675 8.377c2.699 4.408 6.433 6.072 6.433 6.072s.81-5.352-.337-8.175c-1.62-3.958-6.771-6.274-6.771-6.274ZM794.432 44.416s-2.407 4.34-6.366 5.229c-4.949 1.101-8.661-.405-8.661-.405s3.228-4.206 5.995-5.319c3.892-1.563 9.032.495 9.032.495ZM775.615 32.733s-2.261 4.419-.776 8.197c1.845 4.723 5.174 6.96 5.174 6.96s1.687-5.026 1.057-7.95c-.877-4.104-5.455-7.207-5.455-7.207ZM801.157 35.937s-3.059 3.778-7.041 3.958c-4.96.225-8.289-1.866-8.289-1.866s3.835-3.509 6.692-4.116c4.027-.832 8.638 2.024 8.638 2.024ZM784.985 21.466s-2.936 3.879-2.149 7.78c.979 4.87 3.813 7.59 3.813 7.59s2.486-4.564 2.373-7.488c-.157-4.104-4.037-7.882-4.037-7.882ZM809.188 28.83s-3.599 3.127-7.468 2.62c-4.825-.629-7.682-3.204-7.682-3.204s4.297-2.732 7.165-2.834c4.015-.123 7.985 3.419 7.985 3.419ZM796.04 12.11s-3.497 3.25-3.396 7.14c.112 4.87 2.384 7.973 2.384 7.973s3.183-3.98 3.577-6.826c.54-3.98-2.565-8.287-2.565-8.287ZM818.277 23.265s-4.004 2.406-7.648 1.259c-4.555-1.428-6.872-4.397-6.872-4.397s4.611-1.911 7.401-1.506c3.891.562 7.119 4.644 7.119 4.644ZM808.435 4.891s-3.925 2.541-4.499 6.32c-.719 4.711.945 8.107.945 8.107s3.746-3.306 4.6-5.982c1.215-3.756-1.046-8.445-1.046-8.445ZM828.027 19.408s-4.274 1.642-7.603-.079c-4.15-2.148-5.882-5.42-5.882-5.42s4.769-1.057 7.401-.202c3.678 1.203 6.084 5.7 6.084 5.7ZM821.661 0s-4.217 1.788-5.409 5.33c-1.496 4.43-.473 7.983-.473 7.983s4.184-2.552 5.466-4.98c1.8-3.42.416-8.333.416-8.333ZM821.842 10.93s3.16 1.788 5.961.82c3.498-1.203 5.23-3.564 5.23-3.564s-3.611-1.383-5.77-1.023c-3.003.528-5.421 3.767-5.421 3.767Z" fill="#FFE84D"/><path d="M870.149 132.572s-5.747 1.979-7.648 6.556c-2.385 5.723-1.35 10.525-1.35 10.525s5.759-2.991 7.682-6.095c2.711-4.363 1.316-10.986 1.316-10.986ZM880.237 157.737s-5.815 1.788-10.055-.798c-5.286-3.227-7.288-7.714-7.288-7.714s6.422-.967 9.807.405c4.758 1.934 7.536 8.107 7.536 8.107ZM879.101 127.636s-5.219 2.89-6.276 7.635c-1.327 5.937.484 10.39.484 10.39s5.05-3.868 6.377-7.197c1.878-4.677-.585-10.828-.585-10.828ZM893.115 150.204s-5.309 2.71-9.842.933c-5.657-2.215-8.345-6.207-8.345-6.207s6.028-2.024 9.537-1.271c4.915 1.057 8.65 6.545 8.65 6.545ZM887.132 121.227s-4.533 3.677-4.746 8.433c-.27 5.948 2.238 9.94 2.238 9.94s4.217-4.587 4.937-8.028c1.001-4.824-2.429-10.345-2.429-10.345ZM904.497 140.624s-4.656 3.519-9.335 2.575c-5.837-1.181-9.11-4.566-9.11-4.566s5.477-2.98 8.986-2.856c4.927.191 9.459 4.847 9.459 4.847ZM893.948 113.457s-3.756 4.318-3.149 8.951c.753 5.791 3.846 9.209 3.846 9.209s3.285-5.15 3.397-8.591c.158-4.824-4.094-9.569-4.094-9.569ZM914.013 129.221s-3.903 4.183-8.57 4.071c-5.838-.146-9.572-2.856-9.572-2.856s4.78-3.812 8.188-4.284c4.78-.664 9.954 3.069 9.954 3.069ZM899.358 104.641s-2.891 4.801-1.519 9.176c1.71 5.453 5.287 8.242 5.287 8.242s2.294-5.521 1.81-8.861c-.663-4.7-5.578-8.557-5.578-8.557ZM921.403 116.448s-3.048 4.7-7.581 5.386c-5.657.854-9.718-1.136-9.718-1.136s3.96-4.486 7.176-5.521c4.51-1.45 10.123 1.271 10.123 1.271ZM903.092 95.072s-1.969 5.128.101 9.108c2.575 4.981 6.501 7.05 6.501 7.05s1.271-5.723.247-8.86c-1.451-4.408-6.849-7.298-6.849-7.298ZM926.373 102.707s-2.137 5.06-6.399 6.488c-5.32 1.788-9.572.562-9.572.562s3.06-5.003 5.973-6.555c4.116-2.159 9.998-.495 9.998-.495ZM905.15 85.03s-1.023 5.286 1.642 8.771c3.341 4.363 7.48 5.701 7.48 5.701s.258-5.745-1.271-8.602c-2.148-4.003-7.851-5.87-7.851-5.87ZM928.926 88.438s-1.203 5.251-5.072 7.354c-4.825 2.631-9.144 2.17-9.144 2.17s2.103-5.352 4.656-7.343c3.588-2.788 9.56-2.181 9.56-2.181ZM905.431 74.731s-.09 5.274 3.082 8.186c3.959 3.643 8.176 4.228 8.176 4.228s-.731-5.577-2.699-8.085c-2.744-3.497-8.559-4.329-8.559-4.329ZM928.96 73.978s-.27 5.273-3.633 7.96c-4.206 3.363-8.458 3.655-8.458 3.655s1.114-5.521 3.239-7.871c2.992-3.317 8.852-3.744 8.852-3.744ZM903.958 64.206s.81 5.105 4.364 7.376c4.443 2.845 8.615 2.688 8.615 2.688s-1.653-5.263-3.981-7.343c-3.239-2.912-8.998-2.72-8.998-2.72ZM926.531 59.472s.641 5.128-2.159 8.299c-3.487 3.958-7.536 4.97-7.536 4.97s.135-5.521 1.788-8.153c2.328-3.7 7.907-5.116 7.907-5.116ZM900.662 53.94s1.653 4.79 5.478 6.375c4.78 1.99 8.772 1.125 8.772 1.125s-2.497-4.802-5.083-6.41c-3.645-2.248-9.167-1.09-9.167-1.09ZM921.639 45.529s1.484 4.846-.675 8.377c-2.7 4.408-6.434 6.072-6.434 6.072s-.809-5.352.338-8.175c1.619-3.958 6.771-6.274 6.771-6.274ZM895.567 44.416s2.407 4.34 6.366 5.229c4.949 1.101 8.661-.405 8.661-.405s-3.228-4.206-5.995-5.319c-3.903-1.563-9.032.495-9.032.495ZM914.384 32.733s2.261 4.419.788 8.197c-1.845 4.723-5.174 6.96-5.174 6.96s-1.687-5.026-1.057-7.95c.866-4.104 5.443-7.207 5.443-7.207ZM888.842 35.937s3.059 3.778 7.029 3.958c4.96.225 8.29-1.866 8.29-1.866s-3.836-3.509-6.693-4.116c-4.015-.832-8.626 2.024-8.626 2.024ZM905.015 21.466s2.935 3.879 2.148 7.78c-.978 4.87-3.813 7.59-3.813 7.59s-2.485-4.564-2.384-7.488c.169-4.104 4.049-7.882 4.049-7.882ZM880.812 28.83s3.599 3.127 7.468 2.62c4.825-.629 7.682-3.204 7.682-3.204s-4.297-2.732-7.165-2.834c-4.026-.123-7.985 3.419-7.985 3.419ZM893.96 12.11s3.497 3.25 3.396 7.14c-.112 4.87-2.384 7.973-2.384 7.973s-3.183-3.98-3.566-6.826c-.551-3.98 2.554-8.287 2.554-8.287ZM871.724 23.265s4.004 2.406 7.648 1.259c4.555-1.428 6.872-4.397 6.872-4.397s-4.612-1.911-7.401-1.506c-3.903.562-7.119 4.644-7.119 4.644ZM881.565 4.891s3.925 2.541 4.499 6.32c.72 4.711-.945 8.107-.945 8.107s-3.745-3.306-4.6-5.982c-1.215-3.756 1.046-8.445 1.046-8.445ZM861.972 19.408s4.285 1.642 7.603-.079c4.15-2.148 5.882-5.42 5.882-5.42s-4.769-1.057-7.389-.202c-3.689 1.203-6.096 5.7-6.096 5.7ZM868.337 0s4.229 1.788 5.422 5.33c1.484 4.43.472 7.983.472 7.983s-4.173-2.552-5.466-4.98c-1.811-3.42-.428-8.333-.428-8.333ZM868.147 10.93s-3.16 1.788-5.961.82c-3.498-1.203-5.23-3.564-5.23-3.564s3.622-1.383 5.77-1.023c3.014.528 5.421 3.767 5.421 3.767Z" fill="#FFE84D"/><path d="M792.531 55.964h2.564v12.819h-2.564V55.964Z" fill="url(#f)"/><path d="M806.928 55.964v12.819h-2.767l-4.724-8.749v8.748h-2.407V55.965h2.767l4.724 8.748v-8.748h2.407Z" fill="url(#g)"/><path d="M814.306 58.348v10.434h-2.565V58.349h-3.351v-2.384h9.267v2.384h-3.351Z" fill="url(#h)"/><path d="M827.499 55.964v2.417h-5.826v2.632h4.724v2.417h-4.724v2.924h5.826v2.417h-8.391V55.952h8.391v.012Z" fill="url(#i)"/><path d="m835.856 68.782-2.07-4.756h-2.069v4.757h-2.565v-12.82h6.535c1.496 0 2.531 1.035 2.531 2.53v3.014c0 1.215-.675 2.114-1.744 2.418l2.137 4.858h-2.755Zm-.191-9.793c0-.394-.214-.608-.608-.608h-3.329v3.261h3.329c.394 0 .608-.213.608-.607v-2.046Z" fill="url(#j)"/><path d="M842.312 68.782h-2.655l4.128-12.818h2.992l4.127 12.819h-2.766l-.833-2.89h-4.15l-.843 2.89Zm1.574-5.307h2.745l-1.35-4.7-1.395 4.7Z" fill="url(#k)"/><path d="M858.452 58.921c0-.393-.214-.607-.608-.607h-2.778c-.393 0-.607.214-.607.607v6.916c0 .393.214.607.607.607h2.778c.394 0 .608-.214.608-.608v-1.563h2.564v2.07c0 1.495-1.035 2.53-2.531 2.53h-4.06c-1.496 0-2.53-1.035-2.53-2.53v-7.905c0-1.496 1.034-2.53 2.53-2.53h4.06c1.496 0 2.531 1.034 2.531 2.53v2.069h-2.564V58.92Z" fill="url(#l)"/><path d="M868.136 58.348v10.434h-2.565V58.349h-3.351v-2.384h9.267v2.384h-3.351Z" fill="url(#m)"/><path d="M872.938 55.964h2.563v12.819h-2.563v-12.82Z" fill="url(#n)"/><path d="M883.769 68.782h-2.992l-3.903-12.818h2.924l2.475 9.737 2.553-9.737h2.845l-3.902 12.819Z" fill="url(#o)"/><path d="M897.469 55.964v2.417h-5.827v2.632h4.724v2.417h-4.724v2.924h5.827v2.417h-8.391V55.952h8.391v.012Z" fill="url(#p)"/><path d="M809.819 84.188H807.4v-8.546l-2.778 6.499h-1.855l-2.779-6.5v8.546h-2.418V71.37h2.812l3.318 7.511 3.318-7.511h2.812v12.819h-.011ZM813.857 84.188h-2.655l4.128-12.82h2.992l4.127 12.82h-2.766l-.833-2.89h-4.15l-.843 2.89Zm1.574-5.308h2.744l-1.349-4.7-1.395 4.7ZM830.547 84.188l-2.069-4.757h-2.07v4.757h-2.564v-12.82h6.534c1.496 0 2.531 1.035 2.531 2.53v3.014c0 1.215-.675 2.114-1.743 2.418l2.137 4.858h-2.756Zm-.191-9.794c0-.394-.214-.608-.607-.608h-3.33v3.261h3.33c.393 0 .607-.213.607-.607v-2.046ZM837.442 80.915v3.272h-2.531V71.37h2.531v6.016l4.431-6.016h3.014l-3.936 5.06 4.128 7.77h-2.891l-2.958-5.578-1.788 2.294ZM854.852 71.369v2.417h-5.826v2.632h4.724v2.417h-4.724v2.924h5.826v2.417h-8.39V71.357h8.39v.012ZM861.949 73.753v10.434h-2.564V73.754h-3.352v-2.384h9.268v2.384h-3.352ZM866.752 71.369h2.564v12.819h-2.564v-12.82ZM881.148 71.369v12.819h-2.767l-4.724-8.749v8.749h-2.395v-12.82h2.767l4.723 8.749v-8.748h2.396ZM889.674 74.326c0-.393-.214-.607-.608-.607h-2.935c-.394 0-.608.214-.608.607v6.916c0 .393.214.607.608.607h2.935c.394 0 .608-.214.608-.608V79.33h-2.351v-2.316h4.915v4.722c0 1.496-1.035 2.53-2.531 2.53h-4.217c-1.496 0-2.531-1.034-2.531-2.53v-7.905c0-1.495 1.035-2.53 2.531-2.53h4.217c1.496 0 2.531 1.035 2.531 2.53v1.676h-2.564v-1.18ZM812.528 99.593h-2.654l4.128-12.82h2.992l4.127 12.82h-2.767l-.832-2.89h-4.15l-.844 2.89Zm1.575-5.308h2.744l-1.349-4.7-1.395 4.7ZM830.333 99.593l-2.103-8.445-2.103 8.445h-2.531l-3.183-12.82h2.744l1.744 9.368 2.317-9.367h2.024l2.317 9.367 1.743-9.367h2.632l-3.183 12.819h-2.418ZM837.892 99.593h-2.655l4.128-12.82h2.992l4.128 12.82h-2.767l-.833-2.89h-4.15l-.843 2.89Zm1.574-5.308h2.745l-1.35-4.7-1.395 4.7ZM854.583 99.593l-2.07-4.757h-2.058v4.757h-2.564v-12.82h6.534c1.496 0 2.531 1.035 2.531 2.53v3.014c0 1.215-.675 2.114-1.743 2.418l2.137 4.858h-2.767Zm-.191-9.794c0-.394-.214-.608-.608-.608h-3.329v3.261h3.329c.394 0 .608-.213.608-.607V89.8ZM865.627 86.774c1.496 0 2.531 1.034 2.531 2.53v7.77c0 1.495-1.035 2.53-2.531 2.53h-6.681V86.785h6.681v-.011Zm-.641 10.401c.394 0 .607-.214.607-.607v-6.77c0-.393-.213-.607-.607-.607h-3.475v7.984h3.475ZM876.109 89.731c0-.393-.214-.607-.607-.607h-2.565c-.393 0-.607.214-.607.607v1.215c0 .393.214.517.607.607l3.318.708c1.395.304 2.565 1.136 2.565 2.564v2.316c0 1.496-1.035 2.53-2.531 2.53h-3.993c-1.496 0-2.53-1.034-2.53-2.53V95.5h2.497v1.135c0 .394.213.608.607.608h2.778c.394 0 .607-.214.607-.608v-1.35c0-.393-.213-.516-.607-.606l-3.318-.709c-1.395-.303-2.564-1.135-2.564-2.563v-2.17c0-1.496 1.034-2.53 2.53-2.53h3.779c1.496 0 2.531 1.034 2.531 2.53v1.495h-2.497v-1Z" fill="#fff"/><path d="M830.536 114.997h-4.263v-4.306c0-1.428 1.215-2.103 2.565-2.564l3.059-1.068c.461-.158.709-.248.709-.709v-1.102c0-.461-.248-.708-.709-.708h-.843v-2.44h1.552a2.549 2.549 0 0 1 2.564 2.564v2.249c0 1.428-1.215 2.102-2.564 2.563l-3.06 1.069c-.461.157-.708.247-.708.708v1.316h1.687v2.428h.011Zm-4.116-10.333a2.549 2.549 0 0 1 2.564-2.564h1.552v2.417h-.911c-.461 0-.708.248-.708.709v.821h-2.497v-1.383Zm4.656 10.333v-2.417h4.15v2.417h-4.15Z" fill="url(#q)"/><path d="M839.882 104.529c-.394 0-.608.213-.608.607v6.915c0 .394.214.607.608.607h1.091v2.418h-1.732c-1.496 0-2.531-1.034-2.531-2.53v-7.905c0-1.495 1.035-2.53 2.531-2.53h1.732v2.418h-1.091Zm3.374-2.429c1.496 0 2.531 1.034 2.531 2.53v7.905c0 1.495-1.035 2.53-2.531 2.53h-1.743v-2.418h1.102c.393 0 .607-.213.607-.607v-6.904c0-.394-.214-.607-.607-.607h-1.102V102.1h1.743Z" fill="url(#r)"/><path d="m849.578 104.844-2.34.82v-2.136l2.868-1.349h2.036v12.818h-2.564v-10.153Z" fill="url(#s)"/><path d="M859.789 112.647c.462 0 .709-.247.709-.708v-3.104l-.36.338c-.394.371-1.068.978-2.036.978h-1.518a2.549 2.549 0 0 1-2.564-2.564v-2.923a2.549 2.549 0 0 1 2.564-2.564h1.676v2.417h-.945c-.461 0-.709.248-.709.709v1.923c0 .461.248.708.709.708h1.046c.495 0 1.158-.112 1.777-.483l.36-.214v-1.945c0-.461-.247-.709-.709-.709h-.978V102.1h1.687a2.549 2.549 0 0 1 2.564 2.564v7.837a2.549 2.549 0 0 1-2.564 2.564h-1.608v-2.418h.899Zm-3.036 2.418a2.55 2.55 0 0 1-2.565-2.564v-1.169h2.565v.607c0 .461.247.708.708.708h.889v2.418h-1.597Z" fill="url(#t)"/></g></g></g><defs><linearGradient id="f" x1="853.081" y1="2.388" x2="782.803" y2="73.51" gradientUnits="userSpaceOnUse"><stop offset=".001" stop-color="#92CAA7"/><stop offset=".114" stop-color="#95C6A8"/><stop offset=".232" stop-color="#9EB9AA"/><stop offset=".352" stop-color="#AEA5AF"/><stop offset=".472" stop-color="#C388B4"/><stop offset=".5" stop-color="#C980B6"/><stop offset=".549" stop-color="#BA7AB3"/><stop offset=".664" stop-color="#9D6EAE"/><stop offset=".779" stop-color="#8966AA"/><stop offset=".891" stop-color="#7C61A8"/><stop offset="1" stop-color="#785FA7"/></linearGradient><linearGradient id="g" x1="857.232" y1="6.473" x2="786.954" y2="77.612" gradientUnits="userSpaceOnUse"><stop offset=".001" stop-color="#92CAA7"/><stop offset=".114" stop-color="#95C6A8"/><stop offset=".232" stop-color="#9EB9AA"/><stop offset=".352" stop-color="#AEA5AF"/><stop offset=".472" stop-color="#C388B4"/><stop offset=".5" stop-color="#C980B6"/><stop offset=".549" stop-color="#BA7AB3"/><stop offset=".664" stop-color="#9D6EAE"/><stop offset=".779" stop-color="#8966AA"/><stop offset=".891" stop-color="#7C61A8"/><stop offset="1" stop-color="#785FA7"/></linearGradient><linearGradient id="h" x1="861.97" y1="11.154" x2="791.692" y2="82.293" gradientUnits="userSpaceOnUse"><stop offset=".001" stop-color="#92CAA7"/><stop offset=".114" stop-color="#95C6A8"/><stop offset=".232" stop-color="#9EB9AA"/><stop offset=".352" stop-color="#AEA5AF"/><stop offset=".472" stop-color="#C388B4"/><stop offset=".5" stop-color="#C980B6"/><stop offset=".549" stop-color="#BA7AB3"/><stop offset=".664" stop-color="#9D6EAE"/><stop offset=".779" stop-color="#8966AA"/><stop offset=".891" stop-color="#7C61A8"/><stop offset="1" stop-color="#785FA7"/></linearGradient><linearGradient id="i" x1="868.02" y1="17.131" x2="797.742" y2="88.27" gradientUnits="userSpaceOnUse"><stop offset=".001" stop-color="#92CAA7"/><stop offset=".114" stop-color="#95C6A8"/><stop offset=".232" stop-color="#9EB9AA"/><stop offset=".352" stop-color="#AEA5AF"/><stop offset=".472" stop-color="#C388B4"/><stop offset=".5" stop-color="#C980B6"/><stop offset=".549" stop-color="#BA7AB3"/><stop offset=".664" stop-color="#9D6EAE"/><stop offset=".779" stop-color="#8966AA"/><stop offset=".891" stop-color="#7C61A8"/><stop offset="1" stop-color="#785FA7"/></linearGradient><linearGradient id="j" x1="873.376" y1="22.422" x2="803.098" y2="93.561" gradientUnits="userSpaceOnUse"><stop offset=".001" stop-color="#92CAA7"/><stop offset=".114" stop-color="#95C6A8"/><stop offset=".232" stop-color="#9EB9AA"/><stop offset=".352" stop-color="#AEA5AF"/><stop offset=".472" stop-color="#C388B4"/><stop offset=".5" stop-color="#C980B6"/><stop offset=".549" stop-color="#BA7AB3"/><stop offset=".664" stop-color="#9D6EAE"/><stop offset=".779" stop-color="#8966AA"/><stop offset=".891" stop-color="#7C61A8"/><stop offset="1" stop-color="#785FA7"/></linearGradient><linearGradient id="k" x1="880.19" y1="29.154" x2="809.912" y2="100.293" gradientUnits="userSpaceOnUse"><stop offset=".001" stop-color="#92CAA7"/><stop offset=".114" stop-color="#95C6A8"/><stop offset=".232" stop-color="#9EB9AA"/><stop offset=".352" stop-color="#AEA5AF"/><stop offset=".472" stop-color="#C388B4"/><stop offset=".5" stop-color="#C980B6"/><stop offset=".549" stop-color="#BA7AB3"/><stop offset=".664" stop-color="#9D6EAE"/><stop offset=".779" stop-color="#8966AA"/><stop offset=".891" stop-color="#7C61A8"/><stop offset="1" stop-color="#785FA7"/></linearGradient><linearGradient id="l" x1="884.794" y1="33.702" x2="814.516" y2="104.84" gradientUnits="userSpaceOnUse"><stop offset=".001" stop-color="#92CAA7"/><stop offset=".114" stop-color="#95C6A8"/><stop offset=".232" stop-color="#9EB9AA"/><stop offset=".352" stop-color="#AEA5AF"/><stop offset=".472" stop-color="#C388B4"/><stop offset=".5" stop-color="#C980B6"/><stop offset=".549" stop-color="#BA7AB3"/><stop offset=".664" stop-color="#9D6EAE"/><stop offset=".779" stop-color="#8966AA"/><stop offset=".891" stop-color="#7C61A8"/><stop offset="1" stop-color="#785FA7"/></linearGradient><linearGradient id="m" x1="889.204" y1="38.059" x2="818.926" y2="109.197" gradientUnits="userSpaceOnUse"><stop offset=".001" stop-color="#92CAA7"/><stop offset=".114" stop-color="#95C6A8"/><stop offset=".232" stop-color="#9EB9AA"/><stop offset=".352" stop-color="#AEA5AF"/><stop offset=".472" stop-color="#C388B4"/><stop offset=".5" stop-color="#C980B6"/><stop offset=".549" stop-color="#BA7AB3"/><stop offset=".664" stop-color="#9D6EAE"/><stop offset=".779" stop-color="#8966AA"/><stop offset=".891" stop-color="#7C61A8"/><stop offset="1" stop-color="#785FA7"/></linearGradient><linearGradient id="n" x1="893.775" y1="42.58" x2="823.497" y2="113.701" gradientUnits="userSpaceOnUse"><stop offset=".001" stop-color="#92CAA7"/><stop offset=".114" stop-color="#95C6A8"/><stop offset=".232" stop-color="#9EB9AA"/><stop offset=".352" stop-color="#AEA5AF"/><stop offset=".472" stop-color="#C388B4"/><stop offset=".5" stop-color="#C980B6"/><stop offset=".549" stop-color="#BA7AB3"/><stop offset=".664" stop-color="#9D6EAE"/><stop offset=".779" stop-color="#8966AA"/><stop offset=".891" stop-color="#7C61A8"/><stop offset="1" stop-color="#785FA7"/></linearGradient><linearGradient id="o" x1="896.871" y1="45.633" x2="826.593" y2="116.772" gradientUnits="userSpaceOnUse"><stop offset=".001" stop-color="#92CAA7"/><stop offset=".114" stop-color="#95C6A8"/><stop offset=".232" stop-color="#9EB9AA"/><stop offset=".352" stop-color="#AEA5AF"/><stop offset=".472" stop-color="#C388B4"/><stop offset=".5" stop-color="#C980B6"/><stop offset=".549" stop-color="#BA7AB3"/><stop offset=".664" stop-color="#9D6EAE"/><stop offset=".779" stop-color="#8966AA"/><stop offset=".891" stop-color="#7C61A8"/><stop offset="1" stop-color="#785FA7"/></linearGradient><linearGradient id="p" x1="903.422" y1="52.105" x2="833.145" y2="123.243" gradientUnits="userSpaceOnUse"><stop offset=".001" stop-color="#92CAA7"/><stop offset=".114" stop-color="#95C6A8"/><stop offset=".232" stop-color="#9EB9AA"/><stop offset=".352" stop-color="#AEA5AF"/><stop offset=".472" stop-color="#C388B4"/><stop offset=".5" stop-color="#C980B6"/><stop offset=".549" stop-color="#BA7AB3"/><stop offset=".664" stop-color="#9D6EAE"/><stop offset=".779" stop-color="#8966AA"/><stop offset=".891" stop-color="#7C61A8"/><stop offset="1" stop-color="#785FA7"/></linearGradient><linearGradient id="q" x1="895.295" y1="44.075" x2="825.017" y2="115.214" gradientUnits="userSpaceOnUse"><stop offset=".001" stop-color="#92CAA7"/><stop offset=".114" stop-color="#95C6A8"/><stop offset=".232" stop-color="#9EB9AA"/><stop offset=".352" stop-color="#AEA5AF"/><stop offset=".472" stop-color="#C388B4"/><stop offset=".5" stop-color="#C980B6"/><stop offset=".549" stop-color="#BA7AB3"/><stop offset=".664" stop-color="#9D6EAE"/><stop offset=".779" stop-color="#8966AA"/><stop offset=".891" stop-color="#7C61A8"/><stop offset="1" stop-color="#785FA7"/></linearGradient><linearGradient id="r" x1="900.21" y1="48.933" x2="829.933" y2="120.071" gradientUnits="userSpaceOnUse"><stop offset=".001" stop-color="#92CAA7"/><stop offset=".114" stop-color="#95C6A8"/><stop offset=".232" stop-color="#9EB9AA"/><stop offset=".352" stop-color="#AEA5AF"/><stop offset=".472" stop-color="#C388B4"/><stop offset=".5" stop-color="#C980B6"/><stop offset=".549" stop-color="#BA7AB3"/><stop offset=".664" stop-color="#9D6EAE"/><stop offset=".779" stop-color="#8966AA"/><stop offset=".891" stop-color="#7C61A8"/><stop offset="1" stop-color="#785FA7"/></linearGradient><linearGradient id="s" x1="904.82" y1="53.485" x2="834.542" y2="124.624" gradientUnits="userSpaceOnUse"><stop offset=".001" stop-color="#92CAA7"/><stop offset=".114" stop-color="#95C6A8"/><stop offset=".232" stop-color="#9EB9AA"/><stop offset=".352" stop-color="#AEA5AF"/><stop offset=".472" stop-color="#C388B4"/><stop offset=".5" stop-color="#C980B6"/><stop offset=".549" stop-color="#BA7AB3"/><stop offset=".664" stop-color="#9D6EAE"/><stop offset=".779" stop-color="#8966AA"/><stop offset=".891" stop-color="#7C61A8"/><stop offset="1" stop-color="#785FA7"/></linearGradient><linearGradient id="t" x1="908.967" y1="57.583" x2="838.689" y2="128.722" gradientUnits="userSpaceOnUse"><stop offset=".001" stop-color="#92CAA7"/><stop offset=".114" stop-color="#95C6A8"/><stop offset=".232" stop-color="#9EB9AA"/><stop offset=".352" stop-color="#AEA5AF"/><stop offset=".472" stop-color="#C388B4"/><stop offset=".5" stop-color="#C980B6"/><stop offset=".549" stop-color="#BA7AB3"/><stop offset=".664" stop-color="#9D6EAE"/><stop offset=".779" stop-color="#8966AA"/><stop offset=".891" stop-color="#7C61A8"/><stop offset="1" stop-color="#785FA7"/></linearGradient><clipPath id="a"><path fill="#fff" d="M0 0h930v164.925H0z"/></clipPath><clipPath id="b"><path fill="#fff" d="M0 0h930v164.925H0z"/></clipPath><clipPath id="c"><path fill="#fff" transform="translate(380)" d="M0 0h170v164.925H0z"/></clipPath><clipPath id="d"><path fill="#fff" transform="translate(570)" d="M0 0h170v164.925H0z"/></clipPath><clipPath id="e"><path fill="#fff" transform="translate(760)" d="M0 0h170v164.925H0z"/></clipPath></defs></svg>