<svg width="140" height="140" viewBox="0 0 140 140" fill="none" xmlns="http://www.w3.org/2000/svg">
<path d="M53.3946 2.61287L3.54787 52.4596C3.03767 52.9698 2.75195 53.6637 2.75195 54.383V135.709C2.75195 136.561 3.44073 137.25 4.29276 137.25H85.6189C86.3383 137.25 87.0322 136.964 87.5424 136.454L137.389 86.6074C137.741 86.2553 137.904 85.7553 137.828 85.2655C134.598 65.1279 125.226 45.8014 109.711 30.2913C94.1954 14.7812 74.8741 5.40367 54.7364 2.1741C54.2466 2.09247 53.7466 2.26083 53.3946 2.61287Z" fill="white"/>
<path d="M25.2061 27.4648C21.4817 27.7505 10.8695 28.2607 10.8695 28.2607C6.76746 28.6638 3.60421 32.0515 3.44094 36.1688C3.18584 42.5719 2.95115 48.9494 2.75217 55.3269C2.08381 76.5564 1.83381 97.6787 2.75727 119.087C2.94095 123.424 5.3593 127.393 14.747 126.225" fill="white"/>
<path d="M25.2061 27.4648C21.4817 27.7505 10.8695 28.2607 10.8695 28.2607C6.76746 28.6638 3.60421 32.0515 3.44094 36.1688C3.18584 42.5719 2.95115 48.9494 2.75217 55.3269C2.08381 76.5564 1.83381 97.6787 2.75727 119.087C2.94095 123.424 5.3593 127.393 14.747 126.225" stroke="black" stroke-width="1.07692" stroke-miterlimit="10" stroke-linecap="round" stroke-linejoin="round"/>
<path d="M117.165 101.827L111.186 100.158C111.186 100.158 102.288 107.495 99.2316 110.556C98.3132 109.26 97.5071 107.658 96.803 105.873C96.7979 105.862 96.7928 105.852 96.7928 105.842C95.599 102.286 94.6143 98.6583 93.849 94.99C93.849 94.9594 93.8439 94.9288 93.8337 94.8981C92.6959 89.4033 92.048 83.8115 91.9051 78.2043C91.9 78.0309 91.8949 77.939 91.8949 77.939C91.8694 76.7758 91.8643 75.6074 91.8796 74.4442C85.5531 68.6687 81.65 59.735 81.9817 49.8371C82.0429 48.0055 82.247 46.2198 82.5786 44.4902C58.2777 43.8321 34.1962 45.1535 10.0841 48.4698C9.53814 48.5412 8.21672 48.73 7.01264 48.9035C6.98203 49.7351 6.96162 50.5769 6.93101 51.4137C6.25244 74.036 6.12489 96.5257 6.77795 119.225C6.9004 123.459 10.5994 126.648 14.7422 126.225C14.7575 126.219 14.7728 126.219 14.7881 126.219C14.9514 126.194 15.1197 126.179 15.283 126.153C46.6145 120.648 78.4511 116.765 110.15 114.174C110.374 114.153 110.609 114.133 110.834 114.117C114.221 113.837 116.925 111.117 117.058 107.72L117.242 101.862L117.165 101.827Z" fill="white" stroke="black" stroke-width="1.07692" stroke-miterlimit="10" stroke-linecap="round" stroke-linejoin="round"/>
<path d="M20.277 64.2814C22.3852 64.0851 25.3903 63.8693 28.7258 63.6052L28.6508 56.929C25.2053 57.2091 22.3103 57.4088 20.0919 57.6212C18.204 57.7854 16.7593 59.4452 16.7939 61.2234C16.9547 63.0946 18.4991 64.4295 20.277 64.2814Z" stroke="black" stroke-width="1.07692" stroke-miterlimit="10" stroke-linecap="round" stroke-linejoin="round"/>
<path d="M43.5434 74.8419C46.989 74.5618 50.3245 74.2977 53.4397 74.0659C53.5498 74.0498 53.5498 74.0498 53.6599 74.0337C55.4218 73.7765 56.7723 72.2419 56.7377 70.4637C56.6871 68.5764 55.1426 67.2415 53.2546 67.4057C50.2495 67.6215 46.9141 67.8855 43.4685 68.1656L43.5434 74.8419Z" fill="black" stroke="black" stroke-width="1.07692" stroke-miterlimit="10" stroke-linecap="round" stroke-linejoin="round"/>
<path d="M19.5047 76.5684C24.618 76.1562 34.31 75.5215 43.5455 74.8419L43.4706 68.1656C34.2351 68.8452 24.5431 69.48 19.3197 69.9082C17.4317 70.0724 15.987 71.7322 16.0217 73.5104C16.0723 75.3977 17.6167 76.7325 19.5047 76.5684Z" stroke="black" stroke-width="1.07692" stroke-miterlimit="10" stroke-linecap="round" stroke-linejoin="round"/>
<path d="M28.7262 63.6053C36.5143 63.0256 46.4265 62.3587 54.2145 61.779C54.3247 61.7629 54.3246 61.7629 54.4348 61.7468C56.1967 61.4896 57.5472 59.955 57.5125 58.1768C57.4619 56.2895 55.9175 54.9546 54.0295 55.1188C46.3515 55.6824 36.3292 56.3654 28.6513 56.929L28.7262 63.6053Z" fill="black" stroke="black" stroke-width="1.07692" stroke-miterlimit="10" stroke-linecap="round" stroke-linejoin="round"/>
<path d="M20.3281 87.1481L20.2417 114.702" stroke="black" stroke-width="1.07692" stroke-miterlimit="10" stroke-linecap="round" stroke-linejoin="round"/>
<path d="M23.7704 111.202C24.2938 112.603 24.053 114.266 22.9767 115.362C22.2802 116.071 21.4526 116.397 20.5583 116.405C19.9829 116.346 19.1507 116.162 18.3774 115.402L18.313 115.339C17.0219 113.817 17.0005 111.39 18.3934 109.972C19.0265 109.328 19.9174 108.937 20.7484 108.993C21.3239 109.052 22.156 109.236 22.9293 109.996L22.9937 110.059C23.3159 110.376 23.5748 110.757 23.7704 111.202Z" fill="white"/>
<path d="M18.3755 115.275C17.0844 113.753 17.063 111.326 18.4559 109.908C19.089 109.264 19.9799 108.873 20.8109 108.929C21.3864 108.988 22.2185 109.172 22.9918 109.932L23.0562 109.995C23.3784 110.312 23.574 110.757 23.7696 111.203C24.293 112.604 24.0522 114.267 22.9758 115.362C22.2794 116.071 21.4518 116.398 20.5575 116.406C19.982 116.347 19.1499 116.163 18.3766 115.403C18.4399 115.338 18.3755 115.275 18.3755 115.275Z" stroke="black" stroke-width="1.07692" stroke-miterlimit="10" stroke-linecap="round" stroke-linejoin="round"/>
<path d="M40.7188 84.655L40.6323 112.208" stroke="black" stroke-width="1.07692" stroke-miterlimit="10" stroke-linecap="round" stroke-linejoin="round"/>
<path d="M44.161 96.5939C44.6845 97.9947 44.4436 99.6578 43.3673 100.753C42.6708 101.462 41.8432 101.789 40.9489 101.797C40.3735 101.738 39.5414 101.554 38.7681 100.794L38.7036 100.731C37.4125 99.2088 37.3911 96.7815 38.784 95.3637C39.4171 94.7193 40.3081 94.3282 41.139 94.3847C41.7145 94.4435 42.5466 94.6278 43.3199 95.3876L43.3844 95.4509C43.7066 95.7675 43.9655 96.1485 44.161 96.5939Z" stroke="black" stroke-width="1.07692" stroke-miterlimit="10" stroke-linecap="round" stroke-linejoin="round"/>
<path d="M38.7661 100.667C37.475 99.1448 37.4536 96.7174 38.8465 95.2997C39.4796 94.6553 40.3706 94.2641 41.2015 94.3207C41.777 94.3795 42.6091 94.5638 43.3824 95.3236L43.4469 95.3869C43.7691 95.7034 43.9646 96.1489 44.1602 96.5943C44.6837 97.9951 44.4428 99.6582 43.3665 100.754C42.67 101.463 41.8424 101.789 40.9481 101.797C40.3727 101.738 39.5406 101.554 38.7673 100.794C38.8306 100.73 38.7661 100.667 38.7661 100.667Z" fill="white" stroke="black" stroke-width="1.07692" stroke-miterlimit="10" stroke-linecap="round" stroke-linejoin="round"/>
<path d="M61.2109 81.4962L61.1245 109.05" stroke="black" stroke-width="1.07692" stroke-miterlimit="10" stroke-linecap="round" stroke-linejoin="round"/>
<path d="M64.6552 88.7932C65.1786 90.194 64.9378 91.8571 63.8614 92.9526C63.165 93.6615 62.3374 93.9882 61.4431 93.9961C60.8676 93.9373 60.0355 93.753 59.2622 92.9932L59.1978 92.9299C57.9067 91.4081 57.8852 88.9807 59.2782 87.563C59.9113 86.9186 60.8022 86.5274 61.6332 86.584C62.2086 86.6428 63.0407 86.8271 63.8141 87.5869L63.8785 87.6502C64.2007 87.9667 64.4596 88.3478 64.6552 88.7932Z" fill="white"/>
<path d="M59.2603 92.8659C57.9692 91.3441 57.9477 88.9167 59.3407 87.499C59.9738 86.8546 60.8647 86.4634 61.6957 86.52C62.2711 86.5788 63.1032 86.7631 63.8766 87.5228L63.941 87.5861C64.2632 87.9027 64.4588 88.3482 64.6544 88.7936C65.1778 90.1944 64.937 91.8575 63.8606 92.953C63.1642 93.6619 62.3366 93.9886 61.4423 93.9965C60.8668 93.9377 60.0347 93.7534 59.2614 92.9936C59.3247 92.9292 59.2603 92.8659 59.2603 92.8659Z" stroke="black" stroke-width="1.07692" stroke-miterlimit="10" stroke-linecap="round" stroke-linejoin="round"/>
<path d="M81.4902 78.4785L81.4038 106.032" stroke="black" stroke-width="1.07692" stroke-miterlimit="10" stroke-linecap="round" stroke-linejoin="round"/>
<path d="M84.9345 91.4266C85.4579 92.8274 85.2171 94.4905 84.1407 95.586C83.4443 96.2948 82.6167 96.6216 81.7224 96.6295C81.1469 96.5706 80.3148 96.3863 79.5415 95.6266L79.4771 95.5633C78.186 94.0415 78.1645 91.6141 79.5574 90.1964C80.1906 89.552 81.0815 89.1608 81.9125 89.2174C82.4879 89.2762 83.32 89.4605 84.0933 90.2202L84.1578 90.2835C84.48 90.6001 84.7389 90.9811 84.9345 91.4266Z" fill="white"/>
<path d="M79.5396 95.4992C78.2485 93.9774 78.227 91.5501 79.6199 90.1324C80.2531 89.4879 81.144 89.0968 81.975 89.1533C82.5504 89.2121 83.3825 89.3964 84.1558 90.1562L84.2203 90.2195C84.5425 90.5361 84.7381 90.9815 84.9337 91.427C85.4571 92.8278 85.2162 94.4909 84.1399 95.5864C83.4435 96.2952 82.6159 96.622 81.7216 96.6299C81.1461 96.5711 80.314 96.3868 79.5407 95.627C79.604 95.5625 79.5396 95.4992 79.5396 95.4992Z" stroke="black" stroke-width="1.07692" stroke-miterlimit="10" stroke-linecap="round" stroke-linejoin="round"/>
<path d="M120.491 55.179L120.124 55.7861L119.348 64.0922L109.629 61.9035L100.501 64.8167L99.4553 54.4545L94.9961 46.9086L103.17 43.0668C104.613 40.9699 105.95 39.1842 107.343 37.4546C112.491 42.9648 116.868 48.9188 120.491 55.179Z" fill="white"/>
<path d="M23.2459 36.6332C23.251 36.4495 23.2714 36.2709 23.3122 36.0975L25.6285 33.9342C25.7152 33.9291 25.8071 33.924 25.8989 33.9291C27.3173 33.975 28.4142 35.2658 28.3632 36.8067C28.3122 38.3475 27.1285 39.5515 25.7101 39.5056C24.2918 39.4546 23.1948 38.174 23.2459 36.6332Z" fill="white"/>
<path d="M32.6755 36.1179C32.7265 34.5771 33.9153 33.3679 35.3286 33.4138C36.7418 33.4597 37.8439 34.7505 37.7928 36.2913C37.7418 37.8322 36.5531 39.0362 35.1398 38.9903C33.7316 38.9393 32.6245 37.6587 32.6755 36.1179Z" fill="white"/>
<path d="M117.276 99.4695C117.24 105.168 117.266 101.862 117.057 107.699C117.057 107.704 117.057 107.709 117.057 107.714" stroke="black" stroke-width="1.07692" stroke-miterlimit="10" stroke-linecap="round" stroke-linejoin="round"/>
<path d="M15.282 126.148C15.1187 126.179 14.9555 126.199 14.7871 126.219" stroke="black" stroke-width="1.07692" stroke-miterlimit="10" stroke-linecap="round" stroke-linejoin="round"/>
<path d="M33.1717 26.8832C33.1717 26.8832 33.1717 26.8832 33.1666 26.8883C27.0697 27.2863 20.9779 27.7863 14.8963 28.3934C10.7943 28.8016 7.62591 32.1893 7.46265 36.3066C7.29428 40.5107 7.14632 44.7096 7.01367 48.8984C8.21775 48.73 9.53917 48.5413 10.0851 48.4647C34.1972 45.1484 58.2787 43.827 82.5796 44.4852C84.0133 37.0311 87.8653 30.6026 93.1255 26.2505C73.1511 25.3628 53.1308 25.572 33.1717 26.8832Z" fill="white" stroke="black" stroke-width="1.07692" stroke-miterlimit="10" stroke-linecap="round" stroke-linejoin="round"/>
<path d="M122.368 45.6586C124.027 46.5055 125.338 47.1943 125.338 47.1943L120.491 55.1789L120.124 55.7861L119.348 64.0922L109.629 61.9034L100.501 64.8166L99.4553 54.4545L94.9961 46.9086L103.17 43.0668C104.613 40.9698 105.95 39.1841 107.343 37.4545C108.139 36.4647 108.945 35.4954 109.807 34.4954C109.807 34.4954 113.608 38.827 116.547 42.7861C117.312 43.128 118.521 43.7198 119.807 44.3678L122.368 45.6586Z" stroke="black" stroke-width="1.07692" stroke-miterlimit="10" stroke-linecap="round" stroke-linejoin="round"/>
<path d="M123.201 77.1227L122.42 77.0768C122.695 76.9033 122.966 76.7197 123.236 76.5309C123.221 76.7299 123.211 76.9237 123.201 77.1227Z" fill="white" stroke="black" stroke-width="1.07692" stroke-miterlimit="10" stroke-linecap="round" stroke-linejoin="round"/>
<path d="M125.145 100.153C125.272 100.714 125.41 101.271 125.548 101.827C124.956 101.704 124.369 101.572 123.777 101.429" stroke="black" stroke-width="1.07692" stroke-miterlimit="10" stroke-linecap="round" stroke-linejoin="round"/>
<path d="M18.9296 37.3169C18.8786 38.8526 17.6898 40.0617 16.2765 40.0158C14.8633 39.9699 13.7612 38.6791 13.8122 37.1434C13.8633 35.6026 15.052 34.3934 16.4653 34.4393C17.8735 34.4903 18.9806 35.7811 18.9296 37.3169Z" fill="black" stroke="black" stroke-width="1.07692" stroke-miterlimit="10" stroke-linecap="round" stroke-linejoin="round"/>
<path d="M28.3584 36.8015C28.3074 38.3423 27.1237 39.5463 25.7054 39.5004C24.2921 39.4545 23.1901 38.1688 23.2462 36.628C23.2513 36.4443 23.2717 36.2658 23.3125 36.0923C23.5676 34.9137 24.5013 34.0209 25.6288 33.929C25.7156 33.9239 25.8074 33.9188 25.8992 33.9239C27.3125 33.9749 28.4094 35.2658 28.3584 36.8015Z" stroke="black" stroke-width="1.07692" stroke-miterlimit="10" stroke-linecap="round" stroke-linejoin="round"/>
<path d="M37.7971 36.2913C37.7461 37.8322 36.5573 39.0362 35.1441 38.9903C33.7308 38.9444 32.6237 37.6587 32.6798 36.1179C32.7308 34.5771 33.9196 33.3679 35.3328 33.4138C36.741 33.4597 37.8481 34.7505 37.7971 36.2913Z" stroke="black" stroke-width="1.07692" stroke-miterlimit="10" stroke-linecap="round" stroke-linejoin="round"/>
<path d="M131.717 33.929L128.293 29.1841C123.625 23.9137 117.217 20.5668 110.059 20.3219C104.156 20.1229 98.6304 22.0668 94.0641 25.526C93.7477 25.7556 93.4314 26.0004 93.1304 26.2556C87.8651 30.6076 84.0182 37.0361 82.5794 44.4902C82.2478 46.2197 82.0437 48.0054 81.9825 49.8371C81.6508 59.735 85.5539 68.6686 91.8804 74.4441C92.4059 74.9237 92.9518 75.3829 93.5079 75.8165C93.5334 75.837 93.559 75.8574 93.5845 75.8778C97.6916 79.0563 102.635 80.9849 108.008 81.1686C113.243 81.342 118.186 79.8369 122.421 77.0767C122.697 76.9033 122.967 76.7196 123.237 76.5308V76.5257C125.054 75.2502 126.727 73.74 128.232 72.0359C132.855 66.7656 135.819 59.6125 136.084 51.6534C136.304 45.1126 134.671 38.9953 131.717 33.929ZM130.339 51.4595C130.161 56.7911 128.447 61.6533 125.702 65.5462C121.625 71.3217 115.258 74.9441 108.227 74.7043C96.462 74.3114 87.2835 63.2605 87.7273 50.0309C88.0284 41.1279 92.6049 33.5106 99.1508 29.5923C102.334 27.6892 105.987 26.6586 109.839 26.7913C121.61 27.1841 130.783 38.23 130.339 51.4595Z" fill="white" stroke="black" stroke-width="1.07692" stroke-miterlimit="10" stroke-linecap="round" stroke-linejoin="round"/>
<path d="M109.839 26.7862C105.987 26.6587 102.333 27.6893 99.1498 29.5872C92.5988 33.5056 88.0274 41.128 87.7264 50.0259C87.2825 63.2605 96.461 74.3064 108.226 74.7044C115.257 74.9391 121.624 71.3217 125.701 65.5462C128.446 61.6534 130.155 56.7861 130.333 51.4596C130.782 38.2249 121.609 27.1842 109.839 26.7862Z" fill="white" stroke="black" stroke-width="1.07692" stroke-miterlimit="10" stroke-linecap="round" stroke-linejoin="round"/>
<path d="M125.145 100.158L125.462 101.769L123.783 101.434C121.415 100.867 119.073 100.158 116.793 99.2909C116.482 99.1736 116.17 99.0562 115.864 98.9287C115.635 98.8368 115.405 98.745 115.176 98.6481C114.778 98.4848 114.38 98.3113 113.992 98.1379C113.808 98.0562 113.619 97.9695 113.436 97.8828C112.283 97.3521 111.15 96.7807 110.048 96.1583C105.721 99.4083 101.13 102.623 96.8032 105.873C96.7981 105.862 96.7929 105.852 96.7929 105.842C95.5991 102.286 94.6144 98.6583 93.8491 94.9899C93.8491 94.9593 93.844 94.9287 93.8338 94.8981C92.696 89.4032 92.0481 83.8114 91.9052 78.2043C91.9001 78.0308 91.895 77.939 91.895 77.939C91.8695 76.7757 91.8644 75.6074 91.8797 74.4441C92.4052 74.9237 92.9511 75.3829 93.5072 75.8165C93.5328 75.8369 93.5583 75.8573 93.5838 75.8778C96.0328 77.9033 105.584 85.6175 123.043 82.0155C123.053 88.1124 123.788 94.2909 125.145 100.158Z" fill="white" stroke="black" stroke-width="1.07692" stroke-miterlimit="10" stroke-linecap="round" stroke-linejoin="round"/>
<path d="M124.289 46.8321C124.657 47.0259 124.789 47.4902 124.575 47.8525L120.233 55.1841L119.958 55.6483C119.901 55.7402 119.871 55.8473 119.861 55.9545L119.192 63.2605C119.151 63.7044 118.733 64.0054 118.299 63.9085L109.84 61.9595C109.713 61.9289 109.575 61.934 109.447 61.9748L101.606 64.5463C101.162 64.6942 100.692 64.3881 100.652 63.9238L99.7434 54.6279C99.7332 54.5259 99.7026 54.4239 99.6515 54.332L95.7842 47.6076C95.5699 47.2402 95.7179 46.7657 96.1005 46.5821L103.187 43.1637C103.305 43.1076 103.402 43.0208 103.473 42.9137C104.84 40.8882 106.111 39.1484 107.437 37.4647C108.039 36.6994 108.646 35.9443 109.284 35.1739C109.575 34.8219 110.111 34.8168 110.407 35.1688C111.529 36.5107 114.136 39.6586 116.299 42.6382C116.371 42.7402 116.463 42.8168 116.575 42.8678C117.325 43.2147 118.422 43.7708 119.585 44.3678L122.075 45.6637C122.968 46.128 123.764 46.5514 124.289 46.8321Z" fill="black"/>
<path d="M117.32 99.49L117.243 101.862L117.167 101.827L111.187 100.158C111.187 100.158 102.289 107.495 99.2332 110.556C98.3149 109.26 97.5088 107.658 96.8047 105.873C101.131 102.623 105.723 99.4084 110.05 96.1584C111.152 96.7808 112.284 97.3523 113.437 97.8829C113.621 97.9696 113.805 98.0563 113.993 98.138C114.381 98.3114 114.779 98.4849 115.177 98.6482C115.407 98.7451 115.636 98.8369 115.866 98.9288C116.172 99.0563 116.483 99.1737 116.794 99.291C116.968 99.3574 117.146 99.4237 117.32 99.49Z" fill="black" stroke="black" stroke-width="1.07692" stroke-miterlimit="10" stroke-linecap="round" stroke-linejoin="round"/>
<path d="M123.201 77.1228C123.094 78.7401 123.043 80.3778 123.043 82.0156C105.584 85.6176 96.033 77.9034 93.584 75.8779C97.6911 79.0564 102.635 80.985 108.007 81.1687C113.242 81.3421 118.186 79.837 122.421 77.0768L123.201 77.1228Z" fill="black" stroke="black" stroke-width="1.07692" stroke-miterlimit="10" stroke-linecap="round" stroke-linejoin="round"/>
</svg>
