<svg width="140" height="140" viewBox="0 0 140 140" fill="none" xmlns="http://www.w3.org/2000/svg">
<g clip-path="url(#clip0_333_44129)">
<mask id="mask0_333_44129" style="mask-type:alpha" maskUnits="userSpaceOnUse" x="13" y="-3" width="113" height="143">
<path d="M125.738 41.9994V102.331C125.738 104.302 125.522 106.213 125.091 108.056C122.532 119.488 112.395 127.987 100.239 127.987H83.3959C68.808 127.987 54.4162 132.066 41.995 139.83C41.3284 140.301 40.3872 139.732 40.3872 138.879V127.987C34.3972 127.987 28.8973 125.919 24.5543 122.458C19.2995 118.282 15.731 112.056 15.0153 104.968C14.9369 104.106 14.8879 103.223 14.8879 102.331L13.0234 41.9994C13.0234 33.1957 13.9212 26.2423 20.6073 21.6247C22.6562 20.2032 20.5764 10.9556 23.0077 10.1909C26.1663 6.3375 28.3324 12.1459 29.5775 11.9597C30.8912 11.744 27.4888 -4.68841 40.4428 1.91557L45.2236 -0.818725C51.3713 -2.75904 55.6557 6.7808 57.4988 6.65335C61.8575 -1.96191 69.7538 -1.96191 79.0054 -1.96191C83.5249 -3.70696 94.4936 7.08854 98.6406 4.50037C99.2974 4.0298 100.239 4.59841 100.239 5.45133L101.253 11.9894C101.825 12.6649 101.958 11.96 102.487 11.9894C103.712 12.0678 103.552 9.68272 104.719 9.92781C107.013 10.4082 110.963 9.37293 112.983 10.4317C114.895 11.4317 115.829 16.1561 117.417 17.5874C118.368 18.4403 121.666 19.8333 122.48 20.8235C126.146 25.2547 125.738 35.7544 125.738 41.9994Z" fill="#FFE84D"/>
</mask>
<g mask="url(#mask0_333_44129)">
<path d="M125.739 41.9989V102.331C125.739 104.301 125.523 106.213 125.092 108.056C122.533 119.487 112.396 127.987 100.239 127.987H83.3967C68.8088 127.987 54.417 132.065 41.9958 139.83C41.3291 140.3 40.388 139.732 40.388 138.879V127.987C34.398 127.987 28.8981 125.918 24.5551 122.458C19.3003 118.281 15.7318 112.056 15.0161 104.968C14.9377 104.105 14.8887 103.223 14.8887 102.331V41.9989C14.8887 33.1952 19.2709 25.4405 25.957 20.823C28.006 19.4015 30.2804 18.274 32.7117 17.5094C33.898 17.1368 35.1136 16.8427 36.3587 16.6564C37.6724 16.4408 39.0155 16.3329 40.388 16.3329H57.2307C59.0738 16.3329 60.9169 16.2643 62.7599 16.1368C70.5931 15.5878 78.3086 13.8624 85.6123 11.0193C90.1318 9.27428 94.4944 7.08807 98.6413 4.4999C99.2982 4.02932 100.239 4.59794 100.239 5.45085V16.3329C100.788 16.3329 101.328 16.3525 101.857 16.3819C103.082 16.4604 104.278 16.627 105.445 16.8721C107.739 17.3525 109.916 18.1368 111.935 19.1956C113.847 20.1956 115.621 21.421 117.209 22.8524C118.16 23.7053 119.043 24.6268 119.856 25.617C123.523 30.0482 125.739 35.754 125.739 41.9989Z" fill="white"/>
<path d="M122.73 54.3836C122.416 54.9522 121.935 55.413 121.455 55.8639C119.22 58.0011 116.916 60.0697 114.926 62.4324C113.191 64.4814 111.867 66.8146 111.21 69.4126C110.161 73.5595 108.416 77.5202 106.063 81.0888L105.857 81.3338C103.534 79.2653 100.407 78.3045 97.3184 77.9026C88.7108 76.7653 80.0934 79.6574 73.7602 85.5984C73.7602 85.5984 73.721 85.4612 73.6426 85.2063C73.3779 84.3044 72.7014 81.9123 72.0054 78.6084C71.4564 75.9712 70.8878 72.7458 70.525 69.2263C70.2701 66.795 70.1133 64.2167 70.1133 61.5991C70.1133 57.2364 70.9172 51.3935 72.1721 45.6485C74.2014 36.4037 77.4366 27.3941 80.4562 25.1294C81.3385 24.4726 82.613 24.7863 83.0149 25.8059C83.162 26.1686 83.2698 26.6196 83.358 27.1196C83.6718 29.0215 83.5737 31.7861 83.3188 34.7959C82.9463 39.0212 82.2404 43.7172 81.8483 47.1093C83.7796 38.4624 96.0048 13.4141 101.103 15.9434C101.652 16.2473 101.867 16.9728 101.867 17.963C101.858 19.3747 101.397 21.2962 100.779 23.2766C100.916 23.0021 101.446 22.1589 102.24 21.1001C102.24 21.0903 102.25 21.0805 102.259 21.0707C104.308 18.3061 108.053 14.0513 111.053 14.0611C111.926 14.0611 112.681 14.718 112.73 15.5807C112.74 15.816 112.73 16.0807 112.71 16.365C112.357 19.8159 109.024 26.3353 106.044 33.5214C108.259 30.2274 111.838 26.5902 114.975 24.404C116.122 23.6197 117.661 22.904 118.818 23.6687C119.455 24.1001 119.769 24.904 119.788 25.6686C119.808 26.4431 119.563 27.198 119.298 27.9137C118.465 30.1587 109.259 44.2858 106.926 57.4031C110.034 53.5307 119.788 50.8248 121.386 51.3641C122.033 51.5013 122.651 51.8934 122.916 52.5013C123.181 53.0993 123.053 53.8052 122.73 54.3836Z" fill="white"/>
<path d="M101.865 17.9605C100.865 17.7056 99.7181 17.9703 98.8259 18.5389C97.6593 19.284 96.8456 20.4506 96.0711 21.6074C90.0909 30.5974 85.4537 40.4893 82.3754 50.8419C81.8455 49.1812 81.5455 48.4507 81.8459 47.1067C83.7772 38.4599 96.1631 12.9053 101.261 15.4346C101.81 15.7385 101.865 16.9703 101.865 17.9605Z" fill="white"/>
<path d="M83.358 27.1178C82.0934 27.2845 80.9659 28.059 80.1522 29.0393C79.2699 30.0981 78.7013 31.3726 78.1817 32.6471C71.7015 48.4506 71.0487 66.8277 75.8427 83.2194C75.0976 84.0625 74.2798 84.43 73.6426 85.2045C73.3779 84.3026 72.7014 81.9105 72.0054 78.6066C71.4564 75.9694 70.8878 72.744 70.525 69.2245C70.2701 66.7932 70.1133 64.2149 70.1133 61.5973C70.1133 57.2346 70.9172 51.3917 72.1721 45.6467C74.2014 36.4019 77.3519 27.0485 80.3715 24.7839C81.2538 24.1271 82.7452 24.2022 83.1472 25.2218C83.2942 25.5845 83.2698 26.6178 83.358 27.1178Z" fill="white"/>
<path d="M72.1597 45.5678C70.4539 33.4407 66.2929 22.0961 62.5479 16.1648C61.94 15.1747 61.3634 14.2019 60.7948 13.5352C59.9027 12.496 58.8561 12.0099 58.1797 11.8923C58.1699 11.8923 58.1699 11.8923 58.1699 11.8923C58.1209 11.8727 58.062 11.8629 58.013 11.8629C58.013 11.8629 58.0032 11.8629 57.9934 11.8629C57.8758 11.8629 57.7581 11.8727 57.6503 11.9021C57.3562 12.0393 57.1307 12.3138 56.9542 12.6962C56.9444 12.706 56.9444 12.7158 56.9444 12.7256C56.8562 12.9118 56.7876 13.1373 56.7287 13.3824C56.7189 13.4314 56.7091 13.4805 56.6993 13.5393C56.5523 14.2844 56.5131 15.2451 56.5621 16.3333C56.6797 18.9999 57.2875 22.4214 57.9444 25.4115C57.9444 25.4507 57.9542 25.4899 57.9738 25.5194C58.2973 27.0487 58.6306 28.4506 58.9149 29.5781C57.7679 25.4311 56.4433 20.6175 54.659 16.3333C52.7571 11.7746 50.4066 7.16703 48.3772 5.30434C47.338 4.34358 46.0398 4.33162 45.3369 4.92186C45.2879 4.93167 45.2486 4.95128 45.2094 4.98069C44.8761 5.13754 44.6506 5.47087 44.533 5.94144C44.5232 5.95125 44.5232 5.95125 44.5232 5.96105C44.0624 7.81394 45.0722 11.7942 46.4447 16.3333C47.7584 20.6567 49.3858 25.4703 50.3564 29.3918C50.3564 29.3918 50.3564 29.3918 50.3564 29.4016C50.7779 31.0878 51.072 32.6172 51.1701 33.8623C50.5426 29.7349 48.0035 22.6371 45.0036 16.3333C42.9546 12.0197 40.7647 7.65721 38.7353 5.30434C37.2158 3.53968 35.8399 2.62419 34.7909 3.16339C34.7125 3.20261 34.2607 3.70621 34.2018 3.76503C34.1332 3.81405 34.3666 3.88268 34.3078 3.96111C34.2783 3.99052 34.2587 4.02973 34.2391 4.05914C34.1607 4.16698 34.1019 4.28463 34.0529 4.42188C34.0136 4.52972 33.9842 4.62775 33.9548 4.7552C33.9548 4.7552 33.945 4.76501 33.945 4.77481C33.9352 4.79442 33.9352 4.80422 33.9352 4.81402C33.9156 4.90226 33.896 4.99049 33.8862 5.08853C33.8666 5.15715 33.8568 5.23558 33.8568 5.30421C33.847 5.33362 33.847 5.37283 33.847 5.41205C33.8372 5.51008 33.8274 5.60812 33.8274 5.70616C33.8078 6.0983 33.8176 6.53947 33.8666 7.01985C33.8764 7.19631 33.896 7.37278 33.9156 7.55905C34.0038 8.28452 34.1411 9.09822 34.3274 9.97075C34.3666 10.1668 34.4058 10.3629 34.4548 10.559C34.494 10.7452 34.5332 10.9315 34.5823 11.1178C34.7097 11.6472 34.847 12.1962 34.994 12.7648C35.1117 13.2158 35.2391 13.6765 35.3666 14.1471C35.3862 14.2059 35.396 14.2549 35.4156 14.3138C35.5332 14.7157 35.6411 15.1177 35.7685 15.5294C35.8763 15.9118 35.994 16.3039 36.1116 16.6961C37.19 20.2744 38.4939 24.1566 39.6409 27.7448C40.6409 30.882 41.5331 33.7936 42.0527 36.0975C42.2095 36.8132 42.337 37.4602 42.4154 38.0484C39.2292 27.9311 35.6887 21.1081 32.4535 17.3337C30.7869 15.373 29.1894 14.0883 27.9247 13.4707C26.8561 12.9413 25.8668 13.2158 25.2688 13.4707C24.9649 13.5981 24.7492 13.8236 24.6021 14.1471C24.5531 14.2451 24.5139 14.3628 24.4845 14.4902C24.4845 14.5 24.4845 14.5 24.4845 14.5098C24.1414 15.902 24.9285 18.3725 25.8795 20.9901C27.0069 24.088 28.4158 27.382 29.3765 29.3428C30.102 30.8231 30.7882 32.3231 31.3765 33.8721C33.2588 38.7739 35.5822 44.7247 36.9449 49.9109V49.9207C37.0136 50.1854 37.0822 50.4402 37.1508 50.7049C35.1901 49.0775 32.8862 47.3227 30.6118 46.1757C27.0727 44.411 23.3963 42.8032 19.4944 42.7346C19.0827 42.715 18.6709 42.7248 18.2494 42.7542C17.0533 42.8326 15.6318 43.1953 15.2298 44.3326C15.2298 44.3424 15.22 44.3522 15.22 44.362C15.22 44.362 15.22 44.3718 15.22 44.3816C15.1906 44.4796 15.171 44.5679 15.1514 44.6561C15.073 45.2149 15.2494 45.8031 15.5534 46.2835C15.9259 46.8619 16.4553 47.3129 16.9749 47.7442C20.6905 50.852 24.4551 53.9402 27.7785 57.4597C31.102 60.9792 34.0038 64.9889 35.7195 69.5182C35.7783 69.6652 35.8371 69.8123 35.896 69.9593C35.9254 70.0182 35.945 70.0868 35.9744 70.1456C35.9744 70.1554 35.9842 70.1652 35.9842 70.175C36.0038 70.2338 36.0332 70.2829 36.0528 70.3417C36.0528 70.3515 36.0626 70.3515 36.0626 70.3613C36.141 70.5672 36.2293 70.7632 36.3273 70.9593C36.4155 71.1652 36.5136 71.3711 36.6116 71.5671C36.7587 71.8711 36.9155 72.1652 37.0822 72.4593C37.2194 72.7044 37.3567 72.9494 37.5038 73.1847C37.641 73.4004 37.7783 73.6161 37.9253 73.822C38.0233 73.9788 38.1312 74.1357 38.2488 74.2827C38.4057 74.4984 38.5724 74.7043 38.739 74.9102C39.6606 76.0278 40.7488 77.0082 42.033 77.7925C45.131 79.6846 48.8172 80.4689 52.4445 80.4689C56.0915 80.4787 59.7875 79.7238 62.9835 77.9493C66.1697 76.1847 69.248 72.6455 70.5225 69.2241C70.5225 69.175 70.5127 69.1358 70.5127 69.0868C70.5029 69.0476 70.5029 69.0084 70.4931 68.9594C70.4735 68.7731 70.4539 68.5868 70.4441 68.3907C70.4048 67.9888 70.3656 67.5869 70.3362 67.1751C70.2774 66.4888 70.2382 65.7928 70.199 65.0869C70.1696 64.5771 70.1499 64.0673 70.1401 63.5477C70.1205 62.9007 70.1107 62.2537 70.1107 61.5968C70.1107 61.3223 70.1107 61.0478 70.1205 60.7635C70.1303 60.489 70.1401 60.1949 70.1499 59.9008C70.1499 59.7537 70.1597 59.5969 70.1696 59.4498C70.1892 59.1263 70.2088 58.8028 70.2284 58.4694C70.2578 58.0283 70.297 57.5773 70.3362 57.1165C70.4146 56.3126 70.5029 55.4891 70.6107 54.646C70.6401 54.3813 70.6695 54.1068 70.7186 53.8225C70.7186 53.7637 70.7284 53.7049 70.7382 53.646C70.7774 53.3813 70.8166 53.1265 70.8558 52.8618C70.9048 52.5382 70.9538 52.2049 71.0029 51.8716C71.0421 51.5873 71.0911 51.2932 71.1401 51.0089C71.1891 50.6657 71.248 50.3128 71.3166 49.9501C71.5715 48.5285 71.8558 47.0874 72.1695 45.6463C72.1695 45.6168 72.1597 45.5972 72.1597 45.5678ZM59.562 32.0486C59.4934 31.8133 59.3855 31.4114 59.2483 30.8722C59.3757 31.2741 59.4738 31.6662 59.562 32.0486Z" fill="white"/>
<path d="M49.7904 25.1954C48.4669 20.5191 47.3101 15.8035 46.3396 11.039C46.1141 9.94096 45.8984 8.79393 46.2219 7.71553C46.5356 6.64693 47.565 5.68617 48.6728 5.85283C48.4964 5.02932 47.6827 4.36267 46.8493 4.21562C46.016 4.06856 45.1141 4.47051 44.6729 5.18618C44.1435 6.0391 44.2612 7.12731 44.4278 8.11748C45.8941 14.2656 47.1435 19.5976 49.7904 25.1954Z" fill="white"/>
<path d="M39.8749 50.1548C39.1004 49.5077 38.1517 49.9115 37.2377 50.1548C35.8554 45.253 33.615 38.6729 31.8699 34.1338C31.2817 32.5849 30.4045 30.822 29.679 29.3416C27.6104 25.1162 22.4832 14.1165 25.3557 12.9205C25.8066 12.7244 27.4046 13.2832 28.1497 13.5381C25.5812 15.0283 30.3653 25.1849 32.3947 29.3416C33.1202 30.822 33.8064 32.3219 34.3946 33.8709C36.375 39.0276 38.5514 44.7922 39.8749 50.1548Z" fill="white"/>
<path d="M69.9332 82.784C68.0019 86.4506 65.4359 90.1367 62.9849 93.4798C53.2009 106.803 39.7219 116.655 24.2713 122.518C22.7223 123.106 21.3462 124.146 19.758 124.636L12.6504 106.499C13.4249 106.215 14.0305 105.36 14.7755 104.987C18.2362 103.291 21.2547 101.159 23.8331 98.2673C26.9604 94.7477 29.6009 90.823 31.7871 86.6564C32.7577 84.8035 33.689 82.8722 34.4341 80.8821C34.0714 83.6173 34.3753 86.431 35.5125 88.9309C40.8947 87.3329 42.032 96.264 46.7867 96.9405C51.5513 97.6169 56.4728 96.166 60.4628 93.4798C64.4529 90.7936 67.5607 86.9604 69.9136 82.7644C69.9234 82.7742 69.9234 82.7742 69.9332 82.784Z" fill="white"/>
<path d="M111.512 94.1641C104.884 93.8014 98.1493 95.2818 92.2867 98.4189C88.2868 100.566 84.5614 103.634 82.7184 107.772C78.8067 100.801 75.7774 93.3308 73.7578 85.5957C80.091 79.6547 88.7084 76.7626 97.316 77.8999C100.404 78.3018 103.532 79.2626 105.855 81.3311C105.875 81.3508 105.904 81.3704 105.924 81.39C107.159 85.8898 109.061 90.1937 111.512 94.1641Z" fill="white"/>
<path d="M129.894 110.977L110.715 140.134L98.5687 128.644C92.3434 122.478 86.9912 115.263 82.707 107.617C84.5501 103.479 88.2846 100.567 92.2845 98.4197C98.1471 95.2825 105.298 93.8134 111.925 94.1762C116.317 101.294 122.6 106.908 129.894 110.977Z" fill="black"/>
<path d="M38.6737 74.3547C37.4777 72.9136 36.5561 71.2175 35.8306 69.4038C35.7718 69.2568 35.713 69.1097 35.6542 68.9627C33.9385 64.4334 31.0366 60.4237 27.7132 56.9042C24.3898 53.3847 20.6252 50.2965 16.9096 47.1888C16.39 46.7574 15.8606 46.3064 15.488 45.728C15.1253 45.1496 14.939 44.4241 15.1645 43.7771C15.5665 42.6399 16.988 42.2771 18.184 42.1987C18.6056 42.1693 19.0174 42.1595 19.4291 42.1791C18.6056 43.5614 19.4193 46.1888 26.3211 51.1592C36.1051 58.2081 38.0953 68.7372 38.6737 74.3547Z" fill="white"/>
<path d="M41.6552 32.9652C41.4101 33.2789 40.0486 26.9295 39.8819 27.2922C36.6271 17.116 32.137 4.60652 34.9409 3.17519C35.9899 2.63599 37.3722 3.50851 38.8918 5.27317C38.1369 5.65552 37.5389 6.4202 37.284 7.25351C36.9114 8.43976 37.0683 9.73384 37.2545 10.9691C38.0192 16.1258 40.2631 27.9359 41.6552 32.9652Z" fill="white"/>
<path d="M60.9641 13.5984C60.0915 13.667 59.3269 14.2455 58.8465 14.9709C58.3661 15.6964 58.1308 16.5591 57.9641 17.412C57.5622 19.5688 57.5916 21.8041 58.0426 23.9609C57.1112 21.059 56.6112 17.8336 56.6897 14.7847C56.7191 13.7455 56.9053 12.5298 57.8171 12.0298C58.3857 11.7161 59.1014 11.7847 59.6798 12.0788C60.2582 12.373 60.5915 13.069 60.9641 13.5984Z" fill="white"/>
<path d="M96.6914 34.1653C99.3482 28.3027 102.123 22.2833 106.828 17.9109C107.642 17.156 108.524 16.4501 109.564 16.0776C110.603 15.705 111.838 15.7148 112.75 16.3423C113.142 15.5286 113.024 14.46 112.299 13.9208C111.573 13.3816 110.608 13.4562 109.736 13.6817C108.863 13.9072 108.114 14.4475 107.398 14.9965C104.388 17.3003 102.123 20.3226 100.505 23.7538C98.8776 27.1851 97.7404 30.5184 96.6914 34.1653Z" fill="white"/>
<path d="M103.014 41.7301C103.347 38.8674 105.244 34.8901 106.666 32.3804C108.921 28.3903 111.195 27.2673 115.258 23.4896C116.297 22.9112 117.518 22.5125 118.645 22.885C119.371 23.1203 119.562 23.922 119.797 24.6376C120.022 25.3631 119.96 25.8064 119.797 26.5092C119.444 25.568 118.287 25.1367 117.297 25.3033C116.307 25.47 115.464 26.0876 114.679 26.7249C110.013 30.4895 106.04 35.5978 103.452 40.9996L103.014 41.7301Z" fill="white"/>
<path d="M122.777 53.725C122.042 53.2349 121.13 53.0682 120.258 53.1074C119.385 53.1466 118.523 53.3819 117.689 53.676C113.278 55.1956 109.356 58.1073 106.621 61.8915C106.748 59.7935 106.219 58.1225 107.542 56.4853C108.366 55.4657 110.229 54.225 111.405 53.6564C113.895 52.4604 116.523 51.5388 119.219 50.931C119.797 50.8036 120.385 50.6859 120.973 50.7055C121.562 50.7251 122.17 50.9016 122.611 51.2937C123.336 51.931 123.336 52.9309 122.777 53.725Z" fill="white"/>
<path d="M35.6041 88.792C34.4669 86.2921 34.163 83.4784 34.5257 80.7432C35.5355 78.057 36.2021 74.4727 36.1629 71.6786C36.1629 70.7963 36.0886 70.2322 35.9593 69.3412L36.1629 69.8219C37.4374 72.8709 39.2903 75.5179 42.1235 77.2433C45.2215 79.1354 48.9077 79.9197 52.535 79.9197C56.182 79.9295 59.878 79.1746 63.074 77.4002C66.1327 75.7041 69.0934 72.3807 70.4463 69.0867H70.613C70.9659 72.4787 71.5051 75.6061 72.0345 78.1845C72.0541 78.2825 72.0737 78.3707 72.0933 78.4688C71.4463 79.8805 70.76 81.2726 70.0248 82.6451C70.0149 82.6353 70.0149 82.6353 70.0051 82.6255C69.4267 83.6549 68.8091 84.6549 68.1326 85.6254C68.113 85.6549 68.1032 85.6843 68.0836 85.7137C66.0347 88.6744 63.5445 91.3312 60.5544 93.3409C56.5643 96.0271 51.6429 97.4781 46.8783 96.8016C43.8098 96.3703 40.8491 94.9781 38.5942 92.8703" fill="white"/>
<path d="M35.6041 88.792C34.4669 86.2921 34.163 83.4784 34.5257 80.7432C35.5355 78.057 36.2021 74.4727 36.1629 71.6786C36.1629 70.7963 36.0886 70.2322 35.9593 69.3412L36.1629 69.8219C37.4374 72.8709 39.2903 75.5179 42.1235 77.2433C45.2215 79.1354 48.9077 79.9197 52.535 79.9197C56.182 79.9295 59.878 79.1746 63.074 77.4002C66.1327 75.7041 69.0934 72.3807 70.4463 69.0867H70.613C70.9659 72.4787 71.5051 75.6061 72.0345 78.1845C72.0541 78.2825 72.0737 78.3707 72.0933 78.4688C71.4463 79.8805 70.76 81.2726 70.0248 82.6451C70.0149 82.6353 70.0149 82.6353 70.0051 82.6255C69.4267 83.6549 68.8091 84.6549 68.1326 85.6254C68.113 85.6549 68.1032 85.6843 68.0836 85.7137C66.0347 88.6744 63.5445 91.3312 60.5544 93.3409C56.5643 96.0271 51.6429 97.4781 46.8783 96.8016C43.8098 96.3703 40.8491 94.9781 38.5942 92.8703" stroke="black" stroke-width="1.08527" stroke-miterlimit="10" stroke-linecap="round" stroke-linejoin="round"/>
<path d="M37.2414 50.157C35.9179 44.7944 33.4474 38.4808 31.4671 33.3241C30.8789 31.7751 30.1926 30.2751 29.4671 28.7948C27.3986 24.5694 22.4869 14.1187 25.3594 12.9227C28.0162 11.7658 36.2709 17.7264 42.506 37.5004" stroke="black" stroke-width="1.08527" stroke-miterlimit="10" stroke-linecap="round" stroke-linejoin="round"/>
<path d="M47.3672 50.8035C49.3279 51.3819 51.22 52.2152 52.9553 53.2936" stroke="black" stroke-width="1.08527" stroke-miterlimit="10" stroke-linecap="round" stroke-linejoin="round"/>
<path d="M70.6134 68.6748C70.5644 68.812 70.5056 68.9493 70.4467 69.0865C69.0938 72.3806 66.1331 75.704 63.0744 77.4001C59.8784 79.1745 56.1824 79.9294 52.5355 79.9196C48.9081 79.9196 45.2219 79.1353 42.124 77.2432C39.2907 75.5177 37.4378 72.8708 36.1634 69.8218C36.0947 69.6846 36.0457 69.5473 35.9869 69.4101C35.9281 69.263 35.8692 69.116 35.8104 68.9689C34.0948 64.4396 31.1929 60.4299 27.8695 56.9104C24.546 53.3909 20.7814 50.3027 17.0658 47.195C16.5462 46.7636 16.0168 46.3126 15.6443 45.7342C15.2816 45.1558 15.0953 44.4303 15.3208 43.7833C15.7227 42.6461 17.1443 42.2833 18.3403 42.2049C22.7127 41.9108 26.7911 43.6754 30.7027 45.6264C32.9772 46.7734 35.281 48.5283 37.2418 50.1557C40.6142 49.6067 44.0945 49.842 47.3689 50.8027" stroke="black" stroke-width="1.08527" stroke-miterlimit="10" stroke-linecap="round" stroke-linejoin="round"/>
<path d="M45.8848 38.5871C50.9238 36.5186 56.2472 35.1558 61.6491 34.5382" stroke="black" stroke-width="1.08527" stroke-miterlimit="10" stroke-linecap="round" stroke-linejoin="round"/>
<path d="M42.5156 40.1066C43.6234 39.5674 44.7509 39.0576 45.8979 38.587" stroke="black" stroke-width="1.08527" stroke-miterlimit="10" stroke-linecap="round" stroke-linejoin="round"/>
<path d="M35.9604 69.3414C36.9898 75.0863 34.5828 80.9508 31.877 86.1076C29.6908 90.2741 27.2398 94.3328 24.1125 97.8524C21.5341 100.744 18.4754 103.274 15.0147 104.97C14.2696 105.342 13.5147 105.666 12.7402 105.95L19.8479 124.087C21.4361 123.597 23.0047 123.048 24.5536 122.46C40.0042 116.597 53.6411 106.078 63.4252 92.7544C66.7976 88.1663 69.7191 83.2449 72.0916 78.0588" stroke="black" stroke-width="1.08527" stroke-miterlimit="10" stroke-linecap="round" stroke-linejoin="round"/>
<path d="M42.5033 37.5001C41.2974 28.9219 30.8467 5.08919 34.7878 3.07944C39.2779 0.775584 49.8658 24.2455 51.2579 33.3139" stroke="black" stroke-width="1.08527" stroke-miterlimit="10" stroke-linecap="round" stroke-linejoin="round"/>
<path d="M59.1816 29.7051C59.4169 30.6561 59.6032 31.3326 59.6816 31.6071" stroke="black" stroke-width="1.08527" stroke-miterlimit="10" stroke-linecap="round" stroke-linejoin="round"/>
<path d="M72.2572 45.0982C70.1396 29.9221 63.826 15.9617 59.8163 12.2657C58.7281 11.2658 56.934 11.8932 56.7282 13.3539C56.1988 17.0891 57.9536 24.9026 59.0026 29.03" stroke="black" stroke-width="1.08527" stroke-miterlimit="10" stroke-linecap="round" stroke-linejoin="round"/>
<path d="M59.7215 31.7348C59.7215 31.725 59.7215 31.7152 59.7117 31.7054C59.7019 31.6759 59.692 31.6367 59.6822 31.6073C59.5352 30.9995 59.3685 30.3622 59.1823 29.7054C59.1528 29.5485 59.1038 29.3819 59.0548 29.2152C59.045 29.1564 59.0254 29.0878 59.0058 29.029C55.9961 18.2057 49.9864 2.80416 45.4277 4.37275C41.6435 5.64722 50.6433 25.2545 51.2609 33.3131" stroke="black" stroke-width="1.08527" stroke-miterlimit="10" stroke-linecap="round" stroke-linejoin="round"/>
<path d="M105.945 80.7823C105.964 80.8019 105.994 80.8215 106.013 80.8411C109.455 93.3996 118.092 104.478 129.464 110.821L110.807 139.585L98.6607 128.095C86.7493 116.301 78.0828 101.262 73.8477 85.0469C80.1808 79.1058 88.7982 76.2138 97.4059 77.351C100.494 77.7529 103.621 78.7137 105.945 80.7823Z" stroke="black" stroke-width="1.08527" stroke-miterlimit="10" stroke-linecap="round" stroke-linejoin="round"/>
<path d="M107.015 56.8492C110.123 52.9767 119.877 50.2709 121.475 50.8101C122.123 50.9474 122.74 51.3395 123.005 51.9474C123.27 52.5454 123.142 53.2512 122.819 53.8297C122.505 54.3983 122.024 54.8591 121.544 55.31C119.309 57.4472 117.005 59.5158 115.015 61.8785C113.28 63.9274 111.956 66.2607 111.299 68.8587C110.25 73.0056 108.505 76.9663 106.152 80.5348" stroke="black" stroke-width="1.08527" stroke-miterlimit="10" stroke-linecap="round" stroke-linejoin="round"/>
<path d="M106.129 32.9705C108.345 29.6764 111.923 26.0393 115.06 23.8531C116.207 23.0688 117.746 22.3531 118.903 23.1178C119.54 23.5491 119.854 24.353 119.874 25.1177C119.893 25.8922 119.648 26.6471 119.383 27.3628C118.55 29.6078 109.345 43.7349 107.011 56.8522C106.629 58.9796 106.423 61.0874 106.472 63.1069" stroke="black" stroke-width="1.08527" stroke-miterlimit="10" stroke-linecap="round" stroke-linejoin="round"/>
<path d="M73.8481 85.0459C73.8481 85.0459 72.9854 82.3009 72.0933 78.0559C71.5443 75.4187 70.9757 72.1933 70.6129 68.6738C70.358 66.2425 70.2012 63.6641 70.2012 61.0465C70.2012 56.6839 71.0051 50.8409 72.2599 45.096C74.2893 35.8511 77.5245 26.8416 80.544 24.5769C81.4264 23.9201 82.7009 24.2338 83.1028 25.2534C84.5537 28.969 82.6714 40.1255 81.9362 46.5567C81.8087 47.694 81.8773 49.9194 82.3381 50.7429" stroke="black" stroke-width="1.08527" stroke-miterlimit="10" stroke-linecap="round" stroke-linejoin="round"/>
<path d="M100.855 22.7539C99.6398 26.5969 97.8163 30.6655 97.434 31.5968C94.4243 38.9398 92.7576 44.3514 92.2969 48.6258" stroke="black" stroke-width="1.08527" stroke-miterlimit="10" stroke-linecap="round" stroke-linejoin="round"/>
<path d="M81.9336 46.5578C83.8649 37.9109 96.0901 12.8626 101.188 15.3919C102.511 16.1174 101.923 19.333 100.864 22.7251" stroke="black" stroke-width="1.08527" stroke-miterlimit="10" stroke-linecap="round" stroke-linejoin="round"/>
<path d="M100.836 22.7938C100.836 22.784 100.846 22.7742 100.856 22.7546C100.856 22.7448 100.856 22.735 100.865 22.7252C101.356 21.735 106.973 13.4901 111.14 13.5097C112.012 13.5097 112.767 14.1666 112.816 15.0293C112.983 18.2057 109.346 25.1957 106.13 32.97C106.13 32.97 106.12 32.9798 106.12 32.9896C103.679 38.8914 101.473 45.254 101.365 50.744" stroke="black" stroke-width="1.08527" stroke-miterlimit="10" stroke-linecap="round" stroke-linejoin="round"/>
<path d="M66.2168 3.67633C68.4128 8.48012 68.4128 8.48013 70.599 13.2839" stroke="black" stroke-width="1.08527" stroke-miterlimit="10" stroke-linecap="round" stroke-linejoin="round"/>
<path d="M89.3852 5.44086C86.9931 8.97998 84.6108 12.5093 82.2188 16.0386" stroke="black" stroke-width="1.08527" stroke-miterlimit="10" stroke-linecap="round" stroke-linejoin="round"/>
<path d="M77.4258 12.2545C77.4258 12.2545 78.6316 5.03902 79.2297 1.43127" stroke="black" stroke-width="1.08527" stroke-miterlimit="10" stroke-linecap="round" stroke-linejoin="round"/>
<path d="M82.5104 95.5859C83.4336 95.1836 83.7734 93.9199 83.2694 92.7635C82.7654 91.607 81.6085 90.9957 80.6853 91.398C79.7621 91.8003 79.4222 93.064 79.9262 94.2204C80.4302 95.3769 81.5872 95.9883 82.5104 95.5859Z" fill="black"/>
</g>
</g>
<defs>
<clipPath id="clip0_333_44129">
<rect width="140" height="140" fill="white"/>
</clipPath>
</defs>
</svg>
