<svg width="918" height="42" viewBox="0 0 918 42" fill="none" xmlns="http://www.w3.org/2000/svg">
<path d="M76.7522 14.1782L73.9582 14.1855V28.5218H86.7715C88.173 27.9271 88.9237 26.8991 89.2138 25.6988H76.7449L76.7522 14.1782ZM97.6611 17.043H108.349C109.834 16.7492 110.94 15.4384 111.25 14.171H94.7583C95.0665 15.4384 96.1889 16.7492 97.6611 17.043ZM63.0468 17.0031C64.5318 16.5716 65.7828 15.4384 66.0874 14.1819H50.4039V22.6528H63.2408V25.6263L53.1726 25.6353C51.5933 26.0741 50.2589 27.133 49.5898 28.5327L50.4039 28.5182H66.0004V19.837H53.1726V17.0031H63.0468ZM95.1898 28.5182H97.9693V22.747H108.088V28.5182H110.866V19.8624L95.1898 19.8479V28.5182ZM28.8024 17.0339H39.4889C40.9757 16.7384 42.0799 15.4275 42.3899 14.1601H25.8996C26.2078 15.4275 27.3283 16.7384 28.8024 17.0339ZM1 14.1927C1.32092 15.4474 2.40698 16.7257 3.89555 17.0484H8.39391L8.62236 17.1391V28.4892H11.4327V17.1391L11.6865 17.0484H16.1903C17.6934 16.6604 18.7559 15.4474 19.0732 14.1927V14.1655H1V14.1927ZM28.8024 28.52H39.4889C40.9757 28.2227 42.0799 26.9154 42.3899 25.6462H25.8996C26.2078 26.9154 27.3283 28.2227 28.8024 28.52ZM28.8024 22.6999H39.4889C40.9757 22.4062 42.0799 21.0953 42.3899 19.8279H25.8996C26.2078 21.0953 27.3283 22.4062 28.8024 22.6999Z" fill="#898D9A"/>
<path d="M197.966 12.2035L190.369 23.4521C189.579 24.6426 188.193 25.3621 186.743 25.3621C184.381 25.3621 182.425 23.4212 182.425 21.0792C182.425 18.7027 184.381 16.7653 186.759 16.7653C186.995 16.7352 187.311 16.7021 187.532 16.7021C189.172 16.7021 190.842 17.39 191.977 18.5474L194.246 15.1091C192.481 13.2976 189.865 12.1381 187.247 12.1381C182.361 12.1381 177.886 16.1701 177.886 21.0461C177.886 25.8934 181.889 29.8615 186.777 29.8615C189.14 29.8615 191.504 28.8615 193.143 27.2039H198.376L198.407 29.8615H202.948V12.2035H197.966H197.966ZM195.887 23.3278L198.376 19.8615L198.407 23.3278H195.888H195.887Z" fill="#898D9A"/>
<path d="M211.648 29.8608H207.108V16.3262H203.578V12.2323L215.177 12.2028V16.3261H211.648V29.8608V29.8608Z" fill="#898D9A"/>
<path d="M230.31 12.203L225.77 12.2042L225.738 18.7968H220.379L220.345 12.2028H215.809V29.8608H220.378V22.89H225.77V29.8608H230.309V12.2028L230.31 12.203Z" fill="#898D9A"/>
<path d="M266.686 12.2028V20.42L260.445 12.2028L256.314 12.2315L256.283 18.6717C255.243 14.9208 251.68 12.2028 247.708 12.2028C242.823 12.2028 238.819 16.1694 238.819 21.0454C238.819 22.6111 239.291 24.2012 240.047 25.5785H235.55V12.2028H230.924V29.8608H241.499V27.39C243.17 28.9226 245.439 29.8608 247.708 29.8608C251.68 29.8608 255.18 27.2031 256.283 23.4514L256.314 29.8608H260.887V21.2675L267.094 29.8608H271.222L271.228 12.2028H266.687H266.686ZM247.708 25.5476C245.218 25.5476 243.17 23.5478 243.17 21.0454C243.17 18.5776 245.218 16.5468 247.708 16.5468C250.232 16.5468 252.28 18.5776 252.28 21.0454C252.28 23.5478 250.232 25.5476 247.708 25.5476Z" fill="#898D9A"/>
<path d="M172.395 25.5807V23.1093H177.267L177.258 18.7983H172.395V16.549H177.765L177.756 12.205L167.417 12.2337V18.298C166.345 14.9855 163.255 12.5464 159.724 12.2337L151.875 12.205V29.8622H159.757C163.255 29.551 166.345 27.1133 167.417 23.831V29.8622H177.765L177.756 25.5807H172.396H172.395ZM162.404 23.7361C162.121 24.9251 160.986 25.7669 159.756 25.7985H156.857V16.3276H159.756C160.986 16.3276 162.121 17.2068 162.404 18.4238C162.689 19.2368 162.846 20.1742 162.846 21.0476C162.846 21.9562 162.689 22.8922 162.404 23.7361Z" fill="#898D9A"/>
<path d="M329.418 30.3339C327.831 30.2486 326.647 29.5958 325.955 28.4246C325.491 27.6384 325.349 26.6044 325.562 25.5478C325.797 24.3771 326.597 23.3222 327.824 22.5634C328.529 22.1271 329.132 21.8562 330.361 21.4243C330.67 21.3158 330.937 21.2158 330.954 21.2018C330.979 21.1823 330.982 21.113 330.97 20.8882C330.934 20.2487 331.041 19.2524 331.222 18.5333C331.526 17.3233 332.11 16.3472 332.886 15.7551C333.443 15.3297 334.173 15.0098 334.9 14.8727C335.302 14.7971 335.974 14.7973 336.352 14.8734C337.971 15.1993 338.879 16.4469 338.521 17.8527C338.446 18.1491 338.208 18.6349 338.006 18.9037C337.49 19.5922 336.713 20.2046 335.617 20.7871C335.479 20.8606 335.027 21.0824 334.614 21.2804C334.2 21.4783 333.849 21.6533 333.833 21.6696C333.81 21.6926 333.815 21.7598 333.86 21.9857C334.066 23.0304 334.412 23.9131 335.002 24.9002C335.237 25.2931 335.562 25.7884 335.599 25.8115C335.652 25.8445 335.871 25.4913 336.013 25.1419C336.19 24.7096 336.29 24.1377 336.241 23.8536C336.205 23.6502 336.094 23.4354 335.952 23.2966C335.887 23.2325 335.833 23.1718 335.833 23.1618C335.833 23.152 336.383 23.1464 337.056 23.1499L338.281 23.1562L338.274 23.3115C338.264 23.5237 338.186 23.9764 338.103 24.2986C337.868 25.2045 337.427 25.9793 336.665 26.8255C336.575 26.9252 336.501 27.0231 336.501 27.0431C336.501 27.0631 336.627 27.2019 336.782 27.3516C337.746 28.2861 339.453 29.3638 340.844 29.915C340.979 29.9687 341.089 30.0233 341.089 30.0363C341.088 30.0521 340.285 30.0624 338.743 30.0666L336.398 30.0726L336.264 29.9975C335.992 29.8443 335.388 29.3568 334.809 28.8212C334.686 28.7078 334.57 28.615 334.551 28.615C334.531 28.615 334.395 28.6943 334.248 28.7912C333.495 29.2878 332.595 29.7339 331.834 29.9877C330.968 30.2767 330.254 30.379 329.418 30.3341V30.3339ZM331.392 28.3021C331.743 28.2396 332.174 28.1122 332.571 27.9539C332.97 27.7949 333.464 27.5517 333.482 27.5057C333.489 27.4876 333.397 27.3348 333.279 27.166C332.733 26.3887 332.15 25.2954 331.759 24.3148C331.614 23.9533 331.345 23.1527 331.293 22.9333C331.277 22.8633 331.247 22.7998 331.228 22.7922C331.173 22.7712 330.725 23.01 330.338 23.2666C328.962 24.1786 328.303 25.2919 328.449 26.4552C328.514 26.9722 328.678 27.349 328.976 27.6673C329.526 28.2554 330.387 28.4816 331.392 28.3021ZM333.727 20.2132C334.236 19.9151 335.044 19.1915 335.496 18.6289C336.074 17.9089 336.381 17.2371 336.381 16.6922C336.381 16.3807 336.337 16.2412 336.193 16.0971C336.05 15.9539 335.888 15.8946 335.641 15.8944C334.908 15.8944 334.115 16.7647 333.769 17.9489C333.595 18.5459 333.552 18.8672 333.551 19.5964C333.55 20.1534 333.559 20.2773 333.601 20.2773C333.61 20.2773 333.667 20.2485 333.727 20.2132ZM345.854 30.3199C344.645 30.1984 343.849 30.0177 342.951 29.6621C341.729 29.1776 340.965 28.5776 340.321 27.5945C340.128 27.3002 339.818 26.6823 339.693 26.3408C339.134 24.8193 339.011 22.9037 339.344 20.9054C339.682 18.883 340.45 16.9337 341.51 15.4101C342.198 14.4221 343.221 13.3816 344.277 12.5959C346.021 11.2987 348.028 10.5013 350.258 10.221C350.935 10.1359 351.314 10.114 352.113 10.1145C353.321 10.1152 354.242 10.2073 355.457 10.4488C356.233 10.6032 357.468 10.9365 357.492 10.9981C357.504 11.0293 356.721 13.5378 356.689 13.5715C356.679 13.582 356.559 13.5018 356.422 13.3925C355.323 12.5161 354.184 11.9826 353.032 11.8053C352.664 11.7485 351.972 11.7478 351.611 11.8039C349.996 12.054 348.499 13.0859 347.169 14.865C346.737 15.4429 346.261 16.2175 345.891 16.9447C345.39 17.9303 345.045 18.8016 344.696 19.9667C343.586 23.6737 343.529 26.2636 344.529 27.6656C344.941 28.2433 345.542 28.6113 346.306 28.7519C346.745 28.8328 347.809 28.7838 347.915 28.678C347.932 28.6613 348.451 27.0356 349.069 25.0655C350.085 21.8293 350.194 21.4643 350.206 21.2809C350.221 21.0345 350.176 20.8143 350.065 20.6023C349.964 20.4096 349.698 20.1481 349.479 20.0265C349.384 19.974 349.307 19.9228 349.306 19.913C349.306 19.9033 351.01 19.8951 353.092 19.8951C355.175 19.8951 356.879 19.9033 356.879 19.913C356.879 19.9228 356.786 19.9733 356.674 20.0246C356.084 20.2943 355.657 20.6983 355.403 21.227C355.348 21.3413 354.871 22.8217 354.155 25.1013L352.997 28.7905L352.662 28.9509C351.299 29.6053 349.631 30.0766 347.967 30.2776C347.661 30.3148 346.109 30.3458 345.854 30.3199H345.854ZM311 30.0503C310.992 30.0382 311.043 29.9957 311.112 29.9559C311.523 29.719 311.985 29.2276 312.181 28.818C312.237 28.6994 317.431 12.157 317.546 11.7295C317.566 11.6546 317.583 11.4965 317.584 11.3784C317.585 11.0176 317.473 10.7575 317.209 10.5078C317.137 10.4397 317.078 10.3739 317.078 10.3616C317.078 10.3288 326.148 10.3316 326.564 10.3646C327.465 10.436 328.366 10.6755 329.056 11.026C330.233 11.6246 330.938 12.5331 331.154 13.731C331.215 14.0644 331.226 14.8059 331.177 15.1649C330.975 16.628 330.312 18.18 329.409 19.3028C327.947 21.1216 325.556 22.2847 322.621 22.6046C321.691 22.7059 320.518 22.7315 319.688 22.6683C319.448 22.6499 319.247 22.6399 319.241 22.6459C319.211 22.6757 317.339 28.6838 317.317 28.818C317.251 29.2315 317.464 29.6965 317.831 29.9401C317.904 29.9882 317.957 30.0377 317.949 30.0498C317.931 30.0798 311.018 30.08 311 30.0501L311 30.0503ZM321.295 21.1265C321.977 21.0056 322.578 20.7532 323.159 20.3447C323.441 20.1464 324.02 19.5678 324.259 19.2459C324.857 18.4408 325.297 17.491 325.652 16.2398C325.878 15.4424 325.974 14.835 325.974 14.209C325.974 13.7264 325.93 13.4381 325.808 13.1147C325.628 12.6349 325.261 12.2558 324.795 12.0675C324.395 11.9057 324.053 11.8631 323.231 11.8727L322.612 11.8796L321.171 16.4667C320.379 18.9897 319.735 21.0661 319.74 21.081C319.746 21.0958 319.845 21.1209 319.961 21.1368C320.077 21.1526 320.188 21.1693 320.208 21.1742C320.298 21.1963 321.101 21.1612 321.295 21.1268V21.1265Z" fill="#898D9A"/>
<path fill-rule="evenodd" clip-rule="evenodd" d="M467.468 20.6393C467.468 20.6393 466.268 19.8977 465.527 19.6108C465.527 19.6108 463.231 18.547 462.776 18.0408C462.776 18.0408 461.881 17.1977 462.405 16.2185C462.405 16.2185 462.624 15.5777 463.57 15.5777C463.57 15.5777 464.801 15.6454 464.801 16.6569V18.0839H469.211L469.204 15.9823C469.204 15.9823 469.543 12.5407 464.008 12.3892C464.008 12.3892 459.655 12.103 458.407 14.4477C458.407 14.4477 457.917 14.9708 457.917 16.7923V18.1085C457.917 18.1085 457.867 19.627 458.642 20.6054C458.642 20.6054 459.08 21.247 460.161 21.9547C460.161 21.9547 462.354 23.1355 463.67 23.8116C463.67 23.8116 464.998 24.5701 464.824 25.777C464.824 25.777 464.715 27.0163 463.432 26.9655C463.432 26.9655 462.259 26.9132 462.259 25.6978V24.2716H457.559V26.3432C457.559 26.3432 457.427 30.3048 463.467 30.3048C463.467 30.3048 469.238 30.4217 469.507 26.2394V24.5524C469.506 24.5524 469.711 21.9893 467.468 20.6393ZM444.886 12.8823L443.409 22.1378H443.063L441.653 12.9654H434.285L433.916 29.7263H438.278L438.33 17.0977H438.673L440.986 29.724H445.575L447.859 17.1023H448.163L448.268 29.7263H452.654L452.181 12.8823H444.886ZM418.918 12.9523L416.015 29.7071H420.712L422.431 16.7162H422.817L424.536 29.7071H429.231L426.329 12.9523H418.918ZM517.459 20.4085V22.8801H518.663V25.5332C518.663 26.8301 517.555 26.854 517.555 26.854C516.207 26.854 516.258 25.6216 516.258 25.6216V16.4446C516.258 15.4992 517.454 15.4485 517.454 15.4485C518.602 15.4485 518.61 16.5762 518.61 16.5762V17.9716H523.031C523.176 15.2477 522.633 14.5885 522.633 14.5885C521.536 12.1254 517.387 12.26 517.387 12.26C511.01 12.26 511.718 17.1523 511.718 17.1523V26.0255C511.855 30.614 518.138 30.1479 518.244 30.144C521.039 29.8348 521.883 28.9463 521.883 28.9463C522.66 28.3694 522.86 27.5701 522.86 27.5701C523.082 27.1047 523.137 25.6216 523.137 25.6216V20.4085H517.459ZM502.803 23.1355H502.61L498.123 12.8869H492.755V29.7279H497.124L496.862 19.4808H497.058L501.706 29.7279H506.912V12.8854H502.487L502.803 23.1355ZM482.089 25.5317C482.089 25.5317 482.152 26.914 480.871 26.914C480.871 26.914 479.523 26.9863 479.523 25.5663L479.509 12.8969H474.717V25.4655C474.717 25.4655 474.225 30.2225 480.938 30.2225C480.938 30.2225 486.772 30.2917 486.772 25.684V12.8977H482.089V25.5317ZM409.781 20.6393C409.781 20.6393 408.584 19.8977 407.841 19.6116C407.841 19.6116 405.548 18.5485 405.092 18.0416C405.092 18.0416 404.198 17.1969 404.722 16.22C404.722 16.22 404.941 15.5792 405.885 15.5792C405.885 15.5792 407.117 15.6462 407.117 16.6577V18.0846H411.529L411.521 15.9823C411.521 15.9823 411.858 12.5407 406.325 12.39C406.325 12.39 405.908 12.363 405.297 12.3938C405.297 12.3938 401.945 12.5738 400.747 14.4123C400.74 14.4261 400.73 14.4362 400.723 14.4485C400.723 14.4485 400.234 14.9708 400.234 16.7931V18.1093C400.234 18.1093 400.183 19.6277 400.959 20.6062C400.959 20.6062 401.398 21.2478 402.478 21.9555C402.478 21.9555 404.67 23.1362 405.986 23.8124C405.986 23.8124 407.316 24.5693 407.14 25.7778C407.14 25.7778 407.031 27.017 405.749 26.9663C405.749 26.9663 404.576 26.914 404.576 25.6986V24.2716H399.875V26.3447C399.875 26.3447 399.744 30.3063 405.783 30.3063C405.783 30.3063 411.552 30.4232 411.824 26.2409V24.5555C411.824 24.554 412.025 21.9893 409.781 20.6393Z" fill="#898D9A"/>
<path fill-rule="evenodd" clip-rule="evenodd" d="M616.033 14.5362C617.171 13.916 618.309 13.6053 619.757 13.6053C623.275 13.6053 625.965 16.7099 625.965 20.9516C625.965 26.3322 622.655 29.747 617.171 29.747C615.204 29.747 613.238 29.4363 611.375 29.0222C611.479 26.8491 611.584 13.6053 611.375 11.122C611.17 9.87983 610.859 9.36298 609.928 9.15624L609.204 9.05287V8.43206L616.137 7.19104C616.033 8.22533 616.033 11.2254 616.033 14.5362ZM616.136 28.5053C616.445 28.6081 616.963 28.6081 617.377 28.6081C619.551 28.6081 621.103 25.4013 621.103 21.2612C621.103 17.951 619.862 15.261 617.584 15.261C617.066 15.261 616.653 15.3644 616.032 15.5717C615.929 20.9516 616.032 27.057 616.136 28.5053ZM564.918 7.60452H583.129L583.233 13.7093L582.198 14.02C581.164 10.9153 579.715 9.15684 576.921 9.15684H573.3C573.196 11.1226 573.092 14.4334 573.092 17.9516L575.575 17.8476C577.127 17.8476 577.85 16.6066 578.162 14.8475H579.093V22.1915H578.162C577.851 20.433 577.127 19.1914 575.575 19.1914L573.092 19.088C573.092 21.7774 573.195 23.9505 573.299 25.2961C573.506 27.2625 574.023 28.1934 575.368 28.2962L576.61 28.5041V29.3317H564.918V28.5041L565.953 28.2962C567.298 28.194 567.815 27.2625 568.021 25.2961C568.229 22.0899 568.333 15.3638 568.021 11.6389C567.815 9.67309 567.297 8.84554 565.953 8.6388L564.918 8.53543V7.60452ZM596.788 21.5731C596.788 16.9173 594.201 13.3992 589.027 13.3992C583.854 13.3992 580.957 17.124 580.957 21.5731C580.957 26.2295 583.543 29.7482 588.717 29.7482C593.891 29.7482 596.788 26.0221 596.788 21.5731ZM585.819 21.5731C585.819 17.5381 586.44 14.434 588.717 14.434C590.89 14.434 591.924 17.6415 591.924 21.5731C591.924 25.608 591.302 28.7121 588.924 28.7121C586.854 28.7121 585.819 25.5047 585.819 21.5731ZM635.278 13.3992C630 13.3992 627.31 17.4347 627.31 21.677C627.31 26.4368 630.621 29.7476 635.278 29.7482C638.174 29.7482 640.45 28.2986 641.485 26.8503L641.072 26.3334C640.037 27.0582 639.209 27.4711 637.553 27.4711C633.828 27.4711 631.966 24.6771 632.069 20.8489H641.692C641.692 16.6072 639.622 13.3992 635.278 13.3992ZM636.933 19.6073L632.069 19.7112C632.172 17.3308 633.105 14.434 634.863 14.434C636.622 14.434 636.933 17.5381 636.933 19.6073ZM649.248 13.3992C651.11 13.3992 652.765 13.7093 654.007 14.2273L654.113 18.2623L653.389 18.469C652.456 15.6751 651.215 14.5368 649.354 14.5368C648.112 14.5368 647.179 15.4683 647.179 16.8133C647.179 18.1589 648.213 18.8831 651.111 20.0207C653.801 21.0562 654.94 22.2973 654.94 24.4704C654.94 27.6772 652.353 29.7476 648.317 29.7476C646.351 29.7476 644.075 29.3329 642.833 28.8161L642.729 24.2637L643.454 24.0557C644.591 27.1604 646.041 28.298 648.006 28.298C649.662 28.298 650.593 27.1604 650.593 25.9187C650.593 24.6771 649.869 23.9523 647.283 23.022C644.796 22.1939 643.039 21.0562 643.039 18.3656C643.039 15.6751 645.42 13.3992 649.248 13.3992ZM603.72 17.0213C605.375 13.2958 608.48 12.7795 610.238 13.8132L608.583 18.0561C606.513 16.7111 604.237 17.3314 603.72 18.0561C603.616 20.5394 603.616 24.471 603.823 26.4374C603.927 27.6778 604.238 28.2986 605.272 28.4026L606.513 28.5066V29.3341H596.891V28.5066L597.615 28.4026C598.548 28.2986 598.96 27.6778 599.064 26.4374C599.168 24.2648 599.271 19.9186 599.064 17.4353C598.96 16.0897 598.548 15.5729 597.615 15.4689L596.891 15.3656V14.7448L603.823 13.3998L603.72 17.0213Z" fill="#898D9A"/>
<path fill-rule="evenodd" clip-rule="evenodd" d="M706.704 9.43396C706.705 9.44045 706.708 9.44695 706.71 9.45344L706.71 9.45345C706.714 9.46319 706.717 9.47293 706.718 9.48267C706.72 9.51312 706.72 9.54154 706.72 9.57198V10.7776L706.72 10.7952C706.721 10.8615 706.721 10.8939 706.704 10.9098C706.689 10.9249 706.659 10.9251 706.6 10.9255L706.569 10.9258H705.93H696.222C696.189 10.9258 696.161 10.9264 696.138 10.9268C696.067 10.9282 696.033 10.9289 696.016 10.9121C696.001 10.8961 696.001 10.8641 696.002 10.8018C696.003 10.7781 696.003 10.75 696.003 10.7167V9.43396H706.704ZM743.301 18.6612L743.291 18.6625C743.283 18.6635 743.277 18.6643 743.274 18.6673C743.263 18.6855 743.253 18.7038 743.244 18.7241C743.203 18.8355 743.161 18.9469 743.12 19.0588L743.12 19.0608L743.119 19.0619C743.092 19.1345 743.066 19.2072 743.038 19.2802C743.026 19.3168 743.011 19.3513 742.994 19.3878C742.982 19.389 742.972 19.3908 742.961 19.3926L742.949 19.3946L742.94 19.3959C742.913 19.3973 742.886 19.3968 742.86 19.3964C742.847 19.3962 742.833 19.3959 742.82 19.3959H734.676L734.658 19.3961L734.64 19.3965C734.594 19.3975 734.548 19.3986 734.5 19.3858C734.485 19.3513 734.47 19.3147 734.458 19.2802C734.388 19.0996 734.321 18.9189 734.254 18.7383C734.249 18.723 734.242 18.7086 734.235 18.6939L734.235 18.6939L734.235 18.6936C734.231 18.685 734.226 18.6763 734.223 18.6673C734.22 18.6652 734.216 18.6632 734.212 18.6632C734.204 18.6612 734.195 18.6673 734.195 18.6774L734.195 18.683C734.193 18.7114 734.191 18.7382 734.191 18.7667V19.2417C734.191 19.2762 734.191 19.3107 734.189 19.3452C734.189 19.3756 734.172 19.3939 734.143 19.3959L734.132 19.3962L734.116 19.3969L734.109 19.3973L734.102 19.3977L734.09 19.398H733.998H729.739C729.691 19.398 729.642 19.398 729.592 19.3959C729.562 19.3959 729.546 19.3777 729.546 19.3452C729.546 19.3297 729.545 19.3142 729.545 19.299C729.544 19.2843 729.544 19.2698 729.544 19.2559V18.0482C729.544 18.0309 729.544 18.0137 729.545 17.9964C729.545 17.9792 729.546 17.9619 729.546 17.9447C729.546 17.9284 729.562 17.9102 729.577 17.9102C729.594 17.9081 729.613 17.9061 729.63 17.9061H729.749H738.105C738.138 17.9061 738.166 17.9055 738.189 17.905C738.251 17.9037 738.28 17.903 738.299 17.9168C738.315 17.9291 738.323 17.9529 738.338 17.9979L738.338 17.998C738.346 18.0214 738.356 18.0505 738.37 18.0868C738.452 18.3031 738.533 18.5205 738.614 18.7382L738.614 18.7382L738.614 18.7383L738.614 18.7383L738.614 18.7383L738.614 18.7384L738.614 18.7384L738.614 18.7384L738.614 18.7385L738.614 18.7385L738.614 18.7386L738.614 18.7386L738.614 18.7387L738.614 18.7389L738.614 18.739L738.614 18.7391L738.614 18.7407L738.615 18.7422C738.649 18.8336 738.683 18.925 738.717 19.0164C738.72 19.026 738.724 19.0356 738.727 19.0452L738.728 19.0454L738.728 19.0455C738.736 19.0681 738.744 19.0904 738.754 19.1118C738.757 19.1171 738.765 19.1207 738.775 19.1248C738.78 19.127 738.785 19.1293 738.79 19.1321C738.831 19.0357 738.865 18.9394 738.899 18.8438L738.899 18.8436C738.913 18.8063 738.926 18.7692 738.939 18.7322C738.965 18.6642 738.99 18.5956 739.015 18.5271L739.015 18.5267C739.04 18.4584 739.065 18.39 739.091 18.3222L739.142 18.1819L739.142 18.1814C739.173 18.0952 739.205 18.0082 739.238 17.9203C739.246 17.9189 739.254 17.9169 739.262 17.9149C739.276 17.9115 739.289 17.9081 739.303 17.9081C739.343 17.9061 739.383 17.9061 739.423 17.9061H747.726C747.745 17.9061 747.763 17.9059 747.779 17.9058H747.779H747.779C747.852 17.9051 747.887 17.9048 747.904 17.9223C747.921 17.9391 747.92 17.9723 747.92 18.0371C747.919 18.053 747.919 18.0708 747.919 18.0908V19.2457C747.919 19.2843 747.917 19.3229 747.915 19.3614C747.915 19.3777 747.898 19.3939 747.881 19.3959C747.869 19.398 747.854 19.398 747.841 19.398H747.749H743.478H743.425L743.413 19.398C743.356 19.398 743.328 19.3981 743.315 19.384C743.301 19.3703 743.301 19.3432 743.301 19.2896L743.301 19.2782V18.7647C743.305 18.7314 743.303 18.7 743.301 18.665L743.301 18.6612ZM724.511 27.87H724.65C724.728 27.803 724.776 27.7259 724.818 27.6468C724.875 27.5432 724.921 27.4377 724.961 27.3281C725.064 27.0541 725.133 26.7699 725.194 26.4858C725.197 26.4724 725.198 26.4581 725.199 26.4441L725.199 26.444L725.199 26.444L725.199 26.4348L725.2 26.4228C725.202 26.4066 725.186 26.3863 725.171 26.3863L725.165 26.3861H725.165H725.165C725.104 26.3841 725.045 26.3822 724.984 26.3822H708.443H708.363L708.346 26.3822C708.279 26.3821 708.245 26.3821 708.229 26.3986C708.213 26.4147 708.213 26.4467 708.213 26.5099L708.214 26.5324V27.7137L708.213 27.7409C708.213 27.8068 708.213 27.8394 708.229 27.8554C708.245 27.8711 708.277 27.8708 708.339 27.8703H708.339L708.382 27.87H724.511ZM716.698 13.7496H708.42C708.394 13.7496 708.367 13.7491 708.34 13.7486L708.34 13.7486C708.313 13.7481 708.287 13.7476 708.26 13.7476C708.237 13.7476 708.218 13.7293 708.216 13.707C708.214 13.6867 708.212 13.6644 708.212 13.6421V12.3572C708.212 12.3369 708.214 12.3146 708.216 12.2943C708.218 12.2781 708.235 12.2639 708.252 12.2618C708.264 12.2598 708.279 12.2598 708.292 12.2598H708.412H724.461H724.554L724.567 12.2598C724.603 12.2597 724.622 12.2597 724.639 12.2667C724.658 12.275 724.674 12.2932 724.708 12.333L724.709 12.3349C724.768 12.4039 724.812 12.4831 724.854 12.5643C724.928 12.7104 724.982 12.8647 725.031 13.021C725.096 13.226 725.144 13.435 725.19 13.6441C725.194 13.6627 725.196 13.6831 725.198 13.702L725.199 13.707C725.201 13.7293 725.186 13.7476 725.159 13.7476C725.106 13.7496 725.052 13.7496 724.999 13.7496H719.57H716.698ZM723.247 29.2041H715.835C713.679 29.2041 711.524 29.2041 709.366 29.2021H708.395C708.351 29.2021 708.307 29.2041 708.263 29.2062C708.24 29.2082 708.221 29.2244 708.219 29.2467C708.216 29.2853 708.214 29.3239 708.214 29.3624V30.1337V30.558C708.214 30.5884 708.216 30.6188 708.223 30.6473C708.225 30.6574 708.237 30.6696 708.248 30.6716C708.282 30.6757 708.317 30.6777 708.353 30.6777C708.62 30.6797 708.885 30.6797 709.151 30.6797C709.692 30.6797 710.232 30.6802 710.772 30.6807L710.777 30.6808H710.778H710.779H710.779H710.78H710.781H710.782H710.783H710.783H710.784H710.785H710.786H710.787H710.787H710.788H710.789H710.79H710.79H710.791H710.792H710.793H710.794H710.794H710.795H710.796H710.797H710.798H710.798H710.799H710.8H710.801H710.802H710.802C711.335 30.6813 711.867 30.6818 712.4 30.6818C713.03 30.6818 713.66 30.6823 714.29 30.6828C714.919 30.6833 715.549 30.6838 716.179 30.6838H719.094C719.111 30.6838 719.129 30.6836 719.146 30.6833C719.182 30.6829 719.218 30.6824 719.253 30.6838C719.533 30.6899 719.812 30.6879 720.092 30.6757C720.215 30.6696 720.339 30.6574 720.461 30.6391C720.707 30.6026 720.949 30.5519 721.186 30.4788C721.982 30.2352 722.695 29.8435 723.331 29.3239C723.363 29.2996 723.392 29.2712 723.419 29.2448L723.419 29.2448L723.419 29.2448L723.42 29.2448L723.42 29.2448L723.42 29.2448L723.42 29.2447L723.42 29.2447L723.42 29.2447L723.42 29.2447C723.424 29.2407 723.426 29.2285 723.424 29.2224C723.422 29.2163 723.413 29.2082 723.407 29.2082C723.354 29.2062 723.3 29.2041 723.247 29.2041ZM715.828 10.9263H708.416C708.363 10.9263 708.308 10.9243 708.256 10.9223C708.239 10.9223 708.222 10.906 708.22 10.8898C708.219 10.8794 708.219 10.8692 708.218 10.8591L708.218 10.859C708.216 10.8396 708.214 10.8205 708.214 10.8005V9.5806V9.52986C708.216 9.47506 708.229 9.46491 708.285 9.46288H708.378H709.523H716.244H719.772H719.971C720.19 9.46288 720.404 9.49129 720.618 9.52986C721.245 9.63946 721.826 9.86476 722.375 10.1692C722.711 10.356 723.026 10.5671 723.32 10.8106C723.35 10.835 723.381 10.8614 723.409 10.8877C723.413 10.8918 723.415 10.902 723.415 10.9101C723.415 10.9202 723.409 10.9243 723.398 10.9243C723.35 10.9263 723.301 10.9263 723.251 10.9263H715.828ZM722.953 19.3976H723.081C723.092 19.3904 723.101 19.3852 723.11 19.3806L723.119 19.3753C723.397 19.1581 723.655 18.9247 723.892 18.669C724.023 18.5289 724.145 18.3807 724.25 18.2224C724.302 18.1433 724.353 18.0621 724.392 17.9768C724.413 17.9301 724.403 17.9098 724.355 17.9078C724.311 17.9058 724.266 17.9058 724.222 17.9058H721.508H711.498H711.366C711.353 17.9058 711.339 17.9078 711.326 17.9098C711.309 17.9119 711.293 17.9281 711.293 17.9443L711.293 17.9444C711.29 17.9829 711.288 18.0215 711.288 18.06V19.2413L711.288 19.2823C711.288 19.3411 711.287 19.3704 711.302 19.3848C711.316 19.3992 711.345 19.3988 711.403 19.398L711.404 19.398C711.419 19.3978 711.435 19.3976 711.454 19.3976H722.953ZM723.076 20.7339C723.099 20.7521 723.121 20.77 723.142 20.7876C723.169 20.8092 723.195 20.8304 723.221 20.8516C723.486 21.0688 723.736 21.2981 723.961 21.5539C724.078 21.6878 724.19 21.8259 724.282 21.9781C724.322 22.0451 724.358 22.1141 724.394 22.1831C724.396 22.1899 724.394 22.1986 724.392 22.2085C724.391 22.2133 724.39 22.2184 724.389 22.2237H724.24H721.618H711.478C711.426 22.2237 711.371 22.2217 711.319 22.2196C711.302 22.2196 711.287 22.2034 711.285 22.1851C711.283 22.1547 711.283 22.1263 711.283 22.0958V20.8638C711.283 20.8486 711.284 20.8338 711.284 20.8191C711.285 20.8044 711.285 20.7897 711.285 20.7745C711.285 20.7542 711.306 20.7359 711.329 20.7339C711.346 20.7318 711.365 20.7318 711.382 20.7318H711.514H722.879L722.91 20.7308C722.968 20.7289 723.024 20.727 723.076 20.7339ZM706.525 12.2598H701.363C699.734 12.2598 698.106 12.2598 696.482 12.2618H696.135C696.106 12.2618 696.078 12.2636 696.048 12.2655L696.043 12.2659C696.028 12.2659 696.011 12.2841 696.011 12.3004C696.009 12.343 696.007 12.3856 696.007 12.4282V13.5832V13.6725C696.007 13.7394 696.016 13.7476 696.081 13.7496H696.213H706.512H706.645C706.657 13.7496 706.672 13.7476 706.685 13.7455C706.701 13.7435 706.718 13.7273 706.718 13.711C706.72 13.6786 706.722 13.644 706.722 13.6095V12.4019C706.722 12.3734 706.722 12.343 706.72 12.3125C706.718 12.2821 706.701 12.2618 706.672 12.2618C706.622 12.2598 706.573 12.2598 706.525 12.2598ZM701.432 27.8704H696.27C696.223 27.8704 696.177 27.8685 696.129 27.8666L696.123 27.8663C696.106 27.8663 696.089 27.8501 696.089 27.8338C696.087 27.8135 696.085 27.7912 696.085 27.7709V26.4881C696.085 26.477 696.085 26.4663 696.086 26.4556C696.087 26.445 696.087 26.4343 696.087 26.4232C696.089 26.4069 696.104 26.3907 696.119 26.3887C696.131 26.3866 696.144 26.3846 696.158 26.3846H696.278H706.603C706.655 26.3846 706.71 26.3866 706.762 26.3887C706.779 26.3887 706.796 26.4069 706.798 26.4211L706.799 26.4264C706.8 26.4508 706.802 26.4737 706.802 26.4983V27.7567C706.802 27.779 706.802 27.7993 706.8 27.8216C706.798 27.8521 706.781 27.8704 706.752 27.8724C706.712 27.8744 706.672 27.8744 706.632 27.8744H704.916C703.756 27.8704 702.594 27.8704 701.432 27.8704ZM696.284 30.6771H701.447C703.159 30.6771 704.869 30.6771 706.584 30.6751H706.703C706.72 30.6751 706.739 30.6751 706.756 30.673C706.783 30.671 706.8 30.6528 706.802 30.6223C706.804 30.5959 706.804 30.5716 706.804 30.5452V30.5452V29.3375V29.3374C706.804 29.307 706.804 29.2786 706.802 29.2482C706.802 29.2279 706.781 29.2076 706.76 29.2076L706.754 29.2073H706.754H706.754H706.754H706.754H706.754H706.754H706.754H706.754H706.754H706.754H706.754H706.754H706.754H706.754C706.706 29.2054 706.659 29.2035 706.613 29.2035H696.274H696.181C696.175 29.2035 696.168 29.204 696.161 29.2045C696.155 29.205 696.148 29.2056 696.142 29.2056C696.108 29.2076 696.091 29.2238 696.089 29.2522C696.087 29.2746 696.087 29.2949 696.087 29.3172V30.5634C696.087 30.5881 696.089 30.6109 696.091 30.6353L696.091 30.6406C696.091 30.6568 696.108 30.673 696.125 30.673C696.177 30.6751 696.232 30.6771 696.284 30.6771ZM736.745 13.7433C736.739 13.744 736.733 13.7449 736.728 13.7458C736.716 13.7476 736.705 13.7494 736.694 13.7494C736.667 13.7508 736.641 13.7503 736.614 13.7499C736.601 13.7496 736.588 13.7494 736.574 13.7494H726.672C726.62 13.7494 726.565 13.7474 726.512 13.7453C726.496 13.7453 726.479 13.7291 726.477 13.7129C726.476 13.7038 726.475 13.6949 726.474 13.6861C726.472 13.6695 726.47 13.653 726.47 13.6357V12.3773C726.47 12.355 726.47 12.3347 726.473 12.3124C726.475 12.2758 726.491 12.2596 726.531 12.2596C726.571 12.2575 726.611 12.2575 726.651 12.2575H736.047C736.057 12.2575 736.068 12.2574 736.079 12.2572C736.121 12.2566 736.165 12.2559 736.209 12.2657C736.221 12.2921 736.234 12.3205 736.244 12.3469C736.413 12.8015 736.581 13.2582 736.747 13.7129C736.749 13.7169 736.747 13.721 736.745 13.725C736.747 13.7311 736.747 13.7352 736.745 13.7433ZM740.789 13.7163C740.788 13.7245 740.787 13.7332 740.785 13.7418C740.822 13.7512 740.858 13.7517 740.893 13.7522C740.91 13.7524 740.928 13.7526 740.944 13.754H750.735H750.842C750.857 13.754 750.872 13.754 750.882 13.7479C750.893 13.7418 750.905 13.7316 750.908 13.7215C750.914 13.6951 750.914 13.6707 750.914 13.6444V12.3737C750.914 12.3491 750.912 12.3262 750.91 12.3018L750.91 12.2966C750.91 12.2824 750.891 12.2662 750.874 12.2662L750.868 12.2659C750.82 12.264 750.773 12.2621 750.727 12.2621H741.482C741.47 12.2621 741.458 12.2619 741.447 12.2617C741.423 12.2612 741.399 12.2608 741.375 12.2621L741.358 12.2641C741.346 12.2655 741.335 12.2668 741.325 12.2682C741.3 12.2973 741.289 12.3297 741.278 12.3624L741.274 12.3737C741.155 12.7026 741.033 13.0334 740.911 13.3643L740.886 13.4321L740.886 13.4325C740.854 13.5187 740.823 13.6043 740.793 13.691C740.791 13.6985 740.79 13.7072 740.789 13.7163ZM735.17 9.46852L735.179 9.48461C735.184 9.49451 735.189 9.50384 735.193 9.51317C735.364 9.97189 735.534 10.4306 735.702 10.8893C735.703 10.892 735.703 10.8947 735.702 10.8974C735.702 10.8988 735.702 10.9002 735.702 10.9015C735.702 10.904 735.701 10.9065 735.7 10.91C735.699 10.9121 735.698 10.9146 735.698 10.9177C735.689 10.9188 735.681 10.9203 735.672 10.9218L735.672 10.9218C735.664 10.9233 735.656 10.9248 735.647 10.9259C735.618 10.9272 735.588 10.9268 735.559 10.9263C735.544 10.9261 735.529 10.9259 735.515 10.9259H726.682C726.63 10.9259 726.575 10.9259 726.522 10.9238C726.493 10.9238 726.476 10.9056 726.474 10.8731C726.472 10.8426 726.472 10.8142 726.472 10.7838V9.60248C726.472 9.56797 726.474 9.53347 726.476 9.50099C726.478 9.48475 726.493 9.46649 726.51 9.46649C726.522 9.46446 726.537 9.46446 726.55 9.46446H726.669H734.996L735.016 9.46366C735.067 9.46166 735.118 9.45959 735.17 9.46852ZM741.825 10.9023C741.826 10.9073 741.827 10.9126 741.827 10.9183C741.875 10.9301 741.923 10.9279 741.971 10.9256L742.001 10.9244H750.718H750.838C750.851 10.9244 750.865 10.9223 750.878 10.9203C750.895 10.9203 750.911 10.9041 750.911 10.8878L750.911 10.8876C750.914 10.8451 750.916 10.8025 750.916 10.76C750.916 10.6378 750.916 10.5155 750.916 10.3931V10.3929V10.3926V10.3924V10.3922V10.392V10.3918V10.3916V10.3913V10.3911V10.3909V10.3907V10.3905V10.3902V10.39V10.3898V10.3896V10.3893V10.3891V10.3889V10.3887V10.3884V10.3882C750.917 10.1399 750.917 9.89131 750.916 9.64361C750.915 9.61913 750.916 9.5979 750.916 9.57949V9.57939V9.57929V9.5792V9.57911V9.57903V9.57895V9.57888V9.57881V9.57875V9.57868V9.57863V9.57857V9.57852V9.57848V9.57843V9.57839V9.57835V9.57831V9.57828V9.57825V9.57823V9.5782V9.57818V9.57816V9.57814V9.57812V9.57809V9.57807V9.57805V9.57803V9.57801V9.57799V9.57797V9.57795V9.57793V9.57791V9.57789V9.57787V9.57785V9.57783V9.57781C750.916 9.51917 750.917 9.4896 750.902 9.475C750.887 9.46014 750.857 9.46077 750.795 9.46204C750.775 9.46247 750.751 9.46297 750.722 9.46297H742.524H742.444H742.404C742.352 9.465 742.341 9.47109 742.325 9.51371C742.314 9.53807 742.306 9.56242 742.297 9.58678C742.163 9.95024 742.03 10.3157 741.896 10.6812L741.896 10.6813L741.894 10.6869L741.824 10.8817C741.822 10.8879 741.823 10.8947 741.825 10.9023ZM733.679 16.5726H729.727C729.68 16.5726 729.634 16.5707 729.586 16.5688L729.58 16.5685C729.563 16.5685 729.548 16.5503 729.548 16.534C729.546 16.5036 729.546 16.4752 729.546 16.4447V15.2127C729.546 15.1782 729.548 15.1437 729.552 15.1112C729.552 15.1051 729.563 15.097 729.571 15.0929C729.584 15.0889 729.596 15.0868 729.611 15.0868H729.743H737.087L737.112 15.087L737.131 15.0873C737.16 15.0877 737.19 15.0882 737.219 15.0868C737.25 15.0868 737.267 15.1031 737.278 15.1295C737.303 15.1944 737.326 15.2573 737.349 15.3223C737.49 15.6998 737.631 16.0794 737.769 16.4569C737.78 16.4853 737.788 16.5137 737.797 16.5422C737.801 16.5523 737.786 16.5685 737.776 16.5685C737.727 16.5706 737.679 16.5706 737.629 16.5706C736.313 16.5726 734.996 16.5726 733.679 16.5726ZM739.754 16.5552L739.755 16.5601C739.756 16.5622 739.757 16.5643 739.757 16.5665C739.789 16.5729 739.823 16.5736 739.856 16.5743C739.875 16.5747 739.894 16.5751 739.913 16.5766H747.733H747.8L747.816 16.5764C747.922 16.5749 747.924 16.5748 747.924 16.4548V15.2106V15.2105C747.924 15.1841 747.924 15.1598 747.922 15.1335C747.922 15.1091 747.905 15.0908 747.882 15.0908C747.831 15.0888 747.783 15.0888 747.735 15.0888H740.459H740.339L740.333 15.0888C740.312 15.0886 740.293 15.0885 740.274 15.1071C740.269 15.12 740.264 15.1336 740.258 15.1477L740.258 15.1478L740.258 15.1479C740.253 15.1602 740.247 15.173 740.242 15.1862C740.089 15.6084 739.934 16.0326 739.778 16.4548C739.768 16.4832 739.759 16.5117 739.751 16.5401C739.749 16.5439 739.751 16.5492 739.754 16.5552ZM747.152 27.8709H743.494C743.45 27.8709 743.406 27.8709 743.362 27.8689C743.328 27.8689 743.311 27.8526 743.309 27.8242C743.309 27.8161 743.309 27.8075 743.308 27.7988L743.308 27.7932C743.307 27.7865 743.307 27.7798 743.307 27.7735V26.4765C743.307 26.4683 743.308 26.4597 743.308 26.4511C743.309 26.4425 743.309 26.4338 743.309 26.4257C743.311 26.4034 743.328 26.3851 743.353 26.3851C743.402 26.3831 743.45 26.3831 743.5 26.3831H746.375H750.791C750.82 26.3831 750.844 26.3827 750.866 26.3823C750.934 26.381 750.968 26.3804 750.984 26.3969C751 26.4129 750.999 26.4449 750.998 26.5078L750.997 26.5429L750.997 26.578C750.998 26.8296 750.998 27.0803 750.997 27.3313C750.997 27.4569 750.997 27.5826 750.997 27.7085C750.997 27.7511 750.995 27.7938 750.993 27.8364C750.993 27.8526 750.974 27.8668 750.957 27.8689C750.951 27.8689 750.944 27.8694 750.937 27.8699C750.93 27.8704 750.923 27.8709 750.917 27.8709H750.797H747.152ZM726.748 27.87H730.366C731.576 27.87 732.788 27.87 733.996 27.872C734.022 27.872 734.047 27.8715 734.071 27.871L734.071 27.871C734.096 27.8705 734.119 27.87 734.143 27.87C734.166 27.87 734.185 27.8517 734.187 27.8314L734.188 27.8261C734.19 27.8017 734.192 27.7789 734.192 27.7543V26.4959C734.192 26.4713 734.19 26.4485 734.188 26.4241L734.187 26.4187C734.185 26.4045 734.168 26.3863 734.152 26.3863C734.103 26.3842 734.055 26.3822 734.007 26.3822H726.745C726.706 26.3822 726.666 26.3822 726.626 26.3842C726.575 26.3863 726.561 26.3984 726.558 26.4431C726.556 26.4817 726.556 26.5202 726.556 26.5588C726.556 26.6839 726.556 26.8092 726.556 26.9346C726.555 27.1856 726.555 27.4369 726.556 27.6873L726.556 27.7206L726.556 27.7458V27.7459V27.7461C726.555 27.809 726.554 27.8407 726.57 27.8563C726.586 27.8722 726.618 27.8717 726.683 27.8706C726.702 27.8703 726.723 27.87 726.748 27.87ZM747.146 30.6775H743.514L743.474 30.6777L743.438 30.6783C743.369 30.6795 743.336 30.6801 743.32 30.6637C743.305 30.648 743.305 30.6168 743.307 30.5558C743.307 30.535 743.308 30.5108 743.308 30.4826C743.306 30.2258 743.307 29.9689 743.307 29.7126V29.7115V29.711V29.7106V29.7102L743.308 29.5676L743.308 29.3277C743.308 29.208 743.308 29.2059 743.432 29.2059H743.524H750.777L750.817 29.2057L750.857 29.2051L750.857 29.2051C750.931 29.2038 750.966 29.2031 750.983 29.2206C750.999 29.2372 750.999 29.27 750.998 29.334C750.998 29.3568 750.997 29.3836 750.998 29.415C750.999 29.6693 750.998 29.9227 750.998 30.1765C750.998 30.3034 750.998 30.4305 750.998 30.5577V30.5636V30.5637C750.998 30.6199 750.998 30.6484 750.983 30.6628C750.969 30.6775 750.939 30.6775 750.88 30.6775H750.874H750.766H747.146ZM726.762 30.6776H730.368H730.371C731.58 30.6776 732.789 30.6776 734 30.6756C734.051 30.6756 734.099 30.6756 734.147 30.6736C734.171 30.6716 734.192 30.6533 734.192 30.633C734.192 30.6137 734.192 30.5944 734.193 30.5751C734.193 30.5559 734.194 30.5366 734.194 30.5173C734.194 30.3914 734.194 30.2655 734.194 30.1396C734.195 29.8882 734.195 29.637 734.194 29.3867C734.193 29.3641 734.194 29.3442 734.194 29.3267C734.194 29.2666 734.194 29.2351 734.179 29.2188C734.162 29.2009 734.126 29.2012 734.05 29.2018L734 29.202H726.75C726.71 29.202 726.67 29.202 726.63 29.2041C726.573 29.2061 726.561 29.2203 726.558 29.2731C726.556 29.3116 726.556 29.3502 726.556 29.3888C726.556 29.5099 726.556 29.6307 726.556 29.7515L726.556 29.754C726.555 29.9966 726.555 30.2387 726.556 30.4808C726.557 30.5076 726.556 30.5308 726.556 30.5509V30.5509C726.556 30.6145 726.555 30.6469 726.571 30.6631C726.588 30.68 726.622 30.6794 726.692 30.6783H726.692L726.713 30.678L726.748 30.6777L726.762 30.6776ZM735.567 22.2178C735.55 22.1792 735.538 22.1467 735.525 22.1143C735.366 21.6932 735.209 21.2722 735.052 20.8511L735.052 20.8509L735.052 20.8507L735.051 20.8505L735.051 20.8503L735.051 20.8501L735.051 20.8498L735.051 20.8496L735.051 20.8494L735.051 20.8492L735.051 20.849L735.051 20.8488L735.051 20.8486L735.051 20.8483L735.051 20.8481L735.05 20.8479L735.05 20.8477L735.025 20.7746C735.017 20.7503 735.031 20.732 735.057 20.732C735.092 20.73 735.128 20.73 735.164 20.73H735.164H742.345C742.385 20.73 742.425 20.732 742.465 20.734C742.482 20.734 742.494 20.7543 742.488 20.7706C742.484 20.7827 742.48 20.7949 742.476 20.8071L742.47 20.8284L742.465 20.8436C742.386 21.0567 742.307 21.2703 742.229 21.4839C742.15 21.6976 742.071 21.9112 741.992 22.1244C741.984 22.1488 741.973 22.1731 741.963 22.1954C741.956 22.2056 741.944 22.2137 741.933 22.2178C741.921 22.2218 741.908 22.2218 741.893 22.2218H741.786H735.735C735.722 22.2218 735.708 22.2221 735.695 22.2223L735.695 22.2223C735.654 22.2231 735.613 22.2239 735.567 22.2178ZM736.587 24.9413C736.599 24.9764 736.61 25.0115 736.64 25.043C736.675 25.043 736.715 25.0451 736.755 25.0471L736.755 25.0471H740.787C740.817 25.0471 740.848 25.0471 740.88 25.0451C740.901 25.043 740.913 25.0329 740.922 25.0167C740.932 24.9943 740.943 24.97 740.951 24.9456C741.03 24.7325 741.109 24.519 741.187 24.3054C741.266 24.0917 741.345 23.878 741.424 23.6649C741.432 23.6405 741.441 23.6161 741.447 23.5918C741.451 23.5755 741.436 23.5573 741.417 23.5573L741.417 23.5573C741.373 23.5552 741.329 23.5532 741.285 23.5532H736.255H736.148C736.135 23.5532 736.121 23.5552 736.108 23.5573C736.098 23.5573 736.083 23.5735 736.085 23.5837C736.091 23.608 736.098 23.6324 736.106 23.6567C736.122 23.6995 736.138 23.7417 736.153 23.7839C736.169 23.8259 736.185 23.8679 736.201 23.9104C736.264 24.0769 736.326 24.2438 736.389 24.4108C736.451 24.5777 736.514 24.7447 736.577 24.9111L736.582 24.9252L736.587 24.9413ZM725.037 16.5648C725.029 16.5656 725.021 16.5666 725.014 16.5677C725.003 16.5693 724.992 16.5709 724.98 16.5709C724.956 16.5723 724.932 16.5718 724.909 16.5714L724.892 16.5711L724.873 16.5709H720.589C720.545 16.5709 720.501 16.5689 720.456 16.5669C720.44 16.5669 720.425 16.5486 720.423 16.5324L720.422 16.5271C720.42 16.5027 720.419 16.4798 720.419 16.4552V15.1968C720.419 15.1663 720.421 15.1379 720.425 15.1075C720.425 15.1014 720.435 15.0933 720.442 15.0892C720.45 15.0852 720.459 15.0831 720.467 15.0831C720.487 15.0831 720.507 15.0826 720.527 15.0821C720.547 15.0816 720.567 15.0811 720.587 15.0811H725.163H725.27C725.316 15.0831 725.331 15.0953 725.329 15.144C725.329 15.209 725.327 15.2719 725.32 15.3368C725.283 15.7225 725.194 16.096 725.068 16.4633C725.062 16.5019 725.049 16.5344 725.037 16.5648ZM725.05 23.6074L725.035 23.5673C724.979 23.5484 724.933 23.5506 724.89 23.5526L724.88 23.553H720.594C720.579 23.553 720.564 23.5535 720.549 23.554L720.527 23.5547L720.511 23.555L720.501 23.5551C720.487 23.5551 720.474 23.5571 720.461 23.5591C720.447 23.5612 720.426 23.5794 720.426 23.5936L720.426 23.5937C720.424 23.6323 720.421 23.6708 720.421 23.7093C720.421 23.8371 720.421 23.965 720.421 24.0931C720.421 24.3498 720.42 24.607 720.421 24.8643C720.421 24.8868 720.421 24.9067 720.421 24.9241C720.42 24.9879 720.42 25.0195 720.435 25.0348C720.45 25.0497 720.481 25.0491 720.541 25.0478C720.562 25.0474 720.585 25.0469 720.613 25.0469H725.138H725.271C725.275 25.0463 725.28 25.0459 725.284 25.0454L725.284 25.0454C725.293 25.0445 725.302 25.0436 725.311 25.0408C725.317 25.0368 725.325 25.0287 725.327 25.0226C725.332 25.0023 725.334 24.9799 725.334 24.9597C725.336 24.8297 725.317 24.7019 725.298 24.576C725.256 24.2838 725.182 23.9976 725.09 23.7154C725.078 23.6797 725.064 23.644 725.05 23.6074ZM699.091 15.0929C699.099 15.0921 699.107 15.091 699.114 15.09L699.114 15.09C699.125 15.0883 699.135 15.0868 699.146 15.0868H699.253H703.549C703.571 15.0868 703.593 15.0874 703.616 15.0879L703.616 15.0879C703.638 15.0884 703.66 15.0889 703.682 15.0889C703.705 15.0889 703.722 15.1071 703.722 15.1315C703.724 15.1538 703.724 15.1741 703.724 15.1965V16.4671C703.724 16.4934 703.722 16.5178 703.717 16.5442C703.715 16.5543 703.703 16.5645 703.692 16.5706C703.684 16.5754 703.673 16.5751 703.661 16.5748L703.652 16.5746H703.545H699.249H699.248C699.209 16.5746 699.169 16.5746 699.129 16.5726C699.093 16.5706 699.076 16.5645 699.074 16.5158C699.072 16.4772 699.072 16.4387 699.072 16.4001V16.4001V15.2573V15.2573C699.072 15.2188 699.072 15.1802 699.074 15.1416C699.076 15.1335 699.079 15.1254 699.083 15.1173C699.086 15.1092 699.089 15.1011 699.091 15.0929ZM699.252 19.3976H701.407C701.947 19.3976 702.489 19.3976 703.036 19.3956H703.607C703.639 19.3956 703.668 19.3956 703.699 19.3915C703.712 19.3895 703.723 19.3794 703.725 19.3652L703.725 19.3599C703.727 19.3355 703.729 19.3126 703.729 19.288V18.0174C703.729 17.9928 703.727 17.9699 703.725 17.9455L703.725 17.9403C703.725 17.9261 703.706 17.9098 703.689 17.9098L703.689 17.9098C703.645 17.9078 703.601 17.9058 703.557 17.9058H699.258C699.222 17.9058 699.186 17.9058 699.151 17.9078C699.141 17.9078 699.131 17.9097 699.123 17.9116C699.119 17.9124 699.115 17.9133 699.111 17.9139C699.094 17.9159 699.088 17.9281 699.086 17.9403C699.081 17.9667 699.079 17.991 699.079 18.0174V19.288C699.079 19.3126 699.081 19.3355 699.083 19.3599L699.084 19.3652C699.084 19.3794 699.102 19.3956 699.119 19.3956C699.163 19.3976 699.207 19.3976 699.252 19.3976ZM701.401 22.2218H699.247C699.225 22.2218 699.203 22.2213 699.181 22.2208C699.159 22.2203 699.137 22.2198 699.115 22.2198C699.098 22.2198 699.083 22.2036 699.081 22.1853L699.081 22.18C699.079 22.1556 699.077 22.1328 699.077 22.1082V20.8518C699.077 20.7916 699.077 20.7611 699.092 20.7457C699.108 20.73 699.139 20.73 699.203 20.73H699.27H703.537C703.586 20.73 703.634 20.732 703.682 20.734L703.682 20.734C703.705 20.734 703.722 20.7523 703.722 20.7767C703.724 20.8071 703.724 20.8355 703.724 20.866V22.098C703.724 22.1325 703.72 22.167 703.716 22.1995C703.716 22.2056 703.705 22.2137 703.699 22.2178C703.691 22.2218 703.682 22.2218 703.674 22.2218C703.652 22.2218 703.63 22.2223 703.608 22.2228C703.586 22.2233 703.564 22.2239 703.542 22.2239C702.827 22.2218 702.113 22.2218 701.401 22.2218ZM729.714 22.2218H731.87C732.584 22.2218 733.296 22.2218 734.019 22.2239C734.041 22.2239 734.063 22.2233 734.085 22.2228C734.107 22.2223 734.129 22.2218 734.151 22.2218C734.174 22.2218 734.193 22.2036 734.195 22.1833C734.195 22.1701 734.196 22.1574 734.196 22.1447C734.197 22.132 734.197 22.1193 734.197 22.1061V20.8477C734.197 20.8231 734.196 20.8002 734.194 20.7758L734.193 20.7706C734.191 20.7564 734.174 20.7381 734.16 20.7361C734.146 20.7354 734.133 20.7345 734.12 20.7336C734.093 20.7318 734.066 20.73 734.04 20.73H729.701H729.701C729.666 20.73 729.63 20.73 729.594 20.732C729.571 20.734 729.55 20.7523 729.55 20.7726C729.55 20.7878 729.549 20.8025 729.549 20.8173C729.548 20.832 729.548 20.8467 729.548 20.8619V22.094C729.548 22.1244 729.548 22.1528 729.55 22.1833C729.55 22.2015 729.565 22.2178 729.581 22.2178C729.626 22.2198 729.67 22.2218 729.714 22.2218ZM701.392 25.0448H699.251H699.251C699.211 25.0448 699.172 25.0448 699.132 25.0428C699.096 25.0407 699.079 25.0346 699.077 24.9859C699.075 24.9474 699.075 24.9088 699.075 24.8702V23.7295C699.075 23.691 699.075 23.6524 699.077 23.6138C699.077 23.6016 699.081 23.5895 699.088 23.5773C699.092 23.5712 699.098 23.5631 699.106 23.5611C699.119 23.557 699.132 23.5529 699.144 23.5529C699.184 23.5509 699.224 23.5509 699.264 23.5509H703.531C703.551 23.5509 703.569 23.5507 703.585 23.5506C703.658 23.5499 703.693 23.5495 703.71 23.5671C703.726 23.5837 703.726 23.6165 703.725 23.6804C703.725 23.6961 703.725 23.7138 703.725 23.7336V24.8743C703.725 24.9129 703.725 24.9514 703.722 24.99C703.72 25.0285 703.706 25.0428 703.664 25.0428H703.544C702.828 25.0448 702.112 25.0448 701.393 25.0448H701.392ZM729.714 25.0443H731.857H731.858C732.576 25.0443 733.294 25.0443 734.012 25.0423H734.132C734.172 25.0423 734.187 25.0281 734.189 24.9895V24.951V23.654C734.189 23.6316 734.187 23.6093 734.185 23.589C734.185 23.5748 734.166 23.5545 734.151 23.5545C734.132 23.5538 734.114 23.5529 734.095 23.5519C734.06 23.5502 734.026 23.5484 733.991 23.5484H729.747H729.667C729.546 23.5505 729.544 23.5525 729.544 23.6722V24.6729V24.9307C729.544 24.9553 729.545 24.9781 729.547 25.0024L729.548 25.0078C729.548 25.024 729.565 25.0403 729.581 25.0403C729.625 25.0423 729.67 25.0443 729.714 25.0443ZM713.612 15.087H715.753L715.79 15.0868C715.848 15.0863 715.877 15.0861 715.892 15.1005C715.906 15.115 715.906 15.1441 715.906 15.2025L715.906 15.229V16.4347C715.906 16.4692 715.904 16.5037 715.902 16.5362C715.902 16.5524 715.885 16.5666 715.866 16.5687C715.853 16.5707 715.839 16.5707 715.826 16.5707H715.719H711.464C711.441 16.5707 711.421 16.571 711.404 16.5713C711.343 16.5722 711.313 16.5727 711.299 16.5579C711.284 16.5433 711.284 16.514 711.285 16.4557L711.286 16.432L711.286 16.4022V15.2473C711.286 15.2047 711.288 15.1621 711.29 15.1194C711.29 15.1032 711.307 15.089 711.324 15.087C711.336 15.0849 711.351 15.0849 711.364 15.0849H711.483C712.193 15.087 712.901 15.087 713.612 15.087ZM743.481 22.2212H745.61C746.316 22.2212 747.02 22.2212 747.728 22.2253H747.847C747.86 22.2253 747.875 22.2253 747.887 22.2233C747.906 22.2212 747.921 22.207 747.923 22.1908C747.925 22.1644 747.927 22.14 747.927 22.1137V20.8552V20.8551C747.927 20.8288 747.927 20.8044 747.925 20.7781C747.923 20.7558 747.904 20.7355 747.883 20.7355L747.877 20.7352C747.829 20.7333 747.782 20.7314 747.736 20.7314H743.505H743.385C743.372 20.7314 743.358 20.7334 743.345 20.7355C743.33 20.7375 743.311 20.7517 743.311 20.7679C743.309 20.8004 743.307 20.8349 743.307 20.8694V22.0893V22.1664C743.307 22.207 743.32 22.2192 743.362 22.2212H743.481ZM713.599 25.0447H711.458C711.414 25.0447 711.37 25.0427 711.326 25.0406C711.309 25.0406 711.292 25.0244 711.292 25.0082L711.292 25.0029C711.29 24.9785 711.288 24.9557 711.288 24.931V24.6753V23.6746C711.288 23.5549 711.29 23.5529 711.412 23.5508H711.492H715.708C715.743 23.5508 715.777 23.5526 715.812 23.5543H715.812H715.812H715.812C715.831 23.5553 715.849 23.5562 715.868 23.5569C715.883 23.5569 715.902 23.5772 715.902 23.5914L715.902 23.5967C715.904 23.6211 715.906 23.6439 715.906 23.6685V24.9392C715.906 24.9655 715.904 24.9899 715.9 25.0163C715.898 25.0285 715.889 25.0406 715.872 25.0406C715.837 25.0427 715.801 25.0447 715.767 25.0447H714.742H713.599ZM743.464 25.0443H745.62H747.748H747.748C747.792 25.0443 747.836 25.0443 747.88 25.0423C747.901 25.0403 747.92 25.022 747.92 24.9997C747.92 24.9723 747.921 24.9444 747.921 24.9165C747.922 24.8886 747.922 24.8606 747.922 24.8332V23.7027C747.922 23.6642 747.92 23.6257 747.918 23.5872L747.918 23.587C747.918 23.5748 747.895 23.5525 747.882 23.5525C747.83 23.5505 747.775 23.5484 747.723 23.5484H743.506H743.426C743.365 23.5494 743.335 23.5499 743.32 23.5654C743.304 23.5811 743.304 23.612 743.304 23.6743V24.9327V24.9328C743.304 24.9551 743.304 24.9754 743.306 24.9977C743.307 25.0004 743.307 25.0033 743.308 25.0062C743.309 25.0121 743.31 25.0179 743.313 25.022C743.317 25.0281 743.325 25.0382 743.331 25.0382C743.376 25.0423 743.42 25.0443 743.464 25.0443ZM739.862 27.8659L739.852 27.8668C739.831 27.8685 739.813 27.87 739.793 27.87H737.772C737.755 27.87 737.736 27.87 737.719 27.868C737.7 27.8659 737.688 27.8538 737.679 27.8396C737.664 27.8091 737.652 27.7766 737.639 27.7442C737.598 27.6351 737.557 27.5258 737.516 27.4162L737.515 27.4152C737.451 27.2437 737.386 27.0718 737.322 26.8998C737.297 26.8338 737.272 26.7673 737.247 26.7009C737.223 26.6344 737.198 26.5679 737.173 26.502C737.168 26.4879 737.163 26.4737 737.158 26.4596L737.158 26.4593C737.153 26.4451 737.149 26.4309 737.143 26.4167C737.139 26.4066 737.152 26.3883 737.162 26.3863C737.175 26.3842 737.188 26.3822 737.202 26.3822H737.295H740.234C740.278 26.3822 740.322 26.3842 740.366 26.3863C740.389 26.3863 740.404 26.4086 740.396 26.4329C740.393 26.4407 740.39 26.4485 740.388 26.4563C740.386 26.4607 740.385 26.4651 740.384 26.4695C740.376 26.4939 740.368 26.5182 740.358 26.5426C740.303 26.6894 740.249 26.8357 740.196 26.982L740.195 26.9829C740.141 27.1296 740.087 27.2763 740.032 27.4235C740.009 27.4854 739.986 27.5478 739.963 27.6102C739.94 27.6726 739.917 27.735 739.894 27.7969C739.888 27.816 739.878 27.8351 739.868 27.8555L739.868 27.8555L739.862 27.8659ZM739.349 29.281C739.356 29.2607 739.362 29.2404 739.354 29.2181C739.331 29.2046 739.305 29.2051 739.278 29.2057C739.272 29.2058 739.267 29.2059 739.261 29.2059H738.291C738.276 29.2059 738.261 29.2078 738.246 29.2096C738.239 29.2105 738.232 29.2113 738.225 29.212C738.215 29.214 738.202 29.2303 738.204 29.2404C738.21 29.2546 738.214 29.2688 738.219 29.283C738.224 29.2972 738.229 29.3114 738.234 29.3257C738.389 29.7377 738.545 30.1517 738.7 30.5658C738.711 30.5942 738.721 30.6206 738.734 30.649C738.735 30.6536 738.741 30.6582 738.746 30.6627C738.747 30.6643 738.749 30.6658 738.751 30.6673C738.776 30.6856 738.83 30.6734 738.843 30.645C738.853 30.6236 738.862 30.6012 738.87 30.5786C738.874 30.5689 738.877 30.5593 738.881 30.5496C738.93 30.4166 738.979 30.2837 739.028 30.1507C739.077 30.0178 739.126 29.8848 739.175 29.7519C739.204 29.6738 739.233 29.5952 739.262 29.5166C739.291 29.4379 739.32 29.3592 739.349 29.281Z" fill="#898D9A"/>
<path d="M792.001 10.4048C792.001 10.4048 795.124 23.2003 795.622 25.2773C796.204 27.7014 797.252 28.5936 800.273 27.9919L802.223 20.0587C802.717 18.0882 803.049 16.6833 803.367 14.6788H803.422C803.646 16.703 803.964 18.0941 804.37 20.0656C804.37 20.0656 805.164 23.6671 805.57 25.5587C805.978 27.4496 807.112 28.6414 810.072 27.9926L814.718 10.4061H810.967L809.381 18.0096C808.954 20.2228 808.567 21.9522 808.269 23.9769H808.216C807.945 21.9724 807.6 20.3115 807.167 18.1552L805.515 10.4061H801.607L799.84 17.9599C799.34 20.2553 798.872 22.1089 798.574 24.0649H798.52C798.215 22.2228 797.809 19.8933 797.369 17.6713C797.369 17.6713 796.32 12.2684 795.952 10.4061L792.001 10.4066L792.001 10.4048ZM827.76 10.4048V27.9912H831.331V24.2568V10.4039H827.76V10.4048ZM878.058 10.4048V23.3786C878.058 25.1674 878.395 26.4206 879.115 27.1862C879.744 27.8558 880.781 28.2894 882.023 28.2894C883.079 28.2894 884.117 28.0892 884.607 27.9068L884.561 25.1159C884.197 25.2056 883.778 25.2773 883.204 25.2773C881.988 25.2773 881.58 24.4981 881.58 22.8921V17.9283H884.69V14.5635H881.58V10.4048H878.058L878.058 10.4048ZM819.778 14.4817C817.559 14.4817 815.797 15.1049 814.837 15.6598L815.54 18.0665C816.419 17.5124 817.818 17.0537 819.143 17.0537C821.337 17.048 821.696 18.2942 821.696 19.0934V19.2824C816.915 19.2752 813.896 20.9294 813.896 24.3013C813.896 26.3601 815.433 28.2894 818.106 28.2894C819.751 28.2894 821.127 27.6331 821.952 26.5817H822.033C822.033 26.5817 822.579 28.8651 825.587 27.9919C825.429 27.0416 825.378 26.0283 825.378 24.8079V20.1098C825.378 17.1154 824.1 14.4817 819.778 14.4817L819.778 14.4817ZM841.142 14.4817C838.907 14.4817 837.903 15.6142 837.294 16.5751H837.241V14.7799H833.833V27.9921H837.423V20.2437C837.423 19.8805 837.464 19.4963 837.591 19.1622C837.889 18.3821 838.614 17.4695 839.773 17.4695C841.222 17.4695 841.9 18.6943 841.9 20.4619V27.9919H845.486V20.1498C845.486 19.8031 845.534 19.3854 845.636 19.0788C845.931 18.1914 846.713 17.4694 847.79 17.4694C849.259 17.4694 849.964 18.6728 849.964 20.7527V27.992H853.553V20.2104C853.553 16.1066 851.469 14.4818 849.117 14.4818C848.075 14.4818 847.253 14.743 846.509 15.1994C845.885 15.5828 845.325 16.1276 844.836 16.845H844.783C844.214 15.4211 842.88 14.4818 841.141 14.4818L841.142 14.4817ZM860.857 14.4817C858.638 14.4817 856.877 15.1049 855.916 15.6598L856.619 18.0665C857.497 17.5124 858.898 17.0537 860.222 17.0537C862.415 17.048 862.774 18.2942 862.774 19.0934V19.2824C857.994 19.2752 854.974 20.9294 854.974 24.3013C854.974 26.3601 856.512 28.2894 859.187 28.2894C860.831 28.2894 862.207 27.6331 863.03 26.5817H863.112C863.112 26.5817 863.658 28.8651 866.667 27.9919C866.508 27.0416 866.458 26.0283 866.458 24.8079V20.1098C866.458 17.1154 865.179 14.4817 860.857 14.4817L860.857 14.4817ZM875.767 14.4817C874.392 14.4817 872.828 15.3691 872.171 17.2715H872.071V14.7798H868.839V27.9919H872.524V21.2264C872.524 20.8615 872.546 20.5432 872.603 20.2514C872.876 18.8343 873.96 17.9283 875.516 17.9283C875.943 17.9283 876.248 17.9745 876.579 18.0223V14.5634C876.302 14.5074 876.112 14.4816 875.767 14.4816L875.767 14.4817ZM821.811 21.6236V23.2719C821.811 23.5157 821.79 23.7672 821.722 23.9872C821.446 24.9026 820.497 25.6762 819.312 25.6762C818.324 25.6762 817.539 25.1152 817.539 23.9286C817.539 22.1136 819.537 21.6119 821.811 21.6236H821.811ZM862.89 21.6236V23.2719C862.89 23.5157 862.868 23.7672 862.801 23.9872C862.525 24.9026 861.577 25.6762 860.391 25.6762C859.403 25.6762 858.617 25.1152 858.617 23.9286C858.617 22.1136 860.615 21.6119 862.89 21.6236H862.89Z" fill="#898D9A"/>
<path d="M904 4.04504C902.847 4.04504 901.93 4.6889 901.93 5.47272L902.631 13.4013C902.708 13.879 903.293 14.2475 904 14.2475C904.709 14.2466 905.292 13.8784 905.371 13.4013L906.075 5.47272C906.075 4.68897 905.156 4.04511 904.001 4.04511L904 4.04504ZM892.589 10.405C891.991 10.4192 891.311 10.8724 890.878 11.6223C890.3 12.6209 890.402 13.7368 891.079 14.1283L898.295 17.4886C898.745 17.6562 899.358 17.3361 899.712 16.725C899.712 16.7249 899.712 16.7247 899.712 16.7246C900.068 16.1104 900.041 15.4198 899.666 15.1135L893.149 10.5425C892.98 10.4445 892.789 10.4004 892.59 10.4051L892.589 10.405ZM915.41 10.405C915.211 10.4003 915.021 10.4444 914.852 10.5424L908.334 15.1134C907.961 15.4197 907.934 16.1103 908.288 16.7245L908.288 16.7249C908.644 17.336 909.254 17.6561 909.705 17.4885L916.924 14.1283C917.604 13.7368 917.701 12.621 917.127 11.6224C916.692 10.8724 916.011 10.4193 915.412 10.4051L915.41 10.405ZM898.564 20.8657C898.471 20.8644 898.38 20.8788 898.296 20.9107L891.08 24.267C890.403 24.6602 890.301 25.7765 890.879 26.7762C891.456 27.7728 892.472 28.2466 893.149 27.8557L899.667 23.2883C900.042 22.9782 900.069 22.2878 899.713 21.6742L899.716 21.6756C899.428 21.1758 898.969 20.8711 898.564 20.8656L898.564 20.8657ZM909.439 20.8657C909.035 20.8712 908.576 21.1759 908.287 21.6757L908.29 21.6743C907.935 22.2879 907.963 22.9783 908.336 23.2884L914.854 27.8558C915.529 28.2467 916.547 27.7729 917.126 26.7763C917.701 25.7766 917.603 24.6603 916.924 24.2671L909.707 20.9108C909.622 20.8789 909.532 20.8645 909.439 20.8658L909.439 20.8657ZM903.999 24.1516C903.293 24.1525 902.709 24.5194 902.632 24.9958L901.931 32.9241C901.931 33.7092 902.848 34.3517 904.001 34.3517C905.156 34.3517 906.074 33.7092 906.074 32.9241L905.372 24.9958C905.293 24.5194 904.71 24.1525 904.001 24.1516H903.999H903.999Z" fill="#898D9A"/>
</svg>
