<svg width="172" height="56" viewBox="0 0 172 56" fill="none" xmlns="http://www.w3.org/2000/svg">
<rect width="171" height="56" fill="white"/>
<path d="M40.4501 13.92C31.2901 14.03 24.5801 20.4 24.5801 28.45C24.5801 37.06 32.4001 43.31 40.4501 43.31C43.9101 43.31 47.2701 42.64 49.6101 41.3V37.5C49.6101 37.5 38.5501 40.63 31.6201 35.49C31.6201 35.49 31.6201 30.01 31.6201 29.9C41.7901 36.38 54.4201 30.68 54.4201 30.68V19.39C54.3101 19.62 50.9601 13.81 40.4501 13.92ZM38.5501 27.44C37.1001 27.44 35.8701 26.21 35.8701 24.76C35.8701 23.31 36.9901 22.08 38.5501 22.08C40.0001 22.08 41.2301 23.31 41.2301 24.76C41.2401 26.32 40.0101 27.44 38.5501 27.44ZM48.7201 27.33C47.2701 27.33 46.0401 26.1 46.0401 24.65C46.0401 23.2 47.1601 21.97 48.7201 21.97C50.1701 21.97 51.4001 23.2 51.4001 24.65C51.4101 26.1 50.1801 27.33 48.7201 27.33Z" fill="#898D9A"/>
<path d="M1 1.17999V54.83H54.42V44.88C50.17 47.67 46.15 49.35 40.11 49.35C28.6 49.35 18.76 40.97 18.76 28.56C18.76 16.04 28.82 7.65999 40.11 7.65999C46.03 7.65999 50.62 9.33999 54.42 12.24V1.17999H1Z" fill="#898D9A"/>
<path d="M75.8797 28.78V27.33H81.2397V35.38C79.3397 36.5 77.3297 36.94 75.1997 36.94C70.2797 36.94 66.9297 33.14 66.9297 28C66.9297 22.86 70.2797 19.06 75.1997 19.06C77.5497 19.06 79.5597 19.84 81.0097 21.41L79.8897 22.64C78.8997 21.41 76.9997 20.51 75.2097 20.51C71.0697 20.51 68.3897 23.75 68.3897 28C68.3897 32.25 70.9597 35.49 75.2097 35.49C76.8897 35.49 78.4497 35.27 79.6797 34.48V28.78H75.8797V28.78ZM84.8197 31.35C84.8197 32.58 85.5997 35.49 88.7297 35.49C90.0697 35.49 91.5197 34.71 92.1897 33.48L93.1997 34.37C92.0797 36.05 90.5197 36.72 88.6197 36.72C85.3797 36.72 83.3697 34.26 83.3697 30.91C83.3697 27.56 85.4897 25.1 88.6197 25.1C91.8597 25.1 93.5397 27.67 93.5397 30.24V31.36H84.8197V31.35ZM88.6197 26.44C85.5997 26.44 84.8197 29.46 84.8197 30.02H92.1997C92.3097 28 90.6397 26.44 88.6197 26.44ZM99.1297 35.49C99.6897 35.49 100.25 35.27 100.69 35.15L100.8 36.49C100.35 36.71 99.5697 36.83 99.0097 36.83C97.1097 36.83 96.3297 35.6 96.3297 33.92V26.66H94.0997V25.43H96.3397V22.19H97.6797V25.43H100.7V26.77H97.6797V34.03C97.6797 34.93 98.2397 35.49 99.1297 35.49ZM112.99 36.49V29.11H106.17V36.49H102.59V19.51H106.17V25.88H112.99V19.51H116.57V36.5C116.56 36.49 112.99 36.49 112.99 36.49ZM125.84 36.49V34.93C125.39 35.82 124.28 36.83 122.6 36.83C119.14 36.83 118.58 34.37 118.58 31.35V24.87H121.93V30.57C121.93 31.91 121.93 33.7 123.72 33.7C125.51 33.7 125.73 32.25 125.73 30.68V24.87H129.08V36.61H125.84V36.49ZM144.73 36.49V29.67C144.73 28.55 144.39 27.66 143.28 27.66C141.72 27.66 141.27 28.89 141.27 30.23V36.38H137.92V30.23C137.92 29.34 137.92 27.66 136.36 27.66C134.57 27.66 134.35 29.11 134.35 30.68V36.49H131V24.87H134.24V26.43C134.69 25.54 135.8 24.53 137.48 24.53C139.04 24.53 140.27 25.2 140.83 26.65C141.61 25.2 142.73 24.53 144.29 24.53C147.31 24.53 148.2 26.77 148.2 29.56V36.49C148.19 36.49 144.73 36.49 144.73 36.49ZM156.69 36.49V35.04C155.91 36.27 154.57 36.83 153.23 36.83C151.22 36.83 149.32 35.6 149.32 33.25C149.21 29.11 153.9 29.11 156.7 29.11C156.7 27.88 155.69 26.99 154.58 26.99C153.46 26.99 152.57 27.55 151.79 28.33L150 26.32C151.23 25.09 153.02 24.42 154.81 24.42C158.72 24.42 159.84 26.54 159.84 30.46V36.38H156.71V36.49H156.69ZM156.69 31.35H155.91C154.9 31.35 152.56 31.46 152.56 33.03C152.56 33.92 153.45 34.26 154.12 34.26C155.46 34.26 156.69 33.48 156.69 32.02C156.69 32.02 156.69 31.35 156.69 31.35ZM168.65 36.49V30.79C168.65 29.45 168.65 27.66 166.86 27.66C165.07 27.66 164.85 29.11 164.85 30.68V36.49H161.5V24.87H164.74V26.43C165.19 25.54 166.3 24.53 167.98 24.53C171.44 24.53 172 26.99 172 30.01V36.49C172 36.49 168.65 36.49 168.65 36.49Z" fill="#898D9A"/>
</svg>
