<svg width="144" height="20" viewBox="0 0 144 20" fill="none" xmlns="http://www.w3.org/2000/svg">
<g clip-path="url(#clip0)">
<path d="M98.4461 7.43403C98.4461 5.10091 97.0103 3.40192 94.2585 3.40192H85.3687V15.4983H88.288V11.3704H91.7459L95.1319 15.4983H98.4222V15.235L95.1319 11.2986C97.2018 10.8799 98.4461 9.37232 98.4461 7.43403ZM93.9354 8.92962H88.3V5.91451H93.9354C94.9763 5.91451 95.6464 6.46489 95.6464 7.42207C95.6464 8.40318 95.0003 8.92962 93.9354 8.92962Z" fill="white"/>
<path d="M142.584 3.40192H139.844V7.99638H132.486V3.40192H129.531V15.5102H132.486V10.7363H139.844V15.5102H142.584V3.40192Z" fill="white"/>
<path d="M77.5555 3.40192L74.3011 13.5839H74.1217L70.8553 3.40192H65.6506V15.5102H68.4384V5.56753H68.6059L71.8603 15.5102H76.3471L79.6135 5.56753H79.781V15.5102H82.6525V3.40192H77.5555Z" fill="white"/>
<path d="M45.7533 8.35531C44.7243 8.24763 42.798 8.06816 41.769 7.96047C40.752 7.85279 40.1657 7.55367 40.1657 6.88365C40.1657 6.23755 40.7879 5.69914 43.3005 5.69914C45.5259 5.69914 47.5719 6.17773 49.3546 7.03919V4.33516C47.5719 3.48566 45.5977 3.06689 43.1449 3.06689C39.6991 3.06689 37.3181 4.50266 37.3181 6.94347C37.3181 9.00141 38.718 10.1261 41.5177 10.4372C42.5347 10.5449 44.2577 10.7004 45.4661 10.7961C46.7822 10.9038 47.1651 11.3106 47.1651 11.9088C47.1651 12.7344 46.2438 13.2369 43.9107 13.2369C41.5417 13.2369 39.1368 12.4592 37.4258 11.3704V14.1582C38.8017 15.0795 41.1708 15.8572 43.815 15.8572C47.5719 15.8572 49.9888 14.4095 49.9888 11.8131C50.0127 9.8509 48.7205 8.66639 45.7533 8.35531Z" fill="white"/>
<path d="M51.9272 3.40192V15.5102H63.21V13.0335H54.715V10.5808H63.0664V8.12799H54.715V5.87862H63.21V3.40192H51.9272Z" fill="white"/>
<path d="M123.488 8.35531C122.459 8.24763 120.533 8.06816 119.504 7.96047C118.487 7.85279 117.901 7.55367 117.901 6.88365C117.901 6.23755 118.523 5.69914 121.036 5.69914C123.261 5.69914 125.307 6.17773 127.09 7.03919V4.33516C125.307 3.48566 123.333 3.06689 120.88 3.06689C117.434 3.06689 115.053 4.50266 115.053 6.94347C115.053 9.00141 116.453 10.1261 119.253 10.4372C120.27 10.5449 121.993 10.7004 123.201 10.7961C124.517 10.9038 124.9 11.3106 124.9 11.9088C124.9 12.7344 123.979 13.2369 121.646 13.2369C119.277 13.2369 116.872 12.4592 115.161 11.3704V14.1582C116.537 15.0795 118.906 15.8572 121.55 15.8572C125.307 15.8572 127.724 14.4095 127.724 11.8131C127.748 9.8509 126.456 8.66639 123.488 8.35531Z" fill="white"/>
<path d="M110.148 3.40192V9.59965C110.148 11.9447 108.724 13.2369 106.582 13.2369C104.428 13.2369 103.017 11.9687 103.017 9.56376V3.40192H100.109V9.28857C100.109 13.6796 102.849 15.8572 106.63 15.8572C110.255 15.8572 113.067 13.7753 113.067 9.43214V3.40192H110.148Z" fill="white"/>
<path d="M27.3155 9.38426C27.3155 9.97053 27.0164 10.0663 26.2746 10.0663C25.4849 10.0663 25.3413 9.93464 25.2576 9.3364C25.102 7.81688 24.073 6.52469 22.3501 6.38111C21.7997 6.33325 21.6681 6.12985 21.6681 5.44786C21.6681 4.81373 21.7639 4.51461 22.2544 4.51461C25.2456 4.52658 27.3155 6.93149 27.3155 9.38426ZM31.6707 9.38426C31.6707 4.8257 28.5838 0.00390625 21.4528 0.00390625H7.28652C6.99937 0.00390625 6.8199 0.147483 6.8199 0.410708C6.8199 0.554284 6.92758 0.685897 7.0233 0.757685C7.53778 1.16449 8.30353 1.61915 9.30857 2.12167C10.2897 2.61222 11.0554 2.93527 11.8212 3.24635C12.1442 3.37796 12.2639 3.52154 12.2639 3.70101C12.2639 3.95227 12.0844 4.10781 11.7374 4.10781H0.490554C0.155541 4.10781 0 4.32318 0 4.53854C0 4.71801 0.0598231 4.87356 0.215365 5.0291C1.12468 5.98628 2.58438 7.13489 4.70214 8.46298C6.55668 9.62356 8.8539 10.8799 10.6845 11.7533C10.9956 11.8969 11.0913 12.0644 11.0913 12.2438C11.0793 12.4472 10.9238 12.6147 10.5649 12.6147H5.40806C5.12091 12.6147 4.9534 12.7703 4.9534 13.0096C4.9534 13.1412 5.06108 13.3087 5.20466 13.4403C6.3772 14.5052 8.25567 15.6657 10.7563 16.7306C14.0945 18.1544 17.4805 19.0039 21.2853 19.0039C28.5 19.0039 31.6707 13.6078 31.6707 9.38426ZM22.2544 16.1204C18.5693 16.1204 15.4824 13.1173 15.4824 9.3723C15.4824 5.68716 18.5573 2.7199 22.2544 2.7199C26.0353 2.7199 29.0025 5.67519 29.0025 9.3723C28.9906 13.1173 26.0353 16.1204 22.2544 16.1204Z" fill="#FF642D"/>
</g>
<defs>
<clipPath id="clip0">
<rect width="143.231" height="19" fill="white" transform="translate(0 0.00390625)"/>
</clipPath>
</defs>
</svg>
