<svg width="520" height="300" viewBox="0 0 520 300" fill="none" xmlns="http://www.w3.org/2000/svg">
<rect width="520" height="300" rx="12.146" fill="white"/>
<rect x="65.2832" y="40.9927" width="424.35" height="0.759124" fill="#E9EBEF"/>
<rect x="65.2832" y="188.263" width="424.35" height="0.759124" fill="#E9EBEF"/>
<rect x="65.2832" y="114.628" width="424.35" height="0.759124" fill="#E9EBEF"/>
<rect x="65.2832" y="261.898" width="424.35" height="0.759124" fill="#E9EBEF"/>
<path d="M33.2488 190.521C32.9771 190.517 32.7054 190.465 32.4336 190.366C32.1619 190.267 31.9139 190.1 31.6896 189.865C31.4653 189.627 31.2852 189.307 31.1494 188.904C31.0135 188.498 30.9456 187.989 30.9456 187.377C30.9456 186.79 31.0006 186.271 31.1105 185.818C31.2205 185.363 31.3801 184.98 31.5893 184.669C31.7985 184.357 32.0508 184.119 32.3463 183.958C32.6439 183.796 32.9792 183.715 33.3523 183.715C33.7233 183.715 34.0532 183.789 34.3422 183.938C34.6334 184.085 34.8706 184.29 35.0539 184.553C35.2372 184.816 35.3558 185.119 35.4097 185.462H34.6204C34.5471 185.164 34.4048 184.917 34.1934 184.721C33.9821 184.525 33.7017 184.427 33.3523 184.427C32.8391 184.427 32.4347 184.65 32.1392 185.096C31.8459 185.543 31.6982 186.169 31.6961 186.976H31.7478C31.8686 186.792 32.012 186.636 32.1781 186.507C32.3463 186.375 32.5317 186.274 32.7345 186.203C32.9372 186.131 33.1518 186.096 33.3782 186.096C33.7578 186.096 34.105 186.191 34.4199 186.381C34.7347 186.568 34.987 186.828 35.1768 187.16C35.3666 187.49 35.4615 187.869 35.4615 188.296C35.4615 188.705 35.3698 189.081 35.1865 189.421C35.0032 189.76 34.7455 190.03 34.4134 190.23C34.0834 190.429 33.6952 190.526 33.2488 190.521ZM33.2488 189.81C33.5205 189.81 33.7642 189.742 33.9799 189.606C34.1977 189.47 34.3692 189.288 34.4943 189.059C34.6215 188.83 34.6851 188.576 34.6851 188.296C34.6851 188.022 34.6236 187.773 34.5007 187.548C34.38 187.322 34.2128 187.142 33.9993 187.008C33.788 186.874 33.5464 186.808 33.2747 186.808C33.0698 186.808 32.879 186.849 32.7021 186.93C32.5253 187.01 32.37 187.12 32.2363 187.26C32.1047 187.401 32.0012 187.561 31.9257 187.742C31.8503 187.921 31.8125 188.11 31.8125 188.309C31.8125 188.572 31.874 188.818 31.9969 189.046C32.122 189.275 32.2924 189.459 32.508 189.599C32.7258 189.739 32.9728 189.81 33.2488 189.81ZM40.1109 189.188V188.839C40.1109 188.598 40.1605 188.377 40.2597 188.176C40.361 187.973 40.5077 187.811 40.6996 187.691C40.8937 187.568 41.1288 187.506 41.4048 187.506C41.6852 187.506 41.9202 187.568 42.11 187.691C42.2998 187.811 42.4432 187.973 42.5403 188.176C42.6373 188.377 42.6858 188.598 42.6858 188.839V189.188C42.6858 189.43 42.6362 189.652 42.537 189.855C42.44 190.055 42.2955 190.217 42.1036 190.34C41.9138 190.461 41.6809 190.521 41.4048 190.521C41.1245 190.521 40.8883 190.461 40.6964 190.34C40.5044 190.217 40.3589 190.055 40.2597 189.855C40.1605 189.652 40.1109 189.43 40.1109 189.188ZM40.7708 188.839V189.188C40.7708 189.389 40.8182 189.569 40.9131 189.729C41.008 189.886 41.1719 189.965 41.4048 189.965C41.6313 189.965 41.7908 189.886 41.8836 189.729C41.9785 189.569 42.0259 189.389 42.0259 189.188V188.839C42.0259 188.639 41.9806 188.46 41.8901 188.302C41.7995 188.143 41.6377 188.063 41.4048 188.063C41.1784 188.063 41.0156 188.143 40.9163 188.302C40.8193 188.46 40.7708 188.639 40.7708 188.839ZM36.8113 185.397V185.048C36.8113 184.806 36.8609 184.585 36.9601 184.385C37.0614 184.182 37.2081 184.02 37.4 183.899C37.5941 183.776 37.8292 183.715 38.1052 183.715C38.3856 183.715 38.6206 183.776 38.8104 183.899C39.0002 184.02 39.1436 184.182 39.2407 184.385C39.3377 184.585 39.3862 184.806 39.3862 185.048V185.397C39.3862 185.639 39.3366 185.861 39.2374 186.064C39.1404 186.264 38.9959 186.426 38.804 186.549C38.6142 186.67 38.3813 186.73 38.1052 186.73C37.8249 186.73 37.5887 186.67 37.3968 186.549C37.2048 186.426 37.0593 186.264 36.9601 186.064C36.8609 185.861 36.8113 185.639 36.8113 185.397ZM37.4712 185.048V185.397C37.4712 185.598 37.5186 185.778 37.6135 185.937C37.7084 186.095 37.8723 186.174 38.1052 186.174C38.3317 186.174 38.4912 186.095 38.584 185.937C38.6789 185.778 38.7263 185.598 38.7263 185.397V185.048C38.7263 184.847 38.681 184.668 38.5905 184.511C38.4999 184.351 38.3381 184.271 38.1052 184.271C37.8788 184.271 37.7159 184.351 37.6167 184.511C37.5197 184.668 37.4712 184.847 37.4712 185.048ZM37.0571 190.431L41.6119 183.806H42.3494L37.7947 190.431H37.0571Z" fill="#898D9A"/>
<path d="M33.1194 263.397C32.7399 263.397 32.398 263.322 32.094 263.171C31.7899 263.02 31.5462 262.813 31.3629 262.55C31.1796 262.287 31.0793 261.987 31.062 261.65H31.8384C31.8686 261.95 32.0045 262.198 32.246 262.394C32.4897 262.588 32.7808 262.685 33.1194 262.685C33.3912 262.685 33.6327 262.622 33.844 262.495C34.0575 262.367 34.2247 262.193 34.3454 261.971C34.4684 261.746 34.5298 261.493 34.5298 261.21C34.5298 260.921 34.4662 260.664 34.339 260.437C34.2139 260.209 34.0414 260.029 33.8214 259.897C33.6014 259.765 33.3502 259.699 33.0677 259.696C32.8649 259.694 32.6568 259.726 32.4433 259.79C32.2298 259.853 32.0541 259.934 31.916 260.033L31.1655 259.942L31.5667 256.681H35.0086V257.393H32.2395L32.0066 259.347H32.0454C32.1813 259.239 32.3517 259.15 32.5565 259.079C32.7614 259.007 32.9749 258.972 33.1971 258.972C33.6025 258.972 33.9637 259.069 34.2807 259.263C34.5999 259.455 34.8501 259.718 35.0312 260.052C35.2146 260.387 35.3062 260.768 35.3062 261.197C35.3062 261.62 35.2113 261.998 35.0215 262.33C34.8339 262.66 34.5751 262.921 34.2452 263.112C33.9152 263.302 33.54 263.397 33.1194 263.397ZM36.9115 263.358C36.7519 263.358 36.615 263.301 36.5007 263.187C36.3864 263.073 36.3293 262.936 36.3293 262.776C36.3293 262.616 36.3864 262.48 36.5007 262.365C36.615 262.251 36.7519 262.194 36.9115 262.194C37.0711 262.194 37.2081 262.251 37.3224 262.365C37.4367 262.48 37.4938 262.616 37.4938 262.776C37.4938 262.882 37.4669 262.979 37.4129 263.067C37.3612 263.156 37.2911 263.227 37.2027 263.281C37.1164 263.332 37.0194 263.358 36.9115 263.358ZM38.9245 263.307L41.8876 257.445V257.393H38.4716V256.681H42.7158V257.432L39.7655 263.307H38.9245ZM45.903 263.397C45.5234 263.397 45.1816 263.322 44.8775 263.171C44.5734 263.02 44.3297 262.813 44.1464 262.55C43.9631 262.287 43.8628 261.987 43.8456 261.65H44.6219C44.6521 261.95 44.788 262.198 45.0295 262.394C45.2732 262.588 45.5644 262.685 45.903 262.685C46.1747 262.685 46.4162 262.622 46.6276 262.495C46.8411 262.367 47.0082 262.193 47.129 261.971C47.2519 261.746 47.3134 261.493 47.3134 261.21C47.3134 260.921 47.2497 260.664 47.1225 260.437C46.9974 260.209 46.8249 260.029 46.6049 259.897C46.385 259.765 46.1337 259.699 45.8512 259.696C45.6485 259.694 45.4404 259.726 45.2269 259.79C45.0134 259.853 44.8376 259.934 44.6996 260.033L43.9491 259.942L44.3502 256.681H47.7921V257.393H45.0231L44.7901 259.347H44.829C44.9648 259.239 45.1352 259.15 45.3401 259.079C45.545 259.007 45.7585 258.972 45.9806 258.972C46.386 258.972 46.7473 259.069 47.0643 259.263C47.3835 259.455 47.6336 259.718 47.8148 260.052C47.9981 260.387 48.0897 260.768 48.0897 261.197C48.0897 261.62 47.9949 261.998 47.8051 262.33C47.6174 262.66 47.3587 262.921 47.0287 263.112C46.6987 263.302 46.3235 263.397 45.903 263.397ZM52.7521 262.064V261.715C52.7521 261.473 52.8017 261.252 52.9009 261.052C53.0022 260.849 53.1489 260.687 53.3408 260.567C53.5349 260.444 53.77 260.382 54.046 260.382C54.3264 260.382 54.5614 260.444 54.7512 260.567C54.941 260.687 55.0844 260.849 55.1815 261.052C55.2785 261.252 55.327 261.473 55.327 261.715V262.064C55.327 262.306 55.2774 262.528 55.1782 262.731C55.0812 262.931 54.9367 263.093 54.7448 263.216C54.555 263.337 54.3221 263.397 54.046 263.397C53.7657 263.397 53.5295 263.337 53.3376 263.216C53.1456 263.093 53.0001 262.931 52.9009 262.731C52.8017 262.528 52.7521 262.306 52.7521 262.064ZM53.412 261.715V262.064C53.412 262.265 53.4594 262.445 53.5543 262.605C53.6492 262.762 53.8131 262.841 54.046 262.841C54.2725 262.841 54.432 262.762 54.5248 262.605C54.6197 262.445 54.6671 262.265 54.6671 262.064V261.715C54.6671 261.514 54.6218 261.335 54.5312 261.178C54.4407 261.018 54.2789 260.939 54.046 260.939C53.8196 260.939 53.6567 261.018 53.5575 261.178C53.4605 261.335 53.412 261.514 53.412 261.715ZM49.4524 258.273V257.924C49.4524 257.682 49.5021 257.461 49.6013 257.261C49.7026 257.058 49.8493 256.896 50.0412 256.775C50.2353 256.652 50.4704 256.591 50.7464 256.591C51.0268 256.591 51.2618 256.652 51.4516 256.775C51.6414 256.896 51.7848 257.058 51.8819 257.261C51.9789 257.461 52.0274 257.682 52.0274 257.924V258.273C52.0274 258.515 51.9778 258.737 51.8786 258.939C51.7816 259.14 51.6371 259.302 51.4452 259.425C51.2554 259.545 51.0225 259.606 50.7464 259.606C50.4661 259.606 50.2299 259.545 50.038 259.425C49.846 259.302 49.7005 259.14 49.6013 258.939C49.5021 258.737 49.4524 258.515 49.4524 258.273ZM50.1124 257.924V258.273C50.1124 258.474 50.1598 258.654 50.2547 258.813C50.3496 258.971 50.5135 259.049 50.7464 259.049C50.9729 259.049 51.1324 258.971 51.2252 258.813C51.3201 258.654 51.3675 258.474 51.3675 258.273V257.924C51.3675 257.723 51.3222 257.544 51.2316 257.387C51.1411 257.227 50.9793 257.147 50.7464 257.147C50.52 257.147 50.3571 257.227 50.2579 257.387C50.1609 257.544 50.1124 257.723 50.1124 257.924ZM49.6983 263.307L54.253 256.681H54.9906L50.4359 263.307H49.6983Z" fill="#898D9A"/>
<path d="M33.2488 117.645C32.9771 117.641 32.7054 117.589 32.4336 117.49C32.1619 117.391 31.9139 117.224 31.6896 116.989C31.4653 116.751 31.2852 116.431 31.1494 116.028C31.0135 115.622 30.9456 115.114 30.9456 114.501C30.9456 113.914 31.0006 113.395 31.1105 112.942C31.2205 112.487 31.3801 112.104 31.5893 111.793C31.7985 111.481 32.0508 111.243 32.3463 111.082C32.6439 110.92 32.9792 110.839 33.3523 110.839C33.7233 110.839 34.0532 110.914 34.3422 111.062C34.6334 111.209 34.8706 111.414 35.0539 111.677C35.2372 111.94 35.3558 112.243 35.4097 112.586H34.6204C34.5471 112.288 34.4048 112.041 34.1934 111.845C33.9821 111.649 33.7017 111.551 33.3523 111.551C32.8391 111.551 32.4347 111.774 32.1392 112.22C31.8459 112.667 31.6982 113.293 31.6961 114.1H31.7478C31.8686 113.917 32.012 113.76 32.1781 113.631C32.3463 113.499 32.5317 113.398 32.7345 113.327C32.9372 113.256 33.1518 113.22 33.3782 113.22C33.7578 113.22 34.105 113.315 34.4199 113.505C34.7347 113.692 34.987 113.952 35.1768 114.284C35.3666 114.614 35.4615 114.993 35.4615 115.42C35.4615 115.829 35.3698 116.205 35.1865 116.545C35.0032 116.884 34.7455 117.154 34.4134 117.354C34.0834 117.553 33.6952 117.65 33.2488 117.645ZM33.2488 116.934C33.5205 116.934 33.7642 116.866 33.9799 116.73C34.1977 116.594 34.3692 116.412 34.4943 116.183C34.6215 115.955 34.6851 115.7 34.6851 115.42C34.6851 115.146 34.6236 114.897 34.5007 114.672C34.38 114.446 34.2128 114.266 33.9993 114.132C33.788 113.999 33.5464 113.932 33.2747 113.932C33.0698 113.932 32.879 113.973 32.7021 114.055C32.5253 114.134 32.37 114.244 32.2363 114.385C32.1047 114.525 32.0012 114.685 31.9257 114.867C31.8503 115.046 31.8125 115.234 31.8125 115.433C31.8125 115.696 31.874 115.942 31.9969 116.17C32.122 116.399 32.2924 116.583 32.508 116.723C32.7258 116.864 32.9728 116.934 33.2488 116.934ZM36.9916 117.607C36.832 117.607 36.6951 117.549 36.5808 117.435C36.4665 117.321 36.4093 117.184 36.4093 117.024C36.4093 116.865 36.4665 116.728 36.5808 116.613C36.6951 116.499 36.832 116.442 36.9916 116.442C37.1512 116.442 37.2881 116.499 37.4024 116.613C37.5167 116.728 37.5739 116.865 37.5739 117.024C37.5739 117.13 37.5469 117.227 37.493 117.315C37.4413 117.404 37.3712 117.475 37.2827 117.529C37.1965 117.581 37.0994 117.607 36.9916 117.607ZM38.9309 117.555V116.972L41.1177 114.579C41.3744 114.298 41.5857 114.055 41.7518 113.848C41.9178 113.638 42.0407 113.442 42.1205 113.259C42.2025 113.073 42.2435 112.879 42.2435 112.677C42.2435 112.444 42.1874 112.242 42.0753 112.072C41.9653 111.901 41.8143 111.77 41.6224 111.677C41.4304 111.584 41.2148 111.538 40.9754 111.538C40.7209 111.538 40.4988 111.591 40.309 111.696C40.1214 111.8 39.9758 111.945 39.8723 112.133C39.7709 112.321 39.7202 112.541 39.7202 112.793H38.9568C38.9568 112.405 39.0463 112.064 39.2253 111.771C39.4043 111.477 39.648 111.249 39.9564 111.085C40.2669 110.921 40.6152 110.839 41.0013 110.839C41.3895 110.839 41.7334 110.921 42.0332 111.085C42.333 111.249 42.568 111.47 42.7384 111.748C42.9088 112.026 42.994 112.336 42.994 112.677C42.994 112.92 42.9498 113.159 42.8613 113.391C42.7751 113.622 42.6241 113.88 42.4084 114.165C42.1949 114.447 41.8984 114.792 41.5188 115.2L40.0308 116.791V116.843H43.1104V117.555H38.9309ZM46.5168 117.645C46.1372 117.645 45.7954 117.57 45.4913 117.419C45.1872 117.268 44.9435 117.061 44.7602 116.798C44.5769 116.535 44.4766 116.235 44.4594 115.899H45.2358C45.2659 116.198 45.4018 116.446 45.6433 116.643C45.887 116.837 46.1782 116.934 46.5168 116.934C46.7885 116.934 47.03 116.87 47.2414 116.743C47.4549 116.616 47.622 116.441 47.7428 116.219C47.8657 115.994 47.9272 115.741 47.9272 115.459C47.9272 115.17 47.8636 114.912 47.7363 114.685C47.6112 114.457 47.4387 114.277 47.2187 114.145C46.9988 114.014 46.7475 113.947 46.465 113.945C46.2623 113.942 46.0542 113.974 45.8407 114.038C45.6272 114.101 45.4514 114.182 45.3134 114.281L44.5629 114.19L44.964 110.93H48.406V111.641H45.6369L45.404 113.595H45.4428C45.5787 113.487 45.749 113.398 45.9539 113.327C46.1588 113.256 46.3723 113.22 46.5944 113.22C46.9999 113.22 47.3611 113.317 47.6781 113.511C47.9973 113.703 48.2474 113.966 48.4286 114.3C48.6119 114.635 48.7036 115.016 48.7036 115.446C48.7036 115.868 48.6087 116.246 48.4189 116.578C48.2313 116.908 47.9725 117.169 47.6425 117.361C47.3126 117.55 46.9373 117.645 46.5168 117.645ZM53.3659 116.313V115.963C53.3659 115.722 53.4155 115.501 53.5147 115.3C53.616 115.097 53.7627 114.936 53.9546 114.815C54.1487 114.692 54.3838 114.63 54.6598 114.63C54.9402 114.63 55.1753 114.692 55.365 114.815C55.5548 114.936 55.6982 115.097 55.7953 115.3C55.8923 115.501 55.9409 115.722 55.9409 115.963V116.313C55.9409 116.554 55.8913 116.776 55.7921 116.979C55.695 117.18 55.5505 117.341 55.3586 117.464C55.1688 117.585 54.9359 117.645 54.6598 117.645C54.3795 117.645 54.1433 117.585 53.9514 117.464C53.7595 117.341 53.6139 117.18 53.5147 116.979C53.4155 116.776 53.3659 116.554 53.3659 116.313ZM54.0258 115.963V116.313C54.0258 116.513 54.0732 116.693 54.1681 116.853C54.263 117.01 54.4269 117.089 54.6598 117.089C54.8863 117.089 55.0459 117.01 55.1386 116.853C55.2335 116.693 55.2809 116.513 55.2809 116.313V115.963C55.2809 115.763 55.2356 115.584 55.1451 115.426C55.0545 115.267 54.8927 115.187 54.6598 115.187C54.4334 115.187 54.2706 115.267 54.1714 115.426C54.0743 115.584 54.0258 115.763 54.0258 115.963ZM50.0663 112.521V112.172C50.0663 111.93 50.1159 111.709 50.2151 111.509C50.3164 111.306 50.4631 111.144 50.655 111.024C50.8491 110.901 51.0842 110.839 51.3602 110.839C51.6406 110.839 51.8757 110.901 52.0654 111.024C52.2552 111.144 52.3986 111.306 52.4957 111.509C52.5927 111.709 52.6413 111.93 52.6413 112.172V112.521C52.6413 112.763 52.5917 112.985 52.4925 113.188C52.3954 113.388 52.2509 113.55 52.059 113.673C51.8692 113.794 51.6363 113.854 51.3602 113.854C51.0799 113.854 50.8437 113.794 50.6518 113.673C50.4599 113.55 50.3143 113.388 50.2151 113.188C50.1159 112.985 50.0663 112.763 50.0663 112.521ZM50.7262 112.172V112.521C50.7262 112.722 50.7736 112.902 50.8685 113.061C50.9634 113.219 51.1273 113.298 51.3602 113.298C51.5867 113.298 51.7463 113.219 51.839 113.061C51.9339 112.902 51.9813 112.722 51.9813 112.521V112.172C51.9813 111.971 51.936 111.792 51.8455 111.635C51.7549 111.475 51.5931 111.396 51.3602 111.396C51.1338 111.396 50.971 111.475 50.8718 111.635C50.7747 111.792 50.7262 111.971 50.7262 112.172ZM50.3121 117.555L54.8669 110.93H55.6044L51.0497 117.555H50.3121Z" fill="#898D9A"/>
<path d="M33.2488 44.7694C32.9771 44.7651 32.7054 44.7134 32.4336 44.6142C32.1619 44.515 31.9139 44.3478 31.6896 44.1128C31.4653 43.8755 31.2852 43.5553 31.1494 43.152C31.0135 42.7465 30.9456 42.2376 30.9456 41.6251C30.9456 41.0385 31.0006 40.5188 31.1105 40.0659C31.2205 39.6108 31.3801 39.2281 31.5893 38.9175C31.7985 38.6048 32.0508 38.3676 32.3463 38.2058C32.6439 38.0441 32.9792 37.9632 33.3523 37.9632C33.7233 37.9632 34.0532 38.0376 34.3422 38.1864C34.6334 38.3331 34.8706 38.5379 35.0539 38.801C35.2372 39.0641 35.3558 39.3672 35.4097 39.7101H34.6204C34.5471 39.4124 34.4048 39.1655 34.1934 38.9693C33.9821 38.773 33.7017 38.6749 33.3523 38.6749C32.8391 38.6749 32.4347 38.8981 32.1392 39.3445C31.8459 39.7909 31.6982 40.4174 31.6961 41.224H31.7478C31.8686 41.0407 32.012 40.8843 32.1781 40.7549C32.3463 40.6234 32.5317 40.522 32.7345 40.4508C32.9372 40.3797 33.1518 40.3441 33.3782 40.3441C33.7578 40.3441 34.105 40.439 34.4199 40.6288C34.7347 40.8164 34.987 41.0763 35.1768 41.4084C35.3666 41.7383 35.4615 42.1168 35.4615 42.5438C35.4615 42.9536 35.3698 43.3288 35.1865 43.6696C35.0032 44.0082 34.7455 44.2777 34.4134 44.4783C34.0834 44.6767 33.6952 44.7738 33.2488 44.7694ZM33.2488 44.0578C33.5205 44.0578 33.7642 43.9898 33.9799 43.854C34.1977 43.7181 34.3692 43.5359 34.4943 43.3073C34.6215 43.0787 34.6851 42.8242 34.6851 42.5438C34.6851 42.2699 34.6236 42.0209 34.5007 41.7966C34.38 41.5701 34.2128 41.39 33.9993 41.2563C33.788 41.1226 33.5464 41.0558 33.2747 41.0558C33.0698 41.0558 32.879 41.0967 32.7021 41.1787C32.5253 41.2585 32.37 41.3685 32.2363 41.5087C32.1047 41.6488 32.0012 41.8095 31.9257 41.9907C31.8503 42.1697 31.8125 42.3584 31.8125 42.5568C31.8125 42.8199 31.874 43.0657 31.9969 43.2943C32.122 43.5229 32.2924 43.7073 32.508 43.8475C32.7258 43.9877 32.9728 44.0578 33.2488 44.0578ZM36.9916 44.7306C36.832 44.7306 36.6951 44.6735 36.5808 44.5592C36.4665 44.4449 36.4093 44.3079 36.4093 44.1483C36.4093 43.9888 36.4665 43.8518 36.5808 43.7375C36.6951 43.6232 36.832 43.5661 36.9916 43.5661C37.1512 43.5661 37.2881 43.6232 37.4024 43.7375C37.5167 43.8518 37.5739 43.9888 37.5739 44.1483C37.5739 44.254 37.5469 44.3511 37.493 44.4395C37.4413 44.5279 37.3712 44.5991 37.2827 44.653C37.1965 44.7047 37.0994 44.7306 36.9916 44.7306ZM40.8678 44.7694C40.4883 44.7694 40.1464 44.694 39.8424 44.543C39.5383 44.392 39.2946 44.185 39.1113 43.9219C38.928 43.6588 38.8277 43.359 38.8104 43.0226H39.5868C39.617 43.3224 39.7529 43.5704 39.9944 43.7666C40.2381 43.9607 40.5292 44.0578 40.8678 44.0578C41.1396 44.0578 41.3811 43.9941 41.5924 43.8669C41.8059 43.7397 41.9731 43.565 42.0939 43.3428C42.2168 43.1186 42.2782 42.8652 42.2782 42.5826C42.2782 42.2937 42.2146 42.0359 42.0874 41.8095C41.9623 41.5809 41.7898 41.4008 41.5698 41.2693C41.3498 41.1377 41.0986 41.0709 40.8161 41.0687C40.6133 41.0666 40.4052 41.0978 40.1917 41.1625C39.9782 41.2251 39.8025 41.3059 39.6644 41.4051L38.9139 41.3146L39.3151 38.0538H42.757V38.7655H39.9879L39.755 40.7193H39.7938C39.9297 40.6115 40.1001 40.522 40.3049 40.4508C40.5098 40.3797 40.7233 40.3441 40.9455 40.3441C41.3509 40.3441 41.7121 40.4411 42.0292 40.6352C42.3483 40.8272 42.5985 41.0903 42.7797 41.4245C42.963 41.7588 43.0546 42.1405 43.0546 42.5697C43.0546 42.9924 42.9597 43.3698 42.7699 43.7019C42.5823 44.0319 42.3235 44.2928 41.9936 44.4848C41.6636 44.6746 41.2884 44.7694 40.8678 44.7694ZM47.7169 43.4367V43.0873C47.7169 42.8458 47.7665 42.6247 47.8657 42.4241C47.9671 42.2214 48.1137 42.0597 48.3057 41.9389C48.4998 41.816 48.7348 41.7545 49.0109 41.7545C49.2912 41.7545 49.5263 41.816 49.7161 41.9389C49.9059 42.0597 50.0493 42.2214 50.1463 42.4241C50.2434 42.6247 50.2919 42.8458 50.2919 43.0873V43.4367C50.2919 43.6782 50.2423 43.9003 50.1431 44.1031C50.0461 44.3036 49.9016 44.4654 49.7096 44.5883C49.5198 44.7091 49.2869 44.7694 49.0109 44.7694C48.7305 44.7694 48.4944 44.7091 48.3024 44.5883C48.1105 44.4654 47.9649 44.3036 47.8657 44.1031C47.7665 43.9003 47.7169 43.6782 47.7169 43.4367ZM48.3768 43.0873V43.4367C48.3768 43.6372 48.4243 43.8173 48.5192 43.9769C48.6141 44.1343 48.778 44.213 49.0109 44.213C49.2373 44.213 49.3969 44.1343 49.4897 43.9769C49.5845 43.8173 49.632 43.6372 49.632 43.4367V43.0873C49.632 42.8867 49.5867 42.7077 49.4961 42.5503C49.4055 42.3907 49.2438 42.3109 49.0109 42.3109C48.7844 42.3109 48.6216 42.3907 48.5224 42.5503C48.4254 42.7077 48.3768 42.8867 48.3768 43.0873ZM44.4173 39.6454V39.296C44.4173 39.0544 44.4669 38.8334 44.5661 38.6328C44.6675 38.4301 44.8141 38.2684 45.0061 38.1476C45.2002 38.0247 45.4352 37.9632 45.7113 37.9632C45.9916 37.9632 46.2267 38.0247 46.4165 38.1476C46.6063 38.2684 46.7497 38.4301 46.8467 38.6328C46.9438 38.8334 46.9923 39.0544 46.9923 39.296V39.6454C46.9923 39.8869 46.9427 40.109 46.8435 40.3117C46.7465 40.5123 46.602 40.6741 46.41 40.797C46.2202 40.9177 45.9873 40.9781 45.7113 40.9781C45.4309 40.9781 45.1948 40.9177 45.0028 40.797C44.8109 40.6741 44.6653 40.5123 44.5661 40.3117C44.4669 40.109 44.4173 39.8869 44.4173 39.6454ZM45.0772 39.296V39.6454C45.0772 39.8459 45.1247 40.026 45.2196 40.1856C45.3145 40.343 45.4784 40.4217 45.7113 40.4217C45.9377 40.4217 46.0973 40.343 46.19 40.1856C46.2849 40.026 46.3324 39.8459 46.3324 39.6454V39.296C46.3324 39.0954 46.2871 38.9164 46.1965 38.759C46.1059 38.5994 45.9442 38.5196 45.7113 38.5196C45.4848 38.5196 45.322 38.5994 45.2228 38.759C45.1258 38.9164 45.0772 39.0954 45.0772 39.296ZM44.6632 44.6789L49.2179 38.0538H49.9555L45.4007 44.6789H44.6632Z" fill="#898D9A"/>
<rect opacity="0.1" x="403.854" y="41.7518" width="85.781" height="220.905" fill="#84D149"/>
<path d="M65.2852 246.902H79.4302L93.5752 255.124L107.72 258.861L121.865 240.175L136.01 258.861L150.155 240.175L164.3 246.902L178.445 240.175H192.59L206.735 246.902L220.88 240.175L235.025 234.196L249.17 224.479L263.315 211.772L277.46 205.045H291.605L305.75 208.782L319.895 188.601L334.04 160.946L348.185 143.007L362.33 136.28L376.475 148.987L390.62 188.601L404.765 126.564L418.91 143.007L433.055 126.564L447.2 64.5256L461.346 104.14L475.491 110.867L489.636 88.4438" stroke="#84D149" stroke-width="2.27737"/>
<path d="M422.85 251.161V244.536H424.05V250.155H426.968V251.161H422.85ZM429.388 251.261C429.073 251.261 428.789 251.205 428.537 251.093C428.287 250.978 428.088 250.81 427.942 250.588C427.797 250.366 427.725 250.092 427.725 249.766C427.725 249.486 427.777 249.254 427.88 249.071C427.984 248.888 428.125 248.741 428.304 248.631C428.483 248.521 428.685 248.438 428.909 248.382C429.135 248.324 429.369 248.282 429.611 248.256C429.902 248.225 430.138 248.198 430.319 248.175C430.501 248.149 430.632 248.11 430.714 248.058C430.798 248.004 430.84 247.921 430.84 247.809V247.79C430.84 247.546 430.768 247.357 430.624 247.224C430.479 247.09 430.271 247.023 429.999 247.023C429.712 247.023 429.485 247.086 429.317 247.211C429.151 247.336 429.038 247.484 428.98 247.654L427.887 247.499C427.973 247.197 428.115 246.944 428.314 246.742C428.512 246.537 428.755 246.384 429.042 246.282C429.328 246.179 429.645 246.127 429.993 246.127C430.232 246.127 430.47 246.155 430.708 246.211C430.945 246.267 431.162 246.36 431.358 246.489C431.554 246.617 431.712 246.79 431.83 247.01C431.951 247.23 432.011 247.505 432.011 247.835V251.161H430.886V250.478H430.847C430.776 250.616 430.675 250.745 430.546 250.866C430.419 250.985 430.258 251.081 430.064 251.154C429.872 251.225 429.647 251.261 429.388 251.261ZM429.692 250.4C429.927 250.4 430.131 250.354 430.303 250.261C430.476 250.166 430.608 250.041 430.701 249.886C430.796 249.731 430.843 249.561 430.843 249.378V248.793C430.807 248.823 430.744 248.851 430.656 248.877C430.57 248.903 430.473 248.925 430.365 248.945C430.257 248.964 430.15 248.981 430.044 248.996C429.939 249.012 429.847 249.024 429.77 249.035C429.595 249.059 429.438 249.098 429.3 249.152C429.162 249.206 429.054 249.281 428.974 249.378C428.894 249.473 428.854 249.596 428.854 249.747C428.854 249.963 428.933 250.125 429.09 250.235C429.248 250.345 429.448 250.4 429.692 250.4ZM437.116 247.505L436.048 247.622C436.018 247.514 435.965 247.412 435.89 247.318C435.817 247.223 435.717 247.146 435.592 247.088C435.467 247.03 435.314 247 435.133 247C434.889 247 434.684 247.053 434.518 247.159C434.354 247.265 434.274 247.402 434.276 247.57C434.274 247.714 434.326 247.832 434.434 247.922C434.544 248.013 434.725 248.087 434.978 248.146L435.825 248.327C436.295 248.428 436.645 248.589 436.873 248.809C437.104 249.029 437.221 249.317 437.223 249.673C437.221 249.985 437.129 250.261 436.948 250.501C436.769 250.738 436.52 250.923 436.2 251.057C435.881 251.191 435.515 251.258 435.101 251.258C434.492 251.258 434.003 251.13 433.632 250.876C433.261 250.619 433.04 250.262 432.969 249.805L434.111 249.695C434.163 249.919 434.272 250.089 434.441 250.203C434.609 250.317 434.828 250.375 435.097 250.375C435.376 250.375 435.599 250.317 435.767 250.203C435.937 250.089 436.023 249.947 436.023 249.779C436.023 249.637 435.968 249.519 435.858 249.427C435.75 249.334 435.582 249.263 435.353 249.213L434.505 249.035C434.029 248.936 433.676 248.769 433.448 248.534C433.219 248.297 433.106 247.997 433.108 247.635C433.106 247.328 433.189 247.063 433.357 246.839C433.527 246.612 433.764 246.438 434.065 246.315C434.37 246.19 434.72 246.127 435.117 246.127C435.699 246.127 436.157 246.251 436.492 246.499C436.828 246.747 437.036 247.082 437.116 247.505ZM440.67 246.192V247.098H437.813V246.192H440.67ZM438.518 245.001H439.689V249.666C439.689 249.823 439.713 249.944 439.761 250.028C439.81 250.11 439.875 250.166 439.955 250.197C440.034 250.227 440.123 250.242 440.22 250.242C440.293 250.242 440.36 250.236 440.42 250.226C440.483 250.215 440.53 250.205 440.563 250.197L440.76 251.112C440.698 251.134 440.608 251.157 440.492 251.183C440.377 251.209 440.237 251.224 440.071 251.229C439.778 251.237 439.514 251.193 439.279 251.096C439.043 250.997 438.857 250.844 438.719 250.637C438.583 250.429 438.516 250.171 438.518 249.86V245.001ZM444.138 251.161L446.956 245.584V245.538H443.685V244.536H448.198V245.561L445.384 251.161H444.138ZM453.358 251.248C452.968 251.248 452.619 251.148 452.31 250.947C452.002 250.747 451.758 250.455 451.579 250.074C451.4 249.692 451.311 249.228 451.311 248.683C451.311 248.131 451.401 247.665 451.582 247.285C451.766 246.903 452.013 246.616 452.323 246.421C452.634 246.225 452.98 246.127 453.362 246.127C453.653 246.127 453.892 246.177 454.08 246.276C454.267 246.373 454.416 246.49 454.526 246.628C454.636 246.764 454.721 246.893 454.782 247.013H454.83V244.536H456.005V251.161H454.853V250.378H454.782C454.721 250.499 454.634 250.627 454.52 250.763C454.405 250.896 454.254 251.011 454.067 251.106C453.879 251.2 453.643 251.248 453.358 251.248ZM453.685 250.287C453.933 250.287 454.145 250.22 454.319 250.087C454.494 249.951 454.627 249.762 454.717 249.52C454.808 249.279 454.853 248.998 454.853 248.676C454.853 248.355 454.808 248.076 454.717 247.838C454.629 247.601 454.497 247.417 454.322 247.285C454.15 247.154 453.937 247.088 453.685 247.088C453.424 247.088 453.206 247.156 453.032 247.292C452.857 247.428 452.725 247.615 452.637 247.855C452.549 248.094 452.504 248.368 452.504 248.676C452.504 248.987 452.549 249.264 452.637 249.508C452.728 249.749 452.86 249.94 453.035 250.08C453.212 250.218 453.429 250.287 453.685 250.287ZM458.682 251.261C458.367 251.261 458.084 251.205 457.831 251.093C457.581 250.978 457.383 250.81 457.236 250.588C457.092 250.366 457.02 250.092 457.02 249.766C457.02 249.486 457.071 249.254 457.175 249.071C457.278 248.888 457.42 248.741 457.599 248.631C457.778 248.521 457.979 248.438 458.204 248.382C458.43 248.324 458.664 248.282 458.905 248.256C459.197 248.225 459.433 248.198 459.614 248.175C459.795 248.149 459.927 248.11 460.009 248.058C460.093 248.004 460.135 247.921 460.135 247.809V247.79C460.135 247.546 460.062 247.357 459.918 247.224C459.774 247.09 459.565 247.023 459.294 247.023C459.007 247.023 458.779 247.086 458.611 247.211C458.445 247.336 458.333 247.484 458.275 247.654L457.181 247.499C457.268 247.197 457.41 246.944 457.608 246.742C457.807 246.537 458.049 246.384 458.336 246.282C458.623 246.179 458.94 246.127 459.287 246.127C459.527 246.127 459.765 246.155 460.002 246.211C460.239 246.267 460.456 246.36 460.652 246.489C460.849 246.617 461.006 246.79 461.125 247.01C461.245 247.23 461.306 247.505 461.306 247.835V251.161H460.18V250.478H460.141C460.07 250.616 459.97 250.745 459.84 250.866C459.713 250.985 459.552 251.081 459.358 251.154C459.166 251.225 458.941 251.261 458.682 251.261ZM458.986 250.4C459.221 250.4 459.425 250.354 459.598 250.261C459.77 250.166 459.903 250.041 459.996 249.886C460.091 249.731 460.138 249.561 460.138 249.378V248.793C460.101 248.823 460.039 248.851 459.95 248.877C459.864 248.903 459.767 248.925 459.659 248.945C459.551 248.964 459.445 248.981 459.339 248.996C459.233 249.012 459.142 249.024 459.064 249.035C458.889 249.059 458.733 249.098 458.595 249.152C458.457 249.206 458.348 249.281 458.268 249.378C458.188 249.473 458.149 249.596 458.149 249.747C458.149 249.963 458.227 250.125 458.385 250.235C458.542 250.345 458.743 250.4 458.986 250.4ZM463.033 253.024C462.874 253.024 462.726 253.011 462.59 252.985C462.456 252.961 462.35 252.933 462.27 252.901L462.542 251.989C462.712 252.038 462.864 252.062 462.998 252.06C463.131 252.058 463.249 252.016 463.35 251.934C463.454 251.854 463.541 251.72 463.612 251.533L463.713 251.264L461.911 246.192H463.153L464.298 249.944H464.35L465.498 246.192H466.744L464.754 251.762C464.661 252.025 464.539 252.251 464.385 252.438C464.232 252.628 464.045 252.773 463.823 252.872C463.603 252.973 463.339 253.024 463.033 253.024ZM471.481 247.505L470.414 247.622C470.383 247.514 470.331 247.412 470.255 247.318C470.182 247.223 470.083 247.146 469.958 247.088C469.832 247.03 469.679 247 469.498 247C469.254 247 469.05 247.053 468.884 247.159C468.72 247.265 468.639 247.402 468.641 247.57C468.639 247.714 468.692 247.832 468.799 247.922C468.909 248.013 469.091 248.087 469.343 248.146L470.19 248.327C470.661 248.428 471.01 248.589 471.239 248.809C471.469 249.029 471.586 249.317 471.588 249.673C471.586 249.985 471.494 250.261 471.313 250.501C471.134 250.738 470.885 250.923 470.566 251.057C470.247 251.191 469.88 251.258 469.466 251.258C468.858 251.258 468.368 251.13 467.997 250.876C467.626 250.619 467.405 250.262 467.334 249.805L468.476 249.695C468.528 249.919 468.638 250.089 468.806 250.203C468.974 250.317 469.193 250.375 469.463 250.375C469.741 250.375 469.964 250.317 470.132 250.203C470.303 250.089 470.388 249.947 470.388 249.779C470.388 249.637 470.333 249.519 470.223 249.427C470.115 249.334 469.947 249.263 469.718 249.213L468.871 249.035C468.394 248.936 468.041 248.769 467.813 248.534C467.584 248.297 467.471 247.997 467.473 247.635C467.471 247.328 467.554 247.063 467.722 246.839C467.893 246.612 468.129 246.438 468.431 246.315C468.735 246.19 469.085 246.127 469.482 246.127C470.064 246.127 470.523 246.251 470.857 246.499C471.193 246.747 471.401 247.082 471.481 247.505Z" fill="#575C66"/>
<circle cx="65.2852" cy="247.474" r="3.41606" fill="white" stroke="#84D149" stroke-width="2.27737"/>
<circle cx="78.9492" cy="247.474" r="3.41606" fill="white" stroke="#84D149" stroke-width="2.27737"/>
<circle cx="92.6133" cy="254.307" r="3.41606" fill="white" stroke="#84D149" stroke-width="2.27737"/>
<circle cx="107.037" cy="258.861" r="3.41606" fill="white" stroke="#84D149" stroke-width="2.27737"/>
<circle cx="122.219" cy="239.883" r="3.41606" fill="white" stroke="#84D149" stroke-width="2.27737"/>
<circle cx="135.883" cy="258.102" r="3.41606" fill="white" stroke="#84D149" stroke-width="2.27737"/>
<circle cx="150.307" cy="239.883" r="3.41606" fill="white" stroke="#84D149" stroke-width="2.27737"/>
<circle cx="163.973" cy="247.474" r="3.41606" fill="white" stroke="#84D149" stroke-width="2.27737"/>
<circle cx="178.395" cy="239.883" r="3.41606" fill="white" stroke="#84D149" stroke-width="2.27737"/>
<circle cx="192.818" cy="239.883" r="3.41606" fill="white" stroke="#84D149" stroke-width="2.27737"/>
<circle cx="207.242" cy="247.474" r="3.41606" fill="white" stroke="#84D149" stroke-width="2.27737"/>
<circle cx="221.664" cy="239.883" r="3.41606" fill="white" stroke="#84D149" stroke-width="2.27737"/>
<circle cx="236.088" cy="233.81" r="3.41606" fill="white" stroke="#84D149" stroke-width="2.27737"/>
<circle cx="250.512" cy="223.942" r="3.41606" fill="white" stroke="#84D149" stroke-width="2.27737"/>
<circle cx="263.418" cy="212.555" r="3.41606" fill="white" stroke="#84D149" stroke-width="2.27737"/>
<circle cx="277.84" cy="204.964" r="3.41606" fill="white" stroke="#84D149" stroke-width="2.27737"/>
<circle cx="292.264" cy="204.964" r="3.41606" fill="white" stroke="#84D149" stroke-width="2.27737"/>
<circle cx="306.688" cy="209.518" r="3.41606" fill="white" stroke="#84D149" stroke-width="2.27737"/>
<circle cx="321.109" cy="186.745" r="3.41606" fill="white" stroke="#84D149" stroke-width="2.27737"/>
<circle cx="335.533" cy="159.416" r="3.41606" fill="white" stroke="#84D149" stroke-width="2.27737"/>
<circle cx="348.438" cy="143.474" r="3.41606" fill="white" stroke="#84D149" stroke-width="2.27737"/>
<circle cx="362.104" cy="136.642" r="3.41606" fill="white" stroke="#84D149" stroke-width="2.27737"/>
<circle cx="376.527" cy="149.547" r="3.41606" fill="white" stroke="#84D149" stroke-width="2.27737"/>
<circle cx="390.189" cy="189.022" r="3.41606" fill="white" stroke="#84D149" stroke-width="2.27737"/>
<circle cx="404.613" cy="126.015" r="3.41606" fill="white" stroke="#84D149" stroke-width="2.27737"/>
<circle cx="419.037" cy="143.474" r="3.41606" fill="white" stroke="#84D149" stroke-width="2.27737"/>
<circle cx="432.701" cy="126.015" r="3.41606" fill="white" stroke="#84D149" stroke-width="2.27737"/>
<circle cx="447.125" cy="64.5256" r="3.41606" fill="white" stroke="#84D149" stroke-width="2.27737"/>
<circle cx="461.549" cy="104" r="3.41606" fill="white" stroke="#84D149" stroke-width="2.27737"/>
<circle cx="475.211" cy="110.832" r="3.41606" fill="white" stroke="#84D149" stroke-width="2.27737"/>
<circle cx="489.635" cy="88.8176" r="3.41606" fill="white" stroke="#84D149" stroke-width="2.27737"/>
</svg>
