<svg width="148" height="148" viewBox="0 0 148 148" fill="none" xmlns="http://www.w3.org/2000/svg">
<path d="M83.8012 139.327C116.031 138.937 141.692 112.079 141.692 79.8395V20.5861C141.682 20.2072 141.528 19.8466 141.26 19.5786C140.992 19.3106 140.631 19.1557 140.252 19.1459H104.032C103.654 19.1557 103.293 19.3106 103.025 19.5786C102.757 19.8466 102.602 20.2072 102.592 20.5861V29.4318H64.9908C64.6085 29.4393 64.2441 29.5944 63.9738 29.8647C63.7034 30.135 63.5483 30.4995 63.5408 30.8817V61.9633H25.9102C25.5287 61.9731 25.1656 62.129 24.8958 62.3989C24.626 62.6687 24.4701 63.0318 24.4602 63.4132C24.4602 63.4132 24.4602 82.1945 24.4602 82.2139C24.8305 97.632 31.2718 112.281 42.3838 122.975C53.4958 133.67 68.3803 139.546 83.8012 139.327Z" fill="white"/>
<path d="M104.285 78.7883C105.327 76.4333 107.419 74.7206 109.521 73.2123C116.198 68.4285 123.638 64.8093 131.523 62.5079C131.393 62.0235 131.166 61.5707 130.854 61.1774C130.543 60.7842 130.155 60.4587 129.713 60.2211C119.835 63.2101 110.667 68.1763 102.767 74.8179C101.794 75.6451 100.743 76.7642 100.967 77.9903C101.191 79.2164 103.254 79.4111 104.285 78.7883Z" fill="white"/>
<path d="M29.8608 63.9131C32.1536 63.9144 34.4242 63.4633 36.5424 62.5856C38.6606 61.7078 40.5848 60.4208 42.2048 58.7981C43.8247 57.1755 45.1085 55.2491 45.9827 53.1294C46.8569 51.0098 47.3043 48.7384 47.2991 46.4456C47.2991 46.0953 47.2991 45.7547 47.2991 45.4141C47.2991 45.2486 47.2991 45.0735 47.2991 44.9178C47.2991 44.5188 47.2116 44.1198 47.1532 43.7306C47.0948 43.3413 47.0656 43.1856 47.0072 42.9229C46.9196 42.485 46.8126 42.0568 46.6861 41.6286C46.5596 41.2005 46.472 40.9085 46.3358 40.5485C46.2166 40.1872 46.0768 39.8331 45.9173 39.4878C45.8047 39.2122 45.678 38.9426 45.5378 38.6801L45.3334 38.2714C45.1777 37.9697 45.0123 37.6778 44.8469 37.4053C42.9426 34.2665 40.1002 31.8053 36.7213 30.3696L36.2639 30.1847L36.1082 30.1361L35.9136 30.0679H35.8552C35.427 29.9025 34.9794 29.7663 34.5318 29.6398L34.0452 29.5133C33.7533 29.4354 33.4711 29.377 33.1791 29.3284L32.7802 29.2602C32.6787 29.2297 32.5743 29.2101 32.4688 29.2019C32.3228 29.2019 32.1768 29.2019 32.0114 29.1435C31.3141 29.0567 30.6121 29.0145 29.9094 29.017C27.6161 29.0106 25.3441 29.4566 23.2234 30.3295C21.1027 31.2023 19.175 32.485 17.5506 34.1039C15.9263 35.7228 14.6373 37.6462 13.7573 39.764C12.8773 41.8817 12.4237 44.1523 12.4224 46.4456C12.4224 46.6208 12.4224 46.8056 12.4224 46.9808C12.4224 47.156 12.4224 47.1657 12.4224 47.2727C12.4224 47.3798 12.4224 47.662 12.4224 47.8469C12.4224 48.0318 12.4224 48.3043 12.5003 48.5378C12.5781 48.7714 12.5489 48.9952 12.5879 49.219C12.6649 49.7341 12.7721 50.2443 12.909 50.7468V50.8538C12.9771 51.1166 13.0452 51.3793 13.1231 51.6226C13.2885 52.1384 13.4637 52.5957 13.668 53.1115C13.7361 53.2769 13.8043 53.4521 13.8821 53.6078C14.0086 53.9094 14.1546 54.2014 14.3006 54.4739C14.3688 54.6216 14.4468 54.7647 14.5341 54.902C14.719 55.2524 14.9234 55.5929 15.1374 55.8751L15.3223 56.1476C15.5267 56.4493 15.7505 56.7607 15.9841 57.0624C16.5227 57.7563 17.1149 58.4071 17.7551 59.0086C17.9108 59.1643 18.0665 59.3103 18.2417 59.4562C18.7292 59.8965 19.2461 60.3029 19.789 60.6726C19.9641 60.7991 20.1393 60.9257 20.3339 61.0424L20.8886 61.383C21.1513 61.5387 21.4141 61.6847 21.6671 61.8112C21.8469 61.9149 22.0321 62.0091 22.2218 62.0934C22.7691 62.3618 23.3312 62.5989 23.9053 62.8038C25.8106 63.518 27.8261 63.8934 29.8608 63.9131ZM29.8608 68.1073C26.2836 68.1124 22.761 67.2303 19.6084 65.54C16.4557 63.8498 13.7714 61.4041 11.7958 58.4219C9.82025 55.4398 8.61502 52.0142 8.28807 48.452C7.96111 44.8898 8.52262 41.3022 9.92234 38.0102C11.3221 34.7182 13.5163 31.8248 16.3086 29.5888C19.1008 27.3529 22.404 25.8443 25.9223 25.1982C29.4407 24.552 33.0643 24.7884 36.4689 25.8862C39.8734 26.984 42.9526 28.9089 45.4307 31.4887C45.8492 31.9169 46.2384 32.3645 46.618 32.8219C46.7347 32.9776 46.8612 33.1138 46.9683 33.2598C47.0753 33.4057 47.3186 33.7074 47.4743 33.9507C49.6045 36.9745 50.9233 40.4942 51.3048 44.1733C51.6863 47.8524 51.1176 51.5678 49.6531 54.9644C48.1887 58.3609 45.8774 61.325 42.9403 63.5733C40.0033 65.8215 36.5385 67.2787 32.8775 67.8056C31.8798 67.9677 30.8715 68.0555 29.8608 68.0684V68.1073Z" fill="white"/>
<path d="M28.2844 69.889C25.6915 69.8919 23.1196 69.4236 20.6941 68.5072C17.3389 67.2514 14.3486 65.181 11.9926 62.4822C9.63651 59.7835 7.98857 56.5412 7.19712 53.0472C6.40567 49.5532 6.49555 45.9173 7.45867 42.4667C8.42179 39.0161 10.2279 35.8592 12.7144 33.2802C10.2532 36.4804 8.73753 40.306 8.33915 44.3235C7.94077 48.341 8.67562 52.3898 10.4604 56.0111C12.2452 59.6324 15.0086 62.6813 18.4375 64.8125C21.8664 66.9437 25.8236 68.0719 29.8609 68.0693C30.8706 68.0693 31.8789 67.9945 32.8775 67.8455V68.0693L36.8868 75.4942L34.2399 75.2801L31.3206 69.889C31.3206 69.8209 31.3206 69.7528 31.3206 69.6749C30.3151 69.8202 29.3003 69.8917 28.2844 69.889Z" fill="white"/>
<path d="M69.9146 66.212L92.0531 68.3723C89.4257 73.9385 83.4702 78.1035 77.3395 78.1035C76.9016 78.1035 76.4734 78.1035 76.055 78.1035C73.8952 77.9438 71.832 77.1442 70.1286 75.8069C69.3422 74.3377 68.8903 72.7127 68.8052 71.0484C68.7573 70.2226 68.7964 69.3942 68.922 68.5766C69.0345 67.7504 69.2335 66.9383 69.5156 66.1536L69.9146 66.212Z" fill="black"/>
<path d="M15.2254 55.9254C15.0113 55.5945 14.807 55.2539 14.6221 54.9523C14.807 55.2539 15.021 55.5945 15.2254 55.9254Z" fill="white"/>
<path d="M29.8609 63.918C27.8735 63.9286 25.8988 63.5994 24.0222 62.9449C23.5843 62.7016 23.1561 62.4389 22.7474 62.1567C19.4116 60.246 16.8006 57.2867 15.3205 53.7388C13.8404 50.191 13.574 46.2535 14.563 42.5386C15.5519 38.8238 17.7406 35.5398 20.7888 33.1974C23.837 30.855 27.5737 29.5855 31.4179 29.5863C33.0146 29.5816 34.6038 29.8045 36.1376 30.248L36.6533 30.4426C38.7217 31.3215 40.4881 32.18 42.077 33.7692C43.6659 35.3585 44.8018 37.0437 45.8463 39.1539C45.7337 38.8783 46.0009 39.4662 45.8463 39.1539C46.002 39.4945 46.1413 40.2614 46.2678 40.6215C46.3943 40.9815 46.5111 41.3318 46.6181 41.7016C46.7252 42.0714 46.8517 42.558 46.9393 42.9959C46.9976 43.2684 47.0463 43.5311 47.0852 43.8036C47.1241 44.0761 47.1923 44.5918 47.2312 44.9908C47.2312 45.1562 47.2312 45.3216 47.2312 45.4871C47.2312 45.8277 47.2312 46.1683 47.2312 46.5186C47.2235 51.1258 45.3919 55.5425 42.1368 58.803C38.8818 62.0636 34.4681 63.9026 29.8609 63.918ZM22.9129 33.9848C22.7281 33.9748 22.5429 33.9748 22.3582 33.9848C21.3788 34.6832 20.6477 35.6759 20.2712 36.8183C19.8947 37.9608 19.8924 39.1936 20.2647 40.3375C20.6369 41.4814 21.3643 42.4767 22.3411 43.1788C23.3179 43.8809 24.4931 44.2532 25.696 44.2415C25.8775 44.2512 26.0594 44.2512 26.2409 44.2415C26.9669 43.723 27.5579 43.038 27.9643 42.2438C28.3707 41.4497 28.5806 40.5696 28.5764 39.6775C28.5816 38.931 28.4388 38.1908 28.1564 37.4997C27.8739 36.8086 27.4574 36.1803 26.9309 35.651C26.4043 35.1218 25.7781 34.702 25.0885 34.416C24.3989 34.13 23.6594 33.9835 22.9129 33.9848Z" fill="white"/>
<path d="M16.0718 57.1013C15.848 56.7997 15.6144 56.498 15.4101 56.1866L15.2252 55.9141C15.0208 55.5833 14.8068 55.2427 14.6219 54.941C14.5362 54.8027 14.4583 54.6597 14.3883 54.5128C14.2423 54.2403 14.0964 53.9484 13.9699 53.6467C13.892 53.491 13.8239 53.3159 13.7558 53.1504C13.5514 52.6736 13.3763 52.1773 13.2108 51.6616C13.133 51.4183 13.0551 51.1555 12.9967 50.8928V50.7858C12.8635 50.2823 12.7564 49.7724 12.6756 49.258C12.6756 49.0341 12.6075 48.8006 12.588 48.5768C12.5686 48.353 12.5199 48.1194 12.5102 47.8859C12.5005 47.6523 12.5102 47.4966 12.5102 47.3117C12.5102 47.1268 12.5102 47.1171 12.5102 47.0198C12.5102 46.9225 12.5102 46.6597 12.5102 46.4846C12.4972 41.8663 14.3168 37.4316 17.5696 34.1532C20.8224 30.8749 25.2428 29.0207 29.861 28.9975C30.5636 28.995 31.2656 29.0373 31.9629 29.124C32.1283 29.124 32.2743 29.124 32.4203 29.1824C32.5259 29.1907 32.6303 29.2103 32.7317 29.2408L33.1306 29.3089C33.4226 29.3089 33.7048 29.416 33.9967 29.4938L34.4833 29.6203C34.9309 29.7468 35.3786 29.8831 35.8067 30.0485H35.8651L36.0403 30.1166C36.0511 30.1121 36.0626 30.1097 36.0743 30.1097C36.086 30.1097 36.0976 30.1121 36.1084 30.1166C34.5746 29.6731 32.9854 29.4503 31.3888 29.4549C27.5445 29.4541 23.8078 30.7237 20.7596 33.066C17.7114 35.4084 15.5227 38.6924 14.5338 42.4073C13.5449 46.1221 13.8112 50.0596 15.2913 53.6075C16.7714 57.1554 19.3824 60.1147 22.7182 62.0253C23.1269 62.3075 23.5551 62.5703 23.993 62.8136C23.4134 62.6253 22.8448 62.4043 22.2901 62.1518C22.0985 62.0714 21.9131 61.9771 21.7354 61.8696C21.4824 61.7431 21.2196 61.5972 20.9569 61.4415L20.4022 61.1009L19.8573 60.7311C19.3189 60.3552 18.8024 59.949 18.31 59.5147L17.8234 59.067C17.1941 58.4538 16.6087 57.7969 16.0718 57.1013Z" fill="white"/>
<path d="M113.442 95.7153V95.7736L102.242 101.437L103.059 93.4576L106.543 91.4141L106.64 91.4919C105.909 92.3758 105.068 93.1638 104.139 93.8371C103.984 94.9368 103.838 95.8807 103.682 96.9901C105.054 97.1873 106.452 97.1026 107.791 96.7412C109.13 96.3798 110.38 95.7493 111.467 94.8881C112.007 95.3887 112.707 95.6818 113.442 95.7153Z" fill="black"/>
<path d="M106.874 57.4415C108.612 61.5676 109.177 66.0933 108.509 70.5203C106.679 71.9021 104.918 73.391 103.166 74.8993C104.636 72.1248 105.623 69.1204 106.085 66.0147C106.898 60.5811 105.831 55.0329 103.059 50.2891C104.563 52.5418 105.841 54.9376 106.874 57.4415Z" fill="black"/>
<path d="M103.059 50.2903C105.792 55.0444 106.821 60.588 105.979 66.0062C105.516 69.1119 104.529 72.1163 103.059 74.8908L102.417 75.4552C102.048 75.7313 101.72 76.059 101.444 76.4284L93.0847 79.8538L76.0161 78.5595V78.034C76.4346 78.034 76.8627 78.034 77.3006 78.034C83.4313 78.034 89.3868 73.8885 92.0143 68.3028C92.5567 67.1782 92.9493 65.9873 93.182 64.7606C93.2985 64.1567 93.3733 63.5454 93.4058 62.9312C93.5884 60.5676 92.9506 58.2134 91.5999 56.2653C90.2492 54.3172 88.2681 52.8943 85.9906 52.2365L92.9387 41.1429C97.1726 43.0787 100.707 46.273 103.059 50.2903Z" fill="white"/>
<path d="M97.3571 80.2299V104.12L93.1921 103.663V102.544L93.2797 79.9185L97.3571 80.2299Z" fill="white"/>
<path d="M97.006 107.4V131.426L93.1719 130.872L93.1913 130.716V106.982L97.006 107.4Z" fill="white"/>
<path d="M85.9902 52.2388C88.2908 52.8919 90.2925 54.3248 91.6525 56.292C93.0125 58.2591 93.6459 60.638 93.4443 63.021C92.4739 60.8647 90.8365 59.0772 88.7734 57.9218L85.9902 52.2388Z" fill="white"/>
<path d="M53.3036 76.7766L55.3374 76.9323L76.0163 78.5574L93.2113 79.9101L93.2795 79.9198L93.1919 102.545L9.68823 93.4559V73.361L34.2109 75.278L36.8675 75.4921L43.2318 75.9884L53.3036 76.7766Z" fill="white"/>
<path d="M93.1919 106.986V130.72L93.1724 130.876L9.68823 118.838V97.8966L93.1919 106.986Z" fill="white"/>
<path d="M92.9388 41.1364L85.9907 52.2397C84.8187 51.8955 83.6018 51.7282 82.3804 51.7434C76.3276 51.7434 70.4402 55.7819 67.7836 61.2508L55.2498 57.767C57.0054 53.3249 59.7942 49.3652 63.3853 46.2158C66.9763 43.0664 71.2662 40.8181 75.8994 39.6572C78.3984 39.0523 80.9692 38.7969 83.5384 38.8982C86.789 39.016 89.9839 39.7767 92.9388 41.1364Z" fill="black"/>
<path d="M53.2547 11.2831L75.8993 39.6593C71.266 40.8202 66.9762 43.0685 63.3851 46.2179C59.7941 49.3673 57.0052 53.3271 55.2496 57.7691C54.5018 59.7122 53.973 61.7325 53.6731 63.7928C53.1338 67.4562 53.4231 71.1939 54.5198 74.7307C54.7669 75.4813 55.0527 76.2186 55.3761 76.9397L53.3423 76.784C52.9927 76.0331 52.5585 75.3246 52.048 74.6723C51.5362 73.9925 50.8305 73.4836 50.0239 73.2126L50.5007 61.0583L46.7834 64.581L45.5086 62.0412L45.1875 61.7784C45.2863 61.6749 45.3774 61.5644 45.46 61.4475C48.9694 57.8242 51.0969 53.0849 51.4721 48.0546C51.8473 43.0243 50.4464 38.0217 47.5133 33.9179C49.1189 27.4272 51.7755 17.0245 53.2547 11.2831Z" fill="white"/>
<path d="M55.2494 57.7629L67.7637 61.2273C67.1706 62.4149 66.7449 63.679 66.4987 64.9835C66.3382 65.7944 66.2567 66.6189 66.2554 67.4455C66.2554 67.6693 66.2554 67.8737 66.2554 68.0878C66.2554 68.3019 66.2554 68.5062 66.2554 68.7106C66.2761 68.9526 66.3118 69.1931 66.3624 69.4307L54.5098 74.7245C53.4132 71.1877 53.1238 67.45 53.6632 63.7866C53.9631 61.7263 54.4918 59.706 55.2397 57.7629H55.2494Z" fill="white"/>
<path d="M51.4838 9L53.2938 11.2771C51.8147 17.0185 49.1581 27.4212 47.5038 33.9119C47.3481 33.6687 47.1729 33.4448 46.9977 33.221C46.8226 32.9972 46.7642 32.9388 46.6474 32.7831C46.2679 32.3258 45.8786 31.8781 45.4602 31.4499L51.4838 9Z" fill="white"/>
<path d="M50.4521 61.0515L49.9753 73.2058C49.2844 73.0701 48.5856 72.9791 47.8831 72.9333C47.5328 72.9001 47.195 72.7862 46.8961 72.6004C46.5973 72.4147 46.3455 72.1623 46.1606 71.8629C45.9416 71.2962 45.9416 70.6682 46.1606 70.1016C46.4256 69.1727 46.8048 68.2804 47.2895 67.4449C47.4392 67.2106 47.5268 66.942 47.5438 66.6645C47.5608 66.3869 47.5068 66.1096 47.3868 65.8587L46.7348 64.5839L50.4521 61.0515Z" fill="black"/>
<path d="M31.34 69.8865L34.2594 75.2776L9.73672 73.3313L6.04858 73.0394L20.7427 68.4755C23.1683 69.3919 25.7402 69.8601 28.3331 69.8573C29.349 69.86 30.3638 69.7885 31.3692 69.6432C31.3303 69.7503 31.3303 69.8184 31.34 69.8865Z" fill="black"/>
<path d="M9.68813 97.8929V118.834L6 118.309V97.4939L9.68813 97.8929Z" fill="white"/>
<path d="M9.68813 93.4619V93.3646L6 92.8975V73.075L9.68813 73.3669V93.4619Z" fill="white"/>
<path d="M102.446 100.299L103.069 93.4576L106.543 91.4141L106.64 91.4919" stroke="black" stroke-linecap="round" stroke-linejoin="round"/>
<path d="M12.7144 33.2756C14.6056 30.8051 17.0086 28.7727 19.7587 27.3177C22.5088 25.8626 25.5409 25.0193 28.6473 24.8456C31.7537 24.6718 34.861 25.1717 37.7562 26.311C40.6514 27.4502 43.266 29.202 45.421 31.4461C45.8395 31.8743 46.2287 32.3219 46.6082 32.7793C46.725 32.935 46.8515 33.0712 46.9585 33.2172C47.0656 33.3632 47.3089 33.6648 47.4646 33.9081C49.604 36.9317 50.9308 40.4543 51.3178 44.138C51.7049 47.8217 51.1392 51.543 49.6749 54.9453C48.2106 58.3475 45.897 61.3166 42.9557 63.5679C40.0144 65.8191 36.5441 67.2771 32.8775 67.802" stroke="black" stroke-linecap="round" stroke-linejoin="round"/>
<path d="M12.7144 33.2802C10.2532 36.4804 8.73752 40.306 8.33914 44.3235C7.94076 48.341 8.6756 52.3898 10.4604 56.0111C12.2452 59.6324 15.0086 62.6814 18.4375 64.8125C21.8664 66.9437 25.8236 68.0719 29.8609 68.0693C30.8706 68.0693 31.8789 67.9945 32.8775 67.8455" stroke="black" stroke-linecap="round" stroke-linejoin="round"/>
<path d="M9.68813 73.3592V93.4542L6 93.0844V73.0672L20.6942 68.5033" stroke="black" stroke-linecap="round" stroke-linejoin="round"/>
<path d="M6 73.075L9.68813 73.3669L34.2108 75.2839L36.8674 75.498L43.2317 75.9943L53.3035 76.7826L55.3373 76.9382L76.0162 78.5634L93.2112 79.916L93.2794 79.9257L97.3567 80.2371V102.998L93.1918 102.541V102.551L93.2794 79.9257" stroke="black" stroke-linecap="round" stroke-linejoin="round"/>
<path d="M9.68823 93.4583L93.1919 102.547" stroke="black" stroke-linecap="round" stroke-linejoin="round"/>
<path d="M6 97.4939L9.68813 97.8929L93.1918 106.982L97.0064 107.4V131.427L93.1723 130.872L9.68813 118.834L6 118.309V97.4939Z" stroke="black" stroke-linecap="round" stroke-linejoin="round"/>
<path d="M99.4782 106.063L97.1719 105.81L9.5227 96.2635L6 97.4994" stroke="black" stroke-linecap="round" stroke-linejoin="round"/>
<path d="M9.68823 97.8966V118.838" stroke="black" stroke-linecap="round" stroke-linejoin="round"/>
<path d="M93.1921 106.982V130.716" stroke="black" stroke-linecap="round" stroke-linejoin="round"/>
<path d="M97.3562 80.2323L99.283 79.4343L100.509 78.938L101.308 78.623" stroke="black" stroke-linecap="round" stroke-linejoin="round"/>
<path d="M101.561 76.4634L93.2114 79.8888" stroke="black" stroke-linecap="round" stroke-linejoin="round"/>
<path d="M97.3562 102.99L113.442 95.769" stroke="black" stroke-linecap="round" stroke-linejoin="round"/>
<path d="M118.123 96.7885L118.035 116.397L99.4195 129.534L97.0061 131.432" stroke="black" stroke-linecap="round" stroke-linejoin="round"/>
<path d="M99.4783 101.912V79.9102" stroke="black" stroke-linecap="round" stroke-linejoin="round"/>
<path d="M99.4778 106.057L99.4194 129.528" stroke="black" stroke-linecap="round" stroke-linejoin="round"/>
<mask id="mask0_6575_1459" style="mask-type:alpha" maskUnits="userSpaceOnUse" x="24" y="19" width="118" height="121">
<path d="M83.8012 139.332C116.031 138.943 141.692 112.085 141.692 79.845V20.5916C141.682 20.2127 141.528 19.8521 141.26 19.5841C140.992 19.3161 140.631 19.1612 140.252 19.1514H104.032C103.654 19.1612 103.293 19.3161 103.025 19.5841C102.757 19.8521 102.602 20.2127 102.592 20.5916V29.4373H64.9908C64.6085 29.4447 64.2441 29.5999 63.9738 29.8702C63.7034 30.1405 63.5483 30.505 63.5408 30.8872V61.9688H25.9102C25.5287 61.9786 25.1656 62.1345 24.8958 62.4043C24.626 62.6742 24.4701 63.0373 24.4602 63.4187C24.4602 63.4187 24.4602 82.2 24.4602 82.2194C24.8305 97.6375 31.2718 112.286 42.3838 122.981C53.4958 133.676 68.3803 139.552 83.8012 139.332Z" fill="#C7FA73"/>
</mask>
<g mask="url(#mask0_6575_1459)">
<path d="M142.782 56.3989C146.772 58.3452 149.867 62.5588 149.828 66.9962C149.789 71.4337 146.753 75.5208 142.374 76.2506C138.77 76.8585 135.293 78.0657 132.088 79.822L131.883 79.7441C133.117 76.5568 133.596 73.1273 133.283 69.724C132.971 66.3207 131.876 63.0357 130.083 60.126L130.025 59.9606C134.203 58.522 138.463 57.3327 142.782 56.3989Z" fill="black"/>
<path d="M103.167 74.898C104.918 73.3897 106.679 71.9008 108.509 70.5189C110.465 68.9998 112.549 67.6519 114.737 66.4902C123.59 61.9056 133.01 58.5124 142.753 56.3989C146.743 58.3452 149.837 62.5588 149.799 66.9962C149.76 71.4337 146.723 75.5208 142.344 76.2506C138.74 76.8585 135.264 78.0657 132.059 79.822" stroke="black" stroke-linecap="round" stroke-linejoin="round"/>
</g>
<path d="M111.71 78.8324C110.922 78.7351 110.134 78.6573 109.345 78.6183C107.574 78.551 105.8 78.6651 104.052 78.9589C103.579 79.0664 103.095 79.1121 102.611 79.0952C102.167 79.0695 101.749 78.8745 101.444 78.5502C101.413 78.5223 101.386 78.4894 101.366 78.4529C101.212 78.143 101.149 77.796 101.183 77.4518C101.217 77.1075 101.348 76.7799 101.56 76.5067C101.836 76.1373 102.164 75.8096 102.534 75.5335L103.176 74.9691" stroke="black" stroke-linecap="round" stroke-linejoin="round"/>
<path d="M109.345 78.6436C110.151 81.4016 110.087 84.3411 109.161 87.0611C108.778 88.1681 108.255 89.2213 107.604 90.1945C107.311 90.649 106.986 91.0815 106.63 91.4888C105.899 92.3727 105.059 93.1607 104.129 93.834C103.974 94.9336 103.828 95.8776 103.672 96.9869C105.044 97.1841 106.443 97.0995 107.781 96.7381C109.12 96.3767 110.371 95.7461 111.457 94.885L111.525 94.8266C114.386 92.3743 115.671 88.3456 118.814 86.2631" stroke="black" stroke-linecap="round" stroke-linejoin="round"/>
<path d="M123.563 83.3731C124.167 82.681 124.817 82.0308 125.509 81.4268C129.704 77.8263 129.46 70.7225 127.621 65.4871" stroke="black" stroke-linecap="round" stroke-linejoin="round"/>
<path d="M111.516 94.9369C112.055 95.4135 112.743 95.6886 113.462 95.7154C114.154 95.7642 114.847 95.637 115.476 95.3456C116.728 94.6979 117.748 93.6779 118.396 92.4262C119.067 91.2098 119.554 89.8766 120.137 88.6116C120.858 87.0657 121.767 85.6146 122.843 84.2909C123.067 83.999 123.31 83.7168 123.553 83.4346" stroke="black" stroke-linecap="round" stroke-linejoin="round"/>
<path d="M122.813 84.2599C123.003 83.9375 123.231 83.64 123.494 83.3744C124.381 82.6272 125.416 82.0766 126.531 81.759C127.642 81.433 128.825 81.433 129.936 81.759C130.183 81.8312 130.447 81.8142 130.682 81.711C130.917 81.6077 131.108 81.4249 131.221 81.1946C131.445 80.7372 131.63 80.2215 131.815 79.7836C133.048 76.5962 133.527 73.1667 133.215 69.7634C132.902 66.3601 131.807 63.0751 130.014 60.1654" stroke="black" stroke-linecap="round" stroke-linejoin="round"/>
<path d="M26.2407 44.2693C26.0592 44.279 26.4222 44.279 26.2407 44.2693ZM26.2407 44.2693C24.3077 44.3725 23.3353 43.8292 22.3671 43.1285C21.3989 42.4279 20.6776 41.4384 20.3068 40.3023C19.936 39.1661 19.9348 37.9417 20.3033 36.8048C20.6718 35.6679 21.5101 34.6771 22.4769 33.9745" stroke="black" stroke-linecap="round" stroke-linejoin="round"/>
<path d="M32.9163 68.0673L36.8671 75.4922" stroke="black" stroke-linecap="round" stroke-linejoin="round"/>
<path d="M31.3205 69.6749C30.3151 69.8202 29.3003 69.8917 28.2844 69.889C25.6915 69.8919 23.1196 69.4237 20.6941 68.5072C17.3389 67.2514 14.3486 65.181 11.9926 62.4822C9.63651 59.7835 7.98857 56.5412 7.19712 53.0472C6.40567 49.5532 6.49555 45.9173 7.45867 42.4667C8.42179 39.0161 10.2279 35.8592 12.7144 33.2802" stroke="black" stroke-linecap="round" stroke-linejoin="round"/>
<path d="M45.4116 61.4403C45.329 61.5571 45.2379 61.6677 45.1391 61.7712C43.5448 63.7891 41.5999 65.5032 39.3977 66.8314" stroke="black" stroke-linecap="round" stroke-linejoin="round"/>
<path d="M39.3977 66.8313C40.4617 68.557 41.4542 70.3183 42.3755 72.1154C42.9885 73.322 43.5919 74.7622 43.2318 76.0078" stroke="black" stroke-linecap="round" stroke-linejoin="round"/>
<path d="M31.3206 69.6753C31.3206 69.7531 31.3206 69.8213 31.3206 69.8894L34.2399 75.2805" stroke="black" stroke-linecap="round" stroke-linejoin="round"/>
<path d="M45.4602 62.0319L46.735 64.5717L47.387 65.8562C47.5131 66.1059 47.573 66.3837 47.5611 66.6631C47.5492 66.9425 47.4658 67.2142 47.3189 67.4522C46.8342 68.2876 46.455 69.18 46.19 70.1088C45.971 70.6755 45.971 71.3034 46.19 71.8701C46.3749 72.1695 46.6267 72.422 46.9255 72.6077C47.2244 72.7934 47.5622 72.9073 47.9125 72.9406C48.615 72.9864 49.3139 73.0774 50.0047 73.213C50.8113 73.4841 51.5169 73.9929 52.0288 74.6727C52.5392 75.325 52.9735 76.0335 53.323 76.7844C53.323 76.7844 53.323 76.7844 53.323 76.7844" stroke="black" stroke-linecap="round" stroke-linejoin="round"/>
<path d="M55.2397 57.7629C54.4918 59.706 53.9631 61.7263 53.6632 63.7866C53.1238 67.45 53.4132 71.1877 54.5098 74.7245C54.7602 75.4753 55.0492 76.2126 55.3759 76.9334" stroke="black" stroke-linecap="round" stroke-linejoin="round"/>
<path d="M92.9388 41.1364C89.9839 39.7767 86.789 39.016 83.5384 38.8982C80.9692 38.7969 78.3984 39.0523 75.8994 39.6572C71.2662 40.8181 66.9763 43.0664 63.3853 46.2158C59.7942 49.3652 57.0054 53.3249 55.2498 57.767" stroke="black" stroke-linecap="round" stroke-linejoin="round"/>
<path d="M103.059 50.2889C100.702 46.2824 97.1687 43.0988 92.939 41.1708" stroke="black" stroke-linecap="round" stroke-linejoin="round"/>
<path d="M103.156 74.9188C104.626 72.1442 105.613 69.1398 106.076 66.0342C106.896 60.5953 105.832 55.0395 103.059 50.2891" stroke="black" stroke-linecap="round" stroke-linejoin="round"/>
<path d="M103.059 50.2891C104.552 52.5399 105.82 54.9324 106.845 57.4318C108.583 61.5579 109.148 66.0836 108.479 70.5106V70.5106" stroke="black" stroke-linecap="round" stroke-linejoin="round"/>
<path d="M69.4768 75.1832L69.2627 74.9885" stroke="black" stroke-linecap="round" stroke-linejoin="round"/>
<path d="M93.4444 62.9929C93.4119 63.6072 93.3371 64.2184 93.2206 64.8224C92.9879 66.0491 92.5953 67.24 92.0529 68.3646C89.4254 73.9308 83.4699 78.0958 77.3393 78.0958C76.9013 78.0958 76.4732 78.0958 76.0547 78.0958C73.895 77.936 71.8318 77.1365 70.1284 75.7992" stroke="black" stroke-linecap="round" stroke-linejoin="round"/>
<path d="M93.445 62.9987C92.4746 60.8424 90.8371 59.0549 88.774 57.8995C87.1344 56.9831 85.2992 56.4726 83.4219 56.4107C80.5715 56.3575 77.769 57.1474 75.366 58.6813C72.963 60.2152 71.0666 62.4247 69.9149 65.0325C69.7689 65.3731 69.6327 65.7234 69.5159 66.0835C69.2338 66.8682 69.0349 67.6803 68.9223 68.5066C68.7968 69.3241 68.7576 70.1526 68.8055 70.9783C68.8906 72.6426 69.3426 74.2676 70.129 75.7369C69.9744 75.6242 69.828 75.5007 69.6911 75.3671L69.477 75.1822L69.2629 74.9876C68.9122 74.6452 68.5869 74.2777 68.2898 73.8879L68.027 73.5279C67.6391 72.9541 67.3129 72.3408 67.0539 71.6984L66.9371 71.4065C66.7768 70.9915 66.6467 70.5655 66.5479 70.1317C66.5479 69.976 66.4895 69.8397 66.4603 69.6743C66.4557 69.6063 66.4557 69.538 66.4603 69.47C66.4097 69.2324 66.3739 68.9919 66.3533 68.7499C66.3533 68.5455 66.3533 68.3314 66.3533 68.1271C66.3533 67.9227 66.3533 67.7086 66.3533 67.4848C66.3546 66.6582 66.4361 65.8337 66.5966 65.0228C66.8427 63.7183 67.2685 62.4542 67.8616 61.2665C70.5377 55.7976 76.4251 51.7981 82.4585 51.7591C83.6799 51.7439 84.8967 51.9112 86.0687 52.2554C88.3478 52.9222 90.3266 54.3555 91.6706 56.3131C93.0147 58.2706 93.6415 60.6323 93.445 62.9987V62.9987Z" stroke="black" stroke-linecap="round" stroke-linejoin="round"/>
<path d="M92.9486 41.1375V41.1472L86.0005 52.2213L88.7836 57.9044" stroke="black" stroke-linecap="round" stroke-linejoin="round"/>
<path d="M55.2498 57.7629H55.2595L67.7641 61.2273L69.9147 65.0322" stroke="black" stroke-linecap="round" stroke-linejoin="round"/>
<path d="M54.5198 74.7261L66.4211 69.4226L66.4308 69.4323L68.8052 70.9796" stroke="black" stroke-linecap="round" stroke-linejoin="round"/>
<path d="M45.47 31.411L51.4449 9L53.2647 11.2771L75.8995 39.6534" stroke="black" stroke-linecap="round" stroke-linejoin="round"/>
<path d="M46.7446 64.5783L50.462 61.0653L49.9851 73.2099" stroke="black" stroke-linecap="round" stroke-linejoin="round"/>
<path d="M69.9146 66.2119L92.0628 68.3722" stroke="black" stroke-linecap="round" stroke-linejoin="round"/>
<path d="M107.604 90.1838L104.14 92.1301C103.807 92.311 103.525 92.5723 103.319 92.8901C103.114 93.208 102.991 93.5723 102.962 93.9498L102.446 100.334" stroke="black" stroke-linecap="round" stroke-linejoin="round"/>
<path d="M53.8779 124.759C55.0359 122.716 56.301 120.565 58.3835 119.485C60.7871 118.23 63.6967 118.697 66.3047 119.417C68.9127 120.137 71.579 121.081 74.2551 120.692C77.807 120.176 80.5707 117.461 83.0716 114.853L91.0804 106.62" stroke="black" stroke-linecap="round" stroke-linejoin="round"/>
<path d="M38.1711 101.255C39.265 104.052 40.6204 106.74 42.2193 109.283C42.8282 110.357 43.6337 111.308 44.5938 112.085C45.5669 112.815 57.8671 113.73 61.1368 113.574C64.4808 113.533 67.7692 112.713 70.7416 111.18C73.6123 109.445 76.2904 107.41 78.7309 105.108" stroke="black" stroke-linecap="round" stroke-linejoin="round"/>
<path d="M9.79517 109.651L24.392 110.098C28.8392 110.225 33.7924 110.779 37.4221 113.358C38.8307 114.372 40.0054 115.676 40.867 117.183C42.0931 119.275 43.5333 121.581 44.9249 123.722" stroke="black" stroke-linecap="round" stroke-linejoin="round"/>
<path d="M75.8115 88.2405C80.2684 86.9755 85.2119 82.7229 87.3236 79.4824" stroke="black" stroke-linecap="round" stroke-linejoin="round"/>
<path d="M20.1011 94.4543C19.7216 91.3792 19.2545 87.983 21.5997 85.9589C23.3513 84.4505 25.8912 84.4116 28.1975 84.5868C35.1942 85.1415 42.0158 86.9807 48.886 88.4209C55.7563 89.8611 62.8406 90.9121 69.779 89.8417C70.684 89.7054 71.589 89.5302 72.4843 89.3064" stroke="black" stroke-linecap="round" stroke-linejoin="round"/>
<path d="M45.6453 38.9301C47.5128 42.886 47.828 47.3985 46.5286 51.5755C45.2293 55.7525 42.41 59.29 38.6281 61.4885C34.8462 63.6869 30.3771 64.3864 26.1043 63.4485C21.8316 62.5106 18.0663 60.0036 15.5529 56.4233C13.0395 52.843 11.961 48.4499 12.5306 44.1127C13.1002 39.7754 15.2765 35.8098 18.6291 32.9999C21.9817 30.1899 26.2666 28.7402 30.6366 28.9373C35.0067 29.1345 39.1436 30.9641 42.2296 34.0645" stroke="black" stroke-linecap="round" stroke-linejoin="round"/>
<path d="M110.883 97.0273H116.09" stroke="black" stroke-linecap="round" stroke-linejoin="round"/>
<path d="M31.3498 38.6146C31.3489 38.9773 31.3131 39.339 31.2428 39.6948L31.1844 39.9575C31.1844 40.0451 31.1844 40.1327 31.1163 40.2105C31.0864 40.3226 31.0507 40.4331 31.0092 40.5414C30.9344 40.7588 30.8433 40.9702 30.7367 41.1739C30.6784 41.3004 30.6102 41.4172 30.5421 41.5437L30.3183 41.8746C30.2645 41.962 30.206 42.0464 30.1431 42.1276C30.063 42.2103 29.9882 42.298 29.9193 42.3903C29.5905 42.7586 29.218 43.0854 28.81 43.3634C28.6722 43.4588 28.5292 43.5465 28.3818 43.6262C28.2415 43.7059 28.0951 43.7742 27.9439 43.8305C27.7546 43.9184 27.5595 43.9932 27.36 44.0543C27.1887 44.1134 27.013 44.1589 26.8345 44.1906L26.4161 44.2587H26.2409C26.9669 43.7403 27.5579 43.0552 27.9643 42.2611C28.3707 41.4669 28.5806 40.5868 28.5764 39.6948C28.5777 38.9506 28.4321 38.2136 28.1479 37.5259C27.8637 36.8382 27.4466 36.2133 26.9204 35.6872C26.3943 35.161 25.7694 34.7439 25.0817 34.4597C24.394 34.1755 23.6569 34.0299 22.9128 34.0312C22.7281 34.0212 22.5429 34.0212 22.3582 34.0312L22.6404 33.8366C23.2341 33.4544 23.8943 33.187 24.5866 33.0483C24.744 33.0161 24.9033 32.9934 25.0634 32.9802C25.2773 32.9654 25.4919 32.9654 25.7057 32.9802C27.1994 32.9853 28.6305 33.5803 29.6876 34.6355C30.7447 35.6908 31.3421 37.121 31.3498 38.6146Z" fill="black" stroke="black" stroke-linecap="round" stroke-linejoin="round"/>
<path d="M118.123 96.7853L97.0064 107.402L93.1918 106.984L9.68813 97.8946L6 97.4956L10.6029 95.8802L95.7316 105.076L114.211 96.2695L118.123 96.7853Z" fill="white" stroke="black" stroke-linecap="round" stroke-linejoin="round"/>
<path d="M13.1038 93.7083V96.6471L95.3848 105.385L103.462 101.615V100.538L97.3567 102.992L13.1038 93.7083Z" fill="black"/>
</svg>
