<svg width="685" height="400" fill="none" xmlns="http://www.w3.org/2000/svg"><rect width="685" height="400" rx="16" fill="#fff"/><path d="m42.53 31.5 5.503 16.491 3.96-.006 5.453-16.508-3.146.005-4.226 13.096-4.288-13.084-3.256.005Zm16.35 2.043c0 .968.728 1.67 1.718 1.67.99-.002 1.693-.707 1.691-1.675-.001-.968-.706-1.693-1.696-1.692-.99.002-1.715.729-1.714 1.697Zm.329 14.431 2.794-.004-.016-11.022-2.794.004.016 11.022Zm9.91.206c3.146-.005 4.684-1.57 4.68-3.66-.003-2.573-2.314-2.966-4.14-3.25-1.277-.195-2.267-.37-2.268-1.184-.001-.66.658-1.123 1.736-1.124.99-.002 1.65.415 1.872 1.36l2.771-.575c-.64-1.957-2.138-3.055-4.646-3.051-2.662.004-4.596 1.48-4.593 3.526.004 2.53 2.073 3.011 3.877 3.295 1.32.24 2.508.348 2.51 1.184 0 .77-.68 1.211-1.802 1.213-1.122.001-1.937-.46-2.159-1.603l-2.859.576c.62 2.353 2.557 3.296 5.02 3.293Zm6.497-14.662c.001.968.728 1.67 1.718 1.67.99-.002 1.693-.707 1.692-1.675-.002-.968-.707-1.693-1.697-1.692-.99.002-1.715.729-1.713 1.697Zm.33 14.431 2.793-.004-.016-11.022-2.794.005.016 11.022Zm4.505-9.4.001.814 2.09-.003.008 5.302c.003 2.178 1.413 3.495 3.745 3.492a6.137 6.137 0 0 0 2.727-.642l-.62-2.287c-.549.22-1.01.353-1.495.354-.99.002-1.562-.438-1.564-1.582l-.007-4.642 3.828-.005-.004-2.442-3.828.005-.003-2.508-.77.002-4.108 4.142Zm15.512-1.893c-3.388.005-5.87 2.45-5.866 5.75.005 3.322 2.495 5.739 5.883 5.734 3.388-.005 5.87-2.43 5.865-5.751-.005-3.3-2.494-5.738-5.882-5.733Zm.004 2.574c1.782-.003 2.95 1.271 2.952 3.163.003 1.914-1.161 3.192-2.943 3.195-1.782.002-2.972-1.272-2.975-3.186-.003-1.892 1.183-3.17 2.965-3.172Zm8.252 8.677 2.794-.004-.009-5.676c-.002-1.804 1.162-2.796 2.614-2.798.352 0 .748.021 1.144.13l.326-2.728c-.418-.11-.682-.153-1.078-.152-1.386.002-2.375.597-3.034 1.5l-.156-1.298-2.618.004.017 11.022Zm12.617.202c3.146-.005 4.683-1.57 4.68-3.66-.004-2.573-2.314-2.966-4.141-3.25-1.276-.195-2.266-.37-2.267-1.184-.001-.66.658-1.123 1.736-1.124.99-.002 1.651.415 1.872 1.36l2.771-.575c-.641-1.958-2.138-3.055-4.646-3.052-2.662.005-4.596 1.481-4.593 3.527.004 2.53 2.072 3.011 3.877 3.295 1.32.24 2.508.348 2.51 1.184.001.77-.681 1.21-1.803 1.212-1.122.002-1.936-.459-2.158-1.602l-2.859.576c.619 2.353 2.557 3.296 5.021 3.292ZM128 39.621c.007 4.884 3.466 8.465 8.35 8.458 4.884-.008 8.333-3.599 8.326-8.483-.008-4.906-3.467-8.465-8.351-8.457-4.884.007-8.333 3.576-8.325 8.482Zm13.53-.02c.005 3.432-2.06 5.679-5.184 5.684-3.124.004-5.195-2.237-5.2-5.669-.005-3.432 2.059-5.679 5.183-5.683 3.124-.005 5.196 2.236 5.201 5.668Zm8.49 8.237 3.124-.005 4.119-11.028-2.926.005-2.672 7.704-2.696-7.696-3.08.004 4.131 11.016Zm13.785.2c2.662-.004 4.574-1.261 5.231-3.462l-2.597-.524c-.351.924-1.186 1.563-2.638 1.566-1.584.002-2.707-.744-2.973-2.46l8.184-.012c.087-.418.13-.858.13-1.254-.005-3.19-2.252-5.343-5.486-5.338-3.344.005-5.695 2.472-5.69 5.816.005 3.278 2.187 5.673 5.839 5.668Zm-.146-9.174c1.408-.002 2.311.766 2.555 2.152l-5.302.008c.394-1.453 1.471-2.158 2.747-2.16Zm7.935 8.942 2.794-.004-.009-5.676c-.002-1.804 1.162-2.796 2.614-2.798.352 0 .748.02 1.144.13l.326-2.728c-.418-.11-.682-.153-1.078-.153-1.386.002-2.375.598-3.034 1.5l-.156-1.297-2.618.004.017 11.022Zm11.705-.018 3.124-.004 4.12-11.028-2.926.004-2.673 7.704-2.695-7.696-3.08.005 4.13 11.015Zm8.59-14.444c.002.968.729 1.67 1.719 1.67.99-.002 1.693-.707 1.691-1.675-.001-.968-.706-1.693-1.696-1.692-.99.002-1.715.729-1.714 1.697Zm.33 14.431 2.794-.004-.017-11.022-2.794.004.017 11.022Zm11.01.204c2.662-.004 4.574-1.261 5.231-3.462l-2.597-.524c-.351.924-1.186 1.564-2.638 1.566-1.584.002-2.707-.744-2.974-2.46l8.184-.012c.088-.418.131-.858.131-1.254-.005-3.19-2.252-5.343-5.486-5.338-3.344.005-5.695 2.472-5.69 5.816.005 3.279 2.187 5.673 5.839 5.668Zm-.146-9.174c1.408-.002 2.311.767 2.555 2.152l-5.302.008c.394-1.453 1.471-2.158 2.747-2.16Zm6.62-2.078 2.283 11.019 2.926-.005 1.93-3.808 1.92 3.803 2.926-.005 2.249-11.025-2.794.004-1.462 7.768-2.538-5.034h-.528l-2.544 5.043-1.574-7.764-2.794.004Z" fill="#171A22"/><path d="m546.791 37.81 1.531-.002.011 7.218c.001.653-.128 1.212-.386 1.676-.254.465-.613.82-1.077 1.066-.464.243-1.007.364-1.63.365a3.686 3.686 0 0 1-1.547-.31 2.547 2.547 0 0 1-1.08-.909c-.262-.4-.394-.887-.395-1.46l1.527-.003c0 .282.065.525.194.73.133.206.314.366.543.482a1.8 1.8 0 0 0 .796.168c.325 0 .6-.069.825-.205.228-.14.402-.344.521-.613.119-.268.178-.596.177-.984l-.01-7.219Zm8.495 7.002-.006-4.47 1.491-.001.012 7.636-1.462.002-.002-1.322h-.08a2.384 2.384 0 0 1-.843 1.02c-.384.27-.863.404-1.436.405a2.58 2.58 0 0 1-1.303-.321 2.27 2.27 0 0 1-.887-.968c-.213-.428-.319-.956-.32-1.586l-.008-4.857 1.487-.002.007 4.678c.001.52.145.935.434 1.242.289.308.664.462 1.124.461.279 0 .556-.07.83-.21.279-.14.509-.35.691-.632.185-.282.275-.64.271-1.075Zm4.974-1.374.006 4.534-1.486.002-.011-7.636 1.426-.002.002 1.242h.095c.175-.404.449-.73.824-.975.377-.246.852-.37 1.426-.37.52-.001.976.108 1.368.326.391.215.695.536.911.963.216.427.324.956.325 1.585l.007 4.858-1.486.002-.007-4.678c-.001-.554-.146-.986-.434-1.297-.289-.315-.686-.472-1.189-.471-.345 0-.652.076-.92.225-.265.15-.475.369-.63.657-.152.286-.228.63-.227 1.035Zm10.179 4.673c-.753 0-1.401-.159-1.945-.48a3.27 3.27 0 0 1-1.255-1.365c-.293-.59-.439-1.28-.441-2.072-.001-.783.144-1.472.435-2.07a3.393 3.393 0 0 1 1.231-1.398c.53-.336 1.149-.504 1.858-.505.431 0 .849.07 1.254.212.404.142.767.365 1.089.67.322.304.576.7.763 1.186.186.484.28 1.072.281 1.765l.001.527-6.071.01-.001-1.115 4.613-.006c0-.392-.08-.738-.24-1.04a1.811 1.811 0 0 0-.672-.719 1.876 1.876 0 0 0-1.005-.262 1.94 1.94 0 0 0-1.093.31 2.072 2.072 0 0 0-.715.796 2.306 2.306 0 0 0-.247 1.06l.001.87c.001.51.091.944.271 1.302.183.358.437.63.762.82.325.184.704.276 1.139.276.281 0 .538-.04.77-.12a1.594 1.594 0 0 0 .988-.97l1.407.25a2.539 2.539 0 0 1-.605 1.09 2.94 2.94 0 0 1-1.087.722c-.434.17-.93.255-1.486.256Zm12.458-10.355.015 10.182-1.541.002-.013-8.64h-.06l-2.433 1.594-.003-1.471 2.538-1.665 1.497-.002Zm12.486 4.431.002 1.288-7 .01-.002-1.287 7-.01Zm13.036-4.469.015 10.182-1.412.002-5.187-7.46h-.094l.011 7.468-1.536.002-.016-10.181 1.422-.003 5.192 7.47h.094l-.011-7.477 1.522-.003Zm5.353 10.328c-.716.001-1.341-.162-1.875-.49a3.32 3.32 0 0 1-1.245-1.374c-.296-.59-.444-1.28-.445-2.068-.002-.792.145-1.485.439-2.079a3.313 3.313 0 0 1 1.241-1.384c.533-.329 1.157-.494 1.873-.495.716 0 1.341.162 1.875.49a3.3 3.3 0 0 1 1.245 1.38c.296.593.445 1.285.446 2.077.001.79-.145 1.479-.439 2.07a3.326 3.326 0 0 1-1.241 1.378c-.533.33-1.158.494-1.874.495Zm.003-1.248c.464 0 .849-.124 1.153-.37.305-.245.53-.572.675-.98.148-.408.222-.857.222-1.347a3.88 3.88 0 0 0-.226-1.342 2.195 2.195 0 0 0-.678-.989c-.305-.248-.69-.372-1.154-.37-.467 0-.855.125-1.163.374a2.22 2.22 0 0 0-.679.99 3.959 3.959 0 0 0-.217 1.343c.001.49.074.94.221 1.347.15.407.377.733.682.978.309.245.697.367 1.164.366Zm11.477-6.56-2.757 7.641-1.591.003-2.786-7.633 1.596-.002 1.943 5.873h.079l1.92-5.879 1.596-.002Zm8.942-2.558.015 10.182-1.541.002-.013-8.64h-.06l-2.434 1.594-.002-1.472 2.538-1.664 1.497-.002Zm6.314 10.341c-.785-.002-1.457-.208-2.014-.618-.558-.41-.984-1.008-1.281-1.793-.296-.785-.445-1.731-.446-2.838-.002-1.104.144-2.047.438-2.83.297-.782.724-1.38 1.28-1.791.559-.412 1.229-.619 2.008-.62.778 0 1.447.205 2.004.619.557.41.984 1.006 1.28 1.788.3.778.45 1.72.452 2.823.002 1.11-.144 2.058-.438 2.844-.294.783-.719 1.382-1.275 1.797-.556.412-1.226.618-2.008.62Zm-.002-1.327c.69-.001 1.228-.338 1.614-1.012.391-.673.585-1.646.583-2.919-.002-.845-.092-1.56-.272-2.142-.176-.587-.431-1.03-.763-1.332a1.662 1.662 0 0 0-1.174-.455c-.686 0-1.224.34-1.614 1.016-.39.677-.586 1.65-.587 2.92.001.848.09 1.566.267 2.152.179.583.434 1.025.762 1.326.329.298.723.447 1.184.446Z" fill="#898D9A"/><path fill="#E9EBEF" d="M111.5 160.357v12h-1v-12z"/><path d="M46.692 354.153c2.304-.003 4.19-1.366 4.186-3.622-.002-1.296-.627-2.351-1.876-2.845 1.135-.706 1.566-1.571 1.564-2.611-.003-1.92-1.493-3.246-3.749-3.242-2.176.003-3.742 1.205-4.123 3.062l2.08.477c.207-1.008.974-1.586 1.95-1.587.96-.001 1.665.605 1.666 1.533.002 1.008-.797 1.522-1.677 1.523l-.912.001.003 1.984 1.152-.001c.944-.002 1.713.589 1.714 1.613.002 1.104-.893 1.697-1.981 1.699-1.232.002-1.986-.733-2.131-1.997l-2.144.579c.372 2.416 2.246 3.437 4.278 3.434Zm10.471-.016c2.704-.004 4.477-2.278 4.47-6.198-.005-3.872-1.784-6.126-4.488-6.122-2.72.004-4.509 2.263-4.503 6.135.006 3.92 1.801 6.189 4.521 6.185Zm-.015-10.352c1.616-.002 2.29 1.677 2.294 4.157.004 2.544-.666 4.225-2.282 4.227-1.664.003-2.306-1.676-2.31-4.22-.004-2.48.65-4.161 2.298-4.164Zm7.312 12.774 1.641-4.867-2.256.003-1.065 4.866 1.68-.002Zm7.415-2.443c2.352-.004 4.302-1.351 4.298-3.655-.002-1.344-.723-2.383-1.844-2.941.815-.593 1.326-1.442 1.324-2.466-.003-2.048-1.7-3.262-3.797-3.258-2.08.003-3.774 1.221-3.77 3.269 0 1.04.498 1.903 1.347 2.462-1.151.562-1.854 1.603-1.852 2.947.004 2.304 1.942 3.645 4.294 3.642Zm1.698-8.899c.002.944-.733 1.569-1.71 1.571-.943.001-1.68-.622-1.681-1.566-.002-.928.733-1.521 1.677-1.522.976-.002 1.713.589 1.715 1.517Zm.392 5.103c.002 1.12-.925 1.778-2.077 1.779-1.168.002-2.097-.652-2.099-1.772-.002-1.136.941-1.794 2.093-1.796 1.136-.001 2.081.653 2.083 1.789Zm4.254 3.626 2.288-.003 4.8-10.168-.002-1.84-7.888.012.003 1.936 5.568-.008-4.769 10.071Zm12.333-12.178c-2.4.003-4.254 1.574-4.25 4.038.003 2.304 1.67 3.806 3.91 3.802.207 0 .415-.016.607-.049l-2.905 4.373 2.416-.004 3.48-5.317c.575-.881.957-1.858.956-2.914-.004-2.416-1.846-3.933-4.214-3.929Zm.003 1.968c1.184-.002 2.033.845 2.035 2.077 0 .624-.239 1.152-.654 1.521a2.221 2.221 0 0 1-1.391.482c-1.184.001-2.05-.797-2.051-1.997-.002-1.232.845-2.082 2.06-2.083Zm9.449 2.162.017 11.536 2.032-.003-.007-4.368c.625.639 1.458 1.005 2.434 1.004 2.24-.003 3.933-1.766 3.93-4.182-.004-2.4-1.703-4.173-3.943-4.17a3.318 3.318 0 0 0-2.51 1.108l-.113-.928-1.84.003Zm4.162 1.689c1.28-.002 2.129.925 2.132 2.301.002 1.392-.845 2.321-2.125 2.323-1.28.002-2.129-.924-2.131-2.316-.003-1.376.844-2.306 2.124-2.308Zm9.607 6.466c1.936-.003 3.326-.917 3.804-2.518l-1.889-.381c-.255.673-.862 1.138-1.918 1.139-1.152.002-1.969-.541-2.163-1.789l5.952-.009a4.46 4.46 0 0 0 .095-.912c-.003-2.32-1.638-3.885-3.99-3.882-2.432.004-4.141 1.798-4.137 4.23.003 2.384 1.59 4.126 4.246 4.122Zm-.106-6.672c1.024-.001 1.681.558 1.858 1.565l-3.856.006c.287-1.056 1.07-1.569 1.998-1.571Zm9.422-1.694c-2.464.004-4.269 1.783-4.266 4.183.004 2.416 1.815 4.173 4.279 4.169 2.464-.003 4.269-1.766 4.265-4.182-.003-2.4-1.814-4.173-4.278-4.17Zm.003 1.872c1.296-.002 2.145.925 2.147 2.301.002 1.392-.844 2.321-2.14 2.323-1.296.002-2.162-.925-2.164-2.317-.002-1.376.861-2.305 2.157-2.307Zm5.99-1.705.017 11.536 2.032-.003-.007-4.368c.625.639 1.458 1.006 2.434 1.005 2.24-.004 3.933-1.766 3.93-4.182-.004-2.4-1.703-4.174-3.943-4.17a3.317 3.317 0 0 0-2.51 1.107l-.113-.927-1.84.002Zm4.162 1.69c1.28-.002 2.13.925 2.132 2.301.002 1.392-.845 2.321-2.125 2.323-1.28.002-2.129-.925-2.131-2.317-.002-1.376.844-2.305 2.124-2.307Zm5.975 6.311 2.032-.003-.018-12-2.032.003.018 12Zm8.007.148c1.936-.003 3.326-.917 3.804-2.517l-1.888-.382c-.255.673-.863 1.138-1.919 1.139-1.152.002-1.969-.541-2.162-1.789l5.952-.008c.063-.305.095-.625.094-.913-.003-2.32-1.638-3.885-3.99-3.882-2.432.004-4.141 1.799-4.137 4.231.003 2.384 1.59 4.125 4.246 4.121Zm-.106-6.672c1.024-.001 1.681.558 1.858 1.566l-3.856.005c.287-1.056 1.07-1.569 1.998-1.571Zm11.174 6.496 2.272-.004 2.996-8.02-2.128.003-1.943 5.603-1.961-5.597-2.24.003 3.004 8.012Zm6.247-10.506c.002.704.53 1.216 1.25 1.215.72-.002 1.232-.514 1.23-1.218-.001-.704-.513-1.232-1.233-1.23-.72.001-1.248.529-1.247 1.233Zm.24 10.496 2.032-.003-.012-8.016-2.032.003.012 8.016Zm7.207.149c2.288-.003 3.407-1.141 3.404-2.661-.002-1.872-1.683-2.157-3.011-2.363-.928-.143-1.649-.27-1.649-.862-.001-.48.478-.817 1.262-.818.72-.001 1.201.303 1.362.99l2.015-.419c-.466-1.423-1.555-2.221-3.379-2.219-1.936.003-3.342 1.077-3.34 2.565.002 1.84 1.507 2.19 2.819 2.396.961.175 1.825.253 1.826.861 0 .56-.495.881-1.311.882-.816.002-1.409-.334-1.57-1.165l-2.079.419c.45 1.711 1.859 2.397 3.651 2.394Zm4.725-10.663c.001.704.53 1.215 1.25 1.214.72-.001 1.231-.513 1.23-1.217-.001-.704-.513-1.232-1.233-1.231-.72.001-1.248.53-1.247 1.234Zm.24 10.496 2.032-.003-.012-8.016-2.032.003.012 8.016Zm3.277-6.837.001.592 1.52-.002.005 3.856c.003 1.584 1.028 2.542 2.724 2.54a4.466 4.466 0 0 0 1.984-.467l-.451-1.664c-.4.161-.736.258-1.088.258-.72.001-1.136-.318-1.137-1.15l-.005-3.376 2.784-.004-.003-1.776-2.784.004-.003-1.824-.56.001-2.987 3.012Zm11.261 6.975c1.936-.003 3.327-.917 3.805-2.517l-1.889-.382c-.255.673-.862 1.138-1.918 1.139-1.152.002-1.969-.541-2.163-1.788l5.952-.009a4.54 4.54 0 0 0 .095-.913c-.004-2.32-1.638-3.885-3.99-3.882-2.432.004-4.141 1.799-4.138 4.231.004 2.384 1.59 4.125 4.246 4.121Zm-.105-6.672c1.024-.001 1.68.558 1.858 1.566l-3.856.005c.286-1.056 1.07-1.569 1.998-1.571Zm13.562 6.492-.018-12-2.032.003.007 4.832a3.327 3.327 0 0 0-2.433-1.02c-2.224.003-3.933 1.782-3.93 4.182.004 2.416 1.718 4.173 3.942 4.17a3.349 3.349 0 0 0 2.511-1.108l.129.944 1.824-.003Zm-4.169-6.314c1.296-.001 2.129.925 2.131 2.301.002 1.392-.828 2.322-2.124 2.323-1.28.002-2.114-.924-2.116-2.316-.002-1.376.829-2.306 2.109-2.308Zm8.92-.525v.592l1.52-.002.006 3.856c.003 1.584 1.028 2.542 2.724 2.54a4.458 4.458 0 0 0 1.983-.467l-.45-1.663c-.4.16-.736.257-1.088.257-.72.001-1.136-.318-1.138-1.15l-.005-3.376 2.784-.004-.002-1.776-2.784.004-.003-1.824-.56.001-2.987 3.012Zm7.754 6.821 2.032-.003-.007-4.512c-.002-1.344.926-1.794 1.774-1.795.944-.001 1.617.606 1.618 1.79l.007 4.512 2.032-.004-.007-4.832c-.003-2.208-1.445-3.357-3.157-3.355a3.23 3.23 0 0 0-2.271.916l-.007-4.72-2.032.003.018 12Zm9.37-10.51c.001.704.53 1.215 1.25 1.214.72-.001 1.231-.514 1.23-1.218-.001-.704-.514-1.231-1.234-1.23-.72.001-1.247.53-1.246 1.234Zm.239 10.495 2.032-.003-.012-8.016-2.032.003.012 8.016Zm7.208.15c2.288-.004 3.406-1.142 3.404-2.662-.003-1.872-1.684-2.157-3.012-2.363-.928-.143-1.648-.27-1.649-.862-.001-.48.479-.816 1.263-.817.72-.002 1.2.302 1.361.989l2.015-.419c-.466-1.423-1.555-2.221-3.379-2.218-1.936.002-3.342 1.077-3.34 2.565.003 1.84 1.507 2.189 2.82 2.395.96.175 1.824.254 1.825.862.001.56-.495.88-1.311.882-.816.001-1.408-.334-1.57-1.166l-2.079.419c.451 1.711 1.86 2.397 3.652 2.395Zm11.312-.017c2.288-.004 3.406-1.141 3.404-2.661-.003-1.872-1.683-2.158-3.011-2.364-.929-.143-1.649-.269-1.65-.861 0-.48.479-.817 1.263-.818.72-.001 1.201.302 1.362.99l2.015-.419c-.466-1.424-1.555-2.222-3.379-2.219-1.936.003-3.343 1.077-3.341 2.565.003 1.84 1.508 2.189 2.82 2.395.96.175 1.824.254 1.825.862.001.56-.494.88-1.31.882-.816.001-1.409-.334-1.57-1.166l-2.079.419c.45 1.711 1.859 2.397 3.651 2.395Zm4.725-10.663c.001.704.53 1.215 1.25 1.214.72-.001 1.231-.514 1.23-1.218-.001-.704-.514-1.231-1.234-1.23-.72.001-1.247.53-1.246 1.234Zm.24 10.495 2.032-.003-.012-8.016-2.032.003.012 8.016Zm3.277-6.837v.592l1.52-.002.006 3.856c.003 1.584 1.028 2.543 2.724 2.54a4.458 4.458 0 0 0 1.983-.467l-.45-1.663c-.4.16-.736.257-1.088.257-.72.001-1.136-.318-1.138-1.15l-.005-3.376 2.784-.004-.002-1.776-2.784.004-.003-1.824-.56.001-2.987 3.012Zm11.261 6.976c1.936-.003 3.327-.917 3.804-2.518l-1.888-.381c-.255.672-.862 1.137-1.918 1.139-1.152.001-1.969-.541-2.163-1.789l5.952-.009c.063-.304.095-.624.095-.912-.004-2.32-1.638-3.886-3.99-3.882-2.432.003-4.142 1.798-4.138 4.23.004 2.384 1.59 4.126 4.246 4.122Zm-.106-6.672c1.024-.002 1.681.557 1.859 1.565l-3.856.006c.286-1.057 1.069-1.57 1.997-1.571Z" fill="#171A22"/><path d="M78.847 257.913 57 298.306V314h578V123l-22.322 33.93-22.797 12.118-21.847-3.231h-21.847l-22.798 1.615-21.847 37.97-22.322-4.847-22.797 36.353-21.372-5.655-21.847-9.694-22.797-5.655-22.322-15.349-21.848 4.039-22.322 8.078-21.847 1.616-21.847-13.733-22.797 7.27-22.322 29.083H212.78l-22.322 25.044-21.847-7.271-21.848-4.847-21.847 8.079-22.797-13.734-23.272 13.734Z" fill="#CBEDFF"/><path fill="#D1D4DB" d="M42 94h604v1H42zM42 204h604v1H42z"/><path fill="#D1D4DB" d="M57.177 314V95h1v219zM170 314V95h1v219zM283 314V95h1v219zM396 314V95h1v219zM509 314V95h1v219zM622 314V95h1v219zM42 314h604v1H42z"/><path d="m57 298 21.847-40.323 23.272-13.709 22.797 13.709 21.847-8.064 21.848 4.839 21.847 7.258 22.322-25h22.322l22.322-29.033 22.797-7.258 21.847 13.71 21.847-1.613 22.322-8.064 21.848-4.033 22.322 15.323 22.797 5.645 21.847 9.678 21.372 5.645 22.797-36.291 22.322 4.839 21.847-37.903 22.798-1.613h21.847l21.847 3.226 22.797-12.097L635 123" stroke="#00A9FF" stroke-width="3"/><circle cx="57" cy="295" r="4.5" fill="#00A9FF" stroke="#fff"/><circle cx="79" cy="258" r="4.5" fill="#00A9FF" stroke="#fff"/><circle cx="102" cy="244" r="4.5" fill="#00A9FF" stroke="#fff"/><circle cx="125" cy="258" r="4.5" fill="#00A9FF" stroke="#fff"/><circle cx="147" cy="249" r="4.5" fill="#00A9FF" stroke="#fff"/><circle cx="190" cy="260" r="4.5" fill="#00A9FF" stroke="#fff"/><circle cx="213" cy="236" r="4.5" fill="#00A9FF" stroke="#fff"/><circle cx="235" cy="236" r="4.5" fill="#00A9FF" stroke="#fff"/><circle cx="258" cy="208" r="4.5" fill="#00A9FF" stroke="#fff"/><circle cx="280" cy="200" r="4.5" fill="#00A9FF" stroke="#fff"/><circle cx="302" cy="213" r="4.5" fill="#00A9FF" stroke="#fff"/><circle cx="324" cy="212" r="4.5" fill="#00A9FF" stroke="#fff"/><circle cx="344" cy="205" r="4.5" fill="#00A9FF" stroke="#fff"/><circle cx="368" cy="200" r="4.5" fill="#00A9FF" stroke="#fff"/><circle cx="390" cy="215" r="4.5" fill="#00A9FF" stroke="#fff"/><circle cx="414" cy="221" r="4.5" fill="#00A9FF" stroke="#fff"/><circle cx="433" cy="230" r="4.5" fill="#00A9FF" stroke="#fff"/><circle cx="455" cy="236" r="4.5" fill="#00A9FF" stroke="#fff"/><circle cx="479" cy="200" r="4.5" fill="#00A9FF" stroke="#fff"/><circle cx="501" cy="204" r="4.5" fill="#00A9FF" stroke="#fff"/><circle cx="523" cy="167" r="4.5" fill="#00A9FF" stroke="#fff"/><circle cx="546" cy="165" r="4.5" fill="#00A9FF" stroke="#fff"/><circle cx="566" cy="165" r="4.5" fill="#00A9FF" stroke="#fff"/><circle cx="589" cy="169" r="4.5" fill="#00A9FF" stroke="#fff"/><circle cx="613" cy="157" r="4.5" fill="#00A9FF" stroke="#fff"/><circle cx="635" cy="123" r="4.5" fill="#00A9FF" stroke="#fff"/><path d="M45.852 114.119c-.562 0-1.064-.096-1.504-.289a2.583 2.583 0 0 1-1.044-.806 2.162 2.162 0 0 1-.418-1.206h1.074c.023.281.12.524.29.729.17.202.394.358.669.469.276.11.581.166.916.166.375 0 .708-.066.997-.196a1.64 1.64 0 0 0 .682-.546c.165-.233.247-.502.247-.809 0-.321-.08-.604-.238-.848a1.58 1.58 0 0 0-.7-.58c-.306-.139-.681-.209-1.124-.209H45v-.937h.699c.346 0 .65-.063.912-.188a1.415 1.415 0 0 0 .844-1.329c0-.296-.066-.553-.197-.772a1.344 1.344 0 0 0-.553-.511 1.795 1.795 0 0 0-.836-.183c-.3 0-.585.055-.852.166-.264.108-.48.266-.648.473a1.234 1.234 0 0 0-.272.742h-1.023c.017-.458.155-.858.413-1.202a2.598 2.598 0 0 1 1.014-.81 3.28 3.28 0 0 1 1.385-.29c.54 0 1.003.11 1.39.329.386.215.683.501.89.856.208.355.311.739.311 1.151 0 .491-.129.91-.387 1.257a1.971 1.971 0 0 1-1.045.72v.068c.552.091.982.325 1.292.703.31.375.464.84.464 1.394 0 .474-.13.9-.388 1.278a2.627 2.627 0 0 1-1.048.886c-.443.216-.947.324-1.513.324Zm7.539 0c-.642 0-1.19-.174-1.641-.524-.452-.352-.797-.862-1.035-1.53-.24-.67-.359-1.48-.359-2.429 0-.943.12-1.748.358-2.416.242-.67.589-1.182 1.04-1.534.455-.355 1-.533 1.637-.533.636 0 1.18.178 1.632.533.454.352.8.864 1.04 1.534.241.668.362 1.473.362 2.416 0 .949-.12 1.759-.358 2.429-.239.668-.584 1.178-1.036 1.53-.451.35-.998.524-1.64.524Zm0-.937c.636 0 1.13-.307 1.483-.921.352-.613.528-1.488.528-2.625 0-.755-.081-1.399-.243-1.93-.159-.531-.39-.936-.69-1.215a1.525 1.525 0 0 0-1.078-.417c-.631 0-1.124.311-1.48.933-.354.619-.532 1.496-.532 2.629 0 .756.08 1.398.239 1.926.159.529.388.931.686 1.206.301.276.663.414 1.087.414Zm5.865-.375-.068.46a9.255 9.255 0 0 1-.221 1.04c-.097.369-.198.717-.303 1.044-.105.327-.192.587-.26.78h-.767l.145-.72c.06-.299.12-.633.179-1.002.062-.366.114-.741.153-1.125l.052-.477h1.09Zm4.389 1.312c-.643 0-1.19-.174-1.641-.524-.452-.352-.797-.862-1.036-1.53-.238-.67-.358-1.48-.358-2.429 0-.943.12-1.748.358-2.416.242-.67.588-1.182 1.04-1.534.455-.355 1-.533 1.636-.533.637 0 1.18.178 1.633.533.454.352.8.864 1.04 1.534.24.668.362 1.473.362 2.416 0 .949-.12 1.759-.358 2.429-.239.668-.584 1.178-1.036 1.53-.451.35-.998.524-1.64.524Zm0-.937c.636 0 1.13-.307 1.482-.921.353-.613.529-1.488.529-2.625 0-.755-.081-1.399-.243-1.93-.16-.531-.39-.936-.69-1.215a1.525 1.525 0 0 0-1.078-.417c-.631 0-1.124.311-1.48.933-.354.619-.532 1.496-.532 2.629 0 .756.08 1.398.239 1.926.159.529.388.931.686 1.206.301.276.663.414 1.087.414Zm7.5.937c-.642 0-1.19-.174-1.641-.524-.452-.352-.797-.862-1.036-1.53-.238-.67-.358-1.48-.358-2.429 0-.943.12-1.748.358-2.416.242-.67.588-1.182 1.04-1.534.455-.355 1-.533 1.636-.533.637 0 1.18.178 1.633.533.454.352.8.864 1.04 1.534.24.668.362 1.473.362 2.416 0 .949-.12 1.759-.358 2.429-.239.668-.584 1.178-1.036 1.53-.451.35-.998.524-1.64.524Zm0-.937c.636 0 1.13-.307 1.483-.921.352-.613.528-1.488.528-2.625 0-.755-.081-1.399-.243-1.93-.16-.531-.39-.936-.69-1.215a1.525 1.525 0 0 0-1.079-.417c-.63 0-1.123.311-1.478.933-.355.619-.533 1.496-.533 2.629 0 .756.08 1.398.239 1.926.159.529.388.931.686 1.206.301.276.663.414 1.086.414Zm7.5.937c-.642 0-1.19-.174-1.641-.524-.452-.352-.797-.862-1.036-1.53-.238-.67-.358-1.48-.358-2.429 0-.943.12-1.748.358-2.416.242-.67.588-1.182 1.04-1.534.455-.355 1-.533 1.636-.533.637 0 1.18.178 1.633.533.454.352.8.864 1.04 1.534.24.668.362 1.473.362 2.416 0 .949-.12 1.759-.358 2.429-.239.668-.584 1.178-1.036 1.53-.451.35-.998.524-1.64.524Zm0-.937c.636 0 1.13-.307 1.483-.921.352-.613.528-1.488.528-2.625 0-.755-.081-1.399-.243-1.93-.16-.531-.39-.936-.69-1.215a1.525 1.525 0 0 0-1.079-.417c-.63 0-1.123.311-1.478.933-.355.619-.533 1.496-.533 2.629 0 .756.08 1.398.239 1.926.159.529.388.931.686 1.206.301.276.663.414 1.086.414ZM45.972 216.273V225h-1.057v-7.619h-.051l-2.131 1.414v-1.073l2.182-1.449h1.057Zm5.237 8.846c-.5 0-.95-.099-1.351-.298a2.515 2.515 0 0 1-.963-.818 2.231 2.231 0 0 1-.396-1.185h1.022c.04.395.22.722.537.98.321.256.705.384 1.15.384.359 0 .677-.084.955-.252.282-.167.502-.397.66-.69.163-.295.244-.629.244-1.001 0-.381-.084-.721-.252-1.019a1.842 1.842 0 0 0-.681-.711 1.921 1.921 0 0 0-.993-.265 2.73 2.73 0 0 0-.823.124 2.269 2.269 0 0 0-.694.32l-.99-.12.53-4.295h4.533v.937H50.05l-.307 2.574h.051c.179-.142.403-.26.673-.354.27-.093.552-.14.844-.14a2.684 2.684 0 0 1 2.416 1.423c.242.44.363.943.363 1.509 0 .556-.126 1.054-.376 1.491a2.74 2.74 0 0 1-1.022 1.031 2.92 2.92 0 0 1-1.483.375Zm5.762-1.312-.068.46a9.277 9.277 0 0 1-.221 1.04c-.097.369-.198.717-.303 1.044a30.55 30.55 0 0 1-.26.78h-.767l.145-.72c.06-.299.12-.633.179-1.002.062-.366.113-.741.153-1.125l.051-.477h1.091Zm4.388 1.312c-.642 0-1.189-.174-1.64-.524-.452-.352-.797-.862-1.036-1.53-.238-.67-.358-1.48-.358-2.429 0-.943.12-1.748.358-2.416.242-.67.588-1.182 1.04-1.534.455-.355 1-.533 1.636-.533.637 0 1.18.178 1.633.533.454.352.8.864 1.04 1.534.24.668.362 1.473.362 2.416 0 .949-.12 1.759-.359 2.429-.238.668-.583 1.178-1.035 1.53-.452.35-.999.524-1.64.524Zm0-.937c.637 0 1.131-.307 1.483-.921.353-.613.529-1.488.529-2.625 0-.755-.081-1.399-.243-1.93-.16-.531-.39-.936-.69-1.215a1.525 1.525 0 0 0-1.079-.417c-.63 0-1.123.311-1.478.933-.355.619-.533 1.496-.533 2.629 0 .756.08 1.398.239 1.926.159.529.387.931.686 1.206.3.276.663.414 1.086.414Zm7.5.937c-.642 0-1.188-.174-1.64-.524-.452-.352-.797-.862-1.036-1.53-.238-.67-.358-1.48-.358-2.429 0-.943.12-1.748.358-2.416.242-.67.588-1.182 1.04-1.534.455-.355 1-.533 1.636-.533.637 0 1.18.178 1.633.533.454.352.8.864 1.04 1.534.24.668.362 1.473.362 2.416 0 .949-.12 1.759-.359 2.429-.238.668-.583 1.178-1.035 1.53-.452.35-.999.524-1.64.524Zm0-.937c.637 0 1.131-.307 1.483-.921.353-.613.529-1.488.529-2.625 0-.755-.081-1.399-.243-1.93-.16-.531-.39-.936-.69-1.215a1.525 1.525 0 0 0-1.079-.417c-.63 0-1.123.311-1.478.933-.355.619-.533 1.496-.533 2.629 0 .756.08 1.398.239 1.926.159.529.387.931.686 1.206.3.276.663.414 1.086.414Zm7.5.937c-.642 0-1.188-.174-1.64-.524-.452-.352-.797-.862-1.036-1.53-.238-.67-.358-1.48-.358-2.429 0-.943.12-1.748.358-2.416.242-.67.588-1.182 1.04-1.534.455-.355 1-.533 1.636-.533.637 0 1.18.178 1.633.533.454.352.8.864 1.04 1.534.24.668.362 1.473.362 2.416 0 .949-.12 1.759-.359 2.429-.238.668-.583 1.178-1.035 1.53-.452.35-.999.524-1.64.524Zm0-.937c.637 0 1.131-.307 1.483-.921.353-.613.529-1.488.529-2.625 0-.755-.081-1.399-.243-1.93-.16-.531-.39-.936-.69-1.215a1.525 1.525 0 0 0-1.079-.417c-.63 0-1.123.311-1.478.933-.355.619-.533 1.496-.533 2.629 0 .756.08 1.398.239 1.926.159.529.387.931.686 1.206.3.276.663.414 1.086.414Z" fill="#575C66"/><path d="M67.398 299.273h1.056v6.238c0 .557-.102 1.03-.306 1.419-.205.39-.493.685-.865.887-.373.201-.811.302-1.317.302-.477 0-.902-.086-1.274-.26a2.099 2.099 0 0 1-.878-.75c-.213-.323-.32-.708-.32-1.154h1.04c0 .247.061.463.183.647.125.182.296.324.512.426.216.103.461.154.737.154.304 0 .562-.064.776-.192.212-.128.374-.315.485-.562.114-.25.17-.556.17-.917v-6.238Zm7.163 6.051v-3.869h1.006V308H74.56v-1.108h-.068a2.15 2.15 0 0 1-.716.848c-.324.23-.733.345-1.227.345-.41 0-.773-.089-1.091-.268a1.883 1.883 0 0 1-.75-.818c-.182-.367-.273-.829-.273-1.385v-4.159h1.006v4.09c0 .478.133.858.4 1.143.27.284.614.426 1.032.426.25 0 .504-.064.762-.192.262-.128.48-.324.657-.588.179-.264.268-.601.268-1.01Zm3.853-1.262V308H77.41v-6.545h.971v1.022h.086c.153-.332.386-.599.698-.801.313-.204.716-.307 1.21-.307.444 0 .832.091 1.164.273.332.179.59.452.776.818.184.364.277.824.277 1.381V308h-1.006v-4.091c0-.514-.134-.915-.4-1.202-.268-.289-.634-.434-1.1-.434-.321 0-.608.069-.86.209-.25.139-.448.342-.593.609-.145.267-.218.591-.218.971ZM180.398 299.273h1.057v6.238c0 .557-.103 1.03-.307 1.419-.205.39-.493.685-.865.887-.372.201-.811.302-1.317.302-.477 0-.902-.086-1.274-.26a2.1 2.1 0 0 1-.878-.75c-.213-.323-.32-.708-.32-1.154h1.04c0 .247.061.463.183.647.125.182.296.324.512.426.216.103.461.154.737.154.304 0 .562-.064.775-.192a1.21 1.21 0 0 0 .486-.562c.114-.25.171-.556.171-.917v-6.238Zm7.163 6.051v-3.869h1.006V308h-1.006v-1.108h-.068a2.154 2.154 0 0 1-.716.848c-.324.23-.733.345-1.227.345-.409 0-.773-.089-1.091-.268a1.885 1.885 0 0 1-.75-.818c-.182-.367-.273-.829-.273-1.385v-4.159h1.006v4.09c0 .478.133.858.4 1.143.27.284.614.426 1.032.426.25 0 .504-.064.762-.192.262-.128.48-.324.657-.588.179-.264.268-.601.268-1.01Zm3.853-6.051V308h-1.005v-8.727h1.005ZM290.415 308h-1.108l3.204-8.727h1.091l3.205 8.727h-1.108l-2.608-7.347h-.068L290.415 308Zm.409-3.409h4.466v.937h-4.466v-.937Zm11.331.733v-3.869h1.006V308h-1.006v-1.108h-.068a2.154 2.154 0 0 1-.716.848c-.324.23-.733.345-1.228.345-.409 0-.772-.089-1.09-.268a1.873 1.873 0 0 1-.75-.818c-.182-.367-.273-.829-.273-1.385v-4.159h1.006v4.09c0 .478.133.858.4 1.143.27.284.614.426 1.031.426.25 0 .505-.064.763-.192.261-.128.48-.324.656-.588.179-.264.269-.601.269-1.01Zm5.49 5.267c-.486 0-.904-.063-1.253-.188a2.664 2.664 0 0 1-.874-.485 2.668 2.668 0 0 1-.55-.64l.802-.562c.09.119.205.256.345.409.139.156.329.291.571.405.244.116.564.175.959.175.528 0 .964-.128 1.308-.384.344-.256.515-.656.515-1.202v-1.329h-.085a5.56 5.56 0 0 1-.315.443 1.792 1.792 0 0 1-.58.464c-.25.134-.588.201-1.014.201a2.73 2.73 0 0 1-1.423-.375 2.628 2.628 0 0 1-.993-1.091c-.242-.477-.362-1.057-.362-1.739 0-.67.118-1.254.353-1.751.236-.5.564-.887.985-1.159.42-.276.906-.414 1.457-.414.426 0 .764.071 1.014.213.253.14.446.299.58.478.136.176.241.321.315.434h.102v-1.039h.972v6.733c0 .562-.128 1.019-.383 1.372a2.18 2.18 0 0 1-1.023.779 3.851 3.851 0 0 1-1.423.252Zm-.035-3.597c.404 0 .745-.092 1.023-.277.279-.184.49-.45.635-.797.145-.346.217-.761.217-1.244 0-.471-.071-.888-.213-1.248a1.87 1.87 0 0 0-.63-.848c-.279-.205-.622-.307-1.032-.307-.426 0-.781.108-1.065.324a1.966 1.966 0 0 0-.635.869 3.366 3.366 0 0 0-.209 1.21c0 .455.071.857.213 1.206.145.347.358.619.64.818.284.196.636.294 1.056.294ZM407.83 301.455a1.341 1.341 0 0 0-.623-1.006c-.363-.239-.809-.358-1.338-.358-.386 0-.724.062-1.014.187a1.617 1.617 0 0 0-.673.516 1.237 1.237 0 0 0-.239.746c0 .233.056.433.166.601.114.164.259.302.435.413.176.108.361.197.554.268.193.069.371.124.533.167l.886.238c.227.06.48.142.759.247.281.106.549.249.805.431.258.179.472.409.639.69.168.281.252.627.252 1.036a2.3 2.3 0 0 1-.371 1.278c-.244.381-.602.683-1.074.908-.469.224-1.038.336-1.709.336-.625 0-1.166-.1-1.623-.302a2.583 2.583 0 0 1-1.074-.844 2.404 2.404 0 0 1-.439-1.257h1.091c.028.33.139.602.332.818.196.213.443.372.742.477.301.103.625.154.971.154.404 0 .766-.065 1.087-.196.321-.134.575-.318.763-.554.187-.239.281-.517.281-.835 0-.29-.081-.526-.243-.708a1.786 1.786 0 0 0-.639-.443 6.614 6.614 0 0 0-.857-.298l-1.074-.307c-.681-.196-1.221-.476-1.619-.84-.398-.363-.597-.839-.597-1.427 0-.489.133-.915.397-1.279.267-.366.625-.65 1.074-.852a3.632 3.632 0 0 1 1.512-.307c.563 0 1.063.101 1.5.303.438.199.785.472 1.04.818.259.347.395.74.409 1.181h-1.022Zm5.487 6.681c-.631 0-1.175-.139-1.632-.417a2.81 2.81 0 0 1-1.053-1.176c-.244-.506-.366-1.094-.366-1.765 0-.67.122-1.261.366-1.772a2.89 2.89 0 0 1 1.032-1.202c.443-.29.96-.435 1.551-.435.341 0 .677.057 1.01.171.332.113.635.298.907.554.273.253.491.588.652 1.005.162.418.243.932.243 1.543v.426h-5.045v-.869h4.023c0-.369-.074-.699-.222-.989a1.67 1.67 0 0 0-.622-.686 1.749 1.749 0 0 0-.946-.251c-.401 0-.747.099-1.04.298a1.96 1.96 0 0 0-.669.767 2.254 2.254 0 0 0-.234 1.014v.58c0 .494.085.913.255 1.257.174.341.414.601.721.78.306.176.663.264 1.069.264.264 0 .503-.037.716-.111.216-.077.402-.19.558-.341.157-.153.277-.344.362-.571l.972.273a2.149 2.149 0 0 1-.516.869 2.507 2.507 0 0 1-.894.58 3.334 3.334 0 0 1-1.198.204Zm4.24 2.319v-9h.972v1.039h.119a9.15 9.15 0 0 1 .307-.434c.133-.179.324-.338.571-.478.25-.142.588-.213 1.014-.213.551 0 1.037.138 1.458.414.42.275.748.666.984 1.172.236.505.354 1.102.354 1.789 0 .694-.118 1.294-.354 1.803-.236.506-.563.898-.98 1.176-.418.276-.899.413-1.445.413-.42 0-.757-.069-1.01-.208a1.878 1.878 0 0 1-.584-.482 6.475 6.475 0 0 1-.315-.452h-.085v3.461h-1.006Zm.989-5.728c0 .495.072.931.217 1.309.145.375.357.669.635.882.278.21.619.315 1.023.315.42 0 .771-.111 1.052-.332.284-.225.498-.526.64-.904.144-.381.217-.804.217-1.27 0-.46-.071-.875-.213-1.244a1.923 1.923 0 0 0-.635-.882c-.281-.219-.635-.328-1.061-.328-.409 0-.753.103-1.031.311-.279.204-.489.491-.631.861-.142.366-.213.794-.213 1.282ZM523.42 303.636c0 .921-.166 1.716-.498 2.387-.333.67-.788 1.187-1.368 1.551-.58.364-1.241.545-1.986.545-.744 0-1.406-.181-1.986-.545-.579-.364-1.035-.881-1.368-1.551-.332-.671-.498-1.466-.498-2.387 0-.92.166-1.716.498-2.386.333-.67.789-1.188 1.368-1.551.58-.364 1.242-.546 1.986-.546.745 0 1.406.182 1.986.546.58.363 1.035.881 1.368 1.551.332.67.498 1.466.498 2.386Zm-1.022 0c0-.755-.127-1.393-.38-1.913-.25-.52-.589-.913-1.018-1.18a2.64 2.64 0 0 0-1.432-.401c-.528 0-1.007.134-1.436.401-.426.267-.766.66-1.018 1.18-.25.52-.375 1.158-.375 1.913 0 .756.125 1.394.375 1.914.252.52.592.913 1.018 1.18.429.267.908.401 1.436.401a2.64 2.64 0 0 0 1.432-.401c.429-.267.768-.66 1.018-1.18.253-.52.38-1.158.38-1.914Zm5.322 4.5c-.613 0-1.142-.145-1.585-.434a2.837 2.837 0 0 1-1.023-1.198c-.238-.508-.358-1.089-.358-1.743 0-.664.122-1.251.367-1.76.247-.511.591-.91 1.031-1.197.443-.29.96-.435 1.551-.435.46 0 .875.086 1.244.256.37.17.672.409.908.716s.382.665.439 1.074h-1.006a1.553 1.553 0 0 0-.511-.793c-.261-.233-.614-.349-1.057-.349-.392 0-.736.102-1.031.307a1.993 1.993 0 0 0-.686.856c-.162.367-.243.797-.243 1.291 0 .506.079.946.239 1.321.162.375.389.666.681.874.296.207.642.311 1.04.311.262 0 .499-.045.712-.136.213-.091.393-.222.541-.392.148-.171.253-.375.315-.614h1.006a2.329 2.329 0 0 1-1.304 1.777c-.364.179-.787.268-1.27.268Zm6.891-6.681v.852h-3.392v-.852h3.392Zm-2.404-1.569h1.006v6.239c0 .284.041.497.124.639a.637.637 0 0 0 .324.281c.133.046.274.069.421.069.111 0 .202-.006.273-.017l.171-.035.204.904a2.178 2.178 0 0 1-.75.119c-.284 0-.562-.061-.835-.183a1.656 1.656 0 0 1-.673-.558c-.177-.25-.265-.566-.265-.946v-6.512ZM635.977 299.273V308h-1.022l-4.756-6.852h-.085V308h-1.057v-8.727h1.023l4.772 6.869h.086v-6.869h1.039Zm4.638 8.863c-.591 0-1.11-.14-1.556-.422a2.861 2.861 0 0 1-1.039-1.18c-.248-.506-.371-1.097-.371-1.773 0-.681.123-1.277.371-1.785.25-.509.596-.904 1.039-1.185.446-.281.965-.422 1.556-.422.591 0 1.108.141 1.551.422.446.281.792.676 1.04 1.185.25.508.375 1.104.375 1.785 0 .676-.125 1.267-.375 1.773a2.829 2.829 0 0 1-1.04 1.18c-.443.282-.96.422-1.551.422Zm0-.903c.449 0 .818-.115 1.108-.345.289-.23.504-.533.643-.908a3.48 3.48 0 0 0 .209-1.219c0-.437-.07-.845-.209-1.223a2.07 2.07 0 0 0-.643-.916c-.29-.233-.659-.349-1.108-.349-.449 0-.818.116-1.108.349-.29.233-.505.539-.644.916a3.518 3.518 0 0 0-.209 1.223c0 .438.07.844.209 1.219.139.375.354.678.644.908.29.23.659.345 1.108.345Zm9.619-5.778L647.813 308h-1.023l-2.42-6.545h1.091l1.807 5.215h.068l1.807-5.215h1.091Z" fill="#0071CD"/></svg>