<svg width="685" height="400" fill="none" xmlns="http://www.w3.org/2000/svg"><rect width="685" height="400" rx="16" fill="#fff"/><path d="m47.483 48.424 3.036-.005-.02-13.705 4.817-.008-.004-2.794-12.65.02.004 2.793 4.796-.007.02 13.706Zm8.525-.013 2.794-.004-.009-5.676c-.002-1.804 1.162-2.796 2.614-2.798.352 0 .748.021 1.144.13l.326-2.728c-.418-.11-.682-.153-1.078-.152-1.386.002-2.375.597-3.034 1.5l-.156-1.298-2.618.004.017 11.022Zm15.389-.023 2.464-.003-.01-6.644c-.004-3.08-1.92-4.617-4.847-4.613-2.772.004-4.53 1.459-5.077 3.55l2.663.48c.306-1.123 1.12-1.674 2.374-1.676 1.122-.002 1.87.46 2.114 1.559l-2.815.642c-2.31.532-4.244 1.414-4.24 3.68.003 2.112 1.588 3.254 3.568 3.251 1.54-.002 2.793-.664 3.606-1.743l.2 1.517Zm-4.537-3.227c-.001-.814.659-1.145 1.582-1.366l2.705-.664v.242c.003 2.002-1.491 2.95-2.965 2.952-.792.001-1.32-.394-1.322-1.164Zm13.862-9.327c-.001-1.144.592-1.672 1.648-1.674.374 0 .66.065 1.012.175l.59-2.377a5.901 5.901 0 0 0-1.914-.306c-2.31.004-4.133 1.635-4.13 4.187l.003 1.518-1.144.001-1.428 1.63.001.814 2.574-.003.013 8.58 2.794-.005-.013-8.58 4.708-.007.013 8.58 2.794-.004-.013-8.58 3.608-.005-.003-2.442-3.608.005-.002-1.518c-.002-1.144.591-1.673 1.647-1.674.374 0 .66.065 1.012.174l.569-2.377a5.77 5.77 0 0 0-1.893-.305c-2.31.004-4.133 1.634-4.13 4.186l.003 1.518-4.708.007-.002-1.518Zm12.511-1.91c.001.968.728 1.67 1.718 1.67.99-.002 1.693-.707 1.692-1.675-.001-.968-.707-1.693-1.697-1.692-.99.002-1.714.729-1.713 1.697Zm.33 14.431 2.793-.004-.016-11.022-2.794.004.016 11.022Zm5.17-5.507c.006 3.3 2.429 5.716 5.729 5.711 2.772-.004 4.882-1.723 5.275-3.99l-2.751-.458c-.284 1.145-1.163 1.894-2.549 1.896-1.672.003-2.796-1.206-2.799-3.164-.003-1.98 1.183-3.192 2.833-3.194 1.232-.002 2.113.679 2.401 1.867l2.815-.51c-.531-2.354-2.514-3.935-5.198-3.931-3.322.005-5.76 2.45-5.755 5.773Zm20.575-2.825c-.005-3.432 2.059-5.635 5.161-5.64 2.222-.003 3.72 1.117 4.317 3.03l2.947-.84c-.863-3.013-3.572-4.99-7.268-4.984-4.796.007-8.31 3.577-8.303 8.439.007 4.906 3.511 8.508 8.307 8.501 4.576-.007 7.673-3.025 7.666-7.535l-.002-1.43-9.218.014.004 2.662 6.072-.01c-.063 2.113-1.997 3.524-4.505 3.527-3.19.005-5.173-2.258-5.178-5.734Zm20.585 8.483c2.662-.004 4.574-1.26 5.231-3.462l-2.597-.524c-.351.925-1.186 1.564-2.638 1.566-1.584.003-2.707-.744-2.974-2.46l8.184-.011c.088-.419.131-.859.131-1.255-.005-3.19-2.252-5.342-5.486-5.337-3.344.005-5.695 2.472-5.69 5.816.005 3.278 2.187 5.673 5.839 5.667Zm-.146-9.173c1.408-.003 2.311.766 2.555 2.152l-5.302.008c.394-1.453 1.471-2.159 2.747-2.16Zm7.935 8.942 2.794-.005-.01-6.204c-.002-1.848 1.273-2.465 2.439-2.467 1.298-.002 2.223.833 2.225 2.46l.01 6.205 2.794-.005-.01-6.644c-.005-3.036-1.987-4.617-4.341-4.613a4.49 4.49 0 0 0-3.232 1.347l-.156-1.1-2.53.004.017 11.022Zm18.207.193c2.662-.004 4.574-1.261 5.231-3.462l-2.597-.524c-.351.924-1.186 1.563-2.638 1.566-1.584.002-2.707-.744-2.973-2.46l8.184-.012c.087-.418.13-.858.13-1.254-.005-3.19-2.252-5.343-5.486-5.338-3.344.005-5.695 2.472-5.69 5.816.005 3.278 2.187 5.673 5.839 5.668Zm-.146-9.174c1.408-.002 2.311.766 2.555 2.152l-5.302.008c.394-1.453 1.471-2.158 2.747-2.16Zm7.935 8.942 2.794-.004-.009-5.676c-.002-1.804 1.162-2.796 2.614-2.798.352 0 .748.02 1.144.13l.326-2.728c-.418-.11-.682-.153-1.078-.153-1.386.002-2.375.598-3.034 1.5l-.156-1.297-2.618.004.017 11.022Zm15.389-.023 2.464-.004-.01-6.644c-.005-3.08-1.921-4.617-4.847-4.612-2.772.004-4.53 1.458-5.077 3.55l2.663.48c.306-1.123 1.12-1.674 2.374-1.676 1.122-.002 1.87.459 2.114 1.558l-2.815.643c-2.309.531-4.244 1.414-4.241 3.68.004 2.112 1.589 3.254 3.569 3.25 1.54-.002 2.793-.663 3.606-1.743l.2 1.518Zm-4.537-3.227c-.001-.814.658-1.145 1.582-1.367l2.705-.664v.242c.003 2.002-1.491 2.95-2.965 2.953-.792.001-1.321-.394-1.322-1.164Zm8.499-6.173.001.814 2.09-.003.008 5.302c.003 2.178 1.413 3.496 3.745 3.492a6.135 6.135 0 0 0 2.727-.642l-.619-2.287c-.55.221-1.011.354-1.495.355-.99.001-1.563-.438-1.565-1.582l-.007-4.642 3.828-.006-.003-2.442-3.828.006-.004-2.508-.77.001-4.108 4.142Zm10.333-5.053c.001.968.728 1.67 1.718 1.67.99-.002 1.693-.707 1.692-1.675-.002-.968-.707-1.693-1.697-1.692-.99.002-1.715.729-1.713 1.697Zm.329 14.431 2.794-.004-.016-11.022-2.794.004.016 11.022Zm11.037-11.28c-3.388.005-5.87 2.45-5.865 5.75.005 3.322 2.494 5.739 5.882 5.734 3.388-.005 5.871-2.429 5.866-5.751-.005-3.3-2.495-5.738-5.883-5.733Zm.004 2.574c1.782-.003 2.95 1.271 2.953 3.163.003 1.914-1.161 3.192-2.943 3.195-1.782.002-2.972-1.272-2.975-3.186-.003-1.892 1.183-3.17 2.965-3.172Zm8.252 8.678 2.794-.005-.009-6.204c-.003-1.848 1.272-2.466 2.438-2.467 1.298-.002 2.224.832 2.226 2.46l.009 6.204 2.794-.004-.01-6.644c-.004-3.036-1.986-4.617-4.34-4.613a4.488 4.488 0 0 0-3.232 1.346l-.156-1.1-2.53.005.016 11.022Zm30.085-12.453c-.73-2.771-2.867-4.308-6.123-4.303-3.388.005-6.091 2.01-6.086 4.827.005 3.63 3.02 4.285 5.595 4.853 1.914.394 3.565.721 3.567 2.283.003 1.606-1.338 2.29-3.054 2.293-1.892.003-3.214-.831-3.679-2.877l-3.1.863c.818 3.013 3.065 4.703 6.761 4.698 3.674-.006 6.201-1.967 6.196-5.091-.005-3.52-2.954-4.33-5.507-4.876-1.937-.437-3.631-.765-3.634-2.283-.002-1.276 1.075-2.026 2.923-2.028 1.694-.003 2.774.942 3.106 2.437l3.035-.796Zm.911 3.012.001.814 2.09-.003.008 5.302c.004 2.178 1.414 3.496 3.746 3.493a6.137 6.137 0 0 0 2.727-.643l-.62-2.287c-.549.221-1.011.354-1.495.355-.99.001-1.563-.438-1.565-1.582l-.007-4.642 3.828-.006-.003-2.442-3.828.006-.004-2.508-.77.001-4.108 4.142Zm10.706 9.378 2.794-.004-.009-5.676c-.003-1.804 1.162-2.796 2.614-2.798.352 0 .748.021 1.144.13l.326-2.728c-.418-.11-.682-.153-1.078-.152-1.386.002-2.375.597-3.034 1.5l-.156-1.297-2.618.003.017 11.022Zm15.389-.023 2.464-.003-.01-6.644c-.005-3.08-1.921-4.617-4.847-4.613-2.772.004-4.53 1.459-5.077 3.55l2.663.48c.306-1.123 1.119-1.674 2.373-1.676 1.122-.002 1.871.46 2.115 1.559l-2.815.642c-2.309.532-4.244 1.414-4.241 3.68.003 2.112 1.589 3.254 3.569 3.251 1.54-.002 2.793-.664 3.605-1.743l.201 1.517Zm-4.537-3.227c-.001-.814.658-1.145 1.582-1.366l2.705-.664v.242c.003 2.002-1.491 2.95-2.965 2.952-.792.001-1.321-.394-1.322-1.164Zm8.499-6.172.001.814 2.09-.004.008 5.302c.003 2.178 1.413 3.496 3.745 3.493a6.135 6.135 0 0 0 2.727-.642l-.619-2.287c-.55.22-1.012.353-1.496.354-.99.001-1.562-.438-1.564-1.582l-.007-4.642 3.828-.006-.004-2.442-3.828.006-.003-2.508-.77.001-4.108 4.143Zm15.485 9.59c2.662-.004 4.574-1.26 5.231-3.461l-2.597-.525c-.351.925-1.186 1.564-2.638 1.567-1.584.002-2.707-.744-2.974-2.46l8.184-.012c.088-.418.131-.858.131-1.255-.005-3.19-2.252-5.342-5.486-5.337-3.344.005-5.695 2.472-5.69 5.816.005 3.278 2.187 5.673 5.839 5.668Zm-.146-9.173c1.408-.002 2.311.766 2.555 2.152l-5.302.008c.394-1.453 1.471-2.158 2.747-2.16Zm7.09 3.311c.005 3.234 2.297 5.607 5.333 5.602a4.585 4.585 0 0 0 3.276-1.347l.002 1.386c.002 1.562-.987 2.488-2.769 2.49-1.43.002-2.289-.612-2.554-1.756l-2.86.555c.4 2.133 2.25 3.758 5.418 3.753 3.542-.005 5.563-2.252 5.558-5.244L317.854 37l-2.508.004-.174 1.21c-.859-.923-2.048-1.449-3.39-1.447-3.036.005-5.321 2.384-5.316 5.64Zm2.926-.004c-.003-1.848 1.118-3.06 2.834-3.063 1.694-.002 2.839 1.206 2.842 3.054.003 1.826-1.139 3.06-2.833 3.063-1.716.002-2.84-1.228-2.843-3.054Zm10.134-5.405 4.746 10.949-1.884 4.908 2.882-.004 6.07-15.871-2.97.005-2.651 7.44-3.091-7.432-3.102.005Z" fill="#171A22"/><path d="M344.061 36.216c-.325 0-.637.118-.867.33a1.08 1.08 0 0 0-.359.794c0 .299.129.585.359.796.23.21.542.33.867.33.325 0 .636-.12.866-.33.23-.211.359-.497.359-.796a1.08 1.08 0 0 0-.359-.795c-.23-.21-.541-.33-.866-.33Zm-.294 3.576c-.972.075-3.627 2.017-3.627 2.017-.164.113-.115.105.016.315.131.203.114.218.27.12.163-.097.432-.255.882-.51 1.732-1.02.278 1.335-.466 5.301-.294 1.965 1.634.953 2.132.653.49-.293 1.806-1.125 1.936-1.208.18-.112.049-.202-.09-.39-.098-.127-.196-.037-.196-.037-.531.323-1.503.997-1.633.57-.156-.427.841-3.36 1.388-5.376.09-.48.335-1.53-.612-1.455Z" fill="#D1D4DB"/><path d="M599.573 68.705v8.727h-1.057v-7.62h-.051l-2.13 1.416v-1.074l2.181-1.45h1.057Zm6.039 0h1.261l2.966 7.244h.102l2.966-7.244h1.261v8.727h-.988v-6.63h-.086l-2.727 6.63h-.954l-2.728-6.63h-.085v6.63h-.988v-8.727Zm13.198 8.864c-.591 0-1.109-.141-1.555-.422a2.86 2.86 0 0 1-1.04-1.18c-.247-.507-.371-1.097-.371-1.773 0-.682.124-1.278.371-1.786.25-.508.596-.903 1.04-1.185.446-.28.964-.422 1.555-.422s1.108.141 1.551.422c.446.282.793.677 1.04 1.185.25.508.375 1.104.375 1.785 0 .677-.125 1.267-.375 1.773-.247.506-.594.9-1.04 1.18-.443.282-.96.422-1.551.422Zm0-.904c.449 0 .818-.115 1.108-.345.29-.23.504-.533.643-.908.14-.375.209-.781.209-1.219 0-.437-.069-.845-.209-1.222a2.056 2.056 0 0 0-.643-.917c-.29-.233-.659-.35-1.108-.35-.449 0-.818.117-1.108.35-.29.233-.504.539-.643.916-.14.378-.209.786-.209 1.224 0 .437.069.843.209 1.218.139.375.353.678.643.908.29.23.659.345 1.108.345Zm5.507-3.17v3.937h-1.006v-6.545h.972v1.022h.085c.153-.332.386-.599.699-.8.312-.205.716-.308 1.21-.308.443 0 .831.091 1.163.273.333.18.591.452.776.818.185.364.277.824.277 1.381v4.16h-1.006V73.34c0-.514-.133-.915-.4-1.201-.267-.29-.634-.435-1.1-.435-.321 0-.608.07-.861.209-.25.139-.447.342-.592.609-.145.267-.217.59-.217.972Zm8.86-2.608v.852h-3.392v-.852h3.392Zm-2.403-1.569h1.005v6.24c0 .283.042.496.124.638.085.14.193.233.324.282.133.045.274.068.422.068.111 0 .201-.006.273-.017l.17-.034.205.903a2.081 2.081 0 0 1-.286.077 2.093 2.093 0 0 1-.464.042c-.285 0-.563-.06-.836-.183a1.657 1.657 0 0 1-.673-.558c-.176-.25-.264-.566-.264-.946v-6.511Zm5.062 4.177v3.937h-1.005v-8.727h1.005v3.204h.086c.153-.338.383-.606.69-.805.31-.202.721-.303 1.236-.303.446 0 .836.09 1.172.269.335.176.595.447.779.814.188.364.282.826.282 1.389v4.16h-1.006V73.34c0-.52-.135-.922-.405-1.206-.267-.287-.638-.43-1.112-.43-.33 0-.625.07-.886.209a1.52 1.52 0 0 0-.614.609c-.148.267-.222.59-.222.972Z" fill="#898D9A"/><path d="M60.978 78.432h-2.693v-8.727h2.813c.846 0 1.57.175 2.173.524a3.432 3.432 0 0 1 1.385 1.496c.321.648.482 1.423.482 2.326 0 .91-.162 1.692-.486 2.349a3.461 3.461 0 0 1-1.415 1.508c-.62.35-1.372.524-2.259.524Zm-1.636-.937h1.568c.722 0 1.32-.14 1.794-.418a2.573 2.573 0 0 0 1.061-1.189c.233-.514.35-1.126.35-1.837 0-.704-.115-1.31-.345-1.82a2.546 2.546 0 0 0-1.032-1.175c-.457-.276-1.026-.414-1.708-.414h-1.688v6.853Zm7.432.937v-6.545h1.006v6.545h-1.006Zm.511-7.636a.715.715 0 0 1-.507-.2.644.644 0 0 1-.209-.482c0-.188.07-.348.21-.482a.715.715 0 0 1 .506-.2.7.7 0 0 1 .503.2.637.637 0 0 1 .213.482.638.638 0 0 1-.213.481.7.7 0 0 1-.503.2Zm2.337 7.636v-6.545h.971v.988h.068c.12-.324.336-.586.648-.788a1.907 1.907 0 0 1 1.057-.303c.074 0 .166.002.277.005.11.002.195.007.251.012v1.023a3.023 3.023 0 0 0-.234-.038c-.12-.02-.246-.03-.38-.03-.317 0-.602.067-.852.2a1.47 1.47 0 0 0-.801 1.334v4.142h-1.005Zm7.01.136c-.631 0-1.175-.139-1.633-.417a2.803 2.803 0 0 1-1.052-1.176c-.244-.506-.367-1.094-.367-1.764 0-.67.123-1.262.367-1.773a2.89 2.89 0 0 1 1.031-1.202c.443-.29.96-.435 1.551-.435.341 0 .678.057 1.01.17.333.114.635.3.908.555.273.253.49.588.652 1.006.162.417.243.931.243 1.542v.426h-5.046v-.869h4.023c0-.37-.074-.699-.222-.989a1.67 1.67 0 0 0-.622-.686 1.742 1.742 0 0 0-.946-.251c-.4 0-.747.1-1.04.298-.29.196-.512.452-.669.767a2.253 2.253 0 0 0-.234 1.014v.58c0 .494.085.913.256 1.257.173.341.413.6.72.78a2.11 2.11 0 0 0 1.07.264c.264 0 .502-.037.715-.11.216-.077.403-.191.559-.342.156-.153.277-.343.362-.57l.972.272c-.103.33-.275.62-.516.87-.242.247-.54.44-.895.579a3.318 3.318 0 0 1-1.197.204Zm6.899 0c-.614 0-1.142-.144-1.586-.434a2.832 2.832 0 0 1-1.022-1.198c-.239-.508-.358-1.09-.358-1.743 0-.664.122-1.25.366-1.76.247-.51.591-.91 1.032-1.197.443-.29.96-.435 1.55-.435.46 0 .876.086 1.245.256.37.17.672.41.908.716.236.307.382.665.439 1.074h-1.006a1.56 1.56 0 0 0-.511-.793c-.262-.233-.614-.35-1.057-.35-.392 0-.736.103-1.032.308a1.999 1.999 0 0 0-.686.856c-.162.367-.243.797-.243 1.291 0 .506.08.946.24 1.321.161.375.388.667.68.874.296.207.643.311 1.04.311.262 0 .5-.045.712-.136a1.47 1.47 0 0 0 .542-.392c.147-.17.252-.375.315-.614h1.006a2.33 2.33 0 0 1-.422 1.044 2.357 2.357 0 0 1-.882.733c-.364.179-.787.269-1.27.269Zm6.89-6.681v.852H87.03v-.852h3.392Zm-2.403-1.569h1.006v6.24c0 .283.04.496.123.638a.64.64 0 0 0 .324.282c.134.045.274.068.422.068.11 0 .202-.006.273-.017l.17-.034.205.903a2.034 2.034 0 0 1-.286.077 2.095 2.095 0 0 1-.464.042c-.284 0-.563-.06-.836-.183a1.659 1.659 0 0 1-.673-.558c-.176-.25-.264-.566-.264-.946v-6.511Z" fill="#575C66"/><circle cx="47" cy="73.929" r="5" fill="#00A9FF"/><path d="M123.514 78.432v-8.727h2.949c.682 0 1.241.116 1.679.35.437.23.761.546.971.95.211.403.316.862.316 1.376 0 .514-.105.97-.316 1.368-.21.398-.532.71-.967.937-.435.225-.99.337-1.666.337h-2.387v-.954h2.353c.466 0 .841-.069 1.125-.205.287-.136.494-.33.622-.58a1.94 1.94 0 0 0 .196-.903c0-.35-.065-.655-.196-.916a1.339 1.339 0 0 0-.627-.605c-.287-.145-.666-.218-1.137-.218h-1.858v7.79h-1.057Zm4.108-3.92 2.148 3.92h-1.228l-2.113-3.92h1.193Zm6.105 4.056c-.63 0-1.174-.139-1.632-.417a2.805 2.805 0 0 1-1.052-1.176c-.245-.506-.367-1.094-.367-1.764 0-.67.122-1.262.367-1.773a2.892 2.892 0 0 1 1.031-1.202c.443-.29.96-.435 1.551-.435.341 0 .678.057 1.01.17.332.114.635.3.908.555.272.253.49.588.652 1.006.162.417.243.931.243 1.542v.426h-5.046v-.869h4.023c0-.37-.074-.699-.222-.989a1.67 1.67 0 0 0-.622-.686 1.741 1.741 0 0 0-.946-.251c-.401 0-.747.1-1.04.298-.29.196-.513.452-.669.767a2.256 2.256 0 0 0-.234 1.014v.58c0 .494.085.913.256 1.257.173.341.413.6.72.78.306.176.663.264 1.069.264.264 0 .503-.037.716-.11a1.53 1.53 0 0 0 .558-.342c.157-.153.277-.343.363-.57l.971.272c-.102.33-.274.62-.515.87-.242.247-.54.44-.895.579a3.321 3.321 0 0 1-1.198.204Zm7.155-6.681v.852h-3.528v-.852h3.528Zm-2.471 6.545v-7.449c0-.375.088-.687.264-.937.176-.25.405-.438.686-.563.281-.125.578-.187.89-.187.248 0 .449.02.606.06.156.04.272.076.349.11l-.29.87a4.967 4.967 0 0 0-.213-.064 1.287 1.287 0 0 0-.349-.039c-.333 0-.573.084-.72.252-.145.167-.218.413-.218.737v7.21h-1.005Zm6.355.136c-.63 0-1.174-.139-1.632-.417a2.805 2.805 0 0 1-1.052-1.176c-.245-.506-.367-1.094-.367-1.764 0-.67.122-1.262.367-1.773a2.892 2.892 0 0 1 1.031-1.202c.443-.29.96-.435 1.551-.435.341 0 .678.057 1.01.17.332.114.635.3.908.555.272.253.49.588.652 1.006.162.417.243.931.243 1.542v.426h-5.046v-.869h4.023c0-.37-.074-.699-.222-.989a1.67 1.67 0 0 0-.622-.686 1.741 1.741 0 0 0-.946-.251c-.401 0-.747.1-1.04.298a1.974 1.974 0 0 0-.669.767 2.256 2.256 0 0 0-.234 1.014v.58c0 .494.085.913.256 1.257.173.341.413.6.72.78a2.11 2.11 0 0 0 1.069.264c.265 0 .503-.037.716-.11a1.53 1.53 0 0 0 .558-.342c.157-.153.277-.343.363-.57l.971.272c-.102.33-.274.62-.515.87-.242.247-.54.44-.895.579a3.318 3.318 0 0 1-1.198.204Zm4.24-.136v-6.545h.972v.988h.068c.119-.324.335-.586.648-.788a1.906 1.906 0 0 1 1.057-.303c.074 0 .166.002.277.005.11.002.194.007.251.012v1.023a3 3 0 0 0-.234-.038c-.12-.02-.246-.03-.38-.03a1.78 1.78 0 0 0-.852.2 1.47 1.47 0 0 0-.801 1.334v4.142h-1.006Zm4.465 0v-6.545h.972v.988h.068c.119-.324.335-.586.648-.788a1.906 1.906 0 0 1 1.057-.303c.073 0 .166.002.277.005.11.002.194.007.251.012v1.023a3 3 0 0 0-.234-.038c-.12-.02-.246-.03-.38-.03a1.78 1.78 0 0 0-.852.2 1.47 1.47 0 0 0-.801 1.334v4.142h-1.006Zm6.391.153c-.415 0-.791-.078-1.129-.234a1.932 1.932 0 0 1-.805-.686c-.199-.301-.299-.665-.299-1.09 0-.376.074-.68.222-.913.148-.236.345-.42.592-.554a3.11 3.11 0 0 1 .818-.298c.302-.068.604-.122.908-.162.398-.051.72-.09.967-.115.25-.028.432-.075.546-.14.116-.066.175-.18.175-.342v-.034c0-.42-.116-.747-.346-.98-.227-.233-.572-.35-1.035-.35-.48 0-.857.106-1.129.316-.273.21-.465.435-.576.673l-.954-.34c.17-.398.397-.708.682-.93.287-.224.599-.38.937-.468.341-.091.676-.137 1.006-.137.21 0 .451.026.724.077.276.048.541.15.797.303.259.153.473.385.644.694.17.31.255.725.255 1.245v4.312h-1.005v-.886h-.052a1.746 1.746 0 0 1-.341.456c-.159.162-.37.3-.634.413-.265.114-.587.17-.968.17Zm.154-.903c.397 0 .733-.078 1.005-.234.276-.156.483-.358.622-.605.143-.248.214-.508.214-.78v-.92c-.043.05-.137.097-.282.14-.142.04-.307.075-.494.106a22.717 22.717 0 0 1-.963.128c-.261.034-.506.09-.733.166a1.273 1.273 0 0 0-.546.337c-.136.148-.204.35-.204.605 0 .35.129.614.388.793.261.176.592.264.993.264Zm5.687-7.977v8.727h-1.005v-8.727h1.005Z" fill="#575C66"/><circle cx="112.229" cy="73.929" r="5" fill="#89CA4F"/><path d="M204.515 71.887a1.336 1.336 0 0 0-.622-1.006c-.364-.239-.81-.358-1.338-.358-.386 0-.725.063-1.014.188a1.622 1.622 0 0 0-.674.515 1.236 1.236 0 0 0-.238.746c0 .233.055.433.166.6.114.165.258.303.435.414.176.108.36.197.554.269.193.068.37.123.532.166l.887.238c.227.06.48.142.758.248.281.105.55.248.806.43a2.2 2.2 0 0 1 .639.69c.167.281.251.627.251 1.036 0 .471-.123.897-.371 1.278-.244.38-.602.684-1.073.908-.469.224-1.039.337-1.709.337-.625 0-1.166-.101-1.624-.303a2.595 2.595 0 0 1-1.074-.844 2.411 2.411 0 0 1-.439-1.257h1.091c.029.33.139.602.333.818a1.8 1.8 0 0 0 .741.478c.301.102.625.153.972.153.403 0 .765-.065 1.086-.196.321-.134.576-.318.763-.554a1.31 1.31 0 0 0 .281-.835c0-.29-.081-.526-.242-.708a1.78 1.78 0 0 0-.64-.443 6.689 6.689 0 0 0-.856-.298l-1.074-.307c-.682-.196-1.222-.476-1.619-.84-.398-.363-.597-.839-.597-1.427 0-.489.132-.915.396-1.278.267-.367.625-.65 1.074-.853a3.627 3.627 0 0 1 1.513-.306c.562 0 1.062.1 1.5.302a2.6 2.6 0 0 1 1.04.818c.258.347.395.74.409 1.18h-1.023Zm5.402 6.681c-.59 0-1.109-.14-1.555-.421a2.867 2.867 0 0 1-1.04-1.18c-.247-.507-.37-1.097-.37-1.773 0-.682.123-1.278.37-1.786.25-.508.597-.903 1.04-1.185.446-.28.965-.422 1.555-.422.591 0 1.108.141 1.552.422a2.82 2.82 0 0 1 1.039 1.185c.25.508.375 1.104.375 1.785 0 .677-.125 1.267-.375 1.773-.247.506-.593.9-1.039 1.18-.444.282-.961.422-1.552.422Zm0-.903c.449 0 .819-.115 1.108-.345.29-.23.505-.533.644-.908a3.48 3.48 0 0 0 .209-1.219c0-.437-.07-.845-.209-1.222a2.058 2.058 0 0 0-.644-.917c-.289-.233-.659-.35-1.108-.35-.448 0-.818.117-1.108.35a2.064 2.064 0 0 0-.643.916 3.515 3.515 0 0 0-.209 1.224c0 .437.07.843.209 1.218.139.375.354.678.643.908.29.23.66.345 1.108.345Zm7.161.903c-.614 0-1.142-.144-1.586-.434a2.828 2.828 0 0 1-1.022-1.198c-.239-.508-.358-1.09-.358-1.743 0-.664.122-1.25.366-1.76.247-.51.591-.91 1.031-1.197.444-.29.961-.435 1.552-.435.46 0 .875.086 1.244.256s.672.41.908.716c.235.307.382.665.438 1.074h-1.005a1.557 1.557 0 0 0-.512-.793c-.261-.233-.613-.35-1.056-.35a1.77 1.77 0 0 0-1.032.308 2.004 2.004 0 0 0-.686.856c-.162.367-.243.797-.243 1.291 0 .506.08.946.239 1.321.162.375.389.667.682.874.295.207.642.311 1.04.311.261 0 .498-.045.711-.136a1.462 1.462 0 0 0 .857-1.006h1.005a2.324 2.324 0 0 1-.421 1.044 2.36 2.36 0 0 1-.883.733c-.363.179-.786.269-1.269.269Zm4.044-.136v-6.545h1.005v6.545h-1.005Zm.511-7.636a.715.715 0 0 1-.507-.2.644.644 0 0 1-.209-.482c0-.188.07-.348.209-.482a.715.715 0 0 1 .507-.2.7.7 0 0 1 .503.2.637.637 0 0 1 .213.482.638.638 0 0 1-.213.481.7.7 0 0 1-.503.2Zm4.262 7.79c-.414 0-.791-.079-1.129-.235a1.938 1.938 0 0 1-.805-.686c-.199-.301-.299-.665-.299-1.09 0-.376.074-.68.222-.913.148-.236.345-.42.592-.554.248-.133.52-.233.819-.298a9.94 9.94 0 0 1 .907-.162c.398-.051.72-.09.968-.115.25-.028.431-.075.545-.14.116-.066.175-.18.175-.342v-.034c0-.42-.115-.747-.345-.98-.228-.233-.573-.35-1.036-.35-.48 0-.856.106-1.129.316-.273.21-.465.435-.575.673l-.955-.34c.17-.398.398-.708.682-.93.287-.224.599-.38.937-.468.341-.091.676-.137 1.006-.137.21 0 .452.026.724.077.276.048.542.15.797.303.259.153.473.385.644.694.17.31.255.725.255 1.245v4.312h-1.005v-.886h-.051a1.792 1.792 0 0 1-.341.456c-.159.162-.371.3-.635.413-.264.114-.587.17-.968.17Zm.154-.904c.398 0 .733-.078 1.006-.234.275-.156.482-.358.622-.605.142-.248.213-.508.213-.78v-.92c-.043.05-.137.097-.282.14-.142.04-.306.075-.494.106a22.013 22.013 0 0 1-.963.128c-.261.034-.506.09-.733.166a1.263 1.263 0 0 0-.545.337c-.137.148-.205.35-.205.605 0 .35.129.614.388.793.261.176.592.264.993.264Zm5.688-7.977v8.727h-1.006v-8.727h1.006Z" fill="#575C66"/><circle cx="188.457" cy="73.929" r="5" fill="#B880FF"/><path d="M269.744 71.887a1.34 1.34 0 0 0-.623-1.006c-.363-.239-.809-.358-1.338-.358-.386 0-.724.063-1.014.188a1.618 1.618 0 0 0-.673.515 1.237 1.237 0 0 0-.239.746c0 .233.056.433.166.6.114.165.259.303.435.414.176.108.361.197.554.269.193.068.371.123.533.166l.886.238c.227.06.48.142.759.248.281.105.549.248.805.43.259.179.472.409.639.69.168.281.252.627.252 1.036 0 .471-.124.897-.371 1.278-.244.38-.602.684-1.074.908-.469.224-1.038.337-1.709.337-.625 0-1.166-.101-1.623-.303a2.582 2.582 0 0 1-1.074-.844 2.402 2.402 0 0 1-.439-1.257h1.091c.028.33.139.602.332.818.196.213.443.373.742.478a3 3 0 0 0 .971.153 2.86 2.86 0 0 0 1.087-.196 1.87 1.87 0 0 0 .763-.554c.187-.239.281-.517.281-.835 0-.29-.081-.526-.243-.708a1.784 1.784 0 0 0-.639-.443 6.705 6.705 0 0 0-.857-.298l-1.074-.307c-.681-.196-1.221-.476-1.619-.84-.398-.363-.596-.839-.596-1.427 0-.489.132-.915.396-1.278.267-.367.625-.65 1.074-.853a3.622 3.622 0 0 1 1.512-.306c.563 0 1.063.1 1.5.302.438.199.785.472 1.04.818.259.347.395.74.409 1.18h-1.022Zm5.487 6.681c-.631 0-1.175-.139-1.632-.417a2.805 2.805 0 0 1-1.052-1.176c-.245-.506-.367-1.094-.367-1.764 0-.67.122-1.262.367-1.773.247-.514.59-.915 1.031-1.202.443-.29.96-.435 1.551-.435.341 0 .677.057 1.01.17.332.114.635.3.908.555.272.253.49.588.652 1.006.161.417.242.931.242 1.542v.426h-5.045v-.869h4.023c0-.37-.074-.699-.222-.989a1.67 1.67 0 0 0-.622-.686 1.741 1.741 0 0 0-.946-.251c-.401 0-.747.1-1.04.298-.29.196-.513.452-.669.767a2.256 2.256 0 0 0-.234 1.014v.58c0 .494.085.913.255 1.257.174.341.414.6.721.78.306.176.663.264 1.069.264.264 0 .503-.037.716-.11a1.53 1.53 0 0 0 .558-.342c.157-.153.277-.343.363-.57l.971.272c-.102.33-.274.62-.515.87-.242.247-.54.44-.895.579a3.321 3.321 0 0 1-1.198.204Zm6.166.017c-.414 0-.791-.078-1.129-.234a1.938 1.938 0 0 1-.805-.686c-.199-.301-.299-.665-.299-1.09 0-.376.074-.68.222-.913.148-.236.345-.42.592-.554.247-.133.52-.233.819-.298a9.94 9.94 0 0 1 .907-.162c.398-.051.72-.09.968-.115.25-.028.431-.075.545-.14.116-.066.175-.18.175-.342v-.034c0-.42-.115-.747-.345-.98-.228-.233-.573-.35-1.036-.35-.48 0-.857.106-1.129.316-.273.21-.465.435-.576.673l-.954-.34c.17-.398.398-.708.682-.93.287-.224.599-.38.937-.468.341-.091.676-.137 1.006-.137.21 0 .452.026.724.077.276.048.542.15.797.303.259.153.473.385.644.694.17.31.255.725.255 1.245v4.312h-1.005v-.886h-.051a1.792 1.792 0 0 1-.341.456c-.159.162-.371.3-.635.413-.265.114-.587.17-.968.17Zm.154-.903c.398 0 .733-.078 1.005-.234a1.6 1.6 0 0 0 .623-.605c.142-.248.213-.508.213-.78v-.92c-.043.05-.137.097-.282.14-.142.04-.306.075-.494.106a22.717 22.717 0 0 1-.963.128c-.261.034-.506.09-.733.166a1.263 1.263 0 0 0-.545.337c-.137.148-.205.35-.205.605 0 .35.129.614.388.793.261.176.592.264.993.264Zm4.682.75v-6.545h.972v.988h.068c.119-.324.335-.586.647-.788a1.909 1.909 0 0 1 1.057-.303c.074 0 .166.002.277.005.111.002.195.007.252.012v1.023a3.059 3.059 0 0 0-.235-.038 2.295 2.295 0 0 0-.379-.03 1.78 1.78 0 0 0-.852.2 1.47 1.47 0 0 0-.801 1.334v4.142h-1.006Zm6.925.136c-.614 0-1.142-.144-1.586-.434a2.828 2.828 0 0 1-1.022-1.198c-.239-.508-.358-1.09-.358-1.743 0-.664.122-1.25.366-1.76.247-.51.591-.91 1.031-1.197.444-.29.961-.435 1.552-.435.46 0 .875.086 1.244.256s.672.41.908.716c.235.307.382.665.439 1.074h-1.006a1.557 1.557 0 0 0-.512-.793c-.261-.233-.613-.35-1.056-.35a1.77 1.77 0 0 0-1.032.308 2.004 2.004 0 0 0-.686.856c-.162.367-.243.797-.243 1.291 0 .506.08.946.239 1.321.162.375.389.667.682.874.295.207.642.311 1.04.311.261 0 .498-.045.711-.136.213-.091.394-.222.542-.392.147-.17.252-.375.315-.614h1.006a2.337 2.337 0 0 1-.422 1.044 2.364 2.364 0 0 1-.882.733c-.364.179-.787.269-1.27.269Zm5.049-4.073v3.937h-1.005v-8.727h1.005v3.204h.086c.153-.338.383-.606.69-.805.31-.202.722-.303 1.236-.303.446 0 .836.09 1.172.269.335.176.595.447.779.814.188.364.282.826.282 1.389v4.16h-1.006V74.34c0-.52-.135-.922-.405-1.206-.267-.287-.638-.43-1.112-.43-.33 0-.625.07-.886.209-.259.139-.463.342-.614.609-.148.267-.222.59-.222.972Z" fill="#575C66"/><circle cx="253.686" cy="73.93" r="5" fill="#FF622D"/><path d="M336.199 78.432v-8.727h2.949c.685 0 1.245.123 1.679.37.438.245.762.576.972.993.21.418.315.884.315 1.398 0 .514-.105.982-.315 1.402a2.35 2.35 0 0 1-.963 1.006c-.435.247-.992.37-1.671.37h-2.113v-.937h2.079c.469 0 .845-.08 1.129-.243a1.44 1.44 0 0 0 .618-.656c.131-.278.196-.592.196-.942s-.065-.662-.196-.937a1.394 1.394 0 0 0-.622-.648c-.287-.16-.667-.239-1.142-.239h-1.858v7.79h-1.057Zm9.407.153c-.414 0-.791-.078-1.129-.234a1.938 1.938 0 0 1-.805-.686c-.199-.301-.299-.665-.299-1.09 0-.376.074-.68.222-.913.148-.236.345-.42.592-.554.247-.133.52-.233.819-.298a9.94 9.94 0 0 1 .907-.162c.398-.051.72-.09.968-.115.25-.028.431-.075.545-.14.116-.066.175-.18.175-.342v-.034c0-.42-.115-.747-.345-.98-.228-.233-.573-.35-1.036-.35-.48 0-.857.106-1.129.316-.273.21-.465.435-.576.673l-.954-.34c.17-.398.398-.708.682-.93.287-.224.599-.38.937-.468.341-.091.676-.137 1.006-.137.21 0 .452.026.724.077.276.048.542.15.797.303.259.153.473.385.644.694.17.31.255.725.255 1.245v4.312h-1.005v-.886h-.051a1.792 1.792 0 0 1-.341.456c-.159.162-.371.3-.635.413-.265.114-.587.17-.968.17Zm.154-.903c.397 0 .733-.078 1.005-.234a1.6 1.6 0 0 0 .623-.605c.142-.248.213-.508.213-.78v-.92c-.043.05-.137.097-.282.14-.142.04-.306.075-.494.106a22.717 22.717 0 0 1-.963.128c-.261.034-.506.09-.733.166a1.263 1.263 0 0 0-.545.337c-.137.148-.205.35-.205.605 0 .35.129.614.388.793.261.176.592.264.993.264Zm4.682.75v-6.545h1.006v6.545h-1.006Zm.511-7.636a.715.715 0 0 1-.507-.2.644.644 0 0 1-.209-.482c0-.188.07-.348.209-.482a.715.715 0 0 1 .507-.2.7.7 0 0 1 .503.2.637.637 0 0 1 .213.482.638.638 0 0 1-.213.481.7.7 0 0 1-.503.2Zm4.808 7.772a2.56 2.56 0 0 1-1.444-.413c-.418-.278-.745-.67-.981-1.176-.235-.508-.353-1.11-.353-1.803 0-.687.118-1.284.353-1.79.236-.505.564-.896.985-1.171.42-.276.906-.414 1.457-.414.426 0 .763.072 1.01.213.25.14.441.299.571.478.134.176.237.32.311.434h.086v-3.221h1.005v8.727h-.971v-1.006h-.12a6.6 6.6 0 0 1-.315.452c-.136.18-.331.34-.584.482-.253.139-.589.209-1.01.209Zm.137-.903c.403 0 .744-.105 1.022-.315.279-.213.49-.507.635-.882.145-.378.218-.814.218-1.309 0-.488-.071-.916-.214-1.282a1.869 1.869 0 0 0-.63-.861c-.279-.208-.622-.311-1.031-.311-.427 0-.782.11-1.066.328-.281.216-.493.51-.635.882-.139.37-.209.784-.209 1.244 0 .466.071.89.214 1.27.144.378.357.68.639.904.284.221.636.332 1.057.332Z" fill="#575C66"/><circle cx="324.914" cy="73.929" r="5" fill="#D1D4DB"/><path d="M43.164 113.656h1.584v-6.732l2.676 3.492h.336l2.676-3.528v6.768h1.596v-9H50.28l-2.652 3.552-2.712-3.552h-1.752v9Zm14.551 0h1.344v-3.624c0-1.68-1.044-2.52-2.64-2.52-1.512 0-2.472.792-2.772 1.932l1.452.264c.168-.612.612-.912 1.296-.912.612 0 1.02.252 1.152.852l-1.536.348c-1.26.288-2.316.768-2.316 2.004 0 1.152.864 1.776 1.944 1.776.84 0 1.524-.36 1.968-.948l.108.828Zm-2.472-1.764c0-.444.36-.624.864-.744l1.476-.36v.132c0 1.092-.816 1.608-1.62 1.608-.432 0-.72-.216-.72-.636Zm5.457 1.764h1.524v-3.096c0-.984.636-1.524 1.428-1.524.192 0 .408.012.624.072l.18-1.488a2.048 2.048 0 0 0-.588-.084c-.756 0-1.296.324-1.656.816l-.084-.708H60.7v6.012Zm8.575-6.012-1.656 1.956h-.66v-4.944h-1.524v9h1.524v-2.592h.564l1.824 2.592h1.776l-2.376-3.324 2.352-2.688h-1.824Zm5.2 6.132c1.452 0 2.496-.684 2.856-1.884l-1.416-.288c-.192.504-.648.852-1.44.852-.864 0-1.476-.408-1.62-1.344h4.464a3.4 3.4 0 0 0 .072-.684c0-1.74-1.224-2.916-2.988-2.916-1.824 0-3.108 1.344-3.108 3.168 0 1.788 1.188 3.096 3.18 3.096Zm-.072-5.004c.768 0 1.26.42 1.392 1.176h-2.892c.216-.792.804-1.176 1.5-1.176Zm3.505-.24v.444h1.14v2.892c0 1.188.768 1.908 2.04 1.908.516 0 1.032-.12 1.488-.348l-.336-1.248c-.3.12-.552.192-.816.192-.54 0-.852-.24-.852-.864v-2.532h2.088v-1.332h-2.088v-1.368h-.42l-2.244 2.256Z" fill="#171A22"/><path fill="#D1D4DB" d="M127 102.432h516v18H127z"/><path fill="#00A9FF" d="M127 102.432h221.737v18H127z"/><path fill="#B880FF" d="M392.818 102.432H586.61v18H392.818z"/><path fill="#FF622D" d="M585.738 102.432h17.303v18h-17.303z"/><path fill="#89CA4F" d="M346.224 102.432h48.333v18h-48.333z"/><path d="M42.876 143.656H44.4v-3.684c0-.78.54-1.056 1.068-1.056.576 0 .96.36.96 1.056v3.684h1.524v-3.684c0-.792.54-1.056 1.068-1.056.576 0 .96.36.96 1.056v3.684h1.524v-3.804c0-1.536-.96-2.34-2.148-2.34-.792 0-1.356.36-1.788.888-.384-.588-1.008-.888-1.716-.888-.648 0-1.14.288-1.524.72l-.084-.588h-1.368v6.012Zm13.89 0h1.344v-3.624c0-1.68-1.044-2.52-2.64-2.52-1.512 0-2.472.792-2.772 1.932l1.452.264c.168-.612.612-.912 1.296-.912.612 0 1.02.252 1.152.852l-1.536.348c-1.26.288-2.316.768-2.316 2.004 0 1.152.864 1.776 1.944 1.776.84 0 1.524-.36 1.968-.948l.108.828Zm-2.472-1.764c0-.444.36-.624.864-.744l1.476-.36v.132c0 1.092-.816 1.608-1.62 1.608-.432 0-.72-.216-.72-.636Zm5.001-1.236c0 1.8 1.32 3.12 3.12 3.12 1.512 0 2.664-.936 2.88-2.172l-1.5-.252c-.156.624-.636 1.032-1.392 1.032-.912 0-1.524-.66-1.524-1.728 0-1.08.648-1.74 1.548-1.74.672 0 1.152.372 1.308 1.02l1.536-.276c-.288-1.284-1.368-2.148-2.832-2.148-1.812 0-3.144 1.332-3.144 3.144Zm6.226-3.012 2.58 5.976-1.032 2.676h1.572l3.324-8.652h-1.62l-1.452 4.056-1.68-4.056H65.52Zm9.467 6.132c1.716 0 2.556-.852 2.556-1.992 0-1.404-1.26-1.62-2.256-1.776-.696-.108-1.236-.204-1.236-.648 0-.36.36-.612.948-.612.54 0 .9.228 1.02.744l1.512-.312c-.348-1.068-1.164-1.668-2.532-1.668-1.452 0-2.508.804-2.508 1.92 0 1.38 1.128 1.644 2.112 1.8.72.132 1.368.192 1.368.648 0 .42-.372.66-.984.66s-1.056-.252-1.176-.876l-1.56.312c.336 1.284 1.392 1.8 2.736 1.8Zm4.456 0c.6 0 1.02-.396 1.02-.972 0-.6-.42-1.008-1.02-1.008-.588 0-1.02.408-1.02 1.008 0 .576.432.972 1.02.972Zm2.023-3.12c0 1.8 1.32 3.12 3.12 3.12 1.512 0 2.664-.936 2.88-2.172l-1.5-.252c-.156.624-.636 1.032-1.392 1.032-.912 0-1.524-.66-1.524-1.728 0-1.08.648-1.74 1.548-1.74.672 0 1.152.372 1.308 1.02l1.536-.276c-.288-1.284-1.368-2.148-2.832-2.148-1.812 0-3.144 1.332-3.144 3.144Zm9.884-3.144c-1.848 0-3.204 1.332-3.204 3.132 0 1.812 1.356 3.132 3.204 3.132s3.204-1.32 3.204-3.132c0-1.8-1.356-3.132-3.204-3.132Zm0 1.404c.972 0 1.608.696 1.608 1.728 0 1.044-.636 1.74-1.608 1.74-.972 0-1.62-.696-1.62-1.74 0-1.032.648-1.728 1.62-1.728Zm4.494 4.74h1.524v-3.684c0-.78.54-1.056 1.068-1.056.576 0 .96.36.96 1.056v3.684h1.524v-3.684c0-.792.54-1.056 1.068-1.056.576 0 .96.36.96 1.056v3.684h1.524v-3.804c0-1.536-.96-2.34-2.148-2.34-.792 0-1.356.36-1.788.888-.384-.588-1.008-.888-1.716-.888-.648 0-1.14.288-1.524.72l-.084-.588h-1.368v6.012Z" fill="#171A22"/><path fill="#D1D4DB" d="M127 132.432h516v18H127z"/><path fill="#00A9FF" d="M127 132.432h259.271v18H127z"/><path fill="#B880FF" d="M401.522 132.432h172.847v18H401.522z"/><path fill="#FF622D" d="M551.493 132.432h30.503v18h-30.503z"/><path fill="#89CA4F" d="M376.926 132.432h27.798v18h-27.798z"/><path d="m44.16 207.441 5.347-.008c4.95-.008 8.245-3.533 8.238-8.307-.008-4.708-3.313-8.201-8.263-8.193l-5.346.008.025 16.5Zm5.326-13.714c3.08-.005 5.108 2.17 5.113 5.426.004 3.278-2.016 5.481-5.096 5.486l-2.31.003-.017-10.912 2.31-.003Zm16.012 2.418c-3.388.005-5.87 2.451-5.866 5.751.005 3.322 2.495 5.738 5.883 5.733 3.388-.005 5.87-2.429 5.865-5.751-.005-3.3-2.494-5.738-5.882-5.733Zm.004 2.574c1.782-.003 2.95 1.271 2.952 3.163.003 1.914-1.16 3.192-2.943 3.195-1.782.003-2.972-1.272-2.975-3.186-.003-1.892 1.184-3.169 2.966-3.172Zm8.252 8.678 2.794-.005-.01-6.754c-.002-1.43.987-1.937 1.955-1.939 1.056-.001 1.76.658 1.763 1.934l.01 6.754 2.794-.004-.01-6.754c-.002-1.452.987-1.938 1.955-1.939 1.056-.002 1.76.657 1.763 1.933l.01 6.754 2.794-.004-.01-6.974c-.005-2.816-1.767-4.287-3.945-4.284-1.452.002-2.485.664-3.275 1.633-.706-1.077-1.85-1.625-3.149-1.624-1.188.002-2.09.532-2.792 1.325l-.155-1.078-2.508.004.016 11.022Zm25.465-.038 2.464-.004-.01-6.644c-.004-3.08-1.92-4.617-4.847-4.613-2.771.004-4.53 1.459-5.076 3.55l2.662.48c.307-1.123 1.12-1.674 2.374-1.676 1.122-.001 1.87.459 2.114 1.559l-2.815.642c-2.309.532-4.244 1.415-4.24 3.681.003 2.112 1.589 3.253 3.569 3.25 1.54-.002 2.793-.664 3.605-1.743l.2 1.518Zm-4.537-3.228c0-.814.659-1.145 1.582-1.366l2.705-.664v.242c.004 2.002-1.49 2.95-2.965 2.952-.792.002-1.32-.394-1.322-1.164Zm9.68-11.212c.001.968.728 1.671 1.718 1.669.99-.001 1.693-.706 1.692-1.674-.002-.968-.707-1.693-1.697-1.692-.99.002-1.715.729-1.713 1.697Zm.329 14.431 2.794-.004-.016-11.022-2.794.004.016 11.022Zm6.016-.008 2.794-.005-.009-6.204c-.003-1.848 1.272-2.466 2.438-2.467 1.298-.002 2.223.832 2.226 2.46l.009 6.204 2.794-.004-.01-6.644c-.004-3.036-1.987-4.617-4.341-4.613a4.488 4.488 0 0 0-3.232 1.347l-.155-1.1-2.53.004.016 11.022Zm20.643-.031 3.124-.005 4.119-11.028-2.926.004-2.672 7.704-2.696-7.696-3.08.005 4.131 11.016Zm12.771.201c3.146-.005 4.684-1.569 4.68-3.659-.003-2.574-2.314-2.967-4.14-3.25-1.277-.196-2.267-.371-2.268-1.185-.001-.66.658-1.123 1.736-1.124.99-.002 1.651.415 1.872 1.361l2.771-.576c-.641-1.957-2.138-3.055-4.646-3.051-2.662.004-4.596 1.481-4.593 3.527.004 2.53 2.073 3.01 3.877 3.294 1.32.24 2.508.348 2.51 1.184.001.77-.68 1.211-1.802 1.213-1.122.001-1.937-.459-2.159-1.603l-2.859.576c.619 2.353 2.557 3.296 5.021 3.293Zm12.188-.238 2.904-.005-.018-12.342 4.915 6.395.616-.001 4.897-6.475.018 12.408 2.926-.005-.024-16.5-3.212.005-4.853 6.519-4.981-6.504-3.212.005.024 16.5Zm26.678-.04 2.464-.004-.01-6.644c-.005-3.08-1.921-4.617-4.847-4.613-2.772.004-4.53 1.459-5.077 3.55l2.663.48c.306-1.122 1.12-1.674 2.374-1.676 1.122-.001 1.87.46 2.114 1.559l-2.815.642c-2.309.532-4.244 1.415-4.241 3.681.003 2.112 1.589 3.253 3.569 3.25 1.54-.002 2.793-.664 3.606-1.743l.2 1.518Zm-4.537-3.227c-.001-.814.658-1.145 1.582-1.367l2.705-.664v.242c.003 2.002-1.491 2.95-2.965 2.953-.792.001-1.321-.394-1.322-1.164Zm10.009 3.219 2.794-.004-.008-5.676c-.003-1.804 1.161-2.796 2.613-2.798.352-.001.748.02 1.145.13l.326-2.729c-.419-.109-.683-.153-1.079-.152-1.386.002-2.375.598-3.033 1.501l-.156-1.298-2.618.004.016 11.022Zm15.703-11.046-3.03 3.591-1.21.002-.014-9.064-2.794.004.025 16.5 2.794-.004-.007-4.752 1.034-.002 3.351 4.747 3.256-.005-4.365-6.087 4.304-4.935-3.344.005Zm9.551 11.228c2.662-.004 4.574-1.261 5.231-3.462l-2.597-.524c-.35.925-1.186 1.564-2.638 1.566-1.584.002-2.707-.744-2.973-2.46l8.184-.012c.087-.418.131-.858.13-1.254-.005-3.19-2.252-5.343-5.486-5.338-3.344.005-5.694 2.473-5.689 5.817.005 3.278 2.186 5.672 5.838 5.667Zm-.146-9.174c1.408-.002 2.312.767 2.556 2.152l-5.302.008c.393-1.452 1.47-2.158 2.746-2.16Zm6.425-.449.001.814 2.09-.003.008 5.302c.003 2.178 1.413 3.495 3.745 3.492a6.133 6.133 0 0 0 2.727-.642l-.619-2.287c-.55.221-1.012.353-1.496.354-.99.002-1.562-.438-1.564-1.582l-.007-4.642 3.828-.005-.003-2.442-3.828.005-.004-2.508-.77.002-4.108 4.142Zm11.993 1.742c1.1-.002 1.869-.729 1.867-1.785-.001-1.1-.772-1.847-1.872-1.845-1.078.001-1.869.751-1.868 1.851.002 1.056.795 1.78 1.873 1.779Zm.012 7.854c1.1-.002 1.869-.729 1.867-1.785-.002-1.1-.773-1.847-1.873-1.845-1.078.001-1.869.751-1.867 1.851.002 1.056.795 1.78 1.873 1.779Zm8.08-.232 3.08-.005 1.797-4.931 5.984-.008 1.811 4.925 3.212-.005-6.317-16.491-3.3.005-6.267 16.51Zm5.863-7.621 1.994-5.437 2.01 5.431-4.004.006Zm14.298-3.431-2.794.004.01 6.864c.005 2.926 1.921 4.375 4.187 4.372 1.496-.003 2.441-.466 3.166-1.303l.134 1.078 2.508-.004-.017-11.022-2.794.004.01 6.336c.002 1.738-1.163 2.334-2.241 2.335-1.386.003-2.157-.7-2.159-2.064l-.01-6.6Zm21.134 10.99-.024-16.5-2.794.004.01 6.644a4.585 4.585 0 0 0-3.347-1.403c-3.058.005-5.408 2.45-5.403 5.75.005 3.322 2.363 5.739 5.421 5.734a4.595 4.595 0 0 0 3.451-1.523l.178 1.298 2.508-.004Zm-5.733-8.681c1.782-.003 2.928 1.271 2.931 3.163.003 1.914-1.139 3.192-2.921 3.195-1.76.002-2.906-1.272-2.909-3.186-.003-1.892 1.139-3.17 2.899-3.172Zm8.612-5.755c.001.968.728 1.671 1.718 1.669.99-.001 1.693-.706 1.692-1.674-.002-.968-.707-1.693-1.697-1.692-.99.002-1.715.729-1.713 1.697Zm.329 14.431 2.794-.004-.016-11.022-2.794.004.016 11.022Zm11.01.204c2.662-.004 4.574-1.261 5.231-3.462l-2.597-.524c-.351.925-1.186 1.564-2.638 1.566-1.584.002-2.707-.744-2.973-2.46l8.184-.012a6.3 6.3 0 0 0 .13-1.254c-.005-3.19-2.252-5.343-5.486-5.338-3.344.005-5.694 2.473-5.689 5.817.004 3.278 2.186 5.672 5.838 5.667Zm-.146-9.174c1.408-.002 2.312.767 2.556 2.152l-5.302.008c.393-1.452 1.47-2.158 2.746-2.16Zm7.935 8.942 2.794-.004-.009-6.204c-.003-1.848 1.272-2.466 2.438-2.467 1.298-.002 2.223.832 2.226 2.46l.009 6.204 2.794-.004-.01-6.644c-.005-3.036-1.987-4.617-4.341-4.613a4.487 4.487 0 0 0-3.232 1.346l-.156-1.099-2.53.003.017 11.022Zm12.369-5.518c.005 3.3 2.428 5.716 5.728 5.711 2.772-.004 4.882-1.723 5.274-3.989L324 202.8c-.285 1.144-1.164 1.893-2.55 1.896-1.672.002-2.795-1.206-2.798-3.164-.003-1.98 1.183-3.192 2.833-3.195 1.232-.001 2.113.679 2.401 1.867l2.815-.51c-.532-2.354-2.514-3.935-5.198-3.931-3.322.005-5.76 2.451-5.755 5.773Zm18.084 5.693c2.662-.004 4.574-1.261 5.231-3.462l-2.597-.524c-.35.925-1.185 1.564-2.637 1.566-1.584.002-2.707-.744-2.974-2.46l8.184-.012c.087-.418.131-.858.13-1.254-.005-3.19-2.252-5.343-5.486-5.338-3.344.005-5.694 2.473-5.689 5.817.005 3.278 2.186 5.672 5.838 5.667Zm-.145-9.174c1.408-.002 2.311.767 2.555 2.152l-5.302.008c.394-1.452 1.471-2.158 2.747-2.16Z" fill="#171A22"/><path d="M352.061 195.222c-.325 0-.637.119-.867.33a1.08 1.08 0 0 0-.359.795c0 .298.129.584.359.795.23.211.542.33.867.33.325 0 .636-.119.866-.33a1.08 1.08 0 0 0 .359-.795 1.08 1.08 0 0 0-.359-.795 1.283 1.283 0 0 0-.866-.33Zm-.294 3.577c-.972.075-3.627 2.017-3.627 2.017-.164.112-.115.105.016.315.131.202.114.217.27.12.163-.098.432-.255.882-.51 1.732-1.02.278 1.334-.466 5.301-.294 1.964 1.634.952 2.132.652.49-.292 1.806-1.125 1.936-1.207.18-.113.049-.203-.09-.39-.098-.127-.196-.038-.196-.038-.531.323-1.503.998-1.633.57-.156-.427.841-3.359 1.388-5.376.09-.48.335-1.529-.612-1.454Z" fill="#D1D4DB"/><path d="M599.573 227.717v8.727h-1.057v-7.619h-.051l-2.13 1.414v-1.074l2.181-1.448h1.057Zm6.039 0h1.261l2.966 7.244h.102l2.966-7.244h1.261v8.727h-.988v-6.631h-.086l-2.727 6.631h-.954l-2.728-6.631h-.085v6.631h-.988v-8.727Zm13.198 8.863c-.591 0-1.109-.14-1.555-.422a2.856 2.856 0 0 1-1.04-1.18c-.247-.506-.371-1.097-.371-1.773 0-.682.124-1.277.371-1.785.25-.509.596-.904 1.04-1.185.446-.281.964-.422 1.555-.422s1.108.141 1.551.422c.446.281.793.676 1.04 1.185.25.508.375 1.103.375 1.785 0 .676-.125 1.267-.375 1.773a2.822 2.822 0 0 1-1.04 1.18c-.443.282-.96.422-1.551.422Zm0-.903c.449 0 .818-.115 1.108-.345.29-.23.504-.533.643-.908.14-.375.209-.781.209-1.219 0-.437-.069-.845-.209-1.223a2.056 2.056 0 0 0-.643-.916c-.29-.233-.659-.349-1.108-.349-.449 0-.818.116-1.108.349-.29.233-.504.538-.643.916-.14.378-.209.786-.209 1.223 0 .438.069.844.209 1.219.139.375.353.678.643.908.29.23.659.345 1.108.345Zm5.507-3.171v3.938h-1.006v-6.546h.972v1.023h.085c.153-.332.386-.599.699-.801.312-.205.716-.307 1.21-.307.443 0 .831.091 1.163.273.333.179.591.452.776.818.185.364.277.824.277 1.381v4.159h-1.006v-4.091c0-.514-.133-.915-.4-1.202-.267-.29-.634-.434-1.1-.434-.321 0-.608.069-.861.208a1.5 1.5 0 0 0-.592.61c-.145.267-.217.591-.217.971Zm8.86-2.608v.853h-3.392v-.853h3.392Zm-2.403-1.568h1.005v6.239c0 .284.042.497.124.639a.637.637 0 0 0 .324.281c.133.046.274.068.422.068.111 0 .201-.005.273-.017l.17-.034.205.904a2.111 2.111 0 0 1-.286.076 2.061 2.061 0 0 1-.464.043c-.285 0-.563-.061-.836-.183a1.656 1.656 0 0 1-.673-.558c-.176-.25-.264-.566-.264-.946v-6.512Zm5.062 4.176v3.938h-1.005v-8.727h1.005v3.204h.086c.153-.338.383-.606.69-.805.31-.202.721-.303 1.236-.303.446 0 .836.09 1.172.269a1.8 1.8 0 0 1 .779.814c.188.363.282.826.282 1.389v4.159h-1.006v-4.091c0-.52-.135-.922-.405-1.206-.267-.287-.638-.43-1.112-.43-.33 0-.625.069-.886.208-.259.14-.464.343-.614.61-.148.267-.222.591-.222.971ZM43.057 237.444v-8.727h5.233v.937h-4.176v2.949h3.784v.937h-3.784v3.904h-1.057Zm9.17.136c-.63 0-1.174-.139-1.632-.417a2.809 2.809 0 0 1-1.052-1.177c-.245-.505-.367-1.093-.367-1.764 0-.67.122-1.261.367-1.772.247-.515.59-.915 1.03-1.202.444-.29.961-.435 1.552-.435.34 0 .678.057 1.01.171.332.113.635.298.908.554.272.252.49.588.652 1.005.161.418.242.932.242 1.543v.426h-5.045v-.869h4.023c0-.37-.074-.699-.222-.989a1.67 1.67 0 0 0-.622-.686 1.739 1.739 0 0 0-.946-.251c-.4 0-.747.099-1.04.298-.29.196-.513.452-.669.767a2.25 2.25 0 0 0-.234 1.014v.58c0 .494.085.913.255 1.257.174.341.414.601.72.78.308.176.664.264 1.07.264.265 0 .503-.037.716-.111a1.53 1.53 0 0 0 .558-.341c.157-.153.277-.344.363-.571l.971.273a2.156 2.156 0 0 1-.515.869c-.242.247-.54.44-.895.58a3.326 3.326 0 0 1-1.198.204Zm4.377-.136v-8.727h1.005v3.221h.086c.074-.113.176-.258.306-.434.134-.179.324-.339.571-.478.25-.142.588-.213 1.015-.213.55 0 1.037.138 1.457.414.42.275.749.666.984 1.171.236.506.354 1.103.354 1.79 0 .693-.118 1.294-.354 1.803-.235.505-.562.897-.98 1.176-.417.275-.899.413-1.444.413-.42 0-.757-.069-1.01-.209a1.87 1.87 0 0 1-.584-.481 6.598 6.598 0 0 1-.315-.452h-.12v1.006h-.971Zm.988-3.273c0 .494.073.931.218 1.308.145.375.356.669.635.882.278.211.619.316 1.022.316.42 0 .772-.111 1.053-.333.284-.224.497-.525.64-.903.144-.381.216-.804.216-1.27 0-.46-.07-.875-.213-1.244a1.924 1.924 0 0 0-.635-.882c-.28-.219-.634-.328-1.06-.328-.41 0-.754.103-1.032.311a1.863 1.863 0 0 0-.63.86c-.143.367-.214.794-.214 1.283Zm9.686 3.273v-.767l2.881-3.154c.338-.369.617-.69.835-.963.22-.275.381-.534.486-.775.108-.245.162-.5.162-.767 0-.307-.074-.573-.221-.797a1.433 1.433 0 0 0-.597-.52 1.937 1.937 0 0 0-.852-.183c-.336 0-.628.069-.878.209a1.435 1.435 0 0 0-.575.575 1.8 1.8 0 0 0-.2.869h-1.007c0-.511.118-.96.354-1.346.236-.387.557-.688.963-.904.41-.216.868-.324 1.377-.324.511 0 .964.108 1.36.324.394.216.704.507.928.874.225.366.337.774.337 1.223 0 .321-.059.635-.175.941-.114.304-.313.644-.597 1.019-.28.372-.671.827-1.171 1.364l-1.96 2.096v.068h4.056v.938h-5.506Zm10.113.119c-.642 0-1.19-.175-1.641-.524-.452-.352-.797-.862-1.035-1.53-.24-.67-.359-1.48-.359-2.429 0-.943.12-1.748.359-2.416.241-.67.588-1.182 1.04-1.534.454-.355 1-.533 1.636-.533.636 0 1.18.178 1.632.533.454.352.8.864 1.04 1.534.241.668.362 1.473.362 2.416 0 .949-.12 1.759-.358 2.429-.239.668-.584 1.178-1.036 1.53-.452.349-.998.524-1.64.524Zm0-.937c.636 0 1.13-.307 1.483-.921.352-.613.528-1.488.528-2.625 0-.755-.081-1.399-.243-1.93-.159-.531-.39-.936-.69-1.215a1.525 1.525 0 0 0-1.078-.417c-.631 0-1.124.311-1.48.933-.354.619-.532 1.496-.532 2.629 0 .756.08 1.398.239 1.926.159.529.388.931.686 1.206.301.276.663.414 1.087.414Zm4.653.818v-.767l2.88-3.154c.339-.369.617-.69.836-.963.219-.275.38-.534.486-.775.108-.245.162-.5.162-.767 0-.307-.074-.573-.222-.797a1.433 1.433 0 0 0-.597-.52 1.936 1.936 0 0 0-.852-.183c-.335 0-.628.069-.878.209a1.436 1.436 0 0 0-.575.575c-.133.247-.2.537-.2.869h-1.006c0-.511.118-.96.354-1.346.236-.387.557-.688.963-.904.409-.216.868-.324 1.376-.324.512 0 .965.108 1.36.324.395.216.704.507.929.874.224.366.336.774.336 1.223 0 .321-.058.635-.174.941-.114.304-.313.644-.597 1.019-.281.372-.672.827-1.172 1.364l-1.96 2.096v.068h4.057v.938h-5.506Zm7.266 0v-.767l2.88-3.154c.338-.369.617-.69.836-.963.218-.275.38-.534.485-.775.108-.245.162-.5.162-.767 0-.307-.074-.573-.221-.797a1.433 1.433 0 0 0-.597-.52 1.936 1.936 0 0 0-.852-.183c-.335 0-.628.069-.878.209a1.436 1.436 0 0 0-.575.575c-.134.247-.2.537-.2.869h-1.006c0-.511.118-.96.353-1.346.236-.387.557-.688.963-.904.41-.216.868-.324 1.377-.324.511 0 .964.108 1.36.324.394.216.704.507.928.874.225.366.337.774.337 1.223 0 .321-.058.635-.175.941-.113.304-.312.644-.596 1.019-.282.372-.672.827-1.172 1.364l-1.96 2.096v.068h4.056v.938H89.31Zm12.123-11.54v14.352h-.852v-14.352h.852Z" fill="#898D9A"/><path d="M138.865 228.717h1.262l2.966 7.244h.102l2.966-7.244h1.261v8.727h-.988v-6.631h-.086l-2.727 6.631h-.954l-2.728-6.631h-.085v6.631h-.989v-8.727Zm12.466 8.88c-.415 0-.791-.078-1.129-.234a1.942 1.942 0 0 1-.806-.686c-.199-.301-.298-.665-.298-1.091 0-.375.074-.679.222-.912.147-.236.345-.42.592-.554.247-.134.52-.233.818-.298a10.1 10.1 0 0 1 .908-.162c.398-.051.72-.09.967-.115.25-.029.432-.076.546-.141.116-.065.174-.179.174-.341v-.034c0-.42-.115-.747-.345-.98-.227-.233-.572-.349-1.035-.349-.481 0-.857.105-1.13.315-.272.21-.464.435-.575.673l-.954-.341c.17-.397.397-.707.681-.929.287-.224.6-.38.938-.468a3.89 3.89 0 0 1 1.006-.137 4 4 0 0 1 .724.077c.276.048.541.149.797.302.258.154.473.385.643.695.171.31.256.724.256 1.244v4.313h-1.006v-.887h-.051a1.738 1.738 0 0 1-.341.456c-.159.162-.37.3-.635.414-.264.113-.586.17-.967.17Zm.153-.903c.398 0 .733-.078 1.006-.235.276-.156.483-.357.622-.605.142-.247.213-.507.213-.779v-.921c-.042.051-.136.098-.281.141a4.913 4.913 0 0 1-.494.106 21.302 21.302 0 0 1-.963.128c-.262.034-.506.09-.733.166a1.259 1.259 0 0 0-.546.337c-.136.148-.204.349-.204.605 0 .349.129.614.387.793.262.176.593.264.993.264Zm4.683.75v-6.546h.971v.989h.068c.12-.324.336-.587.648-.788a1.906 1.906 0 0 1 1.057-.303c.074 0 .166.002.277.004.111.003.194.007.251.013v1.023a2.784 2.784 0 0 0-.234-.038 2.292 2.292 0 0 0-.379-.03c-.319 0-.603.066-.853.2a1.513 1.513 0 0 0-.588.545 1.473 1.473 0 0 0-.213.789v4.142h-1.005Zm5.402-2.387-.017-1.244h.204l2.864-2.915h1.244l-3.051 3.086h-.085l-1.159 1.073Zm-.938 2.387v-8.727h1.006v8.727h-1.006Zm4.159 0-2.556-3.239.716-.699 3.119 3.938h-1.279Zm4.844.136c-.631 0-1.175-.139-1.633-.417a2.81 2.81 0 0 1-1.052-1.177c-.244-.505-.367-1.093-.367-1.764 0-.67.123-1.261.367-1.772a2.888 2.888 0 0 1 1.031-1.202c.443-.29.96-.435 1.551-.435.341 0 .678.057 1.01.171.333.113.635.298.908.554.273.252.49.588.652 1.005.162.418.243.932.243 1.543v.426h-5.046v-.869h4.023c0-.37-.074-.699-.222-.989a1.663 1.663 0 0 0-.622-.686 1.738 1.738 0 0 0-.946-.251c-.4 0-.747.099-1.04.298a1.976 1.976 0 0 0-.669.767 2.254 2.254 0 0 0-.234 1.014v.58c0 .494.085.913.256 1.257.173.341.413.601.72.78.307.176.663.264 1.07.264.264 0 .502-.037.715-.111a1.54 1.54 0 0 0 .559-.341c.156-.153.277-.344.362-.571l.971.273a2.158 2.158 0 0 1-.515.869c-.242.247-.54.44-.895.58a3.325 3.325 0 0 1-1.197.204Zm7.086-6.682v.853h-3.392v-.853h3.392Zm-2.403-1.568h1.005v6.239c0 .284.042.497.124.639a.637.637 0 0 0 .324.281c.133.046.274.068.422.068a1.694 1.694 0 0 0 .443-.051l.204.904a2.05 2.05 0 0 1-.285.076 2.065 2.065 0 0 1-.465.043c-.284 0-.562-.061-.835-.183a1.656 1.656 0 0 1-.673-.558c-.176-.25-.264-.566-.264-.946v-6.512Z" fill="#575C66"/><circle cx="127.58" cy="233.563" r="5" fill="#840F87"/><path d="M209.958 237.444v-6.546h.971v1.023h.085a1.65 1.65 0 0 1 .661-.814c.304-.196.669-.294 1.095-.294.432 0 .791.098 1.078.294.29.193.516.465.678.814h.068a1.91 1.91 0 0 1 .754-.805c.335-.202.737-.303 1.206-.303.585 0 1.064.183 1.436.55.372.364.558.93.558 1.7v4.381h-1.005v-4.381c0-.483-.132-.828-.397-1.035a1.462 1.462 0 0 0-.933-.311c-.46 0-.817.139-1.069.417-.253.276-.38.625-.38 1.048v4.262h-1.022v-4.483c0-.372-.121-.672-.363-.899-.241-.23-.552-.345-.933-.345-.261 0-.505.069-.733.208-.224.14-.406.333-.545.58a1.704 1.704 0 0 0-.205.848v4.091h-1.005Zm12.355.153c-.414 0-.791-.078-1.129-.234a1.94 1.94 0 0 1-.805-.686c-.199-.301-.299-.665-.299-1.091 0-.375.074-.679.222-.912.148-.236.345-.42.592-.554.248-.134.52-.233.819-.298.301-.068.603-.122.907-.162.398-.051.72-.09.968-.115.25-.029.431-.076.545-.141.116-.065.175-.179.175-.341v-.034c0-.42-.115-.747-.345-.98-.228-.233-.573-.349-1.036-.349-.48 0-.857.105-1.129.315-.273.21-.465.435-.576.673l-.954-.341c.17-.397.398-.707.682-.929.287-.224.599-.38.937-.468a3.89 3.89 0 0 1 1.006-.137c.21 0 .452.026.724.077.276.048.542.149.797.302.259.154.473.385.644.695.17.31.255.724.255 1.244v4.313h-1.005v-.887h-.051a1.76 1.76 0 0 1-.341.456c-.159.162-.371.3-.635.414-.264.113-.587.17-.968.17Zm.154-.903c.398 0 .733-.078 1.005-.235a1.593 1.593 0 0 0 .836-1.384v-.921c-.043.051-.137.098-.282.141a4.853 4.853 0 0 1-.494.106 21.302 21.302 0 0 1-.963.128c-.261.034-.506.09-.733.166a1.261 1.261 0 0 0-.545.337c-.137.148-.205.349-.205.605 0 .349.129.614.388.793.261.176.592.264.993.264Zm7.341.886c-.614 0-1.142-.145-1.585-.434a2.837 2.837 0 0 1-1.023-1.198c-.239-.508-.358-1.089-.358-1.743 0-.665.122-1.251.367-1.76.247-.511.591-.91 1.031-1.197.443-.29.96-.435 1.551-.435.46 0 .875.085 1.244.256.37.17.672.409.908.716s.382.665.439 1.074h-1.006a1.553 1.553 0 0 0-.511-.793c-.261-.233-.614-.349-1.057-.349-.392 0-.736.102-1.031.306a2.002 2.002 0 0 0-.686.857c-.162.366-.243.797-.243 1.291 0 .506.079.946.238 1.321.162.375.39.666.682.874.296.207.642.311 1.04.311.261 0 .499-.046.712-.137a1.454 1.454 0 0 0 .856-1.005h1.006a2.34 2.34 0 0 1-.422 1.044 2.364 2.364 0 0 1-.882.733c-.364.179-.787.268-1.27.268Zm4.692 2.318c-.171 0-.323-.014-.456-.042a1.19 1.19 0 0 1-.277-.077l.256-.886c.244.062.46.085.647.068a.775.775 0 0 0 .499-.252c.148-.147.283-.387.405-.72l.187-.511-2.42-6.58h1.091l1.806 5.216h.069l1.806-5.216h1.091l-2.778 7.5c-.125.338-.28.618-.465.84a1.73 1.73 0 0 1-.643.498 1.98 1.98 0 0 1-.818.162Zm10.668-7.534-.903.256a1.673 1.673 0 0 0-.252-.439 1.217 1.217 0 0 0-.443-.358c-.187-.094-.427-.141-.72-.141-.401 0-.734.093-1.001.277-.265.182-.397.414-.397.695 0 .25.091.448.273.592.182.145.466.266.852.363l.972.238c.585.142 1.021.36 1.308.652.287.29.43.664.43 1.121 0 .375-.107.71-.323 1.006a2.16 2.16 0 0 1-.895.699c-.384.17-.83.255-1.338.255-.668 0-1.221-.145-1.658-.434-.438-.29-.715-.714-.831-1.27l.955-.239c.09.352.262.617.515.793.256.176.59.264 1.002.264.468 0 .841-.1 1.116-.298.278-.202.418-.444.418-.725a.763.763 0 0 0-.239-.571c-.159-.156-.403-.273-.733-.349l-1.091-.256c-.599-.142-1.04-.362-1.321-.661-.278-.301-.417-.677-.417-1.129 0-.369.103-.696.311-.98.21-.284.495-.507.856-.669a3.01 3.01 0 0 1 1.236-.243c.648 0 1.156.142 1.526.426.372.284.636.659.792 1.125Zm2.366 5.148a.737.737 0 0 1-.541-.226.74.74 0 0 1-.226-.541.74.74 0 0 1 .226-.541.737.737 0 0 1 .541-.226c.21 0 .391.075.541.226.151.15.226.331.226.541a.726.726 0 0 1-.106.384.801.801 0 0 1-.277.281.735.735 0 0 1-.384.102Zm5.231.068c-.614 0-1.142-.145-1.585-.434a2.837 2.837 0 0 1-1.023-1.198c-.238-.508-.358-1.089-.358-1.743 0-.665.122-1.251.367-1.76.247-.511.591-.91 1.031-1.197.443-.29.96-.435 1.551-.435.46 0 .875.085 1.244.256.37.17.672.409.908.716s.382.665.439 1.074h-1.006a1.553 1.553 0 0 0-.511-.793c-.261-.233-.614-.349-1.057-.349-.392 0-.736.102-1.031.306a2.002 2.002 0 0 0-.686.857c-.162.366-.243.797-.243 1.291 0 .506.079.946.239 1.321.161.375.389.666.681.874.296.207.642.311 1.04.311.261 0 .499-.046.712-.137a1.454 1.454 0 0 0 .856-1.005h1.006a2.329 2.329 0 0 1-1.304 1.777c-.364.179-.787.268-1.27.268Zm6.703 0c-.591 0-1.109-.14-1.555-.422a2.863 2.863 0 0 1-1.04-1.18c-.247-.506-.371-1.097-.371-1.773 0-.682.124-1.277.371-1.785.25-.509.597-.904 1.04-1.185.446-.281.964-.422 1.555-.422s1.108.141 1.551.422c.446.281.793.676 1.04 1.185.25.508.375 1.103.375 1.785 0 .676-.125 1.267-.375 1.773a2.822 2.822 0 0 1-1.04 1.18c-.443.282-.96.422-1.551.422Zm0-.903c.449 0 .818-.115 1.108-.345.29-.23.504-.533.644-.908.139-.375.208-.781.208-1.219 0-.437-.069-.845-.208-1.223a2.065 2.065 0 0 0-.644-.916c-.29-.233-.659-.349-1.108-.349-.449 0-.818.116-1.108.349-.29.233-.504.538-.643.916a3.518 3.518 0 0 0-.209 1.223c0 .438.07.844.209 1.219.139.375.353.678.643.908.29.23.659.345 1.108.345Zm4.501.767v-6.546h.972v1.023h.085c.136-.349.357-.621.661-.814.304-.196.669-.294 1.095-.294.432 0 .791.098 1.078.294.29.193.516.465.677.814h.069c.167-.338.419-.606.754-.805.335-.202.737-.303 1.206-.303.585 0 1.064.183 1.436.55.372.364.558.93.558 1.7v4.381h-1.005v-4.381c0-.483-.133-.828-.397-1.035a1.462 1.462 0 0 0-.933-.311c-.46 0-.817.139-1.07.417-.252.276-.379.625-.379 1.048v4.262h-1.023v-4.483c0-.372-.12-.672-.362-.899-.241-.23-.552-.345-.933-.345a1.38 1.38 0 0 0-.733.208c-.224.14-.406.333-.545.58a1.704 1.704 0 0 0-.205.848v4.091h-1.006Z" fill="#575C66"/><circle cx="198.809" cy="233.563" r="5" fill="#FFC200"/><path fill="#E9EBEF" d="M68 282.093h330.026v.522H68zM68 300.355h330.026v.522H68zM68 318.096h330.026v.522H68zM68 336.358h330.026v.522H68z"/><path d="M51.75 360.024c-.535 0-.99-.145-1.367-.437-.377-.293-.664-.718-.863-1.274-.199-.559-.298-1.234-.298-2.025 0-.786.099-1.457.298-2.013.201-.559.49-.985.866-1.278.38-.296.834-.444 1.364-.444.53 0 .984.148 1.36.444.379.293.668.719.867 1.278.2.556.301 1.227.301 2.013 0 .791-.099 1.466-.298 2.025-.199.556-.486.981-.863 1.274-.376.292-.832.437-1.367.437Zm0-.781c.53 0 .942-.256 1.236-.767.293-.511.44-1.241.44-2.188 0-.629-.067-1.166-.202-1.608-.133-.443-.325-.78-.576-1.012a1.27 1.27 0 0 0-.898-.348c-.526 0-.936.259-1.232.777-.296.516-.444 1.247-.444 2.191 0 .63.066 1.165.199 1.606.132.44.323.775.571 1.005.251.229.553.344.906.344Zm7.585-.682v-.383c0-.266.055-.508.164-.728.11-.223.272-.4.482-.533.214-.135.472-.202.775-.202.307 0 .566.067.774.202.208.133.366.31.472.533.107.22.16.462.16.728v.383c0 .265-.054.509-.163.732a1.29 1.29 0 0 1-.476.532c-.209.133-.464.199-.767.199-.308 0-.567-.066-.778-.199a1.315 1.315 0 0 1-.48-.532 1.646 1.646 0 0 1-.163-.732Zm.725-.383v.383c0 .22.052.418.156.593.104.173.284.259.54.259.248 0 .423-.086.525-.259.104-.175.157-.373.157-.593v-.383c0-.221-.05-.417-.15-.59-.1-.175-.277-.263-.532-.263-.249 0-.428.088-.537.263a1.1 1.1 0 0 0-.16.59Zm-4.347-3.779v-.383c0-.265.054-.508.163-.728.112-.223.273-.4.483-.533.213-.135.471-.202.774-.202.308 0 .566.067.775.202.208.133.365.31.472.533.106.22.16.463.16.728v.383c0 .265-.055.509-.164.732a1.29 1.29 0 0 1-.475.532c-.209.133-.464.199-.768.199-.307 0-.567-.066-.777-.199a1.315 1.315 0 0 1-.48-.532 1.645 1.645 0 0 1-.163-.732Zm.724-.383v.383c0 .22.053.418.157.593.104.173.284.26.54.26.248 0 .423-.087.525-.26.104-.175.156-.373.156-.593v-.383c0-.22-.05-.417-.149-.59-.1-.175-.277-.263-.532-.263-.25 0-.428.088-.537.263-.106.173-.16.37-.16.59Zm-.454 5.909 5-7.273h.81l-5 7.273h-.81ZM45.663 289.062c-.468 0-.886-.081-1.253-.242a2.142 2.142 0 0 1-.87-.671 1.805 1.805 0 0 1-.348-1.005h.895c.019.235.1.437.241.607.142.169.328.299.558.391.23.092.484.139.763.139a2 2 0 0 0 .831-.164c.242-.109.431-.26.568-.454.138-.194.206-.419.206-.675 0-.268-.066-.503-.199-.707a1.317 1.317 0 0 0-.582-.483c-.256-.116-.568-.174-.938-.174h-.582v-.781h.582c.29 0 .543-.052.76-.156a1.178 1.178 0 0 0 .703-1.108 1.23 1.23 0 0 0-.163-.643 1.12 1.12 0 0 0-.461-.426 1.492 1.492 0 0 0-.696-.153c-.251 0-.488.046-.71.139-.22.09-.4.221-.54.394-.14.17-.216.376-.228.618h-.852c.014-.381.129-.715.345-1.002.215-.288.497-.513.845-.674.35-.161.735-.242 1.154-.242.45 0 .836.091 1.157.274.322.18.57.418.743.713.172.296.259.616.259.959 0 .41-.108.759-.323 1.048a1.635 1.635 0 0 1-.87.6v.057c.459.076.818.271 1.076.586.258.312.387.699.387 1.161 0 .395-.108.75-.323 1.065a2.193 2.193 0 0 1-.874.739c-.37.18-.79.27-1.26.27Zm3.91-.1v-.639l2.4-2.628c.282-.307.514-.575.697-.802.182-.23.317-.445.405-.647.09-.203.134-.416.134-.639 0-.255-.061-.477-.184-.664a1.2 1.2 0 0 0-.497-.433 1.609 1.609 0 0 0-.71-.153c-.28 0-.524.058-.732.174a1.202 1.202 0 0 0-.48.48 1.5 1.5 0 0 0-.166.724h-.838c0-.426.098-.8.294-1.122.197-.322.464-.573.803-.753.34-.18.723-.27 1.147-.27.426 0 .804.09 1.133.27.329.18.587.423.774.728.187.306.28.645.28 1.019 0 .268-.048.529-.145.785-.095.253-.26.536-.497.849-.235.31-.56.689-.977 1.136l-1.633 1.747v.057h3.38v.781h-4.588Zm9.762-1.363v-.384c0-.265.055-.508.164-.728.11-.222.272-.4.482-.532.214-.135.472-.203.775-.203.307 0 .566.068.774.203.208.132.366.31.472.532.107.22.16.463.16.728v.384c0 .265-.054.509-.163.731-.107.22-.266.398-.476.533-.209.133-.464.199-.767.199-.308 0-.567-.066-.778-.199a1.317 1.317 0 0 1-.48-.533 1.638 1.638 0 0 1-.163-.731Zm.725-.384v.384c0 .22.052.418.156.593.104.173.284.259.54.259.248 0 .423-.086.525-.259.104-.175.157-.373.157-.593v-.384c0-.22-.05-.416-.15-.589-.1-.175-.277-.263-.532-.263-.249 0-.428.088-.537.263-.106.173-.16.369-.16.589Zm-4.347-3.778v-.384c0-.265.054-.508.163-.728.112-.222.273-.4.483-.532.213-.135.471-.203.774-.203.308 0 .566.068.775.203.208.132.365.31.472.532.106.22.16.463.16.728v.384c0 .265-.055.509-.164.731a1.286 1.286 0 0 1-.475.533c-.209.133-.464.199-.768.199-.307 0-.567-.066-.777-.199a1.311 1.311 0 0 1-.48-.533 1.638 1.638 0 0 1-.163-.731Zm.724-.384v.384c0 .22.053.418.157.593.104.173.284.259.54.259.248 0 .423-.086.525-.259.104-.175.156-.373.156-.593v-.384c0-.22-.05-.416-.149-.589-.1-.175-.277-.263-.532-.263-.25 0-.428.088-.537.263a1.1 1.1 0 0 0-.16.589Zm-.454 5.909 5-7.272h.81l-5 7.272h-.81ZM43.313 306.703v-.639l2.401-2.628c.282-.308.514-.575.696-.802.182-.23.317-.446.405-.647a1.56 1.56 0 0 0 .135-.639 1.18 1.18 0 0 0-.185-.664 1.199 1.199 0 0 0-.497-.433 1.609 1.609 0 0 0-.71-.153c-.28 0-.523.058-.732.174a1.199 1.199 0 0 0-.48.479 1.504 1.504 0 0 0-.166.725h-.838c0-.426.098-.8.294-1.122.197-.322.465-.573.803-.753.341-.18.723-.27 1.147-.27.426 0 .804.09 1.133.27.329.18.587.422.774.728.187.305.28.645.28 1.019 0 .268-.048.529-.145.785-.095.253-.26.536-.497.849-.234.31-.56.688-.977 1.136l-1.633 1.747v.057h3.38v.781h-4.588Zm5.728-1.491v-.725l3.196-5.057h.526v1.123h-.355l-2.415 3.821v.056h4.304v.782h-5.256Zm3.424 1.491v-7.273h.838v7.273h-.838Zm6.87-1.364v-.383c0-.265.055-.508.164-.728.11-.223.272-.4.482-.533.214-.135.472-.202.775-.202.307 0 .566.067.774.202.208.133.366.31.472.533.107.22.16.463.16.728v.383c0 .266-.054.509-.163.732-.107.22-.266.398-.476.533a1.405 1.405 0 0 1-.767.199c-.308 0-.567-.067-.778-.199a1.317 1.317 0 0 1-.48-.533 1.642 1.642 0 0 1-.163-.732Zm.725-.383v.383c0 .221.052.418.156.594.104.172.284.259.54.259.248 0 .423-.087.525-.259.104-.176.157-.373.157-.594v-.383c0-.22-.05-.417-.15-.59-.1-.175-.277-.262-.532-.262-.249 0-.428.087-.537.262-.106.173-.16.37-.16.59Zm-4.347-3.778v-.384c0-.265.054-.508.163-.728.112-.222.273-.4.483-.533.213-.135.471-.202.774-.202.308 0 .566.067.775.202.208.133.365.311.472.533.106.22.16.463.16.728v.384c0 .265-.055.509-.164.731-.106.22-.265.398-.475.533a1.406 1.406 0 0 1-.768.199c-.307 0-.567-.067-.777-.199a1.317 1.317 0 0 1-.48-.533 1.638 1.638 0 0 1-.163-.731Zm.724-.384v.384c0 .22.053.417.157.593.104.172.284.259.54.259.248 0 .423-.087.525-.259a1.14 1.14 0 0 0 .156-.593v-.384c0-.22-.05-.417-.149-.589-.1-.176-.277-.263-.532-.263-.25 0-.428.087-.537.263-.106.172-.16.369-.16.589Zm-.454 5.909 5-7.273h.81l-5 7.273h-.81ZM47.296 317.171v7.272h-.88v-6.349h-.043l-1.776 1.179v-.895l1.818-1.207h.881Zm4.506 7.372a2.727 2.727 0 0 1-.895-.171 2.144 2.144 0 0 1-.816-.55c-.247-.261-.444-.612-.593-1.055-.15-.445-.224-1.004-.224-1.676 0-.644.06-1.214.181-1.712.12-.499.296-.919.526-1.26.23-.343.506-.604.83-.781a2.27 2.27 0 0 1 1.105-.267c.407 0 .77.082 1.087.245.32.161.58.386.78.675.202.289.332.621.392.998h-.867a1.603 1.603 0 0 0-.469-.813c-.232-.216-.54-.324-.923-.324-.563 0-1.007.245-1.332.736-.322.49-.484 1.177-.486 2.063h.057a2.14 2.14 0 0 1 1.083-.849c.222-.078.458-.117.706-.117.417 0 .798.104 1.144.312.346.206.623.492.83.856.21.362.313.778.313 1.247 0 .449-.1.861-.302 1.235a2.296 2.296 0 0 1-.848.888c-.362.218-.789.325-1.279.32Zm0-.781c.299 0 .566-.075.803-.224.239-.149.427-.349.565-.6.14-.251.21-.531.21-.838 0-.301-.068-.574-.203-.821a1.55 1.55 0 0 0-.55-.593 1.454 1.454 0 0 0-.796-.22c-.225 0-.435.045-.629.135a1.626 1.626 0 0 0-.511.362 1.76 1.76 0 0 0-.341.529 1.677 1.677 0 0 0 .64 2.039c.238.154.51.231.812.231Zm7.533-.682v-.384c0-.265.055-.508.164-.728.11-.222.272-.4.482-.532.214-.135.472-.203.775-.203.307 0 .566.068.774.203.208.132.366.31.472.532.107.22.16.463.16.728v.384c0 .265-.054.509-.163.731-.107.22-.266.398-.476.533-.209.133-.464.199-.767.199-.308 0-.567-.066-.778-.199a1.317 1.317 0 0 1-.48-.533 1.638 1.638 0 0 1-.163-.731Zm.725-.384v.384c0 .22.052.418.156.593.104.173.284.259.54.259.248 0 .423-.086.525-.259.104-.175.157-.373.157-.593v-.384c0-.22-.05-.416-.15-.589-.1-.175-.277-.263-.532-.263-.249 0-.428.088-.537.263-.106.173-.16.369-.16.589Zm-4.347-3.778v-.384c0-.265.054-.508.163-.728.112-.222.273-.4.483-.532.213-.135.471-.203.774-.203.308 0 .566.068.775.203.208.132.365.31.472.532.106.22.16.463.16.728v.384c0 .265-.055.509-.164.731-.106.22-.265.398-.475.533-.209.133-.464.199-.768.199-.307 0-.567-.066-.777-.199a1.317 1.317 0 0 1-.48-.533 1.638 1.638 0 0 1-.163-.731Zm.724-.384v.384c0 .22.053.418.157.593.104.173.284.259.54.259.248 0 .423-.086.525-.259.104-.175.156-.373.156-.593v-.384c0-.22-.05-.416-.149-.589-.1-.175-.277-.263-.532-.263-.25 0-.428.088-.537.263a1.1 1.1 0 0 0-.16.589Zm-.454 5.909 5-7.272h.81l-5 7.272h-.81ZM51.795 342.284c-.487 0-.918-.087-1.292-.26a2.113 2.113 0 0 1-.87-.721 1.809 1.809 0 0 1-.31-1.051 1.93 1.93 0 0 1 .686-1.509c.215-.178.456-.29.72-.337v-.043a1.403 1.403 0 0 1-.83-.586 1.773 1.773 0 0 1-.305-1.033c-.003-.37.09-.7.28-.991.19-.291.45-.521.781-.689a2.5 2.5 0 0 1 1.14-.252c.422 0 .798.084 1.13.252.331.168.591.398.78.689.193.291.29.621.292.991a1.8 1.8 0 0 1-.316 1.033c-.206.301-.48.496-.82.586v.043c.262.047.5.159.71.337.21.175.379.394.504.657.126.26.19.544.192.852a1.835 1.835 0 0 1-.32 1.051 2.113 2.113 0 0 1-.87.721c-.37.173-.796.26-1.282.26Zm0-.782c.33 0 .613-.053.852-.16.24-.106.424-.256.555-.451.13-.194.196-.421.198-.681a1.306 1.306 0 0 0-.213-.728 1.437 1.437 0 0 0-.571-.497 1.792 1.792 0 0 0-.82-.182c-.31 0-.588.061-.832.182-.241.12-.432.286-.571.497a1.28 1.28 0 0 0-.203.728c-.002.26.06.487.188.681.13.195.316.345.558.451.241.107.528.16.86.16Zm0-3.451c.26 0 .491-.053.693-.157.203-.104.363-.249.48-.436.115-.188.174-.406.177-.657a1.211 1.211 0 0 0-.174-.643 1.123 1.123 0 0 0-.473-.426 1.535 1.535 0 0 0-.703-.153c-.272 0-.51.051-.714.153a1.096 1.096 0 0 0-.472.426 1.185 1.185 0 0 0-.163.643 1.22 1.22 0 0 0 .167.657c.116.187.276.332.48.436.203.104.437.157.702.157Zm7.54 2.769v-.383c0-.265.055-.508.164-.728.11-.223.272-.4.482-.533.214-.135.472-.202.775-.202.307 0 .566.067.774.202.208.133.366.31.472.533.107.22.16.463.16.728v.383c0 .266-.054.509-.163.732-.107.22-.266.398-.476.533a1.405 1.405 0 0 1-.767.199c-.308 0-.567-.067-.778-.199a1.317 1.317 0 0 1-.48-.533 1.642 1.642 0 0 1-.163-.732Zm.725-.383v.383c0 .221.052.418.156.593.104.173.284.26.54.26.248 0 .423-.087.525-.26.104-.175.157-.372.157-.593v-.383c0-.22-.05-.417-.15-.59-.1-.175-.277-.262-.532-.262-.249 0-.428.087-.537.262-.106.173-.16.37-.16.59Zm-4.347-3.778v-.384c0-.265.054-.508.163-.728.112-.223.273-.4.483-.533.213-.135.471-.202.774-.202.308 0 .566.067.775.202.208.133.365.31.472.533.106.22.16.463.16.728v.384c0 .265-.055.509-.164.731-.106.22-.265.398-.475.533a1.406 1.406 0 0 1-.768.199c-.307 0-.567-.067-.777-.199a1.317 1.317 0 0 1-.48-.533 1.638 1.638 0 0 1-.163-.731Zm.724-.384v.384c0 .22.053.417.157.593.104.172.284.259.54.259.248 0 .423-.087.525-.259a1.14 1.14 0 0 0 .156-.593v-.384c0-.22-.05-.417-.149-.589-.1-.176-.277-.263-.532-.263-.25 0-.428.087-.537.263-.106.172-.16.369-.16.589Zm-.454 5.909 5-7.273h.81l-5 7.273h-.81Z" fill="#575C66"/><path fill="#898D9A" d="M70.772 354.703h330.026v.774H70.772z"/><path d="M87.114 361.298v7.273h-.88v-6.35h-.043l-1.776 1.179v-.895l1.818-1.207h.881Zm4.421 7.372c-.487 0-.918-.086-1.292-.259a2.112 2.112 0 0 1-.87-.721 1.811 1.811 0 0 1-.31-1.051 1.93 1.93 0 0 1 .686-1.509c.215-.178.456-.29.72-.338v-.042a1.403 1.403 0 0 1-.83-.586 1.776 1.776 0 0 1-.305-1.034 1.753 1.753 0 0 1 .28-.99c.19-.292.45-.521.781-.689a2.501 2.501 0 0 1 1.14-.252c.422 0 .798.084 1.13.252.33.168.591.397.78.689.193.291.29.621.292.99a1.802 1.802 0 0 1-.316 1.034c-.206.301-.48.496-.82.586v.042c.262.048.5.16.71.338.21.175.379.394.504.657.126.26.19.544.192.852a1.837 1.837 0 0 1-.32 1.051 2.112 2.112 0 0 1-.87.721c-.37.173-.796.259-1.282.259Zm0-.781c.33 0 .613-.053.853-.16.239-.106.423-.257.553-.451.13-.194.197-.421.2-.682a1.31 1.31 0 0 0-.214-.728c-.14-.21-.33-.376-.572-.497a1.792 1.792 0 0 0-.82-.181c-.31 0-.587.06-.83.181a1.453 1.453 0 0 0-.573.497 1.284 1.284 0 0 0-.202.728c-.002.261.06.488.188.682.13.194.316.345.558.451.241.107.528.16.86.16Zm0-3.452c.26 0 .492-.052.693-.156.203-.104.363-.25.48-.437.115-.187.174-.406.177-.657a1.21 1.21 0 0 0-.174-.642 1.132 1.132 0 0 0-.473-.427 1.548 1.548 0 0 0-.703-.152c-.272 0-.51.051-.714.152-.203.1-.36.242-.472.427a1.184 1.184 0 0 0-.163.642c-.003.251.053.47.167.657.116.187.276.333.48.437.203.104.437.156.702.156Zm6.972.107v.781h-3.182v-.781h3.182Zm1.119 4.027v-.639l2.4-2.628c.282-.308.514-.576.696-.803.182-.229.317-.445.405-.646.09-.204.135-.417.135-.639a1.18 1.18 0 0 0-.682-1.098 1.622 1.622 0 0 0-.71-.152c-.279 0-.523.058-.732.174a1.194 1.194 0 0 0-.479.479 1.507 1.507 0 0 0-.167.725h-.838c0-.427.098-.801.295-1.123a2.04 2.04 0 0 1 .802-.752 2.42 2.42 0 0 1 1.147-.27c.426 0 .804.09 1.133.27.329.179.587.422.774.728.187.305.281.645.281 1.019 0 .267-.049.529-.146.784-.094.254-.26.537-.497.849-.234.31-.56.689-.976 1.137l-1.634 1.747v.057h3.381v.781h-4.588Zm5.728-1.492v-.724l3.196-5.057h.525v1.122h-.355l-2.415 3.821v.057h4.304v.781h-5.255Zm3.423 1.492v-7.273h.838v7.273h-.838Z" fill="#575C66"/><path d="M76.772 327.271a2 2 0 0 1 2-2h14a2 2 0 0 1 2 2v27.445h-18v-27.445Z" fill="#840F87"/><path d="M99.252 331.291a2 2 0 0 1 2-2h14a2 2 0 0 1 2 2v23.425h-18v-23.425Z" fill="#FFC200"/><path d="M138.47 368.571v-.639l2.401-2.628c.282-.308.514-.576.696-.803.182-.229.317-.445.405-.646.09-.204.135-.417.135-.639a1.18 1.18 0 0 0-.682-1.098 1.625 1.625 0 0 0-.71-.152c-.28 0-.524.058-.732.174a1.188 1.188 0 0 0-.479.479 1.496 1.496 0 0 0-.167.725h-.838c0-.427.098-.801.294-1.123a2.04 2.04 0 0 1 .803-.752c.341-.18.723-.27 1.147-.27.426 0 .804.09 1.133.27.329.179.587.422.774.728.187.305.281.645.281 1.019 0 .267-.049.529-.146.784-.095.254-.26.537-.497.849-.235.31-.56.689-.977 1.137l-1.633 1.747v.057h3.38v.781h-4.588Zm8.328.099c-.417 0-.792-.083-1.126-.248a2.098 2.098 0 0 1-.803-.682 1.86 1.86 0 0 1-.33-.987h.852c.034.329.183.601.448.816.267.213.587.32.959.32.298 0 .563-.07.795-.21.235-.139.418-.331.551-.575.135-.246.202-.524.202-.834 0-.318-.07-.6-.209-.849a1.538 1.538 0 0 0-.569-.593 1.594 1.594 0 0 0-.827-.22 2.248 2.248 0 0 0-.685.103 1.876 1.876 0 0 0-.579.266l-.824-.099.44-3.58h3.779v.781h-3.04l-.256 2.145h.043a2.13 2.13 0 0 1 1.264-.412 2.234 2.234 0 0 1 2.013 1.186c.202.367.302.786.302 1.257 0 .464-.104.879-.312 1.243-.206.363-.49.649-.852.86a2.441 2.441 0 0 1-1.236.312Zm6.95-4.126v.781h-3.182v-.781h3.182Zm3.801 4.126c-.469 0-.887-.08-1.254-.241a2.159 2.159 0 0 1-.87-.671 1.806 1.806 0 0 1-.348-1.005h.895c.019.234.1.436.242.607.142.168.327.298.557.39.23.093.484.139.764.139.312 0 .589-.054.831-.163.241-.109.43-.261.568-.455a1.14 1.14 0 0 0 .206-.675c0-.267-.067-.503-.199-.706a1.319 1.319 0 0 0-.583-.483c-.255-.116-.568-.174-.937-.174h-.582v-.782h.582c.289 0 .542-.052.76-.156.22-.104.392-.251.515-.44.125-.19.188-.412.188-.668 0-.246-.054-.46-.163-.642a1.117 1.117 0 0 0-.462-.427 1.501 1.501 0 0 0-.696-.152c-.251 0-.488.046-.71.138-.22.09-.4.222-.54.394-.14.171-.215.377-.227.618h-.853c.015-.381.129-.715.345-1.001.215-.289.497-.514.845-.675.35-.161.735-.241 1.154-.241.45 0 .836.091 1.158.273.322.18.569.418.742.714.173.296.259.615.259.959 0 .409-.107.758-.323 1.047a1.635 1.635 0 0 1-.87.6v.057c.459.076.818.271 1.076.586.258.313.387.7.387 1.161 0 .396-.108.751-.323 1.066a2.195 2.195 0 0 1-.874.738c-.369.18-.789.27-1.26.27Zm3.739-1.591v-.724l3.196-5.057h.526v1.122h-.355l-2.415 3.821v.057h4.304v.781h-5.256Zm3.423 1.492v-7.273h.839v7.273h-.839Z" fill="#575C66"/><path d="M131.695 293.614a2 2 0 0 1 2-2h14a2 2 0 0 1 2 2v61.102h-18v-61.102Z" fill="#840F87"/><path d="M154.176 288.088a2 2 0 0 1 2-2h14a2 2 0 0 1 2 2v66.628h-18v-66.628Z" fill="#FFC200"/><path d="M195.627 368.67c-.469 0-.887-.08-1.254-.241a2.159 2.159 0 0 1-.87-.671 1.806 1.806 0 0 1-.348-1.005h.895c.019.234.1.436.242.607.142.168.328.298.557.39.23.093.484.139.764.139.312 0 .589-.054.831-.163.241-.109.431-.261.568-.455a1.14 1.14 0 0 0 .206-.675 1.26 1.26 0 0 0-.199-.706 1.322 1.322 0 0 0-.582-.483c-.256-.116-.569-.174-.938-.174h-.582v-.782h.582c.289 0 .542-.052.76-.156.22-.104.392-.251.515-.44.125-.19.188-.412.188-.668 0-.246-.054-.46-.163-.642a1.117 1.117 0 0 0-.462-.427 1.501 1.501 0 0 0-.696-.152c-.251 0-.488.046-.71.138-.22.09-.4.222-.54.394-.14.171-.215.377-.227.618h-.852c.014-.381.129-.715.344-1.001.215-.289.497-.514.845-.675a2.732 2.732 0 0 1 1.154-.241c.45 0 .836.091 1.158.273.322.18.569.418.742.714.173.296.259.615.259.959 0 .409-.107.758-.323 1.047a1.635 1.635 0 0 1-.87.6v.057c.46.076.818.271 1.076.586.258.313.387.7.387 1.161 0 .396-.107.751-.323 1.066a2.198 2.198 0 0 1-.873.738c-.37.18-.79.27-1.261.27Zm3.91-.099v-.639l2.4-2.628c.282-.308.514-.576.696-.803.183-.229.318-.445.405-.646.09-.204.135-.417.135-.639a1.172 1.172 0 0 0-.682-1.098 1.619 1.619 0 0 0-.71-.152c-.279 0-.523.058-.731.174a1.196 1.196 0 0 0-.48.479 1.507 1.507 0 0 0-.167.725h-.838c0-.427.098-.801.295-1.123.196-.322.464-.573.802-.752a2.42 2.42 0 0 1 1.147-.27c.427 0 .804.09 1.133.27.329.179.587.422.774.728.187.305.281.645.281 1.019 0 .267-.049.529-.146.784-.094.254-.26.537-.497.849-.234.31-.56.689-.976 1.137l-1.634 1.747v.057h3.381v.781h-4.588Zm9.194-4.027v.781h-3.182v-.781h3.182Zm1.29 2.535v-.724l3.196-5.057h.525v1.122h-.355l-2.415 3.821v.057h4.304v.781h-5.255Zm3.423 1.492v-7.273h.838v7.273h-.838Zm2.993-1.492v-.724l3.196-5.057h.525v1.122h-.355l-2.415 3.821v.057h4.304v.781h-5.255Zm3.423 1.492v-7.273h.838v7.273h-.838Z" fill="#575C66"/><path d="M186.619 309.861a2 2 0 0 1 2-2h14a2 2 0 0 1 2 2v44.856h-18v-44.856Z" fill="#840F87"/><path d="M209.1 303.159a2 2 0 0 1 2-2h14a2 2 0 0 1 2 2v51.558h-18v-51.558Z" fill="#FFC200"/><path d="M248.05 367.079v-.724l3.196-5.057h.525v1.122h-.355l-2.414 3.821v.057h4.304v.781h-5.256Zm3.423 1.492v-7.273h.838v7.273h-.838Zm5.436.099c-.417 0-.792-.083-1.126-.248a2.095 2.095 0 0 1-.802-.682 1.852 1.852 0 0 1-.33-.987h.852c.033.329.182.601.447.816.268.213.587.32.959.32.298 0 .564-.07.796-.21.234-.139.417-.331.55-.575.135-.246.202-.524.202-.834 0-.318-.069-.6-.209-.849a1.535 1.535 0 0 0-.568-.593 1.6 1.6 0 0 0-.828-.22 2.252 2.252 0 0 0-.685.103 1.898 1.898 0 0 0-.579.266l-.824-.099.441-3.58h3.778v.781h-3.04l-.256 2.145h.043a2.13 2.13 0 0 1 1.264-.412c.445 0 .842.107 1.19.32.35.211.625.499.824.866.201.367.302.786.302 1.257 0 .464-.105.879-.313 1.243-.206.363-.49.649-.852.86a2.436 2.436 0 0 1-1.236.312Zm6.951-4.126v.781h-3.182v-.781h3.182Zm3.733 4.126c-.417 0-.792-.083-1.126-.248a2.098 2.098 0 0 1-.803-.682 1.86 1.86 0 0 1-.33-.987h.852c.034.329.183.601.448.816.267.213.587.32.959.32.298 0 .563-.07.795-.21a1.48 1.48 0 0 0 .551-.575c.134-.246.202-.524.202-.834 0-.318-.07-.6-.21-.849a1.528 1.528 0 0 0-.568-.593 1.594 1.594 0 0 0-.827-.22 2.259 2.259 0 0 0-.686.103 1.88 1.88 0 0 0-.578.266l-.824-.099.44-3.58h3.779v.781h-3.04l-.256 2.145h.043a2.13 2.13 0 0 1 1.264-.412 2.234 2.234 0 0 1 2.013 1.186c.202.367.302.786.302 1.257 0 .464-.104.879-.312 1.243a2.28 2.28 0 0 1-.853.86 2.435 2.435 0 0 1-1.235.312Zm3.64-1.591v-.724l3.196-5.057h.526v1.122h-.355l-2.415 3.821v.057h4.304v.781h-5.256Zm3.424 1.492v-7.273h.838v7.273h-.838Z" fill="#575C66"/><path d="M241.543 308.685a2 2 0 0 1 2-2h14a2 2 0 0 1 2 2v46.032h-18v-46.032Z" fill="#840F87"/><path d="M264.023 314.256a2 2 0 0 1 2-2h14a2 2 0 0 1 2 2v40.46h-18v-40.46Z" fill="#FFC200"/><path d="M305.505 368.67c-.417 0-.792-.083-1.126-.248a2.087 2.087 0 0 1-.802-.682 1.853 1.853 0 0 1-.331-.987h.853c.033.329.182.601.447.816.267.213.587.32.959.32.298 0 .563-.07.795-.21.235-.139.418-.331.551-.575.135-.246.202-.524.202-.834 0-.318-.07-.6-.209-.849a1.538 1.538 0 0 0-.569-.593 1.594 1.594 0 0 0-.827-.22 2.248 2.248 0 0 0-.685.103 1.876 1.876 0 0 0-.579.266l-.824-.099.44-3.58h3.779v.781h-3.04l-.256 2.145h.043a2.13 2.13 0 0 1 1.264-.412 2.234 2.234 0 0 1 2.013 1.186c.202.367.302.786.302 1.257 0 .464-.104.879-.312 1.243-.206.363-.49.649-.852.86a2.441 2.441 0 0 1-1.236.312Zm6.084 0c-.417 0-.792-.083-1.126-.248a2.098 2.098 0 0 1-.803-.682 1.86 1.86 0 0 1-.33-.987h.853c.033.329.182.601.447.816.267.213.587.32.959.32.298 0 .563-.07.795-.21.235-.139.418-.331.551-.575.135-.246.202-.524.202-.834 0-.318-.07-.6-.209-.849a1.538 1.538 0 0 0-.569-.593 1.594 1.594 0 0 0-.827-.22 2.248 2.248 0 0 0-.685.103 1.876 1.876 0 0 0-.579.266l-.824-.099.44-3.58h3.779v.781h-3.04l-.256 2.145h.043a2.13 2.13 0 0 1 1.264-.412 2.234 2.234 0 0 1 2.013 1.186c.202.367.302.786.302 1.257 0 .464-.104.879-.312 1.243-.206.363-.49.649-.852.86a2.441 2.441 0 0 1-1.236.312Zm6.95-4.126v.781h-3.182v-.781h3.182Zm3.875 4.126a2.72 2.72 0 0 1-.894-.17 2.14 2.14 0 0 1-.817-.551c-.246-.26-.444-.612-.593-1.054-.149-.445-.224-1.004-.224-1.676 0-.644.06-1.215.181-1.712.121-.5.296-.92.526-1.261.229-.343.506-.603.831-.781a2.265 2.265 0 0 1 1.104-.266c.407 0 .769.081 1.087.245.319.161.58.386.781.674.201.289.331.622.391.998h-.867a1.604 1.604 0 0 0-.469-.813c-.232-.215-.539-.323-.923-.323-.563 0-1.007.245-1.332.735-.322.49-.484 1.178-.486 2.063h.057a2.134 2.134 0 0 1 1.083-.849c.222-.078.458-.117.706-.117.417 0 .798.104 1.144.313a2.3 2.3 0 0 1 .831.856c.208.362.312.777.312 1.246 0 .45-.1.862-.301 1.236a2.313 2.313 0 0 1-.849.888c-.362.217-.789.324-1.279.319Zm0-.781c.299 0 .566-.075.803-.224.239-.149.427-.349.565-.6a1.7 1.7 0 0 0 .209-.838c0-.301-.067-.574-.202-.82a1.535 1.535 0 0 0-.551-.593 1.453 1.453 0 0 0-.795-.22c-.225 0-.435.045-.629.134a1.632 1.632 0 0 0-.511.363 1.74 1.74 0 0 0-.341.529 1.683 1.683 0 0 0 .639 2.038c.239.154.51.231.813.231Zm3.655-.81v-.724l3.196-5.057h.526v1.122h-.355l-2.415 3.821v.057h4.304v.781h-5.256Zm3.424 1.492v-7.273h.838v7.273h-.838Z" fill="#575C66"/><path d="M296.467 321.244a2 2 0 0 1 2-2h14a2 2 0 0 1 2 2v33.472h-18v-33.472Z" fill="#840F87"/><path d="M318.947 324.258a2 2 0 0 1 2-2h14a2 2 0 0 1 2 2v30.458h-18v-30.458Z" fill="#FFC200"/><path d="M365.825 368.67a2.721 2.721 0 0 1-.895-.17 2.14 2.14 0 0 1-.817-.551c-.246-.26-.444-.612-.593-1.054-.149-.445-.224-1.004-.224-1.676 0-.644.061-1.215.181-1.712.121-.5.296-.92.526-1.261.229-.343.506-.603.831-.781a2.268 2.268 0 0 1 1.104-.266c.407 0 .77.081 1.087.245.319.161.58.386.781.674.201.289.332.622.391.998h-.867a1.604 1.604 0 0 0-.469-.813c-.232-.215-.539-.323-.923-.323-.563 0-1.007.245-1.331.735-.322.49-.485 1.178-.487 2.063h.057a2.134 2.134 0 0 1 1.083-.849c.222-.078.458-.117.707-.117.416 0 .797.104 1.143.313a2.3 2.3 0 0 1 .831.856c.208.362.313.777.313 1.246 0 .45-.101.862-.302 1.236a2.306 2.306 0 0 1-.849.888c-.362.217-.788.324-1.278.319Zm0-.781c.298 0 .565-.075.802-.224.239-.149.427-.349.565-.6a1.7 1.7 0 0 0 .209-.838c0-.301-.067-.574-.202-.82a1.535 1.535 0 0 0-.551-.593 1.453 1.453 0 0 0-.795-.22c-.225 0-.434.045-.629.134a1.632 1.632 0 0 0-.511.363 1.76 1.76 0 0 0-.341.529 1.683 1.683 0 0 0 .639 2.038c.239.154.511.231.814.231Zm6.098.781c-.417 0-.792-.083-1.126-.248a2.098 2.098 0 0 1-.803-.682 1.86 1.86 0 0 1-.33-.987h.852c.034.329.183.601.448.816.267.213.587.32.959.32.298 0 .563-.07.795-.21.235-.139.418-.331.551-.575.135-.246.202-.524.202-.834 0-.318-.07-.6-.209-.849a1.538 1.538 0 0 0-.569-.593 1.594 1.594 0 0 0-.827-.22 2.248 2.248 0 0 0-.685.103 1.876 1.876 0 0 0-.579.266l-.824-.099.44-3.58h3.779v.781h-3.04l-.256 2.145h.043a2.13 2.13 0 0 1 1.264-.412 2.234 2.234 0 0 1 2.013 1.186c.202.367.302.786.302 1.257 0 .464-.104.879-.312 1.243-.206.363-.49.649-.852.86a2.441 2.441 0 0 1-1.236.312Zm5.956-1.378v-4.687h.795v4.687h-.795Zm-1.946-1.946v-.795h4.687v.795h-4.687Z" fill="#575C66"/><path d="M351.391 325.765a2 2 0 0 1 2-2h14a2 2 0 0 1 2 2v28.952h-18v-28.952Z" fill="#840F87"/><path d="M373.871 329.784a2 2 0 0 1 2-2h14a2 2 0 0 1 2 2v24.932h-18v-24.932Z" fill="#FFC200"/><path d="m42.187 266.476 1.68-.002.98-2.69 3.263-.004.989 2.687 1.752-.003-3.447-8.995-1.8.002-3.417 9.005Zm3.197-4.156 1.087-2.966 1.097 2.963-2.184.003Zm5.956 1.072c.003 1.764 1.253 3.058 2.909 3.056a2.499 2.499 0 0 0 1.787-.735v.756c.002.852-.537 1.357-1.509 1.358-.78.001-1.248-.334-1.394-.958l-1.559.302c.218 1.164 1.227 2.051 2.956 2.048 1.931-.002 3.033-1.228 3.03-2.86l-.01-5.916-1.367.002-.095.66a2.483 2.483 0 0 0-1.85-.789c-1.655.002-2.901 1.3-2.898 3.076Zm1.596-.002c-.002-1.008.609-1.669 1.545-1.671.924-.001 1.55.658 1.55 1.666.002.996-.62 1.669-1.544 1.67-.937.002-1.55-.669-1.551-1.665Zm9.112 3.179c1.453-.002 2.495-.687 2.853-1.887l-1.416-.287c-.191.505-.647.853-1.439.854-.864.002-1.476-.406-1.622-1.341l4.464-.006c.048-.228.071-.469.07-.685-.002-1.74-1.228-2.914-2.992-2.912-1.824.003-3.106 1.349-3.103 3.173.003 1.788 1.194 3.094 3.185 3.091Zm-.08-5.004c.768-.001 1.26.419 1.394 1.175l-2.892.003c.215-.792.802-1.177 1.498-1.178Z" fill="#171A22"/><path d="M76.129 257.98c-.27 0-.528.099-.72.274a.895.895 0 0 0-.297.66c0 .247.107.485.298.66.19.175.45.273.719.273.27 0 .528-.098.719-.273a.897.897 0 0 0 .298-.66.896.896 0 0 0-.298-.66 1.065 1.065 0 0 0-.719-.274Zm-.244 2.969c-.807.062-3.01 1.673-3.01 1.673-.136.094-.095.087.013.262.109.168.095.18.224.099.136-.081.36-.211.732-.423 1.438-.846.23 1.108-.386 4.399-.244 1.63 1.356.79 1.77.542.406-.243 1.498-.934 1.606-1.002.15-.094.04-.168-.075-.324-.08-.106-.162-.031-.162-.031-.44.268-1.248.828-1.356.473-.129-.355.698-2.788 1.152-4.461.075-.399.278-1.27-.508-1.207Z" fill="#D1D4DB"/><path fill="#898D9A" d="M472.99 354.703h169.988v.774H472.99z"/><path fill="#E9EBEF" d="M472.99 282.093h169.988v.522H472.99zM472.99 300.355h169.988v.522H472.99zM472.99 318.096h169.988v.522H472.99zM472.99 336.358h169.988v.522H472.99z"/><path d="M456.74 360.024c-.535 0-.991-.145-1.367-.437-.376-.293-.664-.718-.863-1.274-.199-.559-.298-1.234-.298-2.025 0-.786.099-1.457.298-2.013.201-.559.49-.985.867-1.278.378-.296.833-.444 1.363-.444.531 0 .984.148 1.36.444.379.293.668.719.867 1.278.201.556.302 1.227.302 2.013 0 .791-.1 1.466-.299 2.025-.199.556-.486.981-.863 1.274-.376.292-.832.437-1.367.437Zm0-.781c.531 0 .942-.256 1.236-.767.294-.511.44-1.241.44-2.188 0-.629-.067-1.166-.202-1.608-.133-.443-.324-.78-.575-1.012a1.27 1.27 0 0 0-.899-.348c-.525 0-.936.259-1.232.777-.296.516-.444 1.247-.444 2.191 0 .63.066 1.165.199 1.606.133.44.323.775.572 1.005.251.229.552.344.905.344Zm7.585-.682v-.383c0-.266.055-.508.164-.728.111-.223.272-.4.483-.533.213-.135.471-.202.774-.202.308 0 .566.067.774.202.208.133.366.31.472.533.107.22.16.462.16.728v.383c0 .265-.054.509-.163.732-.107.22-.265.397-.476.532-.208.133-.464.199-.767.199-.308 0-.567-.066-.778-.199a1.32 1.32 0 0 1-.479-.532 1.645 1.645 0 0 1-.164-.732Zm.725-.383v.383c0 .22.052.418.156.593.104.173.284.259.54.259.248 0 .424-.086.525-.259a1.13 1.13 0 0 0 .157-.593v-.383c0-.221-.05-.417-.149-.59-.1-.175-.277-.263-.533-.263-.249 0-.427.088-.536.263-.107.173-.16.369-.16.59Zm-4.347-3.779v-.383c0-.265.055-.508.164-.728.111-.223.272-.4.483-.533.213-.135.471-.202.774-.202.308 0 .566.067.774.202.208.133.366.31.472.533.107.22.16.463.16.728v.383c0 .265-.054.509-.163.732-.107.22-.265.397-.476.532-.209.133-.464.199-.767.199-.308 0-.567-.066-.778-.199a1.312 1.312 0 0 1-.479-.532 1.645 1.645 0 0 1-.164-.732Zm.725-.383v.383c0 .22.052.418.156.593.104.173.284.26.54.26.248 0 .424-.087.525-.26a1.14 1.14 0 0 0 .157-.593v-.383c0-.22-.05-.417-.15-.59-.099-.175-.277-.263-.532-.263-.249 0-.428.088-.536.263-.107.173-.16.37-.16.59Zm-.455 5.909 5-7.273h.81l-5 7.273h-.81ZM446.026 281.69v7.272h-.88v-6.349h-.043l-1.775 1.179v-.895l1.818-1.207h.88Zm4.464 7.372c-.535 0-.991-.146-1.367-.437-.376-.294-.664-.718-.863-1.275-.199-.559-.298-1.233-.298-2.024 0-.786.099-1.457.298-2.013.201-.559.49-.985.867-1.279.378-.296.833-.444 1.363-.444.531 0 .984.148 1.36.444.379.294.668.72.867 1.279.201.556.302 1.227.302 2.013 0 .791-.1 1.465-.299 2.024-.199.557-.486.981-.863 1.275-.376.291-.832.437-1.367.437Zm0-.781c.531 0 .942-.256 1.236-.767.294-.512.44-1.241.44-2.188 0-.63-.067-1.166-.202-1.609-.133-.442-.324-.78-.575-1.012a1.27 1.27 0 0 0-.899-.348c-.525 0-.936.26-1.232.778-.296.516-.444 1.246-.444 2.191 0 .63.066 1.165.199 1.605.133.44.323.775.572 1.005.251.23.552.345.905.345Zm6.25.781c-.535 0-.991-.146-1.367-.437-.376-.294-.664-.718-.863-1.275-.199-.559-.298-1.233-.298-2.024 0-.786.099-1.457.298-2.013.201-.559.49-.985.867-1.279.378-.296.833-.444 1.363-.444.531 0 .984.148 1.36.444.379.294.668.72.867 1.279.201.556.302 1.227.302 2.013 0 .791-.1 1.465-.299 2.024-.199.557-.486.981-.863 1.275-.376.291-.832.437-1.367.437Zm0-.781c.531 0 .942-.256 1.236-.767.294-.512.44-1.241.44-2.188 0-.63-.067-1.166-.202-1.609-.133-.442-.324-.78-.575-1.012a1.27 1.27 0 0 0-.899-.348c-.525 0-.936.26-1.232.778-.296.516-.444 1.246-.444 2.191 0 .63.066 1.165.199 1.605.133.44.323.775.572 1.005.251.23.552.345.905.345Zm7.585-.682v-.384c0-.265.055-.508.164-.728.111-.222.272-.4.483-.532.213-.135.471-.203.774-.203.308 0 .566.068.774.203.208.132.366.31.472.532.107.22.16.463.16.728v.384c0 .265-.054.509-.163.731-.107.22-.265.398-.476.533-.208.133-.464.199-.767.199-.308 0-.567-.066-.778-.199a1.322 1.322 0 0 1-.479-.533 1.637 1.637 0 0 1-.164-.731Zm.725-.384v.384c0 .22.052.418.156.593.104.173.284.259.54.259.248 0 .424-.086.525-.259a1.13 1.13 0 0 0 .157-.593v-.384c0-.22-.05-.416-.149-.589-.1-.175-.277-.263-.533-.263-.249 0-.427.088-.536.263-.107.173-.16.369-.16.589Zm-4.347-3.778v-.384c0-.265.055-.508.164-.728.111-.222.272-.4.483-.532.213-.135.471-.203.774-.203.308 0 .566.068.774.203.208.132.366.31.472.532.107.22.16.463.16.728v.384c0 .265-.054.509-.163.731a1.288 1.288 0 0 1-.476.533c-.209.133-.464.199-.767.199-.308 0-.567-.066-.778-.199a1.309 1.309 0 0 1-.479-.533 1.637 1.637 0 0 1-.164-.731Zm.725-.384v.384c0 .22.052.418.156.593.104.173.284.259.54.259.248 0 .424-.086.525-.259a1.14 1.14 0 0 0 .157-.593v-.384c0-.22-.05-.416-.15-.589-.099-.175-.277-.263-.532-.263-.249 0-.428.088-.536.263-.107.173-.16.369-.16.589Zm-.455 5.909 5-7.272h.81l-5 7.272h-.81ZM449.146 306.703l3.253-6.435v-.056h-3.75v-.782h4.659v.824l-3.239 6.449h-.923Zm7.661.1c-.417 0-.792-.083-1.126-.249a2.087 2.087 0 0 1-.802-.682 1.853 1.853 0 0 1-.331-.987h.853c.033.329.182.601.447.817.268.213.587.319.959.319a1.486 1.486 0 0 0 1.346-.784c.135-.247.202-.525.202-.835 0-.317-.07-.6-.209-.849a1.545 1.545 0 0 0-.569-.593 1.603 1.603 0 0 0-.827-.22 2.279 2.279 0 0 0-.685.103 1.9 1.9 0 0 0-.579.266l-.824-.099.44-3.58h3.779v.782h-3.04l-.256 2.145h.043c.149-.119.336-.217.561-.295a2.13 2.13 0 0 1 .703-.117 2.234 2.234 0 0 1 2.014 1.186c.201.367.301.786.301 1.257 0 .464-.104.878-.312 1.243-.206.362-.49.648-.852.859a2.442 2.442 0 0 1-1.236.313Zm7.518-1.464v-.383c0-.265.055-.508.164-.728.111-.223.272-.4.483-.533.213-.135.471-.202.774-.202.308 0 .566.067.774.202.208.133.366.31.472.533.107.22.16.463.16.728v.383c0 .266-.054.509-.163.732-.107.22-.265.398-.476.533a1.405 1.405 0 0 1-.767.199c-.308 0-.567-.067-.778-.199a1.322 1.322 0 0 1-.479-.533 1.641 1.641 0 0 1-.164-.732Zm.725-.383v.383c0 .221.052.418.156.594.104.172.284.259.54.259.248 0 .424-.087.525-.259.105-.176.157-.373.157-.594v-.383c0-.22-.05-.417-.149-.59-.1-.175-.277-.262-.533-.262-.249 0-.427.087-.536.262-.107.173-.16.37-.16.59Zm-4.347-3.778v-.384c0-.265.055-.508.164-.728.111-.222.272-.4.483-.533.213-.135.471-.202.774-.202.308 0 .566.067.774.202.208.133.366.311.472.533.107.22.16.463.16.728v.384c0 .265-.054.509-.163.731-.107.22-.265.398-.476.533a1.407 1.407 0 0 1-.767.199c-.308 0-.567-.067-.778-.199a1.315 1.315 0 0 1-.479-.533 1.637 1.637 0 0 1-.164-.731Zm.725-.384v.384c0 .22.052.417.156.593.104.172.284.259.54.259.248 0 .424-.087.525-.259.104-.176.157-.373.157-.593v-.384c0-.22-.05-.417-.15-.589-.099-.176-.277-.263-.532-.263-.249 0-.428.087-.536.263-.107.172-.16.369-.16.589Zm-.455 5.909 5-7.273h.81l-5 7.273h-.81ZM450.557 324.543c-.417 0-.792-.083-1.126-.249a2.087 2.087 0 0 1-.802-.682 1.85 1.85 0 0 1-.331-.987h.853c.033.329.182.602.447.817.268.213.587.32.959.32.298 0 .563-.07.795-.21a1.48 1.48 0 0 0 .551-.575c.135-.246.202-.525.202-.835 0-.317-.07-.6-.209-.848a1.547 1.547 0 0 0-1.396-.814 2.279 2.279 0 0 0-.685.103 1.9 1.9 0 0 0-.579.267l-.824-.1.44-3.579h3.779v.781h-3.04l-.256 2.145h.043c.149-.119.336-.217.561-.295a2.13 2.13 0 0 1 .703-.117 2.234 2.234 0 0 1 2.014 1.186c.201.367.301.786.301 1.257 0 .464-.104.878-.312 1.243-.206.362-.49.649-.852.859a2.432 2.432 0 0 1-1.236.313Zm6.183 0c-.535 0-.991-.146-1.367-.437-.376-.294-.664-.719-.863-1.275-.199-.559-.298-1.233-.298-2.024 0-.786.099-1.457.298-2.013.201-.559.49-.985.867-1.279.378-.296.833-.444 1.363-.444.531 0 .984.148 1.36.444.379.294.668.72.867 1.279.201.556.302 1.227.302 2.013 0 .791-.1 1.465-.299 2.024-.199.556-.486.981-.863 1.275-.376.291-.832.437-1.367.437Zm0-.781c.531 0 .942-.256 1.236-.768.294-.511.44-1.24.44-2.187 0-.63-.067-1.166-.202-1.609-.133-.442-.324-.78-.575-1.012a1.27 1.27 0 0 0-.899-.348c-.525 0-.936.259-1.232.778-.296.516-.444 1.246-.444 2.191 0 .63.066 1.165.199 1.605.133.44.323.775.572 1.005.251.23.552.345.905.345Zm7.585-.682v-.384c0-.265.055-.508.164-.728.111-.222.272-.4.483-.532.213-.135.471-.203.774-.203.308 0 .566.068.774.203.208.132.366.31.472.532.107.22.16.463.16.728v.384c0 .265-.054.509-.163.731-.107.22-.265.398-.476.533-.208.133-.464.199-.767.199-.308 0-.567-.066-.778-.199a1.322 1.322 0 0 1-.479-.533 1.637 1.637 0 0 1-.164-.731Zm.725-.384v.384c0 .22.052.418.156.593.104.173.284.259.54.259.248 0 .424-.086.525-.259a1.13 1.13 0 0 0 .157-.593v-.384c0-.22-.05-.416-.149-.589-.1-.175-.277-.263-.533-.263-.249 0-.427.088-.536.263-.107.173-.16.369-.16.589Zm-4.347-3.778v-.384c0-.265.055-.508.164-.728.111-.222.272-.4.483-.532.213-.135.471-.203.774-.203.308 0 .566.068.774.203.208.132.366.31.472.532.107.22.16.463.16.728v.384c0 .265-.054.509-.163.731-.107.22-.265.398-.476.533-.209.133-.464.199-.767.199-.308 0-.567-.066-.778-.199a1.315 1.315 0 0 1-.479-.533 1.637 1.637 0 0 1-.164-.731Zm.725-.384v.384c0 .22.052.418.156.593.104.173.284.259.54.259.248 0 .424-.086.525-.259a1.14 1.14 0 0 0 .157-.593v-.384c0-.22-.05-.416-.15-.589-.099-.175-.277-.263-.532-.263-.249 0-.428.088-.536.263-.107.173-.16.369-.16.589Zm-.455 5.909 5-7.272h.81l-5 7.272h-.81ZM448.479 342.184v-.639l2.401-2.628c.282-.308.514-.575.696-.803.182-.229.317-.445.405-.646a1.56 1.56 0 0 0 .135-.639 1.18 1.18 0 0 0-.682-1.097 1.608 1.608 0 0 0-.71-.153c-.28 0-.523.058-.732.174a1.194 1.194 0 0 0-.479.479 1.507 1.507 0 0 0-.167.725h-.838c0-.426.098-.8.295-1.122.196-.322.464-.573.802-.753.341-.18.723-.27 1.147-.27.426 0 .804.09 1.133.27.329.18.587.422.774.728.187.305.281.645.281 1.019a2.2 2.2 0 0 1-.146.785c-.095.253-.26.536-.497.848-.235.311-.56.689-.977 1.137l-1.633 1.747v.057h3.38v.781h-4.588Zm8.328.1c-.417 0-.792-.083-1.126-.249a2.087 2.087 0 0 1-.802-.682 1.853 1.853 0 0 1-.331-.987h.853c.033.329.182.601.447.817.268.213.587.319.959.319a1.482 1.482 0 0 0 1.346-.785c.135-.246.202-.524.202-.834 0-.317-.07-.6-.209-.849a1.545 1.545 0 0 0-.569-.593 1.603 1.603 0 0 0-.827-.22 2.279 2.279 0 0 0-.685.103 1.9 1.9 0 0 0-.579.266l-.824-.099.44-3.58h3.779v.782h-3.04l-.256 2.144h.043c.149-.118.336-.216.561-.294a2.13 2.13 0 0 1 .703-.117 2.234 2.234 0 0 1 2.014 1.186c.201.367.301.786.301 1.257 0 .464-.104.878-.312 1.243-.206.362-.49.648-.852.859a2.442 2.442 0 0 1-1.236.313Zm7.518-1.464v-.383c0-.265.055-.508.164-.728.111-.223.272-.4.483-.533.213-.135.471-.202.774-.202.308 0 .566.067.774.202.208.133.366.31.472.533.107.22.16.463.16.728v.383c0 .266-.054.509-.163.732-.107.22-.265.398-.476.533a1.405 1.405 0 0 1-.767.199c-.308 0-.567-.067-.778-.199a1.322 1.322 0 0 1-.479-.533 1.641 1.641 0 0 1-.164-.732Zm.725-.383v.383c0 .221.052.418.156.593.104.173.284.26.54.26.248 0 .424-.087.525-.26.105-.175.157-.372.157-.593v-.383c0-.22-.05-.417-.149-.59-.1-.175-.277-.262-.533-.262-.249 0-.427.087-.536.262-.107.173-.16.37-.16.59Zm-4.347-3.778v-.384c0-.265.055-.508.164-.728.111-.223.272-.4.483-.533.213-.135.471-.202.774-.202.308 0 .566.067.774.202.208.133.366.31.472.533.107.22.16.463.16.728v.384c0 .265-.054.509-.163.731-.107.22-.265.398-.476.533a1.407 1.407 0 0 1-.767.199c-.308 0-.567-.067-.778-.199a1.315 1.315 0 0 1-.479-.533 1.637 1.637 0 0 1-.164-.731Zm.725-.384v.384c0 .22.052.417.156.593.104.172.284.259.54.259.248 0 .424-.087.525-.259.104-.176.157-.373.157-.593v-.384c0-.22-.05-.417-.15-.589-.099-.176-.277-.263-.532-.263-.249 0-.428.087-.536.263-.107.172-.16.369-.16.589Zm-.455 5.909 5-7.273h.81l-5 7.273h-.81ZM502.831 368.571v-5.455h.81v.853h.071c.114-.292.297-.518.551-.679.253-.163.557-.245.912-.245.36 0 .66.082.899.245.241.161.429.387.564.679h.057a1.59 1.59 0 0 1 .629-.672c.279-.168.614-.252 1.005-.252.487 0 .886.153 1.196.458.311.303.466.776.466 1.417v3.651h-.838v-3.651c0-.402-.111-.69-.331-.863a1.22 1.22 0 0 0-.777-.259c-.384 0-.681.116-.892.348-.21.23-.316.521-.316.874v3.551h-.852v-3.736c0-.31-.101-.56-.302-.749-.201-.192-.46-.288-.778-.288-.217 0-.421.058-.61.174a1.315 1.315 0 0 0-.455.483c-.114.204-.17.439-.17.707v3.409h-.839Zm10.297.128c-.346 0-.659-.065-.941-.196a1.613 1.613 0 0 1-.671-.571c-.166-.251-.249-.554-.249-.909 0-.313.062-.566.185-.76.123-.197.288-.351.493-.462.206-.111.434-.194.682-.249.251-.056.503-.101.757-.135.331-.042.6-.074.806-.095.208-.024.36-.063.454-.118.097-.054.146-.149.146-.284v-.028c0-.351-.096-.623-.288-.817-.189-.194-.477-.291-.863-.291-.4 0-.713.087-.941.263-.227.175-.387.362-.479.561l-.796-.284a1.92 1.92 0 0 1 .569-.775c.239-.187.499-.317.781-.39a3.23 3.23 0 0 1 .838-.114c.175 0 .376.022.604.064.229.04.451.124.664.252.215.128.394.321.536.579.142.258.213.604.213 1.037v3.594h-.838v-.739h-.043a1.437 1.437 0 0 1-.284.38 1.64 1.64 0 0 1-.529.345 2.05 2.05 0 0 1-.806.142Zm.128-.753c.331 0 .611-.065.838-.196a1.324 1.324 0 0 0 .696-1.154v-.767c-.036.043-.114.082-.234.118a4.047 4.047 0 0 1-.412.088 18.073 18.073 0 0 1-.803.107 3.174 3.174 0 0 0-.611.138 1.051 1.051 0 0 0-.454.281c-.114.123-.171.291-.171.504 0 .291.108.511.323.661.218.146.494.22.828.22Zm4.74-6.648v7.273h-.838v-7.273h.838Zm3.822 7.386c-.526 0-.979-.116-1.36-.348a2.334 2.334 0 0 1-.878-.98c-.203-.421-.305-.911-.305-1.47 0-.559.102-1.051.305-1.477.206-.429.493-.762.86-1.002.369-.241.8-.362 1.292-.362.285 0 .565.048.842.142.277.095.529.249.756.462.228.211.409.49.544.838.135.348.202.777.202 1.286v.355h-4.204v-.725h3.352c0-.308-.062-.582-.185-.824a1.382 1.382 0 0 0-.518-.571 1.453 1.453 0 0 0-.789-.21c-.333 0-.622.083-.866.249a1.634 1.634 0 0 0-.558.639 1.88 1.88 0 0 0-.195.845v.483c0 .412.071.761.213 1.048.145.284.345.5.6.649.256.147.553.221.892.221.22 0 .419-.031.596-.093.18-.064.335-.158.465-.284.131-.128.231-.286.302-.476l.81.228a1.796 1.796 0 0 1-.43.724c-.201.206-.45.367-.745.483a2.76 2.76 0 0 1-.998.17Z" fill="#575C66"/><path d="M479.25 314.256a2 2 0 0 1 2-2h28a2 2 0 0 1 2 2v40.46h-32v-40.46Z" fill="#840F87"/><path d="M515.25 326.77a2 2 0 0 1 2-2h28a2 2 0 0 1 2 2v27.946h-32V326.77Z" fill="#FFC200"/><path d="M591.107 363.116v.71h-2.94v-.71h2.94Zm-2.06 5.455v-6.208c0-.312.074-.573.221-.781a1.37 1.37 0 0 1 .571-.469c.235-.104.482-.156.743-.156.206 0 .374.017.504.05s.227.064.291.092l-.241.725c-.043-.015-.102-.032-.178-.054a1.084 1.084 0 0 0-.291-.032c-.277 0-.477.07-.6.21-.121.14-.181.344-.181.614v6.009h-.839Zm5.297.113c-.526 0-.979-.116-1.36-.348a2.332 2.332 0 0 1-.877-.98c-.204-.421-.306-.911-.306-1.47 0-.559.102-1.051.306-1.477.206-.429.492-.762.859-1.002.369-.241.8-.362 1.293-.362.284 0 .564.048.841.142.277.095.53.249.757.462.227.211.408.49.543.838.135.348.203.777.203 1.286v.355h-4.205v-.725h3.352a1.79 1.79 0 0 0-.184-.824 1.39 1.39 0 0 0-.519-.571 1.447 1.447 0 0 0-.788-.21c-.334 0-.623.083-.867.249a1.631 1.631 0 0 0-.557.639 1.88 1.88 0 0 0-.196.845v.483c0 .412.071.761.214 1.048.144.284.344.5.6.649.255.147.552.221.891.221.22 0 .419-.031.597-.093.18-.064.335-.158.465-.284a1.29 1.29 0 0 0 .302-.476l.809.228a1.794 1.794 0 0 1-.429.724c-.202.206-.45.367-.746.483a2.76 2.76 0 0 1-.998.17Zm3.533-.113v-5.455h.81v.853h.071c.114-.292.297-.518.551-.679.253-.163.557-.245.912-.245.36 0 .659.082.899.245.241.161.429.387.564.679h.057a1.59 1.59 0 0 1 .629-.672c.279-.168.614-.252 1.005-.252.487 0 .886.153 1.196.458.31.303.465.776.465 1.417v3.651h-.838v-3.651c0-.402-.11-.69-.33-.863a1.22 1.22 0 0 0-.778-.259c-.383 0-.68.116-.891.348-.211.23-.316.521-.316.874v3.551h-.852v-3.736c0-.31-.101-.56-.302-.749-.201-.192-.461-.288-.778-.288a1.15 1.15 0 0 0-.611.174 1.313 1.313 0 0 0-.454.483 1.423 1.423 0 0 0-.171.707v3.409h-.838Zm10.297.128c-.346 0-.659-.065-.941-.196a1.607 1.607 0 0 1-.671-.571c-.166-.251-.249-.554-.249-.909 0-.313.062-.566.185-.76.123-.197.287-.351.493-.462.206-.111.434-.194.682-.249.251-.056.503-.101.757-.135.331-.042.6-.074.806-.095.208-.024.36-.063.454-.118.097-.054.146-.149.146-.284v-.028c0-.351-.096-.623-.288-.817-.189-.194-.477-.291-.863-.291-.4 0-.713.087-.941.263-.227.175-.387.362-.479.561l-.796-.284a1.91 1.91 0 0 1 .569-.775c.239-.187.499-.317.781-.39a3.23 3.23 0 0 1 .838-.114c.175 0 .376.022.604.064.229.04.451.124.664.252.215.128.394.321.536.579.142.258.213.604.213 1.037v3.594h-.838v-.739h-.043a1.46 1.46 0 0 1-.284.38 1.64 1.64 0 0 1-.529.345 2.05 2.05 0 0 1-.806.142Zm.128-.753c.331 0 .611-.065.838-.196a1.33 1.33 0 0 0 .696-1.154v-.767c-.036.043-.114.082-.235.118a3.965 3.965 0 0 1-.411.088 18.073 18.073 0 0 1-.803.107 3.174 3.174 0 0 0-.611.138 1.051 1.051 0 0 0-.454.281c-.114.123-.171.291-.171.504 0 .291.108.511.323.661.218.146.494.22.828.22Zm4.74-6.648v7.273h-.838v-7.273h.838Zm3.822 7.386c-.526 0-.979-.116-1.361-.348a2.339 2.339 0 0 1-.877-.98c-.203-.421-.305-.911-.305-1.47 0-.559.102-1.051.305-1.477.206-.429.493-.762.86-1.002.369-.241.8-.362 1.292-.362.284 0 .565.048.842.142.277.095.529.249.756.462.228.211.409.49.544.838.135.348.202.777.202 1.286v.355h-4.204v-.725h3.352c0-.308-.062-.582-.185-.824a1.388 1.388 0 0 0-.518-.571 1.453 1.453 0 0 0-.789-.21c-.333 0-.622.083-.866.249a1.634 1.634 0 0 0-.558.639 1.88 1.88 0 0 0-.195.845v.483c0 .412.071.761.213 1.048.144.284.345.5.6.649.256.147.553.221.892.221.22 0 .419-.031.596-.093.18-.064.335-.158.465-.284.131-.128.231-.286.302-.476l.81.228a1.796 1.796 0 0 1-.43.724c-.201.206-.45.367-.746.483-.296.114-.628.17-.997.17Z" fill="#575C66"/><path d="M569.408 314.256a2 2 0 0 1 2-2h28a2 2 0 0 1 2 2v40.46h-32v-40.46Z" fill="#840F87"/><path d="M605.408 301.149a2 2 0 0 1 2-2h28a2 2 0 0 1 2 2v53.567h-32v-53.567Z" fill="#FFC200"/><path d="M443.135 261.975c-.003-1.872 1.123-3.073 2.815-3.075 1.212-.002 2.029.609 2.355 1.652l1.607-.458c-.471-1.643-1.949-2.721-3.965-2.718-2.616.003-4.532 1.95-4.528 4.602.004 2.676 1.916 4.641 4.532 4.638 2.496-.004 4.185-1.65 4.181-4.11l-.001-.78-5.028.007.002 1.452 3.312-.005c-.034 1.152-1.089 1.922-2.457 1.924-1.74.002-2.822-1.233-2.825-3.129Zm11.229 4.629c1.452-.002 2.495-.687 2.853-1.887l-1.417-.287c-.191.505-.646.853-1.438.854-.864.002-1.477-.406-1.623-1.341l4.464-.006c.048-.228.072-.469.071-.685-.003-1.74-1.229-2.914-2.993-2.912-1.824.003-3.105 1.349-3.102 3.173.003 1.788 1.193 3.094 3.185 3.091Zm-.08-5.004c.768-.001 1.26.419 1.394 1.175l-2.892.003c.214-.792.802-1.177 1.498-1.178Zm4.328 4.879 1.524-.002-.005-3.384c-.002-1.008.694-1.345 1.33-1.346.708-.001 1.212.454 1.214 1.342l.005 3.384 1.524-.002-.006-3.624c-.002-1.656-1.084-2.518-2.368-2.517a2.45 2.45 0 0 0-1.763.735l-.085-.6-1.38.002.01 6.012Zm13.051-.018-.015-9-1.524.002.006 3.624a2.497 2.497 0 0 0-1.825-.765c-1.668.002-2.95 1.336-2.947 3.136.003 1.812 1.29 3.13 2.958 3.128a2.506 2.506 0 0 0 1.882-.831l.097.708 1.368-.002Zm-3.127-4.736c.972-.001 1.597.694 1.598 1.726.002 1.044-.621 1.741-1.593 1.742-.96.002-1.585-.693-1.587-1.737-.001-1.032.622-1.729 1.582-1.731Zm7.601 4.85c1.452-.002 2.495-.687 2.853-1.887l-1.416-.287c-.191.505-.647.853-1.439.854-.864.001-1.477-.406-1.622-1.342l4.464-.005c.048-.229.071-.469.071-.685-.003-1.74-1.229-2.914-2.993-2.912-1.824.003-3.106 1.349-3.103 3.173.003 1.788 1.193 3.094 3.185 3.091Zm-.08-5.004c.768-.001 1.261.419 1.394 1.175l-2.892.003c.215-.792.802-1.177 1.498-1.178Zm4.329 4.879 1.524-.002-.005-3.096c-.002-.984.633-1.525 1.425-1.526.192-.001.408.011.624.071l.178-1.488a2.048 2.048 0 0 0-.588-.084c-.756.001-1.296.326-1.655.819l-.085-.708-1.428.002.01 6.012Z" fill="#171A22"/><path d="M494.925 257.994c-.27 0-.528.098-.719.274a.894.894 0 0 0-.298.659c0 .248.107.485.298.66.191.175.449.274.719.274.27 0 .528-.099.719-.274a.895.895 0 0 0 .298-.66.894.894 0 0 0-.298-.659 1.06 1.06 0 0 0-.719-.274Zm-.244 2.968c-.807.062-3.01 1.674-3.01 1.674-.136.093-.095.087.013.261.109.168.095.181.224.1.136-.081.359-.212.732-.423 1.437-.846.231 1.107-.386 4.399-.244 1.63 1.356.79 1.769.541.407-.242 1.498-.933 1.607-1.002.149-.093.041-.168-.075-.323-.081-.106-.162-.031-.162-.031-.441.267-1.248.827-1.356.473-.129-.355.698-2.788 1.152-4.462.075-.398.278-1.269-.508-1.207Z" fill="#D1D4DB"/></svg>