<svg width="130" height="130" viewBox="0 0 130 130" fill="none" xmlns="http://www.w3.org/2000/svg">
<path d="M111.354 51.6406C111.804 44.0615 111.016 36.46 108.902 29.1058C108.79 28.656 108.34 28.2062 107.89 28.0937C100.536 25.9797 92.9346 25.1925 85.3555 25.6423L79.4406 19.7275C72.4238 12.7106 61.0439 12.7106 54.0046 19.7275L48.0897 25.5299C40.5106 25.0801 32.9091 25.8672 25.5549 27.9813C25.1051 28.0937 24.6553 28.5435 24.5428 28.9933C22.4288 36.3475 21.6416 43.9491 22.0914 51.5282L16.1766 57.443C9.15973 64.4599 9.15973 75.8398 16.1766 82.8791L22.0914 88.794C21.6416 96.3731 22.4288 103.975 24.5428 111.329C24.6553 111.779 25.1051 112.228 25.5549 112.341C32.9091 114.455 40.5106 115.242 48.0897 114.792L54.0046 120.707C61.0214 127.724 72.4013 127.724 79.4406 120.707L85.3555 114.792C92.9346 115.242 100.536 114.455 107.89 112.341C108.34 112.228 108.79 111.779 108.902 111.329C111.016 103.975 111.804 96.3731 111.354 88.794L117.269 82.8791C124.285 75.8623 124.285 64.4824 117.269 57.443L111.354 51.6406Z" fill="#FF90EB"/>
<mask id="mask0_6613_14813" style="mask-type:alpha" maskUnits="userSpaceOnUse" x="3" y="4" width="124" height="122">
<path d="M114.685 52.9841C120.757 46.7994 128.066 47.6315 125.952 40.2773C126.627 39.1565 117.968 29.2573 117.518 29.1448C121.861 16.5882 99.6839 3.95377 92.1048 4.40357L79.4407 19.7251C72.4238 12.7083 43.1443 8.29671 36.1049 15.3136L22.0914 14.414C14.5123 13.9642 13.1652 18.9119 10.129 24.7593C9.67923 24.8718 5.96845 30.7191 5.856 31.1689C3.74195 38.5231 6.19326 52.9392 6.64306 60.5183L5.85589 62.9921C-1.16096 70.009 9.15972 75.8374 16.1766 82.8768L22.0914 88.7916C21.6416 96.3707 22.4288 103.972 24.5428 111.326C24.6553 111.776 25.1051 112.226 25.5549 112.339C32.9091 114.453 40.0644 122.817 54.0046 120.705C61.0214 127.722 72.4013 127.722 79.4407 120.705L85.3555 114.79C92.9346 115.24 100.536 114.453 107.89 112.339C108.34 112.226 108.79 111.776 108.902 111.326C111.016 103.972 111.804 96.3707 111.354 88.7916L117.269 82.8768C124.286 75.8599 124.286 64.48 117.269 57.4407L114.032 54.2211L114.685 52.9841Z" fill="#C7FA73"/>
</mask>
<g mask="url(#mask0_6613_14813)">
<path d="M47.2129 70.1699H47.3254M47.2129 70.1699L41.4105 65.2671C41.2981 65.1547 41.2981 65.0422 41.2981 64.9298L47.2129 70.1699ZM43.637 59.7796C43.637 59.6672 43.7495 59.6672 43.8619 59.6672L50.0017 58.4302L69.0731 55.529C69.1856 55.529 69.298 55.529 69.298 55.6415L69.8603 56.9909C69.8603 57.1033 69.8603 57.2158 69.8603 57.2158C65.7221 62.1186 62.731 63.6928 60.5944 64.6824C59.1551 65.3571 60.0772 64.9073 57.3109 65.8294" stroke="black" stroke-miterlimit="10"/>
<path d="M65.2726 57.2161L79.6661 59.5551L83.5793 45.4989L80.7906 39.5841L72.4243 36.6829L65.2726 57.2161Z" fill="black"/>
<path d="M80.4532 56.8789L66.397 53.9777L66.2846 54.4275L65.2726 57.2162L79.6661 59.5552L80.4532 56.8789Z" fill="#FF90EB"/>
<path d="M79.6659 59.7801L65.2724 57.4411C65.1599 57.4411 65.1599 57.4411 65.1599 57.3287C65.1599 57.2162 65.1599 57.2162 65.1599 57.1038L72.2892 36.5705" stroke="black" stroke-miterlimit="10"/>
<path d="M43.5247 60.6792L43.2998 61.129L41.5231 65.0422L47.3255 69.945L55.3094 69.0229C55.8942 68.1908 56.3664 67.2462 57.2885 65.8519C54.9496 62.5009 46.7633 60.0045 43.5247 60.6792Z" fill="white" stroke="black"/>
<path d="M68.9604 81.9775C62.2584 89.669 55.5789 94.5718 52.7902 92.9076C49.889 91.1309 51.1259 81.7526 56.2536 69.9229C55.2416 68.6859 52.6777 66.0096 48.3372 64.6827C44.4239 63.4458 41.0954 64.008 39.6336 64.3454C28.9284 89.4441 28.2537 109.528 39.6336 115.982C50.1139 122.009 65.407 113.981 67.0713 113.081C68.1958 108.853 69.4102 104.602 70.5347 100.374L68.9604 81.9775Z" fill="#FF90EB"/>
<path d="M33.809 109.865C30.0082 92.7953 37.2725 73.3865 42.4002 64.0307C41.1632 64.1431 40.1737 64.2556 39.499 64.368C30.3681 83.327 29.0187 100.509 33.809 109.865Z" fill="white"/>
<path d="M69.5231 88.3422L68.9608 81.9775C62.8211 88.9944 56.6813 93.6948 53.5777 93.245C56.9062 95.0442 67.499 89.5791 69.5231 88.3422Z" fill="black"/>
<path d="M48.6524 118.456C45.0765 118.456 42.0628 117.669 39.3866 116.23C33.8091 113.104 30.7954 105.975 30.7954 96.2589C30.7954 86.6557 33.8091 75.2983 39.2741 64.3457C39.2741 64.2333 39.3866 64.2333 39.3866 64.2333C41.3882 63.7835 44.6267 63.4461 48.2026 64.5706C52.1158 65.8076 54.7921 68.1465 56.2315 69.8108C51.3287 81.0782 49.7544 91.1087 52.6556 92.7954C55.107 94.2348 61.6965 89.7818 68.4885 81.8654C68.6009 81.7529 68.6009 81.7529 68.7134 81.7529C68.8258 81.7529 68.8258 81.8654 68.8258 81.9778L70.3776 100.375C70.3776 100.375 70.3776 100.375 70.3776 100.487L68.8033 112.294C68.8033 112.407 66.8242 113.329 66.8242 113.329C66.3744 113.554 61.9214 116.005 56.3439 117.467C53.7801 118.119 51.1038 118.456 48.6524 118.456Z" fill="#FF90EB" stroke="black" stroke-miterlimit="10"/>
<path d="M111.354 55.7765L111.467 58.1155L111.017 63.1307L102.988 74.0608L105.327 84.766L103.663 95.0214L101.211 95.921L93.5198 67.4713L89.9439 60.2295V39.5838L101.998 40.4834L110.14 44.5091L112.591 48.9621L111.354 55.7765Z" fill="#FF90EB"/>
<path d="M123.949 73.1611C123.386 70.8222 123.544 68.3708 122.532 65.6945C121.295 62.456 119.271 59.5548 117.921 57.1034C117.022 60.5668 103.977 67.1339 101.189 68.5957C101.976 71.8342 102.628 75.725 102.965 80.088C103.415 85.8904 102.965 91.0181 102.403 95.0438" fill="#FF90EB"/>
<path d="M102.201 95.0439C102.875 90.1411 103.1 85.1259 102.763 80.0881C102.538 76.2873 101.863 72.3966 100.986 68.7082C100.986 68.5958 100.986 68.4833 101.099 68.4833C105.439 66.3693 116.932 60.342 117.719 57.2159C117.719 57.1034 117.831 57.1034 117.944 56.991C118.056 56.991 118.168 56.991 118.168 57.1034C119.989 58.9745 121.542 62.2311 122.779 65.6946C123.678 68.146 123.521 70.7098 124.196 73.1612" stroke="black" stroke-miterlimit="10"/>
<path d="M101.976 40.4838C102.538 41.4958 103.213 42.8227 103.64 44.397C104.202 46.1737 104.427 47.8605 104.54 49.0749C106.429 47.6356 108.678 47.1858 109.78 47.9504C111.219 48.9625 111.444 52.5159 108.768 55.5295C108.993 55.8669 109.33 56.4291 109.78 56.8789C110.342 57.4412 111.017 57.8909 111.332 58.1158C112.771 56.0018 114.345 52.9881 115.56 49.1874C116.347 46.6235 116.797 44.2846 116.999 42.3729C112.119 41.7207 106.991 41.1585 101.976 40.4838Z" fill="black"/>
<path d="M111.444 58.3406C111.444 58.3406 111.354 58.3406 111.444 58.3406C110.657 58.0032 110.095 57.5534 109.667 57.1036C109.218 56.6538 108.88 56.204 108.655 55.6643C108.655 55.5518 108.655 55.4394 108.655 55.4394C110.095 53.8876 110.769 51.8635 110.544 50.1992C110.432 49.2996 110.095 48.6474 109.645 48.1976C108.633 47.4105 106.406 47.8603 104.63 49.3221C104.517 49.3221 104.517 49.4346 104.405 49.3221C104.292 49.3221 104.292 49.2097 104.292 49.0972C104.18 47.5454 103.955 45.9711 103.505 44.4193C103.055 43.0699 102.493 41.743 101.841 40.6185C101.841 40.5061 101.841 40.3936 101.841 40.3936C101.841 40.2812 101.953 40.2812 102.066 40.2812L117.246 42.1703C117.359 42.1703 117.471 42.2828 117.471 42.3952C117.246 44.7342 116.684 47.0731 116.032 49.3221C115.02 52.4482 113.581 55.4619 111.804 58.3631C111.556 58.3406 111.556 58.3406 111.444 58.3406ZM109.105 55.6643C109.33 56.1141 109.667 56.4514 110.005 56.9012C110.454 57.351 110.904 57.6884 111.354 57.9133C113.131 55.237 114.48 52.3358 115.492 49.2097C116.167 47.0956 116.617 44.8691 116.932 42.6201L102.426 40.8434C102.988 41.9679 103.55 43.1824 103.865 44.4193C104.315 45.8587 104.54 47.3205 104.652 48.7599C106.541 47.4105 108.678 47.0956 109.892 47.8603C110.454 48.3101 110.904 49.0972 111.017 50.0868C111.242 51.8635 110.567 53.9775 109.105 55.6643Z" fill="black"/>
<path d="M43.2998 32.0052C42.5126 28.9916 42.0628 28.5418 40.1737 27.5522L39.0492 26.5402L28.4564 18.174L15.9745 56.5417L31.2452 58.0935C40.2861 58.116 44.1994 35.6936 43.2998 32.0052Z" fill="black"/>
<path d="M16.4243 56.7666L31.2676 57.8911C33.1568 57.8911 35.0684 56.7666 36.7327 54.6526C41.7479 48.2879 43.7495 34.794 43.0973 32.0052C42.4226 29.104 41.8604 28.6542 40.0837 27.7771L38.9592 26.7651L28.8162 18.174L16.4243 56.7666Z" fill="black" stroke="black" stroke-miterlimit="10"/>
<path d="M28.0514 26.7651L38.959 32.0052C38.959 32.0052 43.7493 34.794 43.0971 32.0052C42.4224 29.104 41.8602 28.6542 40.0835 27.7771L38.959 26.7651L28.816 18.174L28.0514 26.7651Z" fill="#FF90EB" stroke="black" stroke-miterlimit="10"/>
<path d="M16.4243 57.2162L31.2676 57.8909C33.1568 57.8909 35.0684 56.7664 36.7327 54.6523C41.7479 48.2877 43.7495 34.7937 43.0973 32.005C42.4226 29.1038 39.1391 53.2579 37.3624 52.3808L18.5609 50.0644L16.4243 57.2162Z" fill="#FF90EB" stroke="black" stroke-miterlimit="10"/>
<path d="M71.0746 29.2162L82.7919 25.9777C83.8039 23.5263 88.2569 14.3729 90.3709 11.9215C91.9228 10.0323 95.7235 9.47009 98.2874 11.6966C99.7268 13.046 101.863 14.4853 104.427 15.9247C108.88 18.4885 112.681 17.9263 113.693 19.0508C114.93 21.0524 115.582 30.6556 115.807 34.3214C118.483 36.2106 122.059 38.9993 124.511 40.7985C125.073 41.2483 125.073 42.6427 124.511 43.07C122.397 44.8467 113.153 42.9351 93.8569 41.1359" fill="#FF90EB"/>
<path d="M71.0746 29.2162L82.7919 25.9777C83.8039 23.5263 88.2569 14.3729 90.3709 11.9215C91.9228 10.0323 95.7235 9.47009 98.2874 11.6966C99.7268 13.046 101.863 14.4853 104.427 15.9247C108.88 18.4885 112.681 17.9263 113.693 19.0508C114.93 21.0524 115.582 30.6556 115.807 34.3214C118.483 36.2106 122.059 38.9993 124.511 40.7985C125.073 41.2483 125.073 42.6427 124.511 43.07C122.397 44.8467 113.153 42.9351 93.8569 41.1359" stroke="black" stroke-miterlimit="10"/>
<path d="M94.7342 12.5962C96.8483 11.809 98.4226 13.2709 99.5246 12.7086C99.0748 12.3713 98.625 12.0339 98.2876 11.6966C95.7238 9.47009 91.923 10.0323 90.3712 11.9215C88.2571 14.3729 83.7816 23.5263 82.7921 25.9777L70.8275 29.0813L72.3118 31.825C79.0138 30.3857 83.5567 28.3391 84.9061 26.3375C85.6933 24.6733 86.5704 22.9865 87.3575 21.3223C91.2708 14.9351 93.6097 13.046 94.7342 12.5962Z" fill="white"/>
<path d="M69.7476 27.7769L58.1428 16.6219L43.5244 60.005L58.3453 60.5222C58.6826 60.5222 58.7276 60.5897 59.0649 60.5897C59.1774 60.5897 59.2673 60.5672 59.3798 60.5672L59.6947 60.1174C64.7099 59.8925 69.8826 54.7648 72.334 46.511C74.6504 38.5946 73.4135 31.0155 69.7476 27.7769Z" fill="black"/>
<path d="M43.5244 60.2303L59.3573 60.5676C64.3725 60.3427 69.7251 54.3154 72.0641 46.399C74.2906 38.7075 73.4135 31.4432 69.6127 28.0023L59.1324 17.567L43.5244 60.2303Z" fill="black" stroke="black" stroke-miterlimit="10"/>
<path d="M43.5244 60.2298L59.3573 60.5671C61.9661 60.4547 64.6424 58.7904 66.9589 56.0917L46.8979 50.9865L43.5244 60.2298Z" fill="#FF90EB" stroke="black" stroke-miterlimit="10"/>
<path d="M74.9878 58.7901C73.3236 59.5772 72.5364 60.1395 70.5348 61.5788C69.0955 62.7033 67.8585 63.8053 66.9589 64.8174C67.971 74.9603 68.5107 86.5651 68.0834 99.4069C67.6336 109.437 66.734 118.703 65.4071 126.957C67.5212 126.732 70.085 126.732 72.8738 126.957C76.5621 127.294 79.6882 128.081 82.1396 128.959C81.5773 105.097 81.0151 83.5515 80.4753 59.6897L74.9878 58.7901Z" fill="black"/>
<path d="M99.4121 45.3863C98.4 44.3743 96.6233 46.2859 96.286 46.8257C95.6113 43.2498 93.7221 38.4594 89.3591 37.6723C88.2346 36.7727 86.5703 36.2329 84.3438 36.6603C82.9944 36.098 81.2177 35.7607 78.8788 36.4354C76.4274 35.8731 74.066 35.8731 73.9535 36.5478C73.7286 37.6723 75.6178 38.2121 79.4186 40.1237C81.0828 41.788 81.7575 43.4747 81.7575 45.2514C81.87 49.0522 79.3061 53.0554 79.0812 57.6433C79.0812 59.0827 79.2386 60.9044 79.5535 62.5686L79.2611 66.7068L80.3182 68.461L95.049 67.5614L94.8241 65.3349C94.7117 64.2104 94.8241 62.9959 95.049 61.8714C96.8482 56.8787 99.7494 49.6369 99.4121 45.3863Z" fill="#FF90EB"/>
<path d="M84.4563 45.8357C84.5688 43.6092 84.2539 41.9225 84.029 40.708C83.3093 37.8518 87.1326 40.708 87.8973 40.3707C88.4145 40.2357 88.1896 37.7169 86.9527 37.0422C86.1655 36.9297 85.0186 37.0422 84.5463 37.3345C83.1969 36.7723 82.4322 36.0976 80.0708 36.7723C77.6194 36.21 73.7061 36.0076 73.5937 36.6823C73.3688 37.8068 75.123 37.6044 79.0587 40.2582C80.723 41.9225 81.3977 43.6092 81.3977 45.3859C81.5101 49.1867 78.9463 53.1899 78.7214 57.7779C78.7214 59.2172 79.1712 60.9489 79.5085 62.6132L79.0587 66.1891L79.2836 67.1561L80.5206 64.03C80.9704 60.1168 81.6451 57.1032 82.2973 54.9891C83.2419 51.5257 84.2314 49.4116 84.4563 45.8357Z" fill="white"/>
<path d="M94.7115 65.3796C94.7115 64.48 95.0488 62.1186 95.0488 62.1186C91.3605 59.7796 81.7798 60.8816 79.2159 63.0182V63.6929L79.1035 66.819L95.1613 66.1443L94.7115 65.3796Z" fill="white"/>
<path d="M79.3286 63.0181L79.2161 66.4816L94.8241 65.8069V65.2446C94.8241 64.4575 95.049 62.6808 95.049 62.1185C93.3848 61.2189 90.3711 60.7692 86.7952 60.994C83.5792 61.3539 80.678 62.1185 79.3286 63.0181Z" fill="white" stroke="black" stroke-miterlimit="10"/>
<path d="M87.9197 40.3712C87.0651 38.9768 84.6811 35.8732 79.8233 36.7503" stroke="black" stroke-miterlimit="10" stroke-linecap="round"/>
<path d="M83.737 40.331C82.4635 37.5312 77.5901 35.0945 73.204 37.0439C72.7164 38.0186 77.731 37.7157 80.0267 40.9427C84.5716 47.3312 77.59 49.7149 79.5394 62.8732" stroke="black" stroke-miterlimit="10" stroke-linecap="round"/>
<path d="M91.4953 40.8206C90.056 37.6945 87.6945 36.48 84.4785 37.0198" stroke="black" stroke-miterlimit="10" stroke-linecap="round"/>
<path d="M96.3984 49.5248C96.3984 46.2863 94.6217 39.0445 89.4715 38.0325" stroke="black" stroke-miterlimit="10" stroke-linecap="round"/>
<path d="M95.0467 62.1227C96.1092 59.9491 99.0333 47.7656 99.0333 44.3541C98.8147 43.3421 97.0839 45.3288 96.1092 46.7908" stroke="black" stroke-miterlimit="10" stroke-linecap="round"/>
<path d="M81.2176 124.371L79.1035 66.7071C80.5429 65.8075 84.0063 63.9184 88.7067 63.9184C92.395 63.9184 95.2962 64.6606 96.848 65.6951C99.0745 77.7497 104.877 107.864 107.216 119.896" fill="#FF90EB"/>
<path d="M88.1447 63.9184C86.7053 64.2557 85.0186 64.9304 83.1294 65.92C82.1174 66.4822 81.2403 67.1569 80.4531 67.6967C80.3407 69.1361 80.2282 70.5979 80.1158 71.9248C79.5535 81.9553 80.3407 112.744 81.0154 121.897C80.5656 110.517 79.4636 77.3898 79.0138 66.1224C80.1383 65.4477 81.6901 65.2228 83.5792 64.6606C85.3559 64.1433 86.9077 63.9184 88.1447 63.9184Z" fill="white"/>
<path d="M80.9928 124.371L78.8787 66.3698C78.8787 66.2574 78.8787 66.2574 78.9912 66.1449C79.8908 65.5827 83.3317 63.6935 88.6843 63.6935C91.4731 63.6935 94.3743 64.2558 96.9381 65.4702C97.0506 65.4702 97.0506 65.5827 97.0506 65.6951L107.418 119.896" stroke="black" stroke-miterlimit="10"/>
<path d="M55.8942 23.5936L73.2789 37.9871C73.2114 33.7366 71.9745 30.1382 69.613 28.0016L59.1327 16.7342L55.8942 23.5936Z" fill="#FF90EB" stroke="black" stroke-miterlimit="10"/>
<path d="M70.8723 29.2837L82.7919 25.9777C83.804 23.5263 88.257 14.3729 90.371 11.9215C91.9228 10.0323 95.7236 9.47009 98.2875 11.6966C99.7268 13.046 101.863 14.4853 104.427 15.9247C108.88 18.4885 112.681 17.9263 113.693 19.0508C114.93 21.0524 115.582 30.6556 115.807 34.3214C118.483 36.2106 122.059 38.9993 124.511 40.7985C125.073 41.2483 125.073 42.6427 124.511 43.07C122.397 44.8467 113.153 42.9351 93.857 41.1359" stroke="black" stroke-miterlimit="10"/>
<path d="M52.1156 15.8342C52.7903 15.8342 53.3526 15.9467 54.0048 16.0591C56.906 16.9587 59.1325 19.8599 60.257 24.2005C61.3815 28.8784 61.1566 34.6808 59.4698 40.3707C58.0305 45.4984 55.4441 50.0863 52.453 53.4148C49.5518 56.5409 46.4257 58.2052 43.6369 58.2052C42.9622 58.2052 42.4 58.0927 41.7478 57.9803C38.8466 57.0807 36.6201 54.1795 35.4956 49.839C34.3711 45.1611 34.596 39.3587 36.2827 33.6687C37.7221 28.541 40.3084 23.9531 43.2996 20.6246C46.2008 17.521 49.3269 15.8342 52.1156 15.8342Z" fill="#FF90EB"/>
<path d="M56.0066 17.0712C55.4444 16.7338 53.1054 16.0591 52.5432 15.8342C52.4307 15.8342 52.2058 15.8342 52.0934 15.8342C49.3046 15.8342 46.1785 17.4985 43.2773 20.6246C40.2637 23.8631 37.6998 28.541 36.2605 33.6687C34.7087 39.1338 34.3713 44.5988 35.2484 49.1643L36.6878 50.1763L37.5874 50.7386C35.4958 42.1699 45.4139 17.7234 56.0066 17.0712Z" fill="white"/>
<path d="M46.4256 58.7906C45.6385 58.7906 44.9863 58.6781 44.3116 58.4532C37.6096 56.4516 34.9333 45.634 38.2843 34.1416C41.2979 23.8863 48.0899 16.7345 54.3421 16.7345C55.1292 16.7345 55.7814 16.8469 56.4561 17.0718C58.0079 17.5216 59.3573 18.5112 60.4818 19.7481C59.1324 17.0718 57.1308 15.1827 54.567 14.3955C53.7798 14.1706 53.0152 14.0582 52.228 14.0582C45.4136 14.0582 37.9469 21.9746 34.7084 33.1296C31.02 45.6115 33.9212 57.4412 41.2979 59.6677C42.0851 59.8926 42.8497 60.005 43.6369 60.005C45.526 60.005 47.4377 59.4428 49.3268 58.3408C48.3148 58.5657 47.3252 58.7906 46.4256 58.7906Z" fill="black"/>
<path d="M43.5246 60.2295C42.7374 60.2295 41.8603 60.1171 41.0732 59.8922C37.4973 58.7677 34.7085 55.4392 33.4941 50.289C32.2571 45.2737 32.482 39.134 34.2812 32.9943C37.5198 21.8393 44.9864 13.8104 52.0258 13.8104C52.8129 13.8104 53.69 13.9228 54.4772 14.1477C56.9286 14.9349 59.0426 16.824 60.5045 19.6128C60.5045 19.7252 60.5045 19.8377 60.392 19.9501C60.2796 20.0626 60.1671 19.9501 60.0547 19.9501C58.9302 18.6007 57.6033 17.7236 56.1414 17.2738C55.4667 17.0489 54.792 16.9365 54.0274 16.9365C51.1262 16.9365 47.8876 18.6007 44.9864 21.7268C42.0852 24.8529 39.6338 29.3059 38.172 34.2087C36.6202 39.6738 36.2828 45.2513 37.3848 49.8167C38.5093 54.2697 40.8483 57.2833 43.9744 58.1829C45.5262 58.6327 47.1005 58.5203 48.8772 57.958C48.9896 57.958 49.1021 57.958 49.2145 58.0705C49.2145 58.1829 49.2145 58.2954 49.1021 58.4078C47.4378 59.6673 45.4137 60.2295 43.5246 60.2295ZM52.1157 14.2827C48.8772 14.2827 45.3013 16.1718 42.1977 19.5228C38.9591 22.9862 36.3953 27.7766 34.8435 33.1292C31.1551 45.5211 34.0563 57.2159 41.3206 59.3524C42.1077 59.5773 42.8724 59.6898 43.6595 59.6898C44.8965 59.6898 46.2234 59.3524 47.5728 58.7902C46.4483 58.9026 45.3463 58.7902 44.3342 58.5653C40.9832 57.5532 38.5318 54.4271 37.4073 49.8617C36.2828 45.2962 36.5077 39.6063 38.1945 34.0288C41.2081 23.7734 48.0001 16.3967 54.4772 16.3967C55.2643 16.3967 56.029 16.5092 56.7037 16.7341C57.7157 17.0714 58.5928 17.5212 59.4924 18.1734C58.143 16.3967 56.5912 15.0473 54.7021 14.4851C53.6675 14.3951 52.9029 14.2827 52.1157 14.2827Z" fill="black"/>
<path d="M62.3709 23.6386C61.0216 18.5109 58.3453 15.0475 54.6794 13.923C53.8923 13.6981 53.0151 13.5856 52.228 13.5856C45.0987 13.5856 37.4971 21.727 34.2586 32.9944C32.4819 39.1342 32.1445 45.2739 33.4714 50.4016C34.8208 55.5293 37.4971 58.9927 41.163 60.1172C41.9501 60.3421 42.8272 60.4546 43.6144 60.4546C50.7437 60.4546 58.3453 52.3132 61.5838 41.0458C63.383 34.9061 63.6079 28.7663 62.3709 23.6386ZM43.5244 57.7783C42.9622 57.7783 42.2875 57.6658 41.7477 57.5534C38.959 56.7662 36.9574 53.9775 35.8329 49.7494C34.7084 45.0715 34.9333 39.494 36.62 33.8041C38.0594 28.7888 40.5333 24.2009 43.5244 20.9848C46.3132 17.9712 49.3268 16.3069 52.0031 16.3069C52.5654 16.3069 53.24 16.4194 53.7798 16.5318C56.5686 17.319 58.5702 20.1077 59.6946 24.3358C60.8191 29.0137 60.5942 34.5912 58.9075 40.2811C57.4681 45.2964 54.9943 49.8843 51.9806 53.1004C49.2144 56.114 46.2007 57.7783 43.5244 57.7783Z" fill="white"/>
<path d="M43.5245 60.6792C42.6249 60.6792 41.7478 60.5667 40.9606 60.3418C37.1598 59.2173 34.3711 55.7764 33.0442 50.4238C31.8072 45.2961 32.0321 39.0439 33.9438 32.9042C37.2948 21.5243 44.9863 13.3829 52.1156 13.3829C53.0152 13.3829 53.8923 13.4954 54.6795 13.7203C58.4803 14.8448 61.269 18.2857 62.5959 23.6383C63.8329 28.766 63.608 35.0182 61.6963 41.158C58.4803 52.4254 50.7662 60.6792 43.5245 60.6792ZM43.5245 58.0029C42.8498 58.0029 42.2875 57.8904 41.7478 57.778C38.959 56.9909 36.7325 54.0897 35.7205 49.8615C34.596 45.1837 34.8209 39.4937 36.5076 33.8038C37.947 28.6761 40.5333 24.0881 43.5245 20.8721C46.3132 17.8359 49.4393 16.1717 52.1156 16.1717C52.7903 16.1717 53.3526 16.2841 53.8923 16.3966C56.6811 17.1837 58.9076 20.0849 59.9196 24.313C61.0441 28.9909 60.8192 34.6809 59.1325 40.3708C57.6931 45.4985 55.1068 50.0865 52.1156 53.3025C49.3269 56.3386 46.3132 58.0029 43.5245 58.0029Z" fill="white" stroke="black" stroke-miterlimit="10"/>
<path d="M24.0035 18.2865C24.5658 18.2865 25.128 18.3989 25.6678 18.5114C28.2316 19.2985 30.1208 21.7499 31.0204 25.5282C32.0324 29.6664 31.8075 34.5692 30.3457 39.5844C28.9963 44.0374 26.8823 48.0631 24.206 50.8519C21.7546 53.5282 18.9658 54.99 16.6269 54.99C16.0646 54.99 15.5024 54.8776 14.9626 54.7651C12.3988 53.978 10.5096 51.5266 9.61001 47.7483C8.59797 43.6101 8.82286 38.7073 10.2847 33.6921C11.6341 29.2391 13.7482 25.2134 16.4245 22.4246C18.8759 19.7483 21.5522 18.2865 24.0035 18.2865Z" fill="#FF90EB"/>
<path d="M27.1295 19.1861C26.6797 18.8487 26.1175 18.6238 25.6902 18.5114C25.1279 18.3989 24.5657 18.2865 24.0259 18.2865C21.5745 18.2865 18.8982 19.7259 16.4468 22.4246C13.7705 25.3258 11.6565 29.3515 10.3071 33.6921C8.86775 38.7073 8.64285 43.7226 9.63241 47.7483C10.4196 48.5354 11.2967 49.3001 12.0838 50.0872C10.7344 43.4977 16.6493 21.0752 27.1295 19.1861Z" fill="white"/>
<path d="M19.1004 55.552C18.4257 55.552 17.8635 55.4395 17.2113 55.3271C11.4089 53.6628 9.06991 44.1721 11.9711 34.254C14.535 25.3255 20.5622 19.0733 25.9148 19.0733C26.5895 19.0733 27.1518 19.1858 27.804 19.2982C29.1534 19.748 30.3678 20.5352 31.2674 21.6372C30.0305 19.2982 28.3662 17.6115 26.1397 16.9593C25.465 16.7344 24.7903 16.6219 24.1381 16.6219C18.2008 16.6219 11.7237 23.4139 8.93497 33.1295C5.69643 43.9472 8.26028 54.315 14.6249 56.1142C15.2996 56.3391 15.9743 56.4516 16.6265 56.4516C18.2908 56.4516 19.9775 55.8893 21.5293 55.0122C20.6522 55.3271 19.8651 55.552 19.1004 55.552Z" fill="black"/>
<path d="M16.5367 56.7659C15.862 56.7659 15.0974 56.6534 14.4227 56.4285C11.2966 55.5289 8.95763 52.5153 7.83313 48.0623C6.70864 43.7217 7.04599 38.3467 8.50783 33.1065C11.409 23.3909 17.8861 16.374 23.8909 16.374C24.5656 16.374 25.3303 16.4865 26.005 16.7114C28.2315 17.3861 30.0307 19.0503 31.2451 21.5017C31.2451 21.6142 31.2451 21.7266 31.1327 21.8391C31.0202 21.9515 30.9078 21.8391 30.7953 21.8391C29.7833 20.7146 28.6813 19.9499 27.4443 19.5001C26.8821 19.2752 26.2074 19.2752 25.6676 19.2752C23.1038 19.2752 20.315 20.7146 17.8636 23.4134C15.2998 26.2021 13.1857 30.0029 11.9488 34.231C10.5094 39.0214 10.2845 43.8342 11.2741 47.7249C12.2861 51.6382 14.2877 54.202 16.964 54.9667C18.3134 55.304 19.7528 55.304 21.1921 54.8542C21.3046 54.8542 21.417 54.8542 21.5295 54.9667C21.5295 55.0791 21.5295 55.1916 21.417 55.304C19.8652 56.3386 18.201 56.7659 16.5367 56.7659ZM24.0034 16.9588C21.2146 16.9588 18.201 18.623 15.4122 21.5242C12.6235 24.5379 10.397 28.6535 8.93514 33.3539C5.80904 44.0591 8.26044 54.202 14.5126 56.1137C15.1873 56.3386 15.862 56.451 16.5142 56.451C17.5263 56.451 18.6283 56.2261 19.6403 55.7763C18.7407 55.8888 17.8636 55.7763 16.964 55.5514C14.0628 54.6518 11.9488 51.9755 10.9367 47.9723C9.92469 43.9466 10.1496 39.0438 11.6114 34.2535C14.1753 25.325 20.2026 18.9829 25.7801 18.9829C26.4548 18.9829 27.1295 19.0953 27.6692 19.2078C28.4564 19.4326 29.221 19.8824 29.8957 20.3322C28.7712 18.8929 27.4443 17.8808 25.87 17.3186C25.3303 17.0712 24.6781 16.9588 24.0034 16.9588Z" fill="black"/>
<path d="M31.9872 25.1006C30.8627 20.6476 28.4113 17.6339 25.1728 16.6219C24.4981 16.397 23.7334 16.2845 22.9463 16.2845C16.6941 16.2845 10.1271 23.4138 7.3383 33.1295C5.7865 38.4821 5.5616 43.8347 6.55116 48.3102C7.67565 52.7632 10.1271 55.7768 13.3656 56.7889C14.0403 57.0137 14.8049 57.1262 15.5921 57.1262C21.8443 57.1262 28.4113 49.9969 31.2001 40.2813C32.8868 34.7937 33.1117 29.4411 31.9872 25.1006ZM14.1527 54.4274C11.8138 53.7527 10.0146 51.3013 9.1375 47.7254C8.12545 43.6997 8.35035 38.7969 9.81219 33.8941C11.1616 29.5536 13.2756 25.5279 15.8395 22.7391C18.1559 20.1978 20.8547 18.7359 23.0812 18.7359C23.6435 18.7359 24.0933 18.8484 24.5206 18.9608C26.8595 19.6355 28.6587 22.0869 29.5358 25.6628C30.5479 29.6885 30.323 34.5913 28.8611 39.4941C27.5117 43.8347 25.3977 47.8604 22.8338 50.6491C19.9551 53.7527 16.829 55.1021 14.1527 54.4274Z" fill="white"/>
<path d="M15.592 57.3289C14.8048 57.3289 14.0402 57.2164 13.3655 56.9915C10.0145 55.9795 7.56309 52.9658 6.43859 48.2879C5.3141 43.8349 5.539 38.3699 7.22574 33.0173C10.1269 23.0992 16.8289 15.9474 23.1711 15.9474C23.9582 15.9474 24.7229 16.0599 25.3976 16.2848C28.7486 17.2968 31.2 20.3105 32.3245 24.9884C33.449 29.4414 33.2241 34.9064 31.5373 40.259C28.6586 50.0871 21.9566 57.3289 15.592 57.3289ZM15.592 54.8775C15.0297 54.8775 14.5799 54.765 14.0402 54.6526C11.5888 53.9779 9.69963 51.5265 8.80003 47.7257C7.78799 43.7 8.01289 38.6847 9.47473 33.7819C10.8241 29.4414 12.9382 25.4157 15.6145 22.5145C18.0659 19.8382 20.7422 18.3764 23.0811 18.3764C23.6434 18.3764 24.0932 18.4888 24.6329 18.6013C27.0843 19.276 28.9735 21.7274 29.8731 25.5281C30.8851 29.5538 30.6602 34.5691 29.1984 39.4719C27.849 43.8124 25.7349 47.8381 23.0586 50.7393C20.6297 53.4381 18.0659 54.8775 15.592 54.8775Z" fill="white" stroke="black" stroke-miterlimit="10"/>
<path d="M118.078 57.2837V57.2612V57.2387C118.123 56.699 117.719 56.2492 117.269 55.9118C116.797 55.5745 116.144 55.2821 115.47 55.0572C114.795 54.8323 114.19 53.4118 113.583 53.3219C113.29 53.2769 112.906 54.4725 112.658 54.4725C112.433 54.45 112.209 54.4725 112.051 54.495L111.984 54.5175L111.939 54.5624C111.736 54.6974 111.601 54.8323 111.534 54.9898C111.444 55.1697 111.489 55.3046 111.511 55.3721C111.489 55.3946 111.444 55.462 111.287 55.5745L111.174 55.642L111.152 55.7769L110.387 62.5913L110.319 63.1761L110.814 62.8612C111.444 62.4564 112.096 62.0741 112.748 61.6917C113.715 61.1295 114.638 60.5673 115.447 60.0275C116.122 59.5777 116.707 59.1504 117.156 58.7006C117.606 58.2508 117.966 57.7785 118.078 57.2837Z" fill="black" stroke="black"/>
<path d="M115.357 28.9914C111.017 27.2147 105.979 25.5279 100.289 23.9761C94.824 22.5368 89.6963 21.6372 85.1084 20.9625C84.0964 23.0765 83.2193 24.9882 82.7695 25.8653C87.7847 26.7649 93.1373 27.8669 98.8272 29.3287C104.855 30.8805 110.544 32.5673 115.785 34.344C115.695 33.1295 115.47 31.1279 115.357 28.9914Z" fill="black"/>
<path d="M116.09 34.6073C110.4 32.7181 104.315 31.1055 98.6249 29.6662C93.3848 28.3168 87.9197 26.8774 82.5671 25.8654C82.9045 24.9658 84.0683 23.0766 85.1928 20.8501C90.3205 21.5248 95.3864 22.5144 100.402 23.8638C105.529 25.2132 110.5 26.8774 115.402 28.879C115.537 30.5658 115.866 32.6057 116.09 34.6073Z" fill="black" stroke="black" stroke-miterlimit="10" stroke-linecap="round" stroke-linejoin="round"/>
<path d="M24.6555 43.7218C24.6555 44.509 24.543 45.2736 24.3181 45.9483C24.0932 46.623 23.6434 47.2977 23.1936 47.8375C22.7438 48.3997 22.1816 48.962 21.6418 49.3893C21.0796 49.8391 20.2924 50.1764 19.5278 50.2889C19.5278 50.2889 19.5278 50.2889 19.4153 50.2889C19.6402 50.064 19.9776 49.8391 20.2025 49.6142C20.4274 49.3893 20.7647 49.1644 20.9896 48.827C21.4394 48.2648 21.8892 47.815 22.339 47.2752C22.7888 46.713 23.1261 46.1507 23.5759 45.611C23.8008 45.2736 23.9133 45.0487 24.1382 44.7114C24.3181 44.3965 24.4306 44.0592 24.6555 43.7218C24.543 43.7218 24.6555 43.7218 24.6555 43.7218Z" fill="#FF90EB"/>
<path d="M55.017 43.4973C55.017 43.8346 55.1294 44.0595 55.1294 44.3969C55.1294 44.7342 55.1294 44.9591 55.1294 45.184C55.1294 45.7463 55.017 46.3085 54.7921 46.7358C54.4547 47.7478 54.0049 48.7374 53.3527 49.637C52.7905 50.5366 52.0033 51.3013 51.1262 51.976C50.6764 52.3133 50.2266 52.6506 49.7768 52.8755C49.5519 52.988 49.327 53.1004 48.9897 53.2129C48.7648 53.3253 48.4274 53.4378 48.2025 53.4378C48.2025 53.4378 48.0901 53.4378 48.0901 53.3253C48.0901 53.3253 48.0901 53.3253 48.0901 53.2129C48.4274 52.8755 48.8772 52.5382 49.2146 52.0884C49.5519 51.7511 49.8893 51.3013 50.2266 50.9639C50.9013 50.1768 51.576 49.4121 52.1158 48.5125C52.678 47.7254 53.2403 46.8483 53.6676 45.9487C53.8925 45.4989 54.1174 45.0491 54.3423 44.5993C54.5672 44.1495 54.7921 43.6997 54.9045 43.1599C54.9045 43.3848 54.9045 43.3848 55.017 43.4973C55.017 43.3848 55.017 43.3848 55.017 43.4973Z" fill="white"/>
<path d="M57.693 36.7056C57.9179 37.1554 58.0303 37.4927 58.0303 37.8301C58.0303 38.1674 58.0303 38.5048 57.9179 38.7297C57.8054 39.067 57.693 39.2919 57.4681 39.5168C57.2432 39.7417 57.0183 39.9666 56.5685 40.1915L56.6809 39.7417L56.7934 39.2919C56.9058 38.9546 57.0183 38.7297 57.0183 38.3923C57.1307 38.055 57.2432 37.8301 57.3556 37.4927L57.4681 37.0429L57.693 36.7056C57.5805 36.5931 57.693 36.5931 57.693 36.7056C57.693 36.5931 57.693 36.7056 57.693 36.7056Z" fill="white"/>
<path d="M14.3593 41.5826C14.4424 41.4843 14.497 41.3179 14.5137 41.1902C14.6366 40.2521 14.9235 38.9907 15.2202 37.5292C15.2585 37.3405 15.2916 37.1429 15.2275 36.9614C15.22 36.9402 15.2117 36.9194 15.2025 36.8995C15.1028 36.6822 14.8228 36.6537 14.5908 36.5957L14.3897 36.5454C14.1577 36.4874 13.9081 36.4337 13.6913 36.5346C13.672 36.5436 13.6534 36.5534 13.6357 36.564C13.4685 36.6644 13.4585 36.8918 13.4206 37.0832C13.1424 38.4884 12.942 39.7384 12.7486 40.7341C12.7112 40.9269 12.6647 41.1365 12.7633 41.3064C12.8084 41.384 12.8769 41.4546 12.975 41.512C13.0794 41.573 13.2013 41.5934 13.3213 41.6084L13.6132 41.6449C13.8877 41.6792 14.1807 41.7939 14.3593 41.5826V41.5826Z" fill="black"/>
<path d="M24.6331 26.2024C22.2635 31.1589 20.9236 38.616 20.3493 41.9317C20.3113 42.1508 20.2596 42.3925 20.3855 42.5757C20.3958 42.5907 20.407 42.6054 20.4193 42.6197C20.5863 42.8147 20.8706 42.8384 21.1254 42.8703L21.6419 42.9348C21.6655 42.9348 21.6891 42.9336 21.7126 42.9311C22.1212 42.888 22.2341 42.3906 22.299 41.9849C22.8352 38.6296 24.2325 31.4834 26.3423 26.9895C26.4548 26.7646 26.3423 26.4273 26.1174 26.3148L25.2178 25.9775C24.9704 25.865 24.7455 25.9775 24.6331 26.2024Z" fill="black"/>
<path d="M18.4091 33.2839C18.1869 33.4226 18.1211 33.7069 18.0551 33.9603C17.2749 36.9558 16.8502 39.6495 16.5506 41.3831C16.5117 41.6079 16.4573 41.8575 16.5896 42.0433C16.5985 42.0558 16.6081 42.0681 16.6184 42.0802C16.7854 42.2752 17.0697 42.2989 17.3245 42.3308L17.841 42.3953C17.9684 42.3953 18.0959 42.3592 18.2028 42.2666C18.3954 42.0998 18.4186 41.8187 18.4538 41.5664C18.6969 39.8242 19.2109 37.1458 19.9796 34.346C20.0375 34.1351 20.1472 33.9037 20.05 33.7078V33.7078C19.9247 33.4552 19.5918 33.4323 19.3183 33.3639L18.8306 33.2419C18.662 33.1858 18.5215 33.2138 18.4091 33.2839Z" fill="black"/>
<path d="M54.2299 26.3149C52.0034 29.8908 49.4395 36.4578 47.9777 40.0337C47.5279 38.5943 47.0781 36.1205 46.9657 34.1189C46.9657 33.9811 46.9235 33.8855 46.8391 33.8063C46.7167 33.6914 46.5474 33.6448 46.3866 33.5965L45.7455 33.4042C45.5847 33.356 45.4239 33.2629 45.2588 33.2938C45.19 33.3066 45.1257 33.3393 45.0699 33.3877C44.9626 33.4809 44.9013 33.6137 44.8212 33.7311C42.519 37.1055 40.1358 42.7462 39.2516 44.824C39.2133 44.939 39.2142 45.0409 39.2408 45.1297C39.34 45.4601 39.7644 45.5182 40.1073 45.5563L40.601 45.6112C40.6039 45.6112 40.6067 45.6112 40.6095 45.6111C41.0175 45.606 41.1362 45.0816 41.2988 44.7074C42.1389 42.7741 43.5629 39.4172 45.189 36.7952C45.5263 39.0217 46.4259 41.5855 46.9657 42.8225C46.9793 42.8538 47.001 42.886 47.027 42.9177C47.1815 43.1056 47.4249 43.1869 47.6624 43.2397L47.8973 43.2919C48.175 43.3536 48.4897 43.4263 48.713 43.25C48.7793 43.1977 48.8359 43.1301 48.8773 43.0473C49.8893 40.2586 53.3303 31.3301 55.8042 27.3269C55.9166 27.102 55.9166 26.8771 55.6917 26.6522C55.4668 26.4273 55.2814 26.2249 54.9046 26.09C54.5645 25.9681 54.3423 26.09 54.2299 26.3149Z" fill="black"/>
<path d="M53.5553 43.1599C53.7502 45.0802 53.9292 47.1557 52.7356 49.2276C51.3322 51.6635 48.8368 52.639 46.7408 53.2128C47.0782 52.8755 47.528 52.5381 47.8653 52.0883C48.2027 51.751 48.54 51.3012 48.8774 50.9638C49.5521 50.1767 50.2268 49.412 50.7665 48.5124C51.3288 47.7253 51.891 46.8482 52.3183 45.9486C52.5432 45.4988 52.7681 45.049 52.993 44.5992C53.2179 44.1494 53.4428 43.6997 53.5553 43.1599Z" fill="#FF90EB"/>
<path d="M56.3437 36.7054C56.5686 37.1552 56.6811 37.4926 56.6811 37.8299C56.6811 38.1673 56.6811 38.5046 56.5686 38.7295C56.4562 39.0669 56.3437 39.2918 56.1188 39.5167C55.8939 39.7416 55.669 39.9665 55.2192 40.1914C55.3317 39.854 56.2313 37.0428 56.3437 36.7054Z" fill="#FF90EB"/>
</g>
</svg>
