<svg width="130" height="130" viewBox="0 0 130 130" fill="none" xmlns="http://www.w3.org/2000/svg">
<path d="M108.058 40.5546C104.213 28.0672 96.7064 16.0159 86.4915 7.71768C86.1471 7.37336 85.5274 7.37336 85.0912 7.54552L68.5867 14.9714C53.8267 12.2627 39.1586 11.6544 24.9265 16.8881C24.3986 17.0603 24.0543 17.4964 24.0543 18.0244C23.8821 22.0415 23.0098 38.81 23.0098 38.81C13.2196 49.1971 5.54117 62.2125 3.61296 76.3527C3.52114 76.8807 3.78512 77.3168 4.14092 77.5808L21.9539 89.9764C25.7988 102.464 33.3051 114.515 43.52 122.813C43.8643 123.158 44.4841 123.158 44.9202 122.985L61.4248 115.56C76.1847 118.268 90.8529 118.877 105.085 113.643C105.613 113.471 105.957 113.035 105.957 112.507L107.002 91.721C116.78 81.3339 124.47 68.3185 126.387 54.1783C126.479 53.6503 126.215 53.2142 125.859 52.9502L108.058 40.5546Z" fill="#FF90EB"/>
<path d="M123.448 85.5844C123.494 85.4697 123.54 85.3434 123.574 85.2286L126.053 78.4914L121.267 77.2403L96.7054 37.494C94.6165 34.1082 90.5764 32.444 86.697 33.3736L17.339 50.1192L12.8054 48.937L10.6706 55.1348C10.5902 55.3299 10.5214 55.5365 10.464 55.7431C9.92453 57.5566 10.0508 59.5881 11.0149 61.4474L34.5551 106.577C37.4244 112.074 43.8633 114.668 49.7282 112.694L119.66 89.1998C121.474 88.58 122.794 87.2142 123.448 85.5844Z" fill="black" stroke="black" stroke-width="0.878378" stroke-miterlimit="10" stroke-linecap="round" stroke-linejoin="round"/>
<path d="M121.943 83.1367L52.0111 106.057C46.1347 108.031 39.6958 105.437 36.8379 99.9396L13.2977 54.8219C10.9908 50.403 13.4469 44.9857 18.3019 43.815L89.0029 26.7595C92.8707 25.8299 96.9108 27.4826 99.0112 30.8799L125.26 73.9433C127.372 77.3635 125.754 81.8627 121.943 83.1367Z" fill="white" stroke="black" stroke-width="0.878378" stroke-miterlimit="10" stroke-linecap="round" stroke-linejoin="round"/>
<path d="M102.053 35.8717L99.0113 30.879C96.9224 27.4931 92.8823 25.8289 89.0029 26.7586L18.302 43.814C13.4585 44.9847 10.9909 50.3906 13.2978 54.8209L15.6622 59.3659L102.053 35.8717Z" fill="#FF90EB" stroke="black" stroke-width="0.878378" stroke-miterlimit="10" stroke-linecap="round" stroke-linejoin="round"/>
<path d="M25.1251 53.0883C26.3496 52.4079 26.5237 50.383 25.5138 48.5657C24.504 46.7483 22.6927 45.8266 21.4682 46.507C20.2437 47.1874 20.0697 49.2123 21.0795 51.0296C22.0893 52.847 23.9006 53.7687 25.1251 53.0883Z" fill="black" stroke="black" stroke-width="0.878378" stroke-miterlimit="10" stroke-linecap="round" stroke-linejoin="round"/>
<path d="M36.3832 50.2958C37.6077 49.6154 37.7818 47.5906 36.7719 45.7732C35.7621 43.9558 33.9508 43.0341 32.7263 43.7146C31.5018 44.395 31.3278 46.4198 32.3376 48.2372C33.3474 50.0545 35.1587 50.9762 36.3832 50.2958Z" fill="black" stroke="black" stroke-width="0.878378" stroke-miterlimit="10" stroke-linecap="round" stroke-linejoin="round"/>
<path d="M37.4243 69.0861L97.1414 52.375" stroke="#FF90EB" stroke-width="0.878378" stroke-miterlimit="10" stroke-linecap="round" stroke-linejoin="round"/>
<path d="M111.073 67.2606L109.11 64.0813C108.835 63.6452 108.307 63.4386 107.813 63.5878L40.7736 83.2945C40.0849 83.5011 39.7406 84.2816 40.0849 84.9243L41.8869 88.379C42.1394 88.8611 42.7018 89.1021 43.2298 88.9529L110.43 68.9592C111.142 68.7411 111.463 67.9033 111.073 67.2606Z" fill="#FF90EB"/>
<path d="M100.626 76.5705L46.189 93.7293C45.5003 93.9473 45.179 94.7278 45.5118 95.3591C46.0513 96.3691 46.7973 97.7923 47.2793 98.6875C47.5433 99.1696 48.1057 99.3991 48.6337 99.2384L103.392 81.9764C104.116 81.7468 104.425 80.8975 104.012 80.2548L101.935 77.0526C101.648 76.6049 101.12 76.4098 100.626 76.5705Z" fill="#FF90EB"/>
<path d="M78.5951 41.9882C85.2979 54.0509 83.473 67.8583 74.5091 72.8395C65.5452 77.8207 52.8627 72.0705 46.1599 60.0192C40.8803 50.5274 40.8917 39.9452 45.5057 33.4375C46.7567 31.6814 48.3406 30.2238 50.2458 29.1679C59.1982 24.1867 71.8923 29.9254 78.5951 41.9882Z" fill="black" stroke="black" stroke-width="0.878378" stroke-miterlimit="10" stroke-linecap="round" stroke-linejoin="round"/>
<path d="M46.6545 34.0142C46.6545 34.0142 52.6113 25.2454 58.2352 25.8767C63.8591 26.508 60.2552 68.5842 60.2552 68.5842C60.2552 68.5842 44.6689 37.3541 46.6545 34.0142Z" stroke="black" stroke-width="0.878378" stroke-miterlimit="10" stroke-linecap="round" stroke-linejoin="round"/>
<path d="M90.8658 99.8798C88.2948 101.303 85.0352 100.373 83.612 97.8024L66.3729 66.8018C64.9497 64.2309 65.8794 60.9713 68.4504 59.5481C71.0213 58.1249 74.2809 59.0546 75.7041 61.6255L92.9317 92.6375C94.3549 95.1855 93.4252 98.4566 90.8658 99.8798Z" fill="#FF90EB" stroke="black" stroke-width="0.878378" stroke-miterlimit="10" stroke-linecap="round" stroke-linejoin="round"/>
<path d="M75.7041 61.6165C74.2809 59.0455 71.0098 58.1159 68.4504 59.5391C65.8794 60.9623 64.9497 64.2333 66.3729 66.7928L74.0513 80.6116C74.0513 80.6116 75.1187 68.0783 81.833 72.6463L75.7041 61.6165Z" fill="black" stroke="black" stroke-width="0.878378" stroke-miterlimit="10" stroke-linecap="round" stroke-linejoin="round"/>
<path d="M77.8994 69.4533C86.8588 64.475 88.6884 50.6608 81.9859 38.5986C75.2835 26.5364 62.587 20.7938 53.6276 25.7721C44.6682 30.7505 42.8386 44.5646 49.5411 56.6268C56.2435 68.6891 68.94 74.4317 77.8994 69.4533Z" fill="#FF90EB"/>
<path d="M52.5741 56.6233C45.8713 44.5605 47.6962 30.7532 56.6601 25.772C58.3817 24.8193 60.241 24.2684 62.1692 24.0618C59.1621 23.7978 56.2354 24.3143 53.63 25.772C44.6776 30.7532 42.8412 44.5605 49.544 56.6233C54.9614 66.3676 64.2811 71.9801 72.3956 71.1537C65.0845 70.5224 57.3257 65.174 52.5741 56.6233Z" fill="white"/>
<path d="M77.8994 69.4533C86.8588 64.475 88.6884 50.6608 81.9859 38.5986C75.2835 26.5364 62.587 20.7938 53.6276 25.7721C44.6682 30.7505 42.8386 44.5646 49.5411 56.6268C56.2435 68.6891 68.94 74.4317 77.8994 69.4533Z" stroke="black" stroke-width="0.878378" stroke-miterlimit="10" stroke-linecap="round" stroke-linejoin="round"/>
<path d="M79.6519 61.2148C78.8025 62.4544 77.7122 63.4644 76.4038 64.199C69.942 67.7914 60.4157 63.0053 55.1361 53.5135C49.8565 44.0217 50.8206 33.405 57.2938 29.8126C63.7671 26.2202 73.2819 31.0062 78.5615 40.4981C80.6619 44.2856 81.7752 48.2453 81.9473 51.8722" stroke="black" stroke-width="0.878378" stroke-miterlimit="10" stroke-linecap="round" stroke-linejoin="round"/>
<path d="M60.9195 31.2814C64.0299 30.4894 68.8849 31.2355 71.6624 35.6543C74.4399 40.0731 72.5462 40.5781 70.2736 38.5581C68.0011 36.538 63.456 35.3559 60.9195 37.5251C58.3945 39.6943 56.3745 36.033 57.3845 34.1393C58.3945 32.2455 59.898 31.5454 60.9195 31.2814Z" fill="white"/>
<path d="M73.9368 42.2302C73.9368 42.2302 74.0057 40.4742 75.1075 41.094C76.2094 41.7252 77.4719 43.3665 76.3356 44.124C75.1994 44.8815 73.9368 42.2302 73.9368 42.2302Z" fill="white"/>
</svg>
