<svg width="130" height="130" viewBox="0 0 130 130" fill="none" xmlns="http://www.w3.org/2000/svg">
<path d="M64.7784 5.81835V9.62222C95.3283 9.62222 120.053 34.3474 120.053 64.8973H123.857C124.571 64.8973 125.284 65.4916 125.284 66.3237C124.571 98.5378 98.5378 124.571 66.3237 125.284C65.6105 125.284 64.8973 124.689 64.8973 123.857V120.053C34.3474 120.053 9.62222 95.3283 9.62222 64.7784H5.81834C5.10512 64.7784 4.39189 64.184 4.39189 63.3519C5.10512 31.1379 31.1379 5.10512 63.3519 4.39189C64.184 4.39189 64.7784 5.10512 64.7784 5.81835Z" fill="#FF90EB"/>
<path d="M49.7419 50.5696L22.0623 51.4428L17.9871 51.6545C16.717 51.7339 15.6055 50.8077 15.4732 49.5375L10.8688 12.014C10.71 10.6908 11.6097 9.50004 12.9064 9.26188L19.2044 8.20338L45.1904 13.4958L49.7419 50.5696Z" fill="#FF90EB" stroke="black" stroke-miterlimit="10" stroke-linecap="round" stroke-linejoin="round"/>
<path d="M56.2251 103.44L30.7684 111.59L25.079 110.796C23.8352 110.611 22.8561 109.632 22.6974 108.362L18.1194 70.9705C18.0929 70.7853 18.0665 70.2031 18.4105 69.5945C18.7016 69.1181 19.072 68.88 19.2573 68.7741C20.9244 68.8006 22.5651 68.827 24.2322 68.8535L51.6471 65.9162L56.2251 103.44Z" fill="#FF90EB" stroke="black" stroke-miterlimit="10" stroke-linecap="round" stroke-linejoin="round"/>
<path d="M19.8659 68.536L19.2308 68.7742L25.9258 68.9065L55.246 65.5193L49.1862 65.4928L19.8659 68.536Z" fill="black" stroke="black" stroke-miterlimit="10" stroke-linecap="round" stroke-linejoin="round"/>
<path d="M80.0939 49.5361L62.47 50.1183L58.289 50.2506C57.0453 50.3035 55.9603 49.3773 55.8015 48.1336L52.1497 17.9401C51.991 16.5905 52.9436 15.3733 54.2932 15.188L60.4589 14.3677L76.2304 18.1253L80.0939 49.5361Z" fill="#FF90EB" stroke="black" stroke-miterlimit="10" stroke-linecap="round" stroke-linejoin="round"/>
<path d="M85.6247 94.6013L70.4883 100.026L63.9521 99.391C62.8936 99.2851 62.0203 98.4648 61.888 97.3799L58.051 66.1808C58.051 66.0485 58.051 65.8368 58.1039 65.5986C58.1568 65.4134 58.2627 65.2281 58.3156 65.1223C60.6178 65.1223 62.9201 65.1488 65.2223 65.1488L81.7083 62.6878L85.6247 94.6013Z" fill="#FF90EB" stroke="black" stroke-miterlimit="10" stroke-linecap="round" stroke-linejoin="round"/>
<path d="M53.1024 50.4094L24.576 51.362C23.1735 51.4149 21.9563 50.3564 21.771 48.9539L17.1401 11.1922C16.9284 9.41924 18.4632 7.91089 20.2362 8.17551L49.4241 12.5153C50.6414 12.7006 51.594 13.6532 51.7264 14.8705L55.7222 47.3662C55.9074 48.9539 54.6901 50.3564 53.1024 50.4094Z" fill="white" stroke="black" stroke-miterlimit="10" stroke-linecap="round" stroke-linejoin="round"/>
<path d="M83.4551 49.4038L64.9579 50.0124C63.5554 50.0653 62.3381 49.0068 62.1529 47.6043L58.4217 17.3314C58.21 15.532 59.7448 14.0237 61.5443 14.2883L80.4648 17.0933C81.6821 17.2785 82.6347 18.2312 82.7671 19.4484L86.0748 46.3077C86.2601 47.9483 85.0428 49.3508 83.4551 49.4038Z" fill="white" stroke="black" stroke-miterlimit="10" stroke-linecap="round" stroke-linejoin="round"/>
<path fill-rule="evenodd" clip-rule="evenodd" d="M67.7172 41.2967L79.6373 40.6403C80.225 40.6079 80.646 40.0601 80.5262 39.4838L77.8126 26.4421C77.7197 25.9959 77.3265 25.6761 76.8708 25.6761H74.9168H70.2286H68.2315C67.7157 25.6761 67.2917 26.0829 67.2703 26.5982L66.7032 40.2964C66.6797 40.8638 67.1502 41.3279 67.7172 41.2967Z" fill="#FF90EB"/>
<path d="M70.2286 25.6761C70.4441 23.8133 70.4669 21.8873 72.3289 21.8873C74.1909 21.8873 74.7444 23.8133 74.9168 25.6761M70.2286 25.6761H74.9168M70.2286 25.6761H68.2315M74.9168 25.6761H76.8708M79.6373 40.6403L67.7172 41.2967M79.6373 40.6403C80.225 40.6079 80.646 40.0601 80.5262 39.4838M79.6373 40.6403V40.6403C80.225 40.6079 80.646 40.0601 80.5262 39.4838V39.4838M67.7172 41.2967C67.1502 41.3279 66.6797 40.8638 66.7032 40.2964M67.7172 41.2967V41.2967C67.1502 41.3279 66.6797 40.8638 66.7032 40.2964V40.2964M66.7032 40.2964L67.2703 26.5982M67.2703 26.5982C67.2917 26.0829 67.7157 25.6761 68.2315 25.6761M67.2703 26.5982V26.5982C67.2917 26.0829 67.7157 25.6761 68.2315 25.6761V25.6761M76.8708 25.6761C77.3265 25.6761 77.7197 25.9959 77.8126 26.4421M76.8708 25.6761V25.6761C77.3265 25.6761 77.7197 25.9959 77.8126 26.4421V26.4421M77.8126 26.4421L80.5262 39.4838" stroke="#FF90EB"/>
<path d="M60.3002 103.413L32.7 111.749C31.0858 112.225 29.4187 111.14 29.207 109.473L24.5496 71.6056C24.3644 70.0973 25.4494 68.7212 26.9577 68.5625L55.2459 65.5193C56.7278 65.3605 58.0774 66.419 58.2362 67.9009L62.232 100.476C62.3907 101.773 61.5704 103.016 60.3002 103.413Z" fill="white" stroke="black" stroke-miterlimit="10" stroke-linecap="round" stroke-linejoin="round"/>
<path d="M82.2542 96.3802L71.7848 99.9467C70.1706 100.423 68.5035 99.3381 68.2918 97.671L64.5606 67.2922C64.3754 65.7839 65.4603 64.4079 66.9687 64.2491L85.307 62.2644C86.7889 62.1056 85.1483 63.4511 85.307 64.933L78.4032 88.2526C78.5885 89.6022 83.5244 96.0097 82.2542 96.3802Z" fill="white" stroke="black" stroke-miterlimit="10" stroke-linecap="round" stroke-linejoin="round"/>
<path d="M22.6444 55.3048C24.2057 55.2255 24.3909 58.3745 25.9522 58.2951C27.5134 58.2157 27.3547 55.0402 28.9159 54.9608C30.4772 54.8814 30.6625 58.0305 32.2237 57.9511C33.785 57.8717 33.6262 54.6962 35.1875 54.6168C36.7488 54.5374 36.934 57.6865 38.4953 57.6071C40.0566 57.5277 39.8978 54.3522 41.4591 54.2728C43.0204 54.1934 43.2056 57.3424 44.7669 57.2631C46.3281 57.1837 46.1694 54.0082 47.7307 53.9288C49.2919 53.8494 49.4772 56.9984 51.0384 56.919" stroke="white" stroke-miterlimit="10" stroke-linecap="round" stroke-linejoin="round"/>
<path d="M23.5439 63.4288L47.8098 61.3647" stroke="white" stroke-miterlimit="10" stroke-linecap="round" stroke-linejoin="round"/>
<path d="M62.9995 54.6168L80.8086 53.6112" stroke="white" stroke-miterlimit="10" stroke-linecap="round" stroke-linejoin="round"/>
<path d="M63.661 60.0416L76.2612 59.1155" stroke="white" stroke-miterlimit="10" stroke-linecap="round" stroke-linejoin="round"/>
<path d="M81.0202 76.2101C81.2848 78.3271 80.3057 80.3117 78.8503 80.6028C77.342 80.9204 75.8865 79.3855 75.6219 77.1892C75.3573 74.9928 76.3893 73.0081 77.8977 72.7964C79.3796 72.5318 80.7556 74.0666 81.0202 76.2101Z" fill="#FF90EB" stroke="#FF90EB" stroke-miterlimit="10" stroke-linecap="round" stroke-linejoin="round"/>
<path d="M43.2316 73.4579L45.6397 93.1194L37.304 95.0512L43.2316 73.4579Z" stroke="#FF90EB" stroke-miterlimit="10" stroke-linecap="round" stroke-linejoin="round"/>
<path d="M46.5926 80.4175L48.101 92.5372L53.2611 91.3464L46.5926 80.4175Z" stroke="#FF90EB" stroke-miterlimit="10" stroke-linecap="round" stroke-linejoin="round"/>
<path d="M32.3029 103.757C33.7583 103.36 34.1817 104.895 35.6372 104.498C37.0926 104.101 36.6957 102.567 38.1511 102.17C39.6065 101.773 40.0299 103.307 41.4853 102.937C42.9408 102.54 42.5438 101.005 43.9993 100.608C45.4547 100.211 45.8781 101.746 47.3335 101.349C48.7889 100.952 48.392 99.4175 49.8474 99.0206C51.3029 98.6236 51.7262 100.158 53.1817 99.7615C54.6371 99.3646 54.2402 97.8298 55.6956 97.4328C57.151 97.0359 57.5744 98.5707 59.0563 98.1738" stroke="#FF90EB" stroke-miterlimit="10" stroke-linecap="round" stroke-linejoin="round"/>
<path d="M41.512 102.937C42.9674 102.54 42.5705 101.005 44.0259 100.608C45.4814 100.211 45.9048 101.746 47.3602 101.349C48.8156 100.952 48.4187 99.4175 49.8741 99.0206C51.3295 98.6236 51.7529 100.158 53.2084 99.7615C54.5315 99.4175 54.3198 98.1209 55.3518 97.5652V94.0721L35.6638 98.9677L38.2307 102.17C39.6332 101.852 40.0831 103.307 41.512 102.937Z" fill="#FF90EB" stroke="#FF90EB" stroke-miterlimit="10" stroke-linecap="round" stroke-linejoin="round"/>
<path d="M45.799 39.4275L33.3882 23.8147L23.6765 39.0041" stroke="#FF90EB" stroke-miterlimit="10" stroke-linecap="round" stroke-linejoin="round"/>
<path d="M52.4147 39.5597L44.7671 29.6893L41.9091 34.5583" stroke="#FF90EB" stroke-miterlimit="10" stroke-linecap="round" stroke-linejoin="round"/>
<path d="M43.3379 23.5236C43.5496 25.2436 42.5705 26.5403 41.1151 26.4344C39.6597 26.3286 38.3101 24.8202 38.0984 23.0737C37.8867 21.3272 38.8923 20.0305 40.3477 20.1629C41.8031 20.2952 43.1262 21.8035 43.3379 23.5236Z" fill="#FF90EB"/>
<path d="M77.1831 40.0361C77.6858 40.6712 78.2415 41.1475 78.7973 41.4915C79.7764 42.1002 80.5438 40.7771 79.9881 39.4275C79.6705 38.6865 79.2471 37.9721 78.7708 37.337C77.6858 35.9874 76.4156 35.2729 75.1984 35.1671C75.4101 36.9136 76.0981 38.6865 77.1831 40.0361Z" stroke="#FF90EB" stroke-miterlimit="10" stroke-linecap="round" stroke-linejoin="round"/>
<path d="M63.8461 104.075L53.2347 107.277L51.4882 93.1459L62.2054 90.6849L63.8461 104.075Z" fill="#FF90EB" stroke="black" stroke-miterlimit="10" stroke-linecap="round" stroke-linejoin="round"/>
<path d="M62.2086 90.6849L51.5178 93.1723L53.2643 107.303L55.4078 107.568L64.3785 90.8966L62.2086 90.6849Z" fill="black" stroke="black" stroke-miterlimit="10" stroke-linecap="round" stroke-linejoin="round"/>
<path d="M55.8019 38.5278L46.8577 38.0779L44.7407 38.2367L46.4872 52.2617L48.5777 52.2088L55.8019 38.5278Z" fill="black" stroke="black" stroke-miterlimit="10" stroke-linecap="round" stroke-linejoin="round"/>
<path d="M65.9638 104.26L55.3524 107.462L53.6324 93.3312L64.3231 90.8437L65.9638 104.26Z" fill="#FF90EB" stroke="black" stroke-miterlimit="10" stroke-linecap="round" stroke-linejoin="round"/>
<path d="M64.3231 90.8437L53.6324 93.3312L55.3789 107.541L65.9903 104.26L64.3231 90.8437Z" fill="#FF90EB" stroke="black" stroke-miterlimit="10" stroke-linecap="round" stroke-linejoin="round"/>
<path d="M57.8923 38.4219L46.8575 38.0779L48.5776 52.1823L59.533 51.8383L57.8923 38.4219Z" fill="#FF90EB" stroke="black" stroke-miterlimit="10" stroke-linecap="round" stroke-linejoin="round"/>
<path d="M59.533 51.8383L48.5776 52.1823L46.8575 38.0779L57.8923 38.4219L59.533 51.8383Z" fill="#FF90EB" stroke="black" stroke-miterlimit="10" stroke-linecap="round" stroke-linejoin="round"/>
<path d="M55.7409 40.7397L53.9238 48.0734" stroke="black" stroke-miterlimit="10" stroke-linecap="round" stroke-linejoin="bevel"/>
<path d="M53.9237 48.0736L50.5294 44.7069" stroke="black" stroke-miterlimit="10" stroke-linecap="round" stroke-linejoin="bevel"/>
<path d="M60.089 64.3284C59.8508 64.3549 59.3745 64.3549 59.0305 64.5137C58.6335 64.6989 58.4218 64.99 58.316 65.1223C60.6182 65.1223 62.9204 65.1488 65.2226 65.1488L85.9162 62.2644H79.8034L60.089 64.3284Z" fill="black" stroke="black" stroke-miterlimit="10" stroke-linecap="round" stroke-linejoin="round"/>
<path d="M26.2433 67.8743L20.0511 68.5359C18.8338 68.6682 17.9606 69.7796 18.0929 70.9969L18.6486 75.4425" stroke="black" stroke-miterlimit="10" stroke-linecap="round" stroke-linejoin="round"/>
<path d="M56.8197 96.2144L62.9335 101.626" stroke="black" stroke-miterlimit="10" stroke-linecap="round" stroke-linejoin="bevel"/>
<path d="M57.674 103.145L62.117 94.9232" stroke="black" stroke-miterlimit="10" stroke-linecap="round" stroke-linejoin="bevel"/>
<path d="M78.4829 89.4148L85.4262 55.2678C85.1606 53.6363 84.4929 50.0319 83.9466 48.666C83.2636 46.9587 82.8083 44.2269 84.6295 43.8854C86.4507 43.544 88.158 44.2269 89.5239 44.796C90.8898 45.3651 91.3451 44.5684 93.0524 44.796C94.7598 45.0237 96.4671 45.8204 98.516 46.5034C100.565 47.1863 103.183 51.6254 104.093 53.1052C104.822 54.2889 109.177 73.0243 111.264 82.244L104.89 91.4637C98.8574 92.3743 85.9954 93.8767 82.8083 92.6019C79.6213 91.3271 78.5968 89.946 78.4829 89.4148Z" fill="#FF90EB"/>
<path d="M111.141 79.1067L109.313 81.4153C109.025 80.0686 108.352 77.4714 108.159 76.1247C107.101 70.7378 105.947 65.351 104.696 59.9642C104.023 56.886 103.157 53.8078 101.426 51.1144C100.175 49.1905 98.2513 47.5552 96.0388 46.8818L94.9807 45.6313L95.5405 44.6892C98.7149 44.593 101.714 47.3628 103.446 50.0562C105.177 52.6535 105.947 55.8278 106.716 58.906C107.967 64.2929 109.121 69.6797 110.179 75.0665C110.468 76.4133 110.756 77.76 111.141 79.1067Z" fill="white"/>
<path d="M89.4978 45.7274C93.0569 46.2084 96.0154 47.4639 97.9393 50.4459C97.7469 48.7144 97.1933 47.6513 95.8465 46.4008C94.596 45.1502 92.571 43.8259 90.7433 43.7297C90.2624 43.7297 88.7294 44.0171 88.3446 44.2094C87.9599 44.498 89.4978 45.2464 89.4978 45.7274Z" fill="white"/>
<path d="M85.8423 45.7274C88.8243 46.9779 91.123 48.5196 92.6621 51.4054C92.1811 49.6739 91.6139 48.6132 90.4595 47.2665C90.0748 46.7856 89.7862 46.2084 89.3052 45.7274C88.7281 45.1503 87.9585 44.7655 87.3814 44.2845C87.0928 44.0921 86.8042 43.8997 86.5156 43.8036C86.227 43.7074 85.7547 43.0576 85.4662 43.25C85.1776 43.3462 84.027 42.9614 84.027 43.25C83.9308 43.5386 84.3144 44.9765 84.5068 45.1689L85.8423 45.7274Z" fill="white"/>
<path d="M83.7614 43.5928C84.3385 43.208 85.2043 43.1118 85.8776 43.3042C86.6472 43.4966 87.2243 43.8814 87.8977 44.2662C90.3025 45.9015 92.1302 48.4987 92.8997 51.2883" stroke="black" stroke-miterlimit="10" stroke-linecap="round" stroke-linejoin="round"/>
<path d="M87.8974 43.9777C90.1099 43.4005 92.5147 43.6891 94.3424 44.9396C96.2663 46.0939 97.613 48.114 98.0939 50.3264" stroke="black" stroke-miterlimit="10" stroke-linecap="round" stroke-linejoin="round"/>
<mask id="mask0_6613_15016" style="mask-type:alpha" maskUnits="userSpaceOnUse" x="4" y="4" width="122" height="122">
<path d="M64.7784 5.81835V9.62222C95.3283 9.62222 120.053 34.3474 120.053 64.8973H123.857C124.571 64.8973 125.284 65.4916 125.284 66.3237C124.571 98.5378 98.5378 124.571 66.3237 125.284C65.6105 125.284 64.8973 124.689 64.8973 123.857V120.053C34.3474 120.053 9.62222 95.3283 9.62222 64.7784H5.81834C5.10512 64.7784 4.39189 64.184 4.39189 63.3519C5.10512 31.1379 31.1379 5.10512 63.3519 4.39189C64.184 4.39189 64.7784 5.10512 64.7784 5.81835Z" fill="#45E0A8"/>
</mask>
<g mask="url(#mask0_6613_15016)">
<path d="M122.623 107.754L104.25 122.664C92.3224 111.89 84.2421 100.924 78.7591 91.1124C84.7231 92.2667 90.9757 92.0743 96.6511 90.0543C102.423 88.0342 107.617 83.8979 110.407 78.511C112.908 88.8999 117.044 98.8079 122.623 107.754Z" fill="black" stroke="black" stroke-miterlimit="10" stroke-linecap="round" stroke-linejoin="round"/>
</g>
<path d="M95.1122 44.8433C98.2866 44.7471 101.172 46.7672 102.904 49.3644C104.635 51.9616 105.405 55.136 106.174 58.2142C107.425 63.601 108.579 68.9879 109.637 74.3747C109.926 75.7214 110.215 77.1643 110.503 78.511" stroke="black" stroke-miterlimit="10" stroke-linecap="round" stroke-linejoin="round"/>
<path d="M87.4164 53.6931L78.759 91.1124C69.6206 74.6633 67.6967 61.4848 67.6006 58.2142C67.6006 57.637 67.6006 57.0599 67.7929 56.5789C67.9853 56.0979 68.4663 55.5208 69.0435 55.4246C72.314 54.5588 73.4684 60.5228 79.6247 65.4287C79.5286 64.7554 79.3362 64.1782 79.24 63.601C76.9313 52.3464 75.777 44.7471 75.3922 34.6468C75.3922 33.8772 75.4884 33.1077 75.777 32.4343C76.0656 31.761 76.6427 31.0876 77.4123 30.9914C78.6628 30.799 79.7209 32.0496 80.2981 33.2039C80.6829 33.9734 81.26 35.3201 81.9334 37.1478C83.8573 41.9575 86.4545 49.7492 87.4164 53.6931Z" fill="#FF90EB"/>
<path d="M87.4168 53.6931C86.1662 49.4606 83.2804 44.8433 81.4528 40.4184C80.7794 38.6869 80.1061 37.244 79.7213 36.4745C79.0479 35.3201 77.9898 34.0696 76.6431 34.262C76.1621 34.3582 75.6812 34.6468 75.3926 34.9354C75.3926 34.743 75.3926 34.6468 75.3926 34.4544C75.3926 33.6848 75.583 33.3693 75.8716 32.6959C76.1602 32.0226 76.5412 31.3529 77.3108 31.2568C78.5613 31.0644 79.7213 31.8572 80.2984 33.0115C80.6832 33.781 81.2604 35.1277 81.9337 36.9554C83.8576 41.9575 86.4548 49.7492 87.4168 53.6931Z" fill="white" stroke="white" stroke-miterlimit="10" stroke-linecap="round" stroke-linejoin="round"/>
<path d="M87.3202 59.3686C92.1299 57.1562 97.3243 55.9056 102.519 55.5209" stroke="black" stroke-miterlimit="10" stroke-linecap="round" stroke-linejoin="round"/>
<path d="M114.351 91.1124C111.369 95.7297 106.751 99.1927 101.557 101.02C96.6511 102.752 91.2642 103.137 86.0698 102.463C83.2802 98.6155 80.8753 94.864 78.8553 91.2086C84.8193 92.3629 91.0718 92.1705 96.7473 90.1505C102.519 88.1304 107.713 83.9941 110.503 78.6073C111.465 82.8398 112.812 86.9761 114.351 91.1124Z" fill="black" stroke="black" stroke-miterlimit="10" stroke-linecap="round" stroke-linejoin="round"/>
<path d="M78.8552 91.1124C69.6206 74.6633 67.6967 61.4848 67.6006 58.2142C67.6006 57.637 67.6006 57.0598 67.7929 56.4827C67.9853 56.0017 68.4663 55.5208 69.0435 55.3284C72.314 54.4626 73.4684 60.4266 79.6247 65.3325C77.0275 53.0197 75.777 45.1318 75.3922 34.5506C75.3922 33.781 75.4884 33.0115 75.777 32.3381C76.0656 31.6648 76.6427 30.9914 77.4123 30.8952C78.6628 30.7028 79.7209 31.9533 80.2981 33.1077C81.8372 35.9935 86.0697 48.4024 87.5126 53.6931" stroke="black" stroke-miterlimit="10" stroke-linecap="round" stroke-linejoin="round"/>
</svg>
