<svg width="130" height="130" viewBox="0 0 130 130" fill="none" xmlns="http://www.w3.org/2000/svg">
<path d="M15.3407 77.8479V99.4306L26.2337 104.993L28.2038 88.074L29.2467 81.7005L15.3407 77.8479Z" fill="#FF90EB"/>
<path d="M65.0545 9.38757V5.79518C65.0545 4.98399 64.3592 4.28869 63.548 4.40457C33.1865 7.7652 9.66217 33.4913 9.66217 64.7799C9.66217 95.3732 34.4612 120.172 65.0545 120.172V123.881C65.0545 124.692 65.7498 125.387 66.561 125.271C96.9225 121.795 120.447 96.0685 120.447 64.7799C120.447 34.1866 95.6477 9.38757 65.0545 9.38757Z" fill="#FF90EB"/>
<path d="M80.2355 20.5136L15.3407 45.5445V37.2009C15.3407 34.6514 17.4266 31.8702 19.976 30.8273L75.6001 9.38881C78.1496 8.46174 80.2355 9.62058 80.2355 12.17V20.5136Z" fill="white"/>
<path d="M26.002 50.7597L15.3407 45.0814V36.6219L25.6543 40.6778L26.002 49.9485" fill="white"/>
<path d="M26.2847 104.883L15.3407 99.4286V36.8514C15.3407 34.302 17.4266 31.5208 19.976 30.4779L75.6001 9.0394C78.1496 8.11233 80.2355 9.27117 80.2355 11.8206C80.2355 11.8206 80.2355 12.0524 80.2355 12.6318" stroke="black" stroke-miterlimit="10" stroke-linejoin="round"/>
<path d="M78.1506 8.5759L89.0437 14.3701C89.3913 14.486 89.6231 14.8336 89.739 15.0654L90.4343 16.5719L90.0866 25.0314L73.2835 21.3231L71.3135 16.5719L76.1806 11.9365L78.1506 8.5759Z" fill="white"/>
<path d="M90.4339 80.1876L26.2344 104.871C26.1185 104.871 26.0026 104.871 26.0026 104.639V42.4096C26.0026 39.8602 28.0885 37.079 30.638 36.036L86.2621 14.5976C88.8115 13.6705 90.8974 14.8293 90.8974 17.3788V79.6082C90.7815 79.84 90.6656 80.0718 90.4339 80.1876Z" fill="#FF90EB" stroke="black" stroke-miterlimit="10" stroke-linecap="round" stroke-linejoin="round"/>
<path d="M54.0436 99.0824C26.5792 88.537 26.3475 51.1066 26.3475 50.759V47.8619C26.3475 45.5442 28.2016 42.9948 30.5193 42.0677L86.1434 20.6292C86.9546 20.2816 87.6499 19.5863 88.2293 19.0069C88.6928 18.5433 89.2722 17.9639 89.504 17.9639C89.6199 17.9639 90.4311 18.1957 90.8946 24.9169L91.1264 27.1187C92.6329 42.2995 94.3711 59.4502 111.29 71.3862L54.0436 99.0824Z" fill="#FF90EB" stroke="black" stroke-linejoin="round"/>
<path d="M90.7818 25.7224L25.887 50.7532V42.4096C25.887 39.8602 27.9729 37.079 30.5224 36.036L86.1465 14.5976C88.6959 13.6705 90.7818 14.8293 90.7818 17.3788V25.7224Z" fill="black"/>
<path d="M38.1696 37.6674C38.1696 39.058 37.0107 40.5645 35.6201 41.1439C34.2295 41.7234 33.0707 41.0281 33.0707 39.6375C33.0707 38.2469 34.2295 36.7404 35.6201 36.161C37.1266 35.5815 38.1696 36.2768 38.1696 37.6674Z" fill="#FF90EB"/>
<path d="M24.724 27.8146C24.8399 27.0035 24.9558 26.3082 25.3034 25.6129C26.9258 21.0934 30.7499 19.8187 33.9947 22.7158C37.2394 25.6129 38.5141 31.6388 36.8918 36.1583C36.5441 37.0853 36.1965 37.8965 35.6171 38.4759" stroke="black" stroke-miterlimit="10" stroke-linecap="round" stroke-linejoin="round"/>
<path d="M15.6889 45.1977L26.0026 50.7601" stroke="black" stroke-miterlimit="10" stroke-linecap="round" stroke-linejoin="round"/>
<path d="M20.3251 47.861C20.3251 47.861 20.3251 55.3935 20.3251 64.5483Z" fill="#FF90EB"/>
<path d="M20.3251 47.861C20.3251 47.861 20.3251 55.3935 20.3251 64.5483" stroke="black" stroke-miterlimit="10" stroke-linecap="round" stroke-linejoin="round"/>
<path d="M20.3251 71.7278C20.3251 84.9385 20.3251 98.6127 20.3251 98.6127Z" fill="#FF90EB"/>
<path d="M20.3251 71.7278C20.3251 84.9385 20.3251 98.6127 20.3251 98.6127" stroke="black" stroke-miterlimit="10" stroke-linecap="round" stroke-linejoin="round"/>
<path d="M54.2778 76.7122C54.8573 78.5664 54.2778 80.5364 53.119 80.9999C51.9602 81.4634 50.5696 80.3046 50.106 78.4505C49.5266 76.5963 50.106 74.6263 51.2649 74.1628C52.3078 73.6993 53.6984 74.8581 54.2778 76.7122Z" fill="black" stroke="black" stroke-miterlimit="10" stroke-linecap="round" stroke-linejoin="round"/>
<path d="M62.7368 52.8428C63.2004 54.5811 62.7368 56.3193 61.578 56.667C60.4192 57.0146 59.1444 56.0876 58.565 54.3493C58.1015 52.6111 58.565 50.8728 59.7239 50.5252C60.8827 50.1775 62.2733 51.2205 62.7368 52.8428Z" fill="black" stroke="black" stroke-miterlimit="10" stroke-linecap="round" stroke-linejoin="round"/>
<path d="M75.8305 63.6228C76.5258 65.4769 76.1782 67.4469 75.0193 68.0263C73.8605 68.6058 72.2381 67.5628 71.5428 65.7087C70.8475 63.8545 71.1952 61.8845 72.354 61.3051C73.6287 60.7257 75.1352 61.7686 75.8305 63.6228Z" fill="black" stroke="black" stroke-miterlimit="10" stroke-linecap="round" stroke-linejoin="round"/>
<path d="M85.5672 44.3839L84.2925 36.5038L78.4983 41.8345L83.829 38.4738L73.9789 67.0971L60.5364 52.3799L52.8881 76.9472" stroke="black" stroke-miterlimit="10" stroke-linecap="round" stroke-linejoin="round"/>
<path d="M83.9433 38.5897L85.5656 44.3839L84.2909 36.5038L81.5927 39.4494L83.9433 38.5897Z" fill="black" stroke="black" stroke-miterlimit="10" stroke-linecap="round" stroke-linejoin="round"/>
<path d="M33.9964 53.3099L55.4349 44.9662" stroke="white" stroke-miterlimit="10" stroke-linecap="round" stroke-linejoin="round"/>
<path d="M35.1557 59.791C35.1557 59.791 42.4564 56.8939 48.4823 54.5762Z" fill="#FF90EB"/>
<path d="M35.1557 59.791C35.1557 59.791 42.4564 56.8939 48.4823 54.5762" stroke="white" stroke-miterlimit="10" stroke-linecap="round" stroke-linejoin="round"/>
<path d="M78.0323 8.69397C79.3071 9.1575 89.0413 14.4881 89.0413 14.4881" stroke="black" stroke-miterlimit="10" stroke-linecap="round" stroke-linejoin="round"/>
<path d="M16.1518 34.067L26.813 40.093" stroke="black" stroke-miterlimit="10" stroke-linecap="round" stroke-linejoin="round"/>
<path d="M79.8869 21.6728C79.8869 23.0634 78.7281 24.5699 77.3375 25.1493C75.9469 25.7288 74.7881 25.0335 74.7881 23.6429C74.7881 22.2523 75.9469 20.7458 77.3375 20.1663C78.844 19.5869 79.8869 20.2822 79.8869 21.6728Z" fill="#FF90EB"/>
<path d="M66.4447 11.8201C66.5606 11.0089 66.6765 10.3136 67.0241 9.61833C68.6465 5.09887 72.4707 3.82415 75.7154 6.72124C78.9601 9.61833 80.2349 15.6443 78.6125 20.1637C78.2648 21.0908 77.9172 21.902 77.3378 22.4814" stroke="black" stroke-miterlimit="10" stroke-linecap="round" stroke-linejoin="round"/>
<path d="M60.3032 29.0869C60.3032 30.4775 59.1444 31.984 57.7538 32.5634C56.3632 33.1429 55.2043 32.4476 55.2043 31.057C55.2043 29.6664 56.3632 28.1599 57.7538 27.5805C59.1444 27.001 60.3032 27.6963 60.3032 29.0869Z" fill="#FF90EB"/>
<path d="M46.7443 19.3522C46.8602 18.541 46.9761 17.8457 47.3237 17.1504C48.9461 12.631 52.7703 11.3562 56.015 14.2533C59.2597 17.1504 60.5345 23.1764 58.9121 27.6958C58.5644 28.6229 58.2168 29.4341 57.6374 30.0135" stroke="black" stroke-miterlimit="10" stroke-linecap="round" stroke-linejoin="round"/>
<path d="M71.1961 88.0718H67.1401V94.0977H71.1961V88.0718Z" fill="#FF90EB"/>
<mask id="mask0_6613_14965" style="mask-type:alpha" maskUnits="userSpaceOnUse" x="9" y="4" width="112" height="122">
<path d="M65.0545 9.38757V5.79518C65.0545 4.98399 64.3592 4.28869 63.548 4.40457C33.1865 7.7652 9.66217 33.4913 9.66217 64.7799C9.66217 95.3732 34.4612 120.172 65.0545 120.172V123.881C65.0545 124.692 65.7498 125.387 66.561 125.271C96.9225 121.795 120.447 96.0685 120.447 64.7799C120.447 34.1866 95.6477 9.38757 65.0545 9.38757Z" fill="#C7FA73"/>
</mask>
<g mask="url(#mask0_6613_14965)">
<path d="M100.281 114.951L78.9589 93.0489" stroke="black" stroke-miterlimit="10" stroke-linecap="round" stroke-linejoin="round"/>
<path d="M94.4892 118.428L77.2225 99.8868" stroke="black" stroke-miterlimit="10" stroke-linecap="round" stroke-linejoin="round"/>
<path d="M72.2372 96.2968L77.452 93.7474C78.0314 93.5156 78.6108 93.9791 78.4949 94.5585L77.2202 99.4256C77.2202 99.6574 76.9884 99.7733 76.8725 99.8892L70.4989 102.902" fill="#FF90EB"/>
<path d="M72.2372 96.2968L77.452 93.7474C78.0314 93.5156 78.6108 93.9791 78.4949 94.5585L77.2202 99.4256C77.2202 99.6574 76.9884 99.7733 76.8725 99.8892L70.4989 102.902" stroke="black" stroke-miterlimit="10" stroke-linecap="round" stroke-linejoin="round"/>
<path d="M65.0524 73.47C64.7048 74.3971 63.1983 80.3071 63.1983 80.423L67.2542 96.1832L68.8766 102.441C68.9925 103.136 69.8036 103.484 70.3831 103.136" fill="#FF90EB"/>
<path d="M65.0524 73.47C64.7048 74.3971 63.1983 80.3071 63.1983 80.423L67.2542 96.1832L68.8766 102.441C68.9925 103.136 69.8036 103.484 70.3831 103.136" stroke="black" stroke-miterlimit="10" stroke-linecap="round" stroke-linejoin="round"/>
<path d="M95.1791 85.0548C95.295 84.823 95.1791 84.4754 94.8315 84.3595L82.5478 79.7242L65.5129 73.2347C65.397 73.1188 65.1653 73.2347 65.1653 73.3506V73.4665L70.8436 95.4843C71.0753 96.1796 71.7706 96.5273 72.3501 96.1796" fill="#FF90EB"/>
<path d="M95.1791 85.0548C95.295 84.823 95.1791 84.4754 94.8315 84.3595L82.5478 79.7242L65.5129 73.2347C65.397 73.1188 65.1653 73.2347 65.1653 73.3506V73.4665L70.8436 95.4843C71.0753 96.1796 71.7706 96.5273 72.3501 96.1796" stroke="black" stroke-miterlimit="10" stroke-linecap="round" stroke-linejoin="round"/>
<path d="M108.741 106.029L93.0968 91.6593L89.2726 88.0669L94.8351 85.4016C94.9509 85.2857 95.0668 85.1698 95.1827 85.0539" fill="#FF90EB"/>
<path d="M108.741 106.029L93.0968 91.6593L89.2726 88.0669L94.8351 85.4016C94.9509 85.2857 95.0668 85.1698 95.1827 85.0539" stroke="black" stroke-miterlimit="10" stroke-linecap="round" stroke-linejoin="round"/>
<path d="M95.1826 85.0539L93.0967 91.6593Z" fill="#FF90EB"/>
<path d="M95.1826 85.0539L93.0967 91.6593" stroke="black" stroke-miterlimit="10" stroke-linecap="round" stroke-linejoin="round"/>
<path d="M95.1827 85.0539L93.0968 91.6593L89.2726 88.0669L94.835 85.4016C94.9509 85.2857 95.0668 85.2857 95.1827 85.0539Z" fill="black" stroke="black" stroke-miterlimit="10" stroke-linecap="round" stroke-linejoin="round"/>
<path d="M78.9584 93.0489L77.1043 99.886L70.2662 103.169C70.0345 103.285 70.1513 103.131 70.2671 102.783L69.884 103.169L71.6577 96.4095L78.9584 93.0489Z" fill="black" stroke="black" stroke-miterlimit="10" stroke-linecap="round" stroke-linejoin="round"/>
</g>
</svg>
