<svg width="130" height="130" viewBox="0 0 130 130" fill="none" xmlns="http://www.w3.org/2000/svg">
<path d="M55.1998 19.5665C-23.8832 74.5823 48.9369 158.778 105.721 109.816L125.194 90.9657C125.194 87.917 125.194 23.4493 125.194 20.8459C125.186 20.5053 124.979 20.191 124.738 19.9509C124.496 19.7108 124.171 19.5731 123.83 19.5665H55.1998Z" fill="#FF90EB"/>
<path d="M117.724 77.2311C116.482 79.3674 114.848 81.25 112.907 82.7797C110.956 84.3051 108.641 85.2959 106.191 85.6542C106.14 85.6339 106.084 85.6272 106.029 85.6348C105.974 85.6425 105.922 85.6641 105.878 85.6978C103.726 83.8686 101.618 81.9697 99.5364 80.0533L98.2996 78.9035C100.547 78.7012 102.709 77.9407 104.589 76.6911C106.543 75.3861 108.228 73.7184 109.554 71.7783C111.461 69.0868 112.794 65.8203 112.471 62.5277C112.467 62.493 112.467 62.4579 112.471 62.4232C114.781 64.5003 117.349 66.2715 120.111 67.6931C120.555 70.9683 119.44 74.3392 117.724 77.2311Z" fill="white"/>
<mask id="mask0_6613_14740" style="mask-type:alpha" maskUnits="userSpaceOnUse" x="20" y="19" width="106" height="106">
<path d="M55.2005 19.5647C-23.8825 74.5804 48.9376 158.776 105.722 109.815L124.44 91.0869C126.697 89.1357 124.324 23.4659 125.195 21.2796C125.186 20.939 124.98 20.1892 124.738 19.9491C124.496 19.709 124.171 19.5713 123.831 19.5647H55.2005Z" fill="#C7FA73"/>
</mask>
<g mask="url(#mask0_6613_14740)">
<path d="M125.067 69.8963C140.598 75.8717 122.881 98.9459 122.881 98.9459C116.784 95.6707 111.183 90.2354 105.878 85.6711C105.922 85.6374 105.974 85.6157 106.029 85.6081C106.084 85.6005 106.14 85.6072 106.192 85.6275C108.642 85.2691 110.956 84.2784 112.907 82.753C114.848 81.2232 116.482 79.3407 117.724 77.2044C119.466 74.3386 120.555 70.9677 120.102 67.6664C121.714 68.5021 123.372 69.2465 125.067 69.8963V69.8963Z" fill="black"/>
<path d="M101.829 114.615L90.0786 135.729L66.4035 128.857C61.1447 123.833 56.4882 118.215 52.5276 112.115C51.6566 110.817 50.7854 109.502 50.0189 108.143C50.0473 106.783 50.3433 105.442 50.8899 104.197C51.7419 102.087 53.0019 100.166 54.5977 98.5433C56.1934 96.9209 58.0936 95.6293 60.1893 94.7425C62.285 93.8557 64.5349 93.3911 66.8105 93.3752C69.086 93.3594 71.3425 93.7927 73.4504 94.6503V94.6503C81.0753 103.591 90.8375 110.459 101.829 114.615V114.615Z" fill="black"/>
<path d="M73.4591 94.6545C81.0816 103.595 90.8406 110.462 101.829 114.619L90.0786 135.733L66.4035 128.861C61.1447 123.837 56.4882 118.219 52.5276 112.119C51.6566 110.821 50.7854 109.506 50.0189 108.147" stroke="black" stroke-linecap="round" stroke-linejoin="round"/>
<path d="M98.2999 78.8766L99.5367 80.0264C101.619 81.9427 103.727 83.8416 105.878 85.6708C111.183 90.2003 116.191 94.0416 122.881 98.9456C122.881 98.9456 140.598 75.8714 125.067 69.896C123.372 69.2463 121.714 68.5018 120.102 67.6661C117.34 66.2445 114.773 64.4733 112.463 62.3962" stroke="black" stroke-linecap="round" stroke-linejoin="round"/>
</g>
<path d="M94.8076 39.2621C96.7326 38.3911 98.466 42.4589 100.861 46.9361C101.158 47.4849 101.454 48.0423 101.776 48.5998L101.575 47.0319L101.445 45.9779L96.9765 11.1881C96.796 9.82327 96.1034 8.57809 95.0392 7.70474C93.975 6.83139 92.6187 6.39515 91.2449 6.48438C71.4546 7.61675 32.4923 10.317 12.9894 11.7717C12.6623 11.7942 12.3385 11.8496 12.0226 11.9372C11.8661 11.9744 11.7119 12.0209 11.5609 12.0765C11.4302 12.1213 11.3023 12.1737 11.1777 12.2333L11.0121 12.3117C10.8739 12.3787 10.7401 12.4543 10.6114 12.5382L10.3937 12.6776C10.2647 12.7576 10.1424 12.8479 10.0279 12.9476C9.92335 13.0347 9.81874 13.1218 9.72292 13.2176L9.51388 13.4267C9.33732 13.6091 9.17424 13.8042 9.02604 14.0103C8.93893 14.1409 8.85201 14.2629 8.77361 14.4023C8.65185 14.6022 8.54687 14.812 8.45994 15.0294C8.40768 15.1426 8.3642 15.2559 8.32065 15.3691C8.23958 15.5934 8.17554 15.8234 8.12904 16.0573C8.12493 16.1298 8.12493 16.2025 8.12904 16.275C8.12904 16.3883 8.08543 16.5102 8.06801 16.6234C8.01993 17.0343 8.01993 17.4494 8.06801 17.8603C9.41814 34.2448 13.5382 64.7578 16.1253 80.7591C16.3206 82.1444 17.0385 83.4025 18.1317 84.2754C19.2249 85.1484 20.6107 85.5701 22.0049 85.4541L38.1019 83.9123C37.9625 83.5465 37.8407 83.1806 37.7274 82.8061C37.4226 81.8218 37.1524 80.8375 36.9172 79.8358H36.7605C34.9024 78.0252 33.6543 75.681 33.1893 73.1287C32.9432 72.1832 32.9825 71.186 33.3024 70.2629C33.6235 69.6507 34.1093 69.1404 34.7049 68.7895C35.3005 68.4386 35.9824 68.2611 36.6735 68.2769L37.048 67.9111C37.3849 67.4889 37.8171 67.1528 38.3093 66.9302C38.8014 66.7076 39.3394 66.6049 39.8789 66.6306L40.9328 66.4477L41.2986 66.2299C42.1673 65.7668 43.1365 65.5245 44.1208 65.5244L44.809 65.3589C44.8026 64.9269 44.943 64.5055 45.2073 64.1637C45.4716 63.8219 45.8439 63.5799 46.2636 63.4774C47.1124 63.2966 47.9973 63.4007 48.781 63.7736C49.5601 64.0973 50.2901 64.5283 50.95 65.054C50.95 65.054 46.8124 56.6396 46.5249 53.1815C46.5249 52.476 46.5859 51.9795 46.9169 51.7966C48.0754 51.1694 50.1225 52.8418 52.2653 55.4114C54.7911 58.5248 56.9509 61.918 58.7022 65.5244C60.7144 69.7925 62.9966 75.977 65.2875 81.2991L97.5949 78.2069C96.4974 77.1965 95.4173 76.1686 94.3285 75.1582C90.7281 71.7843 87.1364 68.4076 83.5534 65.0279C83.5534 65.0279 81.5849 63.2858 79.7209 61.204C79.4247 60.8817 79.1286 60.542 78.8498 60.211C77.1861 58.2772 75.8796 56.2999 76.5242 55.4724C77.0555 54.8017 78.4926 55.1763 80.2783 55.9428L81.2627 56.387C83.8758 57.6239 86.9418 59.4096 88.9539 60.0019C89.3226 60.1018 89.7113 60.1013 90.0797 60.0006C90.4481 59.8998 90.783 59.7024 91.0495 59.4288C91.316 59.1552 91.5043 58.8153 91.5954 58.4444C91.6864 58.0735 91.6766 57.6849 91.5671 57.319C91.4206 56.8608 91.2311 56.4175 91.001 55.995C90.9139 55.8295 90.818 55.664 90.7135 55.4898C90.5363 55.1882 90.3415 54.8974 90.1299 54.6188C89.4557 53.7291 88.7036 52.9012 87.8825 52.145C87.4993 51.7791 87.0812 51.4133 86.6195 51.0213C86.1579 50.6294 85.6614 50.2461 85.1214 49.8367C84.8339 49.6189 84.5378 49.4012 84.2503 49.1834L79.2679 46.1434L78.1093 45.4379C76.463 44.3926 75.3306 43.4432 75.2435 42.6331C75.1216 41.5269 76.9858 40.6384 80.6355 41.3875C82.559 40.5468 84.7159 40.405 86.7329 40.9868V40.9868L86.8024 40.7255C87.177 40.5338 89.9295 39.2534 94.0061 41.5094C94.0409 41.5181 93.8407 39.776 94.8076 39.2621ZM81.1144 28.0168C75.0171 28.4611 67.2212 29.0708 61.2023 29.4715H61.0194C60.3395 29.4652 59.6846 29.2144 59.1743 28.765C58.6641 28.3155 58.3326 27.6975 58.2406 27.0238C58.1956 26.6846 58.2214 26.3398 58.3161 26.0111C58.4107 25.6823 58.5723 25.3766 58.7907 25.1133C59.0091 24.8499 59.2794 24.6345 59.585 24.4806C59.8906 24.3267 60.2248 24.2377 60.5664 24.219C66.5767 23.8183 74.3814 23.2086 80.4439 22.7557L81.1144 28.0168Z" fill="#FF90EB"/>
<path d="M74.7025 68.0298C74.7207 68.4417 74.6517 68.8528 74.4999 69.2362C74.3481 69.6196 74.1169 69.9666 73.8217 70.2544C73.5265 70.5423 73.1738 70.7645 72.7867 70.9065C72.3996 71.0485 71.9867 71.1071 71.5754 71.0785H71.4535C70.5557 70.9997 69.7114 70.6179 69.0592 69.9958C68.407 69.3737 67.9858 68.5483 67.8647 67.6552C67.8561 67.5451 67.8561 67.4344 67.8647 67.3242C67.8449 66.8948 67.9197 66.4662 68.0837 66.0689C68.2478 65.6715 68.4972 65.3151 68.8142 65.0247C69.1099 64.7624 69.4544 64.5611 69.8282 64.4326C70.2019 64.304 70.5974 64.2506 70.9918 64.2756H71.1137C71.8659 64.349 72.582 64.6331 73.1799 65.0954C73.7778 65.5576 74.2331 66.1793 74.4935 66.8887C74.6278 67.2544 74.6984 67.6403 74.7025 68.0298Z" fill="white"/>
<path d="M27.362 66.012C28.0166 66.3132 28.5757 66.7886 28.9782 67.3862C29.3807 67.9838 29.6112 68.6806 29.6443 69.4004C29.6666 69.8138 29.6004 70.2271 29.4501 70.6129C29.2999 70.9986 29.069 71.3478 28.773 71.6372C28.477 71.9266 28.1228 72.1495 27.7338 72.291C27.3447 72.4325 26.9299 72.4894 26.5171 72.4578H26.404C25.4494 72.3747 24.5573 71.9486 23.8927 71.2584C23.2281 70.5682 22.8359 69.6606 22.789 68.7036C22.7692 68.2741 22.844 67.8456 23.008 67.4482C23.1721 67.0509 23.4215 66.6944 23.7385 66.404C24.0336 66.1409 24.3782 65.9391 24.7521 65.8105C25.1259 65.6819 25.5216 65.629 25.9162 65.6549H26.038C26.4972 65.6934 26.9458 65.8143 27.362 66.012V66.012Z" fill="white"/>
<path d="M73.8152 20.5753C69.1376 20.9237 64.1551 21.3358 60.0176 21.6146H59.8347C59.1535 21.608 58.4975 21.356 57.9871 20.9048C57.4767 20.4536 57.1462 19.8335 57.0561 19.1582C57.0125 18.8197 57.0391 18.4758 57.1344 18.1481C57.2296 17.8204 57.3914 17.5158 57.6097 17.2534C57.8279 16.991 58.098 16.7764 58.4029 16.6231C58.7078 16.4697 59.041 16.3809 59.3817 16.3621C63.5105 16.0921 68.4669 15.7088 73.1357 15.3604L73.8152 20.5753Z" fill="black" stroke="black" stroke-linecap="round" stroke-linejoin="round"/>
<path d="M86.5324 19.6648C83.6492 19.8391 78.9106 20.1962 73.8149 20.5795L73.1355 15.3531C78.266 14.9699 83.0393 14.6127 85.9399 14.4385C86.6501 14.4023 87.3479 14.6365 87.8925 15.0938C88.4371 15.5512 88.7883 16.1978 88.8754 16.9036C88.9153 17.241 88.8851 17.583 88.787 17.9083C88.6888 18.2336 88.5247 18.5352 88.3049 18.7943C88.085 19.0533 87.8141 19.2643 87.5091 19.4141C87.2041 19.5639 86.8718 19.6492 86.5324 19.6648Z" stroke="black" stroke-linecap="round" stroke-linejoin="round"/>
<path d="M87.7163 27.5841C86.0439 27.6799 83.7442 27.8367 81.1136 28.037L80.4431 22.8107C83.1085 22.6191 85.4342 22.4623 87.124 22.3578C87.8343 22.3216 88.5318 22.5557 89.0765 23.0131C89.6211 23.4704 89.9722 24.117 90.0594 24.8229C90.0992 25.1603 90.0693 25.5023 89.9711 25.8276C89.873 26.1529 89.7089 26.4544 89.489 26.7135C89.2692 26.9726 88.9982 27.1836 88.6932 27.3334C88.3883 27.4831 88.0557 27.5685 87.7163 27.5841V27.5841Z" stroke="black" stroke-linecap="round" stroke-linejoin="round"/>
<path d="M70.0864 37.2017C67.3774 37.402 64.7382 37.5936 62.369 37.7504H62.1946C61.5142 37.7459 60.8584 37.4958 60.3478 37.046C59.8373 36.5962 59.5063 35.9772 59.416 35.3028C59.371 34.9636 59.3968 34.6188 59.4915 34.29C59.5861 33.9612 59.7475 33.6556 59.9659 33.3922C60.1843 33.1288 60.4548 32.9134 60.7604 32.7596C61.066 32.6057 61.4 32.5166 61.7416 32.498C64.0935 32.3412 66.7241 32.1598 69.4156 31.9594L70.0864 37.2017Z" fill="white" stroke="black" stroke-linecap="round" stroke-linejoin="round"/>
<path d="M88.8922 35.8373C84.8679 36.0725 77.2636 36.7084 70.0861 37.1962L69.4153 31.9699C76.6102 31.4472 84.2232 30.8462 88.2997 30.6023C89.009 30.5702 89.7046 30.8059 90.2483 31.2624C90.792 31.719 91.1442 32.3633 91.2353 33.0674C91.2751 33.4053 91.2451 33.7477 91.147 34.0735C91.0489 34.3993 90.8849 34.7014 90.6651 34.9611C90.4454 35.2209 90.1746 35.4327 89.8696 35.5834C89.5646 35.7342 89.232 35.8206 88.8922 35.8373Z" stroke="black" stroke-linecap="round" stroke-linejoin="round"/>
<path d="M81.253 56.3962C81.253 56.2655 81.3051 56.1349 81.3312 56.0042C81.6009 54.2746 81.7493 52.5282 81.7755 50.7779" stroke="black" stroke-linecap="round" stroke-linejoin="round"/>
<path d="M74.4682 66.8499C76.7383 65.5408 78.56 63.5765 79.6945 61.2142" stroke="black" stroke-linecap="round" stroke-linejoin="round"/>
<path d="M52.2648 55.4578C55.0435 57.3131 57.2908 60.0047 59.6862 62.4262C62.0816 64.8477 64.7731 66.9382 67.8653 67.7048" stroke="black" stroke-linecap="round" stroke-linejoin="round"/>
<path d="M27.3607 66.0156C28.9958 62.1553 31.6184 58.7936 34.965 56.2685C38.2973 53.833 42.4219 52.7358 46.5239 53.1937" stroke="black" stroke-linecap="round" stroke-linejoin="round"/>
<path d="M74.4673 66.8452C74.6155 67.2229 74.6952 67.6241 74.7025 68.0298C74.7207 68.4417 74.6517 68.8528 74.4999 69.2362C74.3481 69.6196 74.1169 69.9666 73.8217 70.2544C73.5265 70.5423 73.1738 70.7645 72.7867 70.9065C72.3996 71.0485 71.9867 71.1071 71.5754 71.0785H71.4535C70.5557 70.9997 69.7114 70.6179 69.0592 69.9958C68.407 69.3737 67.9858 68.5483 67.8647 67.6552C67.8561 67.5451 67.8561 67.4344 67.8647 67.3242C67.8449 66.8948 67.9197 66.4662 68.0837 66.0689C68.2478 65.6715 68.4972 65.3151 68.8142 65.0247C69.1099 64.7624 69.4544 64.5611 69.8282 64.4326C70.2019 64.304 70.5974 64.2506 70.9918 64.2756H71.1137C71.8562 64.3499 72.5635 64.6298 73.1559 65.0837C73.7482 65.5376 74.2023 66.1475 74.4673 66.8452V66.8452Z" stroke="black" stroke-linecap="round" stroke-linejoin="round"/>
<path d="M26.404 72.4484C25.4494 72.3653 24.5573 71.9393 23.8927 71.249C23.2281 70.5588 22.8359 69.6512 22.789 68.6942C22.7692 68.2647 22.844 67.8362 23.008 67.4388C23.1721 67.0415 23.4215 66.685 23.7385 66.3946C24.0336 66.1315 24.3782 65.9297 24.7521 65.8011C25.1259 65.6725 25.5216 65.6196 25.9162 65.6455H26.038C26.4972 65.684 26.9458 65.805 27.362 66.0026C28.0166 66.3038 28.5757 66.7792 28.9782 67.3768C29.3807 67.9745 29.6112 68.6713 29.6443 69.391C29.6666 69.8044 29.6004 70.2177 29.4501 70.6035C29.2999 70.9892 29.069 71.3384 28.773 71.6278C28.477 71.9172 28.1228 72.1401 27.7338 72.2816C27.3447 72.4232 26.9299 72.48 26.5171 72.4484H26.404Z" stroke="black" stroke-linecap="round" stroke-linejoin="round"/>
<path d="M73.4482 94.6561C71.3372 93.7967 69.0772 93.363 66.7981 93.3798C64.519 93.3967 62.2658 93.8637 60.1678 94.7541C58.0697 95.6444 56.1682 96.9406 54.5727 98.5681C52.9772 100.196 51.7189 102.122 50.8703 104.238C50.3237 105.483 50.0277 106.824 49.9992 108.184C48.17 105.135 46.5151 101.999 44.8863 98.8284C45.0212 97.8373 45.2846 96.8681 45.6701 95.9452C47.3348 91.807 50.5358 88.4732 54.6029 86.6418C58.6701 84.8104 63.2881 84.6233 67.4901 86.1197C67.6991 86.5291 67.9082 86.9124 68.1172 87.2869C69.6638 89.902 71.4484 92.3688 73.4482 94.6561V94.6561Z" fill="white"/>
<path d="M109.553 71.7537C108.227 73.6937 106.542 75.3614 104.588 76.6664C102.708 77.916 100.547 78.6765 98.2989 78.8789V78.8789C98.2615 78.8557 98.2312 78.8225 98.2117 78.7831L97.602 78.2169C96.5045 77.2065 95.4244 76.1786 94.3355 75.1682C90.7352 71.7943 87.1434 68.4175 83.5605 65.0378C83.5605 65.0378 81.592 63.2957 79.728 61.2139C79.4318 60.8916 79.1356 60.5519 78.8569 60.2209C77.1932 58.2872 75.8865 56.3099 76.5311 55.4824C77.0624 54.8117 78.4997 55.1862 80.2853 55.9528L81.2697 56.397C83.8829 57.6339 86.9489 59.4195 88.961 60.0119C89.3296 60.1118 89.7184 60.1113 90.0868 60.0105C90.4552 59.9098 90.7901 59.7124 91.0565 59.4388C91.323 59.1652 91.5114 58.8253 91.6024 58.4544C91.6935 58.0834 91.6837 57.6949 91.5742 57.329C91.0515 55.5869 89.4663 53.1131 85.1285 49.8554C84.841 49.6376 84.5448 49.4199 84.2574 49.2021L79.275 46.1621L78.1164 45.4566C76.4701 44.4113 75.3377 43.4619 75.2506 42.6518C75.1287 41.5455 76.9929 40.6571 80.6426 41.4062C82.5661 40.5654 84.723 40.4237 86.74 41.0055V41.0055L86.8095 40.7442C87.1841 40.5525 89.9366 39.2721 94.0132 41.5281C96.1014 42.7624 97.9536 44.358 99.4834 46.2405C99.9799 46.8241 100.459 47.4077 100.912 47.9826C101.226 48.3746 101.53 48.7753 101.783 49.1673C102.384 49.9686 102.976 50.7787 103.525 51.5801L103.882 52.0853C106.426 55.6566 108.83 59.1669 112.366 62.3811C112.362 62.4158 112.362 62.451 112.366 62.4857C112.793 65.7957 111.46 69.0621 109.553 71.7537Z" fill="#FF90EB"/>
<path d="M107.706 74.0337C106.775 75.027 105.728 75.9043 104.587 76.6469C102.708 77.8965 100.546 78.657 98.2984 78.8594V78.8594C98.261 78.8362 98.2308 78.803 98.2113 78.7636L97.6016 78.1974C96.504 77.187 95.4239 76.1591 94.3351 75.1487C90.7348 71.7748 87.143 68.398 83.5601 65.0183C83.5601 65.0183 81.5916 63.2762 79.7275 61.1944C79.4314 60.8721 79.1352 60.5324 78.8565 60.2014C77.1928 58.2677 75.886 56.2904 76.5306 55.4629C76.6129 55.3658 76.7139 55.2864 76.8277 55.2295C76.9415 55.1727 77.0656 55.1394 77.1926 55.1319C77.1926 56.1075 78.2903 57.7451 79.6839 59.3739C79.9714 59.7049 80.2675 60.0446 80.555 60.3669C82.419 62.4226 84.3875 64.1908 84.3875 64.1908C87.9763 67.5705 91.568 70.9473 95.1626 74.3212C96.2514 75.3316 97.3315 76.3595 98.429 77.3699L99.0387 77.9361C99.0582 77.9755 99.0885 78.0087 99.1259 78.0319V78.0319C101.374 77.8295 103.535 77.069 105.415 75.8194C106.228 75.2908 106.994 74.6934 107.706 74.0337Z" fill="white"/>
<path d="M78.2736 59.2874C78.2736 59.2874 75.8435 55.2021 83.8223 57.6846C81.5315 56.5348 77.9426 55.2486 76.9932 55.4054C76.0437 55.5622 78.2736 59.2874 78.2736 59.2874Z" fill="white"/>
<path d="M91.593 57.3285C91.1226 48.4699 75.9837 43.9056 77.6562 41.1443C74.2329 41.8499 75.1476 43.3742 76.6371 44.4108C78.1266 45.4474 86.1577 49.942 88.3789 52.5987C90.6001 55.2554 92.7341 56.4662 91.593 57.3285Z" fill="white"/>
<path d="M109.553 71.7537C108.227 73.6937 106.542 75.3614 104.588 76.6664C102.708 77.916 100.547 78.6765 98.2989 78.8789V78.8789C98.2615 78.8557 98.2312 78.8225 98.2117 78.7831L97.602 78.2169C96.5045 77.2065 95.4244 76.1786 94.3355 75.1682C90.7352 71.7943 87.1434 68.4175 83.5605 65.0378C83.5605 65.0378 81.592 63.2957 79.728 61.2139C79.4318 60.8916 79.1356 60.5519 78.8569 60.2209C77.1932 58.2872 75.8865 56.3099 76.5311 55.4824C77.0624 54.8117 78.4997 55.1862 80.2853 55.9528L81.2697 56.397C83.8829 57.6339 86.9489 59.4195 88.961 60.0119C89.3296 60.1118 89.7184 60.1113 90.0868 60.0105C90.4552 59.9098 90.7901 59.7124 91.0565 59.4388C91.323 59.1652 91.5114 58.8253 91.6024 58.4544C91.6935 58.0834 91.6837 57.6949 91.5742 57.329C91.0515 55.5869 89.4663 53.1131 85.1285 49.8554C84.841 49.6376 84.5448 49.4199 84.2574 49.2021L79.275 46.1621L78.1164 45.4566C76.4701 44.4113 75.3377 43.4619 75.2506 42.6518C75.1287 41.5455 76.9929 40.6571 80.6426 41.4062C82.5661 40.5654 84.723 40.4237 86.74 41.0055V41.0055L86.8095 40.7442C87.1841 40.5525 89.9366 39.2721 94.0132 41.5281C96.1014 42.7624 97.9536 44.358 99.4834 46.2405C99.9799 46.8241 100.459 47.4077 100.912 47.9826C101.226 48.3746 101.53 48.7753 101.783 49.1673C102.384 49.9686 102.976 50.7787 103.525 51.5801L103.882 52.0853C106.426 55.6566 108.83 59.1669 112.366 62.3811C112.362 62.4158 112.362 62.451 112.366 62.4857C112.793 65.7957 111.46 69.0621 109.553 71.7537Z" stroke="black" stroke-linecap="round" stroke-linejoin="round"/>
<path d="M67.5168 86.0737C63.3149 84.5772 58.6968 84.7643 54.6297 86.5957C50.5625 88.4272 47.3616 91.761 45.6969 95.8992C45.3114 96.8221 45.048 97.7913 44.9131 98.7824C44.042 96.9967 43.1709 95.2023 42.2389 93.4167C41.1588 91.2477 40.0873 89.0614 39.1466 86.8489C38.7372 85.882 38.3539 84.9065 38.0229 83.9135C37.8835 83.5476 37.7616 83.1818 37.6484 82.8072C37.3435 81.8229 37.0736 80.8387 36.8384 79.8369H36.6814C34.8234 78.0264 33.5753 75.6822 33.1102 73.1298C32.8893 72.1766 32.956 71.1794 33.3019 70.2641C33.623 69.6519 34.1087 69.1416 34.7043 68.7907C35.2999 68.4398 35.9818 68.2622 36.6729 68.2781L37.0474 67.9122C37.3844 67.4901 37.8166 67.1539 38.3087 66.9313C38.8008 66.7087 39.3388 66.6061 39.8783 66.6318L40.9323 66.4488L41.2981 66.2311C42.1667 65.768 43.1359 65.5257 44.1203 65.5255L44.8084 65.36C44.802 64.928 44.9425 64.5066 45.2067 64.1649C45.471 63.8231 45.8433 63.5811 46.263 63.4786C47.1119 63.2977 47.9968 63.4018 48.7805 63.7747C49.5596 64.0985 50.2896 64.5294 50.9494 65.0552C50.9494 65.0552 46.8118 56.6408 46.5244 53.1827C46.5244 52.4771 46.5853 51.9807 46.9163 51.7977C48.0748 51.1706 50.1219 52.843 52.2647 55.4126C54.7905 58.526 56.9503 61.9192 58.7017 65.5255C60.7138 69.7937 62.996 75.9782 65.2869 81.3003C65.7224 82.3107 66.158 83.2863 66.6022 84.2096C66.9071 84.8629 67.212 85.4901 67.5168 86.0737Z" fill="#FF90EB"/>
<path d="M50.5122 63.4751C50.5122 63.4751 47.1587 55.052 48.9966 54.1026C50.4164 53.2315 57.0974 62.9089 57.0974 62.4908C57.0974 62.0727 49.4059 50.8535 46.9147 51.803C44.4234 52.7524 50.5122 63.4751 50.5122 63.4751Z" fill="white"/>
<path d="M34.4162 75.8626C34.2674 75.0702 34.2003 74.2647 34.2159 73.4585C34.2352 72.646 34.4959 71.8576 34.9649 71.1938C35.5896 70.4493 36.4677 69.9622 37.43 69.8263C38.3828 69.6825 39.3518 69.6825 40.3045 69.8263C39.7506 69.2929 39.1043 68.8649 38.397 68.5632C37.5154 68.2198 36.5526 68.141 35.6269 68.3368C34.6996 68.5409 33.8897 69.1007 33.371 69.8959C32.8601 70.7882 32.7192 71.8452 32.9788 72.8401C33.2544 73.9324 33.743 74.9595 34.4162 75.8626V75.8626Z" fill="white"/>
<path d="M39.7642 69.1735C39.7219 68.9795 39.7312 68.7778 39.7908 68.5884C39.8503 68.3989 39.9583 68.2283 40.104 68.0934C40.3907 67.8345 40.7553 67.6782 41.1405 67.6492C41.5364 67.6284 41.9333 67.6695 42.3165 67.7711C42.6415 67.3667 43.0368 67.0244 43.4836 66.7607C44.6054 66.3638 45.8226 66.3243 46.9678 66.6475C46.2448 64.5831 48.5793 64.1911 49.1454 64.3827C48.5231 64.0116 47.8217 63.7937 47.0986 63.7469C46.6705 63.7141 46.2423 63.8113 45.8703 64.0256C45.6861 64.1338 45.5382 64.2942 45.4452 64.4864C45.3521 64.6787 45.3183 64.8942 45.3478 65.1057C44.0151 65.3148 42.6212 65.5848 41.2798 65.7938C41.0624 65.8157 41.211 66.3457 41.0134 66.4391C40.9133 66.4884 40.4668 66.091 40.4028 66.1824C40.3388 66.2738 40.2989 66.3798 40.2869 66.4907C39.5069 66.5303 38.736 66.6768 37.9959 66.9262C37.7378 66.9841 37.5073 67.1286 37.3426 67.3356C37.2789 67.4625 37.2516 67.6047 37.2639 67.7462C37.2763 67.8877 37.3277 68.023 37.4124 68.137C38.2486 68.5202 38.9541 68.799 39.7642 69.1735Z" fill="white"/>
<path d="M67.5168 86.0737C63.3149 84.5772 58.6968 84.7643 54.6297 86.5957C50.5625 88.4272 47.3616 91.761 45.6969 95.8992C45.3114 96.8221 45.048 97.7913 44.9131 98.7824C44.042 96.9967 43.1709 95.2023 42.2389 93.4167C41.1588 91.2477 40.0873 89.0614 39.1466 86.8489C38.7372 85.882 38.3539 84.9065 38.0229 83.9135C37.8835 83.5476 37.7616 83.1818 37.6484 82.8072C37.3435 81.8229 37.0736 80.8387 36.8384 79.8369H36.6814C34.8234 78.0264 33.5753 75.6822 33.1102 73.1298C32.8893 72.1766 32.956 71.1794 33.3019 70.2641C33.623 69.6519 34.1087 69.1416 34.7043 68.7907C35.2999 68.4398 35.9818 68.2622 36.6729 68.2781L37.0474 67.9122C37.3844 67.4901 37.8166 67.1539 38.3087 66.9313C38.8008 66.7087 39.3388 66.6061 39.8783 66.6318L40.9323 66.4488L41.2981 66.2311C42.1667 65.768 43.1359 65.5257 44.1203 65.5255L44.8084 65.36C44.802 64.928 44.9425 64.5066 45.2067 64.1649C45.471 63.8231 45.8433 63.5811 46.263 63.4786C47.1119 63.2977 47.9968 63.4018 48.7805 63.7747C49.5596 64.0985 50.2896 64.5294 50.9494 65.0552C50.9494 65.0552 46.8118 56.6408 46.5244 53.1827C46.5244 52.4771 46.5853 51.9807 46.9163 51.7977C48.0748 51.1706 50.1219 52.843 52.2647 55.4126C54.7905 58.526 56.9503 61.9192 58.7017 65.5255C60.7138 69.7937 62.996 75.9782 65.2869 81.3003C65.7224 82.3107 66.158 83.2863 66.6022 84.2096C66.9071 84.8629 67.212 85.4901 67.5168 86.0737Z" stroke="black" stroke-linecap="round" stroke-linejoin="round"/>
<path d="M97.5846 78.2194L65.2773 81.3116" stroke="black" stroke-linecap="round" stroke-linejoin="round"/>
<path d="M81.1141 28.0192C75.0167 28.4635 67.2209 29.0732 61.202 29.4739H61.0191C60.3392 29.4676 59.6842 29.2168 59.174 28.7674C58.6638 28.318 58.3323 27.6999 58.2403 27.0262C58.1953 26.6871 58.2211 26.3423 58.3157 26.0135C58.4104 25.6847 58.572 25.3791 58.7904 25.1157C59.0088 24.8523 59.2791 24.6369 59.5847 24.483C59.8903 24.3292 60.2245 24.2401 60.5661 24.2215C66.5764 23.8208 74.3811 23.2604 80.4436 22.8075L81.1141 28.0192Z" fill="black" stroke="black" stroke-linecap="round" stroke-linejoin="round"/>
<path d="M6.91534 44.8479C8.15224 53.9504 11.569 77.7968 12.5969 84.1293C12.7943 85.5153 13.514 86.7735 14.6086 87.6463C15.7033 88.5191 17.09 88.9405 18.4852 88.8243L14.6086 36.5826" fill="#FF90EB"/>
<path d="M9.57512 63.7832C10.812 72.8857 11.5698 77.7985 12.5976 84.131C12.795 85.517 13.5148 86.7752 14.6094 87.648C15.704 88.5208 17.0908 88.9422 18.486 88.826L38.5257 86.6109" fill="#FF90EB"/>
<path d="M9.57512 63.7832C10.812 72.8857 11.5698 77.7985 12.5976 84.131C12.795 85.517 13.5148 86.7752 14.6094 87.648C15.704 88.5208 17.0908 88.9422 18.486 88.826L38.5257 86.6109" stroke="black" stroke-linecap="round" stroke-linejoin="round"/>
<path d="M12.0132 11.9037C9.87152 12.3299 7.94917 13.4986 6.58505 15.2038C5.22093 16.9089 4.5026 19.041 4.55692 21.224C5.24505 29.5948 7.49229 47.8695 9.05147 59.8029" fill="#FF90EB"/>
<path d="M12.0132 11.9037C9.87152 12.3299 7.94917 13.4986 6.58505 15.2038C5.22093 16.9089 4.5026 19.041 4.55692 21.224C5.24505 29.5948 7.49229 47.8695 9.05147 59.8029" stroke="black" stroke-linecap="round" stroke-linejoin="round"/>
<path d="M38.0218 83.9123L21.9248 85.4541C20.5306 85.5701 19.1448 85.1484 18.0516 84.2754C16.9584 83.4025 16.2405 82.1444 16.0452 80.7591C13.432 64.7578 9.33805 34.2448 7.98791 17.8603C7.93984 17.4494 7.93984 17.0343 7.98791 16.6234C8.11821 15.362 8.6863 14.1861 9.59328 13.2998C10.5003 12.4135 11.6888 11.8728 12.9529 11.7717C32.4558 10.317 71.418 7.61675 91.2084 6.48438C92.5822 6.39515 93.9384 6.83139 95.0026 7.70474C96.0668 8.57809 96.7594 9.82327 96.94 11.1881L101.408 45.9779L101.539 47.0319L101.739 48.5998L101.818 49.1834" stroke="black" stroke-linecap="round" stroke-linejoin="round"/>
<path d="M96.4789 81.352C97.6152 81.256 98.689 80.7911 99.5364 80.028" stroke="black" stroke-linecap="round" stroke-linejoin="round"/>
<path d="M66.5938 84.2208L96.4709 81.355" stroke="black" stroke-linecap="round" stroke-linejoin="round"/>
<path d="M36.6718 68.2883H36.994C38.286 68.4266 39.5033 68.9622 40.4782 69.8214C40.6872 69.9956 40.8788 70.1698 41.0704 70.3614" stroke="black" stroke-linecap="round" stroke-linejoin="round"/>
<path d="M39.877 66.6405C40.1457 66.6373 40.4141 66.6607 40.6783 66.7102L40.8612 66.7537L41.14 66.8234C42.2758 67.191 43.3481 67.7316 44.3192 68.4261" stroke="black" stroke-linecap="round" stroke-linejoin="round"/>
<path d="M44.1203 65.5352H44.6691H44.7823C46.0514 65.6782 47.2402 66.2283 48.1708 67.103" stroke="black" stroke-linecap="round" stroke-linejoin="round"/>
<path d="M52.0823 66.1343C51.7396 65.7422 51.3604 65.3835 50.9499 65.0629" stroke="black" stroke-linecap="round" stroke-linejoin="round"/>
<path d="M35.0437 71.1312C35.3138 72.4465 35.575 73.7443 35.845 75.0857C36.1673 76.6623 36.4811 78.239 36.8643 79.7981" stroke="black" stroke-linecap="round" stroke-linejoin="round"/>
<path d="M50.0266 108.136C48.1974 105.087 46.5425 101.951 44.9136 98.7804" stroke="black" stroke-linecap="round" stroke-linejoin="round"/>
<path d="M73.4487 94.6525C71.4559 92.3503 69.68 89.8689 68.1439 87.2399C67.9349 86.8653 67.7259 86.482 67.5168 86.0726" stroke="black" stroke-linecap="round" stroke-linejoin="round"/>
<path d="M50.0253 108.148C50.0537 106.788 50.3497 105.447 50.8963 104.202C51.7484 102.093 53.0081 100.173 54.6032 98.551C56.1983 96.9293 58.0974 95.6382 60.1921 94.7515C62.2868 93.8647 64.5359 93.3998 66.8105 93.3833C69.0851 93.3668 71.3407 93.799 73.448 94.6553V94.6553" stroke="black" stroke-linecap="round" stroke-linejoin="round"/>
<path d="M94.0404 41.5199C94.0404 41.5199 93.8402 39.7778 94.8071 39.2465C96.7321 38.3754 98.4654 42.4432 100.861 46.9204C101.157 47.4692 101.453 48.0267 101.775 48.5842C102.342 49.6033 102.696 50.366 103.358 51.3329" stroke="black" stroke-linecap="round" stroke-linejoin="round"/>
<path d="M86.7664 41.0121C87.2887 41.1294 87.8013 41.2867 88.2995 41.4825C91.0058 42.6586 93.5264 44.2226 95.7819 46.1252" stroke="black" stroke-linecap="round" stroke-linejoin="round"/>
<path d="M80.6354 41.3994C83.597 42.0091 87.7084 43.7164 92.8302 47.2964" stroke="black" stroke-linecap="round" stroke-linejoin="round"/>
<path d="M86.8381 40.7524H86.7934" stroke="black" stroke-linecap="round" stroke-linejoin="round"/>
<path d="M120.102 67.6508C120.555 70.952 119.44 74.323 117.724 77.1888C116.482 79.3251 114.848 81.2076 112.907 82.7374C110.956 84.2628 108.642 85.2535 106.191 85.6119C106.14 85.5915 106.084 85.5849 106.029 85.5925C105.974 85.6001 105.922 85.6218 105.878 85.6554" stroke="black" stroke-linecap="round" stroke-linejoin="round"/>
<path d="M85.1474 49.848C85.009 50.5441 84.6209 51.1657 84.0562 51.5956C83.4915 52.0256 82.7891 52.2343 82.0812 52.1824H81.9594C81.0616 52.1036 80.2172 51.7218 79.5651 51.0997C78.9129 50.4777 78.4916 49.6523 78.3706 48.7592C78.3619 48.649 78.3619 48.5383 78.3706 48.4282C78.3513 48.005 78.4238 47.5828 78.5832 47.1903C78.7426 46.7979 78.9851 46.4446 79.2939 46.1547L84.2763 49.1947C84.5638 49.4125 84.8599 49.6302 85.1474 49.848Z" fill="white" stroke="black" stroke-linecap="round" stroke-linejoin="round"/>
<path d="M31.5495 15.2918L33.2042 24.6124C30.8528 24.785 29.3723 25.9069 28.5015 26.8562C27.1081 28.4097 26.4985 30.4809 26.6727 32.7248C26.8468 34.2782 27.3693 35.8316 28.2402 37.1262L20.8378 41.8728L19.8799 41.9591C18.3123 39.5426 17.3544 36.6946 17.0931 33.6741C16.3093 24.2672 22.5796 16.3274 31.5495 15.2918Z" fill="white"/>
<path d="M49.0543 44.2892C51.4928 41.0097 52.712 36.8672 52.2765 32.3795C51.4057 22.5411 42.7841 14.774 33.1175 15.1192C32.5949 15.1192 32.0724 15.2055 31.5499 15.2918C22.667 16.4137 16.3097 24.3535 17.1806 33.6741C17.4418 36.6946 18.4869 39.5426 19.9673 41.959C23.4508 47.5686 29.634 51.1933 36.3397 50.9344C41.652 50.6755 46.1805 48.1728 49.0543 44.2892Z" stroke="black" stroke-width="1.24784" stroke-miterlimit="10" stroke-linecap="round" stroke-linejoin="round"/>
<path d="M31.5499 15.2918L33.2045 24.6124" stroke="black" stroke-width="1.24784" stroke-miterlimit="10" stroke-linecap="round" stroke-linejoin="round"/>
<path d="M28.2401 37.1261L20.8377 41.8727" stroke="black" stroke-width="1.24784" stroke-miterlimit="10" stroke-linecap="round" stroke-linejoin="round"/>
<path d="M48.8799 44.1166L41.4775 38.3344" stroke="black" stroke-width="1.24784" stroke-miterlimit="10" stroke-linecap="round" stroke-linejoin="round"/>
<path d="M43.54 39.9603C43.3129 40.2978 43.0858 40.6354 42.7452 40.973C41.6097 42.2108 39.5658 43.7861 36.3864 43.8987H36.0458C32.0716 43.8987 28.438 41.6482 26.2806 38.3849C25.1451 36.697 24.4638 34.7841 24.2367 32.6461C24.0096 29.7205 24.8044 27.0198 26.6212 24.9944C27.7567 23.7566 29.687 22.1813 32.7529 22.0687C32.8664 22.0687 32.98 22.0687 32.98 22.0687H33.3206C39.2252 22.0687 44.562 27.1324 45.1297 33.3213C45.3568 35.7968 44.789 38.1599 43.54 39.9603Z" fill="white"/>
<path d="M34.9378 34.0928C34.1857 34.1516 33.4012 34.0208 32.6573 33.7127L32.6902 33.7502C31.7499 33.3466 30.9186 32.6867 30.3107 31.8609C29.7027 31.0352 29.3479 30.0842 29.295 29.1387C29.2671 28.192 29.5511 27.3067 30.1064 26.6093C30.6618 25.912 31.46 25.4383 32.3869 25.2561C33.3137 25.0739 34.3218 25.1925 35.2668 25.5949C36.2117 25.9973 37.0452 26.663 37.648 27.4966C38.1186 28.1575 38.4253 28.8989 38.5396 29.6517C38.6539 30.4045 38.572 31.1444 38.3016 31.8026C38.0312 32.4608 37.581 33.0158 36.9929 33.4163C36.4048 33.8167 35.6979 34.0494 34.9378 34.0928Z" fill="black"/>
<path d="M39.4442 36.2054C38.1357 35.6298 36.7454 35.3747 35.4097 35.4652C34.0739 35.5557 32.8387 35.9887 31.8253 36.7216C30.8119 37.4545 30.0551 38.4622 29.6292 39.6458C29.2032 40.8293 28.7599 41.5187 29.6293 42.0096C31.8253 43.2498 32.3844 43.9863 36.5902 43.9258C40.796 43.8653 43.3465 40.6107 43.3465 40.6107C43.7491 40.1197 43.7851 39.8678 42.852 38.7743C41.9188 37.6808 40.7458 36.7965 39.4442 36.2054Z" fill="black"/>
<path d="M43.54 39.9603C43.3129 40.2978 43.0858 40.6354 42.7452 40.973C41.6097 42.2108 39.5658 43.7861 36.3864 43.8987H36.0458C32.0716 43.8987 28.438 41.6482 26.2806 38.3849C25.1451 36.697 24.4638 34.7841 24.2367 32.6461C24.0096 29.7205 24.8044 27.0198 26.6212 24.9944C27.7567 23.7566 29.687 22.1813 32.7529 22.0687C32.8664 22.0687 32.98 22.0687 32.98 22.0687H33.3206C39.2252 22.0687 44.562 27.1324 45.1297 33.3213C45.3568 35.7968 44.789 38.1599 43.54 39.9603Z" stroke="black" stroke-width="1.24784" stroke-miterlimit="10" stroke-linecap="round" stroke-linejoin="round"/>
</svg>
