<svg width="130" height="130" viewBox="0 0 130 130" fill="none" xmlns="http://www.w3.org/2000/svg">
<path d="M110.502 42.9907V32.663C110.502 22.9865 102.686 15.171 93.0095 15.171H22.7623C13.0858 15.171 5.27026 22.9865 5.27026 32.663V102.91C5.27026 112.587 13.0858 120.402 22.7623 120.402H93.0095C102.686 120.402 110.502 112.587 110.502 102.91V92.4894L122.783 101.515C123.527 102.073 124.365 101.515 124.365 100.677V34.896C124.365 34.0586 123.341 33.5934 122.783 34.0586L110.502 42.9907Z" fill="#FF90EB"/>
<mask id="mask0_6613_14887" style="mask-type:alpha" maskUnits="userSpaceOnUse" x="5" y="2" width="120" height="119">
<path d="M110.502 42.9912V32.6634C110.502 22.987 102.686 2.63513 93.0095 2.63513H22.7623C13.0858 2.63513 5.27026 22.987 5.27026 32.6634V102.911C5.27026 112.587 13.0858 120.403 22.7623 120.403H93.0095C102.686 120.403 110.502 112.587 110.502 102.911V92.4898L122.783 101.515C123.527 102.073 124.365 101.515 124.365 100.678V34.8964C124.365 34.0591 123.341 33.5938 122.783 34.0591L110.502 42.9912Z" fill="#45E0A8"/>
</mask>
<g mask="url(#mask0_6613_14887)">
<path d="M29.5537 77.791C32.1589 74.3484 35.9736 71.9293 40.1605 70.9989C41.184 70.8128 42.3005 70.6267 43.324 71.0919C44.2544 71.4641 44.9057 72.3015 44.9988 73.3249C45.1848 74.2554 44.8127 75.2788 44.1614 75.9301C45.1848 75.4649 46.2083 76.3023 46.9527 77.1397C47.604 77.9771 47.8831 79.0936 47.697 80.117C47.5109 81.1405 47.0457 82.164 46.3944 83.0014C45.557 84.304 44.5335 85.4205 43.5101 86.537C45.2779 84.7692 47.3248 82.8153 49.0926 81.1405C49.837 80.3962 50.5813 79.6518 50.5813 78.6284C50.5813 77.6049 49.837 76.7675 48.9996 76.3023C48.0692 75.8371 47.0457 75.744 46.1153 75.651C46.6735 74.9067 46.7666 73.9762 47.0457 73.0458C47.3248 72.2084 47.3248 71.185 46.7666 70.4406C46.3944 69.8824 45.7431 69.6032 45.0918 69.4171C44.4405 69.3241 43.7892 69.3241 43.1379 69.3241C40.3466 69.5102 37.6484 70.1615 35.2293 71.4641C32.8102 72.8597 30.8563 75.2788 29.5537 77.791Z" fill="white"/>
<path d="M96.7314 122.919L58.9561 124.966C54.6762 118.08 51.0475 112.87 46.4884 107.381C54.0249 107.194 61.5613 105.892 68.3534 102.542C75.0525 99.1928 80.9142 93.6102 83.7985 86.725C86.6828 99.2858 90.4976 111.474 96.7314 122.919Z" fill="black"/>
<path d="M79.2381 80.6779C80.1686 85.6092 77.9355 86.8188 77.0051 87.4701C68.9104 92.7735 59.234 97.3326 50.2088 100.868C48.348 101.613 46.301 100.868 45.1845 99.2865C44.7193 98.5421 42.7654 94.9135 40.7185 90.9126C41.0906 90.1683 41.5559 89.3309 42.1141 88.5866L42.3002 88.6796C44.2541 92.5874 45.8358 95.5648 46.301 96.3091C47.3245 97.8908 49.3714 98.6352 51.1393 97.8908C59.9783 94.3552 69.4686 89.7961 77.4703 84.5857C77.4703 84.5857 77.5634 84.4927 77.6564 84.4927C78.866 83.5623 79.4242 82.0736 79.2381 80.6779Z" fill="black"/>
<path d="M72.0743 70.2566C72.4465 71.0009 72.1673 71.9314 71.423 72.3035L43.8824 86.353C45.278 84.7712 46.7667 83.4686 47.6041 82.8174C48.9067 81.7008 51.2327 79.4678 50.1162 77.3278C48.9997 75.8392 46.4876 75.7461 45.4641 75.8392C45.185 75.8392 44.9989 75.9322 44.7197 75.9322V75.8392C45.6502 75.0948 46.5806 74.3505 47.0458 73.327C47.6041 72.3035 47.6041 70.9079 46.6736 70.1636C46.2084 69.6983 45.4641 69.5123 44.7197 69.4192C41.9285 69.047 39.1372 69.4192 36.625 70.5357C36.625 70.5357 36.625 70.5357 36.625 70.4427C36.532 70.2566 36.4389 70.0705 36.3459 69.7914V69.6983C36.2529 69.6053 36.2529 69.4192 36.1598 69.3262C36.0668 69.1401 35.9737 68.954 35.8807 68.7679C35.7876 68.5818 35.6946 68.4888 35.6946 68.3027C35.6016 68.2097 35.6016 68.1166 35.5085 68.0236C35.5085 67.9305 35.4155 67.8375 35.4155 67.6514C36.625 67.0931 37.8346 66.6279 39.1372 66.3488C40.1607 66.0697 41.2772 65.7906 42.2076 65.2323C43.138 64.581 43.6963 63.5575 43.4171 62.5341C43.138 61.2315 41.8354 60.3941 40.5328 60.0219C37.6485 59.1845 34.5781 59.0915 31.6938 59.6497L23.8782 43.2742C23.5991 42.6229 23.7851 41.7855 24.4364 41.5064C26.7625 40.2969 32.0659 37.5056 37.1833 34.9004C36.9972 35.1795 36.9042 35.5517 36.8111 35.9239C36.1598 39.8316 36.0668 43.5534 36.4389 47.4611C36.7181 50.2524 39.2302 52.2994 42.1145 52.2063C42.3937 52.2063 42.5798 52.2063 42.7658 52.2063C43.5102 52.2063 43.9754 52.4855 44.4406 52.8576C44.9058 53.2298 45.278 53.788 45.6502 54.2533C46.0223 54.9046 46.3945 55.3698 46.6736 55.835C47.1388 56.3932 47.6971 56.7654 48.3484 57.0445C49.3719 57.4167 51.2327 57.7889 53.4658 57.4167C54.8614 57.3237 56.257 53.4159 56.9083 52.1133C57.5596 50.6246 59.4205 50.6246 59.6996 50.5316C60.537 50.4385 61.2813 49.9733 61.8396 49.415C62.2118 50.2524 62.677 51.0898 63.1422 52.1133C61.8396 54.5324 61.0022 57.1376 60.7231 59.8358C60.537 61.4175 60.537 63.2784 61.6535 64.3949C62.3048 65.0462 63.3283 65.4184 64.2587 65.2323C65.1891 65.0462 65.9335 64.488 66.5848 63.8367C67.143 63.3714 67.6082 62.9062 67.9804 62.348C69.8413 65.6045 71.2369 68.5818 72.0743 70.2566Z" fill="white"/>
<path d="M53.5595 12.1044C57.9325 13.0348 60.8169 17.0356 59.9795 21.0365C59.3282 23.8278 57.0952 25.8747 54.3039 26.619C53.3734 26.8051 52.35 26.8982 51.3265 26.8051L49.4055 27.1014L48.3491 25.8747C47.1396 25.3164 46.1161 24.386 45.3718 23.3625C44.1622 21.6878 43.604 19.6408 44.0692 17.5939C44.9066 13.6861 49.0935 11.174 53.5595 12.1044Z" fill="white"/>
<path d="M58.3033 39.46C58.4894 40.1113 58.4894 40.8557 58.3033 41.5069C58.0242 42.9956 57.3729 44.2982 56.5355 45.5078C55.6981 46.7173 54.4886 47.8338 53.4651 48.8573C54.3025 48.0199 54.3955 47.3686 55.1399 46.3452C55.9773 45.1356 56.6286 43.74 56.9077 42.3443C57.0007 41.693 57.0938 40.9487 56.9077 40.2974C56.6286 39.1809 55.7912 38.3435 54.7677 38.0644C54.3025 37.9713 53.7442 37.8783 53.279 37.9713V37.8783C54.0234 37.0409 55.1399 36.9479 56.1634 37.227C57.1868 37.5061 58.0242 38.3435 58.3033 39.46Z" fill="white"/>
<path d="M56.9079 40.2027C57.0939 40.854 57.0939 41.5983 56.9079 42.2496C56.6287 43.7383 55.9774 45.0409 55.1401 46.2505C54.3957 47.2739 54.3957 47.9252 53.4653 48.7626C51.9766 47.7391 50.581 46.5296 49.3714 45.1339C48.7201 44.3896 48.0688 43.5522 47.6967 42.5288C47.3245 41.5983 47.1384 40.4818 47.3245 39.4583C47.6036 38.3418 48.348 37.3184 49.3714 36.8531C50.581 36.481 51.0462 37.5044 51.8836 38.5279C52.2557 38.1557 52.7209 37.8766 53.2792 37.7836C53.7444 37.6905 54.3027 37.7836 54.7679 37.8766C55.7914 38.2488 56.6287 39.1792 56.9079 40.2027Z" fill="white"/>
<path d="M52.907 31.0842C53.1862 31.5494 53.4653 32.1077 53.6514 32.5729C50.581 32.2007 47.4175 32.1077 44.3471 32.1077C44.161 32.1077 44.068 32.1077 43.8819 32.1077C43.4167 32.1077 42.9515 32.2007 42.5793 32.2007C44.068 31.4564 45.3706 30.8981 46.4871 30.4329C47.1384 30.1538 47.7897 29.8747 48.441 29.5955C48.441 29.7816 48.441 29.9677 48.441 30.0608C48.7201 29.7816 48.9992 29.5025 49.2784 29.2234C51.4184 28.479 51.5114 28.6651 52.907 31.0842Z" fill="white"/>
<path d="M53.28 37.8774C52.7217 38.0635 52.2565 38.2496 51.8844 38.7148C51.047 37.7844 50.5818 36.6679 49.3722 37.0401C49.5583 36.947 49.6513 36.854 49.8374 36.854C51.047 36.4818 52.4426 36.854 53.28 37.8774Z" fill="white"/>
<path d="M50.0229 53.5094C52.2559 57.1381 53.5585 57.3242 53.8376 57.3242C51.6046 57.6963 49.7438 57.3242 48.7203 56.952C48.069 56.7659 47.5107 56.3007 47.0455 55.7424C46.6733 55.2772 46.3942 54.812 46.022 54.1607C45.6499 53.6025 45.2777 53.1373 44.8125 52.7651L44.4464 51.8438L45.0916 51.3694C45.5568 51.4625 46.022 51.5555 46.4873 51.4625C46.7664 51.4625 46.9525 51.4625 47.1386 51.4625C48.4412 51.5555 49.2785 52.486 50.0229 53.5094Z" fill="black"/>
<path d="M53.4653 48.857C53.2792 49.0431 52.2558 49.5083 52.0697 49.6944C50.581 48.6709 49.1854 47.4613 47.9758 45.9726C47.3245 45.2283 46.6732 44.3909 46.301 43.3675C45.9289 42.437 45.7428 41.3205 45.9289 40.297C46.115 39.2736 46.7663 38.4362 47.6036 37.971C47.8828 37.7849 49.0923 37.0406 49.3714 36.9475C48.348 37.4127 47.6036 38.3431 47.3245 39.5527C47.1384 40.5762 47.2315 41.6927 47.6967 42.6231C48.0688 43.5535 48.7201 44.3909 49.3714 45.2283C50.581 46.6239 51.9766 47.8335 53.4653 48.857Z" fill="black"/>
<path d="M48.3492 25.9666L51.3266 26.897C50.7683 27.7344 50.117 28.5718 49.3727 29.3162C49.0936 29.5953 48.8144 29.8744 48.5353 30.1535C48.5353 29.9674 48.5353 29.7814 48.5353 29.6883C48.4423 28.3857 48.3492 27.1762 48.3492 25.9666Z" fill="white"/>
<path d="M44.9985 51.3678L44.7193 52.7635C44.2541 52.3913 43.6959 52.1122 43.0446 52.1122C42.8585 52.1122 42.6724 52.1122 42.3933 52.1122C39.4159 52.2052 36.9968 50.1583 36.7177 47.367C36.2524 43.3662 36.3455 39.7375 37.0898 35.8297C37.1829 35.4575 37.2759 35.0854 37.462 34.8062C38.2063 33.2245 40.1602 32.4802 42.7654 32.201C43.1376 32.108 43.6028 32.108 44.068 32.108C42.5793 32.2941 41.3698 33.4106 41.1837 34.8062C40.5324 38.714 40.3463 42.8079 40.8115 46.7157C40.9976 49.0418 42.7654 50.9026 44.9985 51.3678Z" fill="black"/>
<path d="M43.976 25.4109C44.4412 26.4344 44.0691 27.6439 43.0456 28.1092C38.5796 30.2491 34.2065 32.3891 29.7405 34.5291C28.8101 34.9943 27.6936 34.6221 27.1353 33.6917C26.9492 33.3195 26.6701 32.9474 26.484 32.6682V32.5752C31.9735 29.5978 37.6491 26.8066 43.4178 24.2944L43.6039 24.7596C43.6969 24.9457 43.7899 25.2248 43.976 25.4109Z" fill="black"/>
<path d="M28.3445 60.3934C28.3445 60.4864 28.4376 60.5795 28.4376 60.6725C27.6932 60.9516 26.9489 61.3238 26.2976 61.789L20.715 50.1587L17.6446 43.8318C16.7142 41.9709 15.6907 38.7144 20.2498 36.2023C19.5985 36.8536 19.1333 37.5979 18.8542 38.5283C18.6681 39.4588 18.7611 40.3892 19.1333 41.3196L28.3445 60.3934Z" fill="black"/>
<path d="M43.6028 63.1841C43.6028 63.3702 43.5098 63.5563 43.4167 63.7424C43.0446 64.3937 42.2072 64.7658 41.4628 65.138C40.2533 65.6032 39.0437 66.2545 37.8342 66.8128C37.0898 67.1849 36.3455 67.5571 35.6012 67.9293C34.5777 68.3945 33.6473 68.8597 32.7168 69.3249C32.0655 69.604 31.5073 69.8832 30.856 70.1623C30.2977 70.4414 29.6464 70.7205 29.0882 70.9997C31.2281 68.7667 33.8333 67.1849 36.7177 66.2545C37.462 66.0684 38.2063 65.7893 38.8576 65.4171C39.5089 65.0449 40.1602 64.4867 40.3463 63.7424C40.6255 62.7189 40.1602 61.6024 39.3229 60.858C38.4855 60.1137 37.462 59.7415 36.4385 59.3694C37.1829 59.3694 38.0203 59.3694 38.7646 59.5554C39.7881 59.7415 40.8115 60.1137 41.742 60.5789C42.2072 60.858 42.6724 61.1372 43.0446 61.5093C43.1376 61.5093 43.1376 61.6024 43.1376 61.6024C43.5098 61.9745 43.6959 62.5328 43.6028 63.1841Z" fill="white"/>
<path d="M20.6213 50.066C18.4813 49.2286 16.2483 48.8564 14.0153 48.7634C12.8988 48.7634 11.5031 48.8564 10.8518 49.7868C10.3866 50.5312 10.3866 51.4616 10.7588 52.2059C11.1309 52.9503 11.6892 53.6016 12.3405 54.1598C15.8334 57.5608 20.3252 60.5986 24.829 62.4657" stroke="black" stroke-miterlimit="10" stroke-linecap="round" stroke-linejoin="round"/>
<path d="M30.9698 70.0213C30.5046 70.3005 29.5534 71.001 29.0882 71.2802" stroke="black" stroke-miterlimit="10" stroke-linecap="round" stroke-linejoin="round"/>
<path d="M30.7632 70.1633C31.3215 69.7911 31.8798 69.4189 32.5311 69.1398C33.4615 68.5816 34.4849 68.1163 35.5084 67.7442" stroke="black" stroke-miterlimit="10" stroke-linecap="round" stroke-linejoin="round"/>
<path d="M29.9247 76.6769C29.8316 76.6769 29.8316 76.6769 29.7386 76.6769C26.4821 76.9561 23.1326 74.8161 21.923 71.7457C20.7134 68.5822 21.83 64.7675 24.5282 62.8136C24.6212 62.7206 24.8073 62.6275 24.9004 62.5345C25.2725 62.2553 25.7377 61.9762 26.203 61.6971C26.9473 61.3249 27.5986 60.9527 28.3429 60.5806C29.4595 60.1154 30.576 59.7432 31.6925 59.5571C34.5768 58.9988 37.6472 58.9988 40.5315 59.9293C41.8341 60.3014 43.1367 61.1388 43.4158 62.4414C43.6019 63.5579 43.0437 64.5814 42.2063 65.1397C41.2759 65.791 40.2524 65.977 39.1359 66.2562C37.8333 66.6283 36.717 67.2812 35.5074 67.7464" stroke="black" stroke-miterlimit="10" stroke-linecap="round" stroke-linejoin="round"/>
<path d="M34.0193 72.1167C33.368 72.5819 32.7167 73.1402 32.1584 73.6984C31.6188 72.5292 31.0791 71.4469 30.5394 70.3675C30.5208 70.3303 30.5478 70.4047 30.5292 70.3675C31.1805 70.0883 31.9723 69.5115 32.6236 69.2324C33.0888 70.1628 33.554 71.0932 34.0193 72.1167Z" fill="black" stroke="black" stroke-miterlimit="10" stroke-linecap="round" stroke-linejoin="round"/>
<path d="M33.275 87.5616C30.6698 86.6311 29.0881 83.8399 28.995 81.1416C28.995 79.839 29.2741 78.4434 29.8324 77.2338C29.9254 77.0477 30.0185 76.8617 30.1115 76.7686C30.6698 75.6521 31.3211 74.7217 32.1585 73.7913" stroke="black" stroke-miterlimit="10" stroke-linecap="round" stroke-linejoin="round"/>
<path d="M34.0203 72.1166C34.8576 71.4653 35.7881 71.0001 36.7185 70.5348C39.2307 69.4183 42.115 68.9531 44.8132 69.4183C45.4645 69.5114 46.2089 69.6975 46.7671 70.1627C47.6045 70.907 47.6045 72.3027 47.0462 73.3261C46.488 74.3496 45.5576 75.0939 44.7202 75.8383" stroke="black" stroke-miterlimit="10" stroke-linecap="round" stroke-linejoin="round"/>
<path d="M66.3983 64.4873C65.1888 64.3942 64.1653 63.3708 63.7932 62.2543C63.421 61.1377 63.514 59.8351 63.7001 58.6256C64.5375 53.7874 67.0496 49.1352 70.5853 45.6927C65.0958 48.4839 61.281 54.1595 60.8158 60.2073C60.7227 61.2308 60.7227 62.3473 61.0949 63.3708C61.4671 64.3942 62.2114 65.3247 63.2349 65.6038C64.2584 65.976 65.8401 65.4177 66.3983 64.4873Z" fill="white"/>
<path d="M63.4209 52.0204C62.1183 54.4395 61.281 57.0447 61.0018 59.7429C60.8157 61.3246 60.8157 63.1855 61.9323 64.302C62.5836 64.9533 63.607 65.3255 64.5375 65.1394C65.4679 64.9533 66.2122 64.395 66.8635 63.7437C67.4218 63.2785 67.887 62.8133 68.2592 62.255C69.0035 61.3246 69.6548 60.3942 70.2131 59.2777C70.7713 58.1612 71.2365 57.0447 71.5157 55.8351" stroke="black" stroke-miterlimit="10" stroke-linecap="round" stroke-linejoin="round"/>
<path d="M40.7189 95.1932C39.9746 93.8906 40.1607 92.4019 40.7189 90.9132C41.0911 90.1689 41.5563 89.3315 42.1146 88.5872C42.6728 87.8428 43.2311 87.0985 43.8824 86.4472C45.278 84.8655 46.7667 83.5629 47.6041 82.9116C48.9067 81.7951 51.2327 79.562 50.1162 77.422C48.9997 75.9334 46.4876 75.8403 45.4641 75.9334C45.185 75.9334 44.9989 76.0264 44.7198 76.0264C42.8589 76.3055 40.9981 77.1429 39.4163 78.2594C36.9042 80.1203 34.7642 82.6324 34.0199 85.7028C33.8338 86.3541 33.7407 87.0054 33.7407 87.6567C33.6477 90.355 34.5781 93.7045 37.4624 96.961C40.905 100.869 43.8824 104.218 46.4876 107.382C51.0467 112.964 54.6753 118.082 58.9553 124.967L96.6376 123.013C90.4967 111.569 86.589 99.2871 83.7977 86.7263C83.3325 84.6794 82.8672 82.6324 82.4951 80.4924C80.7273 71.7464 79.2386 64.5822 78.4942 56.3014C77.7499 47.8345 74.2143 45.3223 71.9813 45.3223C69.6552 45.3223 67.143 47.0901 65.4683 49.044C65.0961 49.4162 64.817 49.8814 64.5378 50.2536C64.1657 50.8118 63.7935 51.4631 63.4213 52.1144" stroke="black" stroke-miterlimit="10" stroke-linecap="round" stroke-linejoin="round"/>
<path d="M32.6245 69.3265C32.6245 69.2334 32.5315 69.2334 32.5315 69.1404" stroke="black" stroke-miterlimit="10" stroke-linecap="round" stroke-linejoin="round"/>
<path d="M70.3072 59.4637C73.3776 66.2558 76.355 73.0479 79.0532 79.747C79.1463 80.0261 79.2393 80.3982 79.3323 80.6774C79.5184 82.073 78.9602 83.5617 77.6576 84.3991C77.5645 84.3991 77.5645 84.4921 77.4715 84.4921C69.4698 89.7956 60.0725 94.3546 51.1404 97.8903C49.3726 98.6346 47.3257 97.9833 46.3022 96.3085C45.837 95.5642 44.2553 92.5868 42.3014 88.679" stroke="black" stroke-miterlimit="10" stroke-linecap="round" stroke-linejoin="round"/>
<path d="M26.483 32.5749C24.6222 33.5984 22.7613 34.5288 20.9935 35.5523C20.7144 35.7383 20.4353 35.9244 20.2492 36.1105C19.5979 36.7618 19.1327 37.5062 18.8535 38.4366C18.6675 39.367 18.7605 40.2974 19.1327 41.2279L28.2508 60.3946" stroke="black" stroke-miterlimit="10" stroke-linecap="round" stroke-linejoin="round"/>
<path d="M45.1852 23.2708C44.5339 23.5499 43.9757 23.9221 43.3244 24.2012" stroke="black" stroke-miterlimit="10" stroke-linecap="round" stroke-linejoin="round"/>
<path d="M65.375 48.9502C64.7052 47.4432 63.9601 46.0115 63.2074 44.5196" stroke="black" stroke-miterlimit="10" stroke-linecap="round" stroke-linejoin="round"/>
<path d="M57.5588 33.0398C56.4423 30.8998 55.3258 28.7598 54.2092 26.6198" stroke="black" stroke-miterlimit="10" stroke-linecap="round" stroke-linejoin="round"/>
<path d="M79.3283 80.6779C80.2587 85.6092 77.9354 86.8187 77.0049 87.47C68.9102 92.7735 59.2338 97.3326 50.2086 100.868C48.3478 101.613 46.3009 100.868 45.1843 99.2865C44.7191 98.5421 42.7652 94.9135 40.7183 90.9126" stroke="black" stroke-miterlimit="10" stroke-linecap="round" stroke-linejoin="round"/>
<path d="M20.993 35.5513C16.4339 38.1565 16.713 41.8782 17.6434 43.7391L20.7139 50.066L26.2303 61.5586" stroke="black" stroke-miterlimit="10" stroke-linecap="round" stroke-linejoin="round"/>
<path d="M49.5572 12.1978C50.7667 11.8256 52.1624 11.8256 53.558 12.1047C57.931 13.0352 60.8154 17.036 59.978 21.0368C59.3267 23.8281 57.0936 25.875 54.3024 26.6194C53.3719 26.8055 52.3485 26.8985 51.325 26.8055" stroke="black" stroke-miterlimit="10" stroke-linecap="round" stroke-linejoin="round"/>
<path d="M48.3472 25.9679C47.1377 25.4097 46.1142 24.4792 45.3699 23.4558C44.1603 21.781 43.602 19.7341 44.0673 17.6871C44.3464 16.1984 45.1838 14.8958 46.3003 13.8724" stroke="black" stroke-miterlimit="10" stroke-linecap="round" stroke-linejoin="round"/>
<path d="M46.5808 107.287C54.1172 107.1 61.6537 105.798 68.4458 102.448C75.1009 99.1207 80.9296 93.5894 83.8337 86.7664" stroke="black" stroke-miterlimit="10" stroke-linecap="round" stroke-linejoin="round"/>
<path d="M51.3264 26.804C50.7682 27.6414 50.1169 28.2927 49.3725 29.037C49.0934 29.3161 48.8143 29.5952 48.5351 29.8744C48.5351 29.6883 48.5351 29.5952 48.5351 29.4092C48.4421 28.2927 48.4421 27.0831 48.349 25.9666" stroke="black" stroke-miterlimit="10" stroke-linecap="round" stroke-linejoin="round"/>
<path d="M53.8382 57.3248C53.6521 57.3248 52.3495 57.1387 50.0234 53.5101C49.2791 52.4866 48.5347 51.4631 47.0461 51.4631C46.86 51.4631 46.6739 51.4631 46.3948 51.4631C45.9295 51.4631 45.4643 51.4631 44.9991 51.3701C42.6731 50.9049 40.9983 49.044 40.7192 46.718C40.2539 42.7171 40.347 38.7163 41.0913 34.8085C41.3705 33.4129 42.487 32.2963 43.9756 32.1103C44.0687 32.1103 44.2548 32.1103 44.4409 32.1103C47.5113 32.1103 50.6747 32.2033 53.7451 32.5755C55.0477 32.6685 56.3503 32.8546 57.6529 33.1337C58.3042 33.2268 58.9555 33.3198 59.5138 33.5059C61.0955 33.8781 62.305 35.0876 62.4911 36.6693C62.6772 39.1815 63.0494 41.6937 63.1424 44.1128C63.2355 45.0432 63.2355 46.0667 63.1424 46.9971C63.1424 47.8345 62.7703 48.7649 62.212 49.4162C61.6538 50.0675 61.0025 50.4397 60.072 50.5327C59.7929 50.5327 57.932 50.6257 57.2807 52.1144C56.6294 53.324 55.2338 57.3248 53.8382 57.3248Z" stroke="black" stroke-miterlimit="10" stroke-linecap="round" stroke-linejoin="round"/>
<path d="M42.6733 32.2023C40.0681 32.4814 38.1142 33.2257 37.3698 34.8075C37.1837 35.0866 37.0907 35.4588 36.9977 35.8309C36.3464 39.7387 36.2533 43.4604 36.6255 47.3682C36.9046 50.1595 39.4168 52.2064 42.3011 52.1134C42.5802 52.1134 42.7663 52.1134 42.9524 52.1134C43.6967 52.1134 44.1619 52.3925 44.6272 52.7647C45.0924 53.1369 45.4645 53.6951 45.8367 54.1603C46.2089 54.8116 46.581 55.2768 46.8602 55.7421C47.3254 56.3003 47.8836 56.6725 48.5349 56.9516C49.5584 57.3238 51.4193 57.696 53.6523 57.3238" stroke="black" stroke-miterlimit="10" stroke-linecap="round" stroke-linejoin="round"/>
<path d="M43.9743 32.1103C43.5091 32.1103 43.0439 32.2033 42.6717 32.2033" stroke="black" stroke-miterlimit="10" stroke-linecap="round" stroke-linejoin="round"/>
<path d="M53.4651 48.8569C53.2791 49.043 52.2556 49.5082 52.0695 49.6943C50.5808 48.6709 49.1852 47.4613 47.9756 45.9726C47.3243 45.2283 46.673 44.3909 46.3009 43.3674C45.9287 42.437 45.7426 41.3205 45.9287 40.297C46.1148 39.2735 46.7661 38.4362 47.6035 37.9709C47.8826 37.7849 49.0921 37.0405 49.3713 36.9475" stroke="black" stroke-miterlimit="10" stroke-linecap="round" stroke-linejoin="round"/>
<path d="M57.7451 38.3426C58.0242 38.7147 58.2103 39.0869 58.3033 39.4591C58.4894 40.1104 58.4894 40.8547 58.3033 41.506C58.0242 42.9947 57.3729 44.2973 56.5355 45.5068C55.6981 46.7164 54.4886 47.8329 53.4651 48.8564C51.9764 47.8329 50.5808 46.6234 49.3712 45.2277C48.7199 44.4834 48.0686 43.646 47.6965 42.6225C47.3243 41.6921 47.1382 40.5756 47.3243 39.5521C47.6034 38.4356 48.3478 37.4121 49.3712 36.9469C49.5573 36.8539 49.6504 36.7608 49.8364 36.7608C51.046 36.3887 52.4416 36.8539 53.279 37.7843C54.0234 36.9469 55.1399 36.8539 56.1633 37.133C56.8146 37.3191 57.3729 37.7843 57.7451 38.3426Z" stroke="black" stroke-miterlimit="10" stroke-linecap="round" stroke-linejoin="round"/>
<path d="M35.6016 68.0248C35.6016 68.0248 36.3459 69.6065 36.439 69.7926C36.439 69.7926 36.625 70.2578 36.7181 70.4439C36.7181 70.4439 36.7181 70.4439 36.7181 70.5369" stroke="black" stroke-miterlimit="10" stroke-linecap="round" stroke-linejoin="round"/>
<path d="M63.4208 52.0192C62.9916 51.0749 62.5624 50.2891 62.2063 49.5155" stroke="black" stroke-miterlimit="10" stroke-linecap="round" stroke-linejoin="round"/>
<path d="M26.4847 32.5713L43.4185 24.1975" stroke="black" stroke-miterlimit="10" stroke-linecap="round" stroke-linejoin="round"/>
<path d="M64.2547 87.5543C65.7737 86.5915 66.1577 84.4741 65.1125 82.8249C64.0672 81.1757 61.9885 80.6192 60.4694 81.5819C58.9504 82.5446 58.5663 84.6621 59.6116 86.3113C60.6569 87.9605 62.7356 88.517 64.2547 87.5543Z" stroke="black" stroke-miterlimit="10" stroke-linecap="round" stroke-linejoin="round"/>
<path d="M53.2336 22.8514C54.7208 20.9996 56.0256 19.1095 57.5128 17.2577C56.2559 18.0445 54.8551 18.8408 53.5982 19.6276C53.1473 18.5722 52.6387 17.4976 52.1974 16.4422C50.2977 17.4017 48.609 18.7737 47.2754 20.4336C48.5035 19.8963 49.8179 19.4645 51.0556 18.9368C51.6985 20.1649 52.6004 21.6233 53.2336 22.8514Z" fill="black" stroke="black" stroke-width="0.5" stroke-miterlimit="10" stroke-linecap="round" stroke-linejoin="round"/>
<path d="M92.3582 10.1491C97.4756 12.8473 99.8947 19.8255 97.8477 27.5481C95.3356 37.1315 86.9618 44.2958 79.2392 43.5514C77.4714 43.3653 76.1688 43.1793 74.308 42.1558C73.5636 41.6906 72.4471 40.9462 71.7028 40.481C73.0054 41.2254 74.494 41.7836 76.1688 41.8767C83.8914 42.621 92.1721 35.4567 94.7773 25.8733C96.8243 18.2438 94.4982 11.4517 89.5669 8.56738L92.3582 10.1491Z" fill="black"/>
<path d="M91.3336 9.96421C90.7753 9.49899 90.2171 9.03378 89.5658 8.66161H89.4727C88.2632 8.01031 86.8675 7.5451 85.3788 7.45205C77.6563 6.70771 69.2825 13.872 66.7703 23.4554C64.9094 30.5266 66.7703 36.9466 70.9572 40.11C71.0503 40.11 71.1433 40.2031 71.2364 40.2961C71.3294 40.3892 71.4224 40.3892 71.5155 40.4822C71.5155 40.4822 71.6085 40.4822 71.6085 40.5752C71.7016 40.6683 71.8877 40.7613 71.9807 40.7613C73.1903 41.4126 74.5859 41.8778 76.0746 41.9709C83.7971 42.7152 92.0779 35.5509 94.6831 25.9675C96.544 19.3615 95.0553 13.3137 91.3336 9.96421Z" fill="#FF90EB"/>
<path d="M91.3348 9.9635C91.1487 9.9635 91.0557 9.87046 90.8696 9.87046C90.8696 9.87046 90.8696 9.87046 90.7765 9.87046L90.5905 9.77741C89.3809 9.12611 87.9853 8.6609 86.4966 8.56786C78.774 7.82352 70.4002 14.9878 67.888 24.5712C66.3063 30.712 67.4228 36.3876 70.4932 39.7371C66.4924 36.5737 64.7246 30.2468 66.5854 23.3616C69.0976 13.7782 77.4714 6.61396 85.194 7.3583C86.6827 7.54439 88.0783 7.91656 89.2879 8.56786L89.4739 8.6609C90.2183 9.12611 90.7765 9.49829 91.3348 9.9635Z" fill="white"/>
<path d="M82.4026 31.9229C81.4722 32.202 80.6348 32.2951 79.7044 32.4811C77.4714 32.7603 75.3314 32.6672 73.0984 32.5742C74.401 28.3873 75.7966 24.2003 77.0992 20.0134C77.7505 19.9204 78.3088 19.6413 78.867 19.3621C80.914 18.3387 82.1235 16.1987 83.24 14.2448C83.3331 13.9657 83.7052 13.7796 83.8913 13.5935C84.0774 13.4074 84.3565 13.2213 84.6357 13.3144C85.0078 13.3144 85.287 13.6865 85.38 14.0587C85.473 14.4309 85.38 14.803 85.287 15.0822C85.0078 16.3848 84.5426 17.6874 83.8913 18.8969C85.38 18.8039 86.9617 18.8969 88.3574 18.8039C88.9156 18.8039 89.5669 18.8039 90.0321 19.176C90.6834 19.7343 90.5904 20.6647 90.4043 21.4091L89.3808 27.1777C89.1948 27.9221 88.8226 28.6664 88.1713 29.1316C87.0548 29.969 85.8452 30.6203 84.5426 31.1785" fill="#FF90EB"/>
<path d="M84.635 31.1779C83.8907 31.457 83.2394 31.7361 82.4951 31.9222Z" fill="#FF90EB"/>
<path d="M77.0993 19.9186C75.7967 24.1056 74.401 28.2925 73.0984 32.4794C71.8889 32.3864 70.5863 32.2933 69.3767 32.1072C70.028 28.0134 71.2376 23.9195 72.9124 20.1047C74.215 20.1978 75.7967 20.1978 77.0993 19.9186Z" fill="black"/>
<path d="M89.4728 8.66161C88.2633 8.01031 86.8676 7.5451 85.3789 7.45205C77.6564 6.70771 69.2826 13.872 66.7704 23.4554C64.9096 30.5266 67.0119 37.1129 71.7011 40.4852" stroke="black" stroke-miterlimit="10" stroke-linecap="round" stroke-linejoin="round"/>
<path d="M89.5669 8.75372L92.3582 10.1494C97.4756 12.8476 99.8947 19.8258 97.8477 27.5483C95.3356 37.1317 86.9618 44.296 79.2392 43.5517C77.4714 43.3656 76.1688 43.1795 74.308 42.156C73.5636 41.6908 72.4471 40.9465 71.7028 40.4813C73.0054 41.2256 74.494 41.7839 76.1688 41.8769C83.8914 42.6213 92.1721 35.457 94.7773 25.8736C96.8243 18.3371 94.4982 11.545 89.5669 8.75372Z" stroke="black" stroke-miterlimit="10" stroke-linecap="round" stroke-linejoin="round"/>
<path d="M89.5669 8.75547L89.4731 8.66168" stroke="black" stroke-miterlimit="10" stroke-linecap="round" stroke-linejoin="round"/>
<path d="M73.0984 32.4794C71.8889 32.3864 70.5863 32.2933 69.3767 32.1072C70.028 28.0134 71.2376 23.9195 72.9124 20.1047C74.308 20.1978 75.7967 20.1978 77.1923 19.9186" stroke="black" stroke-miterlimit="10" stroke-linecap="round" stroke-linejoin="round"/>
<path d="M82.4957 31.8291C81.5653 32.1082 80.6348 32.2943 79.7044 32.3874C77.4714 32.6665 75.3314 32.5735 73.0984 32.4804C74.401 28.2935 75.7966 24.1066 77.0992 19.9197C77.7505 19.8266 78.3088 19.5475 78.867 19.2684C80.914 18.2449 82.1235 16.1049 83.24 14.151C83.6122 13.2206 84.3565 13.2206 84.6357 13.2206C85.0078 13.2206 85.287 13.5928 85.38 13.9649C85.473 14.3371 85.38 14.7093 85.287 14.9884C85.0078 16.291 84.5426 17.5936 83.8913 18.8031C85.38 18.7101 86.9617 18.8031 88.3574 18.7101C88.9156 18.7101 89.5669 18.7101 90.0321 19.0823C90.6834 19.6405 90.5904 20.571 90.4043 21.3153L89.3808 27.0839C89.1948 27.8283 88.8226 28.5726 88.1713 29.0378C87.2409 29.7822 86.2174 30.3404 85.1009 30.8987" stroke="black" stroke-miterlimit="10" stroke-linecap="round" stroke-linejoin="round"/>
</g>
</svg>
