<svg width="138" height="48" viewBox="0 0 138 48" fill="none" xmlns="http://www.w3.org/2000/svg">
<path d="M53.1422 13.9363L44.467 26.7828C43.5647 28.1424 41.9819 28.9642 40.3252 28.9642C37.6275 28.9642 35.3944 26.7475 35.3944 24.0728C35.3944 21.3587 37.6275 19.1462 40.3441 19.1462C40.6134 19.1117 40.9746 19.0739 41.2266 19.0739C43.0993 19.0739 45.0072 19.8596 46.3035 21.1814L48.8945 17.2546C46.879 15.1858 43.8907 13.8616 40.9015 13.8616C35.3214 13.8616 30.21 18.4664 30.21 24.0351C30.21 29.5709 34.782 34.1026 40.3638 34.1026C43.0632 34.1026 45.7625 32.9607 47.6351 31.0675H53.611L53.6465 34.1026H58.8326V13.9363H53.1424H53.1422ZM50.7688 26.6408L53.611 22.6821L53.6465 26.6408H50.769H50.7688Z" fill="#898D9A"/>
<path d="M68.7687 34.1024H63.5842V18.6452H59.5525V13.9697L72.7988 13.936V18.6451H68.7687V34.1024V34.1024Z" fill="#898D9A"/>
<path d="M90.0811 13.9364L84.8966 13.9377L84.8605 21.4668H78.7393L78.7006 13.936H73.5203V34.1024H78.7391V26.1414H84.8964V34.1024H90.0809V13.936L90.0811 13.9364Z" fill="#898D9A"/>
<path d="M131.626 13.936V23.3206L124.498 13.936L119.78 13.9689L119.745 21.324C118.557 17.0401 114.488 13.936 109.952 13.936C104.373 13.936 99.7999 18.4662 99.7999 24.0348C99.7999 25.8229 100.339 27.6389 101.202 29.2119H96.0661V13.936H90.7832V34.1024H102.86V31.2807C104.768 33.031 107.36 34.1024 109.952 34.1024C114.488 34.1024 118.485 31.0672 119.745 26.7826L119.78 34.1024H125.002V24.2885L132.091 34.1024H136.806L136.813 13.936H131.627H131.626ZM109.952 29.1765C107.108 29.1765 104.769 26.8926 104.769 24.0348C104.769 21.2164 107.108 18.8972 109.952 18.8972C112.834 18.8972 115.174 21.2164 115.174 24.0348C115.174 26.8926 112.834 29.1765 109.952 29.1765Z" fill="#898D9A"/>
<path d="M23.9405 29.2145V26.392H29.5042L29.4944 21.4687H23.9405V18.8999H30.0731L30.0626 13.9387L18.2545 13.9716V20.8973C17.0305 17.1142 13.5011 14.3287 9.46935 13.9716L0.505127 13.9387V34.1042H9.50626C13.5011 33.7488 17.0305 30.9648 18.2545 27.2163V34.1042H30.0732L30.0627 29.2145H23.9407H23.9405ZM12.5298 27.1079C12.2071 28.4658 10.91 29.4272 9.50613 29.4633H6.19433V18.647H9.50613C10.91 18.647 12.2071 19.651 12.5298 21.0409C12.8549 21.9695 13.0347 23.04 13.0347 24.0375C13.0347 25.0752 12.8549 26.1441 12.5298 27.1079Z" fill="#898D9A"/>
</svg>
