<svg width="121" height="42" viewBox="0 0 121 42" fill="none" xmlns="http://www.w3.org/2000/svg">
<path d="M46.9657 12.2036L39.3695 23.4523C38.5795 24.6427 37.1935 25.3623 35.7429 25.3623C33.3807 25.3623 31.4254 23.4214 31.4254 21.0793C31.4254 18.7028 33.3807 16.7655 35.7594 16.7655C35.9952 16.7353 36.3115 16.7022 36.5322 16.7022C38.1719 16.7022 39.8425 17.3902 40.9776 18.5475L43.2463 15.1092C41.4815 13.2977 38.8649 12.1382 36.2475 12.1382C31.3615 12.1382 26.8859 16.1702 26.8859 21.0463C26.8859 25.8935 30.8892 29.8616 35.7767 29.8616C38.1403 29.8616 40.5039 28.8617 42.1436 27.204H47.3762L47.4072 29.8616H51.9483V12.2036H46.9658H46.9657ZM44.8875 23.3279L47.3762 19.8616L47.4072 23.3279H44.8876H44.8875Z" fill="#898D9A"/>
<path d="M60.6484 29.8611H56.1088V16.3265H52.5785V12.2326L64.1772 12.2031V16.3265H60.6484V29.8611V29.8611Z" fill="#898D9A"/>
<path d="M79.3098 12.2034L74.7702 12.2046L74.7386 18.7972H69.3788L69.3449 12.2031H64.8089V29.8611H69.3786V22.8904H74.77V29.8611H79.3096V12.2031L79.3098 12.2034Z" fill="#898D9A"/>
<path d="M115.687 12.2031V20.4204L109.446 12.2031L105.314 12.2319L105.283 18.6721C104.243 14.9211 100.681 12.2031 96.7089 12.2031C91.8236 12.2031 87.8195 16.1698 87.8195 21.0458C87.8195 22.6114 88.2919 24.2016 89.0473 25.5789H84.5502V12.2031H79.9244V29.8611H90.4994V27.3904C92.1701 28.923 94.4395 29.8611 96.7089 29.8611C100.681 29.8611 104.181 27.2035 105.283 23.4518L105.314 29.8611H109.887V21.2679L116.094 29.8611H120.223L120.229 12.2031H115.688H115.687ZM96.709 25.548C94.2189 25.548 92.1702 23.5481 92.1702 21.0458C92.1702 18.5779 94.2189 16.5472 96.709 16.5472C99.2322 16.5472 101.281 18.5779 101.281 21.0458C101.281 23.5481 99.2322 25.548 96.709 25.548Z" fill="#898D9A"/>
<path d="M21.3958 25.5808V23.1094H26.2675L26.2589 18.7984H21.3958V16.5491H26.7656L26.7564 12.2051L16.4171 12.2338V18.2981C15.3453 14.9856 12.2549 12.5465 8.72462 12.2338L0.875397 12.2051V29.8624H8.75694C12.2549 29.5511 15.3453 27.1134 16.4171 23.8311V29.8624H26.7657L26.7565 25.5808H21.396H21.3958ZM11.4044 23.7363C11.1219 24.9252 9.98607 25.767 8.75683 25.7987H5.85696V16.3277H8.75683C9.98607 16.3277 11.1219 17.2069 11.4044 18.4239C11.6891 19.2369 11.8465 20.1743 11.8465 21.0477C11.8465 21.9564 11.6891 22.8923 11.4044 23.7363Z" fill="#898D9A"/>
</svg>
