<svg width="127" height="42" viewBox="0 0 127 42" fill="none" xmlns="http://www.w3.org/2000/svg">
<path d="M1.00098 10.4047C1.00098 10.4047 4.12359 23.2002 4.62194 25.2771C5.20361 27.7013 6.25168 28.5935 9.27346 27.9918L11.2233 20.0586C11.7175 18.0881 12.049 16.6832 12.3666 14.6786H12.4225C12.6457 16.7029 12.9635 18.0939 13.3702 20.0655C13.3702 20.0655 14.1639 23.6669 14.5704 25.5585C14.9779 27.4495 16.1121 28.6413 19.072 27.9924L23.7179 10.406H19.9668L18.3808 18.0095C17.9543 20.2227 17.5673 21.9521 17.269 23.9768H17.2161C16.9449 21.9723 16.6001 20.3114 16.1665 18.155L14.515 10.406H10.6067L8.84016 17.9598C8.33968 20.2552 7.87159 22.1088 7.57392 24.0648H7.52001C7.21517 22.2227 6.80915 19.8932 6.36948 17.6712C6.36948 17.6712 5.31993 12.2683 4.95169 10.406L1.00134 10.4065L1.00098 10.4047ZM36.7596 10.4047V27.9911H40.3309V24.2567V10.4038H36.7596V10.4047ZM87.0583 10.4047V23.3785C87.0583 25.1672 87.3949 26.4205 88.1151 27.1861C88.7444 27.8557 89.7808 28.2893 91.0227 28.2893C92.0785 28.2893 93.1174 28.089 93.607 27.9067L93.561 25.1158C93.1967 25.2055 92.7775 25.2772 92.2043 25.2772C90.9878 25.2772 90.5798 24.498 90.5798 22.8919V17.9282H93.6901V14.5634H90.5798V10.4047H87.0581L87.0583 10.4047ZM28.7784 14.4816C26.559 14.4816 24.7971 15.1047 23.8368 15.6597L24.5396 18.0663C25.4185 17.5122 26.818 17.0535 28.1431 17.0535C30.3369 17.0479 30.6956 18.294 30.6956 19.0933V19.2823C25.9152 19.2751 22.8956 20.9293 22.8956 24.3012C22.8956 26.3599 24.4327 28.2892 27.1056 28.2892C28.751 28.2892 30.1271 27.633 30.9518 26.5816H31.0326C31.0326 26.5816 31.5788 28.865 34.5875 27.9918C34.4294 27.0415 34.3781 26.0282 34.3781 24.8078V20.1096C34.3781 17.1153 33.0996 14.4816 28.7785 14.4816L28.7784 14.4816ZM50.1417 14.4816C47.9069 14.4816 46.9026 15.6141 46.2937 16.575H46.2408V14.7798H42.8326V27.9919H46.4229V20.2436C46.4229 19.8803 46.4644 19.4962 46.5912 19.1621C46.8887 18.3819 47.6145 17.4694 48.7733 17.4694C50.222 17.4694 50.8999 18.6942 50.8999 20.4617V27.9918H54.4863V20.1497C54.4863 19.8029 54.5339 19.3853 54.6359 19.0787C54.9308 18.1913 55.7132 17.4693 56.7904 17.4693C58.2591 17.4693 58.9639 18.6727 58.9639 20.7526V27.9918H62.5529V20.2103C62.5529 16.1065 60.4691 14.4816 58.1168 14.4816C57.0751 14.4816 56.2528 14.7428 55.5094 15.1992C54.8845 15.5827 54.3252 16.1275 53.8362 16.8448H53.7833C53.2144 15.421 51.8797 14.4816 50.1411 14.4816L50.1417 14.4816ZM69.8573 14.4816C67.6383 14.4816 65.8768 15.1047 64.9156 15.6597L65.6194 18.0663C66.4974 17.5122 67.8978 17.0535 69.2222 17.0535C71.4145 17.0479 71.774 18.294 71.774 19.0933V19.2823C66.9943 19.2751 63.9743 20.9293 63.9743 24.3012C63.9743 26.3599 65.5123 28.2892 68.1866 28.2892C69.8306 28.2892 71.2072 27.633 72.0304 26.5816H72.1116C72.1116 26.5816 72.6576 28.865 75.6667 27.9918C75.5084 27.0415 75.4577 26.0282 75.4577 24.8078V20.1096C75.4577 17.1153 74.1788 14.4816 69.8572 14.4816L69.8573 14.4816ZM84.7669 14.4816C83.3921 14.4816 81.828 15.369 81.1714 17.2714H81.0711V14.7796H77.8391V27.9918H81.5235V21.2263C81.5235 20.8613 81.5457 20.5431 81.6034 20.2513C81.8759 18.8341 82.9599 17.9282 84.5156 17.9282C84.9427 17.9282 85.2484 17.9744 85.5791 18.0222V14.5633C85.3018 14.5073 85.1121 14.4814 84.7671 14.4814L84.7669 14.4816ZM30.8109 21.6235V23.2718C30.8109 23.5156 30.7897 23.7671 30.7222 23.9871C30.4458 24.9025 29.4975 25.676 28.312 25.676C27.3237 25.676 26.5386 25.1151 26.5386 23.9285C26.5386 22.1135 28.5365 21.6117 30.811 21.6235H30.8109ZM71.8897 21.6235V23.2718C71.8897 23.5156 71.8681 23.7671 71.801 23.9871C71.5246 24.9025 70.5766 25.676 69.3912 25.676C68.4026 25.676 67.6174 25.1151 67.6174 23.9285C67.6174 22.1135 69.6153 21.6117 71.8898 21.6235H71.8897Z" fill="#898D9A"/>
<path d="M112.999 4.04492C111.846 4.04492 110.93 4.68878 110.93 5.4726L111.63 13.4012C111.708 13.8789 112.293 14.2474 113 14.2474C113.709 14.2464 114.292 13.8783 114.371 13.4012L115.074 5.4726C115.074 4.68884 114.155 4.04499 113.001 4.04499L112.999 4.04492ZM101.589 10.4049C100.99 10.4191 100.31 10.8723 99.8778 11.6222C99.2993 12.6207 99.4018 13.7367 100.079 14.1281L107.294 17.4885C107.745 17.6561 108.357 17.336 108.712 16.7248C108.712 16.7247 108.712 16.7246 108.712 16.7245C109.068 16.1103 109.04 15.4197 108.665 15.1134L102.148 10.5424C101.979 10.4444 101.789 10.4002 101.589 10.405L101.589 10.4049ZM124.41 10.4049C124.211 10.4001 124.02 10.4443 123.852 10.5423L117.334 15.1133C116.961 15.4196 116.933 16.1102 117.288 16.7244L117.288 16.7247C117.644 17.3359 118.254 17.656 118.705 17.4884L125.924 14.1282C126.603 13.7367 126.701 12.6209 126.126 11.6222C125.692 10.8723 125.011 10.4192 124.412 10.4049L124.41 10.4049ZM107.564 20.8656C107.47 20.8643 107.38 20.8787 107.295 20.9106L100.08 24.2669C99.4028 24.6601 99.3003 25.7764 99.8787 26.7761C100.455 27.7727 101.472 28.2465 102.149 27.8556L108.666 23.2882C109.041 22.9781 109.069 22.2877 108.713 21.6741L108.716 21.6754C108.428 21.1756 107.968 20.871 107.564 20.8655L107.564 20.8656ZM118.438 20.8656C118.034 20.8711 117.576 21.1758 117.287 21.6756L117.29 21.6742C116.935 22.2878 116.963 22.9782 117.335 23.2883L123.853 27.8557C124.529 28.2466 125.546 27.7728 126.126 26.7762C126.7 25.7765 126.603 24.6602 125.923 24.267L118.707 20.9107C118.622 20.8788 118.532 20.8644 118.438 20.8657L118.438 20.8656ZM112.998 24.1515C112.292 24.1523 111.708 24.5192 111.631 24.9957L110.931 32.9239C110.931 33.7091 111.847 34.3516 113 34.3516C114.156 34.3516 115.074 33.7091 115.074 32.9239L114.372 24.9957C114.293 24.5192 113.71 24.1524 113.001 24.1515H112.998H112.998Z" fill="#898D9A"/>
</svg>
