<svg width="112" height="42" viewBox="0 0 112 42" fill="none" xmlns="http://www.w3.org/2000/svg">
<path d="M76.7522 14.1782L73.9582 14.1855V28.5218H86.7715C88.173 27.9271 88.9237 26.8991 89.2138 25.6988H76.7449L76.7522 14.1782ZM97.6611 17.043H108.349C109.834 16.7492 110.94 15.4384 111.25 14.171H94.7583C95.0665 15.4384 96.1889 16.7492 97.6611 17.043ZM63.0468 17.0031C64.5318 16.5716 65.7828 15.4384 66.0874 14.1819H50.4039V22.6528H63.2408V25.6263L53.1726 25.6353C51.5933 26.0741 50.2589 27.133 49.5898 28.5327L50.4039 28.5182H66.0004V19.837H53.1726V17.0031H63.0468ZM95.1898 28.5182H97.9693V22.747H108.088V28.5182H110.866V19.8624L95.1898 19.8479V28.5182ZM28.8024 17.0339H39.4889C40.9757 16.7384 42.0799 15.4275 42.3899 14.1601H25.8996C26.2078 15.4275 27.3283 16.7384 28.8024 17.0339ZM1 14.1927C1.32092 15.4474 2.40698 16.7257 3.89555 17.0484H8.39391L8.62236 17.1391V28.4892H11.4327V17.1391L11.6865 17.0484H16.1903C17.6934 16.6604 18.7559 15.4474 19.0732 14.1927V14.1655H1V14.1927ZM28.8024 28.52H39.4889C40.9757 28.2227 42.0799 26.9154 42.3899 25.6462H25.8996C26.2078 26.9154 27.3283 28.2227 28.8024 28.52ZM28.8024 22.6999H39.4889C40.9757 22.4062 42.0799 21.0953 42.3899 19.8279H25.8996C26.2078 21.0953 27.3283 22.4062 28.8024 22.6999Z" fill="#898D9A"/>
</svg>
