<svg width="126" height="42" viewBox="0 0 126 42" fill="none" xmlns="http://www.w3.org/2000/svg">
<path fill-rule="evenodd" clip-rule="evenodd" d="M68.4675 20.6394C68.4675 20.6394 67.2683 19.8979 66.5267 19.6109C66.5267 19.6109 64.2313 18.5471 63.7759 18.0409C63.7759 18.0409 62.8813 17.1978 63.4051 16.2186C63.4051 16.2186 63.6244 15.5778 64.5698 15.5778C64.5698 15.5778 65.8006 15.6455 65.8006 16.6571V18.084H70.2114L70.2037 15.9824C70.2037 15.9824 70.5429 12.5409 65.0082 12.3893C65.0082 12.3893 60.6551 12.1032 59.4066 14.4478C59.4066 14.4478 58.9166 14.9709 58.9166 16.7925V18.1086C58.9166 18.1086 58.8666 19.6271 59.642 20.6056C59.642 20.6056 60.0805 21.2471 61.1605 21.9548C61.1605 21.9548 63.3536 23.1356 64.6698 23.8118C64.6698 23.8118 65.9983 24.5702 65.8236 25.7772C65.8236 25.7772 65.7152 27.0164 64.4321 26.9656C64.4321 26.9656 63.259 26.9133 63.259 25.6979V24.2718H58.5589V26.3433C58.5589 26.3433 58.4274 30.3049 64.4667 30.3049C64.4667 30.3049 70.2375 30.4218 70.5068 26.2395V24.5525C70.506 24.5525 70.7106 21.9894 68.4675 20.6394ZM45.8857 12.8824L44.4088 22.1379H44.0634L42.6526 12.9655H35.2848L34.9156 29.7264H39.278L39.3303 17.0978H39.6733L41.9857 29.7241H46.575L48.8588 17.1025H49.1627L49.2681 29.7264H53.6535L53.1812 12.8824H45.8857ZM19.9177 12.9524L17.0154 29.7072H21.7116L23.4309 16.7163H23.817L25.5355 29.7072H30.2309L27.3294 12.9524H19.9177ZM118.459 20.4086V22.8802H119.663V25.5333C119.663 26.8302 118.555 26.8541 118.555 26.8541C117.207 26.8541 117.258 25.6218 117.258 25.6218V16.4448C117.258 15.4994 118.454 15.4486 118.454 15.4486C119.602 15.4486 119.61 16.5763 119.61 16.5763V17.9717H124.031C124.176 15.2478 123.633 14.5886 123.633 14.5886C122.536 12.1255 118.387 12.2601 118.387 12.2601C112.01 12.2601 112.718 17.1525 112.718 17.1525V26.0256C112.855 30.6141 119.138 30.148 119.244 30.1441C122.039 29.8349 122.883 28.9464 122.883 28.9464C123.66 28.3695 123.86 27.5703 123.86 27.5703C124.082 27.1049 124.137 25.6218 124.137 25.6218V20.4086H118.459ZM103.803 23.1356H103.61L99.1232 12.887H93.7547V29.728H98.124L97.8624 19.4809H98.0578L102.706 29.728H107.912V12.8855H103.487L103.803 23.1356ZM83.0892 25.5318C83.0892 25.5318 83.1523 26.9141 81.8707 26.9141C81.8707 26.9141 80.523 26.9864 80.523 25.5664L80.5092 12.897H75.7168V25.4656C75.7168 25.4656 75.2253 30.2226 81.9384 30.2226C81.9384 30.2226 87.7723 30.2918 87.7723 25.6841V12.8978H83.0892V25.5318ZM10.7815 20.6394C10.7815 20.6394 9.58379 19.8979 8.84147 19.6117C8.84147 19.6117 6.5476 18.5486 6.09221 18.0417C6.09221 18.0417 5.19758 17.1971 5.72221 16.2201C5.72221 16.2201 5.94067 15.5794 6.88529 15.5794C6.88529 15.5794 8.11685 15.6463 8.11685 16.6578V18.0848H12.5292L12.5207 15.9824C12.5207 15.9824 12.8577 12.5409 7.3253 12.3901C7.3253 12.3901 6.90837 12.3632 6.29683 12.3939C6.29683 12.3939 2.94525 12.5739 1.74678 14.4124C1.73986 14.4263 1.72985 14.4363 1.72293 14.4486C1.72293 14.4486 1.2337 14.9709 1.2337 16.7932V18.1094C1.2337 18.1094 1.18293 19.6279 1.95909 20.6063C1.95909 20.6063 2.39755 21.2479 3.47757 21.9556C3.47757 21.9556 5.6699 23.1364 6.98607 23.8125C6.98607 23.8125 8.31608 24.5695 8.13992 25.7779C8.13992 25.7779 8.03146 27.0172 6.74914 26.9664C6.74914 26.9664 5.57605 26.9141 5.57605 25.6987V24.2718H0.875229V26.3449C0.875229 26.3449 0.74369 30.3064 6.78299 30.3064C6.78299 30.3064 12.5523 30.4234 12.8238 26.241V24.5556C12.8238 24.5541 13.0254 21.9894 10.7815 20.6394Z" fill="#898D9A"/>
</svg>
