<svg width="92" height="42" viewBox="0 0 92 42" fill="none" xmlns="http://www.w3.org/2000/svg">
<path fill-rule="evenodd" clip-rule="evenodd" d="M52.0327 14.5361C53.1709 13.9159 54.3086 13.6052 55.7569 13.6052C59.2751 13.6052 61.965 16.7098 61.965 20.9515C61.965 26.3321 58.6543 29.7468 53.1703 29.7468C51.2039 29.7468 49.2375 29.4361 47.3751 29.0221C47.4791 26.8489 47.5836 13.6052 47.3751 11.1219C47.1702 9.8797 46.8583 9.36286 45.9279 9.15612L45.2038 9.05275V8.43194L52.1366 7.19092C52.0327 8.2252 52.0327 11.2253 52.0327 14.5361ZM52.1354 28.5052C52.445 28.608 52.963 28.608 53.3771 28.608C55.5502 28.608 57.1025 25.4012 57.1031 21.261C57.1031 17.9508 55.8615 15.2609 53.5838 15.2609C53.0658 15.2609 52.6523 15.3642 52.0315 15.5716C51.9287 20.9515 52.0315 27.0569 52.1354 28.5052ZM0.917664 7.60439H19.1285L19.2325 13.7091L18.1976 14.0198C17.1633 10.9152 15.7149 9.15672 12.9204 9.15672H9.2995C9.19554 11.1225 9.09217 14.4333 9.09217 17.9514L11.5748 17.8475C13.1271 17.8475 13.8501 16.6064 14.1614 14.8474H15.0929V22.1914H14.1614C13.8507 20.4329 13.1271 19.1913 11.5748 19.1913L9.09157 19.0879C9.09157 21.7773 9.19494 23.9504 9.29891 25.296C9.50564 27.2624 10.0231 28.1933 11.3681 28.2961L12.6097 28.504V29.3316H0.917664V28.504L1.95255 28.2961C3.29754 28.1939 3.81438 27.2624 4.02112 25.296C4.22846 22.0898 4.33242 15.3636 4.02112 11.6388C3.81498 9.67297 3.29694 8.84542 1.95255 8.63868L0.917664 8.53531V7.60439ZM32.7875 21.5729C32.7875 16.9172 30.2009 13.399 25.0271 13.399C19.8533 13.399 16.9566 17.1239 16.9566 21.5729C16.9566 26.2293 19.5432 29.7481 24.7164 29.7481C29.8902 29.7481 32.7875 26.022 32.7875 21.5729ZM21.8191 21.5729C21.8191 17.538 22.4399 14.4339 24.7164 14.4339C26.8901 14.4339 27.9238 17.6413 27.9238 21.5729C27.9238 25.6079 27.3018 28.712 24.9237 28.712C22.854 28.712 21.8191 25.5046 21.8191 21.5729ZM71.2772 13.399C66 13.399 63.31 17.4346 63.31 21.6769C63.31 26.4367 66.6208 29.7475 71.2772 29.7481C74.1739 29.7481 76.4498 28.2985 77.4847 26.8501L77.0718 26.3333C76.0364 27.0581 75.2088 27.471 73.5531 27.471C69.8277 27.471 67.9652 24.677 68.0692 20.8488H77.692C77.692 16.6071 75.6217 13.399 71.2772 13.399ZM72.9323 19.6071L68.0692 19.7111C68.172 17.3306 69.1047 14.4339 70.8631 14.4339C72.6216 14.4339 72.9323 17.538 72.9323 19.6071ZM85.2475 13.399C87.11 13.399 88.7651 13.7091 90.0067 14.2272L90.1124 18.2622L89.3889 18.4689C88.4562 15.6749 87.2145 14.5367 85.3533 14.5367C84.1117 14.5367 83.179 15.4682 83.179 16.8132C83.179 18.1588 84.2127 18.883 87.1106 20.0206C89.8005 21.0561 90.9394 22.2971 90.9394 24.4703C90.9394 27.6771 88.3522 29.7475 84.3166 29.7475C82.3502 29.7475 80.0743 29.3328 78.8327 28.8159L78.7287 24.2635L79.4535 24.0556C80.5912 27.1602 82.0407 28.2979 84.0059 28.2979C85.6616 28.2979 86.5931 27.1602 86.5931 25.9186C86.5931 24.677 85.8683 23.9522 83.2823 23.0219C80.7961 22.1938 79.0388 21.0561 79.0388 18.3655C79.0388 15.6749 81.4199 13.399 85.2475 13.399ZM39.7198 17.0211C41.3749 13.2957 44.4796 12.7794 46.238 13.8131L44.5823 18.056C42.5132 16.711 40.2367 17.3312 39.7198 18.056C39.6159 20.5393 39.6159 24.4709 39.8226 26.4373C39.9266 27.6777 40.2373 28.2985 41.2716 28.4025L42.5132 28.5064V29.334H32.8909V28.5064L33.6151 28.4025C34.5472 28.2985 34.9601 27.6777 35.064 26.4373C35.1674 24.2647 35.2708 19.9184 35.064 17.4352C34.9601 16.0896 34.5472 15.5728 33.6151 15.4688L32.8909 15.3654V14.7446L39.8226 13.3996L39.7198 17.0211Z" fill="#898D9A"/>
</svg>
