<svg width="80" height="56" viewBox="0 0 80 56" fill="none" xmlns="http://www.w3.org/2000/svg">
<rect width="80" height="56" fill="white"/>
<path d="M53.2509 44.9C53.2509 44.8 53.2409 44.7 53.2409 44.61C53.2409 44.32 53.2409 44.03 53.2509 43.74C53.2509 43.63 53.2309 43.54 53.1009 43.52C53.1009 43.37 53.0909 43.22 53.0909 43.08C53.1009 42.87 53.1609 42.64 53.1009 42.44C52.9909 42.08 53.1509 41.69 52.9209 41.36C52.9209 41.11 52.9109 40.86 52.9109 40.61C53.0009 40.48 52.9609 40.34 52.9609 40.2C52.9609 39 52.9609 37.81 52.9609 36.61C52.9609 36.1 53.0009 35.59 52.9309 35.09C52.9309 34.77 52.9309 34.46 52.9309 34.14C52.9609 34.09 53.0309 34.04 53.0309 33.99C53.0509 33.34 53.1909 32.69 53.0909 32.03C53.0909 31.89 53.0909 31.75 53.0909 31.6C53.3009 30.89 53.2809 30.16 53.2609 29.43C53.2609 29.38 53.2709 29.33 53.2709 29.28C53.3809 29.13 53.3909 28.95 53.4109 28.78C53.4309 28.59 53.3709 28.4 53.6509 28.31C53.8009 28.26 53.7309 27.99 53.7209 27.82C53.7009 27.63 53.5309 27.7 53.4209 27.68C53.4209 27.63 53.4209 27.58 53.4209 27.53C53.5609 27.46 53.5709 27.34 53.5709 27.21C53.5709 26.93 53.5709 26.66 53.5709 26.38C53.6309 26 53.4909 25.6 53.7009 25.23C53.8009 25.05 53.5109 24.96 53.5509 24.75C53.6709 24.18 53.7009 23.59 53.8509 23.02C53.9009 22.83 53.8809 22.62 53.8909 22.41C53.8909 22.27 53.8809 22.14 54.0609 22.08C54.1709 22.05 54.2209 21.91 54.1409 21.83C53.9609 21.67 54.0409 21.48 54.0309 21.29C53.9609 19.77 54.3209 18.29 54.4709 16.79C54.4809 16.67 54.5609 16.51 54.4009 16.46C54.2509 16.41 54.2409 16.58 54.1909 16.68C53.6809 17.58 53.3709 18.58 52.9309 19.52C52.5909 20.24 52.3909 20.99 52.2409 21.78C52.0709 22.72 51.7409 23.64 51.3609 24.52C51.1609 24.98 51.1109 25.47 51.0109 25.95C50.8809 26.57 50.6909 27.18 50.5509 27.8C50.3609 28.62 50.1109 29.42 49.8709 30.23C49.6209 31.07 49.5109 31.96 49.2209 32.79C48.7309 34.17 48.3209 35.58 47.8009 36.95C47.5309 37.68 47.3009 38.43 46.9709 39.14C46.4109 40.34 45.7809 41.51 44.8609 42.5C44.5409 42.85 44.1109 42.81 43.7509 42.99C43.1309 43.32 42.4809 43.07 41.9009 42.93C40.7309 42.65 39.7309 41.95 38.6809 41.37C38.2609 41.14 38.0709 40.72 37.9809 40.27C37.9409 40.09 37.8709 39.95 37.7909 39.8C37.8109 39.66 37.7709 39.55 37.6409 39.48C37.6309 39.43 37.6309 39.38 37.6209 39.33C37.7409 39.12 37.6209 38.89 37.6709 38.67C37.6309 38.67 37.6009 38.66 37.5609 38.66C37.5109 38.66 37.4709 38.65 37.4209 38.65C37.5109 37.67 37.5209 36.68 37.4209 35.7C37.4109 35.57 37.4709 35.41 37.3009 35.33C37.2909 35.21 37.2909 35.09 37.2809 34.96C37.3209 34.48 37.3709 33.99 37.2809 33.51C37.2809 33.15 37.2809 32.79 37.2809 32.43C37.3609 32.3 37.3609 32.18 37.2809 32.05C37.2809 31.89 37.2909 31.74 37.2909 31.58C37.3909 31.52 37.4109 31.43 37.3909 31.32C37.2909 30.81 37.2509 30.31 37.3909 29.79C37.4709 29.48 37.4809 29.14 37.4909 28.81C37.5209 28.03 37.3709 27.24 37.6309 26.47C37.6609 26.37 37.6209 26.25 37.6109 26.13C37.6209 26.06 37.6309 25.99 37.6409 25.92C37.7809 25.91 37.8209 25.82 37.7909 25.71C37.6709 25.34 37.7409 24.97 37.7809 24.6C37.7909 24.56 37.7909 24.51 37.8009 24.47C37.9309 24.37 37.9209 24.27 37.8009 24.16C37.8009 24.01 37.7909 23.87 37.7909 23.72C37.9009 23.1 38.0109 22.48 37.9509 21.85C37.9509 21.7 37.9509 21.55 37.9509 21.41C38.1009 21.39 38.1209 21.29 38.1109 21.17C38.0909 20.76 38.2409 20.36 38.1109 19.95C38.1109 19.47 38.1109 18.99 38.1109 18.51C38.1409 18.44 38.1709 18.37 38.2009 18.3C38.3309 18.02 38.2509 17.72 38.2709 17.43C38.2809 17.28 38.2409 17.1 38.3009 16.98C38.4109 16.79 38.3009 16.74 38.1809 16.67C38.1909 16.59 38.2009 16.52 38.2009 16.44C38.2909 16.43 38.3809 16.44 38.4109 16.32C38.5209 15.8 38.5109 15.27 38.3909 14.75C38.3809 14.72 38.3109 14.7 38.2709 14.67C38.2709 14.64 38.2609 14.61 38.2709 14.59C38.6809 14.07 38.4209 13.49 38.4209 12.94C38.4209 12.54 38.4809 12.16 38.5609 11.77C38.5909 11.63 38.6109 11.47 38.5209 11.29C38.0909 11.86 37.8309 12.48 37.5309 13.09C36.8609 14.45 36.3509 15.87 35.8209 17.29C35.2409 18.83 34.7509 20.41 34.1309 21.94C33.9409 22.41 33.8809 22.93 33.7609 23.43C33.5809 24.18 33.4009 24.93 33.2209 25.69C33.0209 26.55 32.8109 27.42 32.6109 28.28C32.4609 28.92 32.2709 29.56 32.1809 30.22C32.1309 30.59 32.0409 30.96 31.9809 31.33C31.7509 32.6 31.6409 33.89 31.2709 35.13C31.0909 35.75 30.9909 36.4 30.8309 37.03C30.5909 37.96 30.4409 38.91 30.2709 39.86C30.1109 40.75 29.9609 41.65 29.8509 42.56C29.7309 43.48 29.6409 44.4 29.5209 45.32C29.4409 45.86 29.4909 46.41 29.3709 46.94C29.2309 47.58 29.3609 48.24 29.2109 48.86C28.9409 49.98 28.7709 51.17 27.5209 51.78C26.8909 52.08 26.3809 51.94 25.8409 51.7C25.3409 51.47 24.8609 51.19 24.4009 50.89C24.2309 50.78 24.0909 50.64 24.1509 50.43C24.3709 49.68 24.2209 48.91 24.2909 48.16C24.3609 47.33 24.4009 46.5 24.4809 45.67C24.5609 44.83 24.7009 44 24.7809 43.16C24.8109 42.86 24.9209 42.57 24.9109 42.26C24.9809 42.26 25.0609 42.25 25.1309 42.27C25.2209 42.3 25.3109 42.46 25.3909 42.27C25.4609 42.12 25.3209 42.07 25.2209 42.04C25.0609 41.99 25.0309 41.91 25.0809 41.76C25.1209 41.64 25.1409 41.52 25.0609 41.4C25.0609 41.3 25.0709 41.21 25.0709 41.11C25.3509 40.92 25.2609 40.65 25.2409 40.38C25.2509 40.28 25.2509 40.19 25.2609 40.09C25.4709 39.99 25.3609 39.71 25.5509 39.58C25.6109 39.54 25.7309 39.47 25.6709 39.38C25.6409 39.33 25.5109 39.34 25.4209 39.33C25.4209 39.28 25.4209 39.23 25.4209 39.18C25.6409 38.98 25.5809 38.73 25.5709 38.48C25.5809 38.38 25.5809 38.28 25.5909 38.19C25.8509 38.06 25.7109 37.83 25.7309 37.65C25.7309 37.58 25.7409 37.5 25.7409 37.43C26.0209 37.24 25.8509 36.97 25.8809 36.73C25.8809 36.68 25.8909 36.63 25.8909 36.58C26.1409 36.33 26.4009 36.11 26.3909 35.69C26.3909 35.45 26.0909 35.36 26.1909 35.12C26.1909 35.07 26.2009 35.02 26.2009 34.97C26.4109 34.8 26.4509 34.59 26.3509 34.35C26.3509 34.28 26.3609 34.2 26.3609 34.13C26.6109 33.97 26.6109 33.75 26.5109 33.51C26.5209 33.46 26.5209 33.42 26.5309 33.37C26.8509 33.36 27.0209 33.27 26.7609 32.94C26.7209 32.88 26.7009 32.81 26.6709 32.74C26.6809 32.64 26.6909 32.55 26.7009 32.45C26.9409 32.31 26.9209 32.11 26.8309 31.89C26.8309 31.84 26.8409 31.8 26.8409 31.75C27.1909 31.73 27.0209 31.95 26.9909 32.1C26.9809 32.19 26.9609 32.28 27.0709 32.32C27.1409 32.35 27.2309 32.35 27.2909 32.29C27.3709 32.22 27.3009 32.13 27.2909 32.05C27.2609 31.77 26.8209 31.46 27.3209 31.19C27.3909 31.15 27.3809 30.98 27.2909 30.91C27.1709 30.81 27.2109 30.68 27.1809 30.56C27.1509 30.16 27.2609 29.74 27.4109 29.43C27.5609 29.13 27.4809 28.83 27.6009 28.53C27.7209 28.23 27.8109 27.87 27.8209 27.51C27.9309 27.51 27.9609 27.35 28.0709 27.39C28.1609 27.42 28.2509 27.59 28.3209 27.39C28.3709 27.24 28.2409 27.22 28.1309 27.19C28.0709 27.17 28.0209 27.1 27.9709 27.05C27.9709 27 27.9809 26.95 27.9809 26.91C28.2109 26.78 28.2409 26.59 28.1309 26.37C28.1409 26.3 28.1409 26.23 28.1509 26.16C28.3309 26.07 28.4109 25.95 28.2909 25.76C28.3009 25.71 28.3009 25.67 28.3109 25.62C28.4809 25.57 28.4809 25.18 28.7809 25.38C28.7809 25.21 28.9709 25.12 28.9709 24.94C28.9709 24.77 28.8409 24.79 28.7409 24.75C28.6409 24.71 28.6809 24.59 28.6409 24.52C28.7109 23.94 28.9309 23.41 29.0809 22.85C29.1109 22.75 29.1209 22.65 29.1309 22.55C29.2709 22.48 29.5209 22.65 29.5609 22.39C29.5809 22.2 29.4009 22.26 29.2809 22.24C29.3409 21.99 29.3909 21.74 29.4509 21.49C29.6009 21.4 29.6709 21.27 29.5909 21.1C29.5909 21.05 29.6009 21.01 29.6009 20.96C29.6909 20.94 29.7809 20.91 29.8509 20.97C30.0809 21.15 30.1109 21.03 30.1109 20.82C30.1109 20.76 30.1109 20.7 30.1109 20.63C30.3309 20.52 30.2909 20.31 30.3309 20.12C30.0009 20.07 30.1609 19.78 30.0809 19.61C30.0809 19.57 30.0909 19.52 30.0909 19.48C30.2009 19.4 30.2709 19.3 30.2409 19.16C30.3409 19.01 30.3909 18.87 30.4009 18.66C30.4209 18.11 30.7209 17.63 30.8809 17.11C31.0509 17.03 31.1009 16.9 31.0409 16.72C31.0409 16.67 31.0509 16.63 31.0509 16.58C31.3309 16.23 31.6309 15.9 31.5409 15.4C31.5509 15.35 31.5509 15.31 31.5609 15.26C31.6609 15.21 31.7509 15.15 31.8509 15.11C31.9509 15.06 32.1409 15.16 32.1609 14.98C32.1809 14.8 32.0609 14.7 31.8909 14.65C31.8909 14.13 32.1909 13.71 32.3809 13.26C32.7209 12.42 33.1209 11.6 33.5009 10.77C33.5309 10.7 33.5909 10.65 33.6409 10.6C33.7809 10.65 33.8709 10.76 34.0009 10.5C34.1709 10.18 34.0709 9.9 34.0909 9.6C34.0909 9.58 34.1009 9.55 34.1009 9.53C34.2109 9.49 34.3609 9.47 34.2409 9.29C34.2509 9.25 34.2609 9.2 34.2709 9.16C34.4409 9.04 34.5809 8.87 34.8409 8.95C34.9109 8.97 35.0309 8.83 35.0609 8.72C35.1009 8.58 35.0009 8.56 34.8909 8.52C34.7309 8.47 34.7509 8.34 34.8309 8.25C34.9009 8.16 34.9409 8.09 34.9109 7.98C34.9109 7.96 34.9209 7.93 34.9209 7.91C35.1209 7.88 35.0409 8.13 35.1709 8.18C35.3509 7.96 35.0809 7.85 35.0709 7.68C35.2309 7.14 35.5709 6.71 35.8709 6.26C36.4109 5.44 37.0509 4.7 37.8809 4.14C37.9309 4.11 37.9809 4.03 38.0309 4.04C38.7109 4.08 39.4009 3.95 40.0709 4.13C40.6109 4.27 41.1409 4.47 41.6709 4.61C42.3109 4.78 42.6209 5.19 42.7909 5.76C43.0009 6.42 43.1409 7.08 43.1409 7.79C43.1409 8.12 43.2809 8.46 43.2409 8.8C43.0009 10.61 43.2509 12.43 43.0609 14.24C42.9509 15.32 43.0309 16.4 42.9209 17.47C42.7509 19.16 42.7809 20.86 42.6009 22.55C42.4609 23.89 42.3809 25.25 42.2009 26.59C42.1209 27.21 42.1409 27.84 42.1109 28.46C41.9609 31.51 41.9309 34.57 41.9709 37.62C41.9709 37.79 42.0109 37.96 42.0409 38.16C42.4209 37.97 42.5009 37.63 42.6109 37.34C42.8509 36.72 43.2009 36.13 43.3409 35.47C43.4309 35.01 43.6509 34.63 43.9009 34.26C44.0309 34.07 43.9309 33.81 43.9509 33.59C43.9609 33.5 43.9109 33.31 44.1309 33.44C44.2109 33.49 44.2609 33.38 44.2409 33.35C43.9809 33.03 44.2209 32.73 44.2609 32.43C44.4609 32.42 44.4709 32.68 44.7009 32.74C44.5209 32.43 44.8209 32.27 44.8509 32.03C44.8609 31.73 44.9509 31.43 44.7309 31.13C44.6309 30.99 44.7309 30.76 44.7609 30.58C44.7809 30.6 44.8009 30.61 44.8209 30.63C44.9209 30.77 44.7709 31.04 44.9409 31.07C45.1709 31.11 45.0509 30.81 45.1609 30.7C45.1709 30.69 45.1709 30.68 45.1809 30.67C45.4609 30.39 45.6009 30.06 45.5609 29.66C45.5509 29.59 45.5609 29.5 45.5909 29.44C45.8009 28.99 45.9109 28.53 45.8709 28.03C46.2109 27.79 46.1709 27.43 46.1909 27.09C46.4309 26.86 46.5209 26.57 46.4909 26.24C46.4909 26.19 46.5009 26.13 46.5009 26.08C46.8409 25.82 46.9109 25.46 46.8309 25.06C46.8709 25.02 46.9109 24.98 46.9509 24.94C47.1209 24.94 47.1709 24.85 47.1609 24.69C47.1509 24.51 47.1609 24.33 47.1609 24.16C47.1709 24.11 47.1709 24.06 47.1809 24.02C47.4209 23.96 47.2909 23.77 47.3209 23.63C47.6609 22.95 47.6909 22.17 47.9609 21.47C48.0109 21.34 48.0009 21.21 47.8909 21.12C47.7909 21.04 47.7509 20.94 47.8109 20.86C47.9309 20.71 47.9509 21.02 48.0709 20.94C48.1909 20.95 48.3109 20.96 48.2709 20.77C48.2809 20.73 48.2909 20.68 48.3009 20.64C48.5009 20.6 48.4809 20.48 48.4109 20.34C48.4209 20.3 48.4209 20.25 48.4309 20.21C48.6209 20.16 48.7309 20.01 48.7609 19.84C48.8309 19.5 48.7509 19.13 49.0509 18.85C49.1209 18.78 49.1109 18.58 48.9509 18.54C48.7309 18.49 48.7709 18.33 48.7509 18.19V18.18C48.7909 18.19 48.8409 18.19 48.8509 18.21C48.9209 18.31 48.9509 18.5 49.1309 18.39C49.2909 18.29 49.1909 18.15 49.1409 18.03C49.4709 17.72 49.6309 17.33 49.6909 16.89C49.6909 16.84 49.6909 16.79 49.7009 16.74C49.8709 16.46 50.1109 16.2 50.2009 15.9C50.2909 15.61 50.3809 15.33 50.6109 15.13C50.8009 14.96 50.8709 14.77 50.8409 14.53C50.8409 14.51 50.8509 14.48 50.8509 14.46C51.0809 14.19 51.2709 13.9 51.3109 13.53C51.3209 13.49 51.3209 13.44 51.3309 13.4C51.4409 13.38 51.5409 13.35 51.4909 13.2C51.5009 13.16 51.5109 13.11 51.5109 13.07C51.7609 13.01 51.7009 12.8 51.5809 12.75C51.3509 12.66 51.4609 12.52 51.4509 12.39C51.4609 12.35 51.4709 12.3 51.4909 12.26C51.7609 12.62 51.9009 12.6 52.1109 12.13C52.2309 11.87 52.3209 11.5 52.4609 11.35C52.9309 10.87 52.9409 10.26 53.1109 9.7C53.3309 9.59 53.5209 9.45 53.5909 9.2C54.1309 8.77 54.7209 8.79 55.3309 8.99C55.6109 9.08 55.9109 9.07 56.1909 9.11C56.6409 9.17 57.0309 9.33 57.4209 9.51C57.9609 9.76 58.3009 10.22 58.5309 10.73C58.9909 11.77 59.0109 12.85 58.7509 13.95C58.6509 14.36 58.7109 14.81 58.7009 15.24C58.7009 15.71 58.7909 16.2 58.7009 16.65C58.4609 17.9 58.6409 19.16 58.5009 20.4C58.4209 21.03 58.4809 21.67 58.3609 22.28C58.1409 23.46 58.1409 24.67 57.9609 25.85C57.8709 26.45 57.8309 27.06 57.7709 27.67C57.6609 28.96 57.5409 30.25 57.4409 31.54C57.3909 32.15 57.4209 32.76 57.3709 33.37C57.1409 36.01 57.2109 38.66 57.2809 41.31C57.3109 42.66 57.3609 44.02 57.6209 45.36C57.7809 46.17 57.9909 46.97 58.4109 47.69C58.6209 48.04 58.9309 48.31 59.3109 48.47C59.4909 48.55 59.6309 48.62 59.7009 48.83C59.7809 49.07 59.9909 49.28 60.2109 49.36C60.5809 49.49 60.4809 49.76 60.4309 49.98C60.3809 50.25 60.2609 50.5 59.9109 50.54C59.2809 50.61 58.7109 50.48 58.1109 50.29C57.3709 50.06 56.6509 49.8 55.9609 49.44C54.9209 48.9 54.1109 48.13 53.5809 47.09C53.5509 47.04 53.5609 46.97 53.5509 46.9C53.5909 46.72 53.8809 46.55 53.6209 46.35C53.4109 46.19 53.4209 45.98 53.4109 45.75C53.3809 45.47 53.5309 45.14 53.2509 44.9ZM32.9909 12.41C32.9209 12.54 32.8309 12.67 32.7809 12.81C32.7609 12.87 32.8309 12.92 32.9009 12.91C33.0809 12.9 33.1309 12.78 33.1209 12.62C33.1209 12.54 33.1409 12.44 32.9909 12.41ZM28.4609 26.49C28.4509 26.39 28.5009 26.26 28.3409 26.26C28.2209 26.26 28.2309 26.38 28.2409 26.47C28.2509 26.57 28.1809 26.74 28.3509 26.74C28.5009 26.73 28.4409 26.58 28.4609 26.49ZM54.3909 21.09C54.5209 20.96 54.5809 20.85 54.5109 20.7C54.4809 20.65 54.4109 20.64 54.3809 20.68C54.3009 20.8 54.3109 20.93 54.3909 21.09Z" fill="#8A8E9B"/>
<path d="M14.6208 27.73C14.8108 28.54 14.7808 29.39 15.0408 30.2C15.1908 30.66 15.0108 31.22 15.0908 31.72C15.1808 32.3 15.1908 32.89 15.3508 33.46C15.4508 33.81 15.4708 34.18 15.5108 34.54C15.6508 35.75 15.9408 36.93 16.0808 38.14C16.1108 38.39 16.2108 38.64 16.3408 38.88C16.5508 39.28 16.7008 39.71 16.6808 40.17C16.6708 40.45 16.7708 40.67 16.9008 40.91C17.0308 40.83 16.9808 40.71 17.0008 40.62C17.1908 40.48 17.2308 40.29 17.1408 40.08C17.1508 39.98 17.1508 39.88 17.1608 39.79C17.4108 39.63 17.4008 39.41 17.3008 39.17C17.3108 39.02 17.3208 38.88 17.3208 38.73C17.6508 38.49 17.5108 38.17 17.4608 37.87C17.4708 37.69 17.4908 37.51 17.5008 37.33C17.6208 37.28 17.6608 37.19 17.6608 37.06C17.6508 36.74 17.6508 36.41 17.6408 36.09C17.6508 35.92 17.6508 35.74 17.6608 35.57C17.7908 35.55 17.8208 35.47 17.8108 35.35C17.8008 35.01 17.8008 34.67 17.8008 34.33C17.8108 34.15 17.8108 33.98 17.8208 33.8C18.0108 33.77 17.9708 33.62 17.9708 33.5C17.9708 33.23 17.9708 32.96 17.9708 32.66C18.1708 32.71 18.2408 32.89 18.4408 32.81C18.2708 32.6 18.1908 32.39 18.4308 32.19C18.0908 31.91 18.3208 31.63 18.4308 31.35C18.4808 31.22 18.4408 31.07 18.2808 31.01C18.1908 30.98 18.1508 30.9 18.1308 30.81C18.1308 30.79 18.1408 30.76 18.1408 30.74C18.3308 30.78 18.4408 30.8 18.4708 30.52C18.5008 30.1 18.1308 29.61 18.6508 29.25C18.6608 29.24 18.6608 29.23 18.6608 29.21C18.6208 28.64 18.8908 28.09 18.8308 27.52C18.8208 27.39 18.8408 27.25 18.7508 27.16C18.6208 27.13 18.6408 27.49 18.4608 27.23C18.4608 27.13 18.4608 27.03 18.4708 26.93C18.7208 26.69 18.8308 26.38 18.9508 26.08C19.0808 25.75 19.0008 25.65 18.6308 25.61C18.6308 25.52 18.6308 25.42 18.6308 25.33C18.8108 25.3 18.7008 25.05 18.8508 25.03C19.2208 24.96 19.1408 24.72 19.0808 24.48C19.0908 24.33 19.1108 24.17 19.1208 24.02C19.2608 23.8 19.3408 23.57 19.2608 23.31C19.2508 23.26 19.2408 23.21 19.2308 23.16C19.2308 23.13 19.2308 23.09 19.2308 23.06C19.2408 23 19.2608 22.95 19.2708 22.89C19.4808 22.16 19.5608 21.42 19.3108 20.68C19.2808 20.6 19.3008 20.48 19.4408 20.58C19.5008 20.63 19.5908 20.63 19.5808 20.56C19.5608 20.35 19.7508 20.23 19.7508 20.03C19.7608 19.47 19.6808 18.9 19.9008 18.36C19.9008 18.31 19.9008 18.26 19.9008 18.21C20.1608 18.12 20.0208 17.91 20.0508 17.75C20.0508 17.65 20.0608 17.55 20.0608 17.46C20.3408 17.19 20.3108 16.83 20.2508 16.51C20.1808 16.09 20.4008 15.77 20.4808 15.41C20.5608 15.05 20.9808 14.64 20.4608 14.27C20.4008 14.23 20.3608 14.08 20.5408 14.06C20.8508 14.03 20.8008 13.76 20.8308 13.58C20.8908 13.27 20.8308 12.93 20.9708 12.64C21.1108 12.34 21.0308 12.24 20.7308 12.26C20.7308 12.21 20.7408 12.16 20.7408 12.1C20.9608 12.1 21.1408 12.07 21.1608 11.8C21.1708 11.75 21.1908 11.7 21.2008 11.64C21.4308 11.58 21.3408 11.4 21.3508 11.25C21.3508 11.15 21.3608 11.05 21.3608 10.95C21.5708 10.9 21.5108 10.73 21.4908 10.61C21.4608 10.45 21.3108 10.51 21.2108 10.49C21.2508 9.87 21.4808 9.29 21.7308 8.75C22.1108 7.91 22.3108 6.99 22.8208 6.21C23.3608 5.41 23.9408 4.62 25.0608 4.7C25.4308 4.73 25.8308 4.78 26.0808 5.17C26.2308 5.41 26.1108 5.49 25.9308 5.51C25.6708 5.54 25.4208 5.5 25.2208 5.75C24.9608 6.08 24.8408 6.45 24.7308 6.84C24.5908 7.39 24.5108 7.95 24.3208 8.5C24.1208 9.06 23.9408 9.67 24.0808 10.31C24.1908 10.81 24.0408 11.32 24.0008 11.83C23.9708 12.19 24.0208 12.55 23.9408 12.89C23.8008 13.48 23.7508 14.06 23.8108 14.66C23.9408 16.09 23.7008 17.51 23.6108 18.93C23.5208 20.35 23.5108 21.78 23.3808 23.2C23.2908 24.22 23.2608 25.24 23.1608 26.26C23.0508 27.47 22.9708 28.68 22.9108 29.9C22.8708 30.64 22.8708 31.39 22.7908 32.13C22.6008 33.82 22.5208 35.51 22.4808 37.21C22.4708 37.51 22.3808 37.81 22.2808 38.1C22.2008 38.33 22.1508 38.57 22.1408 38.81C22.0708 39.95 21.8708 41.07 21.6408 42.18C21.3408 43.63 20.7608 44.96 19.6208 45.99C19.3708 46.21 19.1108 46.35 18.7908 46.4C18.5108 46.44 18.2308 46.47 17.9608 46.53C17.4008 46.67 16.8808 46.54 16.3608 46.37C15.8008 46.19 15.2108 46.11 14.6408 45.96C13.9508 45.78 13.5708 45.35 13.3308 44.75C13.0108 43.95 12.7608 43.13 12.6308 42.27C12.5608 41.78 12.3908 41.3 12.3308 40.8C12.2908 40.45 12.5008 40.02 12.0308 39.8C12.0508 39.64 11.9708 39.47 12.1108 39.33C12.1308 39.31 12.1308 39.26 12.1208 39.23C11.7308 38.57 11.7208 37.84 11.7008 37.11C11.6908 36.92 11.9208 36.55 11.4408 36.54C11.4308 36.54 11.4208 36.52 11.4208 36.51C11.4708 36.28 11.2308 36.07 11.2808 35.9C11.3508 35.63 11.2508 35.4 11.2408 35.16C11.2308 34.87 11.1108 34.62 11.0708 34.36C11.0208 34 10.9608 33.61 11.1808 33.25C11.2508 33.13 11.2308 32.96 11.0908 32.88C10.8808 32.76 10.8508 32.58 10.8808 32.39C10.9308 32.04 10.7608 31.7 10.8708 31.35C10.8908 31.28 10.8908 31.16 10.8508 31.13C10.5208 30.84 10.6208 30.43 10.5108 30.08C10.4508 29.87 10.4308 29.66 10.4008 29.45C10.2608 28.46 10.1608 27.47 10.0008 26.48C9.85083 25.58 9.85083 24.65 9.72083 23.75C9.60083 22.94 9.50083 22.13 9.29083 21.33C9.20083 20.99 9.18083 20.63 9.15083 20.29C9.11083 19.7 9.00083 19.14 8.93083 18.58C8.85083 17.91 8.73083 17.21 8.42083 16.63C8.22083 16.25 8.11083 15.84 7.92083 15.46C7.61083 15.5 7.61083 15.81 7.53083 16C7.00083 17.19 6.60083 18.43 6.25083 19.68C6.09083 20.24 5.98083 20.82 5.85083 21.4C5.72083 22.02 5.59083 22.65 5.46083 23.28C5.26083 24.21 5.18083 25.16 5.06083 26.11C4.89083 27.48 4.81083 28.87 4.70083 30.25C4.51083 32.6 4.64083 34.96 4.60083 37.31C4.60083 37.51 4.73083 37.68 4.72083 37.87C4.70083 38.27 4.84083 38.67 4.62083 39.07C4.54083 39.22 4.56083 39.46 4.62083 39.63C4.82083 40.27 4.78083 40.92 4.72083 41.55C4.63083 42.38 4.48083 43.24 3.64083 43.71C3.27083 43.92 2.88083 44.01 2.42083 43.92C1.61083 43.77 0.950829 43.33 0.220829 43.03C0.0608288 42.97 0.0408288 42.91 0.0708288 42.76C0.130829 42.47 0.110829 42.18 0.0408288 41.89C-0.0591712 41.48 0.100829 41.08 0.0908288 40.68C0.0808288 39.06 0.110829 37.44 0.100829 35.82C0.0908288 34 0.200829 32.18 0.280829 30.37C0.350829 28.78 0.490829 27.18 0.720829 25.59C0.850829 24.71 0.960829 23.81 1.10083 22.93C1.24083 22.05 1.45083 21.17 1.65083 20.29C1.85083 19.39 2.18083 18.52 2.38083 17.62C2.44083 17.33 2.41083 17.06 2.76083 16.88C2.91083 16.8 2.92083 16.46 2.98083 16.23C3.33083 14.87 3.95083 13.66 5.01083 12.71C5.23083 12.51 5.52083 12.52 5.76083 12.51C6.46083 12.47 7.12083 12.3 7.79083 12.15C8.59083 11.97 9.34083 12.16 10.0508 12.65C11.0108 13.32 11.6608 14.2 12.1008 15.24C12.5208 16.23 12.8908 17.26 13.0108 18.35C13.1008 19.17 13.2708 19.98 13.5708 20.75C13.6608 20.98 13.7208 21.26 13.7308 21.51C13.7808 22.41 13.8508 23.33 14.1108 24.18C14.4808 25.34 14.3408 26.55 14.6208 27.73Z" fill="#8A8E9B"/>
<path d="M64.9606 21.72C64.9706 21.67 64.9706 21.63 64.9806 21.58C65.1506 21.57 65.3006 21.51 65.4206 21.39C65.5206 21.29 65.4806 21.04 65.4506 21.05C65.1306 21.15 65.3206 20.94 65.3306 20.86C65.3406 20.77 65.3106 20.66 65.4906 20.76C65.6306 20.84 65.6606 20.68 65.6106 20.59C65.5506 20.48 65.4706 20.38 65.4606 20.25C65.4606 20.2 65.4706 20.16 65.4706 20.11C65.6106 20.11 65.8006 20.25 65.8706 20.06C65.9106 19.94 65.7606 19.83 65.6106 19.8C65.6106 19.75 65.6206 19.7 65.6206 19.65C65.8206 19.61 65.7806 19.47 65.7706 19.33C65.7706 19.01 65.9406 18.73 66.0206 18.43C66.2506 17.59 66.6106 16.79 66.9006 15.96C67.0506 15.53 67.1006 15.07 67.2406 14.64C67.4406 14 67.5906 13.35 67.8006 12.71C68.0206 12.05 68.1706 11.36 68.3406 10.67C68.4906 10.06 68.6106 9.43998 68.7406 8.81998C68.8806 8.13998 69.0206 7.47998 68.9906 6.77998C68.9906 6.71998 69.0006 6.64998 68.9906 6.58998C68.9006 6.12998 68.9006 6.09998 69.0206 6.10998C69.2306 6.12998 69.4006 6.02998 69.6206 6.03998C70.5106 6.08998 71.0706 6.61998 71.6106 7.20998C71.9906 7.62998 72.0906 8.18998 72.1706 8.71998C72.2406 9.17998 72.2506 9.66998 72.1706 10.13C72.0206 11.06 72.0006 12 71.7906 12.93C71.6006 13.77 71.4606 14.62 71.2206 15.45C70.9706 16.33 70.7706 17.23 70.4806 18.11C70.1306 19.18 69.8406 20.26 69.4606 21.32C69.0606 22.46 68.6706 23.6 68.2806 24.74C67.9706 25.62 67.6706 26.51 67.3506 27.38C67.0406 28.2 66.7606 29.04 66.4406 29.86C66.1706 30.56 65.9906 31.3 65.7606 32.02C65.5406 32.7 65.3006 33.38 65.0906 34.07C64.8506 34.87 64.6506 35.69 64.4506 36.51C64.0006 38.28 63.9806 40.09 63.8506 41.89C63.8406 42.05 63.7306 42.28 63.9506 42.36C64.1606 42.44 64.4106 42.59 64.6206 42.35C64.6406 42.39 64.6506 42.46 64.6806 42.47C64.7706 42.49 64.7606 42.4 64.7706 42.35C64.8706 42.35 64.9606 42.35 65.0606 42.35C65.1506 42.41 65.3106 42.29 65.3406 42.46C65.3806 42.66 65.4606 42.74 65.6206 42.66C66.2006 42.38 66.8006 42.17 67.4306 42.02C67.5606 41.99 67.7606 41.87 67.7806 41.76C67.8306 41.51 67.9906 41.38 68.1406 41.23C68.7006 40.91 69.3806 40.88 69.9306 40.54C70.0806 40.44 70.2506 40.39 70.4306 40.38C70.5206 40.39 70.5806 40.35 70.6106 40.27C70.7006 40.26 70.8006 40.25 70.8906 40.24C70.9106 40.3 71.0706 40.32 70.9006 40.41C70.5106 40.63 70.0806 40.74 69.6606 40.9C69.2106 41.07 68.7406 41.2 68.3006 41.45C68.4306 41.59 68.5706 41.56 68.6806 41.52C69.1406 41.35 69.6006 41.15 70.0606 40.98C70.9006 40.69 71.7306 40.32 72.6406 40.29C72.8806 40.28 73.1306 40.25 73.1906 39.94C73.2306 39.93 73.2806 39.92 73.3206 39.91C73.7306 39.77 73.2806 39.61 73.3306 39.46C73.5506 39.49 73.7106 39.27 73.9306 39.29C74.0506 39.31 74.1506 39.3 74.1706 39.15C74.1906 39.15 74.2206 39.15 74.2406 39.14C74.4406 39.17 74.4206 39.31 74.4006 39.45C74.1306 39.42 73.9206 39.56 73.6606 39.71C74.1606 39.82 74.5706 39.55 75.0006 39.58C75.2906 39.52 75.3106 39.45 75.0906 39.15C75.2006 39.14 75.3006 39.12 75.4106 39.11C75.8506 39.45 76.6006 39.38 76.9606 38.92C77.0006 39.15 77.1506 39.16 77.3306 39.15C77.4906 39.14 77.6606 39.16 77.8206 39.15C77.9306 39.14 78.1406 39.22 78.1206 39.04C78.1106 38.85 77.8906 38.91 77.7806 38.94C77.5406 39.02 77.3406 39 77.1606 38.82C77.2106 38.82 77.2506 38.81 77.3006 38.81C77.5406 38.81 77.7806 38.89 78.0006 38.77C78.0506 38.77 78.1006 38.78 78.1606 38.78C78.6906 38.99 79.2506 38.87 79.7906 38.96C80.0306 39.23 80.0206 39.53 79.8006 39.79C79.6406 39.98 79.4406 40.14 79.2306 40.2C78.8106 40.31 78.5606 40.61 78.2806 40.9C78.1306 41.05 77.9706 41.24 77.7206 41.23C77.4706 41.22 77.3806 41.38 77.3206 41.59C76.9506 41.97 76.4606 42.16 75.9906 42.35C75.8906 42.39 75.7706 42.41 75.8506 42.55C76.0206 42.82 75.8206 42.9 75.6406 43C75.1306 43.29 74.5606 43.43 74.0206 43.66C73.8306 43.74 73.6206 43.81 73.4606 43.96C73.2306 44.16 72.9406 44.23 72.6806 44.36C71.4606 44.99 70.1806 45.47 68.9706 46.12C68.4506 46.4 67.8906 46.62 67.3006 46.74C67.0006 46.81 66.7606 47.02 66.4406 47.08C64.7806 47.4 63.4606 47.22 62.4006 45.94C62.3706 45.9 62.3506 45.83 62.3106 45.82C61.6506 45.6 61.6706 44.92 61.4306 44.45C61.0606 43.71 60.8006 42.92 60.5206 42.14C60.3006 41.5 60.0406 40.88 60.1006 40.17C60.1606 39.47 60.1106 38.77 60.1106 38.07C60.1106 37.31 60.2806 36.57 60.3606 35.82C60.4406 35.12 60.6106 34.45 60.7606 33.76C60.9206 33 61.1706 32.27 61.3606 31.52C61.6806 30.3 62.1106 29.12 62.5606 27.96C62.9506 26.96 63.2606 25.93 63.7706 24.96C64.0806 24.37 64.3506 23.72 64.4506 23.03C64.7406 22.85 64.8006 22.57 64.7406 22.26C64.7506 22.21 64.7506 22.16 64.7606 22.12C64.9806 22.02 65.0906 21.92 64.9606 21.72Z" fill="#8A8E9B"/>
<path d="M20.0406 17.74C20.0206 17.9 20.1506 18.12 19.8906 18.2C19.8306 18.2 19.7606 18.21 19.7706 18.29C19.7806 18.35 19.8406 18.35 19.8906 18.35C19.6706 18.89 19.7506 19.46 19.7406 20.02C19.7406 20.22 19.5506 20.34 19.5706 20.55C19.5806 20.62 19.4906 20.62 19.4306 20.57C19.2906 20.47 19.2706 20.59 19.3006 20.67C19.5606 21.41 19.4806 22.15 19.2606 22.88C19.0706 22.89 19.1406 22.97 19.2206 23.05C19.2206 23.08 19.2206 23.12 19.2206 23.15C19.0906 23.18 19.0006 23.25 18.9706 23.4C18.9006 23.77 18.9506 24.12 19.0606 24.47C19.1206 24.71 19.2106 24.95 18.8306 25.02C18.6906 25.05 18.7906 25.3 18.6106 25.32C18.5406 24.45 18.7306 23.61 18.8906 22.77C18.9006 22.72 18.9006 22.67 18.9006 22.62C18.9006 21.86 19.0306 21.13 19.2006 20.39C19.2406 20.23 19.2106 20.06 19.2206 19.9C19.2306 19.74 19.2206 19.56 19.4306 19.5C19.6706 19.36 19.6606 19.21 19.4506 19.05C19.3606 18.69 19.6506 18.38 19.6006 18.02C19.5906 17.97 19.6406 17.91 19.6906 17.94C20.0006 18.12 19.8506 17.83 19.9006 17.74C19.9406 17.74 19.9906 17.74 20.0406 17.74Z" fill="#C4C5CC"/>
<path d="M20.7213 12.24C21.0213 12.23 21.1013 12.32 20.9613 12.62C20.8213 12.91 20.8813 13.25 20.8213 13.56C20.7913 13.74 20.8413 14.01 20.5313 14.04C20.3513 14.06 20.3913 14.21 20.4513 14.25C20.9813 14.62 20.5613 15.03 20.4713 15.39C20.3913 15.76 20.1713 16.07 20.2413 16.49C20.2913 16.8 20.3213 17.17 20.0513 17.44C20.0113 17.33 20.0913 17.19 19.8913 17.02C19.8913 17.31 19.8913 17.53 19.8913 17.74C19.7913 17.7 19.5413 17.84 19.6913 17.52C19.7813 17.33 19.7213 17.07 19.7313 16.84C19.7413 16.69 19.6713 16.5 19.8913 16.42C19.9113 16.41 19.9513 16.35 19.9413 16.33C19.7413 15.93 20.0213 15.57 20.0413 15.18C20.0713 14.7 20.2013 14.23 20.3013 13.76C20.3713 13.42 20.4313 13.07 20.4813 12.73C20.5313 12.54 20.5813 12.37 20.7213 12.24Z" fill="#C4C5CC"/>
<path d="M50.8104 14.53C50.8504 14.77 50.7804 14.96 50.5804 15.13C50.3504 15.33 50.2604 15.61 50.1704 15.9C50.0804 16.2 49.8404 16.46 49.6704 16.74C49.4104 16.64 49.2404 16.51 49.4804 16.22C49.7004 15.95 49.6904 15.57 49.9204 15.3C49.9404 15.27 49.9604 15.23 49.9704 15.2C50.0404 14.99 50.2304 15.37 50.3104 15.13C50.3604 14.96 50.0404 15 50.1404 14.77C50.2004 14.63 50.2304 14.45 50.3404 14.33C50.8104 13.8 50.8104 13.04 51.2504 12.51C51.3004 12.45 51.3304 12.39 51.4204 12.39C51.4304 12.52 51.3104 12.66 51.5504 12.75C51.6704 12.8 51.7304 13 51.4804 13.07C51.4204 13.06 51.4004 12.89 51.3204 13C51.1504 13.23 50.9704 13.47 51.0004 13.85C51.1404 13.74 51.0804 13.52 51.2704 13.53C51.2304 13.89 51.0404 14.19 50.8104 14.46C50.7604 14.37 50.8604 14.23 50.6804 14.16C50.6604 14.32 50.5404 14.48 50.8104 14.53Z" fill="#C4C5CC"/>
<path d="M73.3818 39.47C73.3318 39.62 73.7818 39.78 73.3718 39.92C73.0418 39.54 72.8618 40.03 72.5918 40.02C72.8318 40.17 73.0218 39.99 73.2318 39.95C73.1718 40.26 72.9118 40.29 72.6818 40.3C71.7618 40.33 70.9418 40.7 70.1018 40.99C69.6318 41.15 69.1818 41.36 68.7218 41.53C68.6218 41.57 68.4718 41.59 68.3418 41.46C68.7818 41.2 69.2518 41.08 69.7018 40.91C70.1118 40.76 70.5418 40.64 70.9418 40.42C71.1118 40.32 70.9518 40.3 70.9318 40.25C70.9418 40.16 70.9818 40.12 71.0618 40.09C71.7818 39.88 72.5218 39.74 73.2318 39.48C73.2718 39.46 73.3318 39.47 73.3818 39.47Z" fill="#C4C5CC"/>
<path d="M37.6113 26.14C37.6213 26.25 37.6613 26.38 37.6313 26.48C37.3713 27.25 37.5213 28.04 37.4913 28.82C37.4813 29.15 37.4713 29.49 37.3913 29.8C37.2513 30.32 37.2913 30.82 37.3913 31.33C37.4113 31.44 37.3913 31.53 37.2913 31.59C37.1913 31.6 37.1613 31.77 37.0413 31.72C36.9213 31.67 36.9713 31.54 36.9713 31.45C36.9613 30.93 37.1313 30.45 37.2313 29.95C37.3013 29.58 37.3813 29.18 37.1813 28.8C37.1513 28.75 37.1113 28.67 37.1313 28.62C37.3713 28.09 36.9913 27.55 37.1313 27.02C37.1713 26.87 37.0113 26.6 37.3813 26.64C37.4513 26.65 37.4413 26.51 37.4413 26.44C37.4213 26.3 37.4813 26.2 37.6113 26.14Z" fill="#C4C5CC"/>
<path d="M68.1801 41.24C68.0301 41.4 67.8601 41.53 67.8201 41.77C67.8001 41.88 67.6101 42 67.4701 42.03C66.8401 42.18 66.2401 42.39 65.6601 42.67C65.4901 42.75 65.4201 42.67 65.3801 42.47C65.3401 42.3 65.1801 42.42 65.1001 42.36C65.1501 42.24 64.9101 42.2 65.0301 42.07C65.1101 41.99 65.2301 41.98 65.3201 42.01C65.7901 42.23 66.1701 41.92 66.5801 41.79C66.8901 41.7 67.1701 41.53 67.5001 41.53C67.6501 41.53 67.7401 41.45 67.8201 41.36C67.9201 41.24 68.0301 41.21 68.1801 41.24Z" fill="#C4C5CC"/>
<path d="M18.451 27.23C18.631 27.5 18.611 27.13 18.741 27.16C18.841 27.25 18.811 27.39 18.821 27.52C18.881 28.1 18.611 28.64 18.651 29.21C18.651 29.22 18.651 29.24 18.641 29.25C18.131 29.6 18.501 30.09 18.461 30.52C18.441 30.8 18.321 30.78 18.131 30.74C18.131 30.37 18.071 29.99 18.151 29.64C18.301 28.9 18.281 28.16 18.301 27.42C18.301 27.32 18.341 27.25 18.451 27.23Z" fill="#C4C5CC"/>
<path d="M52.9117 35.09C52.9817 35.6 52.9317 36.11 52.9417 36.61C52.9517 37.81 52.9517 39 52.9417 40.2C52.9417 40.34 52.9817 40.48 52.8917 40.61C52.7517 40.65 52.7717 40.83 52.6417 40.88C52.5417 40.84 52.5517 40.75 52.5717 40.69C52.8017 40.13 52.8117 39.58 52.5717 39.02C52.5517 38.97 52.5417 38.88 52.5617 38.83C52.8617 38.12 52.6617 37.38 52.7017 36.66C52.7317 36.24 52.7117 35.82 52.7117 35.4C52.7317 35.26 52.7317 35.12 52.9117 35.09Z" fill="#C4C5CC"/>
<path d="M45.8408 28.03C45.8808 28.53 45.7708 28.99 45.5608 29.44C45.5308 29.51 45.5208 29.59 45.5308 29.66C45.5708 30.06 45.4308 30.39 45.1508 30.67C45.1408 30.68 45.1408 30.69 45.1308 30.7C45.0108 30.8 45.1408 31.11 44.9108 31.07C44.7508 31.04 44.8908 30.77 44.7908 30.63C44.7808 30.61 44.7508 30.6 44.7308 30.58C44.6608 30.44 44.6408 30.33 44.8408 30.29C44.8708 30.34 44.9008 30.48 44.9608 30.34C45.1008 30 45.2108 29.64 45.3208 29.28C45.3608 29.16 45.4108 29.03 45.2208 28.98C45.1908 28.71 45.3008 28.48 45.3908 28.24C45.5008 27.96 45.6108 27.69 45.7508 27.34C45.8808 27.62 45.8208 27.83 45.8408 28.03Z" fill="#C4C5CC"/>
<path d="M53.0907 9.69998C52.9207 10.26 52.9007 10.87 52.4407 11.35C52.3007 11.5 52.2007 11.86 52.0907 12.13C51.8807 12.6 51.7407 12.62 51.4707 12.26C51.5507 11.85 51.9007 11.58 52.0707 11.21C52.3107 10.69 52.7807 10.31 52.9707 9.75998C52.9707 9.72998 53.0507 9.71998 53.0907 9.69998Z" fill="#C4C5CC"/>
<path d="M77.2001 38.84C77.3801 39.02 77.5802 39.03 77.8202 38.96C77.9302 38.92 78.1502 38.87 78.1602 39.06C78.1702 39.24 77.9702 39.16 77.8602 39.17C77.7002 39.18 77.5302 39.16 77.3702 39.17C77.1902 39.18 77.0402 39.17 77.0002 38.94C76.6402 39.4 75.8901 39.47 75.4501 39.13C75.4401 39.03 75.2502 39 75.3302 38.84C75.4702 38.9 75.6102 38.95 75.7402 39.01C75.8102 39.13 75.9202 39.17 76.0502 39.15C76.0702 39.15 76.0801 39.09 76.0901 39.06C76.0201 39.04 75.9502 39.02 75.8802 39C75.9002 38.91 75.9602 38.8 76.0502 38.82C76.4302 38.89 76.8201 38.58 77.2001 38.84Z" fill="#C4C5CC"/>
<path d="M18.1207 30.82C18.1407 30.91 18.1807 30.99 18.2707 31.02C18.4407 31.08 18.4807 31.23 18.4207 31.36C18.3007 31.65 18.0707 31.92 18.4207 32.2C18.1807 32.4 18.2607 32.61 18.4307 32.82C18.2407 32.9 18.1707 32.72 17.9607 32.67C17.9607 32.97 17.9607 33.24 17.9607 33.51C17.9607 33.63 18.0007 33.78 17.8107 33.81C17.7607 32.86 18.0407 31.93 17.9807 30.99C17.9907 30.89 18.0407 30.84 18.1207 30.82Z" fill="#C4C5CC"/>
<path d="M48.7315 18.19C48.7515 18.33 48.7115 18.49 48.9315 18.54C49.0915 18.58 49.1015 18.78 49.0315 18.85C48.7215 19.13 48.8015 19.5 48.7415 19.84C48.7115 20.01 48.6015 20.16 48.4115 20.21C48.3815 20.14 48.3815 20.03 48.3315 20.01C48.0315 19.89 47.9815 19.8 48.3215 19.66C48.4215 19.62 48.3715 19.5 48.3615 19.42C48.3315 19.06 48.4215 18.73 48.5415 18.4C48.5715 18.31 48.6115 18.21 48.7315 18.19Z" fill="#C4C5CC"/>
<path d="M37.3011 35.32C37.4711 35.4 37.4011 35.56 37.4211 35.69C37.5311 36.67 37.5211 37.66 37.4211 38.64C37.3211 38.71 37.2611 38.65 37.2811 38.56C37.3911 37.97 37.1211 37.41 37.1211 36.82C37.1211 36.32 37.3311 35.84 37.3011 35.32Z" fill="#C4C5CC"/>
<path d="M47.1217 24.16C47.1217 24.34 47.1117 24.52 47.1217 24.69C47.1317 24.84 47.0817 24.94 46.9117 24.94C46.9117 24.76 46.9117 24.59 46.9117 24.41C46.8117 24.6 46.6817 24.75 46.5217 24.91C46.3217 24.6 46.5817 24.36 46.6417 24.12C46.7017 23.87 46.8117 23.6 46.9217 23.35C46.9517 23.29 46.9617 23.21 47.0317 23.21C47.1417 23.2 47.1217 23.3 47.1317 23.38C47.1417 23.49 47.1017 23.63 47.2817 23.63C47.2517 23.76 47.3717 23.96 47.1417 24.02C47.0817 24.02 47.0617 23.84 46.9917 23.97C46.9517 24.05 46.9717 24.17 47.1217 24.16Z" fill="#C4C5CC"/>
<path d="M53.2508 44.9C53.5308 45.14 53.3808 45.46 53.4008 45.75C53.4208 45.98 53.4008 46.19 53.6108 46.35C53.8808 46.56 53.5808 46.72 53.5408 46.9C53.5208 46.89 53.4808 46.89 53.4708 46.88C53.2008 46.24 52.8208 45.62 53.2508 44.9Z" fill="#C4C5CC"/>
<path d="M21.161 11.78C21.141 12.05 20.951 12.09 20.741 12.08C20.711 11.7 20.831 11.35 20.971 11.02C21.051 10.84 20.911 10.55 21.211 10.47C21.321 10.49 21.461 10.43 21.491 10.59C21.511 10.72 21.571 10.88 21.361 10.93C21.321 10.89 21.251 10.83 21.231 10.93C21.211 11.04 21.131 11.2 21.351 11.23C21.341 11.37 21.441 11.56 21.201 11.62C21.181 11.56 21.161 11.42 21.081 11.49C20.951 11.6 21.031 11.71 21.161 11.78Z" fill="#C4C5CC"/>
<path d="M37.2802 33.51C37.3702 33.99 37.3202 34.48 37.2802 34.96C37.1702 34.94 37.1102 35.05 36.9902 35.1C36.9902 34.46 36.9902 33.86 36.9902 33.25C37.1602 33.29 37.0702 33.55 37.2802 33.51Z" fill="#C4C5CC"/>
<path d="M37.9315 21.86C37.9915 22.49 37.8815 23.11 37.7715 23.73C37.6615 23.67 37.4615 23.78 37.4315 23.57C37.4115 23.41 37.3915 23.26 37.6115 23.14C37.8215 23.03 37.7515 22.76 37.6415 22.55C37.4515 22.16 37.5515 21.91 37.9315 21.86Z" fill="#C4C5CC"/>
<path d="M53.0903 43.53C53.2203 43.55 53.2403 43.64 53.2403 43.75C53.2403 44.04 53.2403 44.33 53.2303 44.62C53.1803 44.62 53.1303 44.63 53.1103 44.69C53.0703 44.79 53.1503 44.96 52.9803 44.97C52.8503 44.98 52.8203 44.81 52.7803 44.72C52.6603 44.49 52.7303 44.22 52.7403 43.97C52.7403 43.94 52.7903 43.88 52.8003 43.89C53.2003 44.01 52.9403 43.59 53.0903 43.53Z" fill="#C4C5CC"/>
<path d="M53.2512 29.44C53.2712 30.17 53.3012 30.9 53.0812 31.61C52.9812 31.59 52.8812 31.58 52.7012 31.54C53.1012 31.41 53.0612 31.23 52.9112 30.98C52.8312 30.84 52.8612 30.64 52.9412 30.47C53.0512 30.24 53.2612 30.04 52.9412 29.76C52.8112 29.65 53.1112 29.53 53.2512 29.44Z" fill="#C4C5CC"/>
<path d="M37.7711 24.61C37.7411 24.98 37.6611 25.35 37.7811 25.72C37.8111 25.83 37.7711 25.92 37.6311 25.93C37.5311 25.82 37.5811 25.69 37.5711 25.56C37.5611 25.45 37.6011 25.32 37.4011 25.44C37.3011 25.5 37.2711 25.36 37.2711 25.27C37.2711 25.16 37.2311 25.02 37.4211 25.03C37.4811 25.03 37.5511 25.07 37.5611 24.97C37.5611 24.91 37.5311 24.87 37.4811 24.86C37.3211 24.85 37.2511 24.76 37.2811 24.61C37.3111 24.48 37.4011 24.37 37.5211 24.35C37.6911 24.32 37.5911 24.54 37.6911 24.6C37.7211 24.6 37.7411 24.6 37.7711 24.61Z" fill="#C4C5CC"/>
<path d="M49.6704 16.9C49.6204 17.34 49.4504 17.73 49.1204 18.04C49.0104 17.96 49.1004 17.74 48.8904 17.74C48.8704 17.62 48.9004 17.53 49.0304 17.5C49.0704 17.55 49.1304 17.6 49.1504 17.51C49.1704 17.43 49.0904 17.42 49.0304 17.43C48.9604 17.21 49.1104 17.04 49.2004 16.89C49.3304 16.7 49.5104 17.02 49.6704 16.9ZM49.4804 17.17L49.4604 17.16V17.18L49.4804 17.17Z" fill="#C4C5CC"/>
<path d="M27.1505 30.58C27.1905 30.7 27.1405 30.83 27.2605 30.93C27.3505 31 27.3505 31.17 27.2905 31.21C26.7905 31.49 27.2305 31.79 27.2605 32.07C27.2705 32.15 27.3305 32.23 27.2605 32.31C27.2005 32.37 27.1205 32.36 27.0405 32.34C26.9305 32.3 26.9405 32.2 26.9605 32.12C26.9905 31.97 27.1605 31.75 26.8105 31.77C26.8905 31.36 26.8905 30.93 27.1505 30.58Z" fill="#C4C5CC"/>
<path d="M38.0999 19.96C38.2199 20.37 38.0799 20.77 38.0999 21.18C38.1099 21.3 38.0899 21.41 37.9399 21.42C37.8899 21.41 37.8399 21.4 37.7999 21.39C38.0099 21.16 37.6499 20.86 37.8799 20.63C37.9899 20.52 37.9599 20.43 37.8399 20.35C37.7099 20.26 37.7499 20.13 37.7499 20.01C37.7499 19.94 37.7499 19.84 37.8499 19.83C37.9599 19.82 37.9599 19.9 37.9499 19.98C37.9399 20.02 37.9099 20.1 37.9899 20.08C38.0199 20.08 38.0599 20 38.0999 19.96Z" fill="#C4C5CC"/>
<path d="M18.6116 25.61C18.9816 25.65 19.0516 25.75 18.9316 26.08C18.8116 26.39 18.7016 26.7 18.4516 26.93C18.4716 26.49 18.3416 26.02 18.6116 25.61Z" fill="#C4C5CC"/>
<path d="M38.2615 14.68C38.3015 14.71 38.3715 14.73 38.3815 14.76C38.5015 15.28 38.5115 15.8 38.4015 16.33C38.3815 16.45 38.2815 16.44 38.1915 16.45C37.9915 15.85 38.3115 15.27 38.2615 14.68Z" fill="#C4C5CC"/>
<path d="M53.4105 27.69C53.5205 27.71 53.6905 27.65 53.7105 27.83C53.7305 28 53.8005 28.27 53.6405 28.32C53.3605 28.42 53.4205 28.6 53.4005 28.79C53.3805 28.96 53.3605 29.14 53.2605 29.29C53.0905 28.74 53.2705 28.22 53.4105 27.69Z" fill="#C4C5CC"/>
<path d="M46.7905 25.07C46.8705 25.47 46.8005 25.82 46.4605 26.09C46.3505 26.06 46.1805 26.14 46.1505 25.95C46.1305 25.82 46.1305 25.71 46.2505 25.6C46.4405 25.43 46.6205 25.24 46.7905 25.07Z" fill="#C4C5CC"/>
<path d="M65.4702 20.25C65.4802 20.38 65.5602 20.48 65.6202 20.59C65.6702 20.68 65.6402 20.84 65.5002 20.76C65.3202 20.66 65.3502 20.77 65.3402 20.86C65.3302 20.94 65.1402 21.15 65.4602 21.05C65.4902 21.04 65.5302 21.29 65.4302 21.39C65.3102 21.51 65.1602 21.57 64.9902 21.58C65.0902 21.12 65.1302 20.63 65.4702 20.25Z" fill="#C4C5CC"/>
<path d="M53.0803 32.03C53.1703 32.69 53.0303 33.33 53.0203 33.99C53.0203 34.04 52.9503 34.09 52.9203 34.14C52.8403 33.52 52.9103 32.89 52.8903 32.26C52.8803 32.12 52.9503 32.06 53.0803 32.03Z" fill="#C4C5CC"/>
<path d="M26.1715 35.11C26.0715 35.35 26.3715 35.44 26.3715 35.68C26.3715 36.1 26.1215 36.32 25.8715 36.57C25.8115 36.11 26.1015 35.69 26.0415 35.22C26.0315 35.15 26.1115 35.13 26.1715 35.11Z" fill="#C4C5CC"/>
<path d="M34.8705 8.01001C34.9005 8.12001 34.8605 8.19001 34.7905 8.28001C34.7205 8.37001 34.7005 8.50001 34.8505 8.55001C34.9505 8.58001 35.0505 8.61001 35.0205 8.75001C34.9905 8.86001 34.8705 9.00001 34.8005 8.98001C34.5405 8.90001 34.4005 9.07001 34.2305 9.19001C34.3905 8.77001 34.5105 8.32001 34.8705 8.01001Z" fill="#C4C5CC"/>
<path d="M28.6001 24.54C28.6401 24.62 28.6001 24.73 28.7001 24.77C28.8001 24.81 28.9301 24.79 28.9301 24.96C28.9301 25.14 28.7401 25.22 28.7401 25.4C28.4401 25.2 28.4401 25.59 28.2701 25.64C28.2401 25.45 28.2201 25.27 28.4401 25.16C28.5101 25.16 28.6001 25.18 28.6001 25.07C28.6001 25 28.5201 25 28.4601 25.01C28.3601 24.81 28.4201 24.66 28.6001 24.54Z" fill="#C4C5CC"/>
<path d="M74.4413 39.47C74.4613 39.33 74.4813 39.19 74.2812 39.16C74.5712 38.84 74.8512 39.1 75.1312 39.17C75.3512 39.47 75.3313 39.55 75.0413 39.6C75.0713 39.54 75.1212 39.48 75.1312 39.41C75.1312 39.37 75.0613 39.35 75.0113 39.39C74.8413 39.55 74.6313 39.46 74.4413 39.47Z" fill="#C4C5CC"/>
<path d="M79.8214 38.98C79.2814 38.89 78.7214 39.02 78.1914 38.8C78.2814 38.58 78.5114 38.59 78.6414 38.66C78.9414 38.82 79.2414 38.79 79.5514 38.79C79.7014 38.79 79.8014 38.82 79.8214 38.98Z" fill="#C4C5CC"/>
<path d="M52.9114 41.36C53.1514 41.69 52.9814 42.09 53.0914 42.44C53.1514 42.63 53.0914 42.86 53.0814 43.08C52.9514 43.03 52.8814 42.94 52.8914 42.79C52.9014 42.32 52.8414 41.84 52.9114 41.36Z" fill="#C4C5CC"/>
<path d="M45.2316 28.99C45.4216 29.04 45.3716 29.17 45.3316 29.29C45.2216 29.64 45.1116 30 44.9716 30.35C44.9116 30.49 44.8816 30.35 44.8516 30.3C44.8616 29.92 44.9916 29.57 45.1816 29.24C45.2216 29.16 45.2416 29.08 45.2316 28.99Z" fill="#8A8E9B"/>
<path d="M34.0516 9.63C34.0316 9.93 34.1216 10.21 33.9616 10.53C33.8216 10.79 33.7416 10.68 33.6016 10.63C33.6716 10.26 33.7616 9.9 34.0516 9.63Z" fill="#C4C5CC"/>
<path d="M38.1814 16.67C38.3014 16.74 38.4114 16.79 38.3014 16.98C38.2314 17.1 38.2714 17.28 38.2714 17.43C37.9514 17.53 38.2414 17.85 38.0614 18C37.8614 17.7 37.9114 17.14 38.1814 16.67Z" fill="#C4C5CC"/>
<path d="M46.4517 26.24C46.4817 26.57 46.3917 26.85 46.1517 27.09C46.1317 27 46.1217 26.9 46.1017 26.81C45.9417 26.82 46.0217 27 45.8917 27.04C45.7117 26.74 46.0417 26.55 46.0317 26.26C46.2017 26.38 46.0817 26.56 46.2017 26.66C46.4117 26.6 46.1717 26.26 46.4517 26.24Z" fill="#C4C5CC"/>
<path d="M30.0407 19.63C30.1207 19.8 29.9507 20.09 30.2907 20.14C30.2607 20.33 30.2907 20.54 30.0707 20.65C29.9607 20.54 30.1607 20.07 29.7207 20.36C29.8207 20.12 29.7407 19.79 30.0407 19.63Z" fill="#C4C5CC"/>
<path d="M25.0409 41.39C25.1309 41.5 25.1109 41.63 25.0609 41.75C25.0109 41.9 25.0409 41.98 25.2009 42.03C25.3009 42.06 25.4409 42.11 25.3709 42.26C25.2909 42.44 25.2009 42.29 25.1109 42.26C25.0409 42.24 24.9609 42.25 24.8909 42.25C24.8909 42.04 24.8909 41.82 24.8809 41.61C24.8809 41.48 24.9109 41.4 25.0409 41.39Z" fill="#C4C5CC"/>
<path d="M31.8505 14.68C32.0205 14.73 32.1405 14.84 32.1205 15.01C32.1005 15.19 31.9205 15.09 31.8105 15.14C31.7105 15.18 31.6205 15.24 31.5205 15.29C31.5005 15.02 31.5805 14.8 31.8505 14.68Z" fill="#C4C5CC"/>
<path d="M44.8214 32.03C44.7914 32.27 44.4914 32.42 44.6714 32.74C44.4414 32.68 44.4314 32.43 44.2314 32.43C44.2114 32.18 44.2114 31.96 44.5814 32.08C44.6414 32.11 44.7414 32.05 44.8214 32.03Z" fill="#C4C5CC"/>
<path d="M31.5017 15.43C31.5917 15.93 31.2917 16.26 31.0117 16.61C31.1517 16.21 31.1617 15.75 31.5017 15.43Z" fill="#C4C5CC"/>
<path d="M17.6502 36.09C17.6602 36.41 17.6602 36.74 17.6702 37.06C17.6702 37.18 17.6302 37.28 17.5102 37.33C17.4102 36.9 17.4402 36.48 17.6502 36.09Z" fill="#C4C5CC"/>
<path d="M17.8103 34.33C17.8103 34.67 17.8203 35.01 17.8203 35.35C17.8203 35.46 17.8003 35.55 17.6703 35.57C17.6103 35.14 17.6003 34.72 17.8103 34.33Z" fill="#C4C5CC"/>
<path d="M53.5509 26.38C53.5509 26.66 53.5509 26.93 53.5509 27.21C53.5509 27.34 53.5409 27.47 53.4009 27.53C53.2909 27.13 53.3309 26.75 53.5509 26.38Z" fill="#C4C5CC"/>
<path d="M12.0199 39.77C12.4899 39.99 12.2799 40.42 12.3199 40.77C12.1099 40.47 11.9699 40.15 12.0199 39.77Z" fill="#C4C5CC"/>
<path d="M25.4013 39.32C25.4913 39.34 25.6113 39.32 25.6513 39.37C25.7113 39.46 25.5913 39.53 25.5313 39.57C25.3413 39.7 25.4513 39.98 25.2413 40.08C25.1213 39.79 25.1613 39.53 25.4013 39.32Z" fill="#C4C5CC"/>
<path d="M30.0703 20.65C30.0703 20.71 30.0703 20.77 30.0703 20.84C30.0803 21.05 30.0403 21.17 29.8103 20.99C29.7403 20.93 29.6403 20.96 29.5603 20.98C29.5303 20.82 29.5103 20.67 29.7003 20.58C29.8103 20.66 29.9403 20.66 30.0703 20.65Z" fill="#C4C5CC"/>
<path d="M37.2802 32.05C37.3602 32.17 37.3602 32.3 37.2802 32.43C36.7202 32.55 37.0402 32.15 36.9702 31.96C37.1102 31.94 37.1602 32.09 37.2802 32.05Z" fill="#C4C5CC"/>
<path d="M26.6412 32.74C26.6712 32.81 26.6912 32.89 26.7312 32.94C26.9912 33.26 26.8212 33.35 26.5012 33.37C26.4812 33.14 26.4212 32.91 26.6412 32.74Z" fill="#C4C5CC"/>
<path d="M27.9306 27.08C27.9806 27.13 28.0306 27.2 28.0906 27.22C28.2006 27.25 28.3306 27.27 28.2806 27.42C28.2106 27.62 28.1206 27.45 28.0306 27.42C27.9206 27.38 27.8806 27.54 27.7806 27.54C27.8106 27.38 27.6606 27.17 27.9306 27.08Z" fill="#C4C5CC"/>
<path d="M17.4606 37.87C17.5106 38.17 17.6506 38.49 17.3206 38.73C17.3106 38.43 17.2006 38.12 17.4606 37.87Z" fill="#C4C5CC"/>
<path d="M77.3418 41.6C77.4018 41.4 77.4918 41.23 77.7418 41.24C77.6918 41.36 77.9418 41.42 77.7718 41.59C77.6018 41.76 77.4818 41.6 77.3418 41.6Z" fill="#C4C5CC"/>
<path d="M49.1212 18.05C49.1712 18.17 49.2812 18.31 49.1112 18.41C48.9212 18.52 48.9012 18.33 48.8312 18.23C48.8112 18.21 48.7612 18.21 48.7312 18.2C48.7312 18.08 48.7112 17.94 48.8812 17.9C48.9012 18.04 49.0012 18.06 49.1212 18.05Z" fill="#C4C5CC"/>
<path d="M78.0418 38.79C77.8118 38.91 77.5718 38.83 77.3418 38.83C77.5618 38.57 77.8318 38.55 78.0418 38.79Z" fill="#C4C5CC"/>
<path d="M37.5502 38.65C37.5902 38.65 37.6202 38.66 37.6602 38.66C37.6102 38.88 37.7302 39.11 37.6102 39.32C37.3502 39.29 37.4002 39.11 37.4602 38.96C37.5102 38.86 37.5902 38.78 37.5502 38.65Z" fill="#C4C5CC"/>
<path d="M64.8017 22.26C64.8517 22.57 64.8017 22.85 64.5117 23.03C64.5417 22.74 64.6017 22.47 64.8017 22.26Z" fill="#C4C5CC"/>
<path d="M29.2316 22.26C29.3416 22.28 29.5316 22.22 29.5116 22.41C29.4816 22.67 29.2216 22.51 29.0816 22.57C29.0916 22.44 29.0216 22.28 29.2316 22.26Z" fill="#C4C5CC"/>
<path d="M25.2211 40.37C25.2411 40.63 25.3311 40.91 25.0511 41.1C25.0511 40.84 24.9111 40.55 25.2211 40.37Z" fill="#C4C5CC"/>
<path d="M65.6304 19.81C65.7804 19.84 65.9304 19.95 65.8904 20.07C65.8204 20.26 65.6304 20.12 65.4904 20.12C65.4104 19.95 65.4704 19.86 65.6304 19.81Z" fill="#C4C5CC"/>
<path d="M25.5401 38.47C25.5501 38.72 25.6201 38.97 25.3901 39.17C25.3001 38.9 25.2701 38.65 25.5401 38.47Z" fill="#C4C5CC"/>
<path d="M17.3008 39.17C17.4008 39.41 17.4108 39.63 17.1608 39.79C17.1708 39.57 17.0508 39.33 17.3008 39.17Z" fill="#C4C5CC"/>
<path d="M30.0712 20.65C29.9412 20.66 29.8112 20.66 29.7012 20.57C29.7112 20.5 29.7212 20.43 29.7212 20.36C30.1612 20.07 29.9712 20.54 30.0712 20.65Z" fill="#8A8E9B"/>
<path d="M26.491 33.5C26.591 33.74 26.591 33.96 26.341 34.12C26.321 33.9 26.281 33.67 26.491 33.5Z" fill="#C4C5CC"/>
<path d="M26.3203 34.35C26.4203 34.59 26.3803 34.8 26.1703 34.97C26.1903 34.75 26.0803 34.5 26.3203 34.35Z" fill="#C4C5CC"/>
<path d="M26.7914 31.9C26.8914 32.12 26.9014 32.32 26.6614 32.46C26.6114 32.25 26.6114 32.05 26.7914 31.9Z" fill="#C4C5CC"/>
<path d="M25.7016 37.63C25.6816 37.82 25.8216 38.05 25.5616 38.17C25.4416 37.95 25.5016 37.77 25.7016 37.63Z" fill="#C4C5CC"/>
<path d="M25.8613 36.71C25.8213 36.94 25.9913 37.22 25.7213 37.41C25.7513 37.17 25.5913 36.9 25.8613 36.71Z" fill="#C4C5CC"/>
<path d="M53.5816 9.19998C53.5116 9.44998 53.3116 9.58998 53.1016 9.69998C53.1516 9.42998 53.3316 9.28998 53.5816 9.19998Z" fill="#C4C5CC"/>
<path d="M28.0901 26.39C28.2001 26.62 28.1701 26.8 27.9401 26.93C27.9501 26.74 27.8501 26.52 28.0901 26.39Z" fill="#C4C5CC"/>
<path d="M17.1405 40.08C17.2305 40.3 17.1905 40.48 17.0005 40.62C17.0205 40.44 16.8805 40.21 17.1405 40.08Z" fill="#C4C5CC"/>
<path d="M35.0309 7.70999C35.0409 7.87999 35.3209 7.98999 35.1309 8.20999C35.0009 8.15999 35.0809 7.91999 34.8809 7.93999C34.8809 7.82999 34.8909 7.72999 35.0309 7.70999Z" fill="#C4C5CC"/>
<path d="M28.2516 25.78C28.3716 25.97 28.3016 26.09 28.1116 26.18C28.1116 26.03 27.9916 25.84 28.2516 25.78Z" fill="#C4C5CC"/>
<path d="M64.9613 21.72C65.0813 21.91 64.9813 22.02 64.8213 22.11C64.8313 21.97 64.7213 21.78 64.9613 21.72Z" fill="#C4C5CC"/>
<path d="M29.5509 21.11C29.6209 21.29 29.5609 21.41 29.4109 21.5C29.4009 21.36 29.3009 21.17 29.5509 21.11Z" fill="#C4C5CC"/>
<path d="M19.4516 19.05C19.6616 19.21 19.6716 19.36 19.4316 19.5C19.4316 19.35 19.4416 19.2 19.4516 19.05Z" fill="#8A8E9B"/>
<path d="M31.0005 16.75C31.0705 16.93 31.0205 17.06 30.8405 17.14C30.8505 16.99 30.7605 16.8 31.0005 16.75Z" fill="#C4C5CC"/>
<path d="M48.3806 20.35C48.4506 20.49 48.4706 20.61 48.2706 20.65C48.1506 20.49 48.2506 20.41 48.3806 20.35Z" fill="#C4C5CC"/>
<path d="M65.7808 19.34C65.8008 19.48 65.8308 19.62 65.6308 19.66C65.5608 19.49 65.6308 19.4 65.7808 19.34Z" fill="#C4C5CC"/>
<path d="M37.6309 39.47C37.7609 39.54 37.7909 39.65 37.7809 39.79C37.5709 39.76 37.5209 39.65 37.6309 39.47Z" fill="#C4C5CC"/>
<path d="M38.1918 18.3C38.1618 18.37 38.1318 18.44 38.1018 18.51C37.9818 18.48 37.9418 18.39 37.9818 18.29C38.0418 18.16 38.1218 18.29 38.1918 18.3Z" fill="#C4C5CC"/>
<path d="M49.1306 18.05C49.0106 18.06 48.9006 18.04 48.8906 17.89C48.9006 17.84 48.9006 17.8 48.9106 17.75C49.1106 17.75 49.0206 17.97 49.1306 18.05Z" fill="#8A8E9B"/>
<path d="M37.7905 24.17C37.9105 24.27 37.9105 24.37 37.7905 24.48C37.7105 24.37 37.7105 24.27 37.7905 24.17Z" fill="#C4C5CC"/>
<path d="M30.2012 19.18C30.2312 19.32 30.1612 19.42 30.0512 19.5C29.9812 19.34 30.0612 19.24 30.2012 19.18Z" fill="#C4C5CC"/>
<path d="M34.2015 9.32999C34.3215 9.50999 34.1715 9.52999 34.0615 9.56999C34.0515 9.44999 34.0415 9.33999 34.2015 9.32999Z" fill="#C4C5CC"/>
<path d="M44.6015 31.25C44.7215 31.39 44.7115 31.49 44.6115 31.6C44.5015 31.5 44.5215 31.4 44.6015 31.25Z" fill="#8A8E9B"/>
<path d="M64.8102 42.36C64.7902 42.41 64.8002 42.5 64.7202 42.48C64.6902 42.47 64.6802 42.4 64.6602 42.36C64.6702 42.31 64.6802 42.26 64.7402 42.26C64.7902 42.26 64.8002 42.31 64.8102 42.36Z" fill="#C4C5CC"/>
<path d="M75.89 38.99C75.96 39.01 76.03 39.03 76.1 39.05C76.09 39.08 76.08 39.13 76.06 39.14C75.93 39.16 75.82 39.11 75.75 39C75.79 39 75.84 38.99 75.89 38.99Z" fill="#8A8E9B"/>
<path d="M48.241 20.78C48.291 20.97 48.161 20.96 48.041 20.95C48.061 20.83 48.141 20.8 48.241 20.78Z" fill="#C4C5CC"/>
<path d="M74.2107 39.16C74.1907 39.31 74.0907 39.32 73.9707 39.3C74.0007 39.16 74.1007 39.15 74.2107 39.16Z" fill="#C4C5CC"/>
<path d="M28.4516 25.01C28.5116 25.01 28.5916 25 28.5916 25.07C28.6016 25.17 28.5016 25.16 28.4316 25.16C28.4416 25.11 28.4416 25.06 28.4516 25.01Z" fill="#8A8E9B"/>
<path d="M49.0513 17.44C49.1113 17.44 49.1913 17.45 49.1713 17.52C49.1413 17.61 49.0913 17.56 49.0513 17.51C49.0413 17.49 49.0513 17.46 49.0513 17.44Z" fill="#8A8E9B"/>
<path d="M70.6507 40.28C70.6207 40.36 70.5607 40.4 70.4707 40.39C70.4807 40.27 70.5407 40.23 70.6507 40.28Z" fill="#C4C5CC"/>
<path d="M32.9899 12.41C33.1399 12.44 33.1199 12.54 33.1199 12.63C33.1299 12.79 33.0799 12.91 32.8999 12.92C32.8299 12.92 32.7499 12.88 32.7799 12.82C32.8399 12.67 32.9199 12.53 32.9899 12.41Z" fill="#C4C5CC"/>
<path d="M51.2811 13.53C51.0911 13.52 51.1511 13.75 51.0111 13.85C50.9811 13.48 51.1611 13.24 51.3311 13C51.4111 12.89 51.4311 13.05 51.4911 13.07C51.4811 13.11 51.4711 13.16 51.4711 13.2C51.3711 13.23 51.2611 13.25 51.3111 13.4C51.2911 13.45 51.2911 13.49 51.2811 13.53Z" fill="#FDFDFD"/>
<path d="M28.4616 26.49C28.4416 26.58 28.5016 26.74 28.3616 26.74C28.1916 26.74 28.2616 26.57 28.2516 26.47C28.2416 26.39 28.2216 26.26 28.3516 26.26C28.5016 26.25 28.4516 26.39 28.4616 26.49Z" fill="#C4C5CC"/>
<path d="M54.3914 21.09C54.3114 20.93 54.3014 20.8 54.3814 20.68C54.4114 20.65 54.4814 20.65 54.5114 20.7C54.5814 20.85 54.5314 20.96 54.3914 21.09Z" fill="#C4C5CC"/>
<path d="M50.8112 14.53C50.5412 14.48 50.6612 14.32 50.6912 14.16C50.8612 14.23 50.7712 14.37 50.8212 14.46C50.8212 14.49 50.8112 14.51 50.8112 14.53Z" fill="#FDFDFD"/>
<path d="M47.1211 24.16C46.9711 24.17 46.9411 24.05 46.9911 23.96C47.0611 23.84 47.0811 24.01 47.1411 24.01C47.1411 24.07 47.1311 24.11 47.1211 24.16Z" fill="#FDFDFD"/>
<path d="M51.3015 13.41C51.2515 13.26 51.3615 13.24 51.4615 13.21C51.5115 13.36 51.4115 13.38 51.3015 13.41Z" fill="#C4C5CC"/>
<path d="M19.0618 24.48C18.9518 24.13 18.9018 23.77 18.9718 23.41C19.0018 23.26 19.0918 23.19 19.2218 23.16C19.2318 23.21 19.2418 23.26 19.2518 23.31C18.9418 23.49 19.0818 23.77 19.1118 24.02C19.0918 24.17 19.0718 24.32 19.0618 24.48Z" fill="#FDFDFD"/>
<path d="M19.1005 24.01C19.0705 23.76 18.9305 23.48 19.2405 23.3C19.3305 23.57 19.2405 23.8 19.1005 24.01Z" fill="#C4C5CC"/>
<path d="M19.9004 17.74C19.9004 17.52 19.9004 17.3 19.9004 17.02C20.1104 17.19 20.0204 17.33 20.0604 17.44C20.0604 17.54 20.0504 17.64 20.0504 17.73C19.9904 17.74 19.9404 17.74 19.9004 17.74Z" fill="#FDFDFD"/>
<path d="M21.3401 11.23C21.1201 11.2 21.2001 11.04 21.2201 10.93C21.2401 10.84 21.3101 10.89 21.3501 10.93C21.3501 11.04 21.3501 11.13 21.3401 11.23Z" fill="#FDFDFD"/>
<path d="M21.1599 11.78C21.0299 11.71 20.9499 11.6 21.0799 11.5C21.1599 11.43 21.1799 11.56 21.1999 11.63C21.1799 11.67 21.1699 11.72 21.1599 11.78Z" fill="#FDFDFD"/>
<path d="M19.2206 23.06C19.1506 22.98 19.0806 22.9 19.2606 22.89C19.2506 22.94 19.2306 23 19.2206 23.06Z" fill="#FDFDFD"/>
<path d="M19.8905 18.35C19.8405 18.35 19.7805 18.35 19.7705 18.29C19.7605 18.2 19.8305 18.2 19.8905 18.2C19.9005 18.25 19.8905 18.3 19.8905 18.35Z" fill="#FDFDFD"/>
<path d="M74.4412 39.47C74.6312 39.46 74.8412 39.56 75.0112 39.39C75.0512 39.35 75.1312 39.37 75.1312 39.41C75.1312 39.47 75.0812 39.54 75.0412 39.6C74.6112 39.57 74.2012 39.84 73.7012 39.73C73.9612 39.58 74.1712 39.43 74.4412 39.47Z" fill="#FDFDFD"/>
<path d="M73.2416 39.95C73.0316 39.99 72.8416 40.18 72.6016 40.02C72.8716 40.03 73.0516 39.54 73.3816 39.92C73.3316 39.93 73.2816 39.94 73.2416 39.95Z" fill="#FDFDFD"/>
<path d="M49.4809 17.17L49.4609 17.18V17.16L49.4809 17.17Z" fill="#FDFDFD"/>
</svg>
