<svg width="250" height="56" viewBox="0 0 250 56" fill="none" xmlns="http://www.w3.org/2000/svg">
<rect width="249" height="56" fill="white"/>
<path d="M20.3605 13.6386C21.697 13.3536 24.8762 15.1657 24.8762 17.4868C24.8762 20.2354 20.5427 23.9003 17.8697 23.9003C16.5737 23.9003 16.1687 23.0248 16.1687 22.7805C18.5785 22.8823 21.7577 18.1383 21.1907 15.7765C14.9132 16.5095 4.74781 24.9591 4.74781 28.115C4.74781 32.859 22.2437 24.3076 22.2437 36.1981C22.2437 42.1841 14.5285 44.098 10.7418 44.098C6.99555 44.098 7.1778 41.8787 7.0968 41.5936C6.0843 40.9421 5.57806 40.148 5.57806 39.4151C5.57806 37.4605 9.00028 35.7502 10.2355 35.7502C10.6 35.7502 10.9645 35.8927 10.9645 36.1777C10.9645 36.1777 7.82579 37.9898 7.82579 39.2929C7.82579 39.8426 8.37254 40.0259 9.58753 40.0259C14.1033 40.0259 19.753 37.9287 19.753 35.6076C19.753 32.4925 13.0503 33.0015 7.80554 32.35C4.62631 31.9835 1.89258 29.6624 1.89258 26.3232C1.89258 21.1313 12.5035 12.6206 17.728 12.6206C18.781 12.6206 19.672 13.0889 20.3605 13.6386Z" fill="#898D9A"/>
<path d="M32.996 36.707C32.9555 36.3405 32.9555 35.7297 32.9555 34.9967C31.9835 37.6436 30.6065 39.8629 28.622 39.8629C26.1718 39.8629 24.8353 38.1526 24.5113 35.913C24.086 32.8589 26.1718 22.4547 27.4678 22.4547C28.5815 22.4547 30.647 23.2894 31.2545 24.226C30.7077 25.244 28.2575 33.7955 28.5815 36.2387C28.622 36.7477 28.8043 36.9921 29.0878 36.9921C30.6065 36.9921 33.0567 29.703 34.0287 26.5471C34.3932 24.8776 34.8995 23.6763 35.5475 23.6763C36.1955 23.6763 38.5444 23.9613 39.2329 24.9386C38.6862 25.9567 37.0662 33.5308 37.0662 36.5034C37.0662 37.6232 37.289 38.0915 37.7142 38.0915C39.5569 38.0915 42.2907 29.8659 42.2907 29.8659H42.4324C42.7969 29.8659 43.5462 30.1917 43.5462 30.4767C43.5867 30.8025 41.0149 40.7384 37.1675 40.7384C35.8107 40.6977 33.239 39.6389 32.996 36.707Z" fill="#898D9A"/>
<path d="M38.1797 43.1206C40.1237 42.5098 43.627 42.7948 47.4542 43.2631C48.0617 41.2678 48.5679 38.9874 48.9729 36.8088C48.1022 39.415 46.8872 41.3085 44.9634 41.3085C43.4042 41.3085 40.954 39.8222 40.5287 36.3405C40.0225 31.6576 42.412 22.4139 47.2719 22.4139C49.2159 22.4139 54.3796 25.0608 53.2254 27.1987C53.1849 27.3412 53.0836 27.3819 53.0026 27.4226C53.8329 27.8909 54.4809 28.4814 54.6226 28.9497C54.6631 29.9677 53.6911 37.44 51.3422 43.7518C57.9436 44.6273 64.1806 45.4213 64.1198 42.9577C66.2056 43.5685 64.9501 48.7605 60.4344 48.7605C57.9841 48.7605 54.0151 47.5592 50.2284 46.4801C48.5274 50.145 46.2594 52.9344 43.4447 52.9344C36.985 52.9547 33.3198 44.5662 38.1797 43.1206ZM46.7252 45.5842C45.1659 45.2177 43.7687 44.9734 42.655 44.9734C38.038 44.9734 39.7997 50.3486 42.979 50.3486C44.4572 50.3689 45.6924 48.3533 46.7252 45.5842ZM50.3702 27.7077V27.6059C50.0867 25.9363 49.6412 25.1015 48.9324 25.1015C45.8342 25.1015 43.5257 38.4784 45.4697 38.4784C46.9074 38.4784 49.3982 30.9043 50.3702 27.7077Z" fill="#898D9A"/>
<path d="M74.4068 29.8455H74.5485C74.913 29.8455 75.6623 30.1712 75.6623 30.4563C75.7028 30.7821 73.131 40.3515 69.2836 40.3515C66.7928 40.3515 65.2133 38.5394 64.9906 36.2183C64.9501 36.1165 64.9501 35.9943 64.9501 35.8925C64.0186 38.9059 62.7834 41.3288 60.6166 41.3288C59.0371 41.3288 56.6071 39.8425 56.1819 36.3608C55.6757 31.6779 58.0651 22.4342 62.9251 22.4342C64.8691 22.4342 70.0328 25.0811 68.8786 27.219L68.7368 27.4022C69.6076 27.8298 70.4378 28.522 70.7618 29.3975C69.5063 32.981 68.6356 37.7046 69.8303 37.7046C71.7743 37.6843 74.4068 29.8455 74.4068 29.8455ZM66.0638 27.6669C65.7803 25.9566 65.3348 25.1218 64.5856 25.1218C61.4874 25.1218 59.1789 38.4987 61.1229 38.4987C62.5606 38.4783 65.0513 30.9042 66.0638 27.6669Z" fill="#898D9A"/>
<path d="M77.1408 27.0156H76.6751C76.3511 28.1355 75.5614 31.8818 75.0551 31.8818C74.6299 31.8818 74.1236 31.5153 74.0831 30.762C74.2654 30.2122 74.9539 28.2983 75.3791 26.812C73.8604 26.3845 73.1719 25.3664 73.1719 24.0226C73.1719 22.4549 74.1439 19.8487 75.5816 19.8487C76.6954 19.8487 78.0318 20.541 78.6798 21.5183C78.3558 21.7423 77.5256 23.8801 77.0598 25.1425C78.3558 25.1425 80.1986 24.3484 80.5631 24.2059C81.4338 24.2059 84.3498 26.0587 84.4916 26.812C83.4791 28.9092 82.0413 34.3861 82.0413 37.6235C82.0413 39.3948 82.5071 41.1051 83.8031 41.1051C83.9448 41.1051 84.0866 41.1051 84.2688 41.0644C84.3498 41.2476 84.4106 41.3902 84.4106 41.5327C84.4106 42.1842 83.4386 42.734 82.1021 42.734C78.8216 42.734 77.7686 39.2523 77.7686 36.748C77.7686 33.5921 79.1051 28.1558 79.7126 26.7306C78.7608 26.9138 77.9306 27.0156 77.1408 27.0156Z" fill="#898D9A"/>
<path d="M107.334 47.5187C106.321 47.5187 104.013 47.4169 103.972 45.4216C103.932 43.1005 104.296 40.0464 104.762 37.1145C103.324 39.9446 101.481 42.4896 99.416 42.4896C96.2773 42.4896 92.207 39.7002 92.207 33.0627C92.207 23.0453 97.5125 12.6818 103.142 12.6818C105.531 12.6818 106.888 13.3741 107.394 13.6999H107.941C108.69 13.6999 111.505 13.8831 111.505 17.2222C111.505 20.6632 109.055 24.2262 107.354 24.2262C106.665 24.2262 105.774 23.6154 105.592 23.2082C106.524 22.5974 107.475 20.6021 107.475 18.1995C107.475 17.4665 107.374 16.53 107.253 15.6952C101.198 13.6999 96.5405 26.0994 96.5405 34.1215C96.5405 38.1528 97.5935 39.5577 99.173 39.5577C102.129 39.5577 104.58 34.4472 105.815 31.3524C106.139 29.7643 106.362 28.7463 106.362 28.7463C107.698 28.7463 110.25 29.2553 110.553 29.8661C109.217 32.6962 108.063 45.1772 108.245 47.3151C108.164 47.478 107.84 47.5187 107.334 47.5187Z" fill="#898D9A"/>
<path d="M111.85 34.203C111.85 29.0925 114.847 22.9232 117.945 22.9232C118.309 22.9232 118.775 23.025 119.241 23.2083C119.666 22.5974 120.395 22.231 120.861 22.231C122.805 22.74 123.574 24.5113 123.574 26.5474C123.574 30.8638 120.112 36.3408 116.244 34.3455V34.9563C116.244 36.9109 117.256 38.947 119.281 38.947C122.744 38.947 125.842 32.961 126.895 29.7644C127.584 29.7644 128.05 30.2734 128.151 30.5991C128.151 30.5991 125.296 41.5938 118.087 41.5938C113.976 41.5938 111.85 37.9697 111.85 34.203ZM119.99 25.6719C118.552 26.5067 116.892 29.7644 116.386 33.0017C119.848 33.6532 121.266 27.0157 119.99 25.6719Z" fill="#898D9A"/>
<path d="M124.789 34.203C124.789 29.0925 127.786 22.9232 130.884 22.9232C131.249 22.9232 131.715 23.025 132.18 23.2083C132.606 22.5974 133.335 22.231 133.8 22.231C135.744 22.74 136.514 24.5113 136.514 26.5474C136.514 30.8638 133.051 36.3408 129.183 34.3455V34.9563C129.183 36.9109 130.196 38.947 132.221 38.947C135.683 38.947 138.782 32.961 139.835 29.7644C140.523 29.7644 140.989 30.2734 141.09 30.5991C141.09 30.5991 138.235 41.5938 131.026 41.5938C126.915 41.5938 124.789 37.9697 124.789 34.203ZM132.909 25.6719C131.472 26.5067 129.811 29.7644 129.305 33.0017C132.768 33.6532 134.205 27.0157 132.909 25.6719Z" fill="#898D9A"/>
<path d="M152.936 25.346C152.936 28.1761 151.235 31.4338 148.785 33.0016C148.927 34.8137 149.939 37.9695 151.235 37.9695C153.179 37.9695 155.954 29.8457 155.954 29.8457C156.46 29.805 157.25 30.1307 157.209 30.4565C157.169 30.9248 154.86 40.9015 150.324 40.9015C146.902 40.9015 144.978 38.1732 144.371 33.7956C144.29 33.7549 144.229 33.7549 144.189 33.7549C143.541 35.8521 142.994 38.1732 142.71 40.3925C140.584 40.3925 138.276 37.7863 138.093 36.4832C137.769 33.2255 141.273 13.1297 142.812 13.1297C144.006 13.1297 146.355 14.1477 146.882 14.9418C145.869 16.3874 143.196 27.4839 142.488 33.6531C143.46 28.9091 146.133 23.4932 147.793 22.8417C148.016 21.8236 149.17 21.0296 149.777 21.0296C151.701 21.5386 152.936 23.2896 152.936 25.346ZM144.735 32.0243C145.201 31.9225 145.849 31.8817 146.436 31.9836C148.643 30.4565 149.98 25.8958 148.785 24.7352C147.955 24.9795 146.213 27.9929 144.735 32.0243Z" fill="#898D9A"/>
<path d="M179.443 13.7813C181.022 14.0664 183.634 15.1251 183.634 17.4055C183.634 20.0116 181.184 24.6538 179.2 24.6538C178.511 24.6538 178.086 24.1041 177.944 23.6358C178.815 23.1268 179.645 20.4799 179.645 18.3828C179.645 17.324 179.422 16.1635 179.179 15.2269C174.704 16.2857 170.047 21.8237 170.047 24.1448C170.047 28.4613 181.164 24.4706 181.164 34.0808C181.164 39.7003 173.914 42.2453 169.905 42.2453C165.754 42.2453 165.754 40.474 165.571 39.741C164.559 39.0895 164.053 38.2954 164.053 37.6031C164.053 35.6078 167.414 33.8975 168.771 33.8975C169.054 33.8975 169.459 34.04 169.459 34.3251C169.459 34.3251 166.321 36.1779 166.321 37.3792C166.321 37.9289 166.827 38.1732 167.799 38.1732C172.598 38.1732 178.005 35.8114 178.005 33.0627C178.005 29.1128 165.551 30.8434 165.551 23.9616C165.551 19.0954 172.112 12.6411 176.263 12.6411C177.64 12.6208 178.693 13.1909 179.443 13.7813Z" fill="#898D9A"/>
<path d="M202.386 29.744C202.751 29.6422 203.682 30.0698 203.642 30.3956C203.601 31.2303 200.868 41.207 197.182 41.207C194.691 41.207 192.788 39.3949 192.525 37.0738C192.201 34.0197 193.314 29.6422 194.003 27.2397C194.286 26.2624 193.78 26.1809 193.071 27.1989C191.634 29.2961 188.596 33.9383 188.232 39.9243C186.106 39.9243 183.797 37.3181 183.615 36.0151C183.291 32.7574 186.794 12.6615 188.333 12.6615C189.528 12.6615 191.877 13.6796 192.403 14.4736C191.431 15.8581 188.981 25.8552 188.151 32.1669C189.852 27.484 193.274 22.8418 194.286 22.8418C195.866 22.8418 199.329 25.4887 199.369 26.3234C198.539 27.769 195.258 38.5805 197.425 38.5805C199.349 38.5805 202.386 29.744 202.386 29.744Z" fill="#898D9A"/>
<path d="M212.41 36.3816C211.296 39.395 209.271 41.7568 206.355 41.7568C202.103 41.7568 200.301 37.6643 200.301 34.2437C200.301 29.9273 202.326 25.1426 203.946 25.1426H204.047C204.412 23.9413 205.424 23.1472 206.436 23.1472C208.421 23.1472 211.053 24.9186 211.661 25.4276C212.815 26.4457 213.362 28.441 213.362 30.8639C213.362 31.9226 213.22 33.0425 213.038 34.1216C214.698 33.6126 216.136 32.0855 216.865 29.5812C216.906 29.3979 218.06 29.9069 218.06 30.3752C217.493 33.694 215.043 35.9337 212.41 36.3816ZM204.796 33.3275C204.574 34.4473 204.432 35.5468 204.432 36.5241C204.432 38.2344 204.857 39.456 205.869 39.456C206.882 39.456 207.854 38.0715 208.583 36.1169C207.044 35.6079 205.809 34.6713 204.796 33.3275ZM209.271 33.8772C209.697 32.2077 209.96 30.3956 209.96 28.9093C209.96 26.9139 209.494 25.4276 208.441 25.4276C207.975 25.4276 207.429 25.7127 206.922 26.1606C207.469 26.4457 207.894 26.8121 207.894 27.0972C207.894 27.199 207.894 27.2397 207.793 27.3212C207.064 27.6469 206.315 28.7057 205.768 30.1513C206.639 31.9837 207.793 33.2257 209.271 33.8772Z" fill="#898D9A"/>
<path d="M223.021 37.6845C222.231 39.4558 221.077 40.6164 219.376 40.6164C217.351 40.6164 215.772 39.2726 215.367 36.6664C214.678 33.2866 215.873 23.3507 217.776 23.3507C218.89 23.3507 221.016 24.6537 221.421 25.2442C220.49 25.7939 217.878 37.9695 220.044 37.9695C221.421 37.9695 222.535 31.9428 223.041 29.2959C223.325 27.1174 223.831 25.346 224.661 25.346C225.309 25.346 227.516 26.14 228.347 27.1173C227.699 27.7282 225.492 38.9061 227.8 38.9061C229.643 38.9061 231.445 31.2505 231.445 31.2505C229.238 29.1534 231.263 22.9842 233.207 22.9842C234.644 22.9842 235.738 24.7555 235.839 25.855C235.839 26.3233 235.839 26.8323 235.799 27.3413C238.715 26.14 243.048 24.4094 245.579 24.4094C248.293 24.4094 249.143 26.9545 249.143 28.4001C249.143 30.0289 248.131 30.0696 247.989 29.9678C247.989 28.9905 247.382 28.4815 246.045 28.4815C243.271 28.4815 237.277 30.2529 235.151 30.7619C233.855 35.8113 230.716 41.5326 227.071 41.5326C225.289 41.5326 223.386 40.2499 223.021 37.6845Z" fill="#898D9A"/>
</svg>
