<svg width="1110" height="165" fill="none" xmlns="http://www.w3.org/2000/svg"><g clip-path="url(#a)"><path d="M56.86 66.628c0-.472-.258-.72-.716-.72h-3.05c-.469 0-.715.259-.715.72v1.45c0 .473.257.619.715.72l3.944.855c1.654.36 3.05 1.36 3.05 3.07v2.766c0 1.787-1.229 3.024-3.005 3.024h-4.748c-1.777 0-3.005-1.237-3.005-3.024v-1.957h2.96v1.36c0 .473.257.72.715.72h3.307c.47 0 .715-.258.715-.72v-1.619c0-.472-.257-.618-.715-.72l-3.944-.854c-1.653-.36-3.05-1.36-3.05-3.07v-2.597c0-1.788 1.23-3.025 3.006-3.025h4.49c1.777 0 3.006 1.237 3.006 3.025v1.788h-2.96v-1.192ZM72.12 63.086v2.9h-6.927v3.15h5.609v2.9h-5.609v3.498h6.927v2.9h-9.976V63.087h9.976ZM76.566 78.423h-3.15l4.916-15.337h3.552L86.8 78.423h-3.285l-.994-3.452h-4.938l-1.017 3.452Zm1.866-6.342h3.262l-1.609-5.622-1.653 5.622ZM96.385 78.423l-2.457-5.69H91.47v5.69h-3.05V63.086h7.775c1.777 0 3.006 1.237 3.006 3.025v3.598c0 1.45-.805 2.53-2.078 2.9l2.536 5.814h-3.274Zm-.234-11.716c0-.473-.257-.72-.715-.72H91.48v3.902h3.955c.469 0 .715-.259.715-.72v-2.462ZM108.931 66.628c0-.472-.257-.72-.715-.72h-3.307c-.469 0-.715.259-.715.72v8.265c0 .472.257.72.715.72h3.307c.469 0 .715-.26.715-.72v-1.878h3.05v2.474c0 1.787-1.229 3.024-3.005 3.024h-4.826c-1.777 0-3.005-1.237-3.005-3.024v-9.457c0-1.788 1.228-3.025 3.005-3.025h4.826c1.776 0 3.005 1.237 3.005 3.025v2.474h-3.05v-1.878ZM113.959 63.086h3.05v6.05h5.251v-6.05h3.05v15.337h-3.05v-6.398h-5.251v6.398h-3.05V63.086ZM47.05 96.864H43.9l4.916-15.349h3.553l4.915 15.35H54l-.995-3.453h-4.938l-1.016 3.452Zm1.867-6.342h3.262l-1.61-5.622-1.653 5.622ZM68.199 96.864l-2.503-10.097-2.502 10.097h-3.005L56.4 81.527h3.262l2.079 11.21 2.748-11.21h2.413l2.748 11.21 2.078-11.21h3.14L71.08 96.876H68.2v-.012ZM77.16 96.864h-3.151l4.915-15.349h3.553l4.916 15.35h-3.285l-.994-3.453h-4.938l-1.017 3.452Zm1.865-6.342h3.262L80.678 84.9l-1.653 5.622ZM96.977 96.864l-2.458-5.69h-2.457v5.69h-3.05V81.527h7.775c1.777 0 3.005 1.237 3.005 3.025v3.598c0 1.45-.804 2.53-2.078 2.9l2.537 5.814h-3.274Zm-.234-11.716c0-.473-.257-.72-.715-.72h-3.955v3.902h3.955c.469 0 .715-.259.715-.72v-2.462ZM110.082 81.527c1.776 0 3.005 1.237 3.005 3.025v9.288c0 1.787-1.229 3.024-3.005 3.024h-7.943V81.527h7.943Zm-.76 12.448c.469 0 .715-.26.715-.72v-8.096c0-.473-.257-.72-.715-.72h-4.133v9.547h4.133v-.011ZM122.527 85.058c0-.473-.257-.72-.715-.72h-3.05c-.469 0-.715.259-.715.72v1.45c0 .473.257.619.715.72l3.944.854c1.653.36 3.05 1.361 3.05 3.07v2.766c0 1.788-1.229 3.025-3.005 3.025h-4.748c-1.777 0-3.006-1.237-3.006-3.025v-1.956h2.961v1.372c0 .472.257.72.715.72h3.307c.469 0 .715-.26.715-.72v-1.62c0-.472-.257-.618-.715-.72l-3.944-.854c-1.653-.36-3.05-1.36-3.05-3.07v-2.597c0-1.788 1.229-3.025 3.006-3.025h4.491c1.776 0 3.005 1.237 3.005 3.025v1.788h-2.961v-1.203Z" fill="#fff"/><path d="M51.525 59.81c-1.782 0-3.03-1.224-3.03-2.972V47.57c0-1.749 1.248-2.973 3.03-2.973h2.14v2.798h-1.427c-.535 0-.713.175-.713.7v8.218c0 .525.178.7.713.7h1.426v2.797h-2.139Z" fill="#C6A75C"/><path fill-rule="evenodd" clip-rule="evenodd" d="M55.803 57.013c.535 0 .713-.175.713-.7V54.04h-2.852v-2.798h5.882v5.596c0 1.748-1.248 2.972-3.03 2.972h-2.139v-2.797h1.426Z" fill="#C6A75C"/><path d="M56.516 44.597c1.782 0 3.03 1.224 3.03 2.973v1.923h-3.03v-1.399c0-.524-.178-.7-.713-.7h-1.426v-2.797h2.139ZM65.606 44.596v15.038h-3.03V44.596h3.03Zm6.417 15.038h-5.882v-2.798h5.882v2.798ZM77.548 47.394c-.535 0-.713.175-.713.7v8.218c0 .524.178.7.713.7h1.426v2.797h-2.317c-1.782 0-3.03-1.224-3.03-2.973V47.57c0-1.75 1.248-2.973 3.03-2.973h2.317v2.798h-1.426Zm4.278-2.798c1.782 0 3.03 1.224 3.03 2.973v9.267c0 1.749-1.248 2.973-3.03 2.973h-2.317v-2.798h1.426c.534 0 .713-.175.713-.7v-8.218c0-.525-.178-.7-.713-.7h-1.426v-2.797h2.317ZM87.887 44.597h3.03v15.038h-3.03V44.597Zm7.842 0c1.783 0 3.03 1.224 3.03 2.973v2.098c0 .874-.356 1.749-1.425 2.273 1.069.525 1.604 1.4 1.604 2.273v2.449c0 1.748-1.248 2.972-3.03 2.972H91.45v-2.797h3.565c.535 0 .713-.175.713-.7V54.04c0-.7-.356-.7-1.07-.7h-3.208v-2.623h3.209c.535 0 .713-.175.713-.7V48.27c0-.524-.178-.7-.713-.7H91.45v-2.972h4.278ZM105.176 44.597l1.426 4.547-3.208 10.492h-3.208l4.99-15.039Zm4.278 11.716h-4.456l.891-2.798h2.674l-2.674-8.918h2.852l4.991 15.038h-3.387l-.891-3.322ZM118.9 44.597v15.038h-3.03V44.597h3.03Zm6.417 15.038h-5.882v-2.797h5.882v2.797ZM87.678 115.243h-5.06v-5.161c0-1.709 1.44-2.519 3.05-3.069l3.641-1.282c.547-.192.85-.304.85-.855v-1.327c0-.551-.303-.854-.85-.854h-.994v-2.901h1.843c1.698 0 3.05 1.36 3.05 3.069v2.688c0 1.709-1.441 2.518-3.05 3.069l-3.642 1.282c-.547.192-.849.304-.849.855v1.574h2.011v2.912Zm-4.882-12.357a3.043 3.043 0 0 1 3.05-3.07h1.843v2.901h-1.083c-.548 0-.85.304-.85.855v.978h-2.96v-1.664Zm5.519 12.357v-2.901h4.938v2.901h-4.938ZM98.783 102.717c-.47 0-.715.259-.715.72v8.264c0 .473.257.72.715.72h1.296v2.901h-2.067c-1.776 0-3.005-1.237-3.005-3.025v-9.456c0-1.788 1.229-3.025 3.005-3.025h2.056v2.901h-1.285Zm3.999-2.901c1.777 0 3.006 1.237 3.006 3.025v9.456c0 1.788-1.229 3.025-3.006 3.025h-2.078v-2.901h1.319c.469 0 .715-.259.715-.72v-8.264c0-.473-.257-.72-.715-.72h-1.319v-2.901h2.078ZM112.569 115.243h-5.061v-5.161c0-1.709 1.441-2.519 3.05-3.069l3.642-1.282c.547-.192.849-.304.849-.855v-1.327c0-.551-.302-.854-.849-.854h-.995v-2.901h1.844c1.698 0 3.05 1.36 3.05 3.069v2.688c0 1.709-1.442 2.518-3.05 3.069l-3.642 1.282c-.548.192-.849.304-.849.855v1.574h2.011v2.912Zm-4.882-12.357a3.042 3.042 0 0 1 3.049-3.07h1.844v2.901h-1.084c-.547 0-.849.304-.849.855v.978h-2.96v-1.664Zm5.518 12.357v-2.901h4.938v2.901h-4.938ZM122.259 103.1l-2.771.978v-2.553l3.408-1.619h2.413v15.349h-3.05V103.1Z" fill="#C6A75C"/><path d="M96.045 164.194s-9.032-10.997-30.12-14.573c-20.527-4.79-45.36-24.817-51.727-52.94-7.378-27.852 5.04-56.975 20.92-70.592C50.887 11.797 65.666 9.582 65.373 9.39c.36.427-14.295 2.98-29.67 17.328C20.204 40.414 8.406 69.155 15.885 96.266c6.501 27.38 30.807 46.552 50.67 51.005a68.712 68.712 0 0 1 12.709 3.193c14.014 4.97 19.401 11.38 19.401 11.38l-2.62 2.35Z" fill="#FFE84D"/><path d="M73.955 164.194s9.031-10.997 30.12-14.573c20.526-4.79 45.349-24.817 51.726-52.94 7.378-27.852-5.039-56.975-20.92-70.592-15.769-14.292-30.548-16.507-30.244-16.698-.36.427 14.295 2.98 29.659 17.328 15.499 13.695 27.297 42.436 19.818 69.547-6.501 27.38-30.818 46.552-50.669 51.005a68.71 68.71 0 0 0-12.71 3.193c-14.014 4.97-19.401 11.38-19.401 11.38l2.62 2.35ZM59.85 132.226s5.748 1.979 7.649 6.555c2.384 5.724 1.35 10.525 1.35 10.525s-5.759-2.991-7.682-6.095c-2.71-4.362-1.316-10.985-1.316-10.985ZM49.762 157.391s5.815 1.788 10.055-.799c5.297-3.227 7.288-7.713 7.288-7.713s-6.422-.967-9.808.405c-4.757 1.934-7.535 8.107-7.535 8.107ZM50.898 127.289s5.207 2.89 6.265 7.635c1.327 5.937-.484 10.39-.484 10.39s-5.05-3.868-6.377-7.196c-1.867-4.678.596-10.829.596-10.829ZM36.884 149.857s5.309 2.71 9.841.933c5.657-2.215 8.346-6.207 8.346-6.207s-6.029-2.024-9.538-1.27c-4.926 1.057-8.65 6.544-8.65 6.544ZM42.868 120.88s4.532 3.677 4.746 8.433c.27 5.949-2.238 9.941-2.238 9.941s-4.218-4.588-4.926-8.029c-1.013-4.824 2.418-10.345 2.418-10.345ZM25.502 140.277s4.656 3.519 9.335 2.575c5.837-1.181 9.11-4.565 9.11-4.565s-5.477-2.98-8.986-2.857c-4.926.192-9.459 4.847-9.459 4.847ZM36.051 113.11s3.757 4.318 3.15 8.951c-.754 5.791-3.847 9.209-3.847 9.209s-3.284-5.15-3.397-8.591c-.157-4.824 4.094-9.569 4.094-9.569ZM15.986 128.875s3.903 4.183 8.57 4.07c5.838-.146 9.572-2.856 9.572-2.856s-4.78-3.812-8.188-4.284c-4.791-.664-9.954 3.07-9.954 3.07ZM30.643 104.295s2.89 4.801 1.518 9.175c-1.71 5.454-5.286 8.242-5.286 8.242s-2.295-5.521-1.811-8.86c.664-4.701 5.579-8.557 5.579-8.557ZM8.598 116.101s3.048 4.701 7.58 5.386c5.658.855 9.718-1.135 9.718-1.135s-3.96-4.487-7.176-5.521c-4.51-1.451-10.122 1.27-10.122 1.27ZM26.907 94.725s1.969 5.128-.1 9.108c-2.576 4.982-6.502 7.051-6.502 7.051s-1.27-5.724-.247-8.861c1.45-4.408 6.85-7.298 6.85-7.298ZM3.626 102.36s2.137 5.06 6.388 6.489c5.31 1.787 9.572.562 9.572.562s-3.06-5.004-5.984-6.556c-4.094-2.159-9.976-.495-9.976-.495ZM24.85 84.684s1.023 5.285-1.642 8.77c-3.34 4.364-7.48 5.702-7.48 5.702s-.258-5.746 1.282-8.602c2.137-4.003 7.84-5.87 7.84-5.87ZM1.084 88.091s1.203 5.251 5.061 7.354c4.825 2.631 9.144 2.17 9.144 2.17s-2.103-5.352-4.656-7.342c-3.588-2.789-9.549-2.182-9.549-2.182ZM24.568 74.384s.09 5.274-3.082 8.186c-3.97 3.643-8.176 4.228-8.176 4.228s.73-5.577 2.699-8.085c2.733-3.497 8.56-4.329 8.56-4.329ZM1.04 73.63s.269 5.274 3.643 7.962c4.207 3.362 8.458 3.654 8.458 3.654s-1.113-5.52-3.24-7.87C6.9 74.057 1.04 73.63 1.04 73.63ZM26.042 63.86s-.81 5.104-4.364 7.376c-4.443 2.845-8.616 2.687-8.616 2.687s1.654-5.262 3.982-7.343c3.24-2.912 8.998-2.72 8.998-2.72ZM3.469 59.125s-.642 5.128 2.159 8.299c3.487 3.958 7.536 4.97 7.536 4.97s-.135-5.521-1.789-8.152c-2.328-3.7-7.906-5.117-7.906-5.117ZM29.337 53.593s-1.642 4.79-5.466 6.376c-4.78 1.99-8.773 1.124-8.773 1.124s2.496-4.801 5.083-6.41c3.633-2.248 9.156-1.09 9.156-1.09ZM8.36 45.182s-1.484 4.846.676 8.377c2.7 4.408 6.433 6.072 6.433 6.072s.81-5.352-.337-8.174c-1.62-3.959-6.771-6.275-6.771-6.275ZM34.432 44.07s-2.407 4.34-6.366 5.228c-4.95 1.102-8.66-.405-8.66-.405s3.227-4.205 5.994-5.319c3.892-1.563 9.032.495 9.032.495ZM15.615 32.386s-2.26 4.42-.776 8.197c1.845 4.723 5.174 6.96 5.174 6.96s1.687-5.026 1.057-7.95c-.877-4.104-5.455-7.207-5.455-7.207ZM41.158 35.59s-3.06 3.779-7.04 3.959c-4.96.224-8.29-1.867-8.29-1.867s3.835-3.508 6.692-4.116c4.027-.832 8.638 2.024 8.638 2.024ZM24.985 21.119s-2.936 3.88-2.149 7.781c.979 4.869 3.813 7.59 3.813 7.59s2.486-4.565 2.373-7.489c-.157-4.104-4.037-7.882-4.037-7.882ZM49.188 28.484s-3.599 3.126-7.468 2.62c-4.825-.63-7.682-3.205-7.682-3.205s4.297-2.732 7.165-2.833c4.015-.124 7.985 3.418 7.985 3.418ZM36.04 11.763s-3.498 3.25-3.396 7.14c.112 4.87 2.384 7.973 2.384 7.973s3.183-3.98 3.577-6.825c.54-3.98-2.565-8.288-2.565-8.288ZM58.277 22.918s-4.004 2.406-7.648 1.26c-4.555-1.429-6.872-4.397-6.872-4.397s4.611-1.912 7.4-1.507c3.892.562 7.12 4.644 7.12 4.644ZM48.435 4.544s-3.925 2.542-4.499 6.32c-.72 4.711.945 8.107.945 8.107s3.745-3.306 4.6-5.982c1.215-3.756-1.046-8.445-1.046-8.445ZM68.028 19.061s-4.275 1.642-7.604-.079c-4.15-2.147-5.882-5.42-5.882-5.42s4.769-1.056 7.4-.202c3.679 1.203 6.086 5.701 6.086 5.701ZM61.661-.347s-4.217 1.788-5.41 5.33c-1.495 4.43-.472 7.984-.472 7.984s4.184-2.553 5.466-4.982c1.8-3.418.416-8.332.416-8.332ZM61.842 10.583s3.16 1.788 5.96.82c3.499-1.202 5.23-3.564 5.23-3.564s-3.61-1.383-5.769-1.023c-3.003.529-5.421 3.767-5.421 3.767Z" fill="#FFE84D"/><path d="M110.149 132.226s-5.747 1.979-7.648 6.555c-2.385 5.724-1.35 10.525-1.35 10.525s5.759-2.991 7.682-6.095c2.711-4.362 1.316-10.985 1.316-10.985ZM120.238 157.391s-5.815 1.788-10.055-.799c-5.286-3.227-7.288-7.713-7.288-7.713s6.422-.967 9.807.404c4.758 1.934 7.536 8.108 7.536 8.108ZM119.102 127.289s-5.219 2.89-6.276 7.635c-1.327 5.937.484 10.39.484 10.39s5.05-3.868 6.377-7.196c1.878-4.678-.585-10.829-.585-10.829ZM133.117 149.857s-5.309 2.71-9.842.933c-5.657-2.215-8.345-6.207-8.345-6.207s6.028-2.024 9.537-1.27c4.915 1.057 8.65 6.544 8.65 6.544ZM127.132 120.88s-4.533 3.677-4.746 8.433c-.27 5.949 2.238 9.941 2.238 9.941s4.217-4.588 4.937-8.029c1.001-4.824-2.429-10.345-2.429-10.345ZM144.497 140.277s-4.656 3.519-9.335 2.575c-5.837-1.181-9.11-4.565-9.11-4.565s5.477-2.98 8.986-2.857c4.927.192 9.459 4.847 9.459 4.847ZM133.948 113.11s-3.756 4.318-3.149 8.951c.753 5.791 3.846 9.209 3.846 9.209s3.285-5.15 3.397-8.591c.158-4.824-4.094-9.569-4.094-9.569ZM154.013 128.875s-3.903 4.182-8.57 4.07c-5.838-.146-9.572-2.856-9.572-2.856s4.78-3.812 8.188-4.284c4.78-.664 9.954 3.07 9.954 3.07ZM139.358 104.294s-2.891 4.802-1.519 9.176c1.71 5.453 5.287 8.242 5.287 8.242s2.294-5.521 1.81-8.861c-.663-4.7-5.578-8.557-5.578-8.557ZM161.403 116.101s-3.048 4.701-7.581 5.386c-5.657.855-9.718-1.135-9.718-1.135s3.96-4.487 7.176-5.521c4.51-1.451 10.123 1.27 10.123 1.27ZM143.092 94.725s-1.969 5.128.101 9.108c2.575 4.982 6.501 7.051 6.501 7.051s1.271-5.724.247-8.861c-1.451-4.408-6.849-7.298-6.849-7.298ZM166.373 102.36s-2.137 5.06-6.399 6.489c-5.32 1.787-9.572.562-9.572.562s3.06-5.004 5.973-6.556c4.116-2.159 9.998-.495 9.998-.495ZM145.15 84.684s-1.023 5.285 1.642 8.77c3.341 4.364 7.48 5.702 7.48 5.702s.258-5.746-1.271-8.602c-2.149-4.003-7.851-5.87-7.851-5.87ZM168.926 88.091s-1.203 5.251-5.072 7.354c-4.825 2.631-9.144 2.17-9.144 2.17s2.103-5.352 4.656-7.342c3.588-2.789 9.56-2.182 9.56-2.182ZM145.431 74.384s-.09 5.274 3.082 8.186c3.959 3.643 8.176 4.228 8.176 4.228s-.731-5.577-2.699-8.085c-2.744-3.497-8.559-4.329-8.559-4.329ZM168.96 73.63s-.27 5.274-3.633 7.962c-4.206 3.362-8.458 3.654-8.458 3.654s1.114-5.52 3.239-7.87c2.992-3.318 8.852-3.745 8.852-3.745ZM143.958 63.86s.81 5.104 4.364 7.376c4.443 2.845 8.615 2.687 8.615 2.687s-1.653-5.262-3.981-7.343c-3.239-2.912-8.998-2.72-8.998-2.72ZM166.531 59.125s.641 5.128-2.159 8.299c-3.487 3.958-7.536 4.97-7.536 4.97s.135-5.521 1.788-8.152c2.328-3.7 7.907-5.117 7.907-5.117ZM140.662 53.593s1.653 4.79 5.478 6.376c4.78 1.99 8.772 1.124 8.772 1.124s-2.497-4.801-5.083-6.41c-3.644-2.248-9.167-1.09-9.167-1.09ZM161.639 45.182s1.484 4.846-.675 8.377c-2.7 4.408-6.434 6.072-6.434 6.072s-.809-5.352.338-8.174c1.619-3.959 6.771-6.275 6.771-6.275ZM135.567 44.07s2.407 4.34 6.366 5.228c4.949 1.102 8.661-.405 8.661-.405s-3.228-4.205-5.995-5.319c-3.903-1.563-9.032.495-9.032.495ZM154.384 32.386s2.261 4.42.788 8.197c-1.845 4.723-5.174 6.96-5.174 6.96s-1.687-5.026-1.057-7.95c.866-4.103 5.443-7.207 5.443-7.207ZM128.842 35.59s3.059 3.779 7.029 3.959c4.96.224 8.29-1.867 8.29-1.867s-3.836-3.508-6.693-4.116c-4.015-.832-8.626 2.024-8.626 2.024ZM145.015 21.119s2.935 3.88 2.148 7.781c-.978 4.869-3.813 7.59-3.813 7.59s-2.485-4.565-2.384-7.489c.169-4.104 4.049-7.882 4.049-7.882ZM120.812 28.484s3.599 3.126 7.468 2.62c4.825-.63 7.682-3.205 7.682-3.205s-4.297-2.732-7.165-2.833c-4.026-.124-7.985 3.418-7.985 3.418ZM133.96 11.763s3.497 3.25 3.396 7.14c-.112 4.87-2.384 7.973-2.384 7.973s-3.183-3.98-3.566-6.825c-.551-3.98 2.554-8.288 2.554-8.288ZM111.724 22.918s4.004 2.406 7.648 1.26c4.555-1.429 6.872-4.397 6.872-4.397s-4.612-1.912-7.401-1.507c-3.903.562-7.119 4.644-7.119 4.644ZM121.565 4.544s3.925 2.542 4.499 6.32c.719 4.711-.945 8.107-.945 8.107s-3.745-3.306-4.6-5.982c-1.215-3.756 1.046-8.445 1.046-8.445ZM101.972 19.061s4.285 1.642 7.603-.079c4.15-2.147 5.882-5.42 5.882-5.42s-4.769-1.056-7.389-.202c-3.689 1.203-6.096 5.701-6.096 5.701ZM108.337-.347s4.229 1.788 5.422 5.33c1.484 4.43.472 7.984.472 7.984s-4.173-2.553-5.466-4.982c-1.811-3.418-.428-8.332-.428-8.332ZM108.147 10.583s-3.16 1.788-5.961.82c-3.498-1.202-5.23-3.564-5.23-3.564s3.622-1.383 5.77-1.023c3.014.529 5.421 3.767 5.421 3.767ZM331.045 164.544s-9.032-10.997-30.121-14.573c-20.526-4.79-45.36-24.816-51.726-52.939-7.378-27.852 5.039-56.975 20.92-70.593 15.769-14.291 30.548-16.506 30.255-16.698.36.428-14.295 2.98-29.67 17.328-15.499 13.696-27.297 42.437-19.818 69.547 6.501 27.381 30.807 46.553 50.669 51.005a68.716 68.716 0 0 1 12.71 3.194c14.014 4.97 19.401 11.379 19.401 11.379l-2.62 2.35Z" fill="#FFE84D"/><path d="M308.955 164.544s9.031-10.997 30.12-14.573c20.526-4.79 45.349-24.816 51.726-52.939 7.378-27.852-5.039-56.975-20.92-70.593-15.769-14.291-30.548-16.506-30.244-16.698-.36.428 14.295 2.98 29.659 17.328 15.499 13.696 27.297 42.437 19.818 69.547-6.501 27.381-30.818 46.553-50.669 51.005a68.684 68.684 0 0 0-12.709 3.194c-14.015 4.97-19.402 11.379-19.402 11.379l2.621 2.35ZM294.851 132.576s5.747 1.979 7.648 6.556c2.384 5.723 1.35 10.524 1.35 10.524s-5.759-2.991-7.682-6.094c-2.711-4.363-1.316-10.986-1.316-10.986ZM284.762 157.741s5.815 1.788 10.055-.798c5.297-3.227 7.288-7.714 7.288-7.714s-6.422-.967-9.808.405c-4.757 1.934-7.535 8.107-7.535 8.107ZM285.898 127.64s5.207 2.89 6.265 7.635c1.327 5.937-.484 10.39-.484 10.39s-5.05-3.868-6.377-7.197c-1.867-4.677.596-10.828.596-10.828ZM271.884 150.208s5.308 2.71 9.841.933c5.658-2.215 8.346-6.207 8.346-6.207s-6.029-2.024-9.538-1.271c-4.926 1.057-8.649 6.545-8.649 6.545ZM277.868 121.231s4.532 3.677 4.746 8.433c.27 5.948-2.238 9.94-2.238 9.94s-4.218-4.588-4.926-8.028c-1.013-4.824 2.418-10.345 2.418-10.345ZM260.502 140.627s4.656 3.52 9.335 2.575c5.837-1.18 9.11-4.565 9.11-4.565s-5.477-2.98-8.986-2.856c-4.926.191-9.459 4.846-9.459 4.846ZM271.051 113.461s3.757 4.317 3.15 8.95c-.754 5.791-3.847 9.209-3.847 9.209s-3.284-5.15-3.397-8.59c-.157-4.824 4.094-9.569 4.094-9.569ZM250.986 129.225s3.903 4.183 8.571 4.071c5.837-.147 9.571-2.856 9.571-2.856s-4.78-3.812-8.188-4.285c-4.791-.663-9.954 3.07-9.954 3.07ZM265.643 104.645s2.89 4.802 1.518 9.176c-1.71 5.453-5.286 8.242-5.286 8.242s-2.295-5.521-1.811-8.861c.664-4.7 5.579-8.557 5.579-8.557ZM243.598 116.452s3.048 4.7 7.58 5.386c5.658.855 9.718-1.136 9.718-1.136s-3.959-4.486-7.176-5.521c-4.51-1.45-10.122 1.271-10.122 1.271ZM261.907 95.076s1.969 5.128-.101 9.108c-2.576 4.981-6.501 7.05-6.501 7.05s-1.271-5.723-.247-8.86c1.451-4.408 6.849-7.298 6.849-7.298ZM238.626 102.711s2.137 5.06 6.388 6.488c5.309 1.788 9.572.562 9.572.562s-3.059-5.003-5.984-6.555c-4.094-2.159-9.976-.495-9.976-.495ZM259.85 85.035s1.023 5.285-1.642 8.77c-3.341 4.363-7.48 5.701-7.48 5.701s-.258-5.746 1.282-8.602c2.137-4.003 7.84-5.87 7.84-5.87ZM236.084 88.442s1.203 5.251 5.061 7.354c4.825 2.631 9.144 2.17 9.144 2.17s-2.103-5.352-4.656-7.343c-3.588-2.788-9.549-2.181-9.549-2.181ZM259.568 74.735s.09 5.273-3.082 8.186c-3.97 3.643-8.176 4.228-8.176 4.228s.731-5.578 2.699-8.085c2.733-3.497 8.559-4.33 8.559-4.33ZM236.039 73.981s.27 5.274 3.644 7.961c4.207 3.363 8.458 3.655 8.458 3.655s-1.113-5.521-3.239-7.871c-3.003-3.317-8.863-3.745-8.863-3.745ZM261.042 64.21s-.81 5.105-4.364 7.376c-4.443 2.845-8.616 2.688-8.616 2.688s1.654-5.263 3.982-7.343c3.239-2.912 8.998-2.721 8.998-2.721ZM238.469 59.476s-.642 5.127 2.159 8.298c3.487 3.959 7.536 4.97 7.536 4.97s-.135-5.52-1.789-8.152c-2.328-3.7-7.906-5.116-7.906-5.116ZM264.337 53.944s-1.642 4.79-5.466 6.375c-4.781 1.99-8.773 1.125-8.773 1.125s2.497-4.802 5.083-6.41c3.633-2.249 9.156-1.09 9.156-1.09ZM243.361 45.533s-1.485 4.846.675 8.377c2.699 4.408 6.433 6.072 6.433 6.072s.81-5.352-.337-8.175c-1.62-3.958-6.771-6.274-6.771-6.274ZM269.432 44.42s-2.407 4.34-6.366 5.228c-4.949 1.102-8.661-.404-8.661-.404s3.228-4.206 5.995-5.319c3.892-1.563 9.032.495 9.032.495ZM250.615 32.737s-2.261 4.419-.776 8.197c1.845 4.723 5.174 6.96 5.174 6.96s1.687-5.026 1.057-7.95c-.877-4.104-5.455-7.207-5.455-7.207ZM276.158 35.941s-3.059 3.778-7.041 3.958c-4.96.225-8.289-1.866-8.289-1.866s3.835-3.509 6.692-4.116c4.027-.832 8.638 2.024 8.638 2.024ZM259.985 21.47s-2.936 3.879-2.149 7.78c.979 4.87 3.813 7.59 3.813 7.59s2.486-4.565 2.373-7.488c-.157-4.104-4.037-7.883-4.037-7.883ZM284.188 28.835s-3.599 3.126-7.468 2.62c-4.825-.63-7.682-3.205-7.682-3.205s4.297-2.733 7.165-2.834c4.015-.123 7.985 3.419 7.985 3.419ZM271.04 12.114s-3.497 3.25-3.396 7.14c.112 4.87 2.384 7.973 2.384 7.973s3.183-3.98 3.577-6.826c.54-3.98-2.565-8.287-2.565-8.287ZM293.277 23.269s-4.004 2.406-7.648 1.259c-4.555-1.428-6.872-4.397-6.872-4.397s4.611-1.911 7.401-1.506c3.891.562 7.119 4.644 7.119 4.644ZM283.435 4.895s-3.925 2.541-4.499 6.32c-.719 4.71.945 8.107.945 8.107s3.746-3.306 4.6-5.982c1.215-3.756-1.046-8.445-1.046-8.445ZM303.027 19.412s-4.274 1.642-7.603-.079c-4.15-2.148-5.882-5.42-5.882-5.42s4.769-1.057 7.401-.202c3.678 1.203 6.084 5.7 6.084 5.7ZM296.661.004s-4.217 1.788-5.409 5.33c-1.496 4.43-.473 7.983-.473 7.983s4.184-2.552 5.466-4.981c1.8-3.418.416-8.332.416-8.332ZM296.842 10.934s3.16 1.788 5.961.82c3.498-1.203 5.23-3.564 5.23-3.564s-3.611-1.383-5.77-1.023c-3.003.528-5.421 3.767-5.421 3.767Z" fill="#FFE84D"/><path d="M345.149 132.576s-5.747 1.979-7.648 6.556c-2.385 5.723-1.35 10.525-1.35 10.525s5.759-2.991 7.682-6.095c2.711-4.363 1.316-10.986 1.316-10.986ZM355.238 157.741s-5.815 1.788-10.055-.798c-5.286-3.227-7.288-7.714-7.288-7.714s6.422-.967 9.807.405c4.758 1.934 7.536 8.107 7.536 8.107ZM354.102 127.64s-5.219 2.89-6.276 7.635c-1.327 5.937.484 10.39.484 10.39s5.05-3.868 6.377-7.197c1.878-4.677-.585-10.828-.585-10.828ZM368.116 150.208s-5.308 2.71-9.841.933c-5.657-2.215-8.345-6.207-8.345-6.207s6.028-2.024 9.537-1.271c4.915 1.057 8.649 6.545 8.649 6.545ZM362.132 121.231s-4.533 3.677-4.746 8.433c-.27 5.948 2.238 9.94 2.238 9.94s4.217-4.588 4.937-8.028c1.001-4.824-2.429-10.345-2.429-10.345ZM379.497 140.627s-4.656 3.52-9.335 2.575c-5.837-1.18-9.11-4.565-9.11-4.565s5.477-2.98 8.986-2.856c4.927.191 9.459 4.846 9.459 4.846ZM368.948 113.461s-3.756 4.317-3.149 8.95c.753 5.791 3.846 9.209 3.846 9.209s3.285-5.15 3.397-8.59c.158-4.824-4.094-9.569-4.094-9.569ZM389.013 129.225s-3.903 4.183-8.571 4.071c-5.837-.147-9.571-2.856-9.571-2.856s4.78-3.812 8.188-4.285c4.78-.663 9.954 3.07 9.954 3.07ZM374.358 104.645s-2.891 4.801-1.519 9.175c1.71 5.454 5.287 8.243 5.287 8.243s2.294-5.521 1.81-8.861c-.663-4.7-5.578-8.557-5.578-8.557ZM396.403 116.452s-3.048 4.7-7.581 5.386c-5.657.855-9.718-1.136-9.718-1.136s3.96-4.486 7.176-5.521c4.51-1.45 10.123 1.271 10.123 1.271ZM378.092 95.076s-1.969 5.128.101 9.108c2.575 4.981 6.501 7.05 6.501 7.05s1.271-5.723.247-8.86c-1.451-4.408-6.849-7.298-6.849-7.298ZM401.373 102.711s-2.137 5.06-6.399 6.488c-5.32 1.788-9.572.562-9.572.562s3.06-5.003 5.973-6.555c4.116-2.159 9.998-.495 9.998-.495ZM380.15 85.035s-1.023 5.285 1.642 8.77c3.341 4.363 7.48 5.701 7.48 5.701s.258-5.746-1.271-8.602c-2.148-4.003-7.851-5.87-7.851-5.87ZM403.926 88.442s-1.203 5.251-5.072 7.354c-4.825 2.631-9.144 2.17-9.144 2.17s2.103-5.352 4.656-7.343c3.588-2.788 9.56-2.181 9.56-2.181ZM380.431 74.735s-.09 5.273 3.082 8.186c3.959 3.643 8.176 4.228 8.176 4.228s-.731-5.578-2.699-8.085c-2.744-3.497-8.559-4.33-8.559-4.33ZM403.96 73.981s-.27 5.274-3.633 7.962c-4.206 3.362-8.458 3.654-8.458 3.654s1.114-5.521 3.239-7.871c2.992-3.317 8.852-3.745 8.852-3.745ZM378.958 64.21s.81 5.105 4.364 7.376c4.443 2.845 8.615 2.688 8.615 2.688s-1.653-5.263-3.981-7.343c-3.239-2.912-8.998-2.721-8.998-2.721ZM401.531 59.476s.641 5.127-2.159 8.299c-3.487 3.957-7.536 4.97-7.536 4.97s.135-5.522 1.788-8.153c2.328-3.7 7.907-5.116 7.907-5.116ZM375.662 53.944s1.653 4.79 5.478 6.375c4.78 1.99 8.772 1.125 8.772 1.125s-2.497-4.802-5.083-6.41c-3.644-2.249-9.167-1.09-9.167-1.09ZM396.639 45.533s1.484 4.846-.675 8.377c-2.7 4.408-6.434 6.072-6.434 6.072s-.809-5.352.338-8.175c1.619-3.958 6.771-6.274 6.771-6.274ZM370.567 44.42s2.407 4.34 6.366 5.228c4.949 1.102 8.661-.404 8.661-.404s-3.228-4.206-5.995-5.319c-3.903-1.563-9.032.495-9.032.495ZM389.384 32.737s2.261 4.419.788 8.197c-1.845 4.723-5.174 6.96-5.174 6.96s-1.687-5.026-1.057-7.95c.866-4.104 5.443-7.207 5.443-7.207ZM363.842 35.941s3.059 3.778 7.029 3.958c4.96.225 8.29-1.866 8.29-1.866s-3.836-3.509-6.693-4.116c-4.015-.832-8.626 2.024-8.626 2.024ZM380.015 21.47s2.935 3.879 2.148 7.78c-.978 4.87-3.813 7.59-3.813 7.59s-2.485-4.565-2.384-7.488c.169-4.104 4.049-7.883 4.049-7.883ZM355.812 28.835s3.599 3.126 7.468 2.62c4.825-.63 7.682-3.205 7.682-3.205s-4.297-2.733-7.165-2.834c-4.026-.123-7.985 3.419-7.985 3.419ZM368.96 12.114s3.497 3.25 3.396 7.14c-.112 4.87-2.384 7.973-2.384 7.973s-3.183-3.98-3.566-6.826c-.551-3.98 2.554-8.287 2.554-8.287ZM346.724 23.269s4.004 2.406 7.648 1.259c4.555-1.428 6.872-4.397 6.872-4.397s-4.612-1.911-7.401-1.506c-3.903.562-7.119 4.644-7.119 4.644ZM356.565 4.895s3.925 2.541 4.499 6.32c.719 4.71-.945 8.107-.945 8.107s-3.745-3.306-4.6-5.982c-1.215-3.756 1.046-8.445 1.046-8.445ZM336.972 19.412s4.285 1.642 7.603-.079c4.15-2.148 5.882-5.42 5.882-5.42s-4.769-1.057-7.389-.202c-3.689 1.203-6.096 5.7-6.096 5.7ZM343.337.004s4.229 1.788 5.422 5.33c1.484 4.43.472 7.983.472 7.983s-4.173-2.552-5.466-4.981c-1.811-3.418-.428-8.332-.428-8.332ZM343.147 10.934s-3.16 1.788-5.961.82c-3.498-1.203-5.23-3.564-5.23-3.564s3.622-1.383 5.77-1.023c3.014.528 5.421 3.767 5.421 3.767Z" fill="#FFE84D"/><path d="M339.919 60.073c-1.788 0-3.025-1.237-3.025-3.025V44.645h3.07v11.807c0 .472.259.72.72.72h1.361v2.9h-2.126Zm4.128-2.901c.472 0 .72-.259.72-.72V44.645h3.07v12.403c0 1.788-1.237 3.025-3.025 3.025h-2.137v-2.901h1.372ZM356.857 57.171c.473 0 .72-.258.72-.72v-1.619c0-.472-.259-.618-.72-.72l-3.97-.854c-1.665-.36-3.071-1.36-3.071-3.07v-2.597c0-1.788 1.238-3.025 3.026-3.025h2.069v2.901h-1.304c-.473 0-.72.259-.72.72v1.45c0 .473.259.619.72.72l3.97.855c1.665.36 3.071 1.36 3.071 3.07v2.766c0 1.787-1.238 3.024-3.026 3.024h-2.069v-2.9h1.304Zm-4.004 2.901c-1.788 0-3.025-1.237-3.025-3.024V55.09h2.98v1.36c0 .473.259.72.72.72h1.383v2.901h-2.058Zm4.51-15.517c1.789 0 3.026 1.237 3.026 3.025v1.788h-2.981v-1.192c0-.473-.258-.72-.72-.72h-1.124v-2.901h1.799Z" fill="#29B6CB"/><path d="M291.297 66.628c0-.472-.259-.72-.72-.72h-3.07c-.473 0-.72.259-.72.72v1.45c0 .473.259.619.72.72l3.97.855c1.665.36 3.07 1.36 3.07 3.07v2.766c0 1.787-1.237 3.024-3.025 3.024h-4.78c-1.788 0-3.026-1.237-3.026-3.024v-1.957h2.981v1.36c0 .473.259.72.72.72h3.329c.472 0 .72-.258.72-.72v-1.619c0-.472-.259-.618-.72-.72l-3.97-.854c-1.665-.36-3.071-1.36-3.071-3.07v-2.597c0-1.788 1.237-3.025 3.026-3.025h4.521c1.788 0 3.025 1.237 3.025 3.025v1.788h-2.98v-1.192ZM306.661 63.086v2.901h-6.973v3.148h5.646v2.901h-5.646v3.498h6.973v2.9h-10.044V63.087h10.044ZM311.137 78.423h-3.172l4.949-15.337h3.576l4.949 15.337h-3.307l-1.001-3.452h-4.971l-1.023 3.452Zm1.878-6.341h3.284l-1.62-5.623-1.664 5.623ZM331.09 78.423l-2.475-5.69h-2.474v5.69h-3.071V63.086h7.828c1.789 0 3.026 1.237 3.026 3.025v3.598c0 1.45-.81 2.53-2.092 2.901l2.553 5.813h-3.295Zm-.237-11.716c0-.473-.258-.72-.719-.72h-3.982v3.902h3.982c.472 0 .719-.259.719-.72v-2.462ZM343.72 66.628c0-.472-.258-.72-.72-.72h-3.329c-.472 0-.72.259-.72.72v8.265c0 .472.259.72.72.72H343c.473 0 .72-.26.72-.72v-1.878h3.071v2.474c0 1.787-1.237 3.024-3.026 3.024h-4.859c-1.788 0-3.025-1.237-3.025-3.024v-9.457c0-1.788 1.237-3.025 3.025-3.025h4.859c1.789 0 3.026 1.237 3.026 3.025v2.474h-3.071v-1.878ZM348.781 63.086h3.071v6.05h5.286v-6.05h3.07v15.337h-3.07v-6.398h-5.286v6.398h-3.071V63.086ZM281.422 96.864h-3.172l4.949-15.348h3.576l4.949 15.348h-3.306l-1.001-3.452h-4.972l-1.023 3.452Zm1.878-6.342h3.284l-1.619-5.622-1.665 5.622ZM302.713 96.864l-2.519-10.097-2.52 10.097h-3.025l-3.813-15.337h3.284l2.092 11.21 2.767-11.21h2.429l2.767 11.21 2.092-11.21h3.161l-3.813 15.349h-2.902v-.012ZM311.733 96.864h-3.171l4.948-15.348h3.577l4.949 15.348h-3.307l-1.001-3.452h-4.971l-1.024 3.452Zm1.879-6.342h3.284l-1.62-5.622-1.664 5.622ZM331.685 96.864l-2.474-5.69h-2.474v5.69h-3.071V81.527h7.828c1.788 0 3.026 1.237 3.026 3.025v3.598c0 1.45-.81 2.53-2.092 2.901l2.553 5.813h-3.296Zm-.236-11.716c0-.473-.259-.72-.72-.72h-3.981v3.902h3.981c.473 0 .72-.259.72-.72v-2.462ZM344.879 81.527c1.788 0 3.025 1.237 3.025 3.025v9.288c0 1.787-1.237 3.024-3.025 3.024h-7.997V81.527h7.997Zm-.765 12.448c.472 0 .72-.26.72-.72v-8.096c0-.472-.259-.72-.72-.72h-4.162v9.547h4.162v-.011ZM357.408 85.058c0-.473-.258-.72-.72-.72h-3.07c-.472 0-.72.259-.72.72v1.45c0 .473.259.619.72.72l3.97.854c1.665.36 3.071 1.361 3.071 3.07v2.766c0 1.788-1.237 3.025-3.026 3.025h-4.78c-1.788 0-3.025-1.237-3.025-3.025v-1.956h2.98v1.372c0 .472.259.72.72.72h3.329c.473 0 .72-.26.72-.72v-1.62c0-.472-.259-.618-.72-.72l-3.97-.854c-1.665-.36-3.071-1.36-3.071-3.07v-2.597c0-1.788 1.238-3.025 3.026-3.025h4.521c1.789 0 3.026 1.237 3.026 3.025v1.788h-2.981v-1.203Z" fill="#fff"/><path d="M321.41 115.243h-5.06v-5.161c0-1.709 1.441-2.519 3.049-3.069l3.642-1.282c.548-.192.85-.304.85-.855v-1.327c0-.551-.302-.854-.85-.854h-.994v-2.901h1.844a3.042 3.042 0 0 1 3.049 3.069v2.688c0 1.709-1.441 2.518-3.049 3.069l-3.642 1.282c-.548.192-.85.304-.85.855v1.574h2.011v2.912Zm-4.882-12.357a3.043 3.043 0 0 1 3.05-3.07h1.844v2.901h-1.084c-.547 0-.849.304-.849.855v.978h-2.961v-1.664Zm5.519 12.357v-2.901h4.938v2.901h-4.938ZM332.515 102.717c-.469 0-.715.259-.715.72v8.264c0 .473.257.72.715.72h1.296v2.901h-2.067c-1.776 0-3.005-1.237-3.005-3.025v-9.456c0-1.788 1.229-3.025 3.005-3.025h2.056v2.901h-1.285Zm4-2.901c1.776 0 3.005 1.237 3.005 3.025v9.456c0 1.788-1.229 3.025-3.005 3.025h-2.078v-2.901h1.318c.469 0 .715-.259.715-.72v-8.264c0-.473-.257-.72-.715-.72h-1.318v-2.901h2.078ZM346.301 115.243h-5.061v-5.161c0-1.709 1.441-2.519 3.05-3.069l3.642-1.282c.548-.192.849-.304.849-.855v-1.327c0-.551-.301-.854-.849-.854h-.994v-2.901h1.843c1.698 0 3.05 1.36 3.05 3.069v2.688c0 1.709-1.441 2.518-3.05 3.069l-3.642 1.282c-.547.192-.849.304-.849.855v1.574h2.011v2.912Zm-4.882-12.357a3.043 3.043 0 0 1 3.05-3.07h1.843v2.901h-1.083c-.548 0-.85.304-.85.855v.978h-2.96v-1.664Zm5.519 12.357v-2.901h4.938v2.901h-4.938ZM355.99 103.1l-2.77.978v-2.553l3.407-1.619h2.413v15.349h-3.05V103.1Z" fill="#29B6CB"/><g clip-path="url(#b)"><path d="M565.971 164.544s-8.971-10.997-29.918-14.573c-20.389-4.79-45.056-24.816-51.379-52.939-7.329-27.852 5.005-56.975 20.779-70.593 15.663-14.291 30.343-16.506 30.053-16.698.357.428-14.2 2.98-29.472 17.328-15.394 13.696-27.114 42.437-19.684 69.547 6.457 27.381 30.599 46.553 50.329 51.005a67.893 67.893 0 0 1 12.624 3.194c13.92 4.97 19.271 11.379 19.271 11.379l-2.603 2.35Z" fill="#FFE84D"/><path d="M544.029 164.544s8.971-10.997 29.918-14.573c20.388-4.79 45.044-24.816 51.379-52.939 7.328-27.852-5.005-56.975-20.78-70.593-15.663-14.291-30.342-16.506-30.041-16.698-.357.428 14.2 2.98 29.46 17.328 15.395 13.696 27.114 42.437 19.685 69.547-6.457 27.381-30.611 46.553-50.329 51.005a67.893 67.893 0 0 0-12.624 3.194c-13.92 4.97-19.271 11.379-19.271 11.379l2.603 2.35ZM530.02 132.576s5.709 1.979 7.597 6.556c2.369 5.723 1.341 10.524 1.341 10.524s-5.72-2.991-7.631-6.094c-2.692-4.363-1.307-10.986-1.307-10.986ZM519.999 157.741s5.776 1.788 9.988-.798c5.261-3.227 7.239-7.714 7.239-7.714s-6.379-.967-9.742.405c-4.726 1.934-7.485 8.107-7.485 8.107ZM521.127 127.64s5.173 2.89 6.223 7.635c1.318 5.937-.48 10.39-.48 10.39s-5.016-3.868-6.335-7.197c-1.854-4.677.592-10.828.592-10.828ZM507.207 150.208s5.273 2.71 9.775.933c5.62-2.215 8.29-6.207 8.29-6.207s-5.988-2.024-9.474-1.271c-4.893 1.057-8.591 6.545-8.591 6.545ZM513.151 121.231s4.502 3.677 4.714 8.433c.269 5.948-2.223 9.94-2.223 9.94s-4.189-4.588-4.893-8.028c-1.005-4.824 2.402-10.345 2.402-10.345ZM495.901 140.627s4.625 3.52 9.273 2.575c5.798-1.18 9.049-4.565 9.049-4.565s-5.441-2.98-8.926-2.856c-4.893.191-9.396 4.846-9.396 4.846ZM506.38 113.461s3.732 4.317 3.128 8.95c-.748 5.791-3.82 9.209-3.82 9.209s-3.262-5.15-3.374-8.59c-.157-4.824 4.066-9.569 4.066-9.569ZM486.45 129.225s3.877 4.183 8.513 4.071c5.798-.147 9.507-2.856 9.507-2.856s-4.748-3.812-8.133-4.285c-4.759-.663-9.887 3.07-9.887 3.07ZM501.007 104.645s2.871 4.802 1.508 9.176c-1.698 5.453-5.25 8.242-5.25 8.242s-2.279-5.521-1.799-8.861c.659-4.7 5.541-8.557 5.541-8.557ZM479.11 116.452s3.028 4.7 7.53 5.386c5.62.855 9.653-1.136 9.653-1.136s-3.933-4.486-7.128-5.521c-4.48-1.45-10.055 1.271-10.055 1.271ZM497.297 95.076s1.955 5.128-.1 9.108c-2.559 4.981-6.458 7.05-6.458 7.05s-1.262-5.723-.245-8.86c1.441-4.408 6.803-7.298 6.803-7.298ZM474.172 102.711s2.123 5.06 6.345 6.488c5.274 1.788 9.508.562 9.508.562s-3.039-5.003-5.944-6.555c-4.066-2.159-9.909-.495-9.909-.495ZM495.253 85.035s1.017 5.285-1.631 8.77c-3.318 4.363-7.429 5.701-7.429 5.701s-.257-5.746 1.274-8.602c2.122-4.003 7.786-5.87 7.786-5.87ZM471.647 88.442s1.196 5.251 5.028 7.354c4.792 2.631 9.082 2.17 9.082 2.17s-2.089-5.352-4.625-7.343c-3.564-2.788-9.485-2.181-9.485-2.181ZM494.974 74.735s.089 5.273-3.061 8.186c-3.944 3.643-8.122 4.228-8.122 4.228s.726-5.578 2.681-8.085c2.715-3.497 8.502-4.33 8.502-4.33ZM471.603 73.981s.268 5.274 3.619 7.961c4.178 3.363 8.401 3.655 8.401 3.655s-1.106-5.521-3.217-7.871c-2.983-3.317-8.803-3.745-8.803-3.745ZM496.438 64.21s-.804 5.105-4.335 7.376c-4.412 2.845-8.557 2.688-8.557 2.688s1.642-5.263 3.955-7.343c3.217-2.912 8.937-2.721 8.937-2.721ZM474.016 59.476s-.637 5.127 2.145 8.298c3.463 3.959 7.485 4.97 7.485 4.97s-.134-5.52-1.776-8.152c-2.313-3.7-7.854-5.116-7.854-5.116ZM499.711 53.944s-1.631 4.79-5.43 6.375c-4.748 1.99-8.714 1.125-8.714 1.125s2.481-4.802 5.05-6.41c3.609-2.249 9.094-1.09 9.094-1.09ZM478.875 45.533s-1.475 4.846.67 8.377c2.682 4.408 6.391 6.072 6.391 6.072s.804-5.352-.335-8.175c-1.609-3.958-6.726-6.274-6.726-6.274ZM504.771 44.42s-2.391 4.34-6.323 5.228c-4.916 1.102-8.602-.404-8.602-.404s3.206-4.206 5.954-5.319c3.866-1.563 8.971.495 8.971.495ZM486.081 32.737s-2.245 4.419-.771 8.197c1.832 4.723 5.139 6.96 5.139 6.96s1.676-5.026 1.05-7.95c-.871-4.104-5.418-7.207-5.418-7.207ZM511.452 35.941s-3.039 3.778-6.994 3.958c-4.927.225-8.233-1.866-8.233-1.866s3.809-3.509 6.647-4.116c3.999-.832 8.58 2.024 8.58 2.024ZM495.387 21.47s-2.916 3.879-2.134 7.78c.972 4.87 3.788 7.59 3.788 7.59s2.469-4.565 2.357-7.488c-.157-4.104-4.011-7.883-4.011-7.883ZM519.429 28.835s-3.575 3.126-7.418 2.62c-4.793-.63-7.63-3.205-7.63-3.205s4.267-2.733 7.116-2.834c3.989-.123 7.932 3.419 7.932 3.419ZM506.369 12.114s-3.474 3.25-3.374 7.14c.112 4.87 2.369 7.973 2.369 7.973s3.161-3.98 3.552-6.826c.537-3.98-2.547-8.287-2.547-8.287ZM528.456 23.269s-3.977 2.406-7.597 1.259c-4.524-1.428-6.826-4.397-6.826-4.397s4.581-1.911 7.351-1.506c3.866.562 7.072 4.644 7.072 4.644ZM518.68 4.895s-3.899 2.541-4.468 6.32c-.715 4.71.938 8.107.938 8.107s3.72-3.306 4.569-5.982c1.207-3.756-1.039-8.445-1.039-8.445ZM538.142 19.412s-4.245 1.642-7.552-.079c-4.122-2.148-5.843-5.42-5.843-5.42s4.737-1.057 7.351-.202c3.653 1.203 6.044 5.7 6.044 5.7ZM531.819.004s-4.189 1.788-5.374 5.33c-1.486 4.43-.469 7.983-.469 7.983s4.156-2.552 5.43-4.981c1.787-3.418.413-8.332.413-8.332ZM531.997 10.934s3.139 1.788 5.921.82c3.475-1.203 5.195-3.564 5.195-3.564s-3.586-1.383-5.731-1.023c-2.983.528-5.385 3.767-5.385 3.767Z" fill="#FFE84D"/><path d="M579.98 132.576s-5.709 1.979-7.597 6.556c-2.369 5.723-1.341 10.525-1.341 10.525s5.72-2.991 7.631-6.095c2.692-4.363 1.307-10.986 1.307-10.986ZM590 157.741s-5.775 1.788-9.987-.798c-5.251-3.227-7.24-7.714-7.24-7.714s6.38-.967 9.742.405c4.726 1.934 7.485 8.107 7.485 8.107ZM588.873 127.64s-5.184 2.89-6.234 7.635c-1.318 5.937.481 10.39.481 10.39s5.016-3.868 6.334-7.197c1.866-4.677-.581-10.828-.581-10.828ZM602.793 150.208s-5.273 2.71-9.775.933c-5.619-2.215-8.289-6.207-8.289-6.207s5.988-2.024 9.473-1.271c4.882 1.057 8.591 6.545 8.591 6.545ZM596.849 121.231s-4.502 3.677-4.715 8.433c-.268 5.948 2.224 9.94 2.224 9.94s4.189-4.588 4.904-8.028c.994-4.824-2.413-10.345-2.413-10.345ZM614.098 140.627s-4.625 3.52-9.272 2.575c-5.799-1.18-9.05-4.565-9.05-4.565s5.441-2.98 8.927-2.856c4.893.191 9.395 4.846 9.395 4.846ZM603.619 113.461s-3.731 4.317-3.128 8.95c.748 5.791 3.821 9.209 3.821 9.209s3.262-5.15 3.373-8.59c.157-4.824-4.066-9.569-4.066-9.569ZM623.549 129.225s-3.876 4.183-8.513 4.071c-5.798-.147-9.507-2.856-9.507-2.856s4.748-3.812 8.133-4.285c4.748-.663 9.887 3.07 9.887 3.07ZM608.992 104.645s-2.871 4.801-1.508 9.175c1.698 5.454 5.251 8.243 5.251 8.243s2.279-5.521 1.799-8.861c-.659-4.7-5.542-8.557-5.542-8.557ZM630.889 116.452s-3.027 4.7-7.53 5.386c-5.619.855-9.652-1.136-9.652-1.136s3.933-4.486 7.128-5.521c4.48-1.45 10.054 1.271 10.054 1.271ZM612.702 95.076s-1.955 5.128.101 9.108c2.558 4.981 6.457 7.05 6.457 7.05s1.262-5.723.246-8.86c-1.441-4.408-6.804-7.298-6.804-7.298ZM635.828 102.711s-2.123 5.06-6.357 6.488c-5.284 1.788-9.507.562-9.507.562s3.039-5.003 5.932-6.555c4.089-2.159 9.932-.495 9.932-.495ZM614.747 85.035s-1.017 5.285 1.631 8.77c3.318 4.363 7.429 5.701 7.429 5.701s.257-5.746-1.263-8.602c-2.133-4.003-7.797-5.87-7.797-5.87ZM638.363 88.442s-1.195 5.251-5.038 7.354c-4.793 2.631-9.083 2.17-9.083 2.17s2.089-5.352 4.625-7.343c3.564-2.788 9.496-2.181 9.496-2.181ZM615.026 74.735s-.09 5.273 3.061 8.186c3.932 3.643 8.122 4.228 8.122 4.228s-.727-5.578-2.682-8.085c-2.726-3.497-8.501-4.33-8.501-4.33ZM638.397 73.981s-.268 5.274-3.608 7.962c-4.178 3.362-8.401 3.654-8.401 3.654s1.106-5.521 3.217-7.871c2.972-3.317 8.792-3.745 8.792-3.745ZM613.562 64.21s.805 5.105 4.335 7.376c4.413 2.845 8.558 2.688 8.558 2.688s-1.643-5.263-3.955-7.343c-3.218-2.912-8.938-2.721-8.938-2.721ZM635.985 59.476s.636 5.127-2.145 8.299c-3.464 3.957-7.486 4.97-7.486 4.97s.135-5.522 1.777-8.153c2.312-3.7 7.854-5.116 7.854-5.116ZM610.289 53.944s1.642 4.79 5.441 6.375c4.748 1.99 8.714 1.125 8.714 1.125s-2.48-4.802-5.05-6.41c-3.62-2.249-9.105-1.09-9.105-1.09ZM631.124 45.533s1.475 4.846-.67 8.377c-2.681 4.408-6.39 6.072-6.39 6.072s-.805-5.352.335-8.175c1.609-3.958 6.725-6.274 6.725-6.274ZM605.229 44.42s2.39 4.34 6.323 5.228c4.915 1.102 8.602-.404 8.602-.404s-3.206-4.206-5.955-5.319c-3.876-1.563-8.97.495-8.97.495ZM623.919 32.737s2.246 4.419.782 8.197c-1.832 4.723-5.139 6.96-5.139 6.96s-1.676-5.026-1.05-7.95c.86-4.104 5.407-7.207 5.407-7.207ZM598.547 35.941s3.039 3.778 6.982 3.958c4.927.225 8.234-1.866 8.234-1.866s-3.81-3.509-6.647-4.116c-3.989-.832-8.569 2.024-8.569 2.024ZM614.612 21.47s2.916 3.879 2.134 7.78c-.972 4.87-3.788 7.59-3.788 7.59s-2.469-4.565-2.368-7.488c.167-4.104 4.022-7.883 4.022-7.883ZM590.57 28.835s3.575 3.126 7.418 2.62c4.793-.63 7.631-3.205 7.631-3.205s-4.268-2.733-7.117-2.834c-3.999-.123-7.932 3.419-7.932 3.419ZM603.63 12.114s3.475 3.25 3.374 7.14c-.111 4.87-2.368 7.973-2.368 7.973s-3.162-3.98-3.542-6.826c-.547-3.98 2.536-8.287 2.536-8.287ZM581.544 23.269s3.977 2.406 7.597 1.259c4.524-1.428 6.826-4.397 6.826-4.397s-4.581-1.911-7.351-1.506c-3.877.562-7.072 4.644-7.072 4.644ZM591.319 4.895s3.899 2.541 4.469 6.32c.715 4.71-.939 8.107-.939 8.107s-3.72-3.306-4.569-5.982c-1.207-3.756 1.039-8.445 1.039-8.445ZM571.858 19.412s4.257 1.642 7.553-.079c4.122-2.148 5.842-5.42 5.842-5.42s-4.736-1.057-7.339-.202c-3.665 1.203-6.056 5.7-6.056 5.7ZM578.182.004s4.2 1.788 5.384 5.33c1.475 4.43.47 7.983.47 7.983s-4.145-2.552-5.43-4.981c-1.798-3.418-.424-8.332-.424-8.332ZM577.991 10.934s-3.139 1.788-5.921.82c-3.475-1.203-5.195-3.564-5.195-3.564s3.597-1.383 5.731-1.023c2.994.528 5.385 3.767 5.385 3.767Z" fill="#FFE84D"/><path d="M526.489 66.628c0-.473-.257-.72-.715-.72h-3.05c-.469 0-.715.259-.715.72v1.45c0 .472.257.619.715.72l3.944.854c1.653.36 3.05 1.361 3.05 3.07v2.766c0 1.788-1.229 3.025-3.005 3.025h-4.748c-1.777 0-3.006-1.237-3.006-3.025v-1.956h2.961v1.36c0 .473.257.72.715.72h3.307c.469 0 .715-.259.715-.72v-1.619c0-.472-.257-.618-.715-.72l-3.944-.854c-1.653-.36-3.05-1.36-3.05-3.07v-2.597c0-1.788 1.229-3.025 3.005-3.025h4.492c1.776 0 3.005 1.237 3.005 3.025v1.788h-2.961v-1.192ZM541.75 63.086v2.9h-6.927v3.15h5.609v2.9h-5.609v3.497h6.927v2.901h-9.977V63.086h9.977ZM546.196 78.423h-3.15l4.915-15.337h3.553l4.916 15.337h-3.285l-.994-3.452h-4.938l-1.017 3.452Zm1.866-6.342h3.262l-1.609-5.622-1.653 5.622ZM566.015 78.423l-2.458-5.69H561.1v5.69h-3.05V63.086h7.775c1.777 0 3.006 1.237 3.006 3.024v3.599c0 1.45-.805 2.53-2.078 2.9l2.536 5.814h-3.274Zm-.234-11.717c0-.472-.257-.72-.715-.72h-3.955v3.902h3.955c.469 0 .715-.258.715-.72v-2.462ZM578.561 66.628c0-.473-.257-.72-.715-.72h-3.307c-.469 0-.715.259-.715.72v8.264c0 .473.257.72.715.72h3.307c.469 0 .715-.259.715-.72v-1.877h3.05v2.473c0 1.788-1.229 3.025-3.005 3.025h-4.826c-1.777 0-3.006-1.237-3.006-3.025v-9.456c0-1.788 1.229-3.025 3.006-3.025h4.826c1.776 0 3.005 1.237 3.005 3.025v2.474h-3.05v-1.878ZM583.589 63.086h3.05v6.05h5.25v-6.05h3.05v15.337h-3.05v-6.398h-5.25v6.398h-3.05V63.086ZM516.681 96.864h-3.151l4.916-15.349h3.552l4.916 15.349h-3.284l-.995-3.452h-4.938l-1.016 3.452Zm1.865-6.342h3.263L520.2 84.9l-1.654 5.622ZM537.829 96.864l-2.503-10.098-2.502 10.098h-3.006l-3.787-15.337h3.262l2.078 11.21 2.749-11.21h2.413l2.748 11.21 2.078-11.21h3.139l-3.787 15.348h-2.882v-.01ZM546.789 96.864h-3.15l4.915-15.349h3.553l4.915 15.349h-3.284l-.994-3.452h-4.938l-1.017 3.452Zm1.866-6.342h3.262l-1.609-5.622-1.653 5.622ZM566.607 96.864l-2.458-5.69h-2.458v5.69h-3.049V81.527h7.775c1.776 0 3.005 1.236 3.005 3.024v3.599c0 1.45-.804 2.53-2.078 2.9l2.536 5.814h-3.273Zm-.235-11.717c0-.472-.256-.72-.715-.72h-3.954v3.902h3.954c.47 0 .715-.258.715-.72v-2.462ZM579.712 81.527c1.776 0 3.005 1.236 3.005 3.024v9.288c0 1.788-1.229 3.025-3.005 3.025h-7.943V81.527h7.943Zm-.76 12.447c.469 0 .715-.258.715-.72v-8.096c0-.472-.257-.72-.715-.72h-4.134v9.547h4.134v-.01ZM592.157 85.057c0-.472-.257-.72-.715-.72h-3.05c-.469 0-.715.26-.715.72v1.45c0 .473.257.62.715.72l3.944.855c1.653.36 3.05 1.36 3.05 3.07v2.766c0 1.788-1.229 3.025-3.005 3.025h-4.748c-1.777 0-3.006-1.237-3.006-3.025v-1.957h2.961v1.372c0 .473.257.72.715.72h3.307c.469 0 .715-.259.715-.72v-1.619c0-.472-.257-.618-.715-.72l-3.944-.854c-1.653-.36-3.05-1.36-3.05-3.07v-2.597c0-1.788 1.229-3.025 3.005-3.025h4.491c1.777 0 3.006 1.237 3.006 3.025v1.787h-2.961v-1.203Z" fill="#fff"/><path d="M572.315 59.834c-1.789 0-3.026-1.237-3.026-3.024V44.407h3.071v11.807c0 .472.258.72.719.72h1.361v2.9h-2.125Zm4.127-2.9c.473 0 .72-.26.72-.72V44.407h3.071V56.81c0 1.787-1.238 3.024-3.026 3.024h-2.137v-2.9h1.372Z" fill="#3B75C4"/><path fill-rule="evenodd" clip-rule="evenodd" d="M586.402 55.735v3.882h-3.158v-15.21h3.158v7.138l5.529-7.138h3.761l-4.912 6.004 5.151 9.22h-3.607l-3.691-6.618-2.231 2.722Z" fill="#3B75C4"/><path d="M557.678 115.243h-5.061v-5.161c0-1.709 1.441-2.519 3.05-3.069l3.642-1.282c.547-.192.849-.304.849-.855v-1.327c0-.551-.302-.854-.849-.854h-.994v-2.901h1.843c1.698 0 3.05 1.36 3.05 3.069v2.688c0 1.709-1.441 2.518-3.05 3.069l-3.642 1.282c-.547.192-.849.304-.849.855v1.574h2.011v2.912Zm-4.882-12.357a3.043 3.043 0 0 1 3.05-3.07h1.843v2.901h-1.083c-.548 0-.85.304-.85.855v.978h-2.96v-1.664Zm5.519 12.357v-2.901h4.938v2.901h-4.938ZM568.783 102.717c-.469 0-.715.259-.715.72v8.264c0 .473.257.72.715.72h1.296v2.901h-2.067c-1.776 0-3.005-1.237-3.005-3.025v-9.456c0-1.788 1.229-3.025 3.005-3.025h2.056v2.901h-1.285Zm3.999-2.901c1.777 0 3.006 1.237 3.006 3.025v9.456c0 1.788-1.229 3.025-3.006 3.025h-2.078v-2.901h1.319c.469 0 .715-.259.715-.72v-8.264c0-.473-.257-.72-.715-.72h-1.319v-2.901h2.078ZM582.569 115.243h-5.061v-5.161c0-1.709 1.441-2.519 3.05-3.069l3.642-1.282c.547-.192.849-.304.849-.855v-1.327c0-.551-.302-.854-.849-.854h-.995v-2.901h1.844c1.698 0 3.05 1.36 3.05 3.069v2.688c0 1.709-1.442 2.518-3.05 3.069l-3.642 1.282c-.548.192-.849.304-.849.855v1.574h2.011v2.912Zm-4.882-12.357a3.042 3.042 0 0 1 3.049-3.07h1.844v2.901h-1.084c-.547 0-.849.304-.849.855v.978h-2.96v-1.664Zm5.518 12.357v-2.901h4.938v2.901h-4.938ZM592.259 103.1l-2.771.978v-2.553l3.408-1.619h2.413v15.349h-3.05V103.1Z" fill="#3B75C3"/></g><g clip-path="url(#c)"><path d="M801.045 164.194s-9.032-10.997-30.121-14.573c-20.526-4.79-45.36-24.817-51.726-52.94-7.378-27.852 5.039-56.975 20.92-70.592 15.769-14.292 30.548-16.507 30.255-16.698.36.427-14.295 2.98-29.67 17.328-15.499 13.695-27.297 42.436-19.818 69.547 6.501 27.38 30.807 46.552 50.669 51.005a68.719 68.719 0 0 1 12.71 3.193c14.014 4.97 19.401 11.38 19.401 11.38l-2.62 2.35Z" fill="#FFE84D"/><path d="M778.955 164.194s9.031-10.997 30.12-14.573c20.526-4.79 45.349-24.817 51.726-52.94 7.378-27.852-5.039-56.975-20.92-70.592-15.769-14.292-30.548-16.507-30.244-16.698-.36.427 14.295 2.98 29.659 17.328 15.499 13.695 27.297 42.436 19.818 69.547-6.501 27.38-30.818 46.552-50.669 51.005a68.687 68.687 0 0 0-12.709 3.193c-14.015 4.97-19.402 11.38-19.402 11.38l2.621 2.35ZM764.851 132.226s5.747 1.979 7.648 6.555c2.384 5.724 1.35 10.525 1.35 10.525s-5.759-2.991-7.682-6.095c-2.711-4.362-1.316-10.985-1.316-10.985ZM754.762 157.391s5.815 1.788 10.055-.799c5.297-3.227 7.288-7.713 7.288-7.713s-6.422-.967-9.808.405c-4.757 1.934-7.535 8.107-7.535 8.107ZM755.898 127.289s5.207 2.89 6.265 7.635c1.327 5.937-.484 10.39-.484 10.39s-5.05-3.868-6.377-7.196c-1.867-4.678.596-10.829.596-10.829ZM741.884 149.857s5.308 2.71 9.841.933c5.658-2.215 8.346-6.207 8.346-6.207s-6.029-2.024-9.538-1.27c-4.926 1.057-8.649 6.544-8.649 6.544ZM747.868 120.88s4.532 3.677 4.746 8.433c.27 5.949-2.238 9.941-2.238 9.941s-4.218-4.588-4.926-8.029c-1.013-4.824 2.418-10.345 2.418-10.345ZM730.502 140.277s4.656 3.519 9.335 2.575c5.837-1.181 9.11-4.565 9.11-4.565s-5.477-2.98-8.986-2.857c-4.926.192-9.459 4.847-9.459 4.847ZM741.051 113.11s3.757 4.318 3.15 8.951c-.754 5.791-3.847 9.209-3.847 9.209s-3.284-5.15-3.397-8.591c-.157-4.824 4.094-9.569 4.094-9.569ZM720.986 128.875s3.903 4.183 8.571 4.07c5.837-.146 9.571-2.856 9.571-2.856s-4.78-3.812-8.188-4.284c-4.791-.664-9.954 3.07-9.954 3.07ZM735.643 104.295s2.89 4.801 1.518 9.175c-1.71 5.454-5.286 8.242-5.286 8.242s-2.295-5.521-1.811-8.86c.664-4.701 5.579-8.557 5.579-8.557ZM713.598 116.101s3.048 4.701 7.58 5.386c5.658.855 9.718-1.135 9.718-1.135s-3.959-4.487-7.176-5.521c-4.51-1.451-10.122 1.27-10.122 1.27ZM731.908 94.725s1.969 5.128-.101 9.108c-2.576 4.982-6.501 7.051-6.501 7.051s-1.271-5.724-.247-8.861c1.451-4.408 6.849-7.298 6.849-7.298ZM708.626 102.36s2.137 5.06 6.388 6.489c5.309 1.787 9.572.562 9.572.562s-3.059-5.004-5.984-6.556c-4.094-2.159-9.976-.495-9.976-.495ZM729.85 84.684s1.023 5.285-1.642 8.77c-3.341 4.364-7.48 5.702-7.48 5.702s-.258-5.746 1.282-8.602c2.137-4.003 7.84-5.87 7.84-5.87ZM706.084 88.091s1.203 5.251 5.061 7.354c4.825 2.631 9.144 2.17 9.144 2.17s-2.103-5.352-4.656-7.342c-3.588-2.789-9.549-2.182-9.549-2.182ZM729.568 74.384s.09 5.274-3.082 8.186c-3.97 3.643-8.176 4.228-8.176 4.228s.731-5.577 2.699-8.085c2.733-3.497 8.559-4.329 8.559-4.329ZM706.039 73.63s.27 5.274 3.644 7.962c4.207 3.362 8.458 3.654 8.458 3.654s-1.113-5.52-3.239-7.87c-3.003-3.318-8.863-3.745-8.863-3.745ZM731.042 63.86s-.81 5.104-4.364 7.376c-4.443 2.845-8.616 2.687-8.616 2.687s1.654-5.262 3.982-7.343c3.239-2.912 8.998-2.72 8.998-2.72ZM708.469 59.125s-.642 5.128 2.159 8.299c3.487 3.958 7.536 4.97 7.536 4.97s-.135-5.521-1.789-8.152c-2.328-3.7-7.906-5.117-7.906-5.117ZM734.337 53.593s-1.642 4.79-5.466 6.376c-4.781 1.99-8.773 1.124-8.773 1.124s2.497-4.801 5.083-6.41c3.633-2.248 9.156-1.09 9.156-1.09ZM713.361 45.182s-1.485 4.846.675 8.377c2.699 4.408 6.433 6.072 6.433 6.072s.81-5.352-.337-8.174c-1.62-3.959-6.771-6.275-6.771-6.275ZM739.432 44.07s-2.407 4.34-6.366 5.228c-4.949 1.102-8.661-.405-8.661-.405s3.228-4.205 5.995-5.319c3.892-1.563 9.032.495 9.032.495ZM720.615 32.386s-2.261 4.42-.776 8.197c1.845 4.723 5.174 6.96 5.174 6.96s1.687-5.026 1.057-7.95c-.877-4.104-5.455-7.207-5.455-7.207ZM746.158 35.59s-3.059 3.779-7.041 3.959c-4.96.224-8.289-1.867-8.289-1.867s3.835-3.508 6.692-4.116c4.027-.832 8.638 2.024 8.638 2.024ZM729.985 21.119s-2.936 3.88-2.149 7.781c.979 4.869 3.813 7.59 3.813 7.59s2.486-4.565 2.373-7.489c-.157-4.104-4.037-7.882-4.037-7.882ZM754.188 28.484s-3.599 3.126-7.468 2.62c-4.825-.63-7.682-3.205-7.682-3.205s4.297-2.732 7.165-2.833c4.015-.124 7.985 3.418 7.985 3.418ZM741.04 11.763s-3.497 3.25-3.396 7.14c.112 4.87 2.384 7.973 2.384 7.973s3.183-3.98 3.577-6.825c.54-3.98-2.565-8.288-2.565-8.288ZM763.277 22.918s-4.004 2.406-7.648 1.26c-4.555-1.429-6.872-4.397-6.872-4.397s4.611-1.912 7.401-1.507c3.891.562 7.119 4.644 7.119 4.644ZM753.435 4.544s-3.925 2.542-4.499 6.32c-.719 4.711.945 8.107.945 8.107s3.746-3.306 4.6-5.982c1.215-3.756-1.046-8.445-1.046-8.445ZM773.027 19.061s-4.274 1.642-7.603-.079c-4.15-2.147-5.882-5.42-5.882-5.42s4.769-1.056 7.401-.202c3.678 1.203 6.084 5.701 6.084 5.701ZM766.661-.347s-4.217 1.788-5.409 5.33c-1.496 4.43-.473 7.984-.473 7.984s4.184-2.553 5.466-4.982c1.8-3.418.416-8.332.416-8.332ZM766.842 10.583s3.16 1.788 5.961.82c3.498-1.202 5.23-3.564 5.23-3.564s-3.611-1.383-5.77-1.023c-3.003.529-5.421 3.767-5.421 3.767Z" fill="#FFE84D"/><path d="M815.149 132.226s-5.747 1.979-7.648 6.555c-2.385 5.724-1.35 10.525-1.35 10.525s5.759-2.991 7.682-6.095c2.711-4.362 1.316-10.985 1.316-10.985ZM825.238 157.391s-5.815 1.788-10.055-.799c-5.286-3.227-7.288-7.713-7.288-7.713s6.422-.967 9.807.404c4.758 1.934 7.536 8.108 7.536 8.108ZM824.102 127.289s-5.219 2.89-6.276 7.635c-1.327 5.937.484 10.39.484 10.39s5.05-3.868 6.377-7.196c1.878-4.678-.585-10.829-.585-10.829ZM838.117 149.857s-5.309 2.71-9.842.933c-5.657-2.215-8.345-6.207-8.345-6.207s6.028-2.024 9.537-1.27c4.915 1.057 8.65 6.544 8.65 6.544ZM832.132 120.88s-4.533 3.677-4.746 8.433c-.27 5.949 2.238 9.941 2.238 9.941s4.217-4.588 4.937-8.029c1.001-4.824-2.429-10.345-2.429-10.345ZM849.497 140.277s-4.656 3.519-9.335 2.575c-5.837-1.181-9.11-4.565-9.11-4.565s5.477-2.98 8.986-2.857c4.927.192 9.459 4.847 9.459 4.847ZM838.948 113.11s-3.756 4.318-3.149 8.951c.753 5.791 3.846 9.209 3.846 9.209s3.285-5.15 3.397-8.591c.158-4.824-4.094-9.569-4.094-9.569ZM859.013 128.875s-3.903 4.182-8.571 4.07c-5.837-.146-9.571-2.856-9.571-2.856s4.78-3.812 8.188-4.284c4.78-.664 9.954 3.07 9.954 3.07ZM844.358 104.294s-2.891 4.802-1.519 9.176c1.71 5.453 5.287 8.242 5.287 8.242s2.294-5.521 1.81-8.861c-.663-4.7-5.578-8.557-5.578-8.557ZM866.403 116.101s-3.048 4.701-7.581 5.386c-5.657.855-9.718-1.135-9.718-1.135s3.96-4.487 7.176-5.521c4.51-1.451 10.123 1.27 10.123 1.27ZM848.092 94.725s-1.969 5.128.101 9.108c2.575 4.982 6.501 7.051 6.501 7.051s1.271-5.724.247-8.861c-1.451-4.408-6.849-7.298-6.849-7.298ZM871.373 102.36s-2.137 5.06-6.399 6.489c-5.32 1.787-9.572.562-9.572.562s3.06-5.004 5.973-6.556c4.116-2.159 9.998-.495 9.998-.495ZM850.15 84.684s-1.023 5.285 1.642 8.77c3.341 4.364 7.48 5.702 7.48 5.702s.258-5.746-1.271-8.602c-2.148-4.003-7.851-5.87-7.851-5.87ZM873.926 88.091s-1.203 5.251-5.072 7.354c-4.825 2.631-9.144 2.17-9.144 2.17s2.103-5.352 4.656-7.342c3.588-2.789 9.56-2.182 9.56-2.182ZM850.431 74.384s-.09 5.274 3.082 8.186c3.959 3.643 8.176 4.228 8.176 4.228s-.731-5.577-2.699-8.085c-2.744-3.497-8.559-4.329-8.559-4.329ZM873.96 73.63s-.27 5.274-3.633 7.962c-4.206 3.362-8.458 3.654-8.458 3.654s1.114-5.52 3.239-7.87c2.992-3.318 8.852-3.745 8.852-3.745ZM848.958 63.86s.81 5.104 4.364 7.376c4.443 2.845 8.615 2.687 8.615 2.687s-1.653-5.262-3.981-7.343c-3.239-2.912-8.998-2.72-8.998-2.72ZM871.531 59.125s.641 5.128-2.159 8.299c-3.487 3.958-7.536 4.97-7.536 4.97s.135-5.521 1.788-8.152c2.328-3.7 7.907-5.117 7.907-5.117ZM845.662 53.593s1.653 4.79 5.478 6.376c4.78 1.99 8.772 1.124 8.772 1.124s-2.497-4.801-5.083-6.41c-3.644-2.248-9.167-1.09-9.167-1.09ZM866.639 45.182s1.484 4.846-.675 8.377c-2.7 4.408-6.434 6.072-6.434 6.072s-.809-5.352.338-8.174c1.619-3.959 6.771-6.275 6.771-6.275ZM840.567 44.07s2.407 4.34 6.366 5.228c4.949 1.102 8.661-.405 8.661-.405s-3.228-4.205-5.995-5.319c-3.903-1.563-9.032.495-9.032.495ZM859.384 32.386s2.261 4.42.788 8.197c-1.845 4.723-5.174 6.96-5.174 6.96s-1.687-5.026-1.057-7.95c.866-4.103 5.443-7.207 5.443-7.207ZM833.842 35.59s3.059 3.779 7.029 3.959c4.96.224 8.29-1.867 8.29-1.867s-3.836-3.508-6.693-4.116c-4.015-.832-8.626 2.024-8.626 2.024ZM850.015 21.119s2.935 3.88 2.148 7.781c-.978 4.869-3.813 7.59-3.813 7.59s-2.485-4.565-2.384-7.489c.169-4.104 4.049-7.882 4.049-7.882ZM825.812 28.484s3.599 3.126 7.468 2.62c4.825-.63 7.682-3.205 7.682-3.205s-4.297-2.732-7.165-2.833c-4.026-.124-7.985 3.418-7.985 3.418ZM838.96 11.763s3.497 3.25 3.396 7.14c-.112 4.87-2.384 7.973-2.384 7.973s-3.183-3.98-3.566-6.825c-.551-3.98 2.554-8.288 2.554-8.288ZM816.724 22.918s4.004 2.406 7.648 1.26c4.555-1.429 6.872-4.397 6.872-4.397s-4.612-1.912-7.401-1.507c-3.903.562-7.119 4.644-7.119 4.644ZM826.565 4.544s3.925 2.542 4.499 6.32c.719 4.711-.945 8.107-.945 8.107s-3.745-3.306-4.6-5.982c-1.215-3.756 1.046-8.445 1.046-8.445ZM806.972 19.061s4.285 1.642 7.603-.079c4.15-2.147 5.882-5.42 5.882-5.42s-4.769-1.056-7.389-.202c-3.689 1.203-6.096 5.701-6.096 5.701ZM813.337-.347s4.229 1.788 5.422 5.33c1.484 4.43.472 7.984.472 7.984s-4.173-2.553-5.466-4.982c-1.811-3.418-.428-8.332-.428-8.332ZM813.147 10.583s-3.16 1.788-5.961.82c-3.498-1.202-5.23-3.564-5.23-3.564s3.622-1.383 5.77-1.023c3.014.529 5.421 3.767 5.421 3.767Z" fill="#FFE84D"/><path d="M743.908 64.433v-13.55h2.711v13.55h-2.711Zm8.863-10.986h-5.59v-2.564h5.59v2.564Zm-1.17 5.341h-4.42v-2.563h4.42v2.563Zm1.17 5.645h-5.59v-2.564h5.59v2.564ZM757.102 64.512c-1.586 0-2.677-1.091-2.677-2.676V50.883h2.71v10.424c0 .416.225.641.641.641h1.204v2.564h-1.878Zm3.644-2.564c.416 0 .641-.225.641-.64V50.882h2.71v10.953c0 1.585-1.091 2.676-2.676 2.676h-1.879v-2.564h1.204ZM768.787 50.883v13.55h-2.711v-13.55h2.711Zm4.364 13.55-2.182-5.026h-1.62v-2.519h2.958c.416 0 .641-.225.641-.641v-2.159c0-.416-.225-.64-.641-.64h-2.958v-2.565h3.633c1.586 0 2.677 1.091 2.677 2.677v3.182c0 1.282-.72 2.237-1.845 2.564l2.261 5.138h-2.924v-.011ZM780.743 53.368c-.416 0-.641.225-.641.641v7.31c0 .415.225.64.641.64h1.316v2.564h-2.002c-1.586 0-2.677-1.091-2.677-2.676v-8.355c0-1.585 1.091-2.676 2.677-2.676h2.002v2.563h-1.316v-.01Zm3.858-2.552c1.574 0 2.676 1.09 2.676 2.676v8.355c0 1.585-1.091 2.676-2.676 2.676h-1.969v-2.575h1.294c.416 0 .641-.225.641-.641v-7.31c0-.415-.225-.64-.641-.64h-1.294v-2.541h1.969ZM789.189 64.433v-13.55h2.711v13.55h-2.711Zm6.929-13.55c1.586 0 2.677 1.091 2.677 2.677v3.43c0 1.585-1.091 2.675-2.677 2.675h-3.656v-2.563h2.97c.416 0 .641-.225.641-.641v-2.373c0-.416-.225-.64-.641-.64h-2.97v-2.565h3.656ZM800.448 64.433v-13.55h2.711v13.55h-2.711Zm8.863-10.986h-5.59v-2.564h5.59v2.564Zm-1.158 5.341h-4.421v-2.563h4.421v2.563Zm1.158 5.645h-5.59v-2.564h5.59v2.564ZM814.845 50.883h.135l1.17 4.015-2.857 9.546h-2.801l4.353-13.56Zm3.734 10.503h-3.858l.754-2.564h2.373l-2.295-7.939h2.464l4.364 13.55h-2.914l-.888-3.047ZM826.385 64.433h-2.542V51.547l2.542 4.723v8.163Zm-2.317-13.55h2.688l7.299 13.55h-2.688l-7.299-13.55Zm7.682 8.175v-8.163h2.541v12.897l-2.541-4.734Z" fill="#EFC43A"/><path d="M773.365 70.291c0-.416-.225-.64-.641-.64h-2.711c-.416 0-.641.224-.641.64v1.282c0 .416.225.55.641.64l3.498.754c1.462.315 2.711 1.203 2.711 2.71v2.451c0 1.586-1.091 2.677-2.677 2.677h-4.218c-1.586 0-2.677-1.091-2.677-2.677v-1.731h2.632V77.6c0 .416.225.64.641.64h2.936c.416 0 .641-.224.641-.64v-1.428c0-.416-.225-.551-.641-.641l-3.498-.753c-1.462-.327-2.699-1.204-2.699-2.71v-2.294c0-1.586 1.091-2.676 2.676-2.676h3.993c1.586 0 2.677 1.09 2.677 2.676v1.585h-2.632v-1.068h-.011ZM786.952 67.176v2.564h-6.153v2.789h4.994v2.564h-4.994v3.092h6.153v2.563h-8.863V67.176h8.863ZM790.911 80.726h-2.801l4.364-13.55h3.161l4.364 13.55h-2.925l-.888-3.047h-4.387l-.888 3.047Zm1.665-5.611h2.901l-1.428-4.97-1.473 4.97ZM808.546 80.726l-2.182-5.026h-2.182v5.026h-2.71v-13.55h6.905c1.586 0 2.677 1.091 2.677 2.677v3.182c0 1.282-.719 2.237-1.844 2.564l2.26 5.138h-2.924v-.011Zm-.202-10.356c0-.416-.225-.641-.641-.641h-3.521v3.44h3.521c.416 0 .641-.224.641-.64v-2.16ZM819.715 70.291c0-.416-.225-.64-.641-.64h-2.936c-.416 0-.641.224-.641.64V77.6c0 .416.225.64.641.64h2.936c.416 0 .641-.224.641-.64v-1.653h2.711v2.181c0 1.586-1.091 2.677-2.677 2.677h-4.297c-1.586 0-2.677-1.091-2.677-2.677v-8.354c0-1.586 1.091-2.676 2.677-2.676h4.297c1.586 0 2.677 1.09 2.677 2.676v2.181h-2.711v-1.664ZM824.202 67.176h2.711v5.341h4.667v-5.34h2.711v13.549h-2.711V75.08h-4.667v5.645h-2.711v-13.55ZM764.648 97.008h-2.8l4.364-13.55h3.16l4.364 13.55h-2.913l-.889-3.047h-4.386l-.9 3.047Zm1.654-5.611h2.901l-1.428-4.97-1.473 4.97ZM783.453 97.008l-2.216-8.917-2.215 8.917h-2.677l-3.374-13.55h2.901l1.845 9.896 2.452-9.896h2.148l2.452 9.896 1.845-9.896h2.789l-3.374 13.55h-2.576ZM791.439 97.008h-2.8l4.364-13.55h3.16l4.364 13.55h-2.924l-.889-3.047h-4.386l-.889 3.047Zm1.665-5.611h2.902l-1.429-4.97-1.473 4.97ZM809.075 97.008l-2.182-5.026h-2.182v5.026H802v-13.55h6.906c1.586 0 2.677 1.091 2.677 2.677v3.182c0 1.282-.72 2.238-1.845 2.564l2.261 5.138h-2.924v-.011Zm-.203-10.356c0-.416-.225-.641-.641-.641h-3.52v3.44h3.52c.416 0 .641-.224.641-.64v-2.16ZM820.738 83.458c1.586 0 2.677 1.091 2.677 2.677v8.208c0 1.586-1.091 2.676-2.677 2.676h-7.063V83.46h7.063Zm-.675 10.986c.416 0 .641-.225.641-.64v-7.152c0-.416-.225-.641-.641-.641h-3.666v8.433h3.666ZM831.817 86.585c0-.417-.225-.641-.641-.641h-2.711c-.416 0-.641.224-.641.64v1.282c0 .416.225.551.641.641l3.498.754c1.474.315 2.711 1.203 2.711 2.71v2.45c0 1.586-1.091 2.677-2.677 2.677h-4.218c-1.585 0-2.676-1.09-2.676-2.676V92.69h2.631v1.203c0 .416.225.641.641.641h2.936c.416 0 .641-.225.641-.64v-1.429c0-.416-.225-.55-.641-.64l-3.498-.754c-1.462-.326-2.71-1.203-2.71-2.71v-2.294c0-1.585 1.091-2.676 2.676-2.676h3.993c1.586 0 2.677 1.09 2.677 2.676v1.586h-2.632v-1.069Z" fill="#fff"/><path d="M795.538 113.29h-4.499v-4.554c0-1.507 1.282-2.226 2.711-2.71l3.239-1.124c.495-.169.753-.259.753-.754v-1.169c0-.495-.258-.754-.753-.754h-.889v-2.563h1.642a2.697 2.697 0 0 1 2.711 2.71v2.372c0 1.507-1.282 2.227-2.711 2.71l-3.239 1.125c-.495.168-.753.258-.753.753v1.394h1.788v2.564Zm-4.353-10.918a2.698 2.698 0 0 1 2.711-2.71h1.642v2.563h-.956c-.484 0-.754.259-.754.754v.866h-2.631v-1.473h-.012Zm4.915 10.918v-2.564h4.387v2.564H796.1ZM817.996 113.29h-4.499v-4.554c0-1.507 1.282-2.226 2.711-2.71l3.239-1.124c.495-.169.753-.259.753-.754v-1.169c0-.495-.258-.754-.753-.754h-.889v-2.563h1.642a2.697 2.697 0 0 1 2.711 2.71v2.372c0 1.507-1.282 2.227-2.711 2.71l-3.239 1.125c-.495.168-.753.258-.753.753v1.394h1.788v2.564Zm-4.353-10.918a2.698 2.698 0 0 1 2.711-2.71h1.642v2.563h-.956c-.484 0-.754.259-.754.754v.866h-2.631v-1.473h-.012Zm4.915 10.918v-2.564h4.387v2.564h-4.387ZM805.412 102.225c-.416 0-.641.225-.641.641v7.309c0 .416.225.641.641.641h1.147v2.564h-1.822c-1.585 0-2.676-1.091-2.676-2.676v-8.355c0-1.585 1.091-2.676 2.676-2.676h1.822v2.564h-1.147v-.012Zm3.554-2.563c1.586 0 2.677 1.09 2.677 2.676v8.354c0 1.586-1.091 2.677-2.677 2.677h-1.844v-2.564h1.17c.416 0 .641-.225.641-.641v-7.309c0-.416-.225-.641-.641-.641h-1.17V99.65h1.844v.012ZM827.87 102.225c-.416 0-.641.225-.641.641v7.309c0 .416.225.641.641.641h1.147v2.564h-1.822c-1.585 0-2.676-1.091-2.676-2.676v-8.355c0-1.585 1.091-2.676 2.676-2.676h1.822v2.564h-1.147v-.012Zm3.554-2.563c1.586 0 2.677 1.09 2.677 2.676v8.354c0 1.586-1.091 2.677-2.677 2.677h-1.844v-2.564h1.17c.416 0 .641-.225.641-.641v-7.309c0-.416-.225-.641-.641-.641h-1.17V99.65h1.844v.012Z" fill="#EFC43A"/></g><g clip-path="url(#d)"><path d="M1036.04 164.544s-9.03-10.997-30.12-14.573c-20.522-4.79-45.356-24.816-51.722-52.939-7.378-27.852 5.039-56.975 20.92-70.593 15.769-14.291 30.552-16.506 30.252-16.698.36.428-14.292 2.98-29.667 17.328-15.499 13.696-27.297 42.437-19.818 69.547 6.501 27.381 30.807 46.553 50.665 51.005 4.76.731 9 1.867 12.71 3.194 14.02 4.97 19.41 11.379 19.41 11.379l-2.63 2.35Z" fill="#FFE84D"/><path d="M1013.95 164.544s9.04-10.997 30.12-14.573c20.53-4.79 45.35-24.816 51.73-52.939 7.38-27.852-5.04-56.975-20.92-70.593-15.77-14.291-30.55-16.506-30.24-16.698-.36.428 14.29 2.98 29.66 17.328 15.49 13.696 27.29 42.437 19.81 69.547-6.5 27.381-30.81 46.553-50.67 51.005a68.724 68.724 0 0 0-12.7 3.194c-14.02 4.97-19.41 11.379-19.41 11.379l2.62 2.35ZM999.851 132.576s5.749 1.979 7.649 6.556c2.38 5.723 1.35 10.525 1.35 10.525s-5.76-2.992-7.68-6.095c-2.714-4.363-1.319-10.986-1.319-10.986ZM989.762 157.741s5.815 1.788 10.055-.798c5.293-3.227 7.283-7.714 7.283-7.714s-6.42-.967-9.803.405c-4.757 1.934-7.535 8.107-7.535 8.107ZM990.898 127.64s5.207 2.89 6.265 7.635c1.327 5.937-.484 10.39-.484 10.39s-5.05-3.868-6.377-7.197c-1.867-4.677.596-10.828.596-10.828ZM976.884 150.208s5.308 2.71 9.841.933c5.658-2.215 8.346-6.207 8.346-6.207s-6.029-2.024-9.538-1.271c-4.926 1.057-8.649 6.545-8.649 6.545ZM982.868 121.231s4.532 3.677 4.746 8.433c.27 5.948-2.238 9.94-2.238 9.94s-4.218-4.588-4.926-8.028c-1.013-4.824 2.418-10.345 2.418-10.345ZM965.502 140.627s4.656 3.52 9.335 2.575c5.837-1.18 9.11-4.565 9.11-4.565s-5.477-2.98-8.986-2.856c-4.926.191-9.459 4.846-9.459 4.846ZM976.051 113.461s3.757 4.318 3.15 8.95c-.754 5.791-3.847 9.21-3.847 9.21s-3.284-5.15-3.397-8.591c-.157-4.824 4.094-9.569 4.094-9.569ZM955.986 129.225s3.903 4.183 8.571 4.071c5.837-.146 9.571-2.856 9.571-2.856s-4.78-3.812-8.188-4.284c-4.791-.664-9.954 3.069-9.954 3.069ZM970.643 104.645s2.89 4.802 1.518 9.176c-1.71 5.453-5.286 8.242-5.286 8.242s-2.295-5.521-1.811-8.861c.664-4.7 5.579-8.557 5.579-8.557ZM948.598 116.452s3.048 4.7 7.58 5.386c5.658.854 9.718-1.136 9.718-1.136s-3.959-4.486-7.176-5.521c-4.51-1.45-10.122 1.271-10.122 1.271ZM966.907 95.076s1.969 5.128-.101 9.108c-2.576 4.981-6.501 7.05-6.501 7.05s-1.271-5.723-.247-8.86c1.451-4.408 6.849-7.298 6.849-7.298ZM943.625 102.711s2.137 5.06 6.388 6.488c5.309 1.788 9.572.562 9.572.562s-3.059-5.003-5.984-6.555c-4.094-2.159-9.976-.495-9.976-.495ZM964.85 85.035s1.023 5.285-1.642 8.77c-3.341 4.363-7.48 5.701-7.48 5.701s-.258-5.746 1.282-8.602c2.137-4.003 7.84-5.87 7.84-5.87ZM941.084 88.443s1.203 5.25 5.061 7.354c4.825 2.63 9.144 2.17 9.144 2.17s-2.103-5.353-4.656-7.343c-3.588-2.788-9.549-2.181-9.549-2.181ZM964.568 74.735s.09 5.273-3.082 8.186c-3.97 3.643-8.176 4.228-8.176 4.228s.731-5.578 2.699-8.085c2.733-3.497 8.559-4.33 8.559-4.33ZM941.039 73.981s.27 5.274 3.644 7.961c4.207 3.363 8.458 3.655 8.458 3.655s-1.113-5.521-3.239-7.871c-3.003-3.317-8.863-3.745-8.863-3.745ZM966.042 64.21s-.81 5.105-4.364 7.376c-4.443 2.845-8.616 2.688-8.616 2.688s1.654-5.263 3.982-7.343c3.239-2.912 8.998-2.721 8.998-2.721ZM943.468 59.476s-.642 5.127 2.159 8.298c3.487 3.959 7.536 4.97 7.536 4.97s-.135-5.52-1.789-8.152c-2.328-3.7-7.906-5.116-7.906-5.116ZM969.337 53.944s-1.642 4.79-5.466 6.375c-4.781 1.99-8.773 1.125-8.773 1.125s2.497-4.802 5.083-6.41c3.633-2.249 9.156-1.09 9.156-1.09ZM948.361 45.533s-1.485 4.846.675 8.377c2.699 4.408 6.433 6.072 6.433 6.072s.81-5.352-.337-8.175c-1.62-3.958-6.771-6.274-6.771-6.274ZM974.432 44.42s-2.407 4.34-6.366 5.228c-4.949 1.102-8.661-.404-8.661-.404s3.228-4.206 5.995-5.319c3.892-1.563 9.032.495 9.032.495ZM955.615 32.737s-2.261 4.419-.776 8.197c1.845 4.723 5.174 6.96 5.174 6.96s1.687-5.026 1.057-7.95c-.877-4.104-5.455-7.207-5.455-7.207ZM981.157 35.941s-3.059 3.778-7.041 3.958c-4.96.225-8.289-1.866-8.289-1.866s3.835-3.509 6.692-4.116c4.027-.832 8.638 2.024 8.638 2.024ZM964.985 21.47s-2.936 3.879-2.149 7.78c.979 4.87 3.813 7.59 3.813 7.59s2.486-4.565 2.373-7.488c-.157-4.104-4.037-7.883-4.037-7.883ZM989.188 28.835s-3.599 3.126-7.468 2.62c-4.825-.63-7.682-3.205-7.682-3.205s4.297-2.733 7.165-2.834c4.015-.123 7.985 3.419 7.985 3.419ZM976.04 12.114s-3.497 3.25-3.396 7.14c.112 4.87 2.384 7.973 2.384 7.973s3.183-3.98 3.577-6.826c.54-3.98-2.565-8.287-2.565-8.287ZM998.277 23.269s-4.004 2.406-7.648 1.259c-4.555-1.428-6.872-4.397-6.872-4.397s4.611-1.911 7.401-1.506c3.891.562 7.119 4.644 7.119 4.644ZM988.435 4.895s-3.925 2.541-4.499 6.32c-.719 4.71.945 8.107.945 8.107s3.746-3.306 4.6-5.982c1.215-3.756-1.046-8.445-1.046-8.445ZM1008.03 19.412s-4.28 1.642-7.61-.079c-4.146-2.148-5.878-5.42-5.878-5.42s4.769-1.057 7.398-.202c3.68 1.203 6.09 5.7 6.09 5.7ZM1001.66.004s-4.216 1.788-5.408 5.33c-1.496 4.43-.473 7.983-.473 7.983s4.184-2.552 5.471-4.981c1.79-3.418.41-8.332.41-8.332ZM1001.84 10.934s3.16 1.788 5.96.82c3.5-1.203 5.23-3.564 5.23-3.564s-3.61-1.383-5.77-1.023c-3 .528-5.42 3.767-5.42 3.767Z" fill="#FFE84D"/><path d="M1050.15 132.576s-5.75 1.979-7.65 6.556c-2.38 5.723-1.35 10.525-1.35 10.525s5.76-2.991 7.68-6.095c2.71-4.363 1.32-10.986 1.32-10.986ZM1060.24 157.741s-5.82 1.788-10.06-.798c-5.28-3.227-7.29-7.714-7.29-7.714s6.43-.967 9.81.405c4.76 1.934 7.54 8.107 7.54 8.107ZM1059.1 127.64s-5.22 2.89-6.27 7.635c-1.33 5.937.48 10.39.48 10.39s5.05-3.868 6.38-7.197c1.87-4.677-.59-10.828-.59-10.828ZM1073.11 150.208s-5.3 2.71-9.84.933c-5.65-2.215-8.34-6.207-8.34-6.207s6.03-2.024 9.54-1.271c4.91 1.057 8.64 6.545 8.64 6.545ZM1067.13 121.231s-4.53 3.677-4.74 8.433c-.27 5.948 2.23 9.94 2.23 9.94s4.22-4.588 4.94-8.028c1-4.824-2.43-10.345-2.43-10.345ZM1084.5 140.627s-4.66 3.52-9.34 2.575c-5.84-1.18-9.11-4.565-9.11-4.565s5.48-2.98 8.99-2.856c4.92.191 9.46 4.846 9.46 4.846ZM1073.95 113.461s-3.76 4.318-3.15 8.95c.75 5.791 3.85 9.21 3.85 9.21s3.28-5.15 3.39-8.591c.16-4.824-4.09-9.569-4.09-9.569ZM1094.01 129.225s-3.9 4.183-8.57 4.071c-5.83-.146-9.57-2.856-9.57-2.856s4.78-3.812 8.19-4.284c4.78-.664 9.95 3.069 9.95 3.069ZM1079.36 104.645s-2.89 4.801-1.52 9.175c1.71 5.454 5.29 8.243 5.29 8.243s2.29-5.521 1.81-8.861c-.67-4.7-5.58-8.557-5.58-8.557ZM1101.4 116.452s-3.05 4.7-7.58 5.386c-5.66.854-9.72-1.136-9.72-1.136s3.96-4.486 7.18-5.521c4.51-1.45 10.12 1.271 10.12 1.271ZM1083.09 95.076s-1.97 5.128.1 9.108c2.58 4.981 6.5 7.05 6.5 7.05s1.27-5.723.25-8.86c-1.45-4.408-6.85-7.298-6.85-7.298ZM1106.37 102.711s-2.13 5.06-6.4 6.488c-5.32 1.788-9.57.562-9.57.562s3.06-5.003 5.97-6.555c4.12-2.159 10-.495 10-.495ZM1085.15 85.035s-1.02 5.285 1.64 8.77c3.34 4.363 7.48 5.701 7.48 5.701s.26-5.746-1.27-8.602c-2.15-4.003-7.85-5.87-7.85-5.87ZM1108.93 88.442s-1.21 5.251-5.08 7.354c-4.82 2.631-9.14 2.17-9.14 2.17s2.1-5.352 4.66-7.343c3.58-2.788 9.56-2.181 9.56-2.181ZM1085.43 74.735s-.09 5.274 3.08 8.186c3.96 3.643 8.18 4.228 8.18 4.228s-.73-5.577-2.7-8.085c-2.74-3.497-8.56-4.329-8.56-4.329ZM1108.96 73.981s-.27 5.274-3.63 7.962c-4.21 3.362-8.46 3.654-8.46 3.654s1.11-5.521 3.24-7.871c2.99-3.317 8.85-3.745 8.85-3.745ZM1083.96 64.21s.81 5.105 4.36 7.376c4.44 2.845 8.62 2.688 8.62 2.688s-1.66-5.263-3.98-7.343c-3.24-2.912-9-2.721-9-2.721ZM1106.53 59.476s.64 5.127-2.16 8.299c-3.49 3.957-7.53 4.97-7.53 4.97s.13-5.522 1.78-8.153c2.33-3.7 7.91-5.116 7.91-5.116ZM1080.66 53.944s1.66 4.79 5.48 6.375c4.78 1.99 8.77 1.125 8.77 1.125s-2.49-4.802-5.08-6.41c-3.65-2.249-9.17-1.09-9.17-1.09ZM1101.64 45.533s1.48 4.846-.68 8.377c-2.7 4.408-6.43 6.072-6.43 6.072s-.81-5.352.34-8.175c1.62-3.958 6.77-6.274 6.77-6.274ZM1075.57 44.42s2.4 4.34 6.36 5.228c4.95 1.102 8.66-.404 8.66-.404s-3.22-4.206-5.99-5.319c-3.9-1.563-9.03.495-9.03.495ZM1094.38 32.737s2.27 4.419.79 8.197c-1.84 4.723-5.17 6.96-5.17 6.96s-1.69-5.026-1.06-7.95c.87-4.104 5.44-7.207 5.44-7.207ZM1068.84 35.941s3.06 3.778 7.03 3.958c4.96.225 8.29-1.866 8.29-1.866s-3.83-3.509-6.69-4.116c-4.02-.832-8.63 2.024-8.63 2.024ZM1085.01 21.47s2.94 3.879 2.15 7.78c-.98 4.87-3.81 7.59-3.81 7.59s-2.49-4.565-2.38-7.488c.16-4.104 4.04-7.883 4.04-7.883ZM1060.81 28.835s3.6 3.126 7.47 2.62c4.82-.63 7.68-3.205 7.68-3.205s-4.29-2.733-7.16-2.834c-4.03-.123-7.99 3.419-7.99 3.419ZM1073.96 12.114s3.5 3.25 3.4 7.14c-.12 4.87-2.39 7.973-2.39 7.973s-3.18-3.98-3.56-6.826c-.55-3.98 2.55-8.287 2.55-8.287ZM1051.72 23.269s4.01 2.406 7.65 1.259c4.56-1.428 6.87-4.397 6.87-4.397s-4.61-1.911-7.4-1.506c-3.9.562-7.12 4.644-7.12 4.644ZM1061.56 4.895s3.93 2.541 4.5 6.32c.72 4.71-.94 8.107-.94 8.107s-3.75-3.306-4.6-5.982c-1.22-3.756 1.04-8.445 1.04-8.445ZM1041.97 19.412s4.29 1.642 7.6-.079c4.16-2.148 5.89-5.42 5.89-5.42s-4.77-1.057-7.39-.202c-3.69 1.203-6.1 5.7-6.1 5.7ZM1048.34.004s4.23 1.788 5.42 5.33c1.48 4.43.47 7.983.47 7.983s-4.17-2.552-5.47-4.981c-1.81-3.418-.42-8.332-.42-8.332ZM1048.15 10.934s-3.16 1.788-5.96.82c-3.5-1.203-5.23-3.564-5.23-3.564s3.62-1.383 5.77-1.023c3.01.528 5.42 3.767 5.42 3.767Z" fill="#FFE84D"/><path d="M972.531 55.968h2.564v12.819h-2.564v-12.82Z" fill="url(#e)"/><path d="M986.928 55.968v12.818h-2.767l-4.724-8.748v8.748h-2.407V55.968h2.767l4.724 8.748v-8.748h2.407Z" fill="url(#f)"/><path d="M994.306 58.352v10.434h-2.565V58.352h-3.351v-2.384h9.267v2.383h-3.351Z" fill="url(#g)"/><path d="M1007.5 55.968v2.417h-5.83v2.631h4.73v2.418h-4.73v2.924h5.83v2.417h-8.392V55.956h8.392v.012Z" fill="url(#h)"/><path d="m1015.86 68.786-2.07-4.756h-2.07v4.756h-2.57V55.968h6.54c1.49 0 2.53 1.034 2.53 2.53v3.013c0 1.215-.68 2.114-1.75 2.418l2.14 4.857h-2.75Zm-.2-9.794c0-.393-.21-.607-.6-.607h-3.33v3.261h3.33c.39 0 .6-.214.6-.607v-2.047Z" fill="url(#i)"/><path d="M1022.31 68.786h-2.65l4.12-12.818h3l4.12 12.818h-2.76l-.83-2.89h-4.15l-.85 2.89Zm1.58-5.307h2.74l-1.35-4.7-1.39 4.7Z" fill="url(#j)"/><path d="M1038.45 58.925c0-.393-.21-.607-.61-.607h-2.77c-.4 0-.61.214-.61.607v6.915c0 .394.21.608.61.608h2.77c.4 0 .61-.214.61-.608v-1.563h2.57v2.07c0 1.495-1.04 2.53-2.53 2.53h-4.06c-1.5 0-2.54-1.035-2.54-2.53v-7.905c0-1.496 1.04-2.53 2.54-2.53h4.06c1.49 0 2.53 1.034 2.53 2.53v2.069h-2.57v-1.586Z" fill="url(#k)"/><path d="M1048.14 58.352v10.434h-2.57V58.352h-3.35v-2.384h9.27v2.383h-3.35Z" fill="url(#l)"/><path d="M1052.94 55.968h2.56v12.818h-2.56V55.968Z" fill="url(#m)"/><path d="M1063.77 68.786h-2.99l-3.91-12.818h2.93l2.47 9.737 2.56-9.737h2.84l-3.9 12.818Z" fill="url(#n)"/><path d="M1077.47 55.968v2.417h-5.83v2.631h4.73v2.418h-4.73v2.924h5.83v2.417h-8.39V55.956h8.39v.012Z" fill="url(#o)"/><path d="M989.819 84.191H987.4v-8.545l-2.778 6.499h-1.855l-2.779-6.5v8.546h-2.418V71.373h2.812l3.318 7.511 3.318-7.511h2.812V84.19h-.011ZM993.857 84.191h-2.655l4.128-12.818h2.992l4.128 12.818h-2.767l-.833-2.89h-4.15l-.843 2.89Zm1.574-5.307h2.744l-1.349-4.7-1.395 4.7ZM1010.55 84.191l-2.07-4.756h-2.07v4.756h-2.57V71.373h6.54c1.49 0 2.53 1.034 2.53 2.53v3.013c0 1.215-.68 2.114-1.74 2.418l2.13 4.857h-2.75Zm-.19-9.794c0-.393-.22-.607-.61-.607h-3.33v3.261h3.33c.39 0 .61-.213.61-.607v-2.047ZM1017.44 80.92v3.271h-2.53V71.373h2.53v6.015l4.43-6.015h3.02l-3.94 5.06 4.13 7.77h-2.89l-2.96-5.578-1.79 2.294ZM1034.85 71.373v2.417h-5.82v2.631h4.72v2.418h-4.72v2.924h5.82v2.417h-8.39V71.361h8.39v.012ZM1041.95 73.757V84.19h-2.57V73.757h-3.35v-2.384h9.27v2.383h-3.35ZM1046.75 71.373h2.57V84.19h-2.57V71.373ZM1061.15 71.373V84.19h-2.77l-4.72-8.748v8.748h-2.4V71.373h2.77l4.72 8.748v-8.748h2.4ZM1069.67 74.33c0-.394-.21-.607-.6-.607h-2.94c-.39 0-.61.213-.61.607v6.915c0 .394.22.608.61.608h2.94c.39 0 .6-.214.6-.608v-1.911h-2.35v-2.317h4.92v4.723c0 1.496-1.04 2.53-2.53 2.53h-4.22c-1.5 0-2.53-1.034-2.53-2.53v-7.905c0-1.495 1.03-2.53 2.53-2.53h4.22c1.49 0 2.53 1.035 2.53 2.53v1.676h-2.57v-1.18ZM992.528 99.597h-2.654l4.128-12.82h2.992l4.126 12.82h-2.766l-.832-2.89h-4.15l-.844 2.89Zm1.575-5.308h2.744l-1.349-4.7-1.395 4.7ZM1010.33 99.597l-2.1-8.445-2.1 8.445h-2.53l-3.19-12.82h2.75l1.74 9.367 2.32-9.366h2.02l2.32 9.366 1.74-9.366h2.63l-3.18 12.819h-2.42ZM1017.89 99.597h-2.65l4.13-12.82h2.99l4.12 12.82h-2.76l-.83-2.89h-4.15l-.85 2.89Zm1.58-5.308h2.74l-1.35-4.7-1.39 4.7ZM1034.58 99.597l-2.07-4.757h-2.06v4.757h-2.56v-12.82h6.54c1.49 0 2.53 1.035 2.53 2.53v3.014c0 1.215-.68 2.114-1.75 2.418l2.14 4.858h-2.77Zm-.19-9.794c0-.394-.21-.608-.61-.608h-3.33v3.261h3.33c.4 0 .61-.213.61-.607v-2.047ZM1045.63 86.778c1.49 0 2.53 1.034 2.53 2.53v7.77c0 1.495-1.04 2.53-2.53 2.53h-6.68V86.789h6.68v-.011Zm-.64 10.4c.39 0 .6-.213.6-.606v-6.77c0-.393-.21-.607-.6-.607h-3.48v7.984h3.48ZM1056.11 89.735c0-.394-.21-.607-.61-.607h-2.56c-.4 0-.61.213-.61.607v1.215c0 .393.21.517.61.607l3.32.708c1.39.304 2.56 1.136 2.56 2.564v2.316c0 1.496-1.04 2.53-2.53 2.53h-3.99c-1.5 0-2.53-1.034-2.53-2.53v-1.641h2.49v1.135c0 .394.22.607.61.607h2.78c.39 0 .61-.213.61-.607v-1.35c0-.393-.22-.516-.61-.606l-3.32-.709c-1.39-.303-2.56-1.135-2.56-2.564v-2.17c0-1.495 1.03-2.53 2.53-2.53h3.78c1.49 0 2.53 1.035 2.53 2.53v1.496h-2.5v-1Z" fill="#fff"/><path d="M1010.54 115.001h-4.27v-4.306c0-1.428 1.22-2.103 2.57-2.564l3.06-1.068c.46-.158.71-.248.71-.709v-1.102c0-.461-.25-.708-.71-.708h-.85v-2.44h1.56a2.55 2.55 0 0 1 2.56 2.564v2.248c0 1.429-1.21 2.103-2.56 2.564l-3.06 1.068c-.46.158-.71.248-.71.709v1.315h1.68v2.429h.02Zm-4.12-10.333a2.55 2.55 0 0 1 2.56-2.564h1.56v2.417h-.91c-.47 0-.71.248-.71.709v.821h-2.5v-1.383Zm4.66 10.333v-2.417h4.15v2.417h-4.15Z" fill="url(#p)"/><path d="M1019.88 104.533c-.39 0-.61.213-.61.607v6.915c0 .394.22.607.61.607h1.09v2.418h-1.73c-1.5 0-2.53-1.035-2.53-2.53v-7.905c0-1.495 1.03-2.53 2.53-2.53h1.73v2.418h-1.09Zm3.38-2.429c1.49 0 2.53 1.034 2.53 2.53v7.905c0 1.495-1.04 2.53-2.53 2.53h-1.75v-2.418h1.1c.4 0 .61-.214.61-.607v-6.904c0-.394-.21-.607-.61-.607h-1.1v-2.429h1.75Z" fill="url(#q)"/><path d="m1029.58 104.847-2.34.821v-2.136l2.87-1.349h2.03v12.818h-2.56v-10.154Z" fill="url(#r)"/><path d="M1039.79 112.651c.46 0 .71-.247.71-.708v-3.104l-.36.338c-.4.371-1.07.978-2.04.978h-1.52a2.55 2.55 0 0 1-2.56-2.564v-2.923a2.55 2.55 0 0 1 2.56-2.564h1.68v2.417h-.95c-.46 0-.7.248-.7.709v1.923c0 .461.24.708.7.708h1.05a3.5 3.5 0 0 0 1.78-.484l.36-.213v-1.945c0-.461-.25-.709-.71-.709h-.98v-2.406h1.69c1.43 0 2.56 1.136 2.56 2.564v7.837a2.544 2.544 0 0 1-2.56 2.564h-1.61v-2.418h.9Zm-3.04 2.418a2.544 2.544 0 0 1-2.56-2.564v-1.169h2.56v.607c0 .461.25.708.71.708h.89v2.418h-1.6Z" fill="url(#s)"/></g></g><defs><linearGradient id="e" x1="1033.08" y1="2.392" x2="962.803" y2="73.513" gradientUnits="userSpaceOnUse"><stop offset=".001" stop-color="#92CAA7"/><stop offset=".114" stop-color="#95C6A8"/><stop offset=".232" stop-color="#9EB9AA"/><stop offset=".352" stop-color="#AEA5AF"/><stop offset=".472" stop-color="#C388B4"/><stop offset=".5" stop-color="#C980B6"/><stop offset=".549" stop-color="#BA7AB3"/><stop offset=".664" stop-color="#9D6EAE"/><stop offset=".779" stop-color="#8966AA"/><stop offset=".891" stop-color="#7C61A8"/><stop offset="1" stop-color="#785FA7"/></linearGradient><linearGradient id="f" x1="1037.23" y1="6.477" x2="966.954" y2="77.616" gradientUnits="userSpaceOnUse"><stop offset=".001" stop-color="#92CAA7"/><stop offset=".114" stop-color="#95C6A8"/><stop offset=".232" stop-color="#9EB9AA"/><stop offset=".352" stop-color="#AEA5AF"/><stop offset=".472" stop-color="#C388B4"/><stop offset=".5" stop-color="#C980B6"/><stop offset=".549" stop-color="#BA7AB3"/><stop offset=".664" stop-color="#9D6EAE"/><stop offset=".779" stop-color="#8966AA"/><stop offset=".891" stop-color="#7C61A8"/><stop offset="1" stop-color="#785FA7"/></linearGradient><linearGradient id="g" x1="1041.97" y1="11.158" x2="971.692" y2="82.297" gradientUnits="userSpaceOnUse"><stop offset=".001" stop-color="#92CAA7"/><stop offset=".114" stop-color="#95C6A8"/><stop offset=".232" stop-color="#9EB9AA"/><stop offset=".352" stop-color="#AEA5AF"/><stop offset=".472" stop-color="#C388B4"/><stop offset=".5" stop-color="#C980B6"/><stop offset=".549" stop-color="#BA7AB3"/><stop offset=".664" stop-color="#9D6EAE"/><stop offset=".779" stop-color="#8966AA"/><stop offset=".891" stop-color="#7C61A8"/><stop offset="1" stop-color="#785FA7"/></linearGradient><linearGradient id="h" x1="1048.02" y1="17.135" x2="977.742" y2="88.274" gradientUnits="userSpaceOnUse"><stop offset=".001" stop-color="#92CAA7"/><stop offset=".114" stop-color="#95C6A8"/><stop offset=".232" stop-color="#9EB9AA"/><stop offset=".352" stop-color="#AEA5AF"/><stop offset=".472" stop-color="#C388B4"/><stop offset=".5" stop-color="#C980B6"/><stop offset=".549" stop-color="#BA7AB3"/><stop offset=".664" stop-color="#9D6EAE"/><stop offset=".779" stop-color="#8966AA"/><stop offset=".891" stop-color="#7C61A8"/><stop offset="1" stop-color="#785FA7"/></linearGradient><linearGradient id="i" x1="1053.38" y1="22.426" x2="983.098" y2="93.565" gradientUnits="userSpaceOnUse"><stop offset=".001" stop-color="#92CAA7"/><stop offset=".114" stop-color="#95C6A8"/><stop offset=".232" stop-color="#9EB9AA"/><stop offset=".352" stop-color="#AEA5AF"/><stop offset=".472" stop-color="#C388B4"/><stop offset=".5" stop-color="#C980B6"/><stop offset=".549" stop-color="#BA7AB3"/><stop offset=".664" stop-color="#9D6EAE"/><stop offset=".779" stop-color="#8966AA"/><stop offset=".891" stop-color="#7C61A8"/><stop offset="1" stop-color="#785FA7"/></linearGradient><linearGradient id="j" x1="1060.19" y1="29.158" x2="989.912" y2="100.296" gradientUnits="userSpaceOnUse"><stop offset=".001" stop-color="#92CAA7"/><stop offset=".114" stop-color="#95C6A8"/><stop offset=".232" stop-color="#9EB9AA"/><stop offset=".352" stop-color="#AEA5AF"/><stop offset=".472" stop-color="#C388B4"/><stop offset=".5" stop-color="#C980B6"/><stop offset=".549" stop-color="#BA7AB3"/><stop offset=".664" stop-color="#9D6EAE"/><stop offset=".779" stop-color="#8966AA"/><stop offset=".891" stop-color="#7C61A8"/><stop offset="1" stop-color="#785FA7"/></linearGradient><linearGradient id="k" x1="1064.79" y1="33.706" x2="994.516" y2="104.844" gradientUnits="userSpaceOnUse"><stop offset=".001" stop-color="#92CAA7"/><stop offset=".114" stop-color="#95C6A8"/><stop offset=".232" stop-color="#9EB9AA"/><stop offset=".352" stop-color="#AEA5AF"/><stop offset=".472" stop-color="#C388B4"/><stop offset=".5" stop-color="#C980B6"/><stop offset=".549" stop-color="#BA7AB3"/><stop offset=".664" stop-color="#9D6EAE"/><stop offset=".779" stop-color="#8966AA"/><stop offset=".891" stop-color="#7C61A8"/><stop offset="1" stop-color="#785FA7"/></linearGradient><linearGradient id="l" x1="1069.2" y1="38.062" x2="998.926" y2="109.201" gradientUnits="userSpaceOnUse"><stop offset=".001" stop-color="#92CAA7"/><stop offset=".114" stop-color="#95C6A8"/><stop offset=".232" stop-color="#9EB9AA"/><stop offset=".352" stop-color="#AEA5AF"/><stop offset=".472" stop-color="#C388B4"/><stop offset=".5" stop-color="#C980B6"/><stop offset=".549" stop-color="#BA7AB3"/><stop offset=".664" stop-color="#9D6EAE"/><stop offset=".779" stop-color="#8966AA"/><stop offset=".891" stop-color="#7C61A8"/><stop offset="1" stop-color="#785FA7"/></linearGradient><linearGradient id="m" x1="1073.77" y1="42.584" x2="1003.5" y2="113.705" gradientUnits="userSpaceOnUse"><stop offset=".001" stop-color="#92CAA7"/><stop offset=".114" stop-color="#95C6A8"/><stop offset=".232" stop-color="#9EB9AA"/><stop offset=".352" stop-color="#AEA5AF"/><stop offset=".472" stop-color="#C388B4"/><stop offset=".5" stop-color="#C980B6"/><stop offset=".549" stop-color="#BA7AB3"/><stop offset=".664" stop-color="#9D6EAE"/><stop offset=".779" stop-color="#8966AA"/><stop offset=".891" stop-color="#7C61A8"/><stop offset="1" stop-color="#785FA7"/></linearGradient><linearGradient id="n" x1="1076.87" y1="45.637" x2="1006.59" y2="116.776" gradientUnits="userSpaceOnUse"><stop offset=".001" stop-color="#92CAA7"/><stop offset=".114" stop-color="#95C6A8"/><stop offset=".232" stop-color="#9EB9AA"/><stop offset=".352" stop-color="#AEA5AF"/><stop offset=".472" stop-color="#C388B4"/><stop offset=".5" stop-color="#C980B6"/><stop offset=".549" stop-color="#BA7AB3"/><stop offset=".664" stop-color="#9D6EAE"/><stop offset=".779" stop-color="#8966AA"/><stop offset=".891" stop-color="#7C61A8"/><stop offset="1" stop-color="#785FA7"/></linearGradient><linearGradient id="o" x1="1083.42" y1="52.109" x2="1013.14" y2="123.247" gradientUnits="userSpaceOnUse"><stop offset=".001" stop-color="#92CAA7"/><stop offset=".114" stop-color="#95C6A8"/><stop offset=".232" stop-color="#9EB9AA"/><stop offset=".352" stop-color="#AEA5AF"/><stop offset=".472" stop-color="#C388B4"/><stop offset=".5" stop-color="#C980B6"/><stop offset=".549" stop-color="#BA7AB3"/><stop offset=".664" stop-color="#9D6EAE"/><stop offset=".779" stop-color="#8966AA"/><stop offset=".891" stop-color="#7C61A8"/><stop offset="1" stop-color="#785FA7"/></linearGradient><linearGradient id="p" x1="1075.29" y1="44.079" x2="1005.02" y2="115.218" gradientUnits="userSpaceOnUse"><stop offset=".001" stop-color="#92CAA7"/><stop offset=".114" stop-color="#95C6A8"/><stop offset=".232" stop-color="#9EB9AA"/><stop offset=".352" stop-color="#AEA5AF"/><stop offset=".472" stop-color="#C388B4"/><stop offset=".5" stop-color="#C980B6"/><stop offset=".549" stop-color="#BA7AB3"/><stop offset=".664" stop-color="#9D6EAE"/><stop offset=".779" stop-color="#8966AA"/><stop offset=".891" stop-color="#7C61A8"/><stop offset="1" stop-color="#785FA7"/></linearGradient><linearGradient id="q" x1="1080.21" y1="48.937" x2="1009.93" y2="120.075" gradientUnits="userSpaceOnUse"><stop offset=".001" stop-color="#92CAA7"/><stop offset=".114" stop-color="#95C6A8"/><stop offset=".232" stop-color="#9EB9AA"/><stop offset=".352" stop-color="#AEA5AF"/><stop offset=".472" stop-color="#C388B4"/><stop offset=".5" stop-color="#C980B6"/><stop offset=".549" stop-color="#BA7AB3"/><stop offset=".664" stop-color="#9D6EAE"/><stop offset=".779" stop-color="#8966AA"/><stop offset=".891" stop-color="#7C61A8"/><stop offset="1" stop-color="#785FA7"/></linearGradient><linearGradient id="r" x1="1084.82" y1="53.489" x2="1014.54" y2="124.628" gradientUnits="userSpaceOnUse"><stop offset=".001" stop-color="#92CAA7"/><stop offset=".114" stop-color="#95C6A8"/><stop offset=".232" stop-color="#9EB9AA"/><stop offset=".352" stop-color="#AEA5AF"/><stop offset=".472" stop-color="#C388B4"/><stop offset=".5" stop-color="#C980B6"/><stop offset=".549" stop-color="#BA7AB3"/><stop offset=".664" stop-color="#9D6EAE"/><stop offset=".779" stop-color="#8966AA"/><stop offset=".891" stop-color="#7C61A8"/><stop offset="1" stop-color="#785FA7"/></linearGradient><linearGradient id="s" x1="1088.97" y1="57.587" x2="1018.69" y2="128.726" gradientUnits="userSpaceOnUse"><stop offset=".001" stop-color="#92CAA7"/><stop offset=".114" stop-color="#95C6A8"/><stop offset=".232" stop-color="#9EB9AA"/><stop offset=".352" stop-color="#AEA5AF"/><stop offset=".472" stop-color="#C388B4"/><stop offset=".5" stop-color="#C980B6"/><stop offset=".549" stop-color="#BA7AB3"/><stop offset=".664" stop-color="#9D6EAE"/><stop offset=".779" stop-color="#8966AA"/><stop offset=".891" stop-color="#7C61A8"/><stop offset="1" stop-color="#785FA7"/></linearGradient><clipPath id="a"><path fill="#fff" transform="translate(0 .004)" d="M0 0h1110v164.925H0z"/></clipPath><clipPath id="b"><path fill="#fff" transform="translate(470 .004)" d="M0 0h170v164.925H0z"/></clipPath><clipPath id="c"><path fill="#fff" transform="translate(705 .004)" d="M0 0h170v164.925H0z"/></clipPath><clipPath id="d"><path fill="#fff" transform="translate(940 .004)" d="M0 0h170v164.925H0z"/></clipPath></defs></svg>