<svg width="148" height="148" viewBox="0 0 148 148" fill="none" xmlns="http://www.w3.org/2000/svg">
<path d="M53.3946 2.61299L3.54787 52.4597C3.03767 52.9699 2.75195 53.6638 2.75195 54.3832V135.709C2.75195 136.561 3.44073 137.25 4.29276 137.25H85.6189C86.3383 137.25 87.0322 136.964 87.5424 136.454L137.389 86.6075C137.741 86.2554 137.904 85.7554 137.828 85.2657C134.598 65.128 125.226 45.8016 109.711 30.2914C94.1954 14.7813 74.8741 5.4038 54.7364 2.17422C54.2466 2.09259 53.7466 2.26095 53.3946 2.61299Z" fill="#FFFF00"/>
<path d="M25.2057 27.4648C21.4812 27.7505 10.869 28.2607 10.869 28.2607C6.76697 28.6638 3.60372 32.0515 3.44046 36.1688C3.18536 42.5719 2.95066 48.9494 2.75168 55.3269C2.08332 76.5564 1.83332 97.6787 2.75679 119.087C2.94046 123.424 5.35881 127.393 14.7465 126.225" fill="#FFFF00"/>
<path d="M25.2057 27.4648C21.4812 27.7505 10.869 28.2607 10.869 28.2607C6.76697 28.6638 3.60372 32.0515 3.44046 36.1688C3.18536 42.5719 2.95066 48.9494 2.75168 55.3269C2.08332 76.5564 1.83332 97.6787 2.75679 119.087C2.94046 123.424 5.35881 127.393 14.7465 126.225" stroke="black" stroke-width="1.07692" stroke-miterlimit="10" stroke-linecap="round" stroke-linejoin="round"/>
<path d="M117.165 101.827L111.185 100.159C111.185 100.159 102.287 107.495 99.2311 110.556C98.3127 109.261 97.5066 107.659 96.8026 105.873C96.7974 105.863 96.7923 105.852 96.7923 105.842C95.5985 102.286 94.6138 98.6586 93.8485 94.9902C93.8485 94.9596 93.8434 94.929 93.8332 94.8984C92.6954 89.4035 92.0475 83.8117 91.9046 78.2046C91.8995 78.0311 91.8944 77.9393 91.8944 77.9393C91.8689 76.776 91.8638 75.6077 91.8791 74.4444C85.5526 68.6689 81.6496 59.7353 81.9812 49.8374C82.0424 48.0057 82.2465 46.22 82.5781 44.4905C58.2772 43.8323 34.1957 45.1537 10.0836 48.47C9.53765 48.5415 8.21623 48.7302 7.01215 48.9037C6.98154 49.7353 6.96113 50.5772 6.93052 51.4139C6.25195 74.0362 6.1244 96.5259 6.77746 119.225C6.89991 123.459 10.5989 126.648 14.7417 126.225C14.757 126.22 14.7723 126.22 14.7876 126.22C14.9509 126.194 15.1193 126.179 15.2825 126.153C46.614 120.648 78.4506 116.766 110.149 114.174C110.374 114.153 110.609 114.133 110.833 114.118C114.221 113.837 116.925 111.118 117.058 107.72L117.241 101.863L117.165 101.827Z" fill="white" stroke="black" stroke-width="1.07692" stroke-miterlimit="10" stroke-linecap="round" stroke-linejoin="round"/>
<path d="M20.2799 64.2813C22.3881 64.085 25.3932 63.8692 28.7287 63.6052L28.6538 56.9289C25.2082 57.209 22.3132 57.4088 20.0949 57.6212C18.2069 57.7853 16.7622 59.4451 16.7969 61.2233C16.9576 63.0946 18.5021 64.4294 20.2799 64.2813Z" stroke="black" stroke-width="1.07692" stroke-miterlimit="10" stroke-linecap="round" stroke-linejoin="round"/>
<path d="M43.5458 74.842C46.9914 74.5618 50.3269 74.2978 53.4421 74.0659C53.5522 74.0498 53.5522 74.0498 53.6624 74.0338C55.4243 73.7765 56.7748 72.2419 56.7401 70.4638C56.6895 68.5764 55.145 67.2416 53.2571 67.4057C50.252 67.6215 46.9165 67.8856 43.4709 68.1657L43.5458 74.842Z" fill="#FFFF00" stroke="black" stroke-width="1.07692" stroke-miterlimit="10" stroke-linecap="round" stroke-linejoin="round"/>
<path d="M19.5052 76.5682C24.6185 76.1561 34.3105 75.5213 43.546 74.8418L43.4711 68.1655C34.2356 68.8451 24.5436 69.4799 19.3202 69.9081C17.4322 70.0722 15.9875 71.732 16.0222 73.5102C16.0728 75.3975 17.6172 76.7324 19.5052 76.5682Z" stroke="black" stroke-width="1.07692" stroke-miterlimit="10" stroke-linecap="round" stroke-linejoin="round"/>
<path d="M28.7287 63.6054C36.5167 63.0256 46.4289 62.3587 54.217 61.779C54.3271 61.7629 54.3271 61.7629 54.4372 61.7469C56.1991 61.4896 57.5496 59.955 57.515 58.1769C57.4644 56.2895 55.9199 54.9547 54.0319 55.1188C46.354 55.6825 36.3317 56.3655 28.6537 56.9291L28.7287 63.6054Z" fill="#FFFF00" stroke="black" stroke-width="1.07692" stroke-miterlimit="10" stroke-linecap="round" stroke-linejoin="round"/>
<path d="M20.3252 87.1482L20.2388 114.702" stroke="black" stroke-width="1.07692" stroke-miterlimit="10" stroke-linecap="round" stroke-linejoin="round"/>
<path d="M23.7685 111.202C24.2919 112.603 24.051 114.266 22.9747 115.362C22.2783 116.07 21.4507 116.397 20.5564 116.405C19.9809 116.346 19.1488 116.162 18.3755 115.402L18.3111 115.339C17.02 113.817 16.9985 111.39 18.3914 109.972C19.0246 109.328 19.9155 108.936 20.7465 108.993C21.3219 109.052 22.154 109.236 22.9273 109.996L22.9918 110.059C23.314 110.376 23.5729 110.757 23.7685 111.202Z" fill="#FFFF00"/>
<path d="M18.374 115.275C17.0829 113.753 17.0615 111.326 18.4544 109.908C19.0876 109.264 19.9785 108.872 20.8094 108.929C21.3849 108.988 22.217 109.172 22.9903 109.932L23.0548 109.995C23.377 110.312 23.5726 110.757 23.7681 111.203C24.2916 112.603 24.0507 114.267 22.9744 115.362C22.2779 116.071 21.4503 116.398 20.556 116.406C19.9806 116.347 19.1485 116.162 18.3752 115.403C18.4385 115.338 18.374 115.275 18.374 115.275Z" stroke="black" stroke-width="1.07692" stroke-miterlimit="10" stroke-linecap="round" stroke-linejoin="round"/>
<path d="M40.7192 84.6553L40.6328 112.209" stroke="black" stroke-width="1.07692" stroke-miterlimit="10" stroke-linecap="round" stroke-linejoin="round"/>
<path d="M44.1625 96.5941C44.6859 97.9949 44.4451 99.658 43.3688 100.754C42.6723 101.462 41.8447 101.789 40.9504 101.797C40.3749 101.738 39.5428 101.554 38.7695 100.794L38.7051 100.731C37.414 99.209 37.3926 96.7817 38.7855 95.3639C39.4186 94.7195 40.3095 94.3283 41.1405 94.3849C41.716 94.4437 42.5481 94.628 43.3214 95.3878L43.3858 95.4511C43.708 95.7676 43.9669 96.1487 44.1625 96.5941Z" fill="#FFFF00"/>
<path d="M38.7681 100.667C37.477 99.1449 37.4556 96.7175 38.8485 95.2998C39.4816 94.6554 40.3725 94.2642 41.2035 94.3207C41.779 94.3795 42.6111 94.5638 43.3844 95.3236L43.4488 95.3869C43.771 95.7035 43.9666 96.1489 44.1622 96.5944C44.6856 97.9952 44.4448 99.6583 43.3684 100.754C42.672 101.463 41.8444 101.789 40.9501 101.797C40.3746 101.738 39.5425 101.554 38.7692 100.794C38.8325 100.73 38.7681 100.667 38.7681 100.667Z" stroke="black" stroke-width="1.07692" stroke-miterlimit="10" stroke-linecap="round" stroke-linejoin="round"/>
<path d="M61.2114 81.4962L61.125 109.05" stroke="black" stroke-width="1.07692" stroke-miterlimit="10" stroke-linecap="round" stroke-linejoin="round"/>
<path d="M64.6547 88.7931C65.1781 90.1939 64.9373 91.857 63.8609 92.9525C63.1645 93.6613 62.3369 93.9881 61.4426 93.996C60.8671 93.9372 60.035 93.7529 59.2617 92.9931L59.1973 92.9298C57.9062 91.408 57.8848 88.9806 59.2777 87.5629C59.9108 86.9185 60.8017 86.5273 61.6327 86.5839C62.2082 86.6427 63.0403 86.827 63.8136 87.5867L63.878 87.6501C64.2002 87.9666 64.4591 88.3476 64.6547 88.7931Z" fill="#FFFF00"/>
<path d="M59.2603 92.8659C57.9692 91.3441 57.9477 88.9168 59.3407 87.4991C59.9738 86.8546 60.8647 86.4635 61.6957 86.52C62.2711 86.5788 63.1032 86.7631 63.8766 87.5229L63.941 87.5862C64.2632 87.9028 64.4588 88.3482 64.6544 88.7937C65.1778 90.1945 64.937 91.8576 63.8606 92.9531C63.1642 93.6619 62.3366 93.9887 61.4423 93.9966C60.8668 93.9378 60.0347 93.7535 59.2614 92.9937C59.3247 92.9292 59.2603 92.8659 59.2603 92.8659Z" stroke="black" stroke-width="1.07692" stroke-miterlimit="10" stroke-linecap="round" stroke-linejoin="round"/>
<path d="M81.4897 78.4784L81.4033 106.032" stroke="black" stroke-width="1.07692" stroke-miterlimit="10" stroke-linecap="round" stroke-linejoin="round"/>
<path d="M84.933 91.4269C85.4564 92.8277 85.2156 94.4908 84.1393 95.5863C83.4428 96.2951 82.6152 96.6219 81.7209 96.6298C81.1454 96.571 80.3133 96.3866 79.54 95.6269L79.4756 95.5636C78.1845 94.0418 78.1631 91.6144 79.556 90.1967C80.1891 89.5523 81.08 89.1611 81.911 89.2177C82.4865 89.2765 83.3186 89.4608 84.0919 90.2205L84.1563 90.2838C84.4785 90.6004 84.7374 90.9814 84.933 91.4269Z" fill="#FFFF00"/>
<path d="M79.5386 95.4994C78.2475 93.9776 78.2261 91.5502 79.619 90.1325C80.2521 89.4881 81.143 89.0969 81.974 89.1534C82.5495 89.2122 83.3816 89.3966 84.1549 90.1563L84.2193 90.2196C84.5415 90.5362 84.7371 90.9817 84.9327 91.4271C85.4561 92.8279 85.2153 94.491 84.1389 95.5865C83.4425 96.2954 82.6149 96.6221 81.7206 96.63C81.1451 96.5712 80.313 96.3869 79.5397 95.6271C79.603 95.5627 79.5386 95.4994 79.5386 95.4994Z" stroke="black" stroke-width="1.07692" stroke-miterlimit="10" stroke-linecap="round" stroke-linejoin="round"/>
<path d="M120.491 55.1791L120.124 55.7863L119.348 64.0923L109.629 61.9036L100.501 64.8168L99.4553 54.4546L94.9961 46.9087L103.17 43.0669C104.613 40.97 105.95 39.1843 107.343 37.4547C112.491 42.9649 116.868 48.9189 120.491 55.1791Z" fill="#FFFF00"/>
<path d="M23.2468 36.6332C23.2519 36.4496 23.2723 36.271 23.3132 36.0975L25.6295 33.9343C25.7162 33.9292 25.808 33.9241 25.8999 33.9292C27.3182 33.9751 28.4152 35.2659 28.3642 36.8067C28.3131 38.3475 27.1295 39.5516 25.7111 39.5057C24.2927 39.4547 23.1958 38.1741 23.2468 36.6332Z" fill="#FFFF00"/>
<path d="M32.675 36.1179C32.7261 34.5771 33.9148 33.3679 35.3281 33.4138C36.7413 33.4597 37.8434 34.7505 37.7924 36.2913C37.7413 37.8322 36.5526 39.0362 35.1393 38.9903C33.7312 38.9393 32.624 37.6587 32.675 36.1179Z" fill="#FFFF00"/>
<path d="M117.277 99.4698C117.241 105.169 117.266 101.863 117.057 107.699C117.057 107.704 117.057 107.71 117.057 107.715" stroke="black" stroke-width="1.07692" stroke-miterlimit="10" stroke-linecap="round" stroke-linejoin="round"/>
<path d="M15.282 126.148C15.1187 126.179 14.9555 126.199 14.7871 126.219" stroke="black" stroke-width="1.07692" stroke-miterlimit="10" stroke-linecap="round" stroke-linejoin="round"/>
<path d="M33.1698 26.8833C33.1698 26.8833 33.1698 26.8833 33.1647 26.8884C27.0677 27.2863 20.9759 27.7863 14.8943 28.3935C10.7923 28.8016 7.62396 32.1894 7.4607 36.3067C7.29233 40.5107 7.14437 44.7097 7.01172 48.8985C8.21579 48.7301 9.53722 48.5413 10.0831 48.4648C34.1953 45.1485 58.2768 43.8271 82.5777 44.4852C84.0114 37.0312 87.8634 30.6026 93.1236 26.2506C73.1492 25.3629 53.1288 25.572 33.1698 26.8833Z" fill="#FFFF00" stroke="black" stroke-width="1.07692" stroke-miterlimit="10" stroke-linecap="round" stroke-linejoin="round"/>
<path d="M122.368 45.6588C124.027 46.5057 125.338 47.1945 125.338 47.1945L120.491 55.1791L120.124 55.7863L119.348 64.0923L109.629 61.9036L100.501 64.8168L99.4553 54.4546L94.9961 46.9088L103.17 43.0669C104.613 40.97 105.95 39.1843 107.343 37.4547C108.139 36.4649 108.945 35.4955 109.807 34.4955C109.807 34.4955 113.608 38.8272 116.547 42.7863C117.312 43.1282 118.521 43.72 119.807 44.3679L122.368 45.6588Z" stroke="black" stroke-width="1.07692" stroke-miterlimit="10" stroke-linecap="round" stroke-linejoin="round"/>
<path d="M123.2 77.1228L122.419 77.0769C122.695 76.9035 122.965 76.7198 123.236 76.531C123.22 76.73 123.21 76.9239 123.2 77.1228Z" fill="#FFFF00" stroke="black" stroke-width="1.07692" stroke-miterlimit="10" stroke-linecap="round" stroke-linejoin="round"/>
<path d="M125.144 100.153C125.271 100.715 125.409 101.271 125.547 101.827C124.955 101.704 124.368 101.572 123.776 101.429" stroke="black" stroke-width="1.07692" stroke-miterlimit="10" stroke-linecap="round" stroke-linejoin="round"/>
<path d="M18.9301 37.317C18.879 38.8527 17.6903 40.0619 16.277 40.016C14.8638 39.9701 13.7617 38.6793 13.8127 37.1436C13.8638 35.6028 15.0525 34.3936 16.4658 34.4395C17.8739 34.4905 18.9811 35.7813 18.9301 37.317Z" fill="white" stroke="white" stroke-width="1.07692" stroke-miterlimit="10" stroke-linecap="round" stroke-linejoin="round"/>
<path d="M28.3589 36.8015C28.3079 38.3423 27.1242 39.5463 25.7059 39.5004C24.2926 39.4545 23.1906 38.1688 23.2467 36.628C23.2518 36.4443 23.2722 36.2658 23.313 36.0923C23.5681 34.9137 24.5018 34.0209 25.6293 33.929C25.7161 33.9239 25.8079 33.9188 25.8997 33.9239C27.313 33.9749 28.4099 35.2658 28.3589 36.8015Z" fill="black" stroke="black" stroke-width="1.07692" stroke-miterlimit="10" stroke-linecap="round" stroke-linejoin="round"/>
<path d="M37.7976 36.2913C37.7466 37.8322 36.5578 39.0362 35.1445 38.9903C33.7313 38.9444 32.6241 37.6587 32.6803 36.1179C32.7313 34.5771 33.9201 33.3679 35.3333 33.4138C36.7415 33.4597 37.8486 34.7505 37.7976 36.2913Z" fill="black" stroke="black" stroke-width="1.07692" stroke-miterlimit="10" stroke-linecap="round" stroke-linejoin="round"/>
<path d="M131.715 33.929L128.292 29.1842C123.624 23.9138 117.216 20.5669 110.057 20.322C104.154 20.123 98.6289 22.0669 94.0626 25.526C93.7463 25.7556 93.4299 26.0005 93.1289 26.2556C87.8636 30.6076 84.0167 37.0362 82.5779 44.4902C82.2463 46.2198 82.0422 48.0055 81.981 49.8371C81.6494 59.735 85.5524 68.6687 91.8789 74.4442C92.4044 74.9238 92.9503 75.3829 93.5065 75.8166C93.532 75.837 93.5575 75.8574 93.583 75.8778C97.6901 79.0564 102.634 80.9849 108.006 81.1686C113.241 81.3421 118.185 79.837 122.42 77.0768C122.695 76.9033 122.966 76.7197 123.236 76.5309V76.5258C125.052 75.2503 126.726 73.7401 128.231 72.036C132.853 66.7656 135.818 59.6126 136.083 51.6535C136.302 45.1127 134.67 38.9953 131.715 33.929ZM130.338 51.4596C130.159 56.7912 128.445 61.6534 125.7 65.5462C121.624 71.3217 115.256 74.9442 108.226 74.7044C96.4605 74.3115 87.282 63.2605 87.7259 50.031C88.0269 41.128 92.6034 33.5107 99.1493 29.5923C102.333 27.6893 105.986 26.6587 109.838 26.7913C121.608 27.1842 130.782 38.23 130.338 51.4596Z" fill="#FFFF00" stroke="black" stroke-width="1.07692" stroke-miterlimit="10" stroke-linecap="round" stroke-linejoin="round"/>
<path d="M109.838 26.7861C105.986 26.6585 102.333 27.6892 99.1493 29.5871C92.5983 33.5055 88.0269 41.1279 87.7259 50.0258C87.282 63.2604 96.4606 74.3063 108.226 74.7042C115.256 74.9389 121.624 71.3216 125.7 65.5461C128.445 61.6533 130.154 56.786 130.333 51.4594C130.782 38.2248 121.608 27.1841 109.838 26.7861Z" fill="white" stroke="black" stroke-width="1.07692" stroke-miterlimit="10" stroke-linecap="round" stroke-linejoin="round"/>
<path d="M125.144 100.158L125.461 101.769L123.782 101.434C121.414 100.867 119.072 100.158 116.792 99.2909C116.481 99.1736 116.169 99.0562 115.863 98.9287C115.634 98.8368 115.404 98.745 115.175 98.6481C114.777 98.4848 114.379 98.3113 113.991 98.1379C113.807 98.0562 113.618 97.9695 113.435 97.8828C112.282 97.3521 111.149 96.7807 110.047 96.1583C105.72 99.4083 101.129 102.623 96.8022 105.873C96.7971 105.862 96.792 105.852 96.792 105.842C95.5981 102.286 94.6134 98.6583 93.8481 94.9899C93.8481 94.9593 93.843 94.9287 93.8328 94.8981C92.6951 89.4032 92.0471 83.8114 91.9042 78.2043C91.8991 78.0308 91.894 77.939 91.894 77.939C91.8685 76.7757 91.8634 75.6074 91.8787 74.4441C92.4042 74.9237 92.9502 75.3829 93.5063 75.8165C93.5318 75.8369 93.5573 75.8573 93.5828 75.8778C96.0318 77.9033 105.583 85.6175 123.042 82.0155C123.052 88.1124 123.787 94.2909 125.144 100.158Z" fill="#FFFF00" stroke="black" stroke-width="1.07692" stroke-miterlimit="10" stroke-linecap="round" stroke-linejoin="round"/>
<path d="M124.287 46.8321C124.654 47.026 124.787 47.4903 124.572 47.8525L120.231 55.1841L119.955 55.6484C119.899 55.7402 119.868 55.8474 119.858 55.9545L119.19 63.2606C119.149 63.7045 118.731 64.0055 118.297 63.9086L109.838 61.9596C109.71 61.929 109.573 61.9341 109.445 61.9749L101.603 64.5463C101.159 64.6943 100.69 64.3882 100.649 63.9239L99.7409 54.628C99.7307 54.526 99.7001 54.4239 99.6491 54.3321L95.7818 47.6076C95.5675 47.2403 95.7154 46.7658 96.0981 46.5821L103.185 43.1638C103.302 43.1076 103.399 43.0209 103.471 42.9138C104.838 40.8883 106.108 39.1485 107.435 37.4648C108.037 36.6995 108.644 35.9444 109.282 35.174C109.573 34.822 110.108 34.8169 110.404 35.1689C111.527 36.5107 114.134 39.6587 116.297 42.6383C116.368 42.7403 116.46 42.8168 116.572 42.8678C117.322 43.2148 118.419 43.7709 119.583 44.3678L122.072 45.6638C122.965 46.128 123.761 46.5515 124.287 46.8321Z" fill="#FFFF00"/>
<path d="M117.317 99.4901L117.241 101.862L117.164 101.827L111.185 100.158C111.185 100.158 102.287 107.495 99.2308 110.556C98.3124 109.26 97.5063 107.658 96.8022 105.873C101.129 102.623 105.721 99.4084 110.047 96.1584C111.149 96.7809 112.282 97.3523 113.435 97.8829C113.618 97.9697 113.802 98.0564 113.991 98.138C114.379 98.3115 114.777 98.485 115.175 98.6482C115.404 98.7452 115.634 98.837 115.863 98.9288C116.17 99.0564 116.481 99.1737 116.792 99.2911C116.965 99.3574 117.144 99.4237 117.317 99.4901Z" fill="black" stroke="black" stroke-width="1.07692" stroke-miterlimit="10" stroke-linecap="round" stroke-linejoin="round"/>
<path d="M123.2 77.1227C123.093 78.74 123.042 80.3778 123.042 82.0155C105.583 85.6176 96.032 77.9033 93.583 75.8778C97.6901 79.0564 102.634 80.9849 108.006 81.1686C113.241 81.3421 118.185 79.837 122.42 77.0768L123.2 77.1227Z" fill="black" stroke="black" stroke-width="1.07692" stroke-miterlimit="10" stroke-linecap="round" stroke-linejoin="round"/>
</svg>
