<svg width="148" height="148" viewBox="0 0 148 148" fill="none" xmlns="http://www.w3.org/2000/svg">
<path d="M83.9203 138.534L126.953 95.4675C127.409 95.0103 127.683 94.4617 127.683 93.8217V23.5994C127.683 22.8679 127.044 22.2279 126.313 22.2279H56.0543C55.4148 22.2279 54.8666 22.5022 54.4098 22.9594L11.3775 65.9339C11.1034 66.2082 10.9207 66.6654 11.012 67.1226C13.8443 84.4953 21.8843 101.228 35.3148 114.577C48.7452 128.018 65.3734 136.065 82.7325 138.899C83.1893 138.991 83.6462 138.808 83.9203 138.534Z" fill="#FFFF00"/>
<path d="M73.4043 36.1242L62.5029 20.9438L59.9559 12.8952L62.8086 9.22746L65.5594 5.86537L57.8164 1.2807C57.7145 1.17882 57.6126 1.07693 57.5107 1.07693C57.4089 1.07693 57.307 1.07693 57.307 1.07693L39.3758 4.94844L20.7315 2.09575C20.324 1.99387 20.0183 2.4014 20.0183 2.9108L18.7957 25.8342L10.849 47.5349C10.6452 47.9425 10.849 48.4519 11.2565 48.5538L18.3882 52.8328L29.5952 52.9347L46.9151 59.7607C47.2207 59.9645 47.7301 59.8626 47.9339 59.4551L57.2051 46.8218L73.2005 37.0411C73.608 36.8374 73.608 36.4298 73.4043 36.1242Z" fill="#FFFF00" stroke="black" stroke-width="1.07692" stroke-miterlimit="10" stroke-linecap="round" stroke-linejoin="round"/>
<path d="M80.8408 40.3063L69.9395 25.1259L65.5586 5.87029C65.4567 5.46277 65.0492 5.15712 64.7435 5.259L46.8124 9.13051L28.168 6.27782C27.7605 6.17594 27.4548 6.58346 27.4548 7.09287L26.2323 30.1181L18.2855 51.8189C18.0817 52.2264 18.2855 52.7358 18.693 52.8377L37.0317 57.2186L51.9064 67.6105C52.2121 67.8143 52.7215 67.7124 52.9253 67.3049L64.6416 51.2076L80.7389 41.3251C81.0446 41.0194 81.0446 40.6119 80.8408 40.3063Z" fill="white" stroke="black" stroke-width="1.07692" stroke-miterlimit="10" stroke-linecap="round" stroke-linejoin="round"/>
<path d="M100.809 64.7516L109.571 66.2798L117.416 71.3739C117.62 71.4758 117.823 71.4758 117.925 71.272L122.612 64.0384L129.845 58.8424C129.947 58.7406 129.947 58.5368 129.845 58.333L122.612 50.1825L118.129 40.1981C118.027 39.9943 117.823 39.8925 117.62 39.9943L113.748 40.9113L109.978 44.579L101.828 48.043C101.624 48.043 101.522 48.2468 101.624 48.4505L102.643 55.786L100.503 64.4459C100.503 64.5478 100.605 64.7516 100.809 64.7516Z" fill="black" stroke="black" stroke-width="1.07692" stroke-miterlimit="10" stroke-linecap="round" stroke-linejoin="round"/>
<path d="M114.057 72.3947L117.823 71.3759L117.313 69.0326L114.766 71.9872L114.057 72.3947Z" fill="black" stroke="black" stroke-width="1.07692" stroke-miterlimit="10" stroke-linecap="round" stroke-linejoin="round"/>
<path d="M96.9386 65.7686L105.7 67.2968L113.545 72.3909C113.749 72.4928 113.953 72.4928 114.055 72.289L118.741 65.0554L125.975 59.8594C126.077 59.7576 126.077 59.5538 125.975 59.35L118.741 51.1995L114.258 41.2151C114.157 41.0113 113.953 40.9095 113.749 41.0113L106.108 45.596L97.6517 47.0224C97.448 47.0224 97.3461 47.2261 97.448 47.4299L98.8743 56.7011L96.7348 65.361C96.6329 65.6667 96.7348 65.7686 96.9386 65.7686Z" fill="white" stroke="black" stroke-width="1.07692" stroke-miterlimit="10" stroke-linecap="round" stroke-linejoin="round"/>
<path d="M81.0454 20.0285C80.1284 21.5568 79.0077 23.085 77.7852 24.7151" stroke="black" stroke-width="1.07692" stroke-miterlimit="10" stroke-linecap="round" stroke-linejoin="round"/>
<path d="M72.2826 1.99429C75.7466 3.93004 77.7842 8.00531 77.7842 11.9787C77.7842 15.9521 75.9504 19.8236 73.1996 22.6763C70.4488 25.5289 66.8829 27.4647 63.1133 28.891" stroke="black" stroke-width="1.07692" stroke-miterlimit="10" stroke-linecap="round" stroke-linejoin="round"/>
<path d="M20.1196 2.50436L28.1683 6.27398L45.9975 8.9229L39.3752 4.94952" fill="black"/>
<path d="M20.1196 2.50436L28.1683 6.27398L45.9975 8.9229L39.3752 4.94952" stroke="black" stroke-width="1.07692" stroke-miterlimit="10" stroke-linecap="round" stroke-linejoin="round"/>
<path d="M45.9985 8.92185L65.1536 5.38466L57.6152 1.07697L40.7007 5.05035L45.9985 8.92185Z" fill="black" stroke="black" stroke-width="1.07692" stroke-miterlimit="10" stroke-linecap="round" stroke-linejoin="round"/>
<path d="M11.6618 25.1198C9.72604 29.2969 12.5787 34.391 16.654 36.5305C20.7293 38.67 25.6196 38.3644 30.1024 37.8549" stroke="black" stroke-width="1.07692" stroke-miterlimit="10" stroke-linecap="round" stroke-linejoin="round"/>
<path d="M15.6364 17.2763C14.6176 18.397 13.8025 19.5177 13.395 20.6384" stroke="black" stroke-width="1.07692" stroke-miterlimit="10" stroke-linecap="round" stroke-linejoin="round"/>
<path d="M60.6694 35.3116C65.4579 33.9871 71.5708 30.4213 75.5442 27.3648" stroke="black" stroke-width="1.07692" stroke-miterlimit="10" stroke-linecap="round" stroke-linejoin="round"/>
<mask id="mask0_1354_5512" style="mask-type:alpha" maskUnits="userSpaceOnUse" x="10" y="22" width="118" height="117">
<path d="M83.9203 138.533L126.953 95.4667C127.409 95.0095 127.683 94.4609 127.683 93.8209V23.5986C127.683 22.8671 127.044 22.2271 126.313 22.2271H56.0543C55.4148 22.2271 54.8666 22.5014 54.4098 22.9586L11.3775 65.9331C11.1034 66.2074 10.9207 66.6646 11.012 67.1218C13.8443 84.4945 21.8843 101.227 35.3148 114.577C48.7452 128.018 65.3734 136.064 82.7325 138.898C83.1894 138.99 83.6462 138.807 83.9203 138.533Z" fill="#D880BA"/>
</mask>
<g mask="url(#mask0_1354_5512)">
<path d="M44.779 98.5743C45.3903 99.1856 46.1034 99.4912 46.9185 99.8987C47.0204 99.8987 47.0204 100.001 47.1222 100.001C49.2618 101.121 51.1975 102.344 53.0314 103.872C56.9029 107.03 59.9593 110.902 62.0988 115.283C63.0158 117.117 63.8308 119.154 64.4421 121.192C64.6459 121.294 64.8496 121.396 64.9515 121.6C66.1741 122.415 67.4986 123.128 68.823 123.739C73.3058 125.777 78.1961 126.694 83.0864 126.184C88.6899 125.573 93.9878 122.924 97.8593 118.951C97.7574 124.86 97.1461 130.769 95.9235 136.474C97.1461 130.667 97.8593 124.656 98.063 118.747C98.3687 108.762 97.3499 98.778 94.9047 89.0993L94.5991 89.2012L94.4972 89.3031C94.4972 88.9974 94.4972 88.6918 94.4972 88.3861C94.4972 88.0805 94.4972 87.7748 94.4972 87.4692C94.4972 87.1635 94.3953 86.8579 94.3953 86.5522C94.2934 85.941 94.1915 85.3297 93.9878 84.7184C93.9878 84.6165 93.8859 84.5146 93.8859 84.3109C93.784 83.8014 93.5802 83.292 93.3765 82.8845C93.2746 82.5789 93.1727 82.3751 92.9689 82.0695C92.3577 81.0506 91.6445 80.0318 90.7276 79.3187C89.7087 78.6055 88.4862 78.198 87.2636 78.4017C86.041 78.6055 84.8184 79.4205 84.309 80.5412L84.5128 80.9488C84.4109 80.8469 84.2071 80.745 84.1053 80.5412C84.0034 80.4394 83.7996 80.3375 83.6977 80.1337C82.4751 79.2168 80.845 78.6055 79.3168 78.7074C78.9093 78.7074 78.5018 78.8092 78.1961 78.9111C78.0942 78.9111 77.8905 79.013 77.6867 79.1149C77.5848 79.2168 77.3811 79.2168 77.2792 79.3187C77.1773 79.4205 76.9735 79.4205 76.8717 79.5224C76.7698 79.6243 76.6679 79.7262 76.4641 79.7262C76.3623 79.8281 76.2604 79.9299 76.1585 80.0318C75.8528 80.3375 75.6491 80.6431 75.3434 80.9488C75.1397 80.8469 75.0378 80.8469 74.834 80.745C74.6303 80.6431 74.5284 80.6431 74.3246 80.5412C74.2227 80.5412 74.1209 80.4394 74.019 80.4394C73.9171 80.4394 73.8152 80.4394 73.7133 80.3375H73.6114C73.5096 80.3375 73.3058 80.3375 73.2039 80.2356C71.6757 80.1337 69.9437 80.5412 68.9249 81.6619L69.6381 83.4958C69.6381 83.4958 69.5362 83.4958 69.5362 83.3939C67.4986 78.8093 64.6459 74.5302 61.1819 70.8625C60.265 69.9456 59.348 68.9267 58.2273 68.3154C58.1254 68.2136 58.0236 68.2136 57.8198 68.1117C57.5142 67.9079 57.1066 67.806 56.6991 67.7042C56.5972 67.7042 56.4953 67.6023 56.2916 67.6023C56.0878 67.6023 55.9859 67.5004 55.7822 67.5004C55.6803 67.5004 55.4765 67.5004 55.2728 67.5004C54.9671 67.5004 54.6615 67.5004 54.2539 67.6023C53.7445 67.7042 53.2351 67.9079 52.8276 68.3154C52.7257 68.4173 52.6238 68.5192 52.522 68.6211C52.522 68.723 52.522 68.8249 52.522 68.9267V69.0286C52.522 69.1305 52.522 69.1305 52.522 69.2324C52.522 69.538 52.6238 69.9456 52.8276 70.2512C52.8276 70.2512 52.8276 70.3531 52.9295 70.3531C52.9295 70.455 53.0314 70.455 53.0314 70.5568C57.8198 78.198 60.3668 87.2654 60.4687 96.231C60.4687 96.0272 60.4687 95.8235 60.4687 95.7216C60.4687 95.9254 60.5706 96.1291 60.5706 96.3329C60.5706 96.5366 60.6725 96.7404 60.6725 96.9442C58.1254 95.7216 55.4765 94.9065 52.7257 94.3971C52.2163 94.2953 51.605 94.2953 51.0956 94.1934C50.6881 94.1934 50.1787 94.0915 49.7712 94.0915C49.5674 94.0915 49.3636 94.0915 49.2617 94.0915C48.7523 94.0915 48.2429 94.0915 47.7335 94.0915C46.9185 94.0915 46.1034 94.1934 45.3902 94.499C44.6771 94.8047 44.0658 95.4159 43.862 96.231C43.7601 96.6385 43.862 96.9442 43.9639 97.2498C43.9639 97.3517 43.9639 97.3517 44.0658 97.4536C44.2696 97.963 44.4733 98.2686 44.779 98.5743ZM88.2824 90.4238C88.4862 91.4426 88.7918 92.767 88.4862 93.7858C88.4862 93.8877 88.4862 93.8877 88.3843 93.9896C88.0786 94.9065 87.2636 95.7216 86.2448 95.7216C85.3278 95.7216 84.5128 95.0084 83.9015 94.1934C82.6789 92.6651 81.9657 90.7294 81.6601 88.7936C81.5582 87.9786 81.4563 87.1635 81.4563 86.3485C82.0676 87.5711 82.6789 88.8955 83.3921 90.1181C83.9015 91.1369 84.6147 92.3595 85.7354 92.6651C86.3466 92.8689 87.0598 92.6651 87.5692 92.1557C88.0786 91.6463 88.3843 91.035 88.2824 90.4238Z" fill="#FFFF00"/>
<path d="M81.1474 93.8884C80.9436 94.6016 80.8418 95.3148 80.4342 95.926C80.0267 96.5373 79.2117 96.9449 78.4985 96.7411C77.7853 96.5373 77.3778 95.926 77.0721 95.2129C76.359 93.7865 76.0533 92.1564 75.5439 90.6282C74.9326 89.1 74.0157 87.6736 72.5894 86.9604C73.9138 88.4887 74.2195 90.6282 74.7289 92.6658C75.2383 94.7035 75.6458 96.7411 76.8684 98.3712C77.174 98.6768 77.4797 99.0844 77.8872 99.1863C78.4985 99.39 79.2116 99.0844 79.7211 98.6768C81.0455 97.5561 81.7587 95.6204 81.1474 93.8884Z" fill="white"/>
<path d="M83.9998 95.1112C84.6111 95.8244 85.3243 97.404 86.3431 97.404C87.1582 97.404 87.8713 96.0281 88.2789 95.315C88.3808 95.1112 88.4826 94.9074 88.4826 94.7037C88.4826 94.4999 88.5845 94.2961 88.5845 94.0924C88.5845 93.7867 88.5845 93.4811 88.5845 93.1754C88.2789 94.0924 87.4638 94.9074 86.445 94.9074C85.5281 94.9074 84.713 94.1943 84.1017 93.3792C82.8791 91.851 82.4324 89.6593 82.0501 88.8947C81.6678 87.7479 80.7248 87.1871 80.521 86.9833C80.6229 89.836 82.2679 92.9717 83.9998 95.1112Z" fill="white"/>
<path d="M65.6607 123.329C62.1967 112.326 53.9443 102.545 43.6543 97.3492C50.2766 97.9605 56.3895 102.138 60.5666 107.537C64.7438 112.937 67.3927 119.356 69.736 125.672C68.3096 124.552 66.9852 124.45 65.6607 123.329Z" fill="white"/>
<path d="M53.9453 101.224C52.519 100.307 51.0927 99.3899 49.6663 98.473C48.9531 98.0654 48.24 97.556 47.7306 96.8429C47.2212 96.1297 47.0174 95.2128 47.4249 94.3977C46.4061 94.6015 44.9798 94.6015 44.4704 95.5184C43.9609 96.3335 44.1647 97.4541 44.776 98.1673C45.3873 98.8805 46.2023 99.3899 47.1193 99.7974C49.1569 100.714 51.5002 101.326 53.9453 101.224Z" fill="white"/>
<path d="M60.0585 96.129C60.0585 88.0804 57.919 80.1336 54.0475 73.1038C53.2325 71.6775 52.7692 70 52.8422 68.3256C52.6397 68.2379 53.0588 68.3798 52.8422 68.3256C54.1633 68.8982 55.1882 70.135 55.9833 71.3718C61.1792 78.911 63.5225 88.386 62.2999 97.4535C61.6886 97.046 60.7717 96.6384 60.0585 96.129Z" fill="white"/>
<path d="M59.4458 160.318L95.3081 139.534C95.5119 138.515 95.8175 137.497 96.0213 136.376C97.142 130.67 97.8552 124.761 97.957 118.852C94.0855 122.826 88.6858 125.475 83.1842 126.086C76.6638 126.799 69.9396 124.863 64.438 121.195C65.3549 124.252 65.8643 127.41 65.9662 130.67C66.2719 139.534 65.1512 150.843 59.4458 160.318Z" fill="black" stroke="black" stroke-width="1.07692" stroke-miterlimit="10" stroke-linecap="round" stroke-linejoin="round"/>
<path d="M64.4375 121.195C61.6867 112.23 55.6757 104.385 47.1176 100.004C47.0157 100.004 47.0157 99.9022 46.9138 99.9022C46.2007 99.4947 45.3856 99.189 44.7743 98.5778C44.163 97.9665 43.7555 97.1514 43.8574 96.3364C43.9593 95.6232 44.6725 94.91 45.3856 94.6044C46.0988 94.2987 46.9138 94.1968 47.7289 94.1968C48.2383 94.1968 49.2571 94.1968 49.7665 94.1968M49.7665 94.1968C49.9703 94.1968 49.5628 94.1968 49.7665 94.1968ZM49.7665 94.1968C49.7665 94.1968 52.3136 94.4006 52.7211 94.5025C55.4719 94.91 58.2227 95.7251 60.6679 96.9476C62.7055 97.8646 64.5394 99.0872 66.2714 100.514" stroke="black" stroke-width="1.07692" stroke-miterlimit="10" stroke-linecap="round" stroke-linejoin="round"/>
<path d="M60.3636 95.8226C60.3636 96.0264 60.3636 96.332 60.3636 96.5358C60.3636 87.3664 57.7147 78.1971 52.8243 70.4541C52.4168 69.8428 52.213 69.3334 52.6206 68.7221C53.0281 68.1108 53.6394 67.8051 54.3526 67.7033C55.677 67.4995 57.0015 67.8052 58.1222 68.5183C59.2429 69.1296 60.2617 70.1484 61.0768 71.0654C64.5407 74.7331 67.3934 79.0121 69.431 83.5968" stroke="black" stroke-width="1.07692" stroke-miterlimit="10" stroke-linecap="round" stroke-linejoin="round"/>
<path d="M89.4 93.4768C90.3169 94.3938 92.0489 94.4956 93.0677 93.5787C93.5772 93.0693 93.9847 92.3561 94.0866 91.643C93.9847 91.7448 93.8828 91.8467 93.7809 91.9486C92.7621 92.8655 90.8969 93.0463 90.1132 91.8467C88.9309 90.0373 88.3784 88.3798 87.7841 86.5968C87.5803 85.9855 87.1214 85.2967 87.0195 84.6854C87.1214 85.7042 88.3812 88.3828 88.3812 89.4016C88.2793 90.8279 88.3812 92.458 89.4 93.4768Z" fill="white"/>
<path d="M75.2397 80.8468C76.0548 79.5223 77.6849 78.7073 79.2131 78.6054C80.7413 78.5035 82.3715 79.1148 83.594 80.0317C84.8166 80.9486 85.8354 82.2731 86.5486 83.6994C87.9749 86.3484 88.6881 89.3029 88.5862 92.2575C88.5862 92.8688 88.4844 93.4801 88.4844 94.0914C88.3825 94.9064 88.0768 97.0459 86.5486 97.3516C84.6129 97.7591 82.5416 93.9835 81.5228 91.5383" stroke="black" stroke-width="1.07692" stroke-miterlimit="10" stroke-linecap="round" stroke-linejoin="round"/>
<path d="M84.3066 80.4358C84.816 79.3151 86.0386 78.5001 87.2612 78.2963C88.4838 78.0925 89.7064 78.5001 90.7252 79.2132C91.744 79.9264 92.4572 80.8433 92.9666 81.964C94.5967 84.9186 95.0042 88.4845 94.0873 91.8466C93.7816 92.8654 93.2722 93.9861 92.2534 94.3936C91.4384 94.6992 90.5214 94.3936 89.9101 93.8842C89.4007 93.4767 88.9932 92.8654 88.6876 92.356" stroke="black" stroke-width="1.07692" stroke-miterlimit="10" stroke-linecap="round" stroke-linejoin="round"/>
<path d="M94.5972 89.0985C97.0423 98.7773 98.2649 108.762 97.9592 118.848" stroke="black" stroke-width="1.07692" stroke-miterlimit="10" stroke-linecap="round" stroke-linejoin="round"/>
<path d="M70.4506 86.0378C71.8769 86.5472 72.8957 87.7698 73.507 89.1961C74.1183 90.5206 74.3221 92.0488 74.6277 93.4752C74.9334 94.9015 75.239 96.4297 76.0541 97.6523C76.3597 98.1617 76.5635 98.4674 76.971 98.773C77.3785 99.0786 77.9898 99.3843 78.6011 99.2824C79.0086 99.1805 79.4161 98.9768 79.7218 98.6711C80.0274 98.3655 80.2312 97.9579 80.435 97.5504C81.3519 95.7165 81.6575 93.3733 81.4538 91.3356C81.25 89.298 80.5368 87.4641 79.6199 85.6303C78.9067 84.3058 78.0917 83.0832 76.971 82.0644C75.8503 81.0456 74.4239 80.3324 72.8957 80.2305C71.3675 80.1287 69.6355 80.5362 68.6167 81.6569" stroke="black" stroke-width="1.07692" stroke-miterlimit="10" stroke-linecap="round" stroke-linejoin="round"/>
<path d="M88.3818 107.44C83.084 103.059 76.7673 99.7986 70.145 97.9648" stroke="black" stroke-width="1.07692" stroke-miterlimit="10" stroke-linecap="round" stroke-linejoin="round"/>
</g>
<path d="M18.7954 25.8349L26.2328 30.1139" stroke="black" stroke-width="1.07692" stroke-miterlimit="10" stroke-linecap="round" stroke-linejoin="round"/>
</svg>
