<svg width="510" height="112" fill="none" xmlns="http://www.w3.org/2000/svg"><g clip-path="url(#a)"><path d="M38.465 45.07c0-.32-.174-.488-.484-.488h-2.063c-.318 0-.484.175-.484.487v.981c0 .32.174.419.484.487l2.667.578c1.119.244 2.064.92 2.064 2.077v1.871c0 1.21-.832 2.046-2.033 2.046h-3.212c-1.202 0-2.033-.836-2.033-2.046V49.74h2.002v.92c0 .32.174.487.484.487h2.237c.318 0 .484-.175.484-.487v-1.095c0-.32-.174-.419-.484-.487l-2.668-.578c-1.118-.244-2.063-.92-2.063-2.077v-1.757c0-1.21.832-2.046 2.033-2.046h3.038c1.202 0 2.033.837 2.033 2.046v1.21h-2.002v-.807ZM48.788 42.673v1.963h-4.686v2.13h3.794v1.962h-3.794v2.366h4.686v1.962h-6.749V42.673h6.749ZM51.796 53.048h-2.131l3.325-10.375h2.404l3.325 10.375h-2.222l-.673-2.335h-3.34l-.688 2.335Zm1.262-4.29h2.207l-1.088-3.803-1.119 3.803ZM65.203 53.048 63.54 49.2h-1.662v3.85h-2.063V42.672h5.26c1.201 0 2.032.837 2.032 2.046v2.434c0 .982-.544 1.712-1.405 1.963l1.715 3.932h-2.214Zm-.159-7.926c0-.32-.174-.486-.483-.486h-2.676v2.64h2.676c.317 0 .483-.176.483-.488v-1.666ZM73.69 45.07c0-.32-.174-.488-.484-.488h-2.237c-.318 0-.484.175-.484.487v5.591c0 .32.174.487.484.487h2.237c.317 0 .483-.175.483-.487v-1.27h2.064v1.673c0 1.21-.832 2.046-2.033 2.046h-3.265c-1.202 0-2.033-.836-2.033-2.046v-6.397c0-1.21.831-2.046 2.033-2.046h3.265c1.201 0 2.032.837 2.032 2.046v1.674H73.69v-1.27ZM77.09 42.673h2.064v4.092h3.552v-4.092h2.063v10.375h-2.063V48.72h-3.552v4.328h-2.063V42.673ZM31.83 65.523h-2.132l3.325-10.383h2.404l3.325 10.383H36.53l-.672-2.335h-3.34l-.689 2.335Zm1.262-4.29h2.206L34.21 57.43l-1.118 3.803ZM46.136 65.523l-1.693-6.83-1.693 6.83h-2.033l-2.562-10.375h2.207l1.406 7.584 1.859-7.584h1.632l1.86 7.584 1.405-7.584h2.124L48.086 65.53h-1.95v-.008ZM52.197 65.523h-2.132l3.326-10.383h2.403l3.325 10.383h-2.222l-.672-2.335h-3.34l-.688 2.335Zm1.262-4.29h2.206l-1.088-3.803-1.118 3.803ZM65.603 65.523l-1.662-3.849h-1.663v3.85h-2.063V55.147h5.26c1.201 0 2.033.837 2.033 2.046v2.434c0 .981-.544 1.712-1.406 1.963l1.716 3.932h-2.215Zm-.158-7.926c0-.32-.174-.487-.484-.487h-2.675v2.64h2.675c.317 0 .484-.175.484-.487v-1.666ZM74.468 55.148c1.202 0 2.033.837 2.033 2.046v6.283c0 1.21-.831 2.046-2.033 2.046h-5.373V55.148h5.373Zm-.514 8.42c.318 0 .484-.175.484-.486v-5.477c0-.32-.174-.487-.484-.487h-2.796v6.458h2.796v-.008ZM82.887 57.536c0-.32-.174-.486-.483-.486H80.34c-.318 0-.484.175-.484.486v.982c0 .32.174.418.484.486l2.667.579c1.119.243 2.063.92 2.063 2.076v1.871c0 1.21-.83 2.046-2.032 2.046h-3.212c-1.202 0-2.033-.836-2.033-2.046v-1.323h2.002v.928c0 .32.174.487.484.487h2.237c.318 0 .484-.175.484-.487v-1.096c0-.319-.174-.418-.484-.486l-2.668-.578c-1.118-.244-2.063-.92-2.063-2.077V57.14c0-1.21.831-2.046 2.033-2.046h3.038c1.202 0 2.033.836 2.033 2.046v1.21h-2.003v-.815Z" fill="#fff"/><path d="M34.856 40.457c-1.205 0-2.05-.828-2.05-2.01v-6.27c0-1.183.845-2.011 2.05-2.011h1.447v1.893h-.964c-.362 0-.483.118-.483.473v5.56c0 .354.121.473.483.473h.964v1.892h-1.447Z" fill="#C6A75C"/><path fill-rule="evenodd" clip-rule="evenodd" d="M37.75 38.565c.362 0 .483-.119.483-.473v-1.538h-1.93V34.66h3.98v3.785c0 1.183-.845 2.011-2.05 2.011h-1.447v-1.892h.964Z" fill="#C6A75C"/><path d="M38.233 30.166c1.205 0 2.05.828 2.05 2.01v1.302h-2.05v-.946c0-.355-.121-.473-.483-.473h-.964v-1.893h1.447ZM44.382 30.165v10.173h-2.05V30.165h2.05Zm4.34 10.173h-3.979v-1.892h3.98v1.892ZM52.46 32.058c-.361 0-.482.118-.482.473v5.56c0 .355.12.473.482.473h.965v1.892h-1.568c-1.205 0-2.05-.828-2.05-2.01v-6.27c0-1.183.845-2.01 2.05-2.01h1.568v1.892h-.965Zm2.894-1.893c1.206 0 2.05.828 2.05 2.011v6.27c0 1.182-.844 2.01-2.05 2.01h-1.567v-1.892h.964c.362 0 .483-.118.483-.473v-5.56c0-.355-.121-.473-.483-.473h-.964v-1.893h1.567ZM59.453 30.166h2.05v10.173h-2.05V30.166Zm5.305 0c1.206 0 2.05.828 2.05 2.01v1.42c0 .592-.241 1.183-.964 1.538.723.355 1.085.946 1.085 1.538v1.656c0 1.183-.844 2.01-2.05 2.01h-3.014v-1.892h2.411c.362 0 .482-.118.482-.473v-1.42c0-.473-.24-.473-.723-.473h-2.17v-1.774h2.17c.362 0 .482-.118.482-.473V32.65c0-.355-.12-.473-.482-.473h-2.17v-2.011h2.893ZM71.15 30.166l.964 3.076-2.17 7.097h-2.17l3.376-10.173Zm2.893 7.926H71.03l.603-1.893h1.808l-1.808-6.033h1.929l3.376 10.173h-2.29l-.604-2.247ZM80.434 30.166v10.173h-2.05V30.166h2.05Zm4.34 10.173h-3.979v-1.893h3.98v1.893ZM59.313 77.956H55.89v-3.491c0-1.156.974-1.704 2.063-2.077l2.463-.867c.37-.13.575-.205.575-.578v-.898c0-.372-.204-.578-.575-.578h-.672v-1.962h1.247c1.149 0 2.063.92 2.063 2.076V71.4c0 1.156-.975 1.704-2.063 2.077l-2.464.867c-.37.13-.574.205-.574.578v1.065h1.36v1.97Zm-3.302-8.36c0-1.156.914-2.076 2.063-2.076h1.247v1.963h-.733c-.37 0-.575.205-.575.578v.661h-2.002v-1.125Zm3.733 8.36v-1.962h3.34v1.962h-3.34ZM66.825 69.482c-.318 0-.484.175-.484.487v5.591c0 .32.174.487.484.487h.877v1.962h-1.399c-1.201 0-2.032-.836-2.032-2.046v-6.397c0-1.21.83-2.046 2.032-2.046h1.391v1.962h-.87Zm2.705-1.962c1.202 0 2.033.837 2.033 2.046v6.397c0 1.21-.83 2.046-2.033 2.046h-1.405v-1.962h.891c.318 0 .484-.175.484-.487v-5.59c0-.32-.174-.488-.484-.488h-.891V67.52h1.405ZM76.151 77.956h-3.423v-3.491c0-1.156.974-1.704 2.063-2.077l2.463-.867c.37-.13.575-.205.575-.578v-.898c0-.372-.204-.578-.575-.578h-.672v-1.962h1.247c1.149 0 2.063.92 2.063 2.076V71.4c0 1.156-.975 1.704-2.063 2.077l-2.464.867c-.37.13-.574.205-.574.578v1.065h1.36v1.97Zm-3.302-8.36c0-1.156.914-2.076 2.063-2.076h1.247v1.963h-.734c-.37 0-.574.205-.574.578v.661H72.85v-1.125Zm3.733 8.36v-1.962h3.34v1.962h-3.34ZM82.705 69.741l-1.874.662v-1.727l2.305-1.095h1.632v10.383h-2.063v-8.223Z" fill="#C6A75C"/><path d="M64.972 111.07s-6.11-7.44-20.375-9.859C30.71 97.971 13.912 84.424 9.605 65.4c-4.99-18.842 3.409-38.543 14.152-47.754C34.424 7.978 44.422 6.479 44.224 6.35c.243.29-9.67 2.016-20.071 11.722-10.485 9.265-18.466 28.707-13.406 47.046 4.397 18.522 20.84 31.492 34.276 34.504a46.44 46.44 0 0 1 8.597 2.16c9.48 3.362 13.125 7.698 13.125 7.698l-1.773 1.59Z" fill="#FFE84D"/><path d="M50.029 111.07s6.11-7.44 20.375-9.859c13.885-3.24 30.677-16.787 34.991-35.811 4.991-18.842-3.408-38.543-14.151-47.754C80.576 7.978 70.578 6.479 70.784 6.35c-.243.29 9.67 2.016 20.064 11.722 10.484 9.265 18.466 28.707 13.406 47.046C99.856 83.64 83.407 96.61 69.978 99.622a46.44 46.44 0 0 0-8.598 2.16c-9.48 3.362-13.124 7.698-13.124 7.698l1.773 1.59ZM40.488 89.444s3.888 1.339 5.173 4.435c1.614 3.871.913 7.119.913 7.119s-3.895-2.023-5.196-4.122c-1.834-2.952-.89-7.432-.89-7.432ZM33.663 106.468s3.934 1.209 6.802-.54c3.584-2.184 4.93-5.219 4.93-5.219s-4.344-.654-6.634.274c-3.219 1.309-5.098 5.485-5.098 5.485ZM34.43 86.105s3.524 1.955 4.239 5.165c.898 4.016-.327 7.028-.327 7.028s-3.416-2.617-4.314-4.868c-1.263-3.164.403-7.325.403-7.325ZM24.951 101.371s3.591 1.833 6.658.632c3.827-1.499 5.645-4.2 5.645-4.2s-4.078-1.368-6.452-.859c-3.332.715-5.85 4.427-5.85 4.427ZM29 81.77s3.066 2.487 3.21 5.704c.183 4.024-1.514 6.724-1.514 6.724s-2.853-3.103-3.332-5.43C26.679 85.503 29 81.768 29 81.768ZM17.252 94.89s3.15 2.381 6.315 1.742c3.949-.798 6.163-3.088 6.163-3.088s-3.706-2.016-6.08-1.932c-3.332.13-6.398 3.279-6.398 3.279ZM24.388 76.513s2.54 2.92 2.13 6.055c-.51 3.917-2.602 6.23-2.602 6.23s-2.222-3.484-2.298-5.812c-.106-3.263 2.77-6.473 2.77-6.473ZM10.815 87.177s2.64 2.83 5.797 2.754c3.949-.099 6.475-1.932 6.475-1.932s-3.234-2.579-5.54-2.898c-3.24-.45-6.732 2.076-6.732 2.076ZM20.73 70.55s1.955 3.248 1.026 6.207c-1.156 3.689-3.576 5.575-3.576 5.575s-1.552-3.735-1.224-5.994c.448-3.18 3.773-5.788 3.773-5.788ZM5.816 78.537s2.062 3.18 5.128 3.643c3.827.578 6.574-.768 6.574-.768s-2.678-3.035-4.854-3.735c-3.051-.981-6.848.86-6.848.86ZM18.203 64.076s1.331 3.469-.069 6.162c-1.742 3.37-4.397 4.769-4.397 4.769s-.86-3.872-.168-5.994c.982-2.982 4.634-4.937 4.634-4.937ZM2.453 69.241s1.446 3.423 4.322 4.39c3.59 1.209 6.474.38 6.474.38s-2.069-3.385-4.047-4.435c-2.77-1.46-6.749-.335-6.749-.335ZM16.81 57.284s.693 3.575-1.11 5.933c-2.26 2.951-5.06 3.856-5.06 3.856s-.175-3.887.867-5.819c1.446-2.708 5.303-3.97 5.303-3.97ZM.733 59.589s.815 3.552 3.424 4.974c3.264 1.78 6.186 1.468 6.186 1.468s-1.423-3.62-3.15-4.967C4.766 59.178.733 59.59.733 59.59ZM16.62 50.316s.06 3.567-2.085 5.538c-2.685 2.464-5.531 2.86-5.531 2.86s.494-3.773 1.826-5.47c1.849-2.365 5.79-2.928 5.79-2.928ZM.703 49.806s.183 3.568 2.465 5.386c2.846 2.274 5.722 2.472 5.722 2.472s-.753-3.735-2.191-5.325C4.667 50.095.703 49.806.703 49.806ZM17.617 43.196s-.548 3.454-2.952 4.99c-3.005 1.925-5.828 1.818-5.828 1.818s1.118-3.56 2.693-4.967c2.192-1.97 6.087-1.84 6.087-1.84ZM2.346 39.994s-.433 3.468 1.461 5.614c2.359 2.677 5.098 3.362 5.098 3.362s-.091-3.735-1.21-5.515c-1.575-2.503-5.349-3.461-5.349-3.461ZM19.846 36.251s-1.11 3.24-3.698 4.313c-3.233 1.347-5.934.761-5.934.761s1.689-3.248 3.439-4.336c2.457-1.521 6.193-.738 6.193-.738ZM5.656 30.562s-1.004 3.278.456 5.667c1.826 2.981 4.352 4.107 4.352 4.107s.548-3.62-.228-5.53c-1.095-2.677-4.58-4.244-4.58-4.244ZM23.293 29.809s-1.628 2.936-4.307 3.537c-3.347.745-5.858-.274-5.858-.274s2.184-2.845 4.055-3.598c2.633-1.057 6.11.335 6.11.335ZM10.564 21.905s-1.53 2.99-.525 5.546c1.248 3.194 3.5 4.708 3.5 4.708s1.141-3.4.715-5.378c-.593-2.776-3.69-4.875-3.69-4.875ZM27.842 24.073s-2.07 2.556-4.763 2.678c-3.355.152-5.607-1.263-5.607-1.263s2.594-2.373 4.527-2.784c2.724-.563 5.843 1.37 5.843 1.37ZM16.901 14.284s-1.985 2.624-1.453 5.263c.662 3.294 2.58 5.135 2.58 5.135s1.68-3.088 1.605-5.066c-.107-2.776-2.732-5.332-2.732-5.332ZM33.275 19.266s-2.435 2.115-5.052 1.772c-3.264-.426-5.197-2.168-5.197-2.168s2.907-1.848 4.847-1.916c2.716-.084 5.402 2.312 5.402 2.312ZM24.38 7.955s-2.366 2.198-2.297 4.83c.076 3.294 1.613 5.393 1.613 5.393s2.153-2.693 2.419-4.617c.365-2.693-1.735-5.606-1.735-5.606ZM39.422 15.5s-2.708 1.628-5.174.853c-3.081-.966-4.648-2.975-4.648-2.975s3.12-1.293 5.006-1.019c2.633.38 4.816 3.142 4.816 3.142ZM32.765 3.072S30.11 4.79 29.722 7.346c-.487 3.188.639 5.485.639 5.485s2.534-2.236 3.112-4.047c.821-2.54-.708-5.712-.708-5.712ZM46.019 12.892s-2.891 1.11-5.143-.054c-2.808-1.452-3.98-3.666-3.98-3.666s3.227-.715 5.007-.137c2.488.814 4.116 3.857 4.116 3.857ZM41.712-.237s-2.853 1.21-3.66 3.605c-1.011 2.997-.319 5.4-.319 5.4s2.83-1.726 3.698-3.369c1.217-2.312.281-5.636.281-5.636ZM41.834 7.156s2.138 1.21 4.032.556c2.367-.814 3.538-2.412 3.538-2.412s-2.442-.935-3.903-.692c-2.031.358-3.667 2.548-3.667 2.548Z" fill="#FFE84D"/><path d="M74.512 89.444s-3.888 1.339-5.174 4.435c-1.612 3.871-.912 7.119-.912 7.119s3.895-2.023 5.196-4.122c1.834-2.952.89-7.432.89-7.432ZM81.337 106.467s-3.934 1.21-6.802-.54c-3.576-2.183-4.93-5.218-4.93-5.218s4.344-.654 6.634.274c3.218 1.309 5.098 5.484 5.098 5.484ZM80.569 86.105s-3.53 1.955-4.246 5.165c-.898 4.016.327 7.028.327 7.028s3.416-2.617 4.314-4.868c1.27-3.164-.395-7.325-.395-7.325ZM90.049 101.371s-3.591 1.833-6.657.632c-3.828-1.499-5.646-4.2-5.646-4.2s4.078-1.368 6.452-.859c3.325.715 5.85 4.427 5.85 4.427ZM86 81.77s-3.065 2.487-3.21 5.704c-.183 4.024 1.514 6.724 1.514 6.724s2.853-3.103 3.34-5.43c.677-3.264-1.643-6.999-1.643-6.999ZM97.748 94.89s-3.15 2.381-6.315 1.742c-3.948-.798-6.163-3.088-6.163-3.088s3.706-2.016 6.08-1.932c3.332.13 6.398 3.279 6.398 3.279ZM90.612 76.513s-2.541 2.92-2.13 6.055c.51 3.917 2.602 6.23 2.602 6.23s2.221-3.484 2.297-5.812c.107-3.263-2.77-6.473-2.77-6.473ZM104.185 87.177s-2.64 2.83-5.797 2.754c-3.949-.1-6.475-1.932-6.475-1.932s3.234-2.579 5.539-2.898c3.234-.45 6.733 2.076 6.733 2.076ZM94.271 70.55s-1.955 3.247-1.027 6.206c1.157 3.69 3.576 5.576 3.576 5.576s1.552-3.735 1.225-5.994c-.449-3.18-3.774-5.789-3.774-5.789ZM109.184 78.537s-2.062 3.18-5.128 3.643c-3.827.578-6.574-.768-6.574-.768s2.679-3.035 4.855-3.735c3.051-.981 6.847.86 6.847.86ZM96.798 64.076s-1.332 3.469.068 6.162c1.742 3.37 4.398 4.769 4.398 4.769s.859-3.872.167-5.994c-.981-2.982-4.633-4.937-4.633-4.937ZM112.547 69.241s-1.445 3.423-4.329 4.39c-3.599 1.209-6.475.38-6.475.38s2.07-3.385 4.04-4.435c2.785-1.46 6.764-.335 6.764-.335ZM98.19 57.284s-.692 3.575 1.111 5.933c2.26 2.951 5.06 3.856 5.06 3.856s.175-3.887-.86-5.819c-1.453-2.708-5.31-3.97-5.31-3.97ZM114.274 59.589s-.814 3.552-3.431 4.974c-3.264 1.78-6.186 1.468-6.186 1.468s1.423-3.62 3.15-4.967c2.427-1.886 6.467-1.475 6.467-1.475ZM98.38 50.316s-.06 3.567 2.085 5.538c2.678 2.464 5.531 2.86 5.531 2.86s-.494-3.773-1.826-5.47c-1.856-2.365-5.79-2.928-5.79-2.928ZM114.297 49.806s-.182 3.568-2.457 5.386c-2.846 2.274-5.722 2.472-5.722 2.472s.753-3.735 2.191-5.325c2.024-2.243 5.988-2.533 5.988-2.533ZM97.384 43.196s.548 3.454 2.952 4.99c3.005 1.925 5.828 1.818 5.828 1.818s-1.119-3.56-2.693-4.967c-2.192-1.97-6.087-1.84-6.087-1.84ZM112.654 39.994s.434 3.468-1.461 5.614c-2.358 2.677-5.097 3.362-5.097 3.362s.091-3.735 1.209-5.515c1.575-2.503 5.349-3.461 5.349-3.461ZM95.154 36.251s1.119 3.24 3.706 4.313c3.233 1.347 5.934.761 5.934.761s-1.689-3.248-3.439-4.336c-2.465-1.521-6.2-.738-6.2-.738ZM109.344 30.562s1.004 3.278-.457 5.667c-1.826 2.981-4.352 4.107-4.352 4.107s-.547-3.62.229-5.53c1.095-2.677 4.58-4.244 4.58-4.244ZM91.708 29.809s1.628 2.936 4.306 3.537c3.348.745 5.859-.274 5.859-.274s-2.184-2.845-4.055-3.598c-2.64-1.057-6.11.335-6.11.335ZM104.437 21.906s1.529 2.989.533 5.545c-1.248 3.195-3.5 4.708-3.5 4.708s-1.142-3.4-.716-5.378c.586-2.776 3.683-4.875 3.683-4.875ZM87.158 24.073s2.07 2.556 4.755 2.678c3.356.152 5.608-1.263 5.608-1.263s-2.595-2.373-4.527-2.784c-2.716-.563-5.836 1.37-5.836 1.37ZM98.1 14.284s1.985 2.624 1.453 5.263c-.662 3.294-2.58 5.135-2.58 5.135s-1.681-3.088-1.613-5.066c.115-2.776 2.74-5.332 2.74-5.332ZM81.726 19.266s2.434 2.115 5.052 1.772c3.264-.426 5.196-2.168 5.196-2.168s-2.906-1.848-4.846-1.916c-2.724-.084-5.402 2.312-5.402 2.312ZM90.62 7.955s2.366 2.198 2.298 4.83c-.076 3.294-1.613 5.393-1.613 5.393s-2.153-2.693-2.412-4.617c-.373-2.693 1.727-5.606 1.727-5.606ZM75.578 15.5s2.709 1.628 5.174.853c3.081-.966 4.649-2.975 4.649-2.975s-3.12-1.293-5.007-1.019c-2.64.38-4.816 3.142-4.816 3.142ZM82.235 3.071s2.656 1.72 3.044 4.275c.487 3.188-.64 5.485-.64 5.485s-2.533-2.237-3.111-4.047c-.822-2.54.707-5.713.707-5.713ZM68.981 12.892s2.9 1.11 5.144-.054c2.807-1.452 3.979-3.666 3.979-3.666s-3.226-.715-4.999-.137c-2.495.814-4.124 3.857-4.124 3.857ZM73.288-.237s2.861 1.21 3.667 3.605c1.005 2.997.32 5.4.32 5.4S74.452 7.043 73.577 5.4c-1.225-2.312-.289-5.636-.289-5.636ZM73.158 7.156s-2.138 1.21-4.032.556C66.76 6.898 65.588 5.3 65.588 5.3s2.45-.935 3.903-.692c2.04.358 3.667 2.548 3.667 2.548ZM196.639 111.307s-6.11-7.439-20.375-9.858c-13.886-3.24-30.685-16.788-34.992-35.812-4.991-18.842 3.409-38.543 14.152-47.754 10.667-9.668 20.665-11.166 20.467-11.296.243.29-9.67 2.016-20.071 11.722-10.485 9.265-18.466 28.707-13.406 47.047 4.397 18.522 20.839 31.49 34.276 34.503a46.509 46.509 0 0 1 8.597 2.16c9.48 3.362 13.125 7.698 13.125 7.698l-1.773 1.59Z" fill="#FFE84D"/><path d="M181.696 111.307s6.109-7.439 20.375-9.858c13.885-3.24 30.677-16.788 34.991-35.812 4.991-18.842-3.408-38.543-14.151-47.754-10.668-9.668-20.665-11.166-20.46-11.296-.243.29 9.671 2.016 20.064 11.722 10.484 9.265 18.466 28.707 13.406 47.047-4.398 18.522-20.847 31.49-34.276 34.503a46.52 46.52 0 0 0-8.598 2.16c-9.48 3.362-13.124 7.698-13.124 7.698l1.773 1.59ZM172.155 89.681s3.888 1.339 5.174 4.435c1.613 3.872.913 7.12.913 7.12s-3.896-2.024-5.197-4.123c-1.834-2.951-.89-7.432-.89-7.432ZM165.33 106.705s3.934 1.209 6.802-.54c3.584-2.183 4.93-5.218 4.93-5.218s-4.344-.655-6.634.273c-3.219 1.309-5.098 5.485-5.098 5.485ZM166.098 86.342s3.523 1.955 4.238 5.165c.898 4.016-.327 7.028-.327 7.028s-3.417-2.616-4.314-4.868c-1.263-3.164.403-7.325.403-7.325ZM156.618 101.608s3.591 1.834 6.658.632c3.827-1.499 5.645-4.199 5.645-4.199s-4.078-1.37-6.452-.86c-3.332.715-5.851 4.427-5.851 4.427ZM160.667 82.006s3.066 2.488 3.21 5.705c.183 4.024-1.514 6.725-1.514 6.725s-2.853-3.104-3.332-5.432c-.685-3.263 1.636-6.998 1.636-6.998ZM148.919 95.128s3.15 2.38 6.315 1.742c3.949-.8 6.163-3.089 6.163-3.089s-3.706-2.015-6.079-1.932c-3.333.13-6.399 3.279-6.399 3.279ZM156.055 76.75s2.541 2.921 2.13 6.055c-.51 3.917-2.602 6.23-2.602 6.23s-2.222-3.484-2.298-5.812c-.106-3.263 2.77-6.473 2.77-6.473ZM142.481 87.414s2.641 2.83 5.798 2.754c3.949-.099 6.475-1.932 6.475-1.932s-3.234-2.579-5.539-2.898c-3.241-.449-6.734 2.076-6.734 2.076ZM152.396 70.787s1.956 3.248 1.027 6.207c-1.156 3.689-3.576 5.575-3.576 5.575s-1.552-3.734-1.225-5.994c.449-3.18 3.774-5.788 3.774-5.788ZM137.483 78.774s2.062 3.18 5.128 3.643c3.828.578 6.574-.768 6.574-.768s-2.678-3.035-4.854-3.735c-3.051-.981-6.848.86-6.848.86ZM149.87 64.314s1.331 3.468-.069 6.16c-1.742 3.37-4.397 4.77-4.397 4.77s-.86-3.872-.168-5.994c.982-2.982 4.634-4.936 4.634-4.936ZM134.12 69.478s1.446 3.423 4.322 4.39c3.591 1.209 6.474.38 6.474.38s-2.069-3.385-4.047-4.435c-2.77-1.46-6.749-.335-6.749-.335ZM148.477 57.52s.693 3.576-1.11 5.934c-2.26 2.951-5.06 3.857-5.06 3.857s-.175-3.887.867-5.82c1.446-2.707 5.303-3.97 5.303-3.97ZM132.4 59.826s.814 3.552 3.424 4.974c3.264 1.78 6.186 1.469 6.186 1.469s-1.423-3.621-3.15-4.968c-2.427-1.886-6.46-1.475-6.46-1.475ZM148.287 50.553s.061 3.568-2.085 5.538c-2.686 2.464-5.531 2.86-5.531 2.86s.494-3.773 1.826-5.47c1.849-2.365 5.79-2.928 5.79-2.928ZM132.37 50.044s.183 3.567 2.465 5.385c2.846 2.274 5.722 2.472 5.722 2.472s-.753-3.735-2.191-5.325c-2.032-2.243-5.996-2.532-5.996-2.532ZM149.284 43.434s-.548 3.453-2.952 4.99c-3.005 1.924-5.828 1.817-5.828 1.817s1.118-3.56 2.693-4.967c2.192-1.97 6.087-1.84 6.087-1.84ZM134.013 40.231s-.433 3.469 1.461 5.614c2.359 2.677 5.098 3.362 5.098 3.362s-.091-3.735-1.21-5.515c-1.575-2.502-5.349-3.46-5.349-3.46ZM151.513 36.489s-1.111 3.24-3.698 4.313c-3.233 1.346-5.934.76-5.934.76s1.689-3.248 3.439-4.335c2.457-1.522 6.193-.738 6.193-.738ZM137.323 30.799s-1.004 3.278.456 5.667c1.826 2.982 4.352 4.107 4.352 4.107s.548-3.62-.228-5.53c-1.095-2.677-4.58-4.244-4.58-4.244ZM154.96 30.046s-1.628 2.936-4.307 3.537c-3.347.745-5.858-.274-5.858-.274s2.184-2.845 4.055-3.598c2.633-1.057 6.11.335 6.11.335ZM142.231 22.143s-1.529 2.99-.525 5.545c1.248 3.195 3.5 4.708 3.5 4.708s1.141-3.4.715-5.378c-.593-2.776-3.69-4.875-3.69-4.875ZM159.509 24.31s-2.07 2.556-4.763 2.678c-3.355.152-5.607-1.263-5.607-1.263s2.594-2.373 4.527-2.784c2.724-.563 5.843 1.37 5.843 1.37ZM148.568 14.52s-1.985 2.625-1.453 5.265c.662 3.293 2.579 5.134 2.579 5.134s1.682-3.088 1.606-5.066c-.107-2.776-2.732-5.332-2.732-5.332ZM164.942 19.503s-2.435 2.115-5.052 1.773c-3.264-.427-5.197-2.168-5.197-2.168s2.907-1.849 4.847-1.917c2.716-.084 5.402 2.312 5.402 2.312ZM156.047 8.192s-2.366 2.198-2.297 4.83c.076 3.294 1.612 5.393 1.612 5.393s2.154-2.692 2.42-4.617c.365-2.693-1.735-5.606-1.735-5.606ZM171.089 15.738s-2.709 1.628-5.174.852c-3.081-.966-4.648-2.974-4.648-2.974s3.119-1.293 5.006-1.02c2.632.38 4.816 3.142 4.816 3.142ZM164.432 3.309s-2.655 1.719-3.043 4.275c-.487 3.187.639 5.484.639 5.484s2.533-2.236 3.112-4.047c.821-2.54-.708-5.712-.708-5.712ZM177.686 13.129s-2.891 1.11-5.143-.053c-2.808-1.453-3.98-3.667-3.98-3.667s3.226-.715 5.007-.137c2.488.814 4.116 3.857 4.116 3.857ZM173.379 0s-2.853 1.21-3.659 3.605c-1.012 2.997-.32 5.401-.32 5.401s2.83-1.727 3.698-3.37c1.217-2.312.281-5.636.281-5.636ZM173.501 7.394s2.138 1.21 4.032.555c2.367-.814 3.538-2.411 3.538-2.411s-2.442-.936-3.903-.693c-2.031.358-3.667 2.549-3.667 2.549Z" fill="#FFE84D"/><path d="M206.179 89.681s-3.888 1.34-5.173 4.435c-1.613 3.872-.913 7.12-.913 7.12s3.895-2.024 5.196-4.123c1.834-2.951.89-7.432.89-7.432ZM213.004 106.705s-3.934 1.209-6.802-.54c-3.576-2.183-4.931-5.218-4.931-5.218s4.345-.655 6.635.273c3.218 1.309 5.098 5.485 5.098 5.485ZM212.236 86.342s-3.531 1.955-4.246 5.165c-.898 4.016.327 7.028.327 7.028s3.416-2.616 4.314-4.868c1.271-3.164-.395-7.325-.395-7.325ZM221.716 101.608s-3.591 1.834-6.657.632c-3.827-1.499-5.646-4.199-5.646-4.199s4.078-1.37 6.452-.86c3.325.715 5.851 4.427 5.851 4.427ZM217.668 82.006s-3.066 2.488-3.211 5.705c-.182 4.024 1.514 6.725 1.514 6.725s2.853-3.104 3.34-5.432c.677-3.263-1.643-6.998-1.643-6.998ZM229.415 95.128s-3.15 2.38-6.315 1.742c-3.948-.8-6.162-3.089-6.162-3.089s3.705-2.015 6.079-1.932c3.332.13 6.398 3.279 6.398 3.279ZM222.279 76.75s-2.541 2.921-2.131 6.055c.51 3.917 2.603 6.23 2.603 6.23s2.221-3.484 2.297-5.812c.107-3.263-2.769-6.473-2.769-6.473ZM235.852 87.414s-2.64 2.83-5.797 2.754c-3.949-.099-6.475-1.932-6.475-1.932s3.234-2.579 5.539-2.898c3.234-.449 6.733 2.076 6.733 2.076ZM225.938 70.787s-1.955 3.248-1.027 6.207c1.157 3.689 3.576 5.575 3.576 5.575s1.552-3.735 1.225-5.994c-.449-3.18-3.774-5.788-3.774-5.788ZM240.851 78.774s-2.062 3.18-5.128 3.643c-3.827.578-6.574-.768-6.574-.768s2.679-3.035 4.855-3.735c3.051-.981 6.847.86 6.847.86ZM228.465 64.314s-1.332 3.468.068 6.16c1.742 3.37 4.398 4.77 4.398 4.77s.859-3.872.167-5.994c-.981-2.982-4.633-4.936-4.633-4.936ZM244.214 69.478s-1.445 3.423-4.329 4.39c-3.599 1.209-6.475.38-6.475.38s2.07-3.385 4.04-4.435c2.785-1.46 6.764-.335 6.764-.335ZM229.857 57.52s-.692 3.576 1.111 5.934c2.26 2.951 5.06 3.857 5.06 3.857s.175-3.888-.86-5.82c-1.453-2.708-5.311-3.97-5.311-3.97ZM245.941 59.826s-.814 3.552-3.431 4.974c-3.264 1.78-6.186 1.469-6.186 1.469s1.423-3.621 3.15-4.968c2.427-1.886 6.467-1.475 6.467-1.475ZM230.047 50.553s-.061 3.568 2.085 5.538c2.678 2.464 5.531 2.86 5.531 2.86s-.494-3.773-1.826-5.47c-1.856-2.365-5.79-2.928-5.79-2.928ZM245.964 50.044s-.182 3.567-2.457 5.385c-2.846 2.274-5.722 2.472-5.722 2.472s.753-3.735 2.191-5.324c2.024-2.244 5.988-2.533 5.988-2.533ZM229.051 43.434s.548 3.453 2.952 4.99c3.005 1.924 5.828 1.817 5.828 1.817s-1.119-3.56-2.693-4.967c-2.192-1.97-6.087-1.84-6.087-1.84ZM244.321 40.231s.434 3.469-1.461 5.614c-2.358 2.677-5.097 3.362-5.097 3.362s.091-3.735 1.209-5.515c1.575-2.502 5.349-3.46 5.349-3.46ZM226.821 36.489s1.119 3.24 3.706 4.313c3.233 1.346 5.934.76 5.934.76s-1.689-3.248-3.439-4.335c-2.465-1.522-6.201-.738-6.201-.738ZM241.011 30.799s1.004 3.278-.457 5.667c-1.826 2.982-4.352 4.107-4.352 4.107s-.547-3.62.229-5.53c1.095-2.677 4.58-4.244 4.58-4.244ZM223.375 30.046s1.628 2.936 4.306 3.537c3.348.745 5.859-.274 5.859-.274s-2.184-2.845-4.055-3.598c-2.641-1.057-6.11.335-6.11.335ZM236.104 22.143s1.529 2.99.532 5.545c-1.247 3.195-3.499 4.708-3.499 4.708s-1.142-3.4-.716-5.377c.586-2.777 3.683-4.876 3.683-4.876ZM218.825 24.31s2.07 2.556 4.755 2.678c3.356.152 5.608-1.263 5.608-1.263s-2.595-2.373-4.527-2.784c-2.716-.563-5.836 1.37-5.836 1.37ZM229.766 14.52s1.986 2.625 1.454 5.265c-.662 3.293-2.58 5.134-2.58 5.134s-1.681-3.088-1.613-5.066c.115-2.776 2.739-5.332 2.739-5.332ZM213.393 19.503s2.434 2.115 5.052 1.773c3.264-.427 5.196-2.168 5.196-2.168s-2.906-1.849-4.846-1.917c-2.724-.084-5.402 2.312-5.402 2.312ZM222.287 8.192s2.366 2.198 2.298 4.83c-.076 3.294-1.613 5.393-1.613 5.393s-2.153-2.692-2.412-4.617c-.373-2.693 1.727-5.606 1.727-5.606ZM207.245 15.738s2.709 1.628 5.174.852c3.081-.966 4.649-2.974 4.649-2.974s-3.12-1.293-5.007-1.02c-2.64.38-4.816 3.142-4.816 3.142ZM213.902 3.309s2.656 1.719 3.044 4.275c.487 3.187-.639 5.484-.639 5.484s-2.534-2.236-3.112-4.047c-.822-2.54.707-5.712.707-5.712ZM200.648 13.129s2.899 1.11 5.144-.053c2.807-1.453 3.979-3.667 3.979-3.667s-3.226-.715-4.999-.137c-2.495.814-4.124 3.857-4.124 3.857ZM204.955 0s2.861 1.21 3.667 3.605c1.005 2.997.32 5.401.32 5.401s-2.823-1.727-3.698-3.37C204.019 3.324 204.955 0 204.955 0ZM204.825 7.394s-2.138 1.21-4.032.555c-2.366-.814-3.538-2.411-3.538-2.411s2.45-.936 3.903-.693c2.039.358 3.667 2.549 3.667 2.549Z" fill="#FFE84D"/><path d="M202.641 40.635c-1.209 0-2.046-.837-2.046-2.046v-8.39h2.077v7.986c0 .32.175.487.487.487h.92v1.963h-1.438Zm2.793-1.963c.319 0 .487-.175.487-.487v-7.987h2.077v8.39c0 1.21-.837 2.047-2.047 2.047h-1.446v-1.963h.929ZM214.1 38.672c.319 0 .487-.175.487-.487V37.09c0-.32-.175-.419-.487-.487l-2.686-.578c-1.126-.243-2.077-.92-2.077-2.077v-1.757c0-1.21.837-2.046 2.047-2.046h1.4v1.963h-.883c-.32 0-.487.175-.487.486v.982c0 .32.175.418.487.486l2.686.579c1.126.243 2.077.92 2.077 2.076v1.871c0 1.21-.837 2.047-2.047 2.047h-1.4v-1.963h.883Zm-2.709 1.963c-1.21 0-2.046-.837-2.046-2.047v-1.323h2.016v.92c0 .32.175.487.487.487h.936v1.963h-1.393Zm3.051-10.497c1.21 0 2.047.836 2.047 2.046v1.21h-2.016v-.807c0-.32-.175-.487-.487-.487h-.761v-1.963h1.217Z" fill="#29B6CB"/><path d="M169.751 45.07c0-.32-.175-.488-.487-.488h-2.077c-.32 0-.487.175-.487.487v.981c0 .32.175.419.487.487l2.686.578c1.126.244 2.077.92 2.077 2.077v1.871c0 1.21-.837 2.046-2.047 2.046h-3.233c-1.21 0-2.047-.836-2.047-2.046V49.74h2.016v.92c0 .32.175.487.487.487h2.252c.32 0 .487-.175.487-.487v-1.095c0-.32-.175-.419-.487-.487l-2.686-.578c-1.126-.244-2.077-.92-2.077-2.077v-1.757c0-1.21.837-2.046 2.047-2.046h3.058c1.21 0 2.047.837 2.047 2.046v1.21h-2.016v-.807ZM180.144 42.673v1.963h-4.717v2.13h3.819v1.962h-3.819v2.366h4.717v1.962h-6.794V42.673h6.794ZM183.172 53.048h-2.146l3.348-10.375h2.42l3.347 10.375h-2.237l-.677-2.335h-3.363l-.692 2.335Zm1.271-4.29h2.221l-1.095-3.803-1.126 3.803ZM196.669 53.048l-1.674-3.849h-1.674v3.85h-2.077V42.672h5.296c1.209 0 2.046.837 2.046 2.046v2.434c0 .982-.548 1.712-1.415 1.963l1.727 3.932h-2.229Zm-.16-7.926c0-.32-.175-.486-.487-.486h-2.693v2.64h2.693c.32 0 .487-.176.487-.488v-1.666ZM205.213 45.07c0-.32-.175-.488-.487-.488h-2.252c-.319 0-.487.175-.487.487v5.591c0 .32.175.487.487.487h2.252c.32 0 .487-.175.487-.487v-1.27h2.077v1.673c0 1.21-.837 2.046-2.046 2.046h-3.287c-1.21 0-2.047-.836-2.047-2.046v-6.397c0-1.21.837-2.046 2.047-2.046h3.287c1.209 0 2.046.837 2.046 2.046v1.674h-2.077v-1.27ZM208.638 42.673h2.077v4.092h3.576v-4.092h2.077v10.375h-2.077V48.72h-3.576v4.328h-2.077V42.673ZM163.07 65.523h-2.145l3.348-10.383h2.419l3.348 10.383h-2.237l-.677-2.335h-3.363l-.693 2.335Zm1.271-4.29h2.222l-1.096-3.803-1.126 3.803ZM177.473 65.523l-1.704-6.83-1.705 6.83h-2.046l-2.58-10.375h2.222l1.415 7.584 1.872-7.584h1.643l1.872 7.584 1.415-7.584h2.138l-2.579 10.383h-1.963v-.008ZM183.575 65.523h-2.145l3.347-10.383h2.42l3.348 10.383h-2.237l-.677-2.335h-3.363l-.693 2.335Zm1.271-4.29h2.222l-1.096-3.803-1.126 3.803ZM197.072 65.523l-1.674-3.849h-1.673v3.85h-2.078V55.147h5.296c1.21 0 2.047.837 2.047 2.046v2.434c0 .981-.548 1.712-1.416 1.963l1.728 3.932h-2.23Zm-.16-7.926c0-.32-.174-.487-.486-.487h-2.694v2.64h2.694c.319 0 .486-.175.486-.487v-1.666ZM205.997 55.148c1.21 0 2.047.837 2.047 2.046v6.283c0 1.21-.837 2.046-2.047 2.046h-5.409V55.148h5.409Zm-.517 8.42c.32 0 .487-.175.487-.486v-5.477c0-.32-.175-.487-.487-.487h-2.815v6.458h2.815v-.008ZM214.473 57.536c0-.32-.175-.486-.487-.486h-2.077c-.32 0-.487.175-.487.486v.982c0 .32.175.418.487.486l2.685.579c1.126.243 2.077.92 2.077 2.076v1.871c0 1.21-.836 2.046-2.046 2.046h-3.234c-1.21 0-2.046-.836-2.046-2.046v-1.323h2.016v.928c0 .32.175.487.487.487h2.252c.319 0 .487-.175.487-.487v-1.096c0-.32-.175-.418-.487-.486l-2.686-.578c-1.126-.244-2.077-.92-2.077-2.077V57.14c0-1.21.837-2.046 2.047-2.046h3.058c1.21 0 2.047.836 2.047 2.046v1.21h-2.016v-.815Z" fill="#fff"/><path d="M190.122 77.956h-3.424v-3.491c0-1.157.975-1.704 2.063-2.077l2.464-.867c.37-.13.574-.205.574-.578v-.898c0-.372-.204-.578-.574-.578h-.672v-1.962h1.246c1.149 0 2.064.92 2.064 2.076V71.4c0 1.156-.975 1.704-2.064 2.077l-2.463.867c-.371.13-.575.205-.575.578v1.065h1.361v1.97Zm-3.303-8.36c0-1.156.915-2.076 2.063-2.076h1.247v1.962h-.733c-.37 0-.574.206-.574.579v.661h-2.003v-1.125Zm3.734 8.36v-1.962h3.34v1.962h-3.34ZM197.633 69.482c-.317 0-.483.175-.483.487v5.591c0 .32.174.487.483.487h.877v1.962h-1.398c-1.202 0-2.033-.836-2.033-2.046v-6.397c0-1.21.831-2.046 2.033-2.046h1.391v1.962h-.87Zm2.706-1.962c1.202 0 2.033.837 2.033 2.046v6.397c0 1.21-.831 2.046-2.033 2.046h-1.406v-1.962h.892c.318 0 .484-.175.484-.487v-5.59c0-.32-.174-.488-.484-.488h-.892V67.52h1.406ZM206.959 77.956h-3.424v-3.491c0-1.157.975-1.704 2.063-2.077l2.464-.867c.37-.13.574-.205.574-.578v-.898c0-.372-.204-.578-.574-.578h-.673v-1.962h1.247c1.149 0 2.064.92 2.064 2.076V71.4c0 1.156-.975 1.704-2.064 2.077l-2.463.867c-.371.13-.575.205-.575.578v1.065h1.361v1.97Zm-3.303-8.36c0-1.156.915-2.076 2.063-2.076h1.247v1.962h-.733c-.37 0-.574.206-.574.579v.661h-2.003v-1.125Zm3.733 8.36v-1.962h3.341v1.962h-3.341ZM213.514 69.741l-1.874.662v-1.727l2.305-1.095h1.632v10.383h-2.063v-8.223Z" fill="#29B6CB"/><g clip-path="url(#b)"><path d="M328.254 111.307s-6.069-7.439-20.239-9.858c-13.792-3.24-30.479-16.788-34.756-35.812-4.958-18.842 3.385-38.543 14.056-47.754 10.596-9.668 20.526-11.166 20.33-11.296.242.29-9.606 2.016-19.937 11.722-10.414 9.265-18.341 28.707-13.316 47.047 4.368 18.522 20.7 31.49 34.046 34.503a45.937 45.937 0 0 1 8.54 2.16c9.417 3.362 13.037 7.698 13.037 7.698l-1.761 1.59Z" fill="#FFE84D"/><path d="M313.411 111.307s6.069-7.439 20.239-9.858c13.792-3.24 30.471-16.788 34.756-35.812 4.958-18.842-3.385-38.543-14.056-47.754-10.596-9.668-20.526-11.166-20.322-11.296-.242.29 9.605 2.016 19.929 11.722 10.414 9.265 18.341 28.707 13.316 47.047-4.369 18.522-20.708 31.49-34.046 34.503a45.937 45.937 0 0 0-8.54 2.16c-9.417 3.362-13.037 7.698-13.037 7.698l1.761 1.59ZM303.934 89.681s3.862 1.339 5.139 4.435c1.603 3.872.907 7.12.907 7.12s-3.869-2.024-5.161-4.123c-1.822-2.951-.885-7.432-.885-7.432ZM297.155 106.705s3.907 1.209 6.757-.54c3.559-2.183 4.897-5.218 4.897-5.218s-4.316-.655-6.59.273c-3.197 1.309-5.064 5.485-5.064 5.485ZM297.918 86.342s3.499 1.955 4.21 5.165c.891 4.016-.325 7.028-.325 7.028s-3.394-2.616-4.285-4.868c-1.255-3.164.4-7.325.4-7.325ZM288.502 101.608s3.567 1.834 6.613.632c3.801-1.499 5.607-4.199 5.607-4.199s-4.051-1.37-6.408-.86c-3.311.715-5.812 4.427-5.812 4.427ZM292.523 82.006s3.045 2.488 3.189 5.705c.181 4.024-1.504 6.725-1.504 6.725s-2.834-3.104-3.31-5.432c-.68-3.263 1.625-6.998 1.625-6.998ZM280.854 95.128s3.129 2.38 6.273 1.742c3.922-.8 6.122-3.089 6.122-3.089s-3.681-2.015-6.039-1.932c-3.31.13-6.356 3.279-6.356 3.279ZM287.943 76.75s2.524 2.921 2.116 6.055c-.506 3.917-2.584 6.23-2.584 6.23s-2.207-3.484-2.283-5.812c-.105-3.263 2.751-6.473 2.751-6.473ZM274.461 87.414s2.622 2.83 5.759 2.754c3.922-.099 6.431-1.932 6.431-1.932s-3.212-2.579-5.502-2.898c-3.219-.449-6.688 2.076-6.688 2.076ZM284.307 70.787s1.942 3.248 1.02 6.207c-1.148 3.689-3.552 5.575-3.552 5.575s-1.541-3.734-1.216-5.994c.446-3.18 3.748-5.788 3.748-5.788ZM269.495 78.774s2.048 3.18 5.094 3.643c3.801.578 6.529-.768 6.529-.768s-2.66-3.035-4.821-3.735c-3.031-.981-6.802.86-6.802.86ZM281.799 64.314s1.322 3.468-.068 6.16c-1.731 3.37-4.368 4.77-4.368 4.77s-.854-3.872-.166-5.994c.974-2.982 4.602-4.936 4.602-4.936ZM266.155 69.478s1.436 3.423 4.293 4.39c3.567 1.209 6.431.38 6.431.38s-2.055-3.385-4.02-4.435c-2.751-1.46-6.704-.335-6.704-.335ZM280.415 57.52s.688 3.576-1.103 5.934c-2.245 2.951-5.026 3.857-5.026 3.857s-.173-3.887.862-5.82c1.436-2.707 5.267-3.97 5.267-3.97ZM264.447 59.826s.809 3.552 3.401 4.974c3.242 1.78 6.144 1.469 6.144 1.469s-1.413-3.621-3.129-4.968c-2.41-1.886-6.416-1.475-6.416-1.475ZM280.227 50.553s.06 3.568-2.071 5.538c-2.667 2.464-5.494 2.86-5.494 2.86s.491-3.773 1.814-5.47c1.836-2.365 5.751-2.928 5.751-2.928ZM264.417 50.044s.181 3.567 2.449 5.385c2.826 2.274 5.683 2.472 5.683 2.472s-.748-3.735-2.177-5.325c-2.018-2.243-5.955-2.532-5.955-2.532ZM281.217 43.434s-.544 3.453-2.932 4.99c-2.985 1.924-5.789 1.817-5.789 1.817s1.111-3.56 2.675-4.967c2.177-1.97 6.046-1.84 6.046-1.84ZM266.049 40.231s-.43 3.469 1.451 5.614c2.343 2.677 5.064 3.362 5.064 3.362s-.091-3.735-1.202-5.515c-1.564-2.502-5.313-3.46-5.313-3.46ZM283.432 36.489s-1.103 3.24-3.673 4.313c-3.212 1.346-5.895.76-5.895.76s1.678-3.248 3.416-4.335c2.441-1.522 6.152-.738 6.152-.738ZM269.337 30.799s-.997 3.278.454 5.667c1.814 2.982 4.323 4.107 4.323 4.107s.544-3.62-.227-5.53c-1.088-2.677-4.55-4.244-4.55-4.244ZM286.854 30.046s-1.617 2.936-4.277 3.537c-3.325.745-5.819-.274-5.819-.274s2.169-2.845 4.028-3.598c2.615-1.057 6.068.335 6.068.335ZM274.211 22.143s-1.519 2.99-.521 5.545c1.239 3.195 3.476 4.708 3.476 4.708s1.134-3.4.711-5.378c-.59-2.776-3.666-4.875-3.666-4.875ZM291.374 24.31s-2.056 2.556-4.731 2.678c-3.333.152-5.57-1.263-5.57-1.263s2.577-2.373 4.497-2.784c2.705-.563 5.804 1.37 5.804 1.37ZM280.506 14.52s-1.972 2.625-1.443 5.265c.657 3.293 2.562 5.134 2.562 5.134s1.67-3.088 1.594-5.066c-.105-2.776-2.713-5.332-2.713-5.332ZM296.77 19.503s-2.419 2.115-5.018 1.773c-3.243-.427-5.162-2.168-5.162-2.168s2.887-1.849 4.814-1.917c2.698-.084 5.366 2.312 5.366 2.312ZM287.935 8.192s-2.35 2.198-2.282 4.83c.075 3.294 1.602 5.393 1.602 5.393s2.139-2.692 2.403-4.617c.363-2.693-1.723-5.606-1.723-5.606ZM302.876 15.738s-2.691 1.628-5.139.852c-3.061-.966-4.618-2.974-4.618-2.974s3.099-1.293 4.973-1.02c2.615.38 4.784 3.142 4.784 3.142ZM296.263 3.309s-2.637 1.719-3.023 4.275c-.483 3.187.635 5.484.635 5.484s2.517-2.236 3.091-4.047c.816-2.54-.703-5.712-.703-5.712ZM309.428 13.129s-2.871 1.11-5.108-.053c-2.789-1.453-3.953-3.667-3.953-3.667s3.205-.715 4.973-.137c2.471.814 4.088 3.857 4.088 3.857ZM305.151 0s-2.834 1.21-3.635 3.605c-1.005 2.997-.318 5.401-.318 5.401s2.812-1.727 3.673-3.37c1.209-2.312.28-5.636.28-5.636ZM305.272 7.394s2.124 1.21 4.006.555c2.35-.814 3.514-2.411 3.514-2.411s-2.426-.936-3.877-.693c-2.018.358-3.643 2.549-3.643 2.549Z" fill="#FFE84D"/><path d="M337.731 89.681s-3.862 1.34-5.139 4.435c-1.602 3.872-.907 7.12-.907 7.12s3.87-2.024 5.162-4.123c1.821-2.951.884-7.432.884-7.432ZM344.51 106.705s-3.907 1.209-6.756-.54c-3.552-2.183-4.898-5.218-4.898-5.218s4.316-.655 6.59.273c3.197 1.309 5.064 5.485 5.064 5.485ZM343.747 86.342s-3.507 1.955-4.217 5.165c-.892 4.016.325 7.028.325 7.028s3.393-2.616 4.285-4.868c1.262-3.164-.393-7.325-.393-7.325ZM353.164 101.608s-3.567 1.834-6.613.632c-3.801-1.499-5.608-4.199-5.608-4.199s4.051-1.37 6.409-.86c3.303.715 5.812 4.427 5.812 4.427ZM349.142 82.006s-3.045 2.488-3.189 5.705c-.181 4.024 1.504 6.725 1.504 6.725s2.834-3.104 3.318-5.432c.672-3.263-1.633-6.998-1.633-6.998ZM360.811 95.128s-3.129 2.38-6.273 1.742c-3.922-.8-6.121-3.089-6.121-3.089s3.68-2.015 6.038-1.932c3.31.13 6.356 3.279 6.356 3.279ZM353.722 76.75s-2.524 2.921-2.116 6.055c.507 3.917 2.585 6.23 2.585 6.23s2.207-3.484 2.282-5.812c.106-3.263-2.751-6.473-2.751-6.473ZM367.205 87.414s-2.623 2.83-5.759 2.754c-3.922-.099-6.431-1.932-6.431-1.932s3.212-2.579 5.501-2.898c3.212-.449 6.689 2.076 6.689 2.076ZM357.357 70.787s-1.942 3.248-1.02 6.207c1.149 3.689 3.552 5.575 3.552 5.575s1.542-3.735 1.217-5.994c-.446-3.18-3.749-5.788-3.749-5.788ZM372.17 78.774s-2.048 3.18-5.094 3.643c-3.801.578-6.529-.768-6.529-.768s2.66-3.035 4.821-3.735c3.031-.981 6.802.86 6.802.86ZM359.867 64.314s-1.323 3.468.068 6.16c1.731 3.37 4.368 4.77 4.368 4.77s.854-3.872.166-5.994c-.974-2.982-4.602-4.936-4.602-4.936ZM375.511 69.478s-1.436 3.423-4.3 4.39c-3.575 1.209-6.432.38-6.432.38s2.056-3.385 4.013-4.435c2.766-1.46 6.719-.335 6.719-.335ZM361.25 57.52s-.688 3.576 1.103 5.934c2.245 2.951 5.026 3.857 5.026 3.857s.174-3.888-.854-5.82c-1.444-2.708-5.275-3.97-5.275-3.97ZM377.226 59.826s-.808 3.552-3.408 4.974c-3.242 1.78-6.144 1.469-6.144 1.469s1.413-3.621 3.129-4.968c2.41-1.886 6.423-1.475 6.423-1.475ZM361.439 50.553s-.061 3.568 2.07 5.538c2.661 2.464 5.495 2.86 5.495 2.86s-.492-3.773-1.814-5.47c-1.844-2.365-5.751-2.928-5.751-2.928ZM377.248 50.044s-.181 3.567-2.441 5.385c-2.826 2.274-5.683 2.472-5.683 2.472s.748-3.735 2.177-5.324c2.01-2.244 5.947-2.533 5.947-2.533ZM360.448 43.434s.544 3.453 2.933 4.99c2.985 1.924 5.788 1.817 5.788 1.817s-1.11-3.56-2.675-4.967c-2.176-1.97-6.046-1.84-6.046-1.84ZM375.616 40.231s.431 3.469-1.451 5.614c-2.343 2.677-5.063 3.362-5.063 3.362s.09-3.735 1.201-5.515c1.565-2.502 5.313-3.46 5.313-3.46ZM358.234 36.489s1.111 3.24 3.681 4.313c3.212 1.346 5.895.76 5.895.76s-1.678-3.248-3.416-4.335c-2.449-1.522-6.16-.738-6.16-.738ZM372.329 30.799s.997 3.278-.454 5.667c-1.813 2.982-4.322 4.107-4.322 4.107s-.544-3.62.226-5.53c1.089-2.677 4.55-4.244 4.55-4.244ZM354.811 30.046s1.617 2.936 4.277 3.537c3.325.745 5.819-.274 5.819-.274s-2.169-2.845-4.028-3.598c-2.622-1.057-6.068.335-6.068.335ZM367.454 22.143s1.519 2.99.529 5.545c-1.24 3.195-3.477 4.708-3.477 4.708s-1.133-3.4-.71-5.377c.582-2.777 3.658-4.876 3.658-4.876ZM350.291 24.31s2.056 2.556 4.723 2.678c3.333.152 5.57-1.263 5.57-1.263s-2.577-2.373-4.496-2.784c-2.698-.563-5.797 1.37-5.797 1.37ZM361.158 14.52s1.973 2.625 1.444 5.265c-.658 3.293-2.562 5.134-2.562 5.134s-1.67-3.088-1.602-5.066c.113-2.776 2.72-5.332 2.72-5.332ZM344.896 19.503s2.418 2.115 5.018 1.773c3.242-.427 5.161-2.168 5.161-2.168s-2.887-1.849-4.814-1.917c-2.705-.084-5.365 2.312-5.365 2.312ZM353.73 8.192s2.351 2.198 2.283 4.83c-.076 3.294-1.603 5.393-1.603 5.393s-2.138-2.692-2.395-4.617c-.371-2.693 1.715-5.606 1.715-5.606ZM338.789 15.738s2.69 1.628 5.139.852c3.061-.966 4.618-2.974 4.618-2.974s-3.099-1.293-4.973-1.02c-2.623.38-4.784 3.142-4.784 3.142ZM345.402 3.309s2.637 1.719 3.023 4.275c.483 3.187-.635 5.484-.635 5.484s-2.517-2.236-3.091-4.047c-.816-2.54.703-5.712.703-5.712ZM332.237 13.129s2.88 1.11 5.109-.053c2.789-1.453 3.953-3.667 3.953-3.667s-3.205-.715-4.966-.137c-2.478.814-4.096 3.857-4.096 3.857ZM336.514 0s2.842 1.21 3.643 3.605c.998 2.997.317 5.401.317 5.401s-2.803-1.727-3.672-3.37C335.585 3.324 336.514 0 336.514 0ZM336.386 7.394s-2.124 1.21-4.006.555c-2.35-.814-3.514-2.411-3.514-2.411s2.434-.936 3.877-.693c2.026.358 3.643 2.549 3.643 2.549Z" fill="#FFE84D"/><path d="M301.547 45.069c0-.32-.174-.487-.484-.487H299c-.318 0-.484.175-.484.487v.981c0 .32.174.419.484.487l2.667.578c1.119.244 2.064.92 2.064 2.077v1.871c0 1.21-.832 2.046-2.033 2.046h-3.212c-1.202 0-2.033-.837-2.033-2.046v-1.324h2.003v.92c0 .32.173.488.483.488h2.237c.318 0 .484-.175.484-.487v-1.095c0-.32-.174-.419-.484-.487l-2.668-.578c-1.118-.244-2.063-.92-2.063-2.077v-1.757c0-1.21.832-2.046 2.033-2.046h3.038c1.202 0 2.033.836 2.033 2.046v1.21h-2.002v-.807ZM311.87 42.673v1.962h-4.686v2.13h3.794v1.963h-3.794v2.365h4.686v1.963h-6.749V42.673h6.749ZM314.878 53.048h-2.131l3.325-10.375h2.404l3.325 10.375h-2.222l-.673-2.335h-3.34l-.688 2.335Zm1.262-4.29h2.207l-1.088-3.803-1.119 3.803ZM328.285 53.048l-1.663-3.849h-1.662v3.85h-2.064V42.672h5.26c1.202 0 2.033.837 2.033 2.046v2.434c0 .981-.544 1.712-1.405 1.963l1.715 3.932h-2.214Zm-.159-7.926c0-.32-.174-.487-.483-.487h-2.676v2.64h2.676c.317 0 .483-.175.483-.487v-1.666ZM336.771 45.069c0-.32-.173-.487-.483-.487h-2.237c-.318 0-.484.175-.484.487v5.59c0 .32.174.488.484.488h2.237c.317 0 .483-.175.483-.487v-1.27h2.064v1.673c0 1.21-.832 2.046-2.033 2.046h-3.265c-1.202 0-2.033-.837-2.033-2.046v-6.397c0-1.21.831-2.046 2.033-2.046h3.265c1.201 0 2.033.836 2.033 2.046v1.673h-2.064v-1.27ZM340.173 42.673h2.063v4.092h3.552v-4.092h2.063v10.375h-2.063V48.72h-3.552v4.328h-2.063V42.673ZM294.911 65.523h-2.131l3.326-10.383h2.403l3.325 10.383h-2.222l-.672-2.335h-3.341l-.688 2.335Zm1.263-4.29h2.206l-1.088-3.803-1.118 3.803ZM309.218 65.523l-1.693-6.83-1.693 6.83h-2.033l-2.562-10.375h2.207l1.406 7.583 1.859-7.583h1.632l1.859 7.583 1.406-7.583h2.124l-2.562 10.383h-1.95v-.008ZM315.279 65.523h-2.132l3.326-10.383h2.403l3.325 10.383h-2.222l-.672-2.335h-3.341l-.687 2.335Zm1.262-4.29h2.206l-1.088-3.803-1.118 3.803ZM328.685 65.523l-1.662-3.849h-1.663v3.85h-2.063V55.147h5.26c1.201 0 2.033.836 2.033 2.046v2.434c0 .981-.544 1.712-1.406 1.962l1.716 3.933h-2.215Zm-.158-7.926c0-.32-.174-.487-.484-.487h-2.675v2.64h2.675c.317 0 .484-.175.484-.487v-1.666ZM337.55 55.148c1.202 0 2.033.836 2.033 2.046v6.283c0 1.21-.831 2.046-2.033 2.046h-5.373V55.148h5.373Zm-.514 8.42c.318 0 .484-.175.484-.487v-5.476c0-.32-.174-.487-.484-.487h-2.796v6.458h2.796v-.008ZM345.969 57.536c0-.32-.173-.487-.483-.487h-2.063c-.318 0-.484.175-.484.487v.981c0 .32.174.419.484.487l2.667.578c1.119.244 2.063.92 2.063 2.077v1.871c0 1.21-.831 2.046-2.032 2.046h-3.212c-1.202 0-2.033-.836-2.033-2.046v-1.323h2.002v.928c0 .32.174.486.484.486h2.237c.317 0 .484-.175.484-.486v-1.096c0-.32-.174-.418-.484-.487l-2.668-.578c-1.118-.243-2.063-.92-2.063-2.076V57.14c0-1.21.831-2.047 2.033-2.047h3.038c1.202 0 2.033.837 2.033 2.047v1.21h-2.003v-.815Z" fill="#fff"/><path d="M332.547 40.474c-1.21 0-2.047-.837-2.047-2.047v-8.39h2.077v7.987c0 .32.175.487.487.487h.921v1.962h-1.438Zm2.792-1.963c.32 0 .487-.175.487-.487v-7.987h2.077v8.39c0 1.21-.837 2.047-2.047 2.047h-1.445V38.51h.928Z" fill="#3B75C4"/><path fill-rule="evenodd" clip-rule="evenodd" d="M342.075 37.7v2.627h-2.136v-10.29h2.136v4.83l3.741-4.83h2.544l-3.323 4.062 3.485 6.237h-2.44l-2.497-4.477-1.51 1.841Z" fill="#3B75C4"/><path d="M322.645 77.956h-3.423v-3.491c0-1.156.975-1.704 2.063-2.077l2.464-.867c.37-.13.574-.205.574-.578v-.898c0-.372-.204-.578-.574-.578h-.673v-1.962h1.247c1.149 0 2.063.92 2.063 2.076V71.4c0 1.156-.975 1.704-2.063 2.077l-2.464.867c-.37.13-.574.205-.574.578v1.065h1.36v1.97Zm-3.302-8.36c0-1.156.914-2.076 2.063-2.076h1.247v1.963h-.733c-.371 0-.575.205-.575.578v.661h-2.002v-1.125Zm3.733 8.36v-1.962h3.34v1.962h-3.34ZM330.157 69.482c-.317 0-.484.175-.484.487v5.591c0 .32.174.487.484.487h.877v1.962h-1.399c-1.201 0-2.032-.836-2.032-2.046v-6.397c0-1.21.831-2.046 2.032-2.046h1.391v1.962h-.869Zm2.705-1.962c1.202 0 2.033.837 2.033 2.046v6.397c0 1.21-.831 2.046-2.033 2.046h-1.405v-1.962h.892c.317 0 .483-.175.483-.487v-5.59c0-.32-.174-.488-.483-.488h-.892V67.52h1.405ZM339.483 77.956h-3.423v-3.491c0-1.156.974-1.704 2.063-2.077l2.463-.867c.371-.13.575-.205.575-.578v-.898c0-.372-.204-.578-.575-.578h-.672v-1.962h1.247c1.149 0 2.063.92 2.063 2.076V71.4c0 1.156-.975 1.704-2.063 2.077l-2.464.867c-.37.13-.574.205-.574.578v1.065h1.36v1.97Zm-3.303-8.36c0-1.156.915-2.076 2.064-2.076h1.247v1.963h-.733c-.371 0-.575.205-.575.578v.661h-2.003v-1.125Zm3.734 8.36v-1.962h3.34v1.962h-3.34ZM346.037 69.741l-1.874.662v-1.727l2.305-1.095h1.632v10.383h-2.063v-8.223Z" fill="#3B75C3"/></g><g clip-path="url(#c)"><path d="M459.972 111.07s-6.11-7.44-20.375-9.859c-13.886-3.24-30.685-16.787-34.992-35.811-4.991-18.842 3.409-38.543 14.152-47.754 10.667-9.668 20.665-11.167 20.467-11.296.243.29-9.67 2.016-20.071 11.722-10.485 9.265-18.466 28.707-13.406 47.046 4.397 18.522 20.839 31.492 34.276 34.504a46.445 46.445 0 0 1 8.597 2.16c9.48 3.362 13.125 7.698 13.125 7.698l-1.773 1.59Z" fill="#FFE84D"/><path d="M445.029 111.07s6.109-7.44 20.375-9.859c13.885-3.24 30.677-16.787 34.991-35.811 4.991-18.842-3.408-38.543-14.151-47.754-10.667-9.668-20.665-11.167-20.46-11.296-.243.29 9.671 2.016 20.064 11.722 10.484 9.265 18.466 28.707 13.406 47.046-4.398 18.522-20.847 31.492-34.276 34.504a46.456 46.456 0 0 0-8.598 2.16c-9.48 3.362-13.124 7.698-13.124 7.698l1.773 1.59ZM435.488 89.444s3.888 1.339 5.174 4.435c1.612 3.871.913 7.119.913 7.119s-3.896-2.023-5.197-4.122c-1.834-2.952-.89-7.432-.89-7.432ZM428.663 106.468s3.934 1.209 6.802-.54c3.584-2.184 4.93-5.219 4.93-5.219s-4.344-.654-6.634.274c-3.219 1.309-5.098 5.485-5.098 5.485ZM429.431 86.105s3.523 1.955 4.238 5.165c.898 4.016-.327 7.028-.327 7.028s-3.417-2.617-4.314-4.868c-1.263-3.164.403-7.325.403-7.325ZM419.951 101.371s3.591 1.833 6.658.632c3.827-1.499 5.645-4.2 5.645-4.2s-4.078-1.368-6.452-.859c-3.332.715-5.851 4.427-5.851 4.427ZM424 81.77s3.066 2.487 3.21 5.704c.183 4.024-1.514 6.724-1.514 6.724s-2.853-3.103-3.332-5.43c-.685-3.264 1.636-6.999 1.636-6.999ZM412.252 94.89s3.15 2.381 6.315 1.742c3.949-.798 6.163-3.088 6.163-3.088s-3.706-2.016-6.079-1.932c-3.333.13-6.399 3.279-6.399 3.279ZM419.388 76.513s2.541 2.92 2.13 6.055c-.51 3.917-2.602 6.23-2.602 6.23s-2.222-3.484-2.298-5.812c-.106-3.263 2.77-6.473 2.77-6.473ZM405.814 87.177s2.641 2.83 5.798 2.754c3.949-.099 6.475-1.932 6.475-1.932s-3.234-2.579-5.539-2.898c-3.241-.45-6.734 2.076-6.734 2.076ZM415.729 70.55s1.956 3.248 1.027 6.207c-1.156 3.689-3.576 5.575-3.576 5.575s-1.552-3.735-1.225-5.994c.449-3.18 3.774-5.788 3.774-5.788ZM400.816 78.537s2.062 3.18 5.128 3.643c3.828.578 6.574-.768 6.574-.768s-2.678-3.035-4.854-3.735c-3.051-.981-6.848.86-6.848.86ZM413.203 64.076s1.331 3.469-.069 6.162c-1.742 3.37-4.397 4.769-4.397 4.769s-.86-3.872-.168-5.994c.982-2.982 4.634-4.937 4.634-4.937ZM397.453 69.241s1.446 3.423 4.322 4.39c3.591 1.209 6.474.38 6.474.38s-2.069-3.385-4.047-4.435c-2.77-1.46-6.749-.335-6.749-.335ZM411.81 57.284s.693 3.575-1.11 5.933c-2.26 2.951-5.06 3.856-5.06 3.856s-.175-3.887.867-5.819c1.446-2.708 5.303-3.97 5.303-3.97ZM395.733 59.589s.815 3.552 3.424 4.974c3.264 1.78 6.186 1.468 6.186 1.468s-1.423-3.62-3.15-4.967c-2.427-1.886-6.46-1.475-6.46-1.475ZM411.62 50.316s.061 3.567-2.085 5.538c-2.686 2.464-5.531 2.86-5.531 2.86s.494-3.773 1.826-5.47c1.849-2.365 5.79-2.928 5.79-2.928ZM395.703 49.806s.183 3.568 2.465 5.386c2.846 2.274 5.722 2.472 5.722 2.472s-.753-3.735-2.191-5.325c-2.032-2.244-5.996-2.533-5.996-2.533ZM412.617 43.196s-.548 3.454-2.952 4.99c-3.005 1.925-5.828 1.818-5.828 1.818s1.118-3.56 2.693-4.967c2.192-1.97 6.087-1.84 6.087-1.84ZM397.346 39.994s-.433 3.468 1.461 5.614c2.359 2.677 5.098 3.362 5.098 3.362s-.091-3.735-1.21-5.515c-1.575-2.503-5.349-3.461-5.349-3.461ZM414.846 36.251s-1.111 3.24-3.698 4.313c-3.233 1.347-5.934.761-5.934.761s1.689-3.248 3.439-4.336c2.457-1.521 6.193-.738 6.193-.738ZM400.656 30.562s-1.004 3.278.456 5.667c1.826 2.981 4.352 4.107 4.352 4.107s.548-3.62-.228-5.53c-1.095-2.677-4.58-4.244-4.58-4.244ZM418.293 29.809s-1.628 2.936-4.307 3.537c-3.347.745-5.858-.274-5.858-.274s2.184-2.845 4.055-3.598c2.633-1.057 6.11.335 6.11.335ZM405.564 21.905s-1.529 2.99-.525 5.546c1.248 3.194 3.5 4.708 3.5 4.708s1.141-3.4.715-5.378c-.593-2.776-3.69-4.875-3.69-4.875ZM422.842 24.073s-2.07 2.556-4.763 2.678c-3.355.152-5.607-1.263-5.607-1.263s2.594-2.373 4.527-2.784c2.724-.563 5.843 1.37 5.843 1.37ZM411.901 14.284s-1.985 2.624-1.453 5.263c.662 3.294 2.579 5.135 2.579 5.135s1.682-3.088 1.606-5.066c-.107-2.776-2.732-5.332-2.732-5.332ZM428.275 19.266s-2.435 2.115-5.052 1.772c-3.264-.426-5.197-2.168-5.197-2.168s2.907-1.848 4.847-1.916c2.716-.084 5.402 2.312 5.402 2.312ZM419.38 7.955s-2.366 2.198-2.297 4.83c.076 3.294 1.613 5.393 1.613 5.393s2.153-2.693 2.419-4.617c.365-2.693-1.735-5.606-1.735-5.606ZM434.422 15.5s-2.708 1.628-5.174.853c-3.081-.966-4.648-2.975-4.648-2.975s3.119-1.293 5.006-1.019c2.632.38 4.816 3.142 4.816 3.142ZM427.765 3.072s-2.655 1.719-3.043 4.274c-.487 3.188.639 5.485.639 5.485s2.533-2.236 3.112-4.047c.821-2.54-.708-5.712-.708-5.712ZM441.019 12.892s-2.891 1.11-5.143-.054c-2.808-1.452-3.98-3.666-3.98-3.666s3.226-.715 5.007-.137c2.488.814 4.116 3.857 4.116 3.857ZM436.712-.237s-2.853 1.21-3.659 3.605c-1.012 2.997-.32 5.4-.32 5.4s2.83-1.726 3.698-3.369c1.217-2.312.281-5.636.281-5.636ZM436.834 7.156s2.138 1.21 4.032.556c2.367-.814 3.538-2.412 3.538-2.412s-2.442-.935-3.903-.692c-2.031.358-3.667 2.548-3.667 2.548Z" fill="#FFE84D"/><path d="M469.512 89.444s-3.888 1.339-5.173 4.435c-1.613 3.871-.913 7.119-.913 7.119s3.895-2.023 5.196-4.122c1.834-2.952.89-7.432.89-7.432ZM476.337 106.467s-3.934 1.21-6.802-.54c-3.576-2.183-4.931-5.218-4.931-5.218s4.345-.654 6.635.274c3.218 1.309 5.098 5.484 5.098 5.484ZM475.569 86.105s-3.531 1.955-4.246 5.165c-.898 4.016.327 7.028.327 7.028s3.416-2.617 4.314-4.868c1.271-3.164-.395-7.325-.395-7.325ZM485.049 101.371s-3.591 1.833-6.657.632c-3.827-1.499-5.646-4.2-5.646-4.2s4.078-1.368 6.452-.859c3.325.715 5.851 4.427 5.851 4.427ZM481.001 81.77s-3.066 2.487-3.211 5.704c-.182 4.024 1.514 6.724 1.514 6.724s2.853-3.103 3.34-5.43c.677-3.264-1.643-6.999-1.643-6.999ZM492.748 94.89s-3.15 2.381-6.315 1.742c-3.948-.798-6.162-3.088-6.162-3.088s3.705-2.016 6.079-1.932c3.332.13 6.398 3.279 6.398 3.279ZM485.612 76.513s-2.541 2.92-2.131 6.055c.51 3.917 2.603 6.23 2.603 6.23s2.221-3.484 2.297-5.812c.107-3.263-2.769-6.473-2.769-6.473ZM499.185 87.177s-2.64 2.83-5.797 2.754c-3.949-.1-6.475-1.932-6.475-1.932s3.234-2.579 5.539-2.898c3.234-.45 6.733 2.076 6.733 2.076ZM489.271 70.55s-1.955 3.247-1.027 6.206c1.157 3.69 3.576 5.576 3.576 5.576s1.552-3.735 1.225-5.994c-.449-3.18-3.774-5.789-3.774-5.789ZM504.184 78.537s-2.062 3.18-5.128 3.643c-3.827.578-6.574-.768-6.574-.768s2.679-3.035 4.855-3.735c3.051-.981 6.847.86 6.847.86ZM491.798 64.076s-1.332 3.469.068 6.162c1.742 3.37 4.398 4.769 4.398 4.769s.859-3.872.167-5.994c-.981-2.982-4.633-4.937-4.633-4.937ZM507.547 69.241s-1.445 3.423-4.329 4.39c-3.599 1.209-6.475.38-6.475.38s2.07-3.385 4.04-4.435c2.785-1.46 6.764-.335 6.764-.335ZM493.19 57.284s-.692 3.575 1.111 5.933c2.26 2.951 5.06 3.856 5.06 3.856s.175-3.887-.86-5.819c-1.453-2.708-5.311-3.97-5.311-3.97ZM509.274 59.589s-.814 3.552-3.431 4.974c-3.264 1.78-6.186 1.468-6.186 1.468s1.423-3.62 3.15-4.967c2.427-1.886 6.467-1.475 6.467-1.475ZM493.38 50.316s-.061 3.567 2.085 5.538c2.678 2.464 5.531 2.86 5.531 2.86s-.494-3.773-1.826-5.47c-1.856-2.365-5.79-2.928-5.79-2.928ZM509.297 49.806s-.182 3.568-2.457 5.386c-2.846 2.274-5.722 2.472-5.722 2.472s.753-3.735 2.191-5.325c2.024-2.243 5.988-2.533 5.988-2.533ZM492.384 43.196s.548 3.454 2.952 4.99c3.005 1.925 5.828 1.818 5.828 1.818s-1.119-3.56-2.693-4.967c-2.192-1.97-6.087-1.84-6.087-1.84ZM507.654 39.994s.434 3.468-1.461 5.614c-2.358 2.677-5.097 3.362-5.097 3.362s.091-3.735 1.209-5.515c1.575-2.503 5.349-3.461 5.349-3.461ZM490.154 36.251s1.119 3.24 3.706 4.313c3.233 1.347 5.934.761 5.934.761s-1.689-3.248-3.439-4.336c-2.465-1.521-6.201-.738-6.201-.738ZM504.344 30.562s1.004 3.278-.457 5.667c-1.826 2.981-4.352 4.107-4.352 4.107s-.547-3.62.229-5.53c1.095-2.677 4.58-4.244 4.58-4.244ZM486.708 29.809s1.628 2.936 4.306 3.537c3.348.745 5.859-.274 5.859-.274s-2.184-2.845-4.055-3.598c-2.641-1.057-6.11.335-6.11.335ZM499.437 21.906s1.529 2.989.533 5.545c-1.248 3.195-3.5 4.708-3.5 4.708s-1.142-3.4-.716-5.378c.586-2.776 3.683-4.875 3.683-4.875ZM482.158 24.073s2.07 2.556 4.755 2.678c3.356.152 5.608-1.263 5.608-1.263s-2.595-2.373-4.527-2.784c-2.716-.563-5.836 1.37-5.836 1.37ZM493.099 14.284s1.986 2.624 1.454 5.263c-.662 3.294-2.58 5.135-2.58 5.135s-1.681-3.088-1.613-5.066c.115-2.776 2.739-5.332 2.739-5.332ZM476.726 19.266s2.434 2.115 5.052 1.772c3.264-.426 5.196-2.168 5.196-2.168s-2.906-1.848-4.846-1.916c-2.724-.084-5.402 2.312-5.402 2.312ZM485.62 7.955s2.366 2.198 2.298 4.83c-.076 3.294-1.613 5.393-1.613 5.393s-2.153-2.693-2.412-4.617c-.373-2.693 1.727-5.606 1.727-5.606ZM470.578 15.5s2.709 1.628 5.174.853c3.081-.966 4.649-2.975 4.649-2.975s-3.12-1.293-5.007-1.019c-2.64.38-4.816 3.142-4.816 3.142ZM477.235 3.071s2.656 1.72 3.044 4.275c.487 3.188-.639 5.485-.639 5.485s-2.534-2.237-3.112-4.047c-.822-2.54.707-5.713.707-5.713ZM463.981 12.892s2.899 1.11 5.144-.054c2.807-1.452 3.979-3.666 3.979-3.666s-3.226-.715-4.999-.137c-2.495.814-4.124 3.857-4.124 3.857ZM468.288-.237s2.861 1.21 3.667 3.605c1.005 2.997.32 5.4.32 5.4s-2.823-1.726-3.698-3.369c-1.225-2.312-.289-5.636-.289-5.636ZM468.158 7.156s-2.138 1.21-4.032.556c-2.366-.814-3.538-2.412-3.538-2.412s2.45-.935 3.903-.692c2.039.358 3.667 2.548 3.667 2.548Z" fill="#FFE84D"/><path d="M421.32 43.584v-9.166h1.834v9.166h-1.834Zm5.996-7.431h-3.782v-1.735h3.782v1.735Zm-.792 3.613h-2.99v-1.734h2.99v1.734Zm.792 3.818h-3.782V41.85h3.782v1.734ZM430.245 43.638c-1.072 0-1.81-.738-1.81-1.81v-7.41h1.833v7.052c0 .281.152.433.434.433h.814v1.735h-1.271Zm2.466-1.735c.281 0 .433-.152.433-.433v-7.052h1.834v7.41c0 1.072-.738 1.81-1.811 1.81h-1.271v-1.735h.815ZM438.15 34.418v9.166h-1.834v-9.166h1.834Zm2.952 9.166-1.476-3.4h-1.096V38.48h2.001c.282 0 .434-.152.434-.433v-1.46c0-.282-.152-.434-.434-.434h-2.001v-1.735h2.458c1.073 0 1.811.738 1.811 1.81v2.153c0 .868-.487 1.514-1.248 1.735l1.529 3.476h-1.978v-.008ZM446.238 36.1c-.282 0-.434.151-.434.433v4.944c0 .282.152.434.434.434h.89v1.734h-1.354c-1.073 0-1.811-.738-1.811-1.81v-5.652c0-1.072.738-1.81 1.811-1.81h1.354v1.734h-.89v-.008Zm2.61-1.727c1.065 0 1.81.738 1.81 1.81v5.652c0 1.072-.738 1.81-1.81 1.81h-1.332v-1.742h.875c.282 0 .434-.152.434-.433v-4.945c0-.281-.152-.433-.434-.433h-.875v-1.72h1.332ZM451.952 43.584v-9.166h1.834v9.166h-1.834Zm4.687-9.166c1.073 0 1.811.738 1.811 1.81v2.32c0 1.073-.738 1.811-1.811 1.811h-2.473v-1.734h2.009c.281 0 .434-.152.434-.434v-1.605c0-.281-.153-.433-.434-.433h-2.009v-1.735h2.473ZM459.568 43.584v-9.166h1.834v9.166h-1.834Zm5.996-7.431h-3.782v-1.735h3.782v1.735Zm-.784 3.613h-2.99v-1.734h2.99v1.734Zm.784 3.818h-3.782V41.85h3.782v1.734ZM469.307 34.418h.091l.791 2.716-1.932 6.458h-1.895l2.945-9.174Zm2.526 7.105h-2.61l.51-1.734h1.605l-1.552-5.37h1.666l2.952 9.165h-1.97l-.601-2.061ZM477.113 43.584h-1.719v-8.717l1.719 3.195v5.522Zm-1.567-9.166h1.818l4.938 9.166h-1.818l-4.938-9.166Zm5.196 5.53v-5.522h1.72v8.725l-1.72-3.203Z" fill="#EFC43A"/><path d="M441.246 47.547c0-.281-.152-.433-.433-.433h-1.834c-.281 0-.434.152-.434.433v.867c0 .282.153.373.434.434l2.366.51c.989.213 1.834.813 1.834 1.833v1.658c0 1.072-.738 1.81-1.811 1.81h-2.853c-1.073 0-1.811-.738-1.811-1.81v-1.171h1.78v.813c0 .282.153.434.434.434h1.986c.281 0 .434-.152.434-.434v-.966c0-.281-.153-.372-.434-.433l-2.366-.51c-.989-.22-1.826-.814-1.826-1.833v-1.552c0-1.072.738-1.81 1.811-1.81h2.701c1.072 0 1.81.738 1.81 1.81v1.073h-1.78v-.723h-.008ZM450.438 45.44v1.734h-4.162v1.887h3.378v1.734h-3.378v2.092h4.162v1.734h-5.996v-9.18h5.996ZM453.116 54.606h-1.894l2.952-9.166h2.138l2.952 9.166h-1.978l-.601-2.061h-2.968l-.601 2.061Zm1.126-3.796h1.963l-.966-3.362-.997 3.362ZM465.046 54.606l-1.476-3.4h-1.476v3.4h-1.833V45.44h4.671c1.073 0 1.811.738 1.811 1.81v2.153c0 .867-.487 1.514-1.248 1.734l1.53 3.477h-1.979v-.008Zm-.136-7.006c0-.281-.153-.433-.434-.433h-2.382v2.327h2.382c.281 0 .434-.152.434-.433V47.6ZM472.602 47.547c0-.281-.153-.433-.434-.433h-1.986c-.281 0-.434.152-.434.433v4.944c0 .282.153.434.434.434h1.986c.281 0 .434-.152.434-.434v-1.118h1.833v1.476c0 1.072-.738 1.81-1.811 1.81h-2.906c-1.073 0-1.811-.738-1.811-1.81v-5.652c0-1.072.738-1.81 1.811-1.81h2.906c1.073 0 1.811.738 1.811 1.81v1.476h-1.833v-1.126ZM475.637 45.44h1.833v3.613h3.158V45.44h1.834v9.166h-1.834v-3.819h-3.158v3.819h-1.833V45.44ZM435.351 65.62h-1.895l2.952-9.166h2.138l2.952 9.166h-1.97l-.601-2.06h-2.968l-.608 2.06Zm1.118-3.795h1.963l-.966-3.362-.997 3.362ZM448.072 65.62l-1.499-6.032-1.499 6.032h-1.811l-2.283-9.166h1.963l1.248 6.694 1.659-6.694h1.453l1.659 6.694 1.248-6.694h1.886l-2.282 9.166h-1.742ZM453.474 65.62h-1.895l2.952-9.166h2.138l2.952 9.166h-1.978l-.601-2.06h-2.967l-.601 2.06Zm1.126-3.795h1.963l-.967-3.362-.996 3.362ZM465.404 65.62l-1.476-3.4h-1.476v3.4h-1.834v-9.166h4.672c1.073 0 1.811.738 1.811 1.81v2.153c0 .868-.487 1.514-1.248 1.735l1.529 3.476h-1.978v-.008Zm-.137-7.005c0-.282-.152-.434-.434-.434h-2.381v2.328h2.381c.282 0 .434-.152.434-.434v-1.46ZM473.294 56.455c1.073 0 1.811.737 1.811 1.81v5.553c0 1.072-.738 1.81-1.811 1.81h-4.778v-9.173h4.778Zm-.457 7.431c.282 0 .434-.152.434-.433v-4.838c0-.282-.152-.434-.434-.434h-2.48v5.705h2.48ZM480.788 58.57c0-.282-.152-.434-.433-.434h-1.834c-.281 0-.434.152-.434.433v.867c0 .282.153.373.434.434l2.366.51c.997.212 1.834.813 1.834 1.833v1.658c0 1.072-.738 1.81-1.811 1.81h-2.853c-1.073 0-1.811-.737-1.811-1.81V62.7h1.78v.813c0 .282.153.434.434.434h1.986c.281 0 .434-.152.434-.434v-.966c0-.281-.153-.372-.434-.433l-2.366-.51c-.989-.22-1.834-.814-1.834-1.833v-1.552c0-1.072.738-1.81 1.811-1.81h2.701c1.073 0 1.811.738 1.811 1.81v1.073h-1.781v-.723Z" fill="#fff"/><path d="M456.247 76.635h-3.044v-3.081c0-1.02.867-1.506 1.834-1.833l2.191-.76c.335-.115.51-.176.51-.51v-.791c0-.335-.175-.51-.51-.51h-.601v-1.735h1.111c1.019 0 1.833.814 1.833 1.834v1.605c0 1.019-.867 1.506-1.833 1.833l-2.191.76c-.335.115-.51.175-.51.51v.943h1.21v1.735Zm-2.945-7.386c0-1.02.814-1.834 1.834-1.834h1.111v1.735h-.647c-.327 0-.51.175-.51.51v.585h-1.78v-.996h-.008Zm3.325 7.386V74.9h2.967v1.735h-2.967ZM471.439 76.635h-3.043v-3.081c0-1.02.867-1.506 1.833-1.833l2.191-.76c.335-.115.51-.176.51-.51v-.791c0-.335-.175-.51-.51-.51h-.601v-1.735h1.111c1.02 0 1.834.814 1.834 1.834v1.605c0 1.019-.868 1.506-1.834 1.833l-2.191.76c-.335.115-.51.175-.51.51v.943h1.21v1.735Zm-2.945-7.386c0-1.02.815-1.834 1.834-1.834h1.111v1.735h-.647c-.327 0-.51.175-.51.51v.585h-1.78v-.996h-.008Zm3.325 7.386V74.9h2.968v1.735h-2.968ZM462.926 69.15c-.281 0-.433.152-.433.433v4.945c0 .281.152.433.433.433h.777v1.735h-1.233c-1.073 0-1.811-.738-1.811-1.81v-5.652c0-1.073.738-1.81 1.811-1.81h1.233v1.733h-.777v-.007Zm2.405-1.734c1.073 0 1.811.737 1.811 1.81v5.652c0 1.072-.738 1.81-1.811 1.81h-1.248v-1.734h.791c.282 0 .434-.152.434-.434v-4.944c0-.282-.152-.434-.434-.434h-.791v-1.734h1.248v.008ZM478.118 69.15c-.282 0-.434.152-.434.433v4.945c0 .281.152.433.434.433h.776v1.735h-1.233c-1.072 0-1.81-.738-1.81-1.81v-5.652c0-1.073.738-1.81 1.81-1.81h1.233v1.733h-.776v-.007Zm2.404-1.734c1.073 0 1.811.737 1.811 1.81v5.652c0 1.072-.738 1.81-1.811 1.81h-1.248v-1.734h.792c.281 0 .433-.152.433-.434v-4.944c0-.282-.152-.434-.433-.434h-.792v-1.734h1.248v.008Z" fill="#EFC43A"/></g></g><defs><clipPath id="a"><path fill="#fff" d="M0 0h510v111.567H0z"/></clipPath><clipPath id="b"><path fill="#fff" transform="translate(263.333)" d="M0 0h115v111.567H0z"/></clipPath><clipPath id="c"><path fill="#fff" transform="translate(395)" d="M0 0h115v111.567H0z"/></clipPath></defs></svg>