<svg width="140" height="140" viewBox="0 0 140 140" fill="none" xmlns="http://www.w3.org/2000/svg">
<path d="M115.144 52.0555C111.093 38.873 103.176 26.2436 92.4043 17.486C92.036 17.1173 91.3915 17.1173 90.9312 17.3016L73.6229 25.1374C58.156 22.2797 42.689 21.6344 27.7745 27.1655C27.2221 27.3499 26.9459 27.8108 26.8538 28.3639C26.6697 32.6044 25.749 50.304 25.749 50.304C15.4377 61.1819 7.33598 74.9175 5.40261 89.7593C5.31054 90.3125 5.58674 90.7734 5.955 91.0499L24.5522 104.048C28.603 117.231 36.5207 129.86 47.2923 138.618C47.6606 138.986 48.305 138.986 48.7653 138.802L66.0736 130.966C81.5406 133.824 97.0075 134.469 111.922 128.938C112.474 128.754 112.751 128.293 112.843 127.74L113.948 105.8C124.259 94.9217 132.361 81.1861 134.294 66.2521C134.386 65.699 134.11 65.238 133.742 64.9615L115.144 52.0555Z" fill="white"/>
<path d="M97.3129 28.456C93.6303 26.3357 88.6588 25.0451 82.9507 24.5842C76.23 24.0311 68.4044 24.7685 60.3027 26.8888C51.5565 29.1934 43.9151 32.6965 38.115 36.8448C33.1434 40.3479 29.5529 44.3118 27.8037 48.1836C26.6989 44.6806 26.1465 40.9932 26.1465 37.2136C26.1465 22.1874 35.353 9.2814 48.4263 3.84247C49.7152 3.28935 51.0041 2.82843 52.3851 2.45968C55.5153 1.53783 58.8296 1.0769 62.3281 1.0769C79.1761 1.0769 93.3541 12.6923 97.3129 28.456Z" fill="white"/>
<path d="M97.3131 28.456C95.9321 27.6263 94.4591 26.981 92.7099 26.4279C87.4621 12.8766 74.3889 3.28935 59.014 3.28935C55.6076 3.28935 52.2932 3.75028 49.071 4.67213C47.69 5.04088 46.4011 5.5018 45.1121 6.05492C43.455 6.7924 41.7057 7.62207 40.1406 8.63611C42.6264 6.70021 45.4804 5.04088 48.4265 3.84247C49.7154 3.28935 51.0043 2.82843 52.3853 2.45969C55.5155 1.53783 58.8299 1.0769 62.3283 1.0769C79.1763 1.0769 93.3543 12.6923 97.3131 28.456Z" fill="white"/>
<path d="M97.9906 32.2358V31.9592L97.7144 31.7749C96.8858 31.2218 95.8731 30.6686 94.8604 30.2077L91.3619 28.6406L93.9397 31.2218C94.1238 32.7889 94.2159 34.4482 94.2159 36.0154C94.2159 42.0996 92.927 47.8151 90.3492 53.1619C88.692 56.6649 86.5745 59.7992 83.9967 62.5648C80.9585 65.8835 79.0867 68.6495 75.22 70.5853L73.4711 71.6911C73.287 71.7833 73.6553 71.6911 73.4711 71.6911L74.7901 71.4146C79.5775 69.5709 84.0887 66.6209 87.6793 62.8413C90.3492 60.168 92.5587 57.0337 94.2159 53.715C96.8858 48.5526 98.1747 42.9293 98.1747 37.0294C98.3588 35.5545 98.2668 33.8951 97.9906 32.2358Z" fill="white"/>
<path d="M96.9151 34.6931C85.5911 27.2261 61.47 29.0698 45.6348 36.7212C60.6414 27.5027 79.5148 25.2902 96.2706 30.9135C96.1786 31.7432 97.0072 33.7713 96.9151 34.6931Z" fill="white"/>
<path d="M15.3459 56.5721C14.9776 56.019 14.7014 55.3737 14.5173 54.7284C12.8601 49.9347 14.4252 44.4036 18.3841 38.8725" stroke="black" stroke-width="1.07692" stroke-miterlimit="10" stroke-linecap="round" stroke-linejoin="round"/>
<path d="M106.673 36.7523C105.753 38.1351 104.648 39.4257 103.451 40.8085" stroke="black" stroke-width="1.07692" stroke-miterlimit="10" stroke-linecap="round" stroke-linejoin="round"/>
<path d="M99.7695 12.323C105.017 14.2589 108.7 17.3932 110.173 21.5415C110.725 23.2931 110.909 25.0446 110.725 26.9805" stroke="black" stroke-width="1.07692" stroke-miterlimit="10" stroke-linecap="round" stroke-linejoin="round"/>
<path d="M77.7656 10.1108C84.3943 9.55765 90.3786 9.8342 95.4422 11.0326" stroke="black" stroke-width="1.07692" stroke-miterlimit="10" stroke-linecap="round" stroke-linejoin="round"/>
<path d="M22.7104 65.6988C16.6341 63.4864 12.3991 59.8911 10.6499 55.0975C7.79586 46.9852 13.0436 37.0292 23.4469 28.2715" stroke="black" stroke-width="1.07692" stroke-miterlimit="10" stroke-linecap="round" stroke-linejoin="round"/>
<path d="M108.51 12.692C110.811 14.5357 112.474 16.8404 113.302 19.4216C114.775 23.7543 114.039 28.7323 111.277 33.6181" stroke="black" stroke-width="1.07692" stroke-miterlimit="10" stroke-linecap="round" stroke-linejoin="round"/>
<path d="M89.3652 6.42328C97.3749 7.06858 104.096 9.18884 108.515 12.6919" stroke="black" stroke-width="1.07692" stroke-miterlimit="10" stroke-linecap="round" stroke-linejoin="round"/>
<path d="M59.8142 61.5509C58.2491 59.7071 56.8682 57.6791 55.8554 55.4666C55.6713 55.0057 55.8554 54.4526 56.2237 54.176C57.4205 53.3464 58.6174 52.7932 59.9984 52.5167C60.5508 52.4245 61.0111 52.7011 61.1952 53.162C61.9317 55.0979 62.8524 57.0338 64.0492 58.7853C64.4175 59.3384 64.2334 59.9837 63.5889 60.2603C62.6683 60.7212 61.9317 61.0899 61.1032 61.7352C60.7349 62.0118 60.1825 61.9196 59.8142 61.5509Z" fill="black"/>
<path d="M70.31 57.7718C69.3893 57.864 68.4687 58.1406 67.6401 58.4171C67.0877 58.6015 66.5353 58.3249 66.3512 57.864C64.9702 54.6375 63.7733 51.2266 62.8527 47.8158C62.7606 47.3549 62.9447 46.8017 63.4971 46.6174C64.7861 46.0643 66.167 45.6955 67.6401 45.6033C68.1004 45.6033 68.6528 45.8799 68.7449 46.3408C69.5735 49.7517 70.402 52.9782 71.2306 56.389C71.3227 57.1265 70.9544 57.7718 70.31 57.7718Z" fill="black"/>
<path d="M78.4102 42.8364C78.5023 47.3535 78.4102 52.055 78.3181 56.6642C78.3181 57.3095 77.6737 57.7705 77.0292 57.6783C76.1086 57.4939 75.1879 57.4017 74.2673 57.4017C73.807 57.4017 73.3466 57.033 73.3466 56.4799L71.8736 43.2052C71.7815 42.6521 72.1498 42.1911 72.6101 42.0989C74.1752 41.638 76.0165 41.638 77.5816 41.9146C78.042 41.9146 78.4102 42.2833 78.4102 42.8364Z" fill="black"/>
<path d="M54.8418 50.8571C56.591 47.5385 58.8006 44.4964 61.3784 41.823C62.207 40.9933 63.0356 40.1636 64.1404 39.7949C65.2452 39.4262 66.6262 39.5183 67.3627 40.348C67.9151 40.9933 68.2833 42.0074 69.1119 42.1917C69.9405 42.3761 70.677 41.7308 71.2294 41.0855C73.1628 38.7809 74.8964 35.9658 76.4615 33.3846" stroke="black" stroke-width="1.07692" stroke-miterlimit="10" stroke-linecap="round" stroke-linejoin="round"/>
<path d="M63.311 20.3434L60.8252 18.8684C61.0094 18.3153 61.1935 17.7622 61.1935 17.1169C61.2856 15.3653 60.7332 13.706 59.5363 12.4154C58.3395 11.1248 56.4982 10.3873 54.5648 10.3873H54.4727C50.606 10.4795 47.2917 13.4294 47.1075 17.1169C47.0155 18.8684 47.5678 20.5277 48.7647 21.8183C50.0536 23.1089 51.8028 23.8464 53.7362 23.8464H53.8283C56.0378 23.8464 58.0633 22.8324 59.4443 21.2652L62.0221 22.7402C62.2062 22.8324 62.4824 22.9245 62.7586 22.9245C63.2189 22.9245 63.6793 22.648 63.9555 22.1871C64.1396 21.5418 63.9555 20.7121 63.311 20.3434ZM53.7362 21.0808C52.5394 21.0808 51.4346 20.7121 50.6981 19.8824C50.0536 19.1449 49.6853 18.2231 49.7774 17.3012C49.9615 15.0888 51.987 13.2451 54.4727 13.1529H54.5648C55.7617 13.1529 56.7744 13.6138 57.5109 14.3513C58.1554 15.0888 58.5236 16.0106 58.4315 16.9325C58.2474 19.1449 56.1299 21.0808 53.7362 21.0808Z" fill="black"/>
<path d="M76.3838 34.6329C76.9431 34.6329 77.3965 34.1789 77.3965 33.6188C77.3965 33.0588 76.9431 32.6048 76.3838 32.6048C75.8245 32.6048 75.3711 33.0588 75.3711 33.6188C75.3711 34.1789 75.8245 34.6329 76.3838 34.6329Z" stroke="black" stroke-width="1.07692" stroke-miterlimit="10" stroke-linecap="round" stroke-linejoin="round"/>
<path d="M54.8428 51.8705C55.4021 51.8705 55.8555 51.4165 55.8555 50.8564C55.8555 50.2964 55.4021 49.8424 54.8428 49.8424C54.2835 49.8424 53.8301 50.2964 53.8301 50.8564C53.8301 51.4165 54.2835 51.8705 54.8428 51.8705Z" stroke="black" stroke-width="1.07692" stroke-miterlimit="10" stroke-linecap="round" stroke-linejoin="round"/>
<path d="M97.2836 28.456C93.601 26.3357 88.6295 25.0451 82.9214 24.5842C76.2007 24.0311 68.3751 24.7685 60.2734 26.8888C51.5272 29.1934 43.8858 32.6965 38.0857 36.8448C33.1141 40.3479 29.5236 44.3118 27.7744 48.1836C26.6696 44.6806 26.1172 40.9932 26.1172 37.2136C26.1172 22.1874 35.3237 9.2814 48.397 3.84247C49.6859 3.28935 50.9748 2.82843 52.3558 2.45968C55.486 1.53783 58.8003 1.0769 62.2988 1.0769C79.1468 1.0769 93.3248 12.6923 97.2836 28.456Z" stroke="black" stroke-width="1.07692" stroke-miterlimit="10" stroke-linecap="round" stroke-linejoin="round"/>
<path d="M98.2953 37.1214C98.2953 43.0212 96.9143 48.5523 94.4285 53.4382C92.7714 56.7568 90.5618 59.799 87.984 62.3802C84.3934 66.0676 80.0664 68.9253 75.1869 70.8612C72.9774 71.6909 70.6757 72.3362 68.3741 72.7049C66.4407 73.0737 64.3232 73.258 62.2978 73.258C60.0882 73.258 57.8787 73.0737 55.7612 72.7049C50.3293 71.6909 45.2657 69.4784 40.9386 66.2519C35.783 62.4723 31.6401 57.31 29.1543 51.4101C31.1797 47.7227 34.6782 44.0353 39.1894 40.7166C44.6213 36.7526 51.7103 33.2496 59.72 30.8528C68.4662 28.2716 77.0282 27.3497 84.1172 28.0872C89.7332 28.5481 94.6127 30.0231 98.0191 32.3277C98.2032 33.8949 98.2953 35.5542 98.2953 37.1214Z" stroke="black" stroke-width="1.07692" stroke-miterlimit="10" stroke-linecap="round" stroke-linejoin="round"/>
<path d="M92.6815 85.0574C92.6815 84.9652 92.6815 84.9652 92.6815 84.873C92.5894 84.5965 92.4053 84.3199 92.2212 84.1356C91.7608 83.6746 91.0243 83.5825 90.3799 83.7668C89.7354 83.9512 89.183 84.3199 88.7227 84.5965C88.3544 84.7809 88.0782 85.0574 87.71 85.334C87.6179 85.4262 87.5258 85.5183 87.3417 85.6105C87.0655 85.7949 86.7893 86.0715 86.5131 86.348C86.1449 86.6246 85.8687 86.9933 85.5004 87.2699C83.9353 88.9292 82.5543 90.7729 81.5416 92.8932C81.4495 92.7088 81.3575 92.6166 81.3575 92.4323C81.2654 92.2479 81.1733 92.0635 81.1733 91.9713C81.2654 92.0635 81.3575 92.2479 81.4495 92.3401C77.0304 86.348 74.2684 79.1576 73.5319 71.7827C73.5319 71.6905 73.5319 71.5984 73.5319 71.5984V71.5062C73.5319 71.1374 73.4399 70.8609 73.2557 70.6765C73.2557 70.5843 73.1637 70.5843 73.1637 70.5843L73.0716 70.4921C72.9795 70.3999 72.9795 70.3999 72.8875 70.3999C72.7954 70.3999 72.7033 70.3078 72.5192 70.3078C72.0589 70.2156 71.5986 70.3078 71.2303 70.5843C70.9541 70.6765 70.77 70.8609 70.5858 71.0452C70.4938 71.1374 70.4017 71.2296 70.3096 71.3218C70.2176 71.414 70.1255 71.5062 70.0334 71.5984C69.9414 71.6905 69.9414 71.7827 69.8493 71.8749C69.6652 72.1515 69.4811 72.428 69.389 72.7046C69.2969 72.7968 69.2969 72.889 69.2049 72.9811C68.7445 73.9952 68.6525 75.1014 68.4683 76.1154C68.008 80.2638 68.2842 84.4121 69.2969 88.4683C69.2969 88.4683 69.2969 88.5605 69.2049 88.5605L68.5604 86.9933C67.2715 86.8089 65.9826 87.3621 64.9699 88.1917C64.8778 88.2839 64.7857 88.3761 64.6937 88.4683C64.6937 88.4683 64.6016 88.4683 64.6016 88.5605C64.5095 88.6526 64.5095 88.6527 64.4175 88.7448C64.3254 88.837 64.3254 88.837 64.3254 88.9292C64.2333 89.0214 64.1413 89.1136 64.0492 89.2979C63.9571 89.3901 63.8651 89.5745 63.8651 89.6667C63.5889 89.5745 63.2206 89.4823 62.9444 89.4823C62.8524 89.4823 62.6682 89.4823 62.5762 89.4823C62.4841 89.4823 62.3 89.4823 62.2079 89.4823C62.1158 89.4823 61.9317 89.4823 61.8396 89.5745C61.7476 89.5745 61.5634 89.6667 61.4714 89.6667C61.3793 89.6667 61.1952 89.7589 61.1031 89.7589C60.8269 89.8511 60.5507 90.0354 60.2745 90.2198C59.1697 90.9573 58.5253 92.1557 58.157 93.3541C58.157 93.5385 58.065 93.6307 58.065 93.815C58.065 93.9994 57.9729 94.0916 57.9729 94.276L57.8808 93.9072C56.9602 93.4463 55.7633 93.4463 54.9347 93.9994C54.0141 94.4603 53.4617 95.3822 53.0934 96.304C52.8172 97.2259 52.8172 98.2399 53.0014 99.254C53.0014 99.4383 53.0934 99.7149 53.0934 99.9915C53.1855 100.36 53.2776 100.821 53.4617 101.19C53.4617 101.282 53.5538 101.374 53.5538 101.466C53.7379 101.927 53.922 102.388 54.1982 102.849C54.2903 103.034 54.4744 103.31 54.5665 103.495C54.7506 103.679 54.8427 103.955 55.0268 104.14C55.2109 104.324 55.303 104.601 55.4871 104.785H55.3951L55.1189 104.877C58.3412 112.436 62.5762 119.535 67.7318 125.896C70.77 129.675 74.1764 133.27 77.859 136.497C74.2684 133.27 70.862 129.767 67.9159 125.988C72.4271 126.725 77.2145 125.711 81.1733 123.314C84.5798 121.286 87.4338 118.244 89.2751 114.649C89.8275 113.543 90.3799 112.436 90.7481 111.33C90.8402 111.146 90.8402 110.962 90.9323 110.777C90.2878 109.118 89.8275 107.458 89.5513 105.799C88.8148 101.835 88.9068 97.6868 89.8275 93.815C90.2878 91.9713 90.9323 90.1276 91.7608 88.3761C91.7608 88.2839 91.8529 88.2839 91.8529 88.1917C92.1291 87.5464 92.4974 86.9933 92.5894 86.2558C92.6815 85.7949 92.6815 85.4262 92.6815 85.0574ZM61.4714 103.218C62.0238 103.31 62.5762 103.034 62.9444 102.573C63.5889 101.835 63.4047 100.729 63.2206 99.8071C63.0365 98.7009 62.7603 97.5024 62.5762 96.3962C62.9444 96.9493 63.3127 97.5024 63.5889 98.0556C64.3254 99.5305 64.7857 101.098 64.7857 102.665C64.7857 103.494 64.6016 104.324 64.0492 104.785C63.4047 105.246 62.4841 105.154 61.8396 104.693L61.7476 104.601C61.1031 104.048 60.6428 103.126 60.1825 102.296C60.4587 102.757 60.919 103.126 61.4714 103.218Z" fill="white"/>
<path d="M66.5332 101.135C66.9935 101.504 67.4539 101.965 68.0062 102.149C68.5586 102.333 69.2952 102.241 69.6634 101.78C70.0317 101.319 70.0317 100.674 69.8476 100.121C69.5714 98.8304 69.019 97.632 68.6507 96.3414C68.2824 95.0509 68.0983 93.6681 68.7428 92.4697C68.6507 94.129 69.4793 95.6961 70.2158 97.2633C70.9523 98.8304 71.5968 100.398 71.5968 102.057C71.5968 102.426 71.5968 102.794 71.3206 103.071C71.0444 103.532 70.3999 103.624 69.8476 103.624C68.3745 103.624 67.0856 102.702 66.5332 101.135Z" fill="white"/>
<path d="M66.0115 103.986C66.0115 104.723 65.9195 105.645 65.275 106.106C64.7226 106.475 63.9861 106.475 63.3416 106.198C63.1575 106.106 63.0655 106.014 62.8813 105.922C62.7893 105.829 62.6051 105.737 62.5131 105.553C62.3289 105.369 62.2369 105.184 62.0527 105C62.6972 105.461 63.6178 105.645 64.2623 105.092C64.9068 104.631 64.9988 103.709 64.9988 102.972C64.9988 101.312 64.5385 99.7452 63.802 98.3624C63.802 98.178 63.7099 97.9015 63.7099 97.7171C65.0909 99.4686 66.0115 101.681 66.0115 103.986Z" fill="white"/>
<path d="M91.3004 112.621C88.0782 103.679 88.6306 93.1703 92.7735 84.6892C88.7226 88.3766 86.8813 94.1843 86.7893 99.8076C86.6972 105.431 88.1702 110.87 89.8274 116.217C90.1957 114.834 91.0243 114.096 91.3004 112.621Z" fill="white"/>
<path d="M88.0781 92.3404C88.5385 91.0498 88.9988 89.667 89.5512 88.3764C89.8274 87.7311 90.0115 86.9936 90.0115 86.3483C90.0115 85.6108 89.6432 84.8734 88.9988 84.5968C89.7353 84.2281 90.748 83.5828 91.4845 83.8593C92.2211 84.1359 92.6814 84.9655 92.6814 85.7952C92.6814 86.6249 92.3131 87.3624 91.9449 88.0077C90.8401 89.667 89.5512 91.2341 88.0781 92.3404Z" fill="white"/>
<path d="M81.4476 92.7391C77.4888 87.4846 74.8189 81.216 73.8982 74.6708C73.7141 73.288 73.3458 71.7209 72.6093 70.5225C71.7807 71.6287 71.6886 73.1958 71.7807 74.5786C72.149 82.1378 75.3713 89.4205 80.619 94.8594C80.8031 94.2141 81.2634 93.3844 81.4476 92.7391Z" fill="white"/>
<mask id="mask0_333_44280" style="mask-type:alpha" maskUnits="userSpaceOnUse" x="5" y="17" width="130" height="122">
<path d="M115.144 52.0555C111.094 38.873 103.176 26.2436 92.4043 17.486C92.036 17.1173 91.3915 17.1173 90.9312 17.3016L73.623 25.1374C58.156 22.2797 42.689 21.6344 27.7745 27.1655C27.2221 27.3499 26.9459 27.8108 26.8538 28.3639C26.6697 32.6044 25.749 50.304 25.749 50.304C15.4377 61.1819 7.33598 74.9175 5.40261 89.7593C5.31054 90.3125 5.58674 90.7734 5.955 91.0499L24.5522 104.048C28.603 117.231 36.5207 129.86 47.2923 138.618C47.6606 138.986 48.305 138.986 48.7653 138.802L66.0736 130.966C81.5406 133.824 97.0075 134.469 111.922 128.938C112.474 128.754 112.751 128.293 112.843 127.74L113.948 105.8C124.259 94.9217 132.361 81.1861 134.294 66.2521C134.386 65.699 134.11 65.238 133.742 64.9615L115.144 52.0555Z" fill="#FFB26E"/>
</mask>
<g mask="url(#mask0_333_44280)">
<path d="M113.672 133.824L79.8845 137.972C79.24 137.419 78.5035 136.866 77.8591 136.313C74.2685 133.087 70.8621 129.584 67.916 125.804C72.4272 126.541 77.2146 125.527 81.1734 123.131C85.8687 120.365 89.2752 115.756 91.0244 110.593C91.945 113.082 93.1419 115.387 94.707 117.599C98.942 123.591 105.295 130.413 113.672 133.824Z" fill="black" stroke="black" stroke-width="1.07692" stroke-miterlimit="10" stroke-linecap="round" stroke-linejoin="round"/>
</g>
<path d="M69.6635 90.6809C69.0191 91.695 68.927 93.0777 69.2032 94.2762C69.4794 95.4746 70.0318 96.5808 70.5842 97.687C71.1366 98.7932 71.5969 99.8995 71.689 101.19C71.781 102.481 71.3239 103.218 70.8604 103.495C70.1475 103.92 69.0191 103.495 68.7429 103.31C67.1778 102.573 65.8889 101.19 64.9682 99.8073C64.1396 98.4245 63.5872 96.7652 63.311 95.198C63.1269 93.9996 63.0348 92.709 63.311 91.5106C63.5872 90.3122 64.1396 89.1138 65.0603 88.2841C65.9809 87.4544 67.3619 86.9013 68.6508 87.0857" stroke="black" stroke-width="1.07692" stroke-miterlimit="10" stroke-linecap="round" stroke-linejoin="round"/>
<path d="M91.0216 110.685C88.3517 103.402 88.4437 95.29 91.8501 88.1917C91.8501 88.0995 91.9422 88.0995 91.9422 88.0073C92.2184 87.3621 92.5867 86.8089 92.6787 86.0715C92.7708 85.4262 92.6787 84.5965 92.1263 84.1356C91.666 83.6746 90.9295 83.5825 90.285 83.7668C89.6406 83.9512 89.0882 84.2278 88.5358 84.5965C88.1675 84.7809 87.5231 85.334 87.2469 85.6105C86.9707 85.7949 86.6945 86.0715 86.4183 86.348C86.05 86.6246 85.7738 86.9933 85.4056 87.2699C83.8405 88.9292 82.4595 90.7729 81.4468 92.8932C80.6182 94.5525 79.9737 96.2119 79.6055 98.0556" stroke="black" stroke-width="1.07692" stroke-miterlimit="10" stroke-linecap="round" stroke-linejoin="round"/>
<path d="M81.0795 92.0644C81.1716 92.2488 81.3557 92.3409 81.4478 92.5253C76.9366 86.5333 74.0826 79.1584 73.4381 71.6914C73.346 71.1383 73.254 70.6774 72.7016 70.493C72.1492 70.3086 71.5968 70.4008 71.0444 70.6774C70.0317 71.1383 69.3872 72.0602 68.9269 73.0742C68.4666 74.0882 68.3745 75.1945 68.1904 76.2085C67.7301 80.3569 68.0063 84.5052 69.019 88.5613" stroke="black" stroke-width="1.07692" stroke-miterlimit="10" stroke-linecap="round" stroke-linejoin="round"/>
<path d="M60.9161 104.97C60.732 106.076 59.6272 106.998 58.5224 106.906C57.97 106.906 57.3256 106.537 56.8652 106.076C56.9573 106.076 57.1414 106.168 57.2335 106.168C58.3383 106.261 59.4431 105.339 59.6272 104.232C59.8113 103.126 58.7529 99.8761 58.0164 98.9542C58.3847 99.6917 59.0748 101.19 59.6272 101.836C60.3637 102.665 61.1002 103.772 60.9161 104.97Z" fill="white"/>
<path d="M63.9548 89.6674C62.758 89.2064 61.2849 89.483 60.2722 90.1283C59.1674 90.8658 58.5229 92.0642 58.1547 93.2626C57.7864 94.461 57.7864 95.8438 57.9706 97.1344C58.3388 99.5312 59.3515 101.836 60.9166 103.772C61.1928 104.14 61.5611 104.509 61.9294 104.878C62.9986 106.077 68.3833 108.231 65.9063 101.231" stroke="black" stroke-width="1.07692" stroke-miterlimit="10" stroke-linecap="round" stroke-linejoin="round"/>
<path d="M57.7871 93.8155C56.8664 93.3546 55.6696 93.4468 54.841 93.9077C53.9203 94.3687 53.368 95.2905 52.9997 96.2124C52.7235 97.1342 52.7235 98.1483 52.9076 99.0701C53.3679 101.836 54.841 104.325 57.0506 106.076C57.7871 106.629 58.6157 107.09 59.5363 106.906C60.2728 106.721 60.7332 106.076 60.8252 105.431C61.0094 104.878 60.9173 104.325 60.8252 103.772" stroke="black" stroke-width="1.07692" stroke-miterlimit="10" stroke-linecap="round" stroke-linejoin="round"/>
<path d="M55.209 104.326C55.209 104.418 55.3011 104.51 55.3011 104.603C58.5233 112.162 62.6663 119.26 67.8219 125.713" stroke="black" stroke-width="1.07692" stroke-miterlimit="10" stroke-linecap="round" stroke-linejoin="round"/>
<path d="M68.5586 113.543C69.8475 108.012 72.3333 102.757 75.8317 98.2401" stroke="black" stroke-width="1.07692" stroke-miterlimit="10" stroke-linecap="round" stroke-linejoin="round"/>
<path d="M43.8867 9.28122C46.2804 5.77818 48.3979 3.84229 48.3979 3.84229" stroke="black" stroke-width="1.07692" stroke-miterlimit="10" stroke-linecap="round" stroke-linejoin="round"/>
<path d="M42.1367 12.1392C42.6891 11.1252 43.3336 10.1112 43.886 9.28149" stroke="black" stroke-width="1.07692" stroke-miterlimit="10" stroke-linecap="round" stroke-linejoin="round"/>
<path d="M38.0863 36.8442C36.0609 26.4273 38.9149 17.9462 42.1372 12.1385" stroke="black" stroke-width="1.07692" stroke-miterlimit="10" stroke-linecap="round" stroke-linejoin="round"/>
<path d="M30.1543 38.2579C30.2436 36.2041 30.4222 34.0611 30.7793 32.0074C31.4937 32.9896 32.208 34.0611 32.9223 34.9541C33.0116 32.0967 33.1902 29.3287 33.2795 26.4713" stroke="white" stroke-width="1.4044" stroke-miterlimit="10" stroke-linecap="round" stroke-linejoin="round"/>
<path d="M32.1191 28.6142C32.4763 27.8106 33.0121 26.6498 33.3692 25.8461C33.7264 26.7391 33.9943 27.7213 34.3514 28.6142" stroke="white" stroke-width="1.4044" stroke-miterlimit="10" stroke-linecap="round" stroke-linejoin="round"/>
<path d="M39.0996 40.7165C47.0172 65.8831 64.6017 71.783 68.2843 72.7048C68.7446 72.797 68.9287 72.8892 68.9287 72.8892" stroke="black" stroke-width="1.07692" stroke-miterlimit="10" stroke-linecap="round" stroke-linejoin="round"/>
<path d="M85.6845 37.3978C85.5004 34.4478 84.948 31.3135 84.0273 28.087" stroke="black" stroke-width="1.07692" stroke-miterlimit="10" stroke-linecap="round" stroke-linejoin="round"/>
<path d="M85.7741 42.2843C85.0926 57.5533 76.8434 68.7968 75.3965 70.6829" stroke="black" stroke-width="1.07692" stroke-miterlimit="10" stroke-linecap="round" stroke-linejoin="round"/>
<path d="M52.3574 2.46021C52.3574 2.46021 74.4531 2.73676 82.9231 24.5847" stroke="black" stroke-width="1.07692" stroke-miterlimit="10" stroke-linecap="round" stroke-linejoin="round"/>
<path d="M96.6397 31.4067C96.5477 31.4989 96.5477 31.4989 96.6397 31.4067C93.2333 29.6552 88.9983 28.549 84.1189 28.088C76.9378 27.4427 68.4678 28.2724 59.7216 30.8536C51.7119 33.2504 44.7149 36.6613 39.191 40.7174C35.2322 43.5752 32.102 46.7095 29.9845 49.936H29.8924C29.4321 48.9219 29.0638 47.8157 28.6035 46.8017C28.6035 46.8017 28.6035 46.8017 28.6035 46.7095C30.5369 43.2986 33.8512 39.8878 38.1783 36.7535C43.9784 32.6051 51.6198 29.1021 60.366 26.7974C68.4678 24.6772 76.2933 23.9397 83.0141 24.4928C84.303 24.585 85.5919 24.7694 86.7887 24.9537C90.1031 25.4147 92.2206 26.1521 95.2587 27.5349C95.7191 28.8255 96.2715 30.1161 96.6397 31.4067Z" fill="white"/>
<path d="M86.1432 24.9537C73.4382 24.4006 60.6411 26.9818 49.225 32.4208C41.2153 36.2004 33.4818 41.6393 29.7072 49.6594C29.3389 48.7376 29.4444 47.768 29.0762 46.8462C31.0095 43.4353 33.8501 39.8878 38.1772 36.7535C43.9773 32.6051 51.6187 29.1021 60.3649 26.7974C68.4666 24.6772 76.2922 23.9397 83.013 24.4928C84.0257 24.6772 85.1305 24.7694 86.1432 24.9537Z" fill="white"/>
<path d="M86.1432 24.9537L86.1197 25.4917L86.2396 24.424L86.1432 24.9537ZM49.225 32.4208L49.4548 32.9077L49.4566 32.9069L49.225 32.4208ZM29.7072 49.6594L29.2071 49.8592C29.2867 50.0583 29.4768 50.1912 29.6911 50.1976C29.9054 50.2041 30.1031 50.0827 30.1944 49.8887L29.7072 49.6594ZM29.0762 46.8462L28.6077 46.5807L28.4802 46.8057L28.5761 47.0459L29.0762 46.8462ZM38.1772 36.7535L37.8639 36.3155L37.8613 36.3174L38.1772 36.7535ZM60.3649 26.7974L60.2286 26.2765L60.2277 26.2768L60.3649 26.7974ZM83.013 24.4928L83.1094 23.9631L83.0834 23.9583L83.0571 23.9562L83.013 24.4928ZM86.1666 24.4158C73.3744 23.8589 60.4897 26.4575 48.9934 31.9346L49.4566 32.9069C60.7925 27.5061 73.5019 24.9424 86.1197 25.4917L86.1666 24.4158ZM48.9952 31.9338C40.9438 35.7331 33.0739 41.2416 29.22 49.4301L30.1944 49.8887C33.8898 42.037 41.4869 36.6676 49.4548 32.9077L48.9952 31.9338ZM30.2072 49.4597C30.0512 49.0691 29.992 48.6609 29.925 48.1787C29.8606 47.7152 29.7885 47.1777 29.5762 46.6464L28.5761 47.0459C28.7322 47.4365 28.7913 47.8447 28.8583 48.3269C28.9227 48.7904 28.9949 49.3279 29.2071 49.8592L30.2072 49.4597ZM29.5446 47.1117C31.4439 43.761 34.2347 40.2741 38.493 37.1895L37.8613 36.3174C33.4655 39.5015 30.5752 43.1097 28.6077 46.5807L29.5446 47.1117ZM38.4904 37.1914C44.2286 33.0874 51.8078 29.6091 60.5021 27.3181L60.2277 26.2768C51.4296 28.5951 43.726 32.1229 37.8639 36.3155L38.4904 37.1914ZM60.5012 27.3184C68.5533 25.2111 76.3174 24.4821 82.9688 25.0295L83.0571 23.9562C76.2669 23.3973 68.38 24.1433 60.2286 26.2765L60.5012 27.3184ZM82.9165 25.0226C83.4385 25.1176 83.9816 25.1884 84.5083 25.2572C85.0403 25.3267 85.556 25.3942 86.0467 25.4835L86.2396 24.424C85.7176 24.3289 85.1746 24.2581 84.6478 24.1893C84.1158 24.1199 83.6001 24.0524 83.1094 23.9631L82.9165 25.0226Z" fill="white"/>
<path d="M96.6397 31.4067C96.5477 31.4989 96.5477 31.4989 96.6397 31.4067C93.2333 29.6552 88.9983 28.549 84.1189 28.088C76.9378 27.4427 68.4678 28.2724 59.7216 30.8536C51.7119 33.2504 44.7149 36.6613 39.191 40.7174C35.2322 43.5752 32.102 46.7095 29.9845 49.936H29.8924C29.4321 48.9219 29.0638 47.8157 28.6035 46.8017C28.6035 46.8017 28.6035 46.8017 28.6035 46.7095C30.5369 43.2986 33.8512 39.8878 38.1783 36.7535C43.9784 32.6051 51.6198 29.1021 60.366 26.7974C68.4678 24.6772 76.2933 23.9397 83.0141 24.4928C84.303 24.585 85.5919 24.7694 86.7887 24.9537C90.1031 25.4147 92.2206 26.1521 95.2587 27.5349C95.7191 28.8255 96.2715 30.1161 96.6397 31.4067Z" stroke="black" stroke-width="1.07692" stroke-miterlimit="10" stroke-linecap="round" stroke-linejoin="round"/>
<path d="M93.2414 120.521C93.8222 120.109 93.864 119.169 93.3349 118.421C92.8057 117.673 91.9059 117.401 91.3251 117.813C90.7443 118.225 90.7024 119.166 91.2316 119.913C91.7608 120.661 92.6606 120.933 93.2414 120.521Z" fill="white"/>
</svg>
