<svg width="1106" height="48" viewBox="0 0 1106 48" fill="none" xmlns="http://www.w3.org/2000/svg">
<path d="M87.0129 16.1926L83.822 16.2009V32.5738H98.4555C100.056 31.8946 100.913 30.7205 101.245 29.3497H87.0046L87.0129 16.1926ZM110.892 19.4643H123.099C124.795 19.1288 126.058 17.6317 126.412 16.1843H107.577C107.929 17.6317 109.211 19.1288 110.892 19.4643ZM71.3607 19.4187C73.0566 18.9259 74.4853 17.6317 74.8332 16.1968H56.9218V25.871H71.5822V29.2669L60.0838 29.2772C58.2802 29.7783 56.7562 30.9876 55.9921 32.5862L56.9218 32.5696H74.7338V22.6552H60.0838V19.4187H71.3607V19.4187ZM108.07 32.5696H111.244V25.9786H122.8V32.5696H125.973V22.6842L108.07 22.6676V32.5696ZM32.2518 19.4539H44.4564C46.1543 19.1164 47.4154 17.6193 47.7694 16.1719H28.9366C29.2886 17.6193 30.5683 19.1164 32.2518 19.4539V19.4539ZM0.5 16.2092C0.86651 17.6421 2.10685 19.1019 3.80687 19.4705H8.94422L9.20513 19.574V32.5365H12.4147V19.574L12.7046 19.4705H17.8481C19.5647 19.0274 20.7781 17.6421 21.1405 16.2092V16.1781H0.5V16.2092V16.2092ZM32.2518 32.5717H44.4564C46.1543 32.2321 47.4154 30.7391 47.7694 29.2897H28.9366C29.2886 30.7391 30.5683 32.2321 32.2518 32.5717V32.5717ZM32.2518 25.9248H44.4564C46.1543 25.5894 47.4154 24.0923 47.7694 22.6449H28.9366C29.2886 24.0923 30.5683 25.5894 32.2518 25.9248Z" fill="#898D9A"/>
<path d="M235.142 13.9363L226.467 26.7828C225.565 28.1424 223.982 28.9642 222.325 28.9642C219.627 28.9642 217.394 26.7475 217.394 24.0728C217.394 21.3587 219.627 19.1462 222.344 19.1462C222.613 19.1117 222.975 19.0739 223.227 19.0739C225.099 19.0739 227.007 19.8596 228.303 21.1814L230.894 17.2546C228.879 15.1858 225.891 13.8616 222.901 13.8616C217.321 13.8616 212.21 18.4664 212.21 24.0351C212.21 29.5709 216.782 34.1026 222.364 34.1026C225.063 34.1026 227.762 32.9607 229.635 31.0675H235.611L235.646 34.1026H240.833V13.9363H235.142H235.142ZM232.769 26.6408L235.611 22.6821L235.646 26.6408H232.769H232.769Z" fill="#898D9A"/>
<path d="M250.768 34.1024H245.584V18.6452H241.552V13.9697L254.798 13.936V18.6451H250.768V34.1024V34.1024Z" fill="#898D9A"/>
<path d="M272.08 13.9364L266.896 13.9377L266.86 21.4668H260.739L260.7 13.936H255.52V34.1024H260.738V26.1414H266.896V34.1024H272.08V13.936L272.08 13.9364Z" fill="#898D9A"/>
<path d="M313.626 13.936V23.3206L306.498 13.936L301.78 13.9689L301.745 21.324C300.557 17.0401 296.488 13.936 291.952 13.936C286.373 13.936 281.8 18.4662 281.8 24.0348C281.8 25.8229 282.339 27.6389 283.202 29.2119H278.066V13.936H272.783V34.1024H284.86V31.2807C286.768 33.031 289.36 34.1024 291.952 34.1024C296.488 34.1024 300.485 31.0672 301.745 26.7826L301.78 34.1024H307.002V24.2885L314.091 34.1024H318.806L318.813 13.936H313.627H313.626ZM291.952 29.1765C289.108 29.1765 286.769 26.8926 286.769 24.0348C286.769 21.2164 289.108 18.8972 291.952 18.8972C294.834 18.8972 297.174 21.2164 297.174 24.0348C297.174 26.8926 294.834 29.1765 291.952 29.1765Z" fill="#898D9A"/>
<path d="M205.94 29.2144V26.3919H211.504L211.494 21.4685H205.94V18.8997H212.073L212.062 13.9386L200.254 13.9714V20.8972C199.03 17.1141 195.501 14.3286 191.469 13.9714L182.505 13.9386V34.1041H191.506C195.501 33.7486 199.03 30.9647 200.254 27.2162V34.1041H212.073L212.062 29.2144H205.94H205.94ZM194.53 27.1078C194.207 28.4657 192.91 29.427 191.506 29.4632H188.194V18.6469H191.506C192.91 18.6469 194.207 19.6509 194.53 21.0408C194.855 21.9693 195.034 23.0399 195.034 24.0374C195.034 25.0751 194.855 26.144 194.53 27.1078" fill="#898D9A"/>
<path d="M396.535 34.6427C394.723 34.5453 393.371 33.7998 392.581 32.4623C392.05 31.5644 391.889 30.3835 392.131 29.1768C392.4 27.8398 393.313 26.635 394.715 25.7684C395.52 25.2701 396.209 24.9608 397.613 24.4675C397.965 24.3436 398.27 24.2294 398.29 24.2135C398.318 24.1912 398.322 24.1121 398.308 23.8553C398.267 23.125 398.389 21.9871 398.595 21.1659C398.942 19.784 399.61 18.6692 400.496 17.993C401.132 17.5072 401.966 17.1419 402.797 16.9852C403.255 16.8989 404.023 16.8992 404.454 16.986C406.303 17.3582 407.34 18.7831 406.932 20.3885C406.846 20.727 406.574 21.2819 406.344 21.5888C405.754 22.3752 404.867 23.0745 403.614 23.7398C403.457 23.8237 402.941 24.077 402.469 24.3032C401.997 24.5291 401.596 24.7291 401.577 24.7476C401.551 24.7739 401.557 24.8506 401.608 25.1087C401.843 26.3018 402.238 27.3099 402.913 28.4372C403.181 28.8858 403.552 29.4516 403.594 29.4779C403.655 29.5156 403.905 29.1123 404.068 28.7133C404.269 28.2195 404.384 27.5664 404.327 27.2419C404.286 27.0096 404.16 26.7643 403.998 26.6058C403.923 26.5325 403.862 26.4632 403.861 26.4518C403.861 26.4407 404.49 26.4343 405.259 26.4383L406.657 26.4454L406.649 26.6228C406.638 26.8652 406.548 27.3821 406.454 27.7501C406.186 28.7847 405.682 29.6696 404.811 30.636C404.709 30.7498 404.624 30.8616 404.624 30.8845C404.624 30.9073 404.769 31.0658 404.945 31.2368C406.046 32.304 407.996 33.5348 409.584 34.1643C409.739 34.2257 409.864 34.288 409.864 34.3029C409.863 34.321 408.947 34.3326 407.185 34.3374L404.507 34.3443L404.354 34.2586C404.043 34.0836 403.354 33.5269 402.692 32.9152C402.552 32.7856 402.419 32.6797 402.397 32.6797C402.375 32.6797 402.219 32.7702 402.052 32.8809C401.192 33.448 400.164 33.9575 399.295 34.2474C398.306 34.5774 397.49 34.6942 396.535 34.643V34.6427ZM398.79 32.3223C399.191 32.2509 399.683 32.1054 400.136 31.9246C400.592 31.743 401.156 31.4653 401.176 31.4128C401.184 31.3921 401.08 31.2176 400.945 31.0249C400.322 30.1371 399.656 28.8885 399.209 27.7687C399.044 27.3558 398.736 26.4415 398.677 26.1908C398.658 26.1109 398.625 26.0385 398.602 26.0297C398.54 26.0058 398.028 26.2785 397.586 26.5716C396.015 27.6131 395.262 28.8845 395.429 30.213C395.503 30.8035 395.69 31.2338 396.03 31.5973C396.659 32.269 397.642 32.5273 398.79 32.3223V32.3223ZM401.457 23.0843C402.038 22.744 402.961 21.9175 403.476 21.275C404.137 20.4528 404.488 19.6855 404.488 19.0632C404.488 18.7075 404.438 18.5482 404.273 18.3836C404.109 18.22 403.924 18.1523 403.642 18.1521C402.805 18.1521 401.899 19.146 401.505 20.4985C401.306 21.1802 401.257 21.5471 401.256 22.38C401.255 23.0161 401.265 23.1576 401.313 23.1576C401.323 23.1576 401.388 23.1247 401.457 23.0843V23.0843ZM415.306 34.6268C413.926 34.488 413.017 34.2817 411.991 33.8755C410.595 33.3222 409.723 32.637 408.987 31.5142C408.767 31.1781 408.413 30.4724 408.27 30.0824C407.632 28.3448 407.491 26.1571 407.872 23.875C408.257 21.5652 409.135 19.3391 410.345 17.599C411.131 16.4707 412.299 15.2824 413.505 14.385C415.497 12.9036 417.789 11.9929 420.336 11.6728C421.109 11.5756 421.541 11.5506 422.454 11.5512C423.834 11.552 424.886 11.6571 426.274 11.9329C427.16 12.1092 428.57 12.4899 428.597 12.5603C428.611 12.5959 427.717 15.4608 427.68 15.4993C427.669 15.5112 427.532 15.4196 427.376 15.2948C426.12 14.2939 424.819 13.6846 423.503 13.4821C423.083 13.4173 422.293 13.4165 421.881 13.4805C420.037 13.7661 418.326 14.9447 416.808 16.9765C416.315 17.6365 415.771 18.5211 415.349 19.3515C414.776 20.4772 414.382 21.4723 413.984 22.8029C412.716 27.0364 412.651 29.9943 413.793 31.5954C414.263 32.2552 414.95 32.6755 415.823 32.8361C416.323 32.9285 417.539 32.8724 417.66 32.7516C417.679 32.7325 418.272 30.876 418.978 28.6259C420.138 24.93 420.263 24.5132 420.276 24.3037C420.294 24.0223 420.242 23.7709 420.115 23.5288C420 23.3087 419.696 23.01 419.446 22.8711C419.338 22.8111 419.249 22.7527 419.249 22.7416C419.249 22.7304 421.194 22.7211 423.573 22.7211C425.951 22.7211 427.897 22.7304 427.897 22.7416C427.897 22.7527 427.791 22.8104 427.663 22.869C426.989 23.177 426.501 23.6384 426.211 24.2421C426.148 24.3728 425.604 26.0634 424.787 28.6668L423.464 32.8801L423.081 33.0633C421.524 33.8107 419.619 34.3488 417.719 34.5785C417.37 34.621 415.598 34.6563 415.306 34.6268H415.306ZM375.501 34.3188C375.492 34.305 375.55 34.2564 375.629 34.2111C376.099 33.9405 376.626 33.3793 376.85 32.9115C376.914 32.7761 382.846 13.8838 382.977 13.3955C383 13.31 383.02 13.1295 383.02 12.9946C383.022 12.5826 382.894 12.2855 382.592 12.0004C382.51 11.9226 382.443 11.8474 382.443 11.8334C382.443 11.7959 392.801 11.7991 393.276 11.8368C394.305 11.9183 395.334 12.1918 396.122 12.5921C397.466 13.2758 398.271 14.3133 398.518 15.6814C398.587 16.0621 398.601 16.909 398.544 17.3189C398.314 18.9899 397.557 20.7624 396.526 22.0447C394.856 24.1219 392.125 25.4501 388.773 25.8154C387.71 25.9312 386.371 25.9604 385.423 25.8882C385.149 25.8672 384.919 25.8558 384.913 25.8627C384.879 25.8967 382.74 32.7583 382.716 32.9115C382.64 33.3838 382.884 33.9148 383.303 34.193C383.386 34.248 383.446 34.3045 383.438 34.3183C383.416 34.3526 375.522 34.3528 375.501 34.3186L375.501 34.3188ZM387.258 24.1274C388.037 23.9894 388.724 23.7011 389.387 23.2346C389.709 23.0081 390.371 22.3473 390.644 21.9796C391.327 21.0602 391.829 19.9754 392.234 18.5466C392.492 17.6359 392.602 16.9422 392.602 16.2272C392.602 15.6761 392.552 15.3469 392.413 14.9776C392.207 14.4296 391.788 13.9966 391.256 13.7815C390.799 13.5968 390.409 13.5482 389.47 13.5591L388.762 13.567L387.117 18.8057C386.212 21.6871 385.477 24.0584 385.483 24.0754C385.489 24.0924 385.603 24.1211 385.735 24.1391C385.868 24.1572 385.995 24.1763 386.017 24.1819C386.12 24.2071 387.037 24.167 387.258 24.1277V24.1274Z" fill="#898D9A"/>
<path fill-rule="evenodd" clip-rule="evenodd" d="M563.694 23.5712C563.694 23.5712 562.325 22.7243 561.478 22.3967C561.478 22.3967 558.856 21.1817 558.336 20.6036C558.336 20.6036 557.314 19.6408 557.913 18.5224C557.913 18.5224 558.163 17.7906 559.243 17.7906C559.243 17.7906 560.648 17.8679 560.648 19.0232V20.6528H565.686L565.677 18.2527C565.677 18.2527 566.064 14.3223 559.743 14.1492C559.743 14.1492 554.772 13.8224 553.346 16.5001C553.346 16.5001 552.787 17.0975 552.787 19.1778V20.6809C552.787 20.6809 552.729 22.4151 553.615 23.5326C553.615 23.5326 554.116 24.2653 555.349 25.0735C555.349 25.0735 557.854 26.422 559.357 27.1942C559.357 27.1942 560.874 28.0604 560.675 29.4388C560.675 29.4388 560.551 30.8541 559.085 30.7961C559.085 30.7961 557.746 30.7364 557.746 29.3483V27.7196H552.378V30.0854C552.378 30.0854 552.228 34.6097 559.125 34.6097C559.125 34.6097 565.716 34.7432 566.023 29.9668V28.0402C566.022 28.0402 566.256 25.113 563.694 23.5712V23.5712ZM537.905 14.7123L536.218 25.2826H535.823L534.212 14.8072H525.798L525.376 33.9491H530.358L530.418 19.5266H530.81L533.451 33.9464H538.692L541.3 19.5318H541.647L541.767 33.9491H546.776L546.236 14.7123H537.905V14.7123ZM508.248 14.7923L504.933 33.9271H510.296L512.26 19.0908H512.701L514.664 33.9271H520.026L516.712 14.7923H508.248V14.7923ZM620.787 23.3077V26.1303H622.163V29.1603C622.163 30.6415 620.897 30.6687 620.897 30.6687C619.357 30.6687 619.415 29.2613 619.415 29.2613V18.7807C619.415 17.701 620.782 17.643 620.782 17.643C622.092 17.643 622.101 18.9309 622.101 18.9309V20.5246H627.151C627.316 17.4137 626.696 16.6609 626.696 16.6609C625.443 13.8479 620.704 14.0016 620.704 14.0016C613.422 14.0016 614.23 19.5889 614.23 19.5889V29.7226C614.387 34.9629 621.563 34.4305 621.684 34.4261C624.875 34.0729 625.839 33.0583 625.839 33.0583C626.726 32.3994 626.955 31.4866 626.955 31.4866C627.209 30.9551 627.272 29.2613 627.272 29.2613V23.3077H620.787V23.3077ZM604.049 26.422H603.829L598.705 14.7176H592.573V33.9508H597.563L597.265 22.2482H597.488L602.797 33.9508H608.742V14.7158H603.688L604.049 26.422V26.422ZM580.393 29.1586C580.393 29.1586 580.465 30.7372 579.001 30.7372C579.001 30.7372 577.462 30.8198 577.462 29.1981L577.446 14.729H571.973V29.083C571.973 29.083 571.412 34.5157 579.079 34.5157C579.079 34.5157 585.741 34.5948 585.741 29.3325V14.7299H580.393V29.1586V29.1586ZM497.814 23.5712C497.814 23.5712 496.446 22.7243 495.598 22.3975C495.598 22.3975 492.978 21.1834 492.458 20.6045C492.458 20.6045 491.437 19.6399 492.036 18.5242C492.036 18.5242 492.285 17.7924 493.364 17.7924C493.364 17.7924 494.771 17.8688 494.771 19.0241V20.6537H499.81L499.8 18.2527C499.8 18.2527 500.185 14.3223 493.867 14.1501C493.867 14.1501 493.39 14.1193 492.692 14.1545C492.692 14.1545 488.864 14.36 487.496 16.4597C487.488 16.4755 487.476 16.4869 487.468 16.501C487.468 16.501 486.91 17.0975 486.91 19.1787V20.6818C486.91 20.6818 486.852 22.416 487.738 23.5335C487.738 23.5335 488.239 24.2661 489.472 25.0744C489.472 25.0744 491.976 26.4229 493.479 27.1951C493.479 27.1951 494.998 28.0595 494.797 29.4397C494.797 29.4397 494.673 30.855 493.209 30.797C493.209 30.797 491.869 30.7372 491.869 29.3492V27.7196H486.5V30.0871C486.5 30.0871 486.35 34.6115 493.247 34.6115C493.247 34.6115 499.836 34.745 500.146 29.9685V28.0437C500.146 28.042 500.376 25.113 497.814 23.5712V23.5712Z" fill="#898D9A"/>
<path fill-rule="evenodd" clip-rule="evenodd" d="M742.781 17.6014C744.081 16.8931 745.38 16.5383 747.035 16.5383C751.052 16.5383 754.125 20.084 754.125 24.9282C754.125 31.0731 750.343 34.9729 744.081 34.9729C741.835 34.9729 739.589 34.6181 737.462 34.1452C737.581 31.6634 737.7 16.5383 737.462 13.7023C737.228 12.2836 736.872 11.6934 735.809 11.4573L734.982 11.3392V10.6302L742.9 9.21289C742.781 10.3941 742.781 13.8204 742.781 17.6014ZM742.899 33.5549C743.252 33.6723 743.844 33.6723 744.317 33.6723C746.798 33.6723 748.571 30.0099 748.572 25.2817C748.572 21.5013 747.154 18.4292 744.553 18.4292C743.961 18.4292 743.489 18.5472 742.78 18.784C742.663 24.9282 742.78 31.9008 742.899 33.5549ZM684.405 9.6851H705.203L705.322 16.657L704.14 17.0119C702.959 13.4662 701.305 11.4579 698.113 11.4579H693.978C693.859 13.703 693.741 17.4841 693.741 21.502L696.576 21.3832C698.349 21.3832 699.175 19.9659 699.53 17.957H700.594V26.3442H699.53C699.175 24.3359 698.349 22.9179 696.576 22.9179L693.74 22.7999C693.74 25.8713 693.858 28.3531 693.977 29.8898C694.213 32.1356 694.804 33.1987 696.34 33.3161L697.758 33.5536V34.4987H684.405V33.5536L685.587 33.3161C687.123 33.1994 687.713 32.1356 687.95 29.8898C688.186 26.2282 688.305 18.5466 687.95 14.2926C687.714 12.0475 687.123 11.1024 685.587 10.8663L684.405 10.7483V9.6851ZM720.802 25.6372C720.802 20.32 717.848 16.3022 711.939 16.3022C706.031 16.3022 702.722 20.5561 702.722 25.6372C702.722 30.955 705.676 34.9736 711.585 34.9736C717.493 34.9736 720.802 30.7182 720.802 25.6372ZM708.276 25.6372C708.276 21.029 708.985 17.484 711.585 17.484C714.067 17.484 715.248 21.1471 715.248 25.6372C715.248 30.2453 714.537 33.7903 711.821 33.7903C709.458 33.7903 708.276 30.1273 708.276 25.6372ZM764.759 16.3022C758.733 16.3022 755.66 20.911 755.66 25.7559C755.66 31.1918 759.442 34.9729 764.759 34.9736C768.068 34.9736 770.667 33.3181 771.849 31.664L771.377 31.0737C770.195 31.9015 769.249 32.373 767.359 32.373C763.104 32.373 760.977 29.1822 761.096 24.8101H772.085C772.085 19.9659 769.721 16.3022 764.759 16.3022ZM766.65 23.3921L761.096 23.5109C761.213 20.7922 762.278 17.484 764.287 17.484C766.295 17.484 766.65 21.029 766.65 23.3921ZM780.714 16.3022C782.841 16.3022 784.731 16.6563 786.149 17.2479L786.27 21.8561L785.444 22.0922C784.379 18.9014 782.961 17.6014 780.835 17.6014C779.417 17.6014 778.352 18.6653 778.352 20.2013C778.352 21.738 779.532 22.5651 782.842 23.8643C785.914 25.0469 787.215 26.4642 787.215 28.9461C787.215 32.6084 784.26 34.9729 779.651 34.9729C777.405 34.9729 774.806 34.4993 773.388 33.909L773.269 28.71L774.097 28.4725C775.396 32.0182 777.052 33.3174 779.296 33.3174C781.187 33.3174 782.251 32.0182 782.251 30.6002C782.251 29.1822 781.423 28.3544 778.47 27.292C775.63 26.3462 773.624 25.0469 773.624 21.9741C773.624 18.9014 776.343 16.3022 780.714 16.3022ZM728.719 20.4388C730.609 16.1841 734.155 15.5945 736.163 16.775L734.272 21.6207C731.909 20.0846 729.31 20.7929 728.719 21.6207C728.601 24.4567 728.601 28.9467 728.837 31.1925C728.955 32.6091 729.31 33.3181 730.491 33.4368L731.909 33.5556V34.5007H720.92V33.5556L721.747 33.4368C722.812 33.3181 723.283 32.6091 723.402 31.1925C723.52 28.7113 723.638 23.7477 723.402 20.9117C723.283 19.3749 722.812 18.7847 721.747 18.6659L720.92 18.5479V17.8389L728.837 16.3028L728.719 20.4388Z" fill="#898D9A"/>
<path fill-rule="evenodd" clip-rule="evenodd" d="M855.566 10.782C855.568 10.7894 855.57 10.7968 855.573 10.8043C855.577 10.8154 855.581 10.8265 855.582 10.8377C855.585 10.8725 855.585 10.9049 855.585 10.9397V12.3176L855.585 12.3377C855.585 12.4138 855.585 12.4508 855.566 12.4689C855.549 12.4859 855.515 12.4862 855.449 12.4866L855.414 12.487H854.694H843.75C843.713 12.487 843.682 12.4876 843.655 12.4881H843.655H843.655H843.655H843.655H843.655H843.655H843.655H843.655H843.655H843.655H843.655H843.655H843.655C843.576 12.4897 843.537 12.4905 843.519 12.4715C843.501 12.4533 843.501 12.4168 843.502 12.3452C843.503 12.3181 843.504 12.286 843.503 12.248V10.782H855.566ZM896.821 21.3273L896.81 21.3288C896.801 21.33 896.794 21.3309 896.79 21.3343C896.779 21.3552 896.767 21.3761 896.757 21.3992C896.71 21.5276 896.663 21.656 896.616 21.7849L896.582 21.8795L896.525 22.0348C896.511 22.0766 896.494 22.116 896.475 22.1578C896.462 22.1591 896.45 22.1612 896.438 22.1632L896.421 22.166L896.414 22.1671C896.384 22.1686 896.354 22.1681 896.324 22.1676L896.307 22.1673L896.279 22.1671H887.099L887.081 22.1672L887.058 22.1677L887.058 22.1677C887.007 22.1689 886.954 22.1701 886.9 22.1555C886.883 22.116 886.867 22.0743 886.852 22.0348C886.774 21.8284 886.698 21.6219 886.623 21.4155C886.617 21.398 886.609 21.3815 886.601 21.3647C886.596 21.3547 886.592 21.3447 886.587 21.3343C886.585 21.332 886.58 21.3297 886.575 21.3297C886.566 21.3273 886.556 21.3343 886.556 21.3459L886.556 21.352V21.3521V21.3522V21.3522V21.3523V21.3523V21.3524V21.3524C886.554 21.3848 886.552 21.4153 886.552 21.448V21.9908C886.552 22.0302 886.552 22.0696 886.549 22.1091C886.549 22.1439 886.53 22.1647 886.497 22.1671C886.492 22.1671 886.486 22.1673 886.48 22.1676L886.468 22.1682C886.458 22.1688 886.447 22.1694 886.438 22.1694H886.334H881.533C881.478 22.1694 881.424 22.1694 881.367 22.1671C881.334 22.1671 881.315 22.1462 881.315 22.1091C881.315 22.0914 881.314 22.0737 881.314 22.0563C881.313 22.0395 881.313 22.023 881.313 22.007V20.6268C881.313 20.6071 881.313 20.5874 881.314 20.5676C881.314 20.5479 881.315 20.5282 881.315 20.5085C881.315 20.4899 881.334 20.4691 881.351 20.4691C881.37 20.4667 881.391 20.4644 881.41 20.4644H881.545H890.964C891.001 20.4644 891.032 20.4637 891.058 20.4632C891.128 20.4616 891.161 20.4609 891.182 20.4764C891.201 20.4904 891.21 20.5176 891.227 20.5693L891.227 20.5693C891.236 20.5961 891.247 20.6294 891.262 20.6709C891.354 20.9138 891.443 21.1579 891.532 21.4023L891.532 21.403L891.533 21.4039L891.533 21.405L891.534 21.4059L891.534 21.4066L891.534 21.4075L891.534 21.408L891.534 21.4086L891.535 21.4089L891.535 21.4093L891.535 21.4096L891.535 21.41L891.535 21.4103L891.535 21.4106L891.535 21.411L891.535 21.4113L891.536 21.4117L891.536 21.412L891.536 21.4124L891.536 21.4127L891.536 21.413L891.536 21.4134L891.536 21.4138L891.536 21.414L891.537 21.4141L891.537 21.4143L891.537 21.4144L891.537 21.4146L891.537 21.4147L891.537 21.4149L891.537 21.415L891.537 21.4152L891.537 21.4154L891.537 21.4158L891.537 21.4162L891.539 21.4209L891.54 21.424L891.541 21.4271L891.542 21.4302L891.544 21.4332C891.58 21.5332 891.617 21.6332 891.653 21.7333C891.658 21.7444 891.662 21.7554 891.666 21.7664L891.666 21.7665C891.675 21.7924 891.684 21.8179 891.696 21.8423C891.699 21.8484 891.708 21.8525 891.719 21.8572C891.725 21.8597 891.73 21.8623 891.736 21.8655C891.782 21.7554 891.821 21.6453 891.859 21.5361C891.874 21.4934 891.889 21.4509 891.904 21.4085C891.933 21.3309 891.961 21.2527 891.99 21.1744L891.99 21.1737L891.991 21.1702C892.019 21.0933 892.047 21.0163 892.075 20.9399L892.132 20.7799C892.168 20.6811 892.204 20.5814 892.241 20.4806C892.25 20.479 892.259 20.4767 892.268 20.4745L892.268 20.4745C892.284 20.4705 892.299 20.4667 892.314 20.4667C892.359 20.4644 892.404 20.4644 892.449 20.4644H901.809C901.831 20.4644 901.851 20.4642 901.869 20.464C901.951 20.4633 901.991 20.4629 902.01 20.4827C902.029 20.5018 902.028 20.5397 902.028 20.614V20.6141C902.027 20.6323 902.027 20.6527 902.027 20.6755V21.9954C902.027 22.0395 902.025 22.0836 902.022 22.1276C902.022 22.1462 902.003 22.1647 901.984 22.1671C901.97 22.1694 901.954 22.1694 901.939 22.1694H901.835H897.02H896.961L896.948 22.1694C896.884 22.1695 896.852 22.1695 896.837 22.1537C896.821 22.1381 896.821 22.1071 896.821 22.0456L896.821 22.0325V21.4456C896.826 21.4076 896.824 21.3717 896.821 21.3317L896.821 21.3273ZM875.64 31.8518H875.797C875.884 31.7753 875.939 31.6871 875.986 31.5967C876.05 31.4784 876.102 31.3577 876.147 31.2325C876.263 30.9193 876.341 30.5946 876.41 30.2698C876.413 30.2546 876.414 30.2383 876.415 30.2224V30.2223L876.415 30.2222L876.415 30.222L876.415 30.2219C876.416 30.2137 876.416 30.2057 876.417 30.1979C876.42 30.1793 876.401 30.1561 876.384 30.1561L876.378 30.1559C876.309 30.1537 876.242 30.1515 876.173 30.1515H857.527H857.437L857.417 30.1515C857.342 30.1514 857.305 30.1513 857.286 30.17C857.268 30.1883 857.268 30.2249 857.268 30.2974L857.268 30.3232V31.6732L857.268 31.7043C857.268 31.7799 857.268 31.8172 857.286 31.8354C857.304 31.853 857.34 31.8527 857.41 31.8521H857.41L857.458 31.8518H875.64ZM866.832 15.7136H857.501C857.471 15.7136 857.441 15.713 857.411 15.7124L857.411 15.7124C857.38 15.7118 857.35 15.7112 857.321 15.7112C857.295 15.7112 857.273 15.6904 857.271 15.6649C857.269 15.6417 857.266 15.6161 857.266 15.5906V14.1223C857.266 14.0991 857.269 14.0735 857.271 14.0503C857.273 14.0318 857.292 14.0156 857.311 14.0132C857.325 14.0109 857.342 14.0109 857.356 14.0109H857.491H875.584H875.688L875.702 14.0109C875.743 14.0108 875.765 14.0107 875.783 14.0187C875.806 14.0281 875.823 14.0489 875.861 14.0946L875.863 14.0967C875.93 14.1756 875.979 14.2661 876.027 14.3589C876.11 14.5259 876.171 14.7022 876.226 14.8808C876.299 15.1151 876.353 15.354 876.406 15.5929C876.41 15.6142 876.412 15.6374 876.414 15.659V15.659L876.415 15.6649C876.417 15.6904 876.401 15.7112 876.37 15.7112C876.311 15.7136 876.249 15.7136 876.19 15.7136H870.07H866.832ZM874.215 33.3759H865.86C863.43 33.3759 861 33.3759 858.567 33.3736H857.473C857.423 33.3736 857.373 33.3759 857.324 33.3783C857.298 33.3806 857.276 33.3991 857.274 33.4246L857.274 33.4247C857.272 33.4688 857.269 33.5128 857.269 33.5569V34.4384V34.9232C857.269 34.958 857.272 34.9928 857.279 35.0252C857.281 35.0368 857.295 35.0508 857.307 35.0531C857.345 35.0577 857.385 35.06 857.426 35.06C857.726 35.0624 858.024 35.0624 858.325 35.0624H858.326C858.937 35.0624 859.548 35.0629 860.158 35.0635H860.159H860.16H860.161H860.162H860.163H860.163H860.164H860.165H860.166H860.167H860.168H860.169H860.17H860.171H860.171H860.172H860.173H860.174H860.175H860.176H860.177H860.178H860.179H860.179H860.18H860.181H860.182H860.183H860.184H860.185H860.186H860.186C860.787 35.0641 861.387 35.0647 861.987 35.0647C862.698 35.0647 863.408 35.0653 864.118 35.0658C864.827 35.0664 865.537 35.067 866.248 35.067H869.533C869.553 35.067 869.572 35.0667 869.592 35.0665L869.593 35.0665C869.633 35.066 869.673 35.0654 869.713 35.067C870.028 35.074 870.343 35.0716 870.658 35.0577C870.798 35.0508 870.937 35.0368 871.075 35.016C871.352 34.9742 871.624 34.9162 871.892 34.8327C872.79 34.5543 873.592 34.1066 874.31 33.5128C874.346 33.485 874.379 33.4525 874.41 33.4223C874.414 33.4177 874.417 33.4038 874.414 33.3968C874.412 33.3899 874.403 33.3806 874.395 33.3806C874.336 33.3783 874.275 33.3759 874.215 33.3759ZM865.852 12.487H857.496C857.437 12.487 857.375 12.4847 857.316 12.4824C857.297 12.4824 857.278 12.4638 857.276 12.4453C857.275 12.4333 857.274 12.4217 857.273 12.4101C857.271 12.3879 857.269 12.3661 857.269 12.3432V10.9491V10.8911C857.271 10.8284 857.285 10.8168 857.349 10.8145H857.454H858.744H866.321H870.298H870.523C870.769 10.8145 871.01 10.847 871.252 10.8911C871.958 11.0163 872.614 11.2738 873.232 11.6218C873.611 11.8352 873.966 12.0764 874.298 12.3548C874.331 12.3826 874.367 12.4128 874.397 12.443C874.402 12.4476 874.404 12.4592 874.404 12.4685C874.404 12.4801 874.397 12.4847 874.386 12.4847C874.331 12.487 874.277 12.487 874.22 12.487H865.852ZM873.884 22.1693H874.028C874.04 22.161 874.051 22.1551 874.06 22.1498L874.071 22.1438C874.383 21.8956 874.675 21.6288 874.942 21.3365C875.089 21.1765 875.226 21.0071 875.345 20.8262C875.404 20.7357 875.461 20.6429 875.506 20.5455C875.53 20.4922 875.518 20.469 875.463 20.4666C875.414 20.4643 875.364 20.4643 875.314 20.4643H872.254H860.971H860.822C860.807 20.4643 860.791 20.4666 860.777 20.469C860.758 20.4713 860.739 20.4898 860.739 20.5084L860.739 20.5085C860.736 20.5525 860.734 20.5966 860.734 20.6406V21.9907L860.734 22.0374C860.733 22.1049 860.733 22.1385 860.749 22.1549C860.766 22.1711 860.799 22.1706 860.864 22.1698C860.881 22.1695 860.9 22.1693 860.921 22.1693H873.884ZM874.023 23.6959C874.048 23.7167 874.073 23.7371 874.097 23.7573C874.127 23.7819 874.156 23.8062 874.186 23.8304C874.484 24.0786 874.766 24.3407 875.02 24.633C875.152 24.7861 875.278 24.9439 875.382 25.1178C875.427 25.1944 875.467 25.2733 875.508 25.3521C875.511 25.3599 875.509 25.3699 875.506 25.3812C875.505 25.3866 875.504 25.3925 875.503 25.3985H875.335H872.379H860.949C860.89 25.3985 860.828 25.3962 860.769 25.3939C860.75 25.3939 860.733 25.3753 860.731 25.3544C860.729 25.3196 860.729 25.2872 860.729 25.2524V23.8443C860.729 23.827 860.729 23.8102 860.73 23.7934L860.73 23.7933L860.73 23.7931C860.73 23.7764 860.731 23.7596 860.731 23.7423C860.731 23.7191 860.755 23.6982 860.781 23.6959C860.8 23.6935 860.821 23.6935 860.84 23.6935H860.989H873.8L873.835 23.6924C873.901 23.6902 873.964 23.688 874.023 23.6959ZM855.364 14.0109H849.545C847.709 14.0109 845.874 14.0109 844.043 14.0132H843.652C843.619 14.0132 843.588 14.0152 843.554 14.0174L843.548 14.0178C843.531 14.0178 843.513 14.0387 843.513 14.0573C843.51 14.106 843.508 14.1547 843.508 14.2034V15.5233V15.6254C843.508 15.7019 843.517 15.7112 843.591 15.7135H843.74H855.35H855.499C855.513 15.7135 855.53 15.7112 855.544 15.7089C855.563 15.7066 855.582 15.688 855.582 15.6695C855.584 15.6323 855.587 15.5929 855.587 15.5535V14.1733C855.587 14.1408 855.587 14.106 855.584 14.0712C855.582 14.0364 855.563 14.0132 855.53 14.0132C855.473 14.0109 855.419 14.0109 855.364 14.0109ZM849.624 31.8519H843.804C843.752 31.8519 843.7 31.8498 843.646 31.8475L843.639 31.8473C843.62 31.8473 843.601 31.8287 843.601 31.8101C843.598 31.7869 843.596 31.7614 843.596 31.7382V30.2722C843.596 30.2594 843.597 30.2472 843.597 30.2351C843.598 30.2229 843.598 30.2107 843.598 30.198C843.601 30.1794 843.617 30.1608 843.634 30.1585C843.648 30.1562 843.662 30.1539 843.679 30.1539H843.814H855.452C855.512 30.1539 855.573 30.1562 855.632 30.1585C855.651 30.1585 855.67 30.1794 855.673 30.1956L855.673 30.2017C855.675 30.2295 855.677 30.2557 855.677 30.2838V31.722C855.677 31.7475 855.677 31.7707 855.675 31.7962C855.673 31.831 855.654 31.8519 855.62 31.8542C855.575 31.8565 855.53 31.8565 855.485 31.8565H853.55C852.243 31.8519 850.933 31.8519 849.624 31.8519ZM843.821 35.0596H849.64C851.57 35.0596 853.498 35.0596 855.431 35.0573H855.566C855.585 35.0573 855.606 35.0573 855.625 35.055C855.656 35.0527 855.675 35.0318 855.677 34.997C855.679 34.9669 855.679 34.939 855.679 34.9089V34.9089V33.5286V33.5286C855.679 33.4938 855.679 33.4614 855.677 33.4266C855.677 33.4034 855.653 33.3802 855.63 33.3802L855.623 33.3799C855.568 33.3777 855.516 33.3755 855.464 33.3755H843.809H843.704C843.697 33.3755 843.69 33.3761 843.682 33.3767C843.674 33.3773 843.667 33.3779 843.659 33.3779C843.622 33.3802 843.603 33.3987 843.6 33.4312C843.598 33.4567 843.598 33.4799 843.598 33.5054V34.9297C843.598 34.9579 843.6 34.984 843.602 35.0119L843.603 35.0179C843.603 35.0364 843.622 35.055 843.641 35.055C843.7 35.0573 843.761 35.0596 843.821 35.0596ZM889.418 15.7085L889.411 15.7096C889.398 15.7116 889.386 15.7137 889.373 15.7137C889.343 15.7152 889.313 15.7147 889.283 15.7142L889.283 15.7142C889.268 15.714 889.253 15.7137 889.238 15.7137H878.076C878.017 15.7137 877.955 15.7114 877.896 15.7091C877.877 15.7091 877.858 15.6905 877.855 15.6719C877.855 15.6616 877.854 15.6514 877.852 15.6414L877.852 15.6413C877.85 15.6223 877.848 15.6035 877.848 15.5838V14.1456C877.848 14.1201 877.848 14.0969 877.851 14.0714C877.853 14.0296 877.872 14.011 877.917 14.011C877.962 14.0087 878.007 14.0087 878.052 14.0087H888.644C888.655 14.0087 888.667 14.0085 888.679 14.0084C888.727 14.0076 888.777 14.0069 888.826 14.018C888.84 14.0482 888.854 14.0806 888.866 14.1108C889.056 14.6304 889.245 15.1523 889.432 15.6719C889.435 15.6766 889.432 15.6812 889.43 15.6859C889.432 15.6928 889.432 15.6975 889.43 15.7067L889.418 15.7085ZM893.989 15.6753V15.6753C893.988 15.6847 893.986 15.6946 893.984 15.7044C894.027 15.7152 894.067 15.7157 894.106 15.7163C894.126 15.7165 894.145 15.7168 894.164 15.7183H905.201H905.322C905.338 15.7183 905.355 15.7183 905.367 15.7114C905.379 15.7044 905.393 15.6928 905.395 15.6812C905.402 15.6511 905.402 15.6232 905.402 15.5931V14.1409C905.402 14.1128 905.4 14.0867 905.398 14.0588L905.398 14.0528C905.398 14.0365 905.376 14.018 905.357 14.018L905.351 14.0177C905.296 14.0155 905.244 14.0133 905.192 14.0133H894.77C894.757 14.0133 894.744 14.0131 894.73 14.0128C894.703 14.0123 894.677 14.0118 894.65 14.0133L894.63 14.0157C894.617 14.0172 894.604 14.0188 894.593 14.0203C894.565 14.0536 894.553 14.0906 894.54 14.1279L894.54 14.128L894.536 14.1409C894.401 14.5167 894.264 14.8948 894.126 15.2729L894.098 15.3505C894.063 15.4492 894.027 15.5471 893.994 15.6464C893.991 15.655 893.99 15.6648 893.989 15.6753ZM887.656 10.8215L887.666 10.8398L887.666 10.8398C887.672 10.8512 887.677 10.8618 887.682 10.8725C887.874 11.3968 888.066 11.921 888.255 12.4453C888.257 12.4483 888.256 12.4514 888.256 12.4545L888.255 12.4566L888.255 12.4592C888.255 12.462 888.254 12.4649 888.253 12.4688L888.253 12.4689L888.253 12.469L888.253 12.4691L888.252 12.4719L888.25 12.4777C888.241 12.4789 888.231 12.4806 888.222 12.4824L888.222 12.4824C888.212 12.4841 888.203 12.4859 888.194 12.487C888.16 12.4886 888.127 12.488 888.094 12.4875C888.077 12.4873 888.061 12.487 888.044 12.487H878.087C878.028 12.487 877.967 12.487 877.907 12.4847C877.874 12.4847 877.855 12.4638 877.853 12.4267C877.851 12.3919 877.851 12.3594 877.851 12.3246V10.9746C877.851 10.9351 877.853 10.8957 877.855 10.8586C877.858 10.84 877.874 10.8192 877.893 10.8192C877.907 10.8168 877.924 10.8168 877.938 10.8168H878.073H887.459L887.483 10.8159C887.539 10.8136 887.598 10.8113 887.656 10.8215ZM895.157 12.4594C895.158 12.4652 895.159 12.4712 895.159 12.4777C895.214 12.4912 895.267 12.4887 895.322 12.4861L895.356 12.4847H905.182H905.317C905.331 12.4847 905.348 12.4823 905.362 12.48C905.381 12.48 905.4 12.4615 905.4 12.4429L905.4 12.4427C905.402 12.394 905.405 12.3454 905.405 12.2968C905.405 12.156 905.405 12.0151 905.405 11.874V11.8737V11.8735V11.8732V11.873V11.8727V11.8724V11.8722V11.8719C905.406 11.5881 905.406 11.304 905.405 11.0209C905.405 10.9923 905.405 10.9676 905.405 10.9462V10.9462V10.9462V10.9462V10.9462V10.9462V10.9462V10.9461V10.9461V10.9461V10.9461V10.9461V10.9461V10.9461V10.9461V10.946V10.946V10.946V10.946V10.946V10.946V10.946C905.406 10.8785 905.406 10.8446 905.389 10.828C905.372 10.8113 905.338 10.812 905.269 10.8134C905.246 10.8139 905.219 10.8145 905.187 10.8145H895.945H895.855H895.81C895.751 10.8168 895.739 10.8238 895.72 10.8725C895.708 10.9003 895.699 10.9281 895.69 10.9559L895.689 10.956C895.539 11.3716 895.388 11.7896 895.237 12.2075L895.237 12.2077L895.235 12.2133L895.157 12.436C895.154 12.4429 895.155 12.4508 895.157 12.4594ZM885.974 18.9402H881.519C881.467 18.9402 881.415 18.9381 881.361 18.9358L881.361 18.9358L881.361 18.9358L881.361 18.9358H881.36H881.36H881.36L881.354 18.9355C881.335 18.9355 881.318 18.9147 881.318 18.8961C881.316 18.8613 881.316 18.8288 881.316 18.794V17.386C881.316 17.3466 881.318 17.3071 881.323 17.27C881.323 17.263 881.335 17.2538 881.344 17.2491C881.358 17.2445 881.372 17.2422 881.389 17.2422H881.538H889.816L889.849 17.2424L889.866 17.2427C889.899 17.2432 889.932 17.2437 889.965 17.2422C890.001 17.2422 890.02 17.2607 890.031 17.2909C890.06 17.3651 890.086 17.437 890.112 17.5113C890.271 17.9427 890.429 18.3765 890.586 18.808C890.598 18.8404 890.607 18.8729 890.616 18.9054C890.621 18.917 890.605 18.9355 890.593 18.9355C890.538 18.9379 890.484 18.9379 890.427 18.9379C888.944 18.9402 887.459 18.9402 885.974 18.9402ZM892.822 18.9205L892.823 18.924L892.825 18.9296L892.826 18.9334C892.862 18.9408 892.9 18.9416 892.937 18.9424H892.937C892.959 18.9428 892.98 18.9433 893.001 18.945H901.816H901.892L901.91 18.9447C902.03 18.943 902.032 18.943 902.032 18.8058V17.3838V17.3837C902.032 17.3536 902.032 17.3258 902.03 17.2957C902.03 17.2678 902.011 17.247 901.984 17.247C901.928 17.2446 901.873 17.2446 901.819 17.2446H893.617H893.482L893.475 17.2446C893.452 17.2444 893.43 17.2443 893.408 17.2655C893.403 17.2803 893.397 17.2958 893.39 17.3119C893.384 17.3261 893.378 17.3408 893.373 17.356C893.2 17.8385 893.025 18.3233 892.849 18.8058C892.838 18.8383 892.828 18.8708 892.819 18.9032C892.817 18.9076 892.819 18.9137 892.822 18.9205ZM901.163 31.8519H897.039C896.989 31.8519 896.94 31.8519 896.89 31.8496C896.852 31.8496 896.833 31.8311 896.831 31.7986L896.831 31.7893L896.83 31.7823L896.83 31.7696C896.829 31.7597 896.828 31.7499 896.828 31.7406V30.2583C896.828 30.2397 896.831 30.2189 896.831 30.2003C896.833 30.1748 896.852 30.1539 896.88 30.1539C896.935 30.1516 896.989 30.1516 897.046 30.1516H900.286H905.265C905.297 30.1516 905.325 30.1511 905.349 30.1507H905.349H905.349H905.349H905.349H905.349H905.349C905.426 30.1493 905.464 30.1486 905.482 30.1671C905.5 30.1853 905.499 30.2219 905.498 30.2942V30.2942V30.2943V30.2943V30.2944V30.2945C905.497 30.3173 905.497 30.3438 905.497 30.3743C905.498 30.6602 905.498 30.9451 905.497 31.2303V31.2306V31.2309V31.2311V31.2314V31.2316V31.2319V31.2321V31.2324V31.2327V31.2329V31.2332V31.2334V31.2337V31.234V31.2342V31.2345V31.2347V31.235V31.2352C905.497 31.3788 905.497 31.5225 905.497 31.6664C905.497 31.715 905.494 31.7636 905.492 31.8123L905.492 31.8125C905.492 31.8311 905.471 31.8473 905.452 31.8496C905.438 31.8496 905.421 31.8519 905.407 31.8519H905.272H901.163ZM878.161 31.8518H882.239C883.604 31.8518 884.97 31.8518 886.332 31.8541C886.361 31.8541 886.389 31.8535 886.416 31.8529L886.417 31.8529C886.444 31.8524 886.471 31.8518 886.498 31.8518C886.524 31.8518 886.545 31.8309 886.547 31.8077L886.548 31.8016C886.55 31.7738 886.552 31.7477 886.552 31.7196V30.2814C886.552 30.2533 886.55 30.2272 886.548 30.1994L886.547 30.1932C886.545 30.177 886.526 30.1561 886.507 30.1561C886.453 30.1538 886.398 30.1515 886.344 30.1515H878.158C878.113 30.1515 878.068 30.1515 878.023 30.1538C877.967 30.1561 877.95 30.17 877.948 30.2211C877.945 30.2651 877.945 30.3092 877.945 30.3533C877.945 30.495 877.945 30.6369 877.945 30.7789V30.7792V30.7794V30.7797V30.7799V30.7802V30.7804V30.7807V30.781V30.7812V30.7815V30.7817V30.782V30.7823V30.7825V30.7828C877.944 31.0696 877.944 31.3568 877.945 31.643C877.945 31.6683 877.945 31.6906 877.945 31.7102C877.944 31.7824 877.943 31.8186 877.961 31.8364C877.979 31.8543 878.015 31.8537 878.088 31.8525C878.109 31.8522 878.133 31.8518 878.161 31.8518ZM901.156 35.0599H897.061C897.029 35.0599 897.001 35.0605 896.976 35.0609L896.976 35.0609C896.899 35.0623 896.861 35.063 896.843 35.0444C896.826 35.0266 896.827 34.9909 896.828 34.9209C896.829 34.8971 896.829 34.8695 896.829 34.8373C896.828 34.5433 896.828 34.2493 896.829 33.9559V33.9554V33.9549L896.829 33.7979L896.829 33.5174C896.829 33.3805 896.829 33.3782 896.969 33.3782H897.073H905.249L905.274 33.3781L905.297 33.3779L905.34 33.3772C905.422 33.3757 905.462 33.375 905.481 33.3947C905.5 33.4135 905.499 33.4511 905.498 33.5245C905.498 33.5506 905.497 33.5812 905.498 33.6171C905.499 33.9066 905.499 34.195 905.498 34.4837V34.484V34.4842V34.4845V34.4848V34.485V34.4853V34.4855V34.4858V34.486V34.4863V34.4866V34.4868V34.4871V34.4873C905.498 34.6324 905.498 34.7776 905.498 34.9231V34.9298C905.498 34.9944 905.498 35.027 905.481 35.0434C905.465 35.06 905.432 35.06 905.365 35.0599H905.358H905.237H901.156ZM878.177 35.06H882.242C883.606 35.06 884.97 35.06 886.337 35.0577C886.394 35.0577 886.448 35.0577 886.503 35.0554C886.529 35.0531 886.552 35.0322 886.552 35.009L886.552 34.9938L886.553 34.9714L886.553 34.9429C886.554 34.9209 886.555 34.8988 886.555 34.8768C886.555 34.7329 886.555 34.589 886.555 34.4452V34.4449V34.4446V34.4444V34.4441V34.4439V34.4436V34.4433V34.4431V34.4428V34.4426V34.4423V34.4421V34.4418V34.4415V34.4413V34.441C886.556 34.155 886.556 33.8694 886.555 33.5847L886.554 33.5455L886.555 33.517V33.5168V33.5166V33.5164V33.5163V33.5161C886.555 33.447 886.555 33.4111 886.537 33.3925C886.518 33.3724 886.477 33.3727 886.393 33.3733L886.374 33.3735L886.337 33.3736H878.163H878.163C878.118 33.3736 878.073 33.3736 878.028 33.3759C877.964 33.3783 877.95 33.3945 877.948 33.4548C877.945 33.4989 877.945 33.543 877.945 33.587C877.945 33.7264 877.945 33.8655 877.945 34.0044V34.0049V34.0054V34.0059V34.0065V34.007V34.0075V34.008V34.0085V34.009V34.0095V34.01V34.0105V34.011V34.0115V34.0121V34.0126C877.944 34.2872 877.944 34.5611 877.945 34.835C877.946 34.8657 877.945 34.8922 877.945 34.9152V34.9153C877.944 34.9882 877.944 35.0252 877.962 35.0437C877.981 35.0627 878.02 35.0621 878.098 35.0608L878.136 35.0603L878.177 35.06ZM888.103 25.3916C888.084 25.3475 888.07 25.3104 888.056 25.2733C887.877 24.7931 887.7 24.3129 887.523 23.8327L887.523 23.8322L887.523 23.8318L887.523 23.8314L887.523 23.831L887.523 23.8305L887.522 23.8301L887.522 23.8297L887.522 23.8293L887.522 23.8288L887.522 23.8284L887.522 23.828L887.521 23.8275L887.521 23.8271L887.521 23.8267L887.521 23.8263L887.521 23.8258L887.492 23.7423C887.483 23.7145 887.499 23.6936 887.528 23.6936C887.568 23.6913 887.608 23.6913 887.649 23.6913H887.649H895.744C895.789 23.6913 895.834 23.6936 895.879 23.6959L895.879 23.6959C895.898 23.6959 895.912 23.7191 895.905 23.7377C895.9 23.7515 895.896 23.7654 895.892 23.7792L895.892 23.7795C895.888 23.7934 895.884 23.8073 895.879 23.8212C895.79 24.0649 895.701 24.3092 895.612 24.5535L895.612 24.5547C895.523 24.7983 895.435 25.0419 895.346 25.2849C895.337 25.3127 895.325 25.3406 895.313 25.3661C895.306 25.3777 895.292 25.387 895.28 25.3916C895.266 25.3963 895.251 25.3963 895.235 25.3963H895.114H888.293C888.278 25.3963 888.262 25.3965 888.247 25.3968C888.201 25.3977 888.155 25.3986 888.103 25.3916ZM889.253 28.5042L889.253 28.5042C889.266 28.5442 889.279 28.5844 889.312 28.6204C889.352 28.6204 889.397 28.6227 889.442 28.625L889.442 28.6251H893.987C894.02 28.6251 894.056 28.6251 894.091 28.6227C894.115 28.6204 894.129 28.6088 894.139 28.5903C894.151 28.5647 894.162 28.5369 894.172 28.5091C894.259 28.2708 894.346 28.0319 894.433 27.7931L894.433 27.7919L894.438 27.7789L894.439 27.7765C894.527 27.5326 894.616 27.2887 894.705 27.0453C894.714 27.0175 894.724 26.9897 894.731 26.9618C894.736 26.9433 894.719 26.9224 894.698 26.9224C894.648 26.9201 894.598 26.9178 894.548 26.9178H888.878H888.758C888.743 26.9178 888.727 26.9201 888.713 26.9224C888.701 26.9224 888.684 26.941 888.687 26.9526C888.694 26.9804 888.701 27.0082 888.71 27.0361C888.728 27.0848 888.746 27.1329 888.764 27.181C888.781 27.2292 888.799 27.2773 888.817 27.326C888.888 27.5162 888.958 27.707 889.029 27.8978C889.099 28.0886 889.17 28.2794 889.241 28.4696L889.245 28.4805L889.248 28.4901L889.253 28.5042ZM876.232 18.9311C876.223 18.932 876.215 18.9332 876.207 18.9344C876.194 18.9363 876.182 18.9381 876.168 18.9381C876.142 18.9396 876.115 18.9391 876.088 18.9386L876.062 18.9382L876.048 18.9381H871.218C871.169 18.9381 871.119 18.9358 871.069 18.9334L871.069 18.9334C871.05 18.9334 871.034 18.9126 871.031 18.894L871.031 18.8879C871.029 18.86 871.027 18.834 871.027 18.8059V17.3676C871.027 17.3329 871.029 17.3004 871.034 17.2656C871.034 17.2586 871.045 17.2493 871.053 17.2447C871.062 17.2401 871.072 17.2377 871.081 17.2377C871.104 17.2377 871.126 17.2372 871.149 17.2366C871.171 17.236 871.194 17.2354 871.216 17.2354H876.374H876.495C876.547 17.2377 876.564 17.2517 876.562 17.3073C876.562 17.3816 876.559 17.4535 876.552 17.5277C876.509 17.9684 876.41 18.3953 876.268 18.8151C876.261 18.8592 876.247 18.8963 876.232 18.9311ZM876.248 26.98L876.231 26.9341C876.167 26.9125 876.115 26.915 876.067 26.9173L876.055 26.9178H871.224C871.208 26.9178 871.191 26.9184 871.174 26.919H871.174H871.174H871.173H871.173L871.173 26.919C871.156 26.9196 871.138 26.9202 871.12 26.9202C871.103 26.9202 871.089 26.9225 871.075 26.9248C871.058 26.9271 871.034 26.948 871.034 26.9642L871.034 26.9644C871.032 27.0084 871.03 27.0524 871.03 27.0965C871.03 27.2424 871.029 27.3886 871.029 27.535C871.029 27.8284 871.028 28.1224 871.03 28.4164C871.03 28.4422 871.029 28.4648 871.029 28.4848C871.028 28.558 871.027 28.5941 871.045 28.6115C871.062 28.6283 871.097 28.6276 871.165 28.6262H871.165H871.165H871.165H871.165H871.165C871.188 28.6257 871.214 28.6251 871.245 28.6251H876.347H876.496L876.505 28.6241L876.511 28.6234L876.511 28.6234C876.521 28.6224 876.531 28.6214 876.541 28.6182C876.548 28.6135 876.558 28.6042 876.56 28.5973C876.565 28.5741 876.567 28.5486 876.567 28.5254C876.569 28.3769 876.548 28.2308 876.527 28.087C876.479 27.7529 876.396 27.4258 876.292 27.1034C876.278 27.0627 876.263 27.022 876.248 26.9804L876.248 26.98ZM846.985 17.2491C846.994 17.2482 847.003 17.2469 847.011 17.2457C847.023 17.2439 847.035 17.2422 847.046 17.2422H847.167H852.01C852.035 17.2422 852.06 17.2428 852.085 17.2433L852.085 17.2433C852.11 17.2439 852.135 17.2445 852.16 17.2445C852.186 17.2445 852.205 17.2654 852.205 17.2932C852.207 17.3187 852.207 17.3419 852.207 17.3674V18.8196C852.207 18.8497 852.205 18.8776 852.2 18.9077C852.198 18.9193 852.183 18.9309 852.172 18.9379C852.162 18.9434 852.15 18.9431 852.137 18.9427L852.127 18.9425H852.006H847.162C847.117 18.9425 847.072 18.9425 847.027 18.9402C846.987 18.9379 846.968 18.9309 846.966 18.8752C846.963 18.8312 846.963 18.7871 846.963 18.743V18.743V17.437V17.437C846.963 17.3929 846.963 17.3489 846.966 17.3048C846.968 17.2955 846.972 17.2862 846.975 17.277C846.979 17.2677 846.982 17.2584 846.985 17.2491ZM847.165 22.1693H849.595C850.204 22.1693 850.815 22.1693 851.431 22.167H852.075C852.111 22.167 852.144 22.167 852.179 22.1623C852.194 22.16 852.205 22.1484 852.208 22.1322L852.208 22.1261L852.208 22.1261C852.211 22.0983 852.213 22.0722 852.213 22.044V20.5919C852.213 20.5638 852.211 20.5377 852.208 20.5098L852.208 20.5098L852.208 20.5038C852.208 20.4875 852.187 20.469 852.168 20.469L852.168 20.469C852.118 20.4666 852.068 20.4643 852.018 20.4643H847.173C847.132 20.4643 847.092 20.4643 847.052 20.4666C847.04 20.4666 847.03 20.4688 847.02 20.471C847.016 20.4719 847.011 20.4729 847.007 20.4736C846.988 20.4759 846.981 20.4898 846.978 20.5038C846.974 20.5339 846.971 20.5617 846.971 20.5919V22.044C846.971 22.0722 846.973 22.0983 846.975 22.1261L846.976 22.1322C846.976 22.1484 846.997 22.167 847.016 22.167C847.066 22.1693 847.116 22.1693 847.165 22.1693ZM849.588 25.3963H847.16C847.135 25.3963 847.11 25.3957 847.085 25.3951C847.061 25.3945 847.036 25.3939 847.011 25.3939C846.992 25.3939 846.975 25.3754 846.973 25.3545L846.973 25.3485C846.97 25.3206 846.968 25.2945 846.968 25.2664V23.8305C846.968 23.7614 846.968 23.7266 846.986 23.709C847.003 23.6913 847.039 23.6913 847.11 23.6913H847.186H851.996C852.051 23.6913 852.105 23.6936 852.16 23.6959L852.16 23.6959C852.186 23.6959 852.205 23.7168 852.205 23.7446C852.207 23.7794 852.207 23.8119 852.207 23.8467V25.2548C852.207 25.2942 852.203 25.3336 852.198 25.3707C852.198 25.3777 852.186 25.387 852.179 25.3916C852.169 25.3963 852.16 25.3963 852.15 25.3963C852.126 25.3963 852.101 25.3968 852.076 25.3974C852.051 25.398 852.026 25.3986 852.001 25.3986C851.196 25.3963 850.391 25.3963 849.588 25.3963ZM881.505 25.3963H883.935C884.74 25.3963 885.543 25.3963 886.358 25.3986C886.383 25.3986 886.407 25.398 886.432 25.3974C886.457 25.3968 886.482 25.3963 886.507 25.3963C886.533 25.3963 886.554 25.3754 886.557 25.3522C886.557 25.3371 886.557 25.3226 886.558 25.3081L886.558 25.2951C886.559 25.2849 886.559 25.2746 886.559 25.264V23.8258C886.559 23.7957 886.557 23.7678 886.554 23.7377C886.552 23.7214 886.533 23.7006 886.516 23.6982L886.49 23.6967L886.471 23.6954C886.441 23.6933 886.411 23.6913 886.381 23.6913H881.491H881.49C881.45 23.6913 881.41 23.6913 881.37 23.6936C881.344 23.6959 881.32 23.7168 881.32 23.74C881.32 23.7574 881.319 23.7742 881.319 23.791C881.318 23.8078 881.318 23.8247 881.318 23.8421V25.2501C881.318 25.2849 881.318 25.3174 881.32 25.3522C881.32 25.3731 881.337 25.3916 881.356 25.3916C881.405 25.3939 881.455 25.3963 881.505 25.3963ZM849.579 28.6228H847.165C847.12 28.6228 847.075 28.6228 847.03 28.6205C846.99 28.6182 846.971 28.6112 846.969 28.5555C846.966 28.5115 846.966 28.4674 846.966 28.4233V27.1196C846.966 27.0756 846.966 27.0315 846.969 26.9874C846.969 26.9735 846.973 26.9596 846.98 26.9457C846.985 26.9387 846.992 26.9294 847.002 26.9271C847.016 26.9225 847.03 26.9178 847.044 26.9178C847.089 26.9155 847.134 26.9155 847.179 26.9155H851.99C852.012 26.9155 852.032 26.9153 852.05 26.9151H852.05C852.132 26.9143 852.172 26.914 852.191 26.9337C852.209 26.9526 852.209 26.9901 852.208 27.0635C852.208 27.0815 852.208 27.1017 852.208 27.1243V28.428C852.208 28.472 852.208 28.5161 852.205 28.5602C852.203 28.6042 852.186 28.6205 852.139 28.6205H852.004C851.196 28.6228 850.389 28.6228 849.579 28.6228ZM881.505 28.6225H883.92C884.73 28.6225 885.54 28.6225 886.35 28.6202H886.485C886.53 28.6202 886.547 28.604 886.549 28.5599V28.5158V27.0336C886.549 27.008 886.547 26.9825 886.545 26.9593C886.545 26.9431 886.523 26.9199 886.507 26.9199C886.485 26.9191 886.464 26.918 886.444 26.917C886.404 26.9149 886.365 26.9129 886.327 26.9129H881.542H881.452C881.315 26.9153 881.313 26.9176 881.313 27.0544V28.198V28.4926C881.313 28.5207 881.315 28.5468 881.317 28.5747L881.317 28.5808C881.317 28.5994 881.336 28.6179 881.355 28.6179C881.405 28.6202 881.455 28.6225 881.505 28.6225ZM863.353 17.2421H865.767L865.809 17.2419C865.874 17.2413 865.907 17.2411 865.924 17.2573C865.94 17.2738 865.94 17.3071 865.94 17.3741L865.94 17.4045V18.7824C865.94 18.8218 865.937 18.8612 865.935 18.8983C865.935 18.9169 865.916 18.9331 865.895 18.9355C865.88 18.9378 865.864 18.9378 865.85 18.9378H865.729H860.933C860.907 18.9378 860.884 18.9381 860.865 18.9385C860.797 18.9395 860.763 18.9401 860.746 18.9234C860.73 18.9068 860.73 18.8733 860.731 18.8063C860.731 18.7885 860.731 18.7682 860.731 18.7452V17.4253C860.731 17.3766 860.734 17.3279 860.736 17.2792C860.736 17.2606 860.755 17.2444 860.774 17.2421C860.788 17.2398 860.805 17.2398 860.819 17.2398H860.954C861.755 17.2421 862.553 17.2421 863.353 17.2421ZM897.025 25.3959H899.424C900.22 25.3959 901.013 25.3959 901.812 25.4005H901.947C901.961 25.4005 901.977 25.4005 901.992 25.3982C902.013 25.3959 902.029 25.3796 902.032 25.3611L902.032 25.3551C902.035 25.3272 902.037 25.3011 902.037 25.2729V23.8347V23.8346C902.037 23.8045 902.037 23.7767 902.034 23.7466C902.032 23.721 902.011 23.6978 901.987 23.6978L901.98 23.6976C901.926 23.6953 901.873 23.6932 901.821 23.6932H897.051H896.916C896.902 23.6932 896.885 23.6955 896.871 23.6978C896.854 23.7002 896.833 23.7164 896.833 23.735C896.831 23.7721 896.828 23.8115 896.828 23.8509V25.2451V25.3332C896.828 25.3796 896.843 25.3935 896.89 25.3959H897.025ZM863.339 28.6226H860.925C860.876 28.6226 860.826 28.6203 860.776 28.618C860.757 28.618 860.738 28.5994 860.738 28.5809L860.738 28.5749C860.736 28.547 860.734 28.5209 860.734 28.4927V28.2005V27.0569C860.734 26.92 860.736 26.9177 860.873 26.9153H860.963H865.717C865.756 26.9153 865.794 26.9173 865.834 26.9194L865.862 26.9208L865.897 26.9223C865.913 26.9223 865.935 26.9455 865.935 26.9617L865.935 26.9678C865.937 26.9956 865.939 27.0218 865.939 27.0499V28.502C865.939 28.5322 865.937 28.56 865.932 28.5902C865.93 28.6041 865.92 28.618 865.901 28.618C865.861 28.6203 865.821 28.6226 865.783 28.6226H864.627H863.339ZM897.004 28.6225H899.434H901.834C901.883 28.6225 901.933 28.6225 901.983 28.6202C902.007 28.6179 902.028 28.597 902.028 28.5715C902.028 28.5533 902.028 28.5348 902.028 28.5163C902.029 28.503 902.029 28.4897 902.029 28.4764L902.03 28.4385C902.03 28.4193 902.03 28.4002 902.03 28.3813V27.0892C902.03 27.0452 902.028 27.0012 902.026 26.9572L902.026 26.957C902.026 26.9431 901.999 26.9176 901.985 26.9176C901.926 26.9153 901.864 26.9129 901.805 26.9129H897.052H896.962C896.894 26.9141 896.859 26.9147 896.842 26.9321C896.824 26.9499 896.824 26.9853 896.824 27.0568V28.495V28.4951C896.824 28.5206 896.824 28.5437 896.827 28.5692C896.828 28.5723 896.828 28.5756 896.829 28.579C896.83 28.5857 896.831 28.5924 896.834 28.597C896.839 28.604 896.848 28.6156 896.855 28.6156C896.905 28.6202 896.955 28.6225 897.004 28.6225ZM892.945 31.8472L892.933 31.8481L892.933 31.8481C892.91 31.8501 892.889 31.8518 892.867 31.8518H890.588C890.569 31.8518 890.548 31.8518 890.529 31.8495C890.508 31.8472 890.493 31.8332 890.484 31.817C890.467 31.7822 890.453 31.7451 890.439 31.708C890.393 31.5852 890.348 31.462 890.302 31.3387L890.3 31.3336L890.3 31.3328C890.227 31.1365 890.154 30.9398 890.081 30.743C890.053 30.6676 890.025 30.5916 889.997 30.5157C889.969 30.4397 889.941 30.3637 889.913 30.2883C889.91 30.2791 889.907 30.2698 889.903 30.2606C889.901 30.2536 889.899 30.2466 889.896 30.2396C889.891 30.2234 889.886 30.2071 889.88 30.1909C889.875 30.1793 889.889 30.1584 889.901 30.1561C889.915 30.1538 889.93 30.1515 889.946 30.1515H890.05H893.364C893.414 30.1515 893.463 30.1538 893.513 30.1561C893.539 30.1561 893.556 30.1816 893.546 30.2095C893.542 30.2234 893.537 30.2373 893.533 30.2512C893.524 30.2791 893.515 30.3069 893.504 30.3347C893.442 30.5029 893.381 30.6705 893.32 30.8381C893.259 31.0057 893.198 31.1733 893.137 31.3415C893.11 31.4122 893.084 31.4835 893.058 31.5548L893.058 31.5554L893.057 31.5586C893.031 31.6287 893.006 31.6988 892.98 31.7683C892.974 31.7901 892.963 31.812 892.951 31.8352C892.949 31.8392 892.947 31.8431 892.945 31.8472ZM892.367 33.4638C892.374 33.4406 892.381 33.4174 892.371 33.3919C892.346 33.3765 892.317 33.3771 892.286 33.3777C892.28 33.3779 892.274 33.378 892.267 33.378H891.173C891.157 33.378 891.14 33.3801 891.123 33.3823C891.115 33.3832 891.107 33.3842 891.1 33.3849C891.088 33.3873 891.074 33.4058 891.076 33.4174C891.082 33.4337 891.087 33.4499 891.092 33.4661C891.098 33.4824 891.103 33.4986 891.109 33.5148C891.284 33.9837 891.458 34.4548 891.633 34.9259L891.635 34.9322C891.647 34.9647 891.659 34.9948 891.673 35.0273C891.675 35.0342 891.685 35.0412 891.692 35.0482C891.72 35.069 891.782 35.0551 891.796 35.0226C891.808 34.9982 891.817 34.9726 891.826 34.9467C891.83 34.9357 891.834 34.9247 891.839 34.9136C891.894 34.7616 891.949 34.6095 892.004 34.4575C892.059 34.3057 892.114 34.1538 892.17 34.002C892.203 33.9127 892.236 33.8228 892.268 33.7329C892.301 33.643 892.334 33.5531 892.367 33.4638Z" fill="#898D9A"/>
<path d="M961.5 12.8835C961.5 12.8835 965.066 27.4967 965.635 29.8687C966.3 32.6372 967.497 33.6561 970.948 32.9689L973.174 23.9088C973.739 21.6584 974.117 20.0539 974.48 17.7647H974.544C974.799 20.0764 975.162 21.6651 975.626 23.9167C975.626 23.9167 976.533 28.0298 976.997 30.1901C977.462 32.3496 978.758 33.7107 982.138 32.9697L987.444 12.8851H983.16L981.349 21.5686C980.862 24.0962 980.42 26.0713 980.079 28.3836H980.018C979.709 26.0943 979.315 24.1975 978.82 21.7349L976.934 12.8851H972.47L970.453 21.5119C969.881 24.1333 969.347 26.2502 969.007 28.4842H968.945C968.597 26.3803 968.133 23.7199 967.631 21.1823C967.631 21.1823 966.432 15.0119 966.012 12.8851L961.5 12.8856L961.5 12.8835ZM1002.34 12.8835V32.9682H1006.42V28.7033V12.8826H1002.34V12.8835ZM1059.78 12.8835V27.7003C1059.78 29.7432 1060.17 31.1744 1060.99 32.0488C1061.71 32.8135 1062.89 33.3087 1064.31 33.3087C1065.52 33.3087 1066.7 33.08 1067.26 32.8717L1067.21 29.6844C1066.79 29.7868 1066.31 29.8687 1065.66 29.8687C1064.27 29.8687 1063.8 28.9789 1063.8 27.1447V21.4758H1067.36V17.633H1063.8V12.8836H1059.78L1059.78 12.8835ZM993.223 17.5396C990.689 17.5396 988.676 18.2513 987.58 18.8851L988.382 21.6336C989.386 21.0008 990.984 20.4769 992.498 20.4769C995.003 20.4705 995.413 21.8936 995.413 22.8064V23.0222C989.953 23.014 986.505 24.9032 986.505 28.7541C986.505 31.1053 988.26 33.3087 991.313 33.3087C993.192 33.3087 994.763 32.5592 995.705 31.3584H995.798C995.798 31.3584 996.421 33.9662 999.857 32.969C999.677 31.8836 999.618 30.7264 999.618 29.3327V23.9671C999.618 20.5474 998.158 17.5396 993.223 17.5396L993.223 17.5396ZM1017.62 17.5396C1015.07 17.5396 1013.92 18.833 1013.23 19.9304H1013.17V17.8802H1009.27V32.9691H1013.37V24.1201C1013.37 23.7052 1013.42 23.2666 1013.57 22.8849C1013.91 21.994 1014.74 20.9518 1016.06 20.9518C1017.71 20.9518 1018.49 22.3506 1018.49 24.3692V32.969H1022.58V24.0129C1022.58 23.6169 1022.64 23.1399 1022.75 22.7897C1023.09 21.7763 1023.98 20.9517 1025.21 20.9517C1026.89 20.9517 1027.7 22.3261 1027.7 24.7014V32.969H1031.8V24.0821C1031.8 19.3953 1029.42 17.5397 1026.73 17.5397C1025.54 17.5397 1024.6 17.838 1023.75 18.3592C1023.04 18.7971 1022.4 19.4193 1021.84 20.2386H1021.78C1021.13 18.6124 1019.61 17.5397 1017.62 17.5397L1017.62 17.5396ZM1040.14 17.5396C1037.6 17.5396 1035.59 18.2513 1034.49 18.8851L1035.3 21.6336C1036.3 21.0008 1037.9 20.4769 1039.41 20.4769C1041.92 20.4705 1042.33 21.8936 1042.33 22.8064V23.0222C1036.87 23.014 1033.42 24.9032 1033.42 28.7541C1033.42 31.1053 1035.18 33.3087 1038.23 33.3087C1040.11 33.3087 1041.68 32.5592 1042.62 31.3584H1042.71C1042.71 31.3584 1043.34 33.9662 1046.77 32.969C1046.59 31.8836 1046.53 30.7264 1046.53 29.3327V23.9671C1046.53 20.5474 1045.07 17.5396 1040.14 17.5396L1040.14 17.5396ZM1057.17 17.5396C1055.59 17.5396 1053.81 18.5531 1053.06 20.7257H1052.94V17.88H1049.25V32.9689H1053.46V25.2424C1053.46 24.8256 1053.49 24.4622 1053.55 24.1289C1053.86 22.5104 1055.1 21.4758 1056.88 21.4758C1057.37 21.4758 1057.71 21.5286 1058.09 21.5831V17.6329C1057.78 17.5689 1057.56 17.5394 1057.17 17.5394L1057.17 17.5396ZM995.545 25.6961V27.5784C995.545 27.8569 995.52 28.1442 995.443 28.3953C995.127 29.4408 994.044 30.3242 992.691 30.3242C991.562 30.3242 990.665 29.6836 990.665 28.3285C990.665 26.2556 992.947 25.6826 995.545 25.6961H995.545ZM1042.46 25.6961V27.5784C1042.46 27.8569 1042.43 28.1442 1042.36 28.3953C1042.04 29.4408 1040.96 30.3242 1039.61 30.3242C1038.48 30.3242 1037.58 29.6836 1037.58 28.3285C1037.58 26.2556 1039.86 25.6826 1042.46 25.6961H1042.46Z" fill="#898D9A"/>
<path d="M1089.41 5.62012C1088.09 5.62012 1087.04 6.35543 1087.04 7.2506L1087.84 16.3055C1087.93 16.851 1088.6 17.2718 1089.41 17.2718C1090.22 17.2708 1090.88 16.8503 1090.97 16.3055L1091.78 7.2506C1091.78 6.35551 1090.73 5.62019 1089.41 5.62019L1089.41 5.62012ZM1076.38 12.8835C1075.69 12.8997 1074.92 13.4173 1074.42 14.2737C1073.76 15.4141 1073.88 16.6886 1074.65 17.1357L1082.89 20.9733C1083.41 21.1648 1084.11 20.7992 1084.51 20.1012C1084.51 20.1011 1084.51 20.1009 1084.51 20.1008C1084.92 19.3994 1084.89 18.6107 1084.46 18.2609L1077.02 13.0406C1076.82 12.9286 1076.6 12.8782 1076.38 12.8836L1076.38 12.8835ZM1102.44 12.8835C1102.21 12.8781 1101.99 12.9285 1101.8 13.0404L1094.36 18.2607C1093.93 18.6106 1093.9 19.3993 1094.3 20.1007L1094.31 20.1011C1094.71 20.7991 1095.41 21.1647 1095.92 20.9732L1104.17 17.1358C1104.94 16.6887 1105.06 15.4143 1104.4 14.2738C1103.9 13.4174 1103.12 12.8998 1102.44 12.8836L1102.44 12.8835ZM1083.2 24.8302C1083.09 24.8287 1082.99 24.8452 1082.89 24.8816L1074.65 28.7146C1073.88 29.1637 1073.76 30.4386 1074.42 31.5802C1075.08 32.7184 1076.24 33.2595 1077.02 32.8132L1084.46 27.5969C1084.89 27.2428 1084.92 26.4543 1084.51 25.7536L1084.52 25.7551C1084.19 25.1843 1083.66 24.8363 1083.2 24.83L1083.2 24.8302ZM1095.62 24.8302C1095.16 24.8364 1094.63 25.1844 1094.3 25.7552L1094.31 25.7537C1093.9 26.4544 1093.93 27.2429 1094.36 27.597L1101.8 32.8133C1102.57 33.2596 1103.74 32.7186 1104.4 31.5804C1105.05 30.4387 1104.94 29.1638 1104.17 28.7148L1095.93 24.8817C1095.83 24.8453 1095.73 24.8288 1095.62 24.8303L1095.62 24.8302ZM1089.41 28.5829C1088.6 28.5838 1087.93 29.0028 1087.84 29.547L1087.05 38.6015C1087.05 39.4981 1088.09 40.2319 1089.41 40.2319C1090.73 40.2319 1091.78 39.4981 1091.78 38.6015L1090.97 29.547C1090.88 29.0028 1090.22 28.5839 1089.41 28.5829H1089.41H1089.41Z" fill="#898D9A"/>
</svg>
