<svg width="47" height="34" viewBox="0 0 47 34" fill="none" xmlns="http://www.w3.org/2000/svg">
<path fill-rule="evenodd" clip-rule="evenodd" d="M39.6555 5.25919C41.3658 4.27576 43.183 3.50613 45.1071 2.95028V0C42.4133 0.171031 39.8479 0.812395 37.4107 1.92409C35.0163 2.99304 32.8998 4.4468 31.0612 6.28537C29.2226 8.0812 27.7475 10.1977 26.6358 12.6349C25.5668 15.0721 25.0323 17.7444 25.0323 20.6519C25.0323 22.4905 25.3317 24.2222 25.9303 25.847C26.3241 26.8878 26.8104 27.8545 27.3893 28.7473C29.125 31.8796 32.4646 34 36.2994 34C36.5705 34 36.8392 33.9894 37.105 33.9686C38.0387 33.9064 38.9316 33.7219 39.7837 33.4151C40.0614 33.304 40.329 33.1843 40.5865 33.0559C44.0664 31.4378 46.4791 27.9108 46.4791 23.8203C46.4791 18.1981 41.9215 13.6405 36.2994 13.6405C34.5852 13.6405 32.9699 14.0642 31.5527 14.8126C31.7301 14.1646 31.9724 13.5242 32.2798 12.8914C33.0067 11.3949 33.9901 10.0053 35.23 8.72256C36.47 7.39707 37.9452 6.24262 39.6555 5.25919Z" fill="#B5BAC4"/>
<path fill-rule="evenodd" clip-rule="evenodd" d="M15.144 5.25919C16.8543 4.27576 18.6715 3.50613 20.5956 2.95028V0C17.9019 0.171031 15.3364 0.812395 12.8992 1.92409C10.5048 2.99304 8.38828 4.4468 6.5497 6.28537C4.71112 8.0812 3.23599 10.1977 2.12429 12.6349C1.05534 15.0721 0.520874 17.7444 0.520874 20.6519C0.520874 22.4905 0.820178 24.2222 1.41878 25.847C1.81364 26.8906 2.30152 27.8597 2.88243 28.7544C4.61932 31.8828 7.95669 34 11.7886 34C12.061 34 12.331 33.9893 12.5981 33.9683C13.5301 33.9058 14.4215 33.7214 15.2723 33.4151C15.5466 33.3054 15.8111 33.1872 16.0658 33.0605C19.551 31.4445 21.9683 27.9147 21.9683 23.8203C21.9683 18.1981 17.4107 13.6405 11.7886 13.6405C10.0741 13.6405 8.45854 14.0644 7.0411 14.813C7.2185 14.1648 7.4609 13.5243 7.7683 12.8914C8.49518 11.3949 9.4786 10.0053 10.7186 8.72256C11.9585 7.39707 13.4337 6.24262 15.144 5.25919Z" fill="#B5BAC4"/>
</svg>
