<svg width="148" height="148" viewBox="0 0 148 148" fill="none" xmlns="http://www.w3.org/2000/svg">
<path d="M58.8925 126.251C61.8572 130.721 65.1148 134.99 68.6439 139.03C58.6357 137.157 49.3304 132.582 41.7352 125.801C34.1399 119.02 28.5441 110.291 25.5534 100.558L44.2896 98.7629C45.2599 101.063 46.3854 103.314 47.5207 105.555L48.4328 107.389C49.1023 108.747 49.7718 110.106 50.4607 111.464C52.5468 115.559 54.3418 118.838 56.1077 121.778C57.0489 123.418 57.9804 124.893 58.8925 126.251ZM43.0185 95.5416L25.7959 97.1911C25.5825 97.1911 25.369 97.1911 25.1555 97.1911C24.9843 97.2007 24.8126 97.2007 24.6413 97.1911C24.8159 97.9091 25.0003 98.6174 25.1944 99.3257L43.7851 97.5404C43.494 96.8418 43.2417 96.1723 43.0185 95.5416ZM107.708 91.4179C108.583 91.3365 109.424 91.0362 110.153 90.5446L109.386 89.8363C109.309 89.7789 109.24 89.7102 109.183 89.6325L108.775 89.2638L74.3783 92.5531C74.6985 93.2905 74.9993 93.9309 75.2806 94.5422L107.708 91.4276V91.4179ZM138.32 23.3424H110.036L114.199 55.818C114.82 56.9144 115.47 57.972 116.139 58.9423L117.11 60.291C119.605 64.0821 122.518 67.5809 125.794 70.7216C128.302 72.9679 131.087 74.8851 134.08 76.4269C135.834 77.3369 137.639 78.1468 139.485 78.8526L139.805 78.9982V24.7687C139.792 24.3844 139.63 24.0202 139.353 23.7537C139.075 23.4873 138.705 23.3397 138.32 23.3424ZM110.793 52.1309C109.056 48.8028 107.407 45.7658 106.175 46.3092C105.787 46.5226 105.68 47.2794 105.689 47.8616C107.593 49.0234 109.313 50.4623 110.793 52.1309ZM111.084 91.4081C110.137 92.1246 109.007 92.5616 107.824 92.6695L75.8628 95.7356C76.0666 96.1529 76.2606 96.5604 76.4644 96.9485L77.1436 98.2099C78.8109 101.059 80.737 103.748 82.8974 106.244C91.1045 115.894 101.604 123.327 113.432 127.862C115.091 126.54 116.671 125.125 118.167 123.622L132.673 109.067C127.395 105.186 122.621 101.431 117.673 97.2008C115.732 95.5998 113.617 93.7271 111.084 91.4081ZM33.6844 42.8064C34.7223 44.425 36.2091 45.7062 37.9634 46.4935C39.0442 46.9902 40.2184 47.2515 41.4079 47.26H41.7087C42.6484 47.2385 43.5734 47.0221 44.4252 46.6246C45.277 46.2271 46.037 45.6571 46.6571 44.9507C46.8714 44.7043 47.066 44.4416 47.2393 44.1648C48.2432 42.6023 48.6783 40.7418 48.4716 38.8961C48.3908 38.0652 48.2084 37.2472 47.9282 36.4607C47.304 34.6118 46.1367 32.994 44.5788 31.8187C43.021 30.6433 41.1449 29.9651 39.1956 29.8725H38.8851H38.662C37.7634 29.9227 36.8839 30.151 36.0743 30.5441C35.2648 30.9372 34.5415 31.4873 33.9464 32.1623C33.2409 32.9951 32.7141 33.964 32.3986 35.0089C32.0832 36.0537 31.9858 37.1523 32.1125 38.2363C32.2559 39.8651 32.7955 41.4341 33.6844 42.8064ZM39.1665 28.6499C41.276 28.7299 43.3166 29.422 45.0395 30.6418C46.7625 31.8616 48.0932 33.5564 48.8694 35.5195C49.3148 36.5666 49.5962 37.6761 49.7038 38.8088C49.9095 40.7422 49.5094 42.6918 48.5589 44.388L55.8652 50.2097C58.2755 46.6138 59.3627 42.2925 58.941 37.9841C58.6522 34.6578 57.5529 31.453 55.739 28.6499C53.9674 25.8402 51.5236 23.5164 48.6284 21.8884C45.7332 20.2603 42.4779 19.3795 39.1568 19.3254H38.497C38.1671 19.3254 37.8469 19.3254 37.5267 19.4031L39.1665 28.6499ZM31.4915 55.032C34.674 56.9565 38.3514 57.9045 42.0677 57.7586C44.6032 57.6792 47.0907 57.0457 49.3553 55.9025C51.6199 54.7593 53.6067 53.1341 55.1763 51.1412L47.9088 45.3777L47.608 45.7464C46.879 46.5802 45.9856 47.2546 44.9838 47.7271C43.982 48.1996 42.8934 48.4601 41.7863 48.4923H41.4564C39.9279 48.4973 38.4195 48.1451 37.0513 47.4638C35.4259 46.6579 34.0208 45.4692 32.9567 43.9999L25.4078 48.9192C25.3303 48.9523 25.2487 48.9751 25.1652 48.9871C26.8221 51.4143 28.9792 53.4589 31.4915 54.9835V55.032ZM98.8004 36.8682C95.8896 37.0526 91.0381 37.4019 86.0217 37.7803L78.6961 38.3237L79.0454 41.0599L79.2685 42.8452L84.5178 42.4474C90.4365 42.0011 96.0351 41.5838 99.3826 41.3898C99.6685 41.3697 99.9472 41.2914 100.202 41.1597C100.456 41.0281 100.681 40.8459 100.863 40.6242C101.045 40.4026 101.179 40.1462 101.258 39.8707C101.338 39.5953 101.36 39.3066 101.323 39.0223C101.257 38.4049 100.961 37.835 100.493 37.4267C100.026 37.0183 99.4211 36.8016 98.8004 36.8197V36.8682ZM83.2855 23.7985L83.3729 24.4777C88.7094 24.0798 93.7161 23.7014 96.7822 23.5074C97.0577 23.489 97.3275 23.42 97.5779 23.3036C97.9806 23.1189 98.3137 22.8102 98.5284 22.4226C98.7431 22.035 98.8282 21.589 98.7713 21.1496C98.6854 20.5463 98.379 19.9962 97.9113 19.6056C97.4436 19.215 96.8478 19.0115 96.2389 19.0343C93.1825 19.2187 88.1758 19.5874 82.8295 20.0046L83.2661 23.3521L83.2855 23.7985ZM91.3874 32.6863C93.9587 32.5019 96.3165 32.337 98.063 32.24C98.3489 32.2198 98.6277 32.1415 98.8822 32.0099C99.1368 31.8783 99.3618 31.696 99.5435 31.4744C99.7252 31.2527 99.8597 30.9963 99.9388 30.7209C100.018 30.4454 100.04 30.1567 100.004 29.8725C99.9403 29.2602 99.6484 28.6943 99.1861 28.2878C98.7239 27.8813 98.1253 27.6641 97.5099 27.6796L90.8247 28.1259L91.1934 31.0368L91.3874 32.6863ZM24.3502 95.8715C23.2151 95.6838 22.1698 95.1381 21.3668 94.3142C20.5638 93.4903 20.0453 92.4312 19.8869 91.2917C16.8402 72.439 12.4545 39.4007 11.0281 22.1393C10.9841 21.7297 10.9841 21.3166 11.0281 20.907C11.1543 19.6699 11.7077 18.5154 12.5932 17.6424C13.4787 16.7693 14.6408 16.2322 15.8796 16.1235C37.2939 14.5225 80.4038 11.534 101.973 10.3017C103.323 10.2208 104.654 10.6526 105.699 11.5107C106.745 12.3689 107.427 13.5901 107.611 14.93L108.697 23.3424L112.472 52.7422L112.025 51.9077C109.765 47.5511 107.96 44.1454 105.554 45.1836C105.211 45.4052 104.928 45.7062 104.727 46.0609C104.526 46.4157 104.413 46.8137 104.399 47.2212C100.217 45.2806 97.3547 46.5323 96.8016 46.8137C96.8016 46.8137 96.8016 46.8137 96.724 46.8719C94.5677 46.3508 92.3017 46.5275 90.2522 47.3765C87.5354 46.8525 85.4008 47.0854 84.3723 48.0266C84.1631 48.201 83.9999 48.4239 83.8967 48.6759C83.7935 48.9279 83.7536 49.2013 83.7804 49.4723C83.8871 50.5008 84.9156 51.5681 87.2346 53.0332L87.875 53.4214C87.3982 54.1093 87.1565 54.933 87.1861 55.7695C87.1697 55.9145 87.1697 56.061 87.1861 56.2061C87.3133 57.1844 87.7279 58.103 88.3773 58.8456C89.0267 59.5883 89.8818 60.1217 90.8344 60.3783C90.7664 61.5718 90.65 62.6391 90.4948 63.6288L90.1455 63.4735C88.2534 62.6585 86.1867 61.9793 85.294 63.1437C84.4014 64.308 85.294 66.1418 87.875 69.1594C88.0982 69.4214 88.331 69.6737 88.5542 69.926C87.4666 72.0758 85.8338 73.9025 83.8192 75.2237C83.4135 74.5021 82.8369 73.8911 82.1398 73.4444C81.4428 72.9978 80.6467 72.7292 79.8216 72.6622H79.744C78.7054 72.5974 77.6833 72.9462 76.901 73.6325C76.1857 74.2808 75.7507 75.1821 75.6882 76.1455C73.1557 75.3305 70.5553 73.5548 67.7609 70.741C67.1205 70.1006 66.4995 69.4505 65.8786 68.8004C63.989 66.6766 61.878 64.7607 59.5814 63.0854C56.6123 59.5439 54.4388 58.234 52.9543 59.0199C52.7239 59.1713 52.5344 59.377 52.4024 59.619C52.2704 59.861 52.2 60.1318 52.1975 60.4074C47.7574 60.1 43.3497 61.3564 39.739 63.9587C36.1193 66.6737 33.2563 70.2717 31.4236 74.4087C31.1104 74.2952 30.7846 74.2203 30.4533 74.1855C30.3791 74.1774 30.3043 74.1774 30.2302 74.1855C29.7156 74.1502 29.1991 74.2179 28.711 74.3845C28.2229 74.5511 27.7728 74.8133 27.3872 75.1558C26.9683 75.5328 26.6386 75.9983 26.4221 76.5186C26.2056 77.0389 26.1077 77.6009 26.1355 78.1637C26.1901 79.3734 26.6829 80.522 27.522 81.395C28.3612 82.2681 29.4893 82.806 30.6959 82.9084H31.0355C31.5592 82.9171 32.079 82.818 32.5628 82.6175C33.0466 82.4169 33.4841 82.119 33.848 81.7423C34.2119 81.3657 34.4945 80.9183 34.6784 80.4279C34.8622 79.9375 34.9433 79.4145 34.9166 78.8914C34.884 78.0895 34.6556 77.3077 34.2514 76.6143C33.8471 75.9208 33.2794 75.3369 32.5977 74.9132C34.3419 70.9777 37.0642 67.554 40.5055 64.9678C43.8962 62.5 48.0548 61.3202 52.2363 61.6397C52.6923 64.5506 54.8852 69.6252 56.1174 72.4196L55.4674 72.1188C54.4794 71.6478 53.3613 71.5247 52.2945 71.7695C51.7832 71.9034 51.3203 72.1796 50.9596 72.5661C50.599 72.9525 50.3553 73.4333 50.2569 73.9527H50.0337C48.8646 73.9663 47.7161 74.2626 46.6862 74.8162L46.3661 75.0006L45.3958 75.1752C44.7232 75.165 44.0576 75.3114 43.4513 75.6027C42.8451 75.894 42.3149 76.3223 41.9027 76.8538L41.7087 77.0479C40.8723 77.0708 40.0576 77.3191 39.3505 77.7665C38.6435 78.214 38.0704 78.844 37.6917 79.59C37.249 80.7238 37.1577 81.9646 37.4297 83.151C37.9583 86.104 39.3967 88.818 41.5437 90.9133L41.6407 91.0006C41.8736 91.9709 42.1356 92.9412 42.4364 93.9115C42.4946 94.0862 42.5528 94.2317 42.6013 94.3966L25.6892 96.017C25.2384 96.0285 24.7881 95.9795 24.3502 95.8715ZM68.7506 35.6069H68.9932C73.5632 35.2964 79.0745 34.8889 84.2558 34.5007L90.9023 34.0059C93.7064 33.7924 96.2777 33.6178 98.16 33.5013C98.6209 33.4809 99.0726 33.3651 99.4865 33.1613C99.9004 32.9575 100.268 32.6701 100.565 32.3172C100.862 31.9644 101.083 31.5538 101.213 31.1113C101.344 30.6688 101.381 30.204 101.323 29.7463C101.214 28.8091 100.751 27.9486 100.031 27.3396C99.3099 26.7305 98.3844 26.4185 97.442 26.4668C95.5791 26.5832 93.0175 26.7578 90.0872 26.9713L84.7313 27.3691C79.3073 27.7863 73.1654 28.2521 68.2363 28.5723C67.7749 28.5991 67.3239 28.7206 66.9115 28.9293C66.4991 29.138 66.134 29.4293 65.8391 29.7853C65.5442 30.1412 65.3257 30.554 65.1973 30.998C65.0689 31.442 65.0332 31.9077 65.0926 32.3661C65.2171 33.2531 65.6538 34.0667 66.3243 34.6607C66.9947 35.2547 67.855 35.5902 68.7506 35.6069ZM102.623 38.8282C102.497 37.8992 102.029 37.0504 101.312 36.4462C100.595 35.8421 99.6793 35.5257 98.7422 35.5584C95.8314 35.7427 90.9799 36.1017 85.9441 36.4801L77.9586 37.072C75.0478 37.2855 72.1369 37.4989 69.5171 37.6736C69.058 37.6994 68.609 37.8196 68.1984 38.0266C67.7877 38.2336 67.4241 38.523 67.1302 38.8767C66.8377 39.2341 66.6206 39.647 66.4922 40.0907C66.3638 40.5343 66.3267 40.9993 66.3831 41.4577C66.5043 42.3522 66.9438 43.1731 67.6209 43.77C68.298 44.367 69.1675 44.7 70.0702 44.7082H70.3031C72.9131 44.5335 75.8143 44.3298 78.8028 44.1066L84.6245 43.67C90.5433 43.2236 96.1321 42.8064 99.4602 42.6124C99.9223 42.5892 100.375 42.471 100.789 42.2652C101.203 42.0594 101.571 41.7703 101.869 41.4162C102.166 41.062 102.388 40.6503 102.519 40.2067C102.651 39.7631 102.69 39.2971 102.633 38.8379L102.623 38.8282ZM63.7536 23.3036C63.7443 23.4134 63.7443 23.5237 63.7536 23.6335C63.8746 24.5264 64.3126 25.346 64.9878 25.9427C65.6629 26.5394 66.53 26.8735 67.431 26.884H67.6736C71.8943 26.6026 76.901 26.2242 81.704 25.8652L82.8586 25.7778H83.0915C88.5542 25.3703 93.7161 24.9822 96.8404 24.8076C97.3016 24.7827 97.7529 24.664 98.1666 24.4588C98.5804 24.2536 98.9479 23.9662 99.2468 23.6141C99.3147 23.5268 99.3632 23.4297 99.4214 23.3424C99.8915 22.6772 100.099 21.8615 100.004 21.0525C99.8918 20.1162 99.4291 19.2571 98.7088 18.6485C97.9885 18.0399 97.0643 17.727 96.1224 17.773C92.9496 17.967 87.71 18.3551 82.1697 18.7433H82.0242L78.8125 18.9858C74.6791 19.2963 70.4971 19.6068 66.8973 19.8494C66.023 19.8947 65.2018 20.2826 64.6115 20.9292C64.0213 21.5757 63.7096 22.4288 63.7439 23.3036H63.7536ZM23.5158 48.7834C25.3404 51.7535 27.8446 54.2477 30.822 56.0605C34.0108 58.0076 37.6717 59.0445 41.4079 59.0587H42.1162C44.9443 58.9677 47.7146 58.2347 50.2176 56.9151C52.7207 55.5955 54.8908 53.7239 56.5638 51.442C56.5685 51.4163 56.5685 51.39 56.5638 51.3643C59.3858 47.429 60.6729 42.5981 60.1829 37.7803C59.8441 34.1749 58.6137 30.7105 56.6026 27.699C54.6489 24.6626 51.9504 22.1768 48.7642 20.4784C45.5779 18.7799 42.0099 17.9254 38.4 17.9961C37.8479 18.014 37.2972 18.0626 36.7505 18.1417H36.6632C26.5625 19.4807 19.3726 28.7469 20.3332 39.3231C20.6482 42.6802 21.7376 45.9185 23.5158 48.7834ZM80.5299 81.3851H80.1418C79.0932 81.2852 78.1031 80.8559 77.3135 80.1587C76.5238 79.4615 75.9753 78.5321 75.7464 77.5039C72.8355 76.6986 69.9247 74.7871 66.8294 71.6822C66.1987 71.0418 65.5681 70.382 64.9374 69.7416C64.3067 69.1012 63.5401 68.2959 62.8221 67.5779C64.2925 69.7824 65.6119 72.0841 66.7712 74.4669C68.0423 77.174 69.391 80.5312 70.827 84.0922C71.7973 86.5373 72.8258 89.0601 73.8446 91.4276L107.533 88.1965L106.475 87.2262L104.971 85.7029C101.09 82.0805 97.235 78.4548 93.4056 74.8259L93.1145 74.5542C93.1145 74.5542 91.3195 72.9339 89.4663 70.9642C88.2326 73.1806 86.4522 75.0445 84.2946 76.3784C84.3794 76.6953 84.4283 77.0208 84.4402 77.3487C84.4608 77.9115 84.3586 78.4721 84.1408 78.9916C83.923 79.511 83.5947 79.9768 83.1788 80.3566C82.4635 81.0314 81.5131 81.4004 80.5299 81.3851ZM99.6543 67.9563C99.9521 68.0437 100.268 68.0488 100.568 67.971C100.869 67.8932 101.143 67.7355 101.361 67.5145C101.579 67.2936 101.733 67.0177 101.806 66.7162C101.88 66.4147 101.871 66.0988 101.779 65.8022C101.304 64.2498 99.8386 61.7367 95.5985 58.4183C95.2926 59.0805 94.8 59.6388 94.1812 60.0249C93.5624 60.411 92.8443 60.608 92.1152 60.5918C92.0278 61.9211 91.9017 63.1242 91.7173 64.2304C92.5324 64.6282 93.3765 65.0551 94.211 65.482C95.9561 66.4514 97.7764 67.2788 99.6543 67.9563ZM87.5063 63.9296C87.2654 63.8658 87.018 63.83 86.7689 63.8229H86.6718C86.952 63.8398 87.2308 63.8755 87.5063 63.9296ZM110.551 88.3129C110.575 88.3521 110.608 88.3853 110.648 88.41C111.341 88.3562 112.028 88.2492 112.705 88.0898C113.976 87.6699 115.189 87.0895 116.314 86.3627C118.397 84.9721 120.192 83.1931 121.602 81.1231C123.213 78.8526 125.047 75.3014 124.717 71.4881C121.449 68.3294 118.537 64.8218 116.033 61.0284L115.062 59.6603C114.441 58.7968 113.791 57.9138 113.122 57.0308C112.802 56.6039 112.472 56.1673 112.152 55.7403C111.647 55.1 111.123 54.4693 110.589 53.7998C108.957 51.7948 106.987 50.0906 104.768 48.764C102.981 47.6641 100.87 47.2151 98.7907 47.4929L98.9848 47.5705C102.027 48.8808 104.858 50.6333 107.387 52.7713C107.452 52.8239 107.506 52.8888 107.545 52.9623C107.585 53.0358 107.609 53.1163 107.617 53.1994C107.626 53.2824 107.617 53.3662 107.593 53.4459C107.568 53.5257 107.528 53.5998 107.475 53.6639C107.414 53.7334 107.34 53.7892 107.256 53.8276C107.173 53.8661 107.082 53.8864 106.99 53.8871C106.842 53.8901 106.698 53.8421 106.582 53.7513C104.161 51.6919 101.447 50.0045 98.5288 48.7446C98.0083 48.5396 97.4731 48.3741 96.9278 48.2497H96.8599H96.7919C95.4085 47.907 93.9715 47.8378 92.5615 48.046C96.6826 49.4524 100.561 51.4882 104.059 54.0812C104.129 54.1269 104.188 54.1862 104.234 54.2555C104.279 54.3248 104.31 54.4027 104.325 54.4844C104.339 54.5661 104.337 54.6499 104.318 54.7307C104.299 54.8115 104.264 54.8876 104.215 54.9544C104.156 55.0371 104.08 55.1048 103.99 55.152C103.901 55.1992 103.801 55.2246 103.7 55.2261C103.569 55.225 103.44 55.1844 103.332 55.1097C97.2286 50.8113 92.8138 49.2879 90.194 48.7252C89.1168 48.4742 88.0081 48.3859 86.9047 48.4632C87.3413 51.2673 99.2565 55.6142 101.876 63.1534C102.358 63.8571 102.746 64.6203 103.031 65.4238C103.189 65.9397 103.205 66.4888 103.077 67.0129C102.948 67.5369 102.68 68.0164 102.301 68.4005C101.922 68.7845 101.446 69.0588 100.924 69.1941C100.401 69.3294 99.852 69.3208 99.3341 69.1691C97.3805 68.4741 95.4884 67.6173 93.6773 66.6076C92.7846 66.1515 91.892 65.6955 91.0381 65.288C88.9617 64.9193 88.0108 65.2201 87.6227 65.7246C88.1451 66.4739 88.7054 67.1961 89.3013 67.8884C89.6215 68.2474 89.9417 68.6258 90.2716 68.9751C92.3189 71.2359 94.4924 73.1861 94.4924 73.1861L106.34 84.3347C107.543 85.4409 108.726 86.5761 109.939 87.6822L110.551 88.3129ZM39.6614 81.6276C39.4238 82.174 39.289 82.7595 39.2635 83.3548C39.2392 84.063 39.288 84.7718 39.4091 85.47C39.8237 86.507 40.3717 87.4855 41.0392 88.3809L40.5152 85.8581L40.4085 85.305C40.2435 84.5579 40.098 83.7914 39.9427 83.0346L39.6614 81.6276ZM74.3298 95.4834C73.8834 94.5131 73.4177 93.5428 72.8743 92.2717C71.7973 89.7781 70.7106 87.0904 69.6627 84.5094C68.2461 80.9776 66.8974 77.6301 65.636 74.9618C64.2468 72.1248 62.6241 69.4084 60.7845 66.8405C58.6887 64.2498 56.3115 61.6009 55.4965 62.1151C54.3127 62.7264 55.0792 66.1321 55.9234 68.9072C56.8937 71.2941 57.9125 73.3317 58.1454 73.8168C58.5841 74.1673 58.9901 74.5571 59.3582 74.9812C59.413 75.0427 59.4549 75.1145 59.4816 75.1924C59.5084 75.2702 59.5194 75.3527 59.5139 75.4348C59.5085 75.517 59.4868 75.5973 59.4501 75.671C59.4134 75.7447 59.3623 75.8103 59.3 75.8641C59.184 75.9641 59.0359 76.0192 58.8828 76.0194C58.7928 76.0204 58.7037 76.0018 58.6216 75.9649C58.5395 75.9281 58.4664 75.8738 58.4073 75.8059C58.061 75.4018 57.6741 75.0344 57.2527 74.7095C56.5928 74.1865 55.8649 73.7557 55.0889 73.4287C54.6615 73.4246 54.2438 73.5556 53.8953 73.803C53.5468 74.0504 53.2854 74.4017 53.1484 74.8065C53.8231 75.1221 54.4424 75.5448 54.9822 76.0582C55.0728 76.1447 55.1355 76.2562 55.1625 76.3785C55.1895 76.5008 55.1794 76.6283 55.1336 76.7449C55.0878 76.8615 55.0084 76.9617 54.9054 77.033C54.8024 77.1042 54.6805 77.1432 54.5553 77.1449C54.3928 77.1442 54.2368 77.0817 54.1186 76.9703C53.555 76.4555 52.8956 76.0565 52.1781 75.7962C51.2455 75.6163 50.2806 75.7142 49.403 76.0776C49.2396 76.1594 49.0865 76.2604 48.947 76.3784C49.5583 76.7083 50.1211 77.0673 50.6159 77.3487C50.7558 77.4401 50.8544 77.5826 50.8907 77.7458C50.927 77.909 50.898 78.0798 50.81 78.2219C50.7509 78.3097 50.6715 78.3819 50.5787 78.4326C50.4858 78.4833 50.3821 78.5108 50.2763 78.513C50.1561 78.5142 50.0381 78.4805 49.9367 78.416C49.1688 77.8885 48.3573 77.4276 47.511 77.0382C47.282 77.0139 47.0511 77.0139 46.8221 77.0382C46.3817 77.0594 45.9628 77.2345 45.6383 77.533C45.4691 77.7017 45.3484 77.9129 45.289 78.1443C45.6999 78.3857 46.0894 78.6616 46.4534 78.9691C46.6959 79.1728 46.9288 79.3766 47.152 79.5997C47.2682 79.7193 47.3331 79.8794 47.3331 80.0461C47.3331 80.2128 47.2682 80.3729 47.152 80.4924C47.0933 80.5509 47.0237 80.5974 46.9472 80.629C46.8706 80.6606 46.7885 80.6769 46.7056 80.6768C46.6226 80.678 46.5402 80.6622 46.4635 80.6305C46.3868 80.5988 46.3173 80.5518 46.2593 80.4924C46.0556 80.2983 45.8615 80.114 45.648 79.9393C45.3991 79.7355 45.14 79.5445 44.8718 79.3669C44.1472 79.302 43.4175 79.3248 42.6984 79.4348C41.8768 79.5748 41.1069 79.9297 40.4667 80.4633C40.5621 80.552 40.6295 80.6667 40.6608 80.7932L41.078 82.8793L41.5437 85.1401L41.6505 85.6932C41.9609 87.2165 42.2811 88.7884 42.6207 90.302C42.873 91.3693 43.1544 92.427 43.5037 93.5234C43.6201 93.9309 43.756 94.319 43.9015 94.7071C44.2314 95.6774 44.6292 96.7447 45.1241 97.9188C46.1526 100.335 47.3169 102.693 48.5104 105.109L49.4225 106.942L50.645 109.397C50.7922 108.884 50.9671 108.378 51.169 107.884C52.957 103.415 56.3256 99.7589 60.6337 97.612C64.9418 95.4651 69.8888 94.9769 74.5335 96.2402C74.4171 96.0073 74.3104 95.7647 74.1939 95.5222L74.3298 95.4834Z" fill="white"/>
<path d="M112.735 88.0897C111.846 88.3798 110.929 88.5749 109.999 88.6719C109.805 88.4973 109.611 88.3226 109.417 88.1286L107.34 86.188L105.827 84.7714L94.2996 73.9138L93.9988 73.6227C93.9988 73.6227 91.835 71.6822 89.8265 69.4602C89.5063 69.1109 89.1862 68.7422 88.8563 68.3832C88.2353 67.6555 87.7501 67.0345 87.3814 66.5105C86.2656 64.929 86.1589 64.1721 86.3141 63.9781C86.3141 63.9781 86.4402 63.8616 86.644 63.8422H86.7119C86.9919 63.856 87.2707 63.8884 87.5464 63.9393C88.2848 64.1251 89.0055 64.3751 89.7004 64.6864C90.0497 64.8416 90.399 64.9969 90.758 65.1715L91.02 65.2977C88.9436 64.929 87.9927 65.2298 87.6046 65.7343C88.127 66.4836 88.6873 67.2058 89.2832 67.898C89.6034 68.257 89.9236 68.6355 90.2535 68.9848C92.3008 71.2455 94.4742 73.1958 94.4742 73.1958L106.321 84.3444C107.525 85.4506 108.708 86.5858 109.921 87.6919L110.591 88.3226C110.615 88.3618 110.649 88.3949 110.688 88.4196C111.378 88.3622 112.062 88.2519 112.735 88.0897ZM89.1473 52.7809L94.6295 56.1284C95.0079 56.3904 95.3475 56.633 95.6677 56.8756L95.7356 56.9435C98.1334 58.6269 100.213 60.723 101.878 63.1339C99.2577 55.5948 87.3232 51.2479 86.906 48.4438C86.2941 48.4611 85.7006 48.6567 85.1983 49.0065C85.1375 49.0483 85.0885 49.1051 85.0562 49.1714C85.0239 49.2378 85.0093 49.3113 85.0139 49.3849C85.0624 49.7828 85.5864 50.559 87.8763 52.0047L89.1473 52.7809ZM55.9538 68.8198C55.1096 66.0836 54.3431 62.6779 55.5268 62.0278C56.3419 61.5135 58.7191 64.1624 60.8149 66.7531C60.0872 65.7149 59.3498 64.7446 58.6318 63.8422C55.8374 60.4947 54.1393 59.6894 53.5281 60.0193C53.5281 60.0193 53.3825 60.1746 53.431 60.9896C53.5475 62.8525 54.7894 66.0642 55.9538 68.8198ZM41.9913 78.2995C41.3515 78.2742 40.7171 78.4267 40.1588 78.7402C39.6004 79.0536 39.1398 79.5157 38.8282 80.0752C38.5075 80.9785 38.4503 81.9544 38.6632 82.889C38.8189 83.7611 39.0694 84.6135 39.4104 85.4312C39.2892 84.733 39.2405 84.0241 39.2648 83.3159C39.2903 82.7207 39.4251 82.1352 39.6626 81.5888L39.5268 80.929C39.4923 80.7656 39.524 80.5952 39.6149 80.4552C39.7059 80.3151 39.8486 80.2168 40.0119 80.1819C40.1106 80.1642 40.2121 80.1699 40.3081 80.1985C40.4042 80.2272 40.4922 80.278 40.565 80.3468C41.2052 79.8132 41.9751 79.4584 42.7967 79.3183C43.5158 79.2084 44.2455 79.1856 44.9701 79.2504C44.1744 78.7117 43.2577 78.3784 42.3018 78.2801L41.9913 78.2995ZM55.1096 73.3317H55.0417C54.3116 72.9706 53.4826 72.8614 52.6839 73.0212C52.4046 73.0958 52.151 73.2457 51.9508 73.4544C51.7507 73.6631 51.6116 73.9227 51.5487 74.2049C52.1232 74.3074 52.6813 74.4869 53.2079 74.7386C53.3378 74.3346 53.5912 73.9815 53.9324 73.7291C54.2735 73.4767 54.6853 73.3377 55.1096 73.3317ZM46.4644 76.6015H46.28C46.018 76.5493 45.7515 76.5233 45.4844 76.5239C44.6959 76.5063 43.9253 76.7597 43.3012 77.2419C44.0363 77.4226 44.7397 77.7137 45.3873 78.1055C45.4467 77.874 45.5674 77.6629 45.7366 77.4942C46.0611 77.1957 46.48 77.0206 46.9204 76.9993C47.1494 76.9751 47.3803 76.9751 47.6093 76.9993C47.3203 76.8729 47.0218 76.7691 46.7166 76.6889L46.4644 76.6015ZM50.8112 75.3207H50.7142H50.1515C49.368 75.3233 48.5929 75.4816 47.8713 75.7865C48.2732 75.9437 48.6653 76.1252 49.0453 76.3298C49.1848 76.2118 49.3379 76.1108 49.5014 76.0291C50.3789 75.6656 51.3438 75.5678 52.2764 75.7477C51.8105 75.5372 51.3173 75.3934 50.8112 75.3207ZM31.4055 75.738C31.0139 75.5563 30.5936 75.4447 30.1635 75.4081L30.0762 74.7677V75.3984C29.7252 75.3745 29.3729 75.4205 29.0398 75.5337C28.7067 75.647 28.3993 75.8253 28.1356 76.0582C27.86 76.3252 27.6467 76.6497 27.5109 77.0086C27.375 77.3675 27.32 77.752 27.3497 78.1346C27.3977 79.0309 27.7677 79.8798 28.3916 80.5251C29.0155 81.1705 29.8515 81.5688 30.7457 81.647H30.833C31.1841 81.6715 31.5365 81.6257 31.8697 81.5124C32.2029 81.3992 32.5102 81.2206 32.7736 80.9872C33.0553 80.7268 33.2762 80.4074 33.4204 80.0519C33.5646 79.6963 33.6287 79.3133 33.608 78.9302C33.5748 78.2521 33.3565 77.5961 32.9768 77.0333C32.597 76.4705 32.0704 76.0225 31.454 75.738H31.4055ZM21.5959 39.1969C21.8728 42.3251 22.869 45.347 24.5067 48.0265C24.5549 47.959 24.6139 47.9 24.6814 47.8519L32.2787 42.9422C31.4744 41.5333 30.9814 39.9683 30.833 38.3528C30.6886 37.0981 30.8035 35.8271 31.1707 34.6186C31.5379 33.4102 32.1496 32.2901 32.9676 31.3279C34.2339 29.8699 35.9845 28.9188 37.8967 28.6499L36.2763 19.5292C26.9713 21.0428 20.6935 29.3582 21.5959 39.1969ZM70.0424 43.4468H70.1394C72.6039 43.2818 75.2722 43.0878 78.0181 42.884L77.6979 40.4098L77.436 38.3722C74.6803 38.5759 72.0023 38.77 69.5863 38.9252C69.2964 38.9443 69.0131 39.0211 68.7532 39.151C68.4933 39.281 68.2619 39.4615 68.0727 39.6821C67.8888 39.9081 67.7528 40.1692 67.6727 40.4494C67.5926 40.7295 67.5703 41.0231 67.6069 41.3121C67.6886 41.9013 67.9797 42.4412 68.4269 42.8333C68.8742 43.2253 69.4476 43.4431 70.0424 43.4468ZM88.9436 54.1199C88.5971 54.6153 88.4325 55.2152 88.4778 55.818C88.4724 55.9117 88.4724 56.0056 88.4778 56.0993C88.5727 56.781 88.8526 57.4236 89.2871 57.9574C89.7216 58.4911 90.2941 58.8955 90.9424 59.1266C91.235 59.2399 91.542 59.3118 91.8544 59.3401H91.9612H92.2038C92.8281 59.3272 93.4285 59.0974 93.9018 58.69C94.2121 58.4049 94.4486 58.0486 94.5907 57.6518L93.9697 57.1958L88.963 54.1491L88.9436 54.1199ZM75.4663 97.7829C71.0157 96.2557 66.1486 96.4966 61.8706 98.4559C57.5927 100.415 54.2309 103.943 52.4801 108.311C52.0979 109.218 51.8306 110.17 51.6845 111.144C53.334 114.385 54.7991 117.101 56.2158 119.546C56.3972 118.661 56.6603 117.793 57.0017 116.956C58.8087 112.463 62.214 108.798 66.5618 106.666C70.9096 104.535 75.8924 104.087 80.5506 105.409C78.8818 103.341 77.3734 101.148 76.0387 98.8502C75.8641 98.5106 75.6603 98.1322 75.4663 97.7635V97.7829ZM133.15 77.4069C130.616 76.0638 128.23 74.4607 126.028 72.6233C125.85 75.9748 124.678 79.1973 122.661 81.8799C121.157 84.0814 119.243 85.9724 117.024 87.4493C115.258 88.6104 113.279 89.4086 111.202 89.7974L111.58 90.1565C114.171 92.5337 116.306 94.4354 118.295 96.1334H118.528C121.066 95.7387 123.462 94.6998 125.485 93.1158C127.559 91.483 129.304 89.4712 130.627 87.1874C132.015 84.7908 133.567 81.2007 133.111 77.3778L133.15 77.4069ZM82.9569 76.3396C82.7089 75.6691 82.2752 75.0832 81.7065 74.6502C81.1377 74.2172 80.4575 73.955 79.7453 73.8944H79.493C78.8257 73.8828 78.1783 74.1217 77.6785 74.5639C77.3976 74.8229 77.1771 75.1406 77.0329 75.4945C76.8887 75.8483 76.8242 76.2296 76.8441 76.6112C76.8386 76.7049 76.8386 76.7989 76.8441 76.8926C76.9731 77.733 77.3828 78.505 78.0065 79.0829C78.6302 79.6608 79.4311 80.0105 80.2789 80.0752H80.3856C80.7373 80.0978 81.09 80.0502 81.4231 79.9353C81.7563 79.8203 82.0633 79.6403 82.3262 79.4057C82.6084 79.1472 82.8303 78.8298 82.9762 78.476C83.1221 78.1222 83.1884 77.7406 83.1704 77.3584C83.1641 76.9863 83.0918 76.6184 82.9569 76.2716V76.3396Z" fill="white"/>
<path d="M68.9936 35.5969C73.5636 35.2865 79.0749 34.8789 84.2562 34.4908L90.9027 33.996C93.7068 33.7825 96.2781 33.6079 98.1604 33.4914C98.6213 33.471 99.073 33.3552 99.4869 33.1514C99.9008 32.9476 100.268 32.6602 100.565 32.3073C100.862 31.9545 101.083 31.5438 101.214 31.1013C101.344 30.6588 101.382 30.1941 101.324 29.7364C101.214 28.7992 100.752 27.9387 100.031 27.3297C99.3103 26.7206 98.3848 26.4086 97.4424 26.4568C95.5795 26.5733 93.0179 26.7479 90.0876 26.9614L84.7317 27.3592C79.3077 27.7764 73.1658 28.2422 68.2367 28.5624C67.7753 28.5892 67.3243 28.7107 66.9119 28.9194C66.4995 29.1281 66.1344 29.4194 65.8395 29.7753C65.5446 30.1312 65.3261 30.5441 65.1977 30.9881C65.0693 31.4321 65.0336 31.8978 65.093 32.3562C65.2162 33.2499 65.6562 34.0696 66.3329 34.6662C67.0096 35.2628 67.878 35.5965 68.7801 35.6066L68.9936 35.5969ZM97.5103 27.6794C98.1453 27.6332 98.7731 27.8365 99.2605 28.246C99.7479 28.6555 100.056 29.2389 100.12 29.8722C100.157 30.1565 100.135 30.4452 100.056 30.7207C99.9765 30.9961 99.842 31.2525 99.6603 31.4742C99.4786 31.6958 99.2536 31.878 98.9991 32.0097C98.7445 32.1413 98.4657 32.2196 98.1798 32.2397C96.4333 32.3368 94.0755 32.5017 91.5043 32.6861L91.2908 31.056L90.9221 28.1451L97.5103 27.6794ZM99.4509 42.5636C99.913 42.5404 100.365 42.4222 100.78 42.2164C101.194 42.0106 101.562 41.7216 101.859 41.3674C102.157 41.0133 102.379 40.6015 102.51 40.1579C102.642 39.7143 102.68 39.2484 102.624 38.7892C102.497 37.8602 102.03 37.0113 101.313 36.4072C100.596 35.8031 99.6797 35.4867 98.7426 35.5193C95.8317 35.7037 90.9803 36.0627 85.9445 36.4411L77.959 37.033C75.0482 37.2464 72.1373 37.4599 69.5175 37.6345C69.0554 37.6652 68.6047 37.7914 68.1938 38.0052C67.7829 38.2189 67.4209 38.5156 67.1306 38.8765C66.8381 39.2339 66.621 39.6468 66.4926 40.0904C66.3642 40.5341 66.3271 40.9991 66.3835 41.4575C66.5047 42.352 66.9442 43.1729 67.6213 43.7698C68.2984 44.3668 69.1679 44.6998 70.0706 44.708H70.3035C72.9135 44.5333 75.8147 44.3295 78.8032 44.1064L84.6249 43.6697C90.534 43.204 96.1228 42.7965 99.4509 42.6024V42.5636ZM70.1385 43.4078H70.0415C69.4468 43.4041 68.8733 43.1863 68.426 42.7942C67.9788 42.4022 67.6877 41.8622 67.6061 41.2731C67.5694 40.984 67.5918 40.6905 67.6718 40.4103C67.7519 40.1302 67.8879 39.8691 68.0718 39.643C68.261 39.4225 68.4924 39.242 68.7523 39.112C69.0122 38.982 69.2955 38.9053 69.5854 38.8862C72.0015 38.731 74.6795 38.5369 77.4351 38.3332L77.6971 40.3708L78.0173 42.845C75.2713 43.0876 72.6031 43.2816 70.1385 43.4466V43.4078ZM79.2689 42.7577L79.0458 40.9723L78.6965 38.2361L86.0221 37.6928C91.0773 37.3144 95.8512 36.965 98.8008 36.7807C99.4205 36.7514 100.028 36.9569 100.503 37.3562C100.978 37.7555 101.285 38.3192 101.362 38.9347C101.399 39.219 101.377 39.5077 101.298 39.7832C101.218 40.0586 101.084 40.315 100.902 40.5367C100.721 40.7583 100.496 40.9405 100.241 41.0722C99.9865 41.2038 99.7077 41.2821 99.4218 41.3022C96.0743 41.4963 90.4758 41.9135 84.557 42.3599L79.2689 42.7577ZM139.427 78.8136C137.581 78.1078 135.777 77.2979 134.022 76.3879C131.036 74.8476 128.258 72.9338 125.755 70.6923C122.479 67.5516 119.566 64.0528 117.071 60.2617L116.101 58.913C115.432 57.9427 114.781 56.8851 114.16 55.7886L109.998 23.3131L108.892 14.7357C108.663 13.0805 107.819 11.5722 106.528 10.5113C105.237 9.45044 103.593 8.91478 101.925 9.01105C80.3557 10.253 37.236 13.2318 15.8121 14.8328C15.4476 14.8827 15.0875 14.9605 14.735 15.0656C12.233 15.5663 9.98682 16.9314 8.3902 18.9219C6.79358 20.9123 5.9483 23.4012 6.00245 25.9523C6.80779 35.7619 9.48578 57.2635 10.9509 68.4218C10.9699 68.5727 11.0437 68.7114 11.1581 68.8115C11.2726 68.9117 11.4198 68.9664 11.5719 68.9652H11.6592C11.8242 68.941 11.9732 68.8535 12.0747 68.7213C12.1761 68.589 12.222 68.4224 12.2026 68.2568C10.7472 57.1082 8.05946 35.6358 7.25412 25.8358C7.25687 24.4394 7.55081 23.0589 8.11718 21.7825C8.68354 20.5061 9.50987 19.3619 10.5434 18.4228C10.1685 19.1472 9.92537 19.9324 9.82539 20.7418C9.76645 21.2447 9.76645 21.7527 9.82539 22.2555C11.2517 39.546 15.6471 72.6231 18.6938 91.5049C18.9028 92.9921 19.6094 94.3647 20.6983 95.399C21.7872 96.4333 23.1942 97.0683 24.6902 97.2005C24.8615 97.2102 25.0332 97.2102 25.2045 97.2005C25.4179 97.2005 25.6314 97.2005 25.8448 97.2005L43.0675 95.551C43.2906 96.1817 43.5429 96.8512 43.834 97.5595L25.2433 99.3352L21.9346 99.6457C20.5528 99.7756 19.1743 99.3651 18.0888 98.5003C17.0032 97.6354 16.295 96.3836 16.1129 95.0077C14.9582 87.8858 14.1723 82.4716 12.7945 72.6328C12.7565 72.4819 12.6641 72.3504 12.5349 72.2635C12.4058 72.1766 12.2491 72.1405 12.095 72.1622C11.9409 72.1839 11.8002 72.2618 11.7001 72.3809C11.5999 72.5 11.5474 72.652 11.5525 72.8075C12.8818 82.6559 13.7162 88.0798 14.8709 95.2114C15.0898 96.7894 15.8689 98.2359 17.066 99.2869C18.2631 100.338 19.7983 100.923 21.3912 100.936C21.6047 100.936 21.8182 100.936 22.0316 100.936L25.5732 100.597L44.3094 98.8015C45.2797 101.101 46.4053 103.352 47.5405 105.594L48.4526 107.427C49.1221 108.786 49.7916 110.144 50.4805 111.503C52.5666 115.597 54.3616 118.877 56.1276 121.817C57.0978 123.389 58.0002 124.863 58.9123 126.222C61.877 130.692 65.1346 134.961 68.6637 139.001L69.634 139.166L70.6043 139.321C77.8975 140.413 85.3351 140.042 92.4834 138.229C99.6317 136.417 106.348 133.199 112.239 128.764L112.821 128.308L113.404 127.862C101.596 123.328 91.1141 115.905 82.9172 106.273C80.7568 103.777 78.8307 101.088 77.1634 98.2387L76.4842 96.9774C76.2804 96.5893 76.0864 96.1817 75.8826 95.7645L107.825 92.6887C109.008 92.5807 110.137 92.1438 111.085 91.4273C113.617 93.7463 115.732 95.6287 117.692 97.2491C122.641 101.48 127.395 105.186 132.693 109.116L132.858 108.96L133.595 108.213L139 102.809C139.484 102.324 139.759 101.67 139.766 100.985V78.9979L139.427 78.8136ZM87.2253 53.0815L87.8657 53.4697C87.3888 54.1576 87.1472 54.9812 87.1768 55.8177C87.1604 55.9628 87.1604 56.1093 87.1768 56.2544C87.304 57.2327 87.7186 58.1513 88.368 58.8939C89.0174 59.6366 89.8725 60.17 90.8251 60.4266C90.7571 61.6201 90.6407 62.6874 90.4855 63.6771L90.1362 63.5218C88.2441 62.7068 86.1774 62.0276 85.2847 63.1919C84.3921 64.3563 85.2847 66.1901 87.8657 69.2077C88.0888 69.4697 88.3217 69.722 88.5449 69.9743C87.453 72.1051 85.8243 73.9144 83.8196 75.2235C83.4139 74.5019 82.8373 73.8909 82.1402 73.4442C81.4432 72.9976 80.6471 72.729 79.822 72.6619H79.7444C78.7058 72.5972 77.6837 72.946 76.9014 73.6322C76.1861 74.2806 75.7511 75.1819 75.6886 76.1453C73.1561 75.3302 70.5557 73.5546 67.7613 70.7408C67.1209 70.1004 66.4999 69.4503 65.879 68.8002C63.9894 66.6764 61.8784 64.7605 59.5818 63.0852C56.6127 59.5437 54.4392 58.2338 52.9547 59.0197C52.7243 59.1711 52.5348 59.3768 52.4028 59.6188C52.2708 59.8608 52.2004 60.1316 52.1979 60.4072C47.7578 60.0998 43.3501 61.3562 39.7394 63.9585C36.1197 66.6735 33.2567 70.2714 31.424 74.4085C31.1108 74.295 30.785 74.22 30.4537 74.1853C30.3795 74.1772 30.3047 74.1772 30.2306 74.1853C29.716 74.15 29.1995 74.2176 28.7114 74.3842C28.2233 74.5508 27.7732 74.8131 27.3876 75.1556C26.9687 75.5325 26.639 75.998 26.4225 76.5183C26.206 77.0386 26.1081 77.6006 26.1359 78.1635C26.1905 79.3732 26.6833 80.5217 27.5224 81.3948C28.3616 82.2678 29.4897 82.8058 30.6963 82.9082H31.0359C31.5596 82.9168 32.0794 82.8178 32.5632 82.6172C33.047 82.4166 33.4845 82.1188 33.8484 81.7421C34.2123 81.3655 34.4949 80.9181 34.6788 80.4276C34.8626 79.9372 34.9437 79.4143 34.917 78.8912C34.8844 78.0892 34.656 77.3074 34.2518 76.614C33.8475 75.9206 33.2798 75.3366 32.5981 74.913C34.3423 70.9775 37.0646 67.5537 40.5059 64.9676C43.8966 62.4998 48.0552 61.32 52.2367 61.6395C52.6927 64.5503 54.8856 69.6249 56.1178 72.4194L55.4677 72.1186C54.4798 71.6476 53.3617 71.5245 52.2949 71.7693C51.7836 71.9032 51.3207 72.1794 50.96 72.5658C50.5994 72.9523 50.3557 73.4331 50.2573 73.9524H50.0341C48.865 73.9661 47.7165 74.2624 46.6866 74.816L46.3665 75.0003L45.3962 75.175C44.7236 75.1648 44.058 75.3111 43.4517 75.6025C42.8455 75.8938 42.3153 76.3221 41.9031 76.8536L41.7091 77.0477C40.8727 77.0706 40.058 77.3188 39.3509 77.7663C38.6439 78.2137 38.0708 78.8437 37.6921 79.5898C37.2494 80.7236 37.1581 81.9644 37.4301 83.1508C37.9587 86.1038 39.3971 88.8178 41.5441 90.9131L41.6411 91.0004C41.874 91.9707 42.136 92.941 42.4368 93.9113C42.495 94.0859 42.5532 94.2315 42.6017 94.3964L25.6896 96.0168C25.2459 96.056 24.7989 96.0365 24.3603 95.9586C23.2252 95.7709 22.1799 95.2252 21.3769 94.4013C20.5739 93.5774 20.0554 92.5183 19.897 91.3788C16.8503 72.5261 12.4646 39.4878 11.0382 22.2264C10.9942 21.8168 10.9942 21.4037 11.0382 20.9941C11.1644 19.757 11.7178 18.6025 12.6033 17.7295C13.4888 16.8564 14.6509 16.3193 15.8897 16.2106C37.304 14.6096 80.4139 11.6211 101.983 10.3889C103.333 10.3079 104.664 10.7397 105.709 11.5978C106.755 12.456 107.437 13.6772 107.621 15.0171L108.707 23.4295L112.482 52.8293L112.036 51.9948C109.775 47.6382 107.97 44.2325 105.564 45.2707C105.221 45.4923 104.938 45.7933 104.737 46.148C104.536 46.5028 104.423 46.9008 104.409 47.3083C100.227 45.3677 97.3648 46.6194 96.8117 46.9008C96.8117 46.9008 96.8117 46.9008 96.7341 46.959C94.5778 46.4379 92.3118 46.6146 90.2623 47.4636C87.5455 46.9396 85.4109 47.1725 84.3823 48.1137C84.1732 48.2881 84.01 48.511 83.9068 48.763C83.8036 49.015 83.7637 49.2884 83.7905 49.5594C83.8778 50.5491 84.9063 51.6164 87.2253 53.0815ZM94.5704 57.6322C94.4283 58.029 94.1919 58.3853 93.8815 58.6704C93.4082 59.0778 92.8078 59.3076 92.1835 59.3205H91.9409H91.8342C91.5217 59.2922 91.2147 59.2203 90.9221 59.107C90.2775 58.873 89.709 58.4673 89.2781 57.9338C88.8471 57.4003 88.5701 56.7592 88.477 56.0797C88.4715 55.986 88.4715 55.8921 88.477 55.7983C88.4497 55.2008 88.6277 54.6118 88.9815 54.1294L93.9882 57.1762L94.6092 57.6322H94.5704ZM94.7353 59.5728C95.0957 59.2366 95.3888 58.8349 95.5989 58.389C99.8293 61.7074 101.304 64.2107 101.78 65.7729C101.871 66.0695 101.88 66.3853 101.807 66.6868C101.733 66.9883 101.579 67.2642 101.361 67.4852C101.143 67.7062 100.869 67.8639 100.569 67.9417C100.268 68.0195 99.9525 68.0144 99.6547 67.9269C97.7789 67.2714 95.9587 66.4667 94.2114 65.5206C93.3769 65.0937 92.5328 64.6668 91.7177 64.269C91.9021 63.1628 92.0282 61.9597 92.1155 60.6304C93.0867 60.6274 94.0215 60.2604 94.7353 59.6019V59.5728ZM73.845 91.3303C72.8747 88.9628 71.8074 86.4789 70.8274 83.9949C69.3914 80.434 68.0427 77.0768 66.7716 74.3697C65.6123 71.9868 64.2929 69.6852 62.8225 67.4806C63.5406 68.1986 64.2392 68.9166 64.9378 69.6444C65.6364 70.3721 66.1991 70.9639 66.8298 71.5849C69.9445 74.7287 72.865 76.6401 75.7468 77.4067C75.9757 78.4349 76.5242 79.3642 77.3139 80.0614C78.1035 80.7587 79.0936 81.188 80.1422 81.2878H80.5303C81.5022 81.3164 82.4476 80.9688 83.1695 80.3175C83.5854 79.9377 83.9137 79.4719 84.1315 78.9525C84.3493 78.4331 84.4515 77.8725 84.4309 77.3096C84.419 76.9818 84.3701 76.6563 84.2853 76.3393C86.4345 75.0149 88.211 73.165 89.4473 70.964C91.3005 72.9045 93.0858 74.5443 93.0955 74.554L93.3866 74.8257C97.229 78.4546 101.091 82.0802 104.972 85.7026L106.486 87.1192L107.543 88.0895L73.845 91.3303ZM76.882 76.5916C76.8621 76.21 76.9266 75.8287 77.0708 75.4749C77.2151 75.121 77.4355 74.8033 77.7165 74.5443C78.2163 74.1021 78.8636 73.8632 79.5309 73.8748H79.7444C80.4464 73.94 81.116 74.201 81.677 74.6282C82.2379 75.0553 82.6676 75.6314 82.9172 76.2908C83.0521 76.6376 83.1244 77.0055 83.1307 77.3775C83.1487 77.7598 83.0824 78.1414 82.9365 78.4952C82.7906 78.849 82.5687 79.1664 82.2865 79.4249C82.0236 79.6595 81.7166 79.8395 81.3835 79.9545C81.0503 80.0694 80.6976 80.117 80.3459 80.0944H80.2392C79.3947 80.0149 78.6017 79.6527 77.9889 79.0662C77.376 78.4798 76.9791 77.7035 76.8626 76.8633C76.8639 76.7724 76.8704 76.6817 76.882 76.5916ZM31.4531 75.7378C32.0649 76.0222 32.5877 76.4678 32.9654 77.0267C33.3432 77.5857 33.5617 78.2369 33.5975 78.9106C33.6181 79.2937 33.554 79.6767 33.4098 80.0322C33.2656 80.3878 33.0447 80.7072 32.763 80.9676C32.4996 81.201 32.1923 81.3795 31.8591 81.4928C31.5259 81.6061 31.1735 81.6519 30.8224 81.6274H30.7351C29.8458 81.5476 29.0147 81.151 28.3932 80.5099C27.7716 79.8688 27.401 79.0258 27.3488 78.1344C27.3308 77.7521 27.3971 77.3706 27.543 77.0168C27.6889 76.663 27.9107 76.3456 28.1929 76.0871C28.4567 75.8541 28.764 75.6759 29.0971 75.5626C29.4302 75.4494 29.7825 75.4034 30.1335 75.4273V74.7966L30.2209 75.437C30.6459 75.4655 31.0628 75.5673 31.4531 75.7378ZM105.69 47.8711C105.69 47.318 105.787 46.5321 106.175 46.3186C107.407 45.7656 109.086 48.8026 110.794 52.1404C109.314 50.4718 107.594 49.0329 105.69 47.8711ZM114.539 58.8062C114.219 58.3114 113.908 57.836 113.569 57.2635C113.908 57.7583 114.219 58.3114 114.539 58.8062ZM50.7813 109.329L49.5587 106.874L48.6466 105.04C47.4532 102.624 46.2888 100.267 45.2603 97.8506C44.814 96.6766 44.3676 95.5996 44.0378 94.6293C43.8922 94.2412 43.7564 93.853 43.6399 93.4455C43.2906 92.3491 43.0093 91.2915 42.757 90.2242C42.3786 88.7105 42.0584 87.1386 41.7867 85.6153L41.68 85.0622L41.2142 82.8015L40.797 80.7153C40.7658 80.5888 40.6983 80.4742 40.6029 80.3854C40.5301 80.3166 40.4421 80.2658 40.346 80.2371C40.25 80.2085 40.1485 80.2028 40.0499 80.2205C39.8866 80.2554 39.7438 80.3537 39.6528 80.4938C39.5619 80.6338 39.5302 80.8042 39.5647 80.9676L39.7006 81.6274L39.982 83.044C40.1372 83.8009 40.2827 84.5674 40.4477 85.3145L40.5544 85.8676L41.0784 88.3903C40.4109 87.4949 39.8629 86.5164 39.4483 85.4795C39.1073 84.6618 38.8568 83.8094 38.7012 82.9373C38.4883 82.0027 38.5455 81.0268 38.8661 80.1235C39.1703 79.5613 39.624 79.0943 40.1771 78.7741C40.7303 78.4538 41.3612 78.2929 42.0002 78.309H42.3106C43.2665 78.4073 44.1832 78.7406 44.9789 79.2793C45.2472 79.4569 45.5063 79.648 45.7552 79.8518C45.9686 80.0264 46.1627 80.2108 46.3665 80.4048C46.4244 80.4643 46.4939 80.5113 46.5706 80.543C46.6474 80.5747 46.7298 80.5904 46.8128 80.5892C46.8956 80.5893 46.9777 80.5731 47.0543 80.5414C47.1309 80.5098 47.2005 80.4634 47.2591 80.4048C47.3753 80.2853 47.4403 80.1252 47.4403 79.9585C47.4403 79.7918 47.3753 79.6317 47.2591 79.5122C47.0359 79.289 46.8031 79.0853 46.5605 78.8815C46.1965 78.574 45.807 78.2981 45.3962 78.0567C44.7485 77.665 44.0451 77.3738 43.31 77.1932C43.9341 76.711 44.7047 76.4575 45.4932 76.4752C45.7603 76.4746 46.0268 76.5006 46.2888 76.5528H46.4732L46.7255 76.6207C47.0306 76.7009 47.3291 76.8047 47.6181 76.9312C48.4644 77.3206 49.2759 77.7816 50.0438 78.309C50.1453 78.3736 50.2632 78.4073 50.3834 78.4061C50.4892 78.4039 50.5929 78.3763 50.6858 78.3256C50.7787 78.275 50.858 78.2027 50.9171 78.115C51.0051 77.9729 51.0341 77.802 50.9978 77.6388C50.9616 77.4757 50.8629 77.3332 50.723 77.2417C50.2282 76.9215 49.6654 76.5625 49.0541 76.2714C48.6741 76.0667 48.2821 75.8853 47.8801 75.7281C48.6018 75.4232 49.3769 75.2649 50.1603 75.2623H50.723H50.8201C51.3237 75.3195 51.8169 75.4469 52.2852 75.6407C53.0028 75.9011 53.6621 76.3 54.2258 76.8148C54.3439 76.9263 54.5 76.9887 54.6624 76.9894C54.7876 76.9877 54.9095 76.9488 55.0125 76.8775C55.1155 76.8063 55.195 76.706 55.2408 76.5894C55.2865 76.4729 55.2966 76.3453 55.2696 76.223C55.2427 76.1007 55.1799 75.9892 55.0893 75.9027C54.5495 75.3893 53.9303 74.9667 53.2555 74.651C52.7289 74.3994 52.1708 74.2199 51.5963 74.1174C51.6592 73.8351 51.7983 73.5756 51.9985 73.3669C52.1986 73.1581 52.4522 73.0083 52.7315 72.9336C53.5302 72.7739 54.3593 72.883 55.0893 73.2441H55.1573C55.9332 73.5711 56.6611 74.0019 57.321 74.5249C57.7203 74.8844 58.0813 75.2843 58.398 75.7184C58.4571 75.7863 58.5302 75.8405 58.6123 75.8774C58.6944 75.9142 58.7835 75.9328 58.8735 75.9318C59.0266 75.9316 59.1747 75.8766 59.2907 75.7766C59.353 75.7228 59.4041 75.6571 59.4408 75.5834C59.4775 75.5097 59.4992 75.4295 59.5046 75.3473C59.5101 75.2651 59.4991 75.1827 59.4724 75.1048C59.4456 75.0269 59.4036 74.9551 59.3489 74.8936C58.9808 74.4695 58.5748 74.0798 58.136 73.7293C57.9032 73.2441 56.9232 71.2065 55.9141 68.8196C54.7497 66.064 53.5466 62.8523 53.3913 61.0573C53.3913 60.2908 53.4981 60.087 53.4884 60.087C54.0996 59.7571 55.7976 60.5625 58.5921 63.91C59.3101 64.7735 60.0475 65.7438 60.7752 66.8208C62.6147 69.3887 64.2375 72.1052 65.6267 74.9421C66.888 77.6104 68.2368 80.9579 69.6534 84.4898C70.7013 87.0998 71.788 89.7875 72.865 92.2521C73.4084 93.5134 73.8353 94.5419 74.3205 95.4637C74.4369 95.7063 74.5436 95.9489 74.66 96.1817C70.0154 94.9184 65.0683 95.4067 60.7602 97.5536C56.4521 99.7005 53.0836 103.356 51.2955 107.825C51.0973 108.317 50.9256 108.819 50.7813 109.329ZM76.0088 98.8306C77.3434 101.129 78.8518 103.322 80.5206 105.39C75.8652 104.076 70.8885 104.529 66.5469 106.662C62.2054 108.795 58.8056 112.458 57.0008 116.946C56.6594 117.783 56.3963 118.651 56.2149 119.537C54.7983 117.091 53.304 114.375 51.6836 111.134C51.8298 110.16 52.097 109.208 52.4793 108.301C54.23 103.933 57.5918 100.405 61.8697 98.446C66.1477 96.4867 71.0149 96.2458 75.4654 97.773C75.6595 98.132 75.8632 98.5104 76.0379 98.8306H76.0088ZM107.679 91.4176L75.2713 94.5322C74.99 93.921 74.6892 93.2806 74.369 92.5432L108.766 89.2539L109.173 89.6226C109.231 89.7003 109.299 89.769 109.377 89.8264L110.144 90.5347C109.418 91.0282 108.581 91.3318 107.708 91.4176H107.679ZM109.969 88.6717C109.775 88.4971 109.581 88.3224 109.387 88.1283L107.31 86.1878L105.797 84.7711L94.2987 73.9136L93.9979 73.6225C93.9979 73.6225 91.8342 71.682 89.8257 69.46C89.5055 69.1107 89.1853 68.742 88.8554 68.383C88.2344 67.6553 87.7492 67.0343 87.3805 66.5103C86.2647 64.9288 86.158 64.1719 86.3132 63.9779C86.3132 63.9779 86.4394 63.8614 86.6431 63.842H86.8081C87.0572 63.8491 87.3046 63.885 87.5455 63.9488C88.2839 64.1346 89.0046 64.3846 89.6995 64.6959C90.0488 64.8511 90.3981 65.0064 90.7571 65.181L91.0191 65.3072C91.873 65.7147 92.7656 66.1707 93.6583 66.6268C95.4694 67.6364 97.3615 68.4933 99.3151 69.1883C99.8362 69.3465 100.391 69.3593 100.918 69.2253C101.446 69.0913 101.927 68.8157 102.31 68.4281C102.693 68.0406 102.962 67.5558 103.089 67.0263C103.216 66.4968 103.196 65.9426 103.031 65.4236C102.763 64.6158 102.391 63.8461 101.925 63.1337C100.261 60.7228 98.181 58.6267 95.7832 56.9433L95.7153 56.8754C95.3951 56.6328 95.0555 56.3902 94.6771 56.1282L89.195 52.7807L87.9336 52.0045C85.6437 50.5588 85.1198 49.7826 85.0713 49.3847C85.0667 49.3111 85.0812 49.2376 85.1136 49.1712C85.1459 49.1049 85.1948 49.0481 85.2556 49.0063C85.7579 48.6565 86.3514 48.4609 86.9633 48.4436C88.0667 48.3662 89.1754 48.4545 90.2526 48.7055C92.8724 49.2392 97.2872 50.7917 103.39 55.09C103.499 55.1648 103.627 55.2053 103.759 55.2065C103.86 55.205 103.959 55.1796 104.049 55.1324C104.138 55.0852 104.215 55.0174 104.273 54.9348C104.323 54.868 104.358 54.7919 104.377 54.7111C104.396 54.6303 104.398 54.5465 104.383 54.4648C104.369 54.3831 104.338 54.3052 104.292 54.2359C104.247 54.1665 104.187 54.1072 104.118 54.0615C100.603 51.4744 96.7078 49.4483 92.5716 48.0554C93.9816 47.8473 95.4186 47.9165 96.802 48.2592H96.8699H96.9379C97.4832 48.3836 98.0184 48.549 98.5388 48.7541C101.457 50.014 104.171 51.7014 106.592 53.7607C106.708 53.8516 106.852 53.8996 107 53.8966C107.092 53.8959 107.183 53.8756 107.266 53.8371C107.35 53.7986 107.424 53.7428 107.485 53.6734C107.538 53.6093 107.578 53.5352 107.603 53.4554C107.627 53.3757 107.636 53.2919 107.628 53.2089C107.619 53.1258 107.595 53.0452 107.555 52.9718C107.516 52.8983 107.462 52.8333 107.398 52.7807C104.868 50.6428 102.037 48.8902 98.9949 47.58L98.8008 47.5024C100.88 47.2246 102.992 47.6736 104.778 48.7735C106.997 50.1001 108.967 51.8043 110.6 53.8093C111.133 54.4496 111.657 55.0803 112.162 55.7498C112.501 56.1768 112.831 56.6134 113.132 57.0403C113.792 57.9233 114.442 58.8062 115.073 59.6698L116.043 61.0379C118.547 64.8313 121.459 68.3388 124.727 71.4976C125.057 75.3788 123.223 78.8621 121.612 81.1326C120.203 83.2026 118.407 84.9815 116.324 86.3721C115.205 87.0941 113.999 87.6712 112.734 88.0895C111.845 88.3796 110.928 88.5747 109.998 88.6717H109.969ZM130.568 87.1581C129.245 89.4419 127.5 91.4537 125.426 93.0865C123.403 94.6705 121.007 95.7094 118.469 96.1041H118.236C116.295 94.4061 114.112 92.5043 111.521 90.1271L111.143 89.7681C113.22 89.3793 115.199 88.5811 116.965 87.42C119.184 85.943 121.098 84.0521 122.602 81.8506C124.619 79.168 125.791 75.9455 125.969 72.594C128.177 74.4325 130.57 76.0357 133.11 77.3775C133.566 81.2005 132.014 84.7906 130.597 87.1581H130.568ZM67.6837 26.9129C71.9044 26.6315 76.9111 26.2531 81.7141 25.8941L82.8687 25.8067H83.1016C88.5643 25.3992 93.7262 25.0111 96.8506 24.8364C97.3117 24.8116 97.763 24.6929 98.1767 24.4877C98.5905 24.2825 98.958 23.9951 99.2569 23.643C99.3248 23.5557 99.3733 23.4586 99.4315 23.3713C99.9016 22.7061 100.109 21.8904 100.014 21.0814C99.9019 20.1451 99.4391 19.286 98.7189 18.6774C97.9986 18.0688 97.0744 17.7559 96.1325 17.8019C92.9597 17.9959 87.7201 18.384 82.1798 18.7721H82.0342L78.8226 19.0147C74.6892 19.3252 70.5072 19.6357 66.9075 19.8783C66.0332 19.9235 65.2119 20.3115 64.6216 20.958C64.0314 21.6046 63.7197 22.4577 63.754 23.3325C63.7447 23.4423 63.7447 23.5526 63.754 23.6624C63.875 24.5553 64.313 25.3749 64.9882 25.9716C65.6633 26.5683 66.5304 26.9024 67.4314 26.9129H67.6837ZM96.2393 19.0341C96.8606 19.0023 97.471 19.2067 97.9479 19.6062C98.4248 20.0058 98.733 20.5709 98.8105 21.1882C98.8674 21.6276 98.7823 22.0736 98.5676 22.4612C98.3529 22.8488 98.0198 23.1575 97.6171 23.3422C97.3667 23.4585 97.0969 23.5276 96.8214 23.546C93.7553 23.7303 88.7486 24.1087 83.4121 24.5163L83.3247 23.8371L83.2665 23.3519L82.8299 20.0044C88.1374 19.5872 93.1441 19.2185 96.2393 19.0341ZM56.6903 27.7667C54.7366 24.7303 52.0382 22.2445 48.8519 20.5461C45.6657 18.8476 42.0977 17.9931 38.4877 18.0638C37.9356 18.0817 37.3849 18.1303 36.8382 18.2094H36.7509C26.5629 19.4805 19.373 28.7467 20.3336 39.3229C20.6635 42.7365 21.7829 46.0267 23.6033 48.9332C25.4237 51.8398 27.8952 54.2831 30.8224 56.07C34.0112 58.0171 37.6721 59.0539 41.4083 59.0682H42.1166C44.9447 58.9772 47.715 58.2442 50.218 56.9246C52.7211 55.605 54.8912 53.7334 56.5642 51.4515C56.5689 51.4258 56.5689 51.3995 56.5642 51.3738C59.3862 47.4384 60.6733 42.6076 60.1833 37.7898C59.8559 34.1954 58.6424 30.7384 56.6515 27.7279L56.6903 27.7667ZM24.535 48.0554C22.8972 45.3759 21.901 42.354 21.6241 39.2258C20.7217 29.3871 26.9995 21.0717 36.3046 19.5969L37.9249 28.7176C36.0181 28.9763 34.2683 29.9132 32.9959 31.3568C32.1778 32.319 31.5662 33.4391 31.1989 34.6475C30.8317 35.856 30.7168 37.127 30.8612 38.3817C31.0186 39.9994 31.5216 41.5645 32.3361 42.9711L24.7387 47.8808C24.6608 47.9262 24.5918 47.9854 24.535 48.0554ZM38.6333 29.9014H38.8564H39.1669C41.1162 29.994 42.9923 30.6722 44.5501 31.8475C46.108 33.0229 47.2753 34.6406 47.8995 36.4896C48.1796 37.2761 48.3621 38.094 48.4429 38.925C48.6566 40.7598 48.2354 42.6123 47.2494 44.1743C47.0761 44.451 46.8815 44.7138 46.6672 44.9602C46.0471 45.6666 45.2871 46.2366 44.4353 46.6341C43.5835 47.0316 42.6585 47.248 41.7188 47.2695H41.418C40.2285 47.261 39.0543 46.9997 37.9734 46.503C36.2192 45.7157 34.7324 44.4345 33.6945 42.8159C32.7953 41.4463 32.2456 39.8771 32.0935 38.2458C31.9668 37.1618 32.0641 36.0632 32.3796 35.0184C32.6951 33.9735 33.2219 33.0046 33.9273 32.1718C34.5205 31.4961 35.2419 30.9449 36.0497 30.5502C36.8575 30.1554 37.7357 29.925 38.6333 29.8722V29.9014ZM42.0681 57.7583C38.344 57.881 34.666 56.9058 31.4919 54.9542C28.983 53.4503 26.8231 51.4293 25.1559 49.0257C25.2394 49.0137 25.321 48.9909 25.3985 48.9578L32.9959 44.0385C34.0537 45.4888 35.4447 46.6635 37.0517 47.4636C38.391 48.1419 39.8682 48.5037 41.3695 48.5212H41.6994C42.8065 48.489 43.8951 48.2285 44.8969 47.756C45.8986 47.2834 46.792 46.6091 47.5211 45.7753L47.8219 45.4066L55.0893 51.1701C53.5264 53.1466 51.5522 54.7596 49.3038 55.8972C47.0553 57.0349 44.5864 57.6699 42.0681 57.7583ZM55.9044 50.1125L48.5981 44.2907C49.5486 42.5946 49.9487 40.645 49.7431 38.7116C49.6354 37.5788 49.354 36.4694 48.9086 35.4223C48.1324 33.4592 46.8017 31.7644 45.0788 30.5445C43.3558 29.3247 41.3152 28.6326 39.2057 28.5527L37.5659 19.3543C37.8861 19.3543 38.2063 19.2864 38.5362 19.2767H39.196C42.515 19.3424 45.7654 20.2336 48.6536 21.87C51.5419 23.5064 53.9771 25.8365 55.7394 28.6497C57.5581 31.4321 58.6705 34.6161 58.9802 37.9256C59.3996 42.2309 58.3125 46.5483 55.9044 50.1416V50.1125Z" fill="black"/>
</svg>
