<svg width="168" height="56" viewBox="0 0 168 56" fill="none" xmlns="http://www.w3.org/2000/svg">
<rect width="168" height="56" fill="white"/>
<path d="M138.986 37.5795C138.392 37.1348 137.5 37.283 137.203 37.8759C136.906 38.3205 136.46 38.4688 136.015 38.4688C135.272 38.4688 134.529 37.8759 134.529 36.9866V34.9116C134.529 34.1705 135.124 33.4294 136.015 33.4294C136.46 33.4294 136.906 33.5776 137.203 34.0223L137.797 34.7634V34.4669C138.243 34.6151 138.689 34.6151 139.134 34.3187C139.729 33.8741 139.729 32.9848 139.431 32.5401C139.134 32.0955 138.54 31.6508 137.946 31.3544C137.352 31.0579 136.758 30.9097 136.015 30.9097C135.124 30.9097 134.381 31.2062 133.638 31.6508L133.044 32.2437C132.301 32.9848 131.855 34.1705 131.855 35.208V37.283C131.855 38.4688 132.301 39.5063 133.044 40.2474L133.638 40.8402C134.381 41.4331 135.272 41.5813 136.015 41.5813C136.609 41.5813 137.352 41.4331 137.946 40.9884C138.54 40.692 138.986 40.2474 139.431 39.8027C139.729 38.9134 139.58 38.0241 138.986 37.5795Z" fill="#898D9A"/>
<path d="M144.482 30.9097C143.293 30.9097 142.253 31.3544 141.511 32.0955C140.768 32.8365 140.322 34.0223 140.322 35.0598V37.1348C140.322 38.3205 140.768 39.3581 141.511 40.0991C142.402 40.9884 143.293 41.2849 144.482 41.2849C145.67 41.2849 146.561 40.8402 147.304 40.0991C148.195 39.3581 148.492 38.3205 148.492 37.1348V35.0598C148.492 33.8741 148.047 32.8365 147.304 32.0955C146.71 31.3544 145.67 30.9097 144.482 30.9097ZM143.145 35.208C143.145 34.4669 143.739 33.7258 144.63 33.7258C145.373 33.7258 146.116 34.3187 146.116 35.208V37.283C146.116 38.0241 145.521 38.7652 144.63 38.7652C143.887 38.7652 143.145 38.1723 143.145 37.283V35.208Z" fill="#898D9A"/>
<path d="M167.356 41.5805C167.059 41.4323 166.761 41.2841 166.316 41.4323C165.87 41.4323 165.722 41.7287 165.425 42.0251C164.682 43.0625 163.791 43.6554 163.048 43.6554C161.414 43.6554 161.414 41.4323 161.414 40.8395V34.6148C161.414 33.5774 160.968 32.6881 160.374 32.0953C159.78 31.5025 158.74 31.0579 157.849 31.0579C157.106 31.0579 156.215 31.3543 155.621 31.7989C154.878 31.2061 154.136 31.0579 153.393 31.0579C152.947 31.0579 152.502 31.2061 152.056 31.3543C151.759 31.2061 151.462 31.0579 151.165 31.0579C150.422 31.0579 149.828 31.6507 149.828 32.3917V39.9502C149.828 40.6912 150.422 41.2841 151.165 41.2841C151.908 41.2841 152.502 40.6912 152.502 39.9502C152.502 39.061 152.502 38.32 152.502 37.2825C152.502 36.3933 152.502 35.504 152.502 34.6148C152.502 34.1702 152.947 33.7256 153.393 33.7256C153.987 33.7256 154.284 34.1702 154.284 34.6148V39.802C154.284 40.543 154.878 41.1359 155.621 41.1359C156.364 41.1359 156.958 40.543 156.958 39.802V34.6148C156.958 34.022 157.404 33.7256 157.849 33.7256C158.443 33.7256 158.74 34.1702 158.74 34.6148V40.8395C158.74 41.5805 158.889 42.1733 158.889 42.6179C159.037 43.359 159.335 43.9518 159.632 44.3964C160.077 44.9892 160.523 45.4338 160.968 45.7302C161.563 46.0267 162.305 46.3231 163.048 46.3231C164.682 46.3231 166.464 45.1374 167.504 43.5072C168.098 42.7661 167.95 41.8769 167.356 41.5805Z" fill="#898D9A"/>
<path d="M45.6297 38.3201L45.0355 29.1313C45.0355 28.9831 45.0355 28.6867 45.0355 28.3903C44.887 27.7975 44.7384 26.9082 45.0355 26.4636C45.184 26.019 45.7782 25.8708 46.2238 25.5744C46.6694 25.4262 47.2636 25.1298 47.4121 24.6851C47.7092 24.0923 47.7092 23.7959 47.4121 23.4995C46.9665 22.9067 45.7782 22.9067 45.184 23.0549C42.0647 24.0923 37.9057 25.8708 35.6776 29.7241C33.8952 26.6118 29.8846 23.7959 25.8741 23.0549C25.2799 22.9067 24.2402 23.0549 23.7946 23.6477C23.646 23.7959 23.4975 24.2405 23.7946 24.8333C24.0916 25.278 24.5373 25.4262 24.9829 25.7226C25.577 26.019 26.1712 26.3154 26.1712 26.76C26.3197 27.3528 26.1712 28.3903 26.1712 29.4277C26.1712 29.8723 26.0226 30.1688 26.0226 30.6134C26.0226 31.799 25.8741 32.8365 25.7256 34.0221C25.577 36.2452 25.4285 38.4683 25.4285 40.8396C25.4285 41.4324 25.577 41.877 25.8741 42.0252C26.3197 42.4698 27.0624 42.4698 28.1022 42.4698C29.5875 42.4698 29.5875 41.5806 29.7361 40.395C29.7361 40.2468 29.7361 40.2468 29.7361 40.0986L30.0332 30.1688C30.3302 30.4652 30.6273 30.7616 30.9244 31.2062C32.1127 32.6883 33.7466 34.4667 35.3805 34.6149C37.163 34.7631 38.7969 32.8365 40.1338 31.2062C40.4308 30.7616 40.7279 30.4652 41.025 30.1688L41.1735 36.6898C41.1735 36.9862 41.1735 37.2826 41.1735 37.8755C41.1735 39.6539 41.025 42.3216 42.6589 42.4698C42.8074 42.4698 43.253 42.4698 43.6987 42.4698C44.4414 42.4698 45.3326 42.3216 45.4811 41.2842C45.4811 40.6914 45.4811 40.0986 45.4811 39.5057C45.7782 38.7647 45.6297 38.6165 45.6297 38.3201Z" fill="#898D9A"/>
<path d="M85.252 22.795C86.5888 22.6468 87.48 21.6094 87.3314 20.2757C87.1829 18.9419 86.1432 18.0528 84.8065 18.2009C83.4697 18.3491 82.5785 19.3865 82.7271 20.7203C82.7271 21.9058 83.9153 22.9432 85.252 22.795Z" fill="#898D9A"/>
<path d="M8.82806 20.1276C4.669 13.903 16.5149 10.0496 18.2974 15.9779C12.2073 18.6456 19.4857 23.8328 22.0108 19.2384C23.9418 15.8297 20.5254 11.8281 17.5547 10.6425C12.5044 8.56758 4.03771 10.6425 3.44356 16.8671C2.40379 26.5005 16.6634 24.8702 19.6342 31.0949C22.902 37.9123 15.4751 41.0247 9.68215 39.5426C2.99794 37.7641 5.67163 29.4646 11.9102 32.2805C9.68215 31.8359 8.93946 35.2446 10.7219 36.1339C12.3558 36.8749 14.7324 35.6893 15.3266 34.2072C16.9605 29.1682 9.53362 27.9826 6.41432 29.02C3.29502 30.0574 1.21549 32.8733 1.51256 35.9857C2.10671 40.2836 5.82017 42.9514 9.68215 43.8406C16.2178 45.4709 24.3874 42.3585 25.2787 34.8C26.6155 24.2774 12.9871 26.3523 8.82806 20.1276Z" fill="#898D9A"/>
<path d="M111.097 20.1276C106.938 13.903 118.821 10.0496 120.604 15.9779C114.513 18.6456 121.792 23.8328 124.317 19.2384C126.248 15.8297 122.832 11.8281 119.861 10.6425C114.811 8.56758 106.344 10.6425 105.75 16.8671C104.71 26.5005 118.97 24.8702 121.94 31.0949C125.208 37.9123 117.781 41.0247 111.988 39.5426C105.304 37.7641 107.978 29.4646 114.216 32.2805C111.988 31.8359 111.246 35.2446 113.028 36.1339C114.662 36.8749 117.039 35.6893 117.633 34.2072C119.267 29.1682 111.84 27.9826 108.72 29.02C105.601 30.0574 103.522 32.8733 103.819 35.9857C103.819 36.5785 103.967 37.0231 104.116 37.4677C103.819 37.4677 103.522 37.4677 103.373 37.4677C102.63 37.4677 102.036 37.4677 101.294 37.4677C99.9567 37.4677 98.6199 37.4677 97.283 37.6159C96.8374 37.6159 95.7977 37.7641 95.5006 37.3195C95.2035 36.8749 95.3521 35.9857 95.3521 35.5411C95.3521 34.9482 95.2035 34.059 95.3521 33.6144C95.6491 33.0216 96.6889 33.1698 97.1345 33.1698C98.4714 33.1698 102.036 34.059 101.591 31.5395C101.294 30.2056 99.9567 30.2056 98.917 30.2056C98.3228 30.2056 97.7287 30.3538 97.1345 30.3538C96.8374 30.3538 95.7977 30.3538 95.5006 30.2056C95.055 29.9092 95.2035 28.7236 95.2035 28.4272C95.2035 27.9826 95.2035 27.6861 95.2035 27.2415C95.2035 26.7969 95.2035 26.7969 95.6491 26.6487C96.8374 26.3523 98.1743 26.6487 99.3626 26.5005C100.699 26.5005 102.036 26.5005 103.373 26.3523C104.264 26.3523 105.007 26.2041 105.007 25.1666C105.007 24.4256 105.007 23.3882 104.413 22.9436C103.225 22.3507 101.739 22.7953 100.402 22.7953C99.0655 22.7953 97.7287 22.7953 96.3918 22.7953C95.2035 22.7953 93.8667 22.7953 92.6784 22.4989C91.6386 22.2025 90.5988 21.3133 89.4105 21.6097C88.2222 21.9061 88.2222 22.9436 89.1135 23.6846C89.8561 24.2774 91.0444 24.722 91.3415 25.6113C91.4901 26.2041 91.3415 26.9451 91.3415 27.6861C91.3415 29.9092 91.3415 32.1323 91.3415 34.3554C91.3415 36.4303 91.7871 39.098 90.1532 40.7283C88.8164 42.0621 86.7368 42.5067 84.9544 42.3585C83.0234 42.3585 81.538 41.3211 80.3497 39.839C79.0129 38.0606 77.8246 36.2821 76.0421 34.9482C75.1509 34.3554 74.2596 33.7626 73.2199 33.318C75.2994 31.6877 77.3789 29.9092 79.0129 27.8343C80.0526 26.6487 82.2807 24.4256 81.8351 22.4989C81.3895 21.1651 80.0526 21.4615 79.1614 22.3507C78.2702 23.24 77.8246 24.5738 76.9333 25.4631C75.1509 27.3897 72.9228 29.02 70.6947 30.3538C70.6947 28.4272 70.9918 26.3523 70.6947 24.2774C70.3977 22.7953 69.5064 22.4989 68.021 22.7953C65.793 23.3882 63.7134 24.8702 61.931 26.2041C59.8515 22.4989 55.2468 20.4241 51.2362 22.2025C47.5228 23.8328 45.5918 28.279 45.5918 32.2805C45.5918 36.2821 47.5228 40.4318 51.3848 42.2103C55.6924 44.137 60 41.9139 62.0795 37.9123C63.2678 35.6893 63.7134 32.8733 63.2678 30.5021C63.2678 30.0574 62.9708 29.4646 63.2678 29.02C63.4164 28.5754 63.862 28.279 64.1591 27.9826C65.0503 27.3897 65.9415 26.7969 66.8327 26.3523C66.8327 29.4646 66.8327 32.4287 66.8327 35.3929C66.8327 36.8749 66.8327 38.357 66.8327 39.839C66.8327 40.8765 66.8327 41.7657 68.021 42.0621C68.7637 42.2103 69.952 42.2103 70.5462 41.7657C71.1403 41.3211 71.1403 40.2836 70.9918 39.5426C70.9918 38.5052 70.9918 37.4677 70.9918 36.4303C72.4772 36.8749 73.814 37.6159 74.8538 38.8016C76.0421 39.9872 76.6363 41.6175 77.676 42.9514C79.607 45.4709 82.7263 46.6565 85.9942 46.5083C87.7766 46.5083 89.5591 46.0637 91.193 45.3226C91.9357 45.0262 92.5298 44.5816 93.124 44.137C93.7181 43.5442 94.3123 42.8031 94.7579 42.0621C95.7977 40.8765 97.283 40.8765 98.7684 40.8765C99.6597 40.8765 100.699 40.8765 101.591 40.8765C103.373 40.8765 105.156 40.8765 106.938 41.3211C108.423 42.5067 110.206 43.396 111.988 43.8406C118.524 45.4709 126.694 42.3585 127.585 34.8C128.885 24.2774 115.256 26.3523 111.097 20.1276ZM52.6102 25.4631C53.2044 25.0184 54.2441 24.5738 54.9868 24.5738C57.0664 24.5738 58.4032 26.7969 58.9974 28.5754C56.9178 29.3164 54.0956 28.8718 52.6102 27.2415C52.0161 26.5005 51.8675 26.0559 52.6102 25.4631ZM57.512 39.2092C56.4722 40.2466 54.9868 40.6912 53.65 40.0984C52.4617 39.6538 51.5705 38.4681 51.1248 37.2825C50.2336 35.0594 49.9365 32.3917 50.3822 30.1686C52.9073 32.3917 56.6207 32.8363 59.5915 31.6506C59.8886 34.1701 59.2944 37.2825 57.512 39.2092Z" fill="#898D9A"/>
<path d="M22.4573 13.4583C22.9029 14.3475 23.6456 15.0885 24.3883 15.6814C25.2796 16.2742 26.3193 16.5706 27.3591 16.5706C29.2901 16.5706 30.4784 15.8296 31.0725 15.0885C31.8152 14.1993 32.2608 13.0137 32.2608 11.828C32.2608 11.2352 32.1123 10.6424 31.9638 10.1977C31.8152 9.60491 31.3696 9.1603 31.0725 8.71568C30.7755 8.27106 30.1813 7.97465 29.5872 7.67824C28.993 7.38183 28.3989 7.23362 27.6562 7.23362C26.9135 7.23362 26.3193 7.82644 26.3193 8.56747C26.3193 9.3085 26.9135 9.90133 27.6562 9.90133C28.8445 9.90133 29.4386 10.7906 29.4386 11.6798C29.4386 12.2726 29.2901 12.7172 28.8445 13.0137C28.5474 13.4583 27.8047 13.6065 27.062 13.6065C25.7252 13.6065 24.8339 12.7172 24.3883 11.9762C24.0913 11.3834 23.7942 10.4942 23.7942 9.60491C23.7942 8.56747 24.0913 7.38183 24.6854 6.6408C25.2796 5.75156 26.6164 4.41771 29.1415 4.56591C31.2211 4.86232 32.7065 5.60335 34.0433 6.49259C34.786 7.08541 35.6772 7.53003 36.4199 7.82644V16.7188C36.1228 16.7188 35.8258 16.5706 35.5287 16.5706C34.786 16.5706 34.1918 17.1634 34.1918 17.9044C34.1918 18.6455 34.6375 19.0901 35.3801 19.2383C35.5287 19.2383 35.5287 19.2383 35.6772 19.2383C35.9743 19.2383 36.4199 19.6829 36.8655 19.9793C37.6082 20.5722 38.4994 21.6096 40.1334 21.6096C40.8761 21.6096 41.4702 21.0168 41.4702 20.2757C41.4702 19.5347 40.8761 18.9419 40.1334 18.9419C39.8363 18.9419 39.5392 18.7937 39.2421 18.4973V7.82644H40.8761C41.6187 7.82644 42.2129 7.23362 42.2129 6.49259C42.2129 5.75156 41.6187 5.15874 40.8761 5.15874H37.9053C37.3111 5.15874 36.5684 4.56591 35.6772 3.97309C34.0433 2.93565 32.1123 1.89821 30.0328 1.75C29.8842 1.75 29.5872 1.75 29.4386 1.75C28.2503 1.75 27.062 2.04641 26.0222 2.49103C25.4281 2.78744 24.8339 3.23206 24.3883 3.67668C24.0913 3.97309 23.4971 4.56591 23.2 5.01053V5.15874C22.9029 5.75156 22.6059 6.34438 22.4573 6.93721C22.1603 7.67824 22.0117 8.56747 22.0117 9.01209C22.0117 9.75312 22.0117 10.4942 22.1603 11.087C21.8632 12.1244 22.1603 12.7172 22.4573 13.4583ZM24.0913 3.97309C24.5369 3.52847 24.9825 3.23206 25.5766 2.93565C26.6164 2.49103 27.6562 2.19462 28.993 2.19462C27.8047 2.19462 26.6164 2.49103 25.5766 2.93565C25.131 3.23206 24.5369 3.67668 24.0913 3.97309C23.7942 4.2695 23.6456 4.41771 23.4971 4.71412C23.6456 4.56591 23.9427 4.2695 24.0913 3.97309ZM23.4971 4.71412C23.3486 4.86232 23.2 5.01053 23.2 5.15874V5.01053C23.2 5.01053 23.3486 4.86232 23.4971 4.71412Z" fill="#898D9A"/>
<path d="M43.6982 20.2761C44.4409 20.2761 45.035 19.6833 45.035 18.9423V13.7551C45.035 12.8658 45.7777 12.1248 46.6689 12.1248C47.5602 12.1248 48.3029 12.8658 48.3029 13.7551V18.7941C48.3029 19.5351 48.897 20.1279 49.6397 20.1279C50.3824 20.1279 50.828 19.5351 50.828 18.9423V13.9033C50.828 12.7176 50.3824 11.6802 49.6397 10.9391C48.897 10.1981 47.7087 9.75349 46.6689 9.75349C46.0748 9.75349 45.4806 9.9017 45.035 10.1981V6.64117C45.035 5.90014 44.4409 5.30731 43.6982 5.30731C42.9555 5.30731 42.3613 5.90014 42.3613 6.64117V18.9423C42.5099 19.6833 42.9555 20.2761 43.6982 20.2761Z" fill="#898D9A"/>
<path d="M56.1748 20.4249C56.9175 20.4249 57.6602 20.2767 58.403 19.6838C58.9972 19.2392 59.5914 18.7945 59.8885 18.2017C60.1856 17.6088 60.037 16.7195 59.4428 16.4231C59.1457 16.2749 58.8486 16.2749 58.403 16.2749C58.1059 16.2749 57.8088 16.5713 57.6602 16.8677C57.3631 17.4606 56.769 17.757 56.1748 17.757C55.1349 17.757 54.5407 17.0159 54.5407 16.1266V15.9784H59.2943C60.037 15.9784 60.6312 15.3856 60.6312 14.7927V13.7552C60.6312 12.5695 60.1856 11.5319 59.4428 10.7909C58.7001 10.0498 57.5117 9.60513 56.4719 9.60513C55.2835 9.60513 54.2436 10.0498 53.5009 10.9391C52.7581 11.8284 52.3125 12.8659 52.3125 13.9034V16.1266C52.3125 17.3124 52.7581 18.3499 53.5009 19.091C53.9465 19.9803 54.9864 20.4249 56.1748 20.4249ZM54.5407 13.4588C54.6893 12.7177 55.432 12.273 56.1748 12.273C56.9175 12.273 57.5117 12.8659 57.8088 13.4588H54.5407Z" fill="#898D9A"/>
<path d="M129.33 39.2092C127.993 39.3574 127.102 40.3948 127.251 41.7285C127.399 42.9141 128.439 43.9515 129.775 43.8033C131.112 43.6551 132.003 42.6177 131.855 41.284C131.706 39.9502 130.667 39.061 129.33 39.2092Z" fill="#898D9A"/>
<path d="M84.9544 25.3148C83.9147 25.3148 83.0234 26.2041 83.0234 27.2415V37.7641C83.0234 38.8016 83.9147 39.6908 84.9544 39.6908C85.9942 39.6908 86.8854 38.8016 86.8854 37.7641V27.2415C87.034 26.2041 86.1427 25.3148 84.9544 25.3148Z" fill="#898D9A"/>
</svg>
