<svg width="55" height="42" viewBox="0 0 55 42" fill="none" xmlns="http://www.w3.org/2000/svg">
<path fill-rule="evenodd" clip-rule="evenodd" d="M10.7036 9.43408C10.7053 9.44058 10.7076 9.44707 10.71 9.45356L10.71 9.45358C10.7135 9.46332 10.717 9.47306 10.7183 9.4828C10.7204 9.51324 10.7204 9.54166 10.7204 9.5721V10.7778L10.7204 10.7953C10.7205 10.8617 10.7206 10.894 10.7044 10.9099C10.689 10.925 10.659 10.9252 10.6003 10.9256L10.5691 10.9259H9.93039H0.221513C0.189069 10.9259 0.161372 10.9265 0.137734 10.927C0.0672522 10.9284 0.032868 10.9291 0.0163975 10.9122C0.000708919 10.8962 0.00127373 10.8642 0.00237654 10.8019C0.00279538 10.7782 0.00329181 10.7501 0.00300496 10.7169V9.43408H10.7036ZM47.301 18.6613L47.2914 18.6626C47.2832 18.6636 47.2768 18.6644 47.2737 18.6674C47.2632 18.6856 47.2527 18.7039 47.2443 18.7242C47.2025 18.8356 47.1614 18.947 47.1202 19.0589L47.1195 19.0609L47.119 19.0621C47.0923 19.1346 47.0655 19.2073 47.0384 19.2804C47.0258 19.3169 47.0111 19.3514 46.9943 19.3879C46.9822 19.3891 46.9715 19.3909 46.9614 19.3927L46.949 19.3947L46.9396 19.3961C46.913 19.3974 46.8864 19.397 46.8598 19.3965C46.8465 19.3963 46.8332 19.3961 46.8199 19.3961H38.6763L38.6576 19.3962L38.6398 19.3966C38.5944 19.3976 38.5478 19.3987 38.4998 19.3859C38.4851 19.3514 38.4704 19.3149 38.4578 19.2804C38.3884 19.0997 38.3212 18.9191 38.254 18.7384C38.2487 18.7232 38.2418 18.7087 38.2348 18.694L38.2347 18.694L38.2346 18.6937C38.2305 18.6851 38.2263 18.6764 38.2225 18.6674C38.2203 18.6654 38.2161 18.6633 38.2119 18.6633C38.2035 18.6613 38.1951 18.6674 38.1951 18.6775L38.1947 18.6832C38.1928 18.7115 38.1909 18.7383 38.1909 18.7668V19.2418C38.1909 19.2763 38.1909 19.3108 38.1888 19.3453C38.1888 19.3758 38.172 19.394 38.1426 19.3961L38.1315 19.3963L38.1163 19.3971L38.1091 19.3975L38.1016 19.3978L38.0901 19.3981H37.9976H33.7388C33.6905 19.3981 33.6422 19.3981 33.5918 19.3961C33.5624 19.3961 33.5455 19.3778 33.5455 19.3453C33.5455 19.3298 33.545 19.3143 33.5445 19.2991C33.544 19.2844 33.5434 19.27 33.5434 19.256V18.0483C33.5434 18.0311 33.544 18.0138 33.5445 17.9966C33.545 17.9793 33.5455 17.9621 33.5455 17.9448C33.5455 17.9286 33.5624 17.9103 33.5771 17.9103C33.5939 17.9083 33.6128 17.9062 33.6296 17.9062H33.7493H42.1052C42.1383 17.9062 42.1658 17.9056 42.1888 17.9051C42.2508 17.9038 42.2801 17.9031 42.2986 17.9169C42.3151 17.9292 42.3231 17.953 42.3383 17.998L42.3383 17.9981C42.3462 18.0215 42.356 18.0506 42.3699 18.0869C42.4524 18.3033 42.5329 18.5206 42.6135 18.7383L42.6135 18.7383L42.6135 18.7384L42.6135 18.7384L42.6135 18.7385L42.6135 18.7385L42.6135 18.7385L42.6135 18.7386L42.6136 18.7386L42.6136 18.7386L42.6136 18.7387L42.6136 18.7387L42.6136 18.7388L42.6137 18.739L42.6137 18.7391L42.6138 18.7393L42.6143 18.7408L42.6149 18.7423C42.6487 18.8337 42.6826 18.9251 42.7166 19.0165C42.7203 19.0261 42.7239 19.0358 42.7274 19.0453L42.7274 19.0455L42.7275 19.0456C42.7358 19.0682 42.7441 19.0906 42.7544 19.1119C42.7571 19.1172 42.7654 19.1208 42.7748 19.125C42.7798 19.1271 42.7851 19.1294 42.7901 19.1322C42.8309 19.0359 42.8652 18.9395 42.8992 18.844L42.8993 18.8437C42.9125 18.8065 42.9257 18.7693 42.9393 18.7323C42.9645 18.6643 42.9897 18.5957 43.015 18.5272L43.0151 18.5268C43.0403 18.4585 43.0654 18.3901 43.0905 18.3223L43.1417 18.1821L43.1419 18.1815C43.1733 18.0953 43.205 18.0083 43.2376 17.9204C43.246 17.919 43.254 17.917 43.2619 17.915C43.2759 17.9116 43.2893 17.9083 43.3028 17.9083C43.3427 17.9062 43.3826 17.9062 43.4225 17.9062H51.7258C51.7454 17.9062 51.7631 17.9061 51.7789 17.9059H51.779H51.7791C51.8517 17.9052 51.8872 17.9049 51.9044 17.9225C51.9207 17.9392 51.9203 17.9724 51.9195 18.0372C51.9193 18.0531 51.9191 18.071 51.9191 18.0909V19.2459C51.9191 19.2844 51.917 19.323 51.9149 19.3615C51.9149 19.3778 51.8981 19.394 51.8813 19.3961C51.8687 19.3981 51.854 19.3981 51.8414 19.3981H51.7489H47.4775H47.425L47.4132 19.3981C47.3564 19.3982 47.3283 19.3982 47.3145 19.3842C47.3009 19.3705 47.301 19.3434 47.301 19.2897L47.301 19.2783V18.7648C47.3051 18.7315 47.3033 18.7001 47.3012 18.6651L47.301 18.6613ZM28.5112 27.8701H28.6499C28.7276 27.8032 28.7759 27.726 28.8179 27.6469C28.8747 27.5434 28.9209 27.4378 28.9608 27.3282C29.0638 27.0542 29.1331 26.77 29.194 26.4859C29.1968 26.4725 29.1977 26.4582 29.1987 26.4442L29.1987 26.4442L29.1987 26.4441L29.1993 26.435L29.2003 26.423C29.2024 26.4067 29.1856 26.3864 29.1709 26.3864L29.165 26.3862H29.165H29.1649C29.104 26.3843 29.045 26.3824 28.9839 26.3824H12.4425H12.3626L12.3456 26.3823C12.2785 26.3822 12.2454 26.3822 12.2291 26.3987C12.2132 26.4149 12.2132 26.4468 12.2134 26.51L12.2135 26.5326V27.7139L12.2134 27.741C12.2132 27.8069 12.213 27.8395 12.2293 27.8555C12.2452 27.8712 12.2768 27.8709 12.3393 27.8704H12.3393L12.3816 27.8701H28.5112ZM20.698 13.7498H12.4199C12.3936 13.7498 12.3668 13.7492 12.3401 13.7487L12.34 13.7487C12.3132 13.7482 12.2865 13.7477 12.2602 13.7477C12.2371 13.7477 12.2182 13.7295 12.2161 13.7071C12.214 13.6868 12.2119 13.6645 12.2119 13.6422V12.3574C12.2119 12.3371 12.214 12.3147 12.2161 12.2944C12.2182 12.2782 12.235 12.264 12.2518 12.262C12.2644 12.2599 12.2791 12.2599 12.2917 12.2599H12.4115H28.4613H28.5537L28.5666 12.2599C28.6026 12.2598 28.6221 12.2598 28.6386 12.2668C28.6583 12.2751 28.6738 12.2933 28.7076 12.3331L28.7092 12.335C28.768 12.404 28.8122 12.4832 28.8542 12.5644C28.9277 12.7105 28.9824 12.8648 29.0307 13.0211C29.0958 13.2261 29.1441 13.4351 29.1904 13.6442C29.1942 13.6628 29.1963 13.6832 29.1982 13.7021L29.1988 13.7071C29.2009 13.7295 29.1862 13.7477 29.1588 13.7477C29.1063 13.7498 29.0517 13.7498 28.9992 13.7498H23.5701H20.698ZM27.2472 29.2042H19.8348C17.6791 29.2042 15.5235 29.2042 13.3657 29.2022H12.395C12.3509 29.2022 12.3068 29.2042 12.2626 29.2063C12.2395 29.2083 12.2206 29.2245 12.2185 29.2469C12.2164 29.2854 12.2143 29.324 12.2143 29.3626V30.1339V30.5581C12.2143 30.5885 12.2164 30.619 12.2227 30.6474C12.2248 30.6575 12.2374 30.6697 12.2479 30.6717C12.2816 30.6758 12.3173 30.6778 12.353 30.6778C12.6198 30.6799 12.8846 30.6799 13.1514 30.6799C13.692 30.6799 14.232 30.6804 14.7718 30.6809L14.7771 30.6809H14.7778H14.7786H14.7794H14.7802H14.781H14.7818H14.7826H14.7834H14.7841H14.7849H14.7857H14.7865H14.7873H14.7881H14.7889H14.7896H14.7904H14.7912H14.792H14.7928H14.7936H14.7944H14.7952H14.7959H14.7967H14.7975H14.7983H14.7991H14.7999H14.8007H14.8014H14.8022C15.3349 30.6814 15.8672 30.6819 16.3996 30.6819C17.0299 30.6819 17.6597 30.6824 18.2895 30.6829C18.9193 30.6834 19.549 30.6839 20.1793 30.6839H23.0935C23.1109 30.6839 23.1286 30.6837 23.1463 30.6835C23.182 30.683 23.2181 30.6826 23.2532 30.6839C23.5326 30.69 23.812 30.688 24.0915 30.6758C24.2154 30.6697 24.3394 30.6575 24.4613 30.6393C24.7071 30.6027 24.9487 30.552 25.1861 30.4789C25.9824 30.2353 26.6947 29.8436 27.3313 29.324C27.3628 29.2997 27.3921 29.2713 27.4194 29.2449L27.4194 29.2449L27.4194 29.2449L27.4194 29.2449L27.4195 29.2449L27.4195 29.2449L27.4195 29.2449L27.4195 29.2449L27.4195 29.2448L27.4195 29.2448C27.4237 29.2408 27.4258 29.2286 27.4237 29.2225C27.4216 29.2164 27.4132 29.2083 27.4069 29.2083C27.3544 29.2063 27.2998 29.2042 27.2472 29.2042ZM19.828 10.9264H12.4155C12.363 10.9264 12.3084 10.9244 12.2559 10.9224C12.239 10.9224 12.2222 10.9061 12.2201 10.8899C12.2194 10.8795 12.2185 10.8693 12.2175 10.8592L12.2175 10.8591C12.2157 10.8397 12.2138 10.8206 12.2138 10.8006V9.58072V9.52998C12.2159 9.47518 12.2285 9.46503 12.2853 9.463H12.3777H13.5228H20.244H23.7716H23.9712C24.1897 9.463 24.404 9.49142 24.6183 9.52998C25.2444 9.63959 25.8264 9.86489 26.3748 10.1693C26.711 10.3561 27.0261 10.5672 27.3203 10.8107C27.3497 10.8351 27.3812 10.8615 27.4085 10.8879C27.4127 10.8919 27.4148 10.9021 27.4148 10.9102C27.4148 10.9203 27.4085 10.9244 27.398 10.9244C27.3497 10.9264 27.3014 10.9264 27.2509 10.9264H19.828ZM26.9532 19.3978H27.0814C27.0919 19.3905 27.1013 19.3853 27.1097 19.3807L27.1192 19.3754C27.3965 19.1582 27.6549 18.9248 27.8924 18.6691C28.0226 18.529 28.1445 18.3809 28.2495 18.2225C28.3021 18.1434 28.3525 18.0622 28.3924 17.9769C28.4134 17.9303 28.4029 17.91 28.3546 17.9079C28.3105 17.9059 28.2663 17.9059 28.2222 17.9059H25.5077H15.4983H15.366C15.3534 17.9059 15.3387 17.9079 15.3261 17.91C15.3093 17.912 15.2924 17.9282 15.2924 17.9445L15.2924 17.9445C15.2903 17.9831 15.2882 18.0216 15.2882 18.0602V19.2415L15.288 19.2824C15.2875 19.3412 15.2872 19.3705 15.3018 19.3849C15.3162 19.3993 15.3453 19.3989 15.4034 19.3982L15.4035 19.3982C15.4184 19.398 15.4353 19.3978 15.4542 19.3978H26.9532ZM27.0761 20.734C27.0988 20.7523 27.1206 20.7701 27.1422 20.7877C27.1685 20.8093 27.1945 20.8305 27.2211 20.8517C27.4858 21.0689 27.7358 21.2983 27.9606 21.554C28.0783 21.688 28.1897 21.826 28.2821 21.9782C28.322 22.0452 28.3577 22.1142 28.3935 22.1832C28.3963 22.1901 28.3944 22.1987 28.3921 22.2086C28.3911 22.2134 28.3899 22.2185 28.3893 22.2238H28.2401H25.618H15.4784C15.4259 22.2238 15.3712 22.2218 15.3187 22.2198C15.3019 22.2198 15.2872 22.2035 15.2851 22.1853C15.283 22.1548 15.283 22.1264 15.283 22.0959V20.8639C15.283 20.8487 15.2835 20.834 15.284 20.8192C15.2846 20.8045 15.2851 20.7898 15.2851 20.7746C15.2851 20.7543 15.3061 20.736 15.3292 20.734C15.346 20.732 15.3649 20.732 15.3817 20.732H15.5141H26.8786L26.9095 20.731C26.9679 20.729 27.0243 20.7271 27.0761 20.734ZM10.5249 12.2599H5.36262C3.73432 12.2599 2.10602 12.2599 0.481919 12.2619H0.135248C0.105593 12.2619 0.0777978 12.2637 0.0483622 12.2656L0.0428024 12.266C0.0280951 12.266 0.0112869 12.2843 0.0112869 12.3005C0.00918583 12.3431 0.0070848 12.3857 0.0070848 12.4284V13.5833V13.6726C0.0070848 13.7396 0.0154889 13.7477 0.080621 13.7497H0.212986H10.5123H10.6446C10.6572 13.7497 10.6719 13.7477 10.6845 13.7457C10.7014 13.7436 10.7182 13.7274 10.7182 13.7112C10.7203 13.6787 10.7224 13.6442 10.7224 13.6097V12.402C10.7224 12.3736 10.7224 12.3431 10.7203 12.3127C10.7182 12.2822 10.7014 12.2619 10.6719 12.2619C10.6215 12.2599 10.5732 12.2599 10.5249 12.2599ZM5.43201 27.8705H0.269771C0.223424 27.8705 0.177076 27.8686 0.128875 27.8667L0.122699 27.8664C0.105891 27.8664 0.0890824 27.8502 0.0890824 27.834C0.0869813 27.8137 0.0848803 27.7913 0.0848803 27.771V26.4882C0.0848803 26.4771 0.0854056 26.4664 0.0859308 26.4558C0.0864561 26.4451 0.0869813 26.4345 0.0869813 26.4233C0.0890824 26.407 0.10379 26.3908 0.118497 26.3888C0.131103 26.3868 0.143709 26.3847 0.158417 26.3847H0.278176H10.6027C10.6552 26.3847 10.7098 26.3868 10.7623 26.3888C10.7791 26.3888 10.796 26.407 10.7981 26.4213L10.7985 26.4266C10.8004 26.4509 10.8023 26.4738 10.8023 26.4984V27.7568C10.8023 27.7791 10.8023 27.7994 10.8002 27.8218C10.7981 27.8522 10.7812 27.8705 10.7518 27.8725C10.7119 27.8745 10.672 27.8745 10.6321 27.8745H8.91553C7.75576 27.8705 6.59388 27.8705 5.43201 27.8705ZM0.284321 30.6772H5.44656C7.15891 30.6772 8.86915 30.6772 10.5836 30.6752H10.7034C10.7202 30.6752 10.7391 30.6752 10.7559 30.6732C10.7832 30.6711 10.8 30.6529 10.8021 30.6224C10.8042 30.5961 10.8042 30.5717 10.8042 30.5453V30.5453V29.3376V29.3376C10.8042 29.3071 10.8042 29.2787 10.8021 29.2483C10.8021 29.228 10.7811 29.2077 10.7601 29.2077L10.754 29.2075H10.754H10.754H10.7539H10.7539H10.7539H10.7538H10.7538H10.7538H10.7538H10.7537H10.7537H10.7537H10.7537H10.7537C10.7056 29.2055 10.6593 29.2036 10.613 29.2036H0.273815H0.18137C0.175067 29.2036 0.168238 29.2042 0.16141 29.2047C0.154582 29.2052 0.147753 29.2057 0.14145 29.2057C0.107834 29.2077 0.0910253 29.2239 0.0889243 29.2524C0.0868233 29.2747 0.0868233 29.295 0.0868233 29.3173V30.5636C0.0868233 30.5882 0.0886526 30.611 0.0906043 30.6354L0.0910253 30.6407C0.0910253 30.6569 0.107834 30.6732 0.124642 30.6732C0.177168 30.6752 0.231795 30.6772 0.284321 30.6772ZM40.7445 13.7434C40.7388 13.7441 40.7332 13.745 40.7276 13.7459C40.7164 13.7477 40.7052 13.7495 40.694 13.7495C40.6674 13.7509 40.6408 13.7504 40.6142 13.75C40.6009 13.7497 40.5876 13.7495 40.5743 13.7495H30.6721C30.6196 13.7495 30.565 13.7475 30.5124 13.7455C30.4956 13.7455 30.4788 13.7292 30.4767 13.713C30.476 13.7039 30.475 13.695 30.4741 13.6863C30.4722 13.6696 30.4704 13.6532 30.4704 13.6359V12.3774C30.4704 12.3551 30.4704 12.3348 30.4725 12.3125C30.4746 12.2759 30.4914 12.2597 30.5313 12.2597C30.5713 12.2577 30.6112 12.2577 30.6511 12.2577H40.0469C40.0574 12.2577 40.0679 12.2575 40.0785 12.2573C40.1212 12.2567 40.1649 12.256 40.2087 12.2658C40.2213 12.2922 40.2339 12.3206 40.2444 12.347C40.4125 12.8016 40.5806 13.2583 40.7466 13.713C40.7487 13.717 40.7466 13.7211 40.7445 13.7252C40.7466 13.7313 40.7466 13.7353 40.7445 13.7434ZM44.7887 13.7165C44.7877 13.7247 44.7867 13.7333 44.7847 13.7419C44.8224 13.7514 44.8583 13.7518 44.893 13.7523C44.9104 13.7525 44.9275 13.7527 44.9444 13.7541H54.7352H54.8423C54.857 13.7541 54.8717 13.7541 54.8823 13.748C54.8928 13.7419 54.9054 13.7318 54.9075 13.7216C54.9138 13.6952 54.9138 13.6709 54.9138 13.6445V12.3739C54.9138 12.3492 54.9119 12.3263 54.91 12.3019L54.9096 12.2967C54.9096 12.2825 54.8907 12.2663 54.8739 12.2663L54.8678 12.266C54.8195 12.2641 54.7732 12.2622 54.7268 12.2622H45.4822C45.4703 12.2622 45.4584 12.262 45.4465 12.2618C45.4227 12.2613 45.3989 12.2609 45.3751 12.2622L45.3578 12.2643C45.3461 12.2656 45.3345 12.267 45.3247 12.2683C45.3002 12.2974 45.2892 12.3298 45.2781 12.3625L45.2742 12.3739C45.1545 12.7027 45.0326 13.0335 44.9107 13.3644L44.886 13.4323L44.8858 13.4326C44.8543 13.5189 44.823 13.6044 44.7931 13.6912C44.7909 13.6987 44.7898 13.7073 44.7887 13.7165ZM39.1701 9.46864L39.1787 9.48473C39.1841 9.49464 39.1891 9.50396 39.1933 9.51329C39.3634 9.97201 39.5336 10.4307 39.7017 10.8894C39.7031 10.8922 39.7026 10.8949 39.7022 10.8976C39.7019 10.8989 39.7017 10.9003 39.7017 10.9016C39.7017 10.9041 39.7009 10.9066 39.6998 10.9101C39.6991 10.9123 39.6983 10.9148 39.6975 10.9179C39.6891 10.9189 39.6807 10.9204 39.6723 10.9219L39.6723 10.9219C39.6639 10.9234 39.6555 10.925 39.6471 10.926C39.6177 10.9273 39.5883 10.9269 39.5588 10.9264C39.5441 10.9262 39.5294 10.926 39.5147 10.926H30.682C30.6294 10.926 30.5748 10.926 30.5223 10.924C30.4929 10.924 30.4761 10.9057 30.474 10.8732C30.4719 10.8428 30.4719 10.8143 30.4719 10.7839V9.6026C30.4719 9.5681 30.474 9.53359 30.4761 9.50111C30.4782 9.48488 30.4929 9.46661 30.5097 9.46661C30.5223 9.46458 30.537 9.46458 30.5496 9.46458H30.6694H38.9958L39.0163 9.46379C39.0667 9.46178 39.1184 9.45971 39.1701 9.46864ZM45.8246 10.9024C45.8255 10.9074 45.8265 10.9128 45.8265 10.9184C45.8754 10.9302 45.9228 10.928 45.9712 10.9258L46.0009 10.9245H54.7181H54.8378C54.8505 10.9245 54.8652 10.9225 54.8778 10.9204C54.8946 10.9204 54.9114 10.9042 54.9114 10.888L54.9114 10.8877C54.9135 10.8452 54.9156 10.8026 54.9156 10.7601C54.9156 10.638 54.9158 10.5156 54.9161 10.3932V10.393V10.3928V10.3926V10.3923V10.3921V10.3919V10.3917V10.3915V10.3912V10.391V10.3908V10.3906V10.3904V10.3901V10.3899V10.3897V10.3895V10.3892V10.389V10.3888V10.3886V10.3883C54.9165 10.14 54.917 9.89144 54.9156 9.64373C54.9153 9.61925 54.9155 9.59802 54.9157 9.57962V9.57951V9.57941V9.57932V9.57923V9.57915V9.57907V9.579V9.57893V9.57887V9.57881V9.57875V9.5787V9.57865V9.5786V9.57855V9.57851V9.57847V9.57844V9.5784V9.57837V9.57835V9.57832V9.5783V9.57828V9.57826V9.57824V9.57822V9.57819V9.57817V9.57815V9.57813V9.57811V9.57809V9.57807V9.57805V9.57803V9.57801V9.57799V9.57797V9.57795V9.57794C54.9162 9.51929 54.9165 9.48973 54.9018 9.47512C54.8869 9.46027 54.8565 9.46089 54.7954 9.46216C54.7748 9.46259 54.7506 9.46309 54.7223 9.46309H46.524H46.4442H46.4043C46.3518 9.46512 46.3413 9.47121 46.3244 9.51383C46.3139 9.53819 46.3055 9.56254 46.2971 9.5869C46.1634 9.95036 46.0296 10.3158 45.8958 10.6813L45.8958 10.6814L45.8937 10.687L45.8244 10.8819C45.8219 10.888 45.8231 10.8948 45.8246 10.9024ZM37.6786 16.5727H33.7266C33.6802 16.5727 33.6338 16.5709 33.5855 16.5689L33.5795 16.5687C33.5627 16.5687 33.548 16.5504 33.548 16.5342C33.5459 16.5037 33.5459 16.4753 33.5459 16.4449V15.2128C33.5459 15.1783 33.548 15.1438 33.5522 15.1113C33.5522 15.1052 33.5627 15.0971 33.5711 15.0931C33.5837 15.089 33.5963 15.087 33.611 15.087H33.7434H41.0865L41.1121 15.0872L41.1306 15.0874C41.16 15.0879 41.1894 15.0883 41.2189 15.087C41.2504 15.087 41.2672 15.1032 41.2777 15.1296C41.3029 15.1945 41.326 15.2575 41.3491 15.3224C41.4899 15.6999 41.6307 16.0795 41.7693 16.457C41.7798 16.4855 41.7882 16.5139 41.7966 16.5423C41.8008 16.5524 41.7861 16.5687 41.7756 16.5687C41.7273 16.5707 41.679 16.5707 41.6286 16.5707C40.3133 16.5727 38.996 16.5727 37.6786 16.5727ZM43.7535 16.5553L43.7553 16.5603C43.756 16.5623 43.7566 16.5645 43.757 16.5666C43.7891 16.573 43.8228 16.5737 43.8561 16.5744C43.8752 16.5749 43.8941 16.5753 43.9125 16.5767H51.7326H51.7998L51.816 16.5765C51.9218 16.575 51.9238 16.575 51.9238 16.4549V15.2107V15.2106C51.9238 15.1843 51.9238 15.1599 51.9217 15.1336C51.9217 15.1092 51.9048 15.091 51.8817 15.091C51.8313 15.0889 51.783 15.0889 51.7347 15.0889H44.4588H44.339L44.3332 15.0889C44.3124 15.0888 44.2931 15.0886 44.2739 15.1072C44.2694 15.1202 44.2638 15.1337 44.2579 15.1478L44.2578 15.1479L44.2578 15.148C44.2526 15.1604 44.2473 15.1731 44.2424 15.1864C44.089 15.6086 43.9335 16.0328 43.778 16.4549C43.7675 16.4834 43.7591 16.5118 43.7507 16.5402C43.7494 16.544 43.7514 16.5493 43.7535 16.5553ZM51.1519 27.871H47.494C47.4499 27.871 47.4058 27.871 47.3616 27.869C47.328 27.869 47.3112 27.8528 47.3091 27.8243C47.3091 27.8162 47.3086 27.8076 47.3081 27.799L47.3077 27.7934C47.3073 27.7866 47.307 27.78 47.307 27.7736V26.4766C47.307 26.4685 47.3075 26.4598 47.3081 26.4512C47.3086 26.4426 47.3091 26.434 47.3091 26.4258C47.3112 26.4035 47.328 26.3853 47.3532 26.3853C47.4016 26.3832 47.4499 26.3832 47.5003 26.3832H50.3745H54.7909C54.8196 26.3832 54.8444 26.3828 54.8658 26.3824C54.934 26.3812 54.9676 26.3806 54.9838 26.397C54.9995 26.413 54.9989 26.445 54.9976 26.508L54.997 26.543L54.9968 26.5781C54.9982 26.8297 54.9977 27.0804 54.9973 27.3314C54.997 27.457 54.9968 27.5827 54.9968 27.7086C54.9968 27.7513 54.9947 27.7939 54.9926 27.8365C54.9926 27.8528 54.9737 27.867 54.9569 27.869C54.9506 27.869 54.9438 27.8695 54.9369 27.87C54.9301 27.8705 54.9233 27.871 54.917 27.871H54.7972H51.1519ZM30.7475 27.8701H34.3655C35.5757 27.8701 36.788 27.8701 37.9961 27.8721C38.0216 27.8721 38.0465 27.8716 38.0712 27.8711L38.0714 27.8711C38.0955 27.8706 38.1193 27.8701 38.1432 27.8701C38.1663 27.8701 38.1852 27.8519 38.1873 27.8316L38.1877 27.8262C38.1897 27.8018 38.1915 27.779 38.1915 27.7544V26.496C38.1915 26.4714 38.1897 26.4486 38.1877 26.4242L38.1873 26.4189C38.1852 26.4047 38.1684 26.3864 38.1516 26.3864C38.1032 26.3844 38.0549 26.3823 38.0066 26.3823H30.7454C30.7055 26.3823 30.6656 26.3823 30.6257 26.3844C30.5752 26.3864 30.5605 26.3986 30.5584 26.4432C30.5563 26.4818 30.5563 26.5203 30.5563 26.5589C30.5563 26.684 30.5561 26.8093 30.5559 26.9347C30.5554 27.1857 30.5549 27.437 30.5563 27.6874L30.5561 27.7207L30.5558 27.7459V27.7461V27.7462C30.5549 27.8091 30.5544 27.8408 30.57 27.8565C30.5858 27.8723 30.618 27.8718 30.6827 27.8708C30.7015 27.8705 30.7229 27.8701 30.7475 27.8701ZM51.1463 30.6776H47.5136L47.474 30.6779L47.438 30.6784C47.3694 30.6797 47.3359 30.6803 47.3199 30.6638C47.3047 30.6481 47.3054 30.6169 47.3067 30.5559C47.3071 30.5352 47.3077 30.511 47.3077 30.4828C47.3063 30.2259 47.3067 29.969 47.3072 29.7127V29.7116V29.7112V29.7107V29.7103L47.3074 29.5677L47.3077 29.3278C47.3077 29.2081 47.3077 29.2061 47.4316 29.2061H47.5241H54.7768L54.8167 29.2058L54.8572 29.2052L54.8574 29.2052C54.9305 29.2039 54.9661 29.2033 54.9832 29.2207C54.9994 29.2373 54.9989 29.2701 54.9979 29.3341C54.9976 29.3569 54.9972 29.3837 54.9974 29.4151C54.9988 29.6694 54.9984 29.9229 54.9979 30.1766C54.9977 30.3035 54.9974 30.4306 54.9974 30.5579V30.5637V30.5638C54.9975 30.6201 54.9975 30.6485 54.9832 30.6629C54.9687 30.6776 54.9392 30.6776 54.8796 30.6776H54.8735H54.7663H51.1463ZM30.7622 30.6778H34.3676H34.371C35.5801 30.6778 36.7891 30.6778 38.0003 30.6757C38.0507 30.6757 38.0991 30.6757 38.1474 30.6737C38.1705 30.6717 38.1915 30.6534 38.1915 30.6331C38.1915 30.6138 38.192 30.5946 38.1925 30.5753C38.1931 30.556 38.1936 30.5367 38.1936 30.5174C38.1936 30.3915 38.1938 30.2656 38.1941 30.1397C38.1945 29.8883 38.195 29.6371 38.1936 29.3869C38.1934 29.3642 38.1935 29.3443 38.1936 29.3269C38.194 29.2667 38.1942 29.2352 38.1786 29.2189C38.1615 29.2011 38.1255 29.2013 38.05 29.2019L38.0003 29.2022H30.7496C30.7097 29.2022 30.6698 29.2022 30.6299 29.2042C30.5731 29.2062 30.5605 29.2204 30.5584 29.2732C30.5563 29.3118 30.5563 29.3503 30.5563 29.3889C30.5563 29.51 30.5561 29.6309 30.5559 29.7516L30.5559 29.7541C30.5554 29.9968 30.5549 30.2388 30.5563 30.4809C30.5566 30.5077 30.5564 30.5309 30.5562 30.551V30.5511C30.5555 30.6146 30.5552 30.647 30.5713 30.6633C30.5879 30.6801 30.6221 30.6796 30.6919 30.6785H30.6919L30.7131 30.6781L30.7479 30.6778L30.7622 30.6778ZM39.5672 22.2179C39.5504 22.1793 39.5378 22.1469 39.5252 22.1144C39.3659 21.6933 39.2088 21.2723 39.0516 20.8513L39.0515 20.851L39.0514 20.8508L39.0514 20.8506L39.0513 20.8504L39.0512 20.8502L39.0511 20.85L39.051 20.8498L39.051 20.8495L39.0509 20.8493L39.0508 20.8491L39.0507 20.8489L39.0506 20.8487L39.0506 20.8485L39.0505 20.8483L39.0504 20.848L39.0503 20.8478L39.0251 20.7748C39.0167 20.7504 39.0314 20.7321 39.0566 20.7321C39.0923 20.7301 39.128 20.7301 39.1637 20.7301H39.1638H46.3451C46.385 20.7301 46.4249 20.7321 46.4649 20.7342C46.4817 20.7342 46.4943 20.7545 46.488 20.7707C46.4838 20.7829 46.4801 20.795 46.4764 20.8072L46.4699 20.8285L46.4649 20.8438C46.3861 21.0568 46.3073 21.2704 46.2285 21.484C46.1497 21.6977 46.0709 21.9114 45.9921 22.1245C45.9837 22.1489 45.9732 22.1732 45.9627 22.1956C45.9564 22.2057 45.9438 22.2138 45.9333 22.2179C45.9207 22.222 45.9081 22.222 45.8934 22.222H45.7862H39.7353C39.7217 22.222 39.7082 22.2222 39.6947 22.2225L39.6946 22.2225C39.6539 22.2232 39.6129 22.224 39.5672 22.2179ZM40.5871 24.9415C40.5987 24.9765 40.6103 25.0117 40.6397 25.0432C40.6754 25.0432 40.7153 25.0452 40.7552 25.0472L40.7552 25.0472H44.7871C44.8165 25.0472 44.8481 25.0472 44.8796 25.0452C44.9006 25.0432 44.9132 25.033 44.9216 25.0168C44.9321 24.9944 44.9426 24.9701 44.951 24.9457C45.0298 24.7327 45.1086 24.5191 45.1873 24.3055C45.2661 24.0918 45.3449 23.8781 45.4237 23.665C45.4321 23.6406 45.4405 23.6163 45.4469 23.5919C45.4511 23.5757 45.4363 23.5574 45.4174 23.5574L45.4174 23.5574C45.3733 23.5554 45.3292 23.5533 45.2851 23.5533H40.2552H40.148C40.1354 23.5533 40.1207 23.5554 40.1081 23.5574C40.0976 23.5574 40.0829 23.5736 40.085 23.5838C40.0913 23.6081 40.0976 23.6325 40.106 23.6569C40.1218 23.6996 40.1376 23.7418 40.1534 23.784C40.1691 23.826 40.1848 23.8681 40.2006 23.9106C40.2636 24.077 40.3261 24.244 40.3886 24.4109C40.4511 24.5778 40.5136 24.7448 40.5766 24.9112L40.5817 24.9253L40.5871 24.9415ZM29.0366 16.565C29.0287 16.5657 29.0214 16.5668 29.0143 16.5678C29.0027 16.5695 28.9917 16.571 28.9799 16.571C28.9561 16.5724 28.9323 16.5719 28.9085 16.5715L28.8916 16.5712L28.8727 16.571H24.5887C24.5446 16.571 24.5005 16.569 24.4564 16.567C24.4396 16.567 24.4249 16.5487 24.4228 16.5325L24.4223 16.5272C24.4204 16.5028 24.4186 16.48 24.4186 16.4553V15.1969C24.4186 15.1665 24.4207 15.1381 24.4249 15.1076C24.4249 15.1015 24.4354 15.0934 24.4417 15.0893C24.4501 15.0853 24.4585 15.0833 24.4669 15.0833C24.4868 15.0833 24.5068 15.0827 24.5268 15.0822C24.5467 15.0817 24.5667 15.0812 24.5866 15.0812H29.1627H29.2698C29.3161 15.0833 29.3308 15.0954 29.3287 15.1441C29.3287 15.2091 29.3266 15.272 29.3203 15.337C29.2824 15.7226 29.1942 16.0961 29.0681 16.4635C29.0618 16.502 29.0492 16.5345 29.0366 16.565ZM29.0504 23.6076L29.0353 23.5674C28.9788 23.5485 28.9331 23.5507 28.8898 23.5527L28.8798 23.5532H24.5937C24.5793 23.5532 24.5643 23.5537 24.5491 23.5542L24.5267 23.5548L24.511 23.5551L24.5013 23.5552C24.4866 23.5552 24.474 23.5572 24.4614 23.5593C24.4466 23.5613 24.4256 23.5796 24.4256 23.5938L24.4256 23.5939C24.4235 23.6324 24.4214 23.6709 24.4214 23.7095C24.4214 23.8372 24.4212 23.9651 24.421 24.0932C24.4205 24.3499 24.42 24.6071 24.4214 24.8644C24.4214 24.887 24.4212 24.9068 24.4209 24.9242C24.42 24.988 24.4195 25.0196 24.4351 25.0349C24.4503 25.0499 24.4809 25.0492 24.5414 25.048C24.5616 25.0475 24.5852 25.0471 24.6126 25.0471H29.1383H29.2706C29.2752 25.0464 29.2795 25.046 29.2837 25.0456L29.2838 25.0456C29.2931 25.0446 29.3018 25.0438 29.3105 25.041C29.3169 25.0369 29.3253 25.0288 29.3274 25.0227C29.3316 25.0024 29.3337 24.9801 29.3337 24.9598C29.3358 24.8299 29.3169 24.702 29.2979 24.5762C29.2559 24.2839 29.1824 23.9977 29.0899 23.7155C29.0776 23.6798 29.0642 23.6441 29.0504 23.6076ZM3.09086 15.0931C3.09915 15.0923 3.10679 15.0911 3.11402 15.0901L3.11404 15.0901C3.12514 15.0885 3.13532 15.087 3.14549 15.087H3.25264H7.54926C7.57132 15.087 7.59338 15.0875 7.61544 15.088L7.6155 15.088C7.63754 15.0885 7.65958 15.089 7.68163 15.089C7.70474 15.089 7.72155 15.1073 7.72155 15.1316C7.72365 15.1539 7.72365 15.1742 7.72365 15.1966V16.4672C7.72365 16.4936 7.72155 16.5179 7.71734 16.5443C7.71524 16.5545 7.70264 16.5646 7.69213 16.5707C7.68375 16.5756 7.6727 16.5752 7.6611 16.5749L7.65221 16.5748H7.54506H3.24844H3.24841C3.2085 16.5748 3.16859 16.5748 3.12868 16.5727C3.09297 16.5707 3.07616 16.5646 3.07406 16.5159C3.07196 16.4773 3.07196 16.4388 3.07196 16.4002V16.4002V15.2575V15.2575C3.07196 15.2189 3.07196 15.1803 3.07406 15.1418C3.07616 15.1337 3.07931 15.1255 3.08246 15.1174C3.08561 15.1093 3.08876 15.1012 3.09086 15.0931ZM3.25153 19.3978H5.40719C5.94715 19.3978 6.48922 19.3978 7.03549 19.3957H7.60697C7.63849 19.3957 7.6679 19.3957 7.69942 19.3917C7.71202 19.3896 7.72253 19.3795 7.72463 19.3653L7.72505 19.36C7.727 19.3356 7.72883 19.3128 7.72883 19.2881V18.0175C7.72883 17.9929 7.727 17.9701 7.72505 17.9457L7.72463 17.9404C7.72463 17.9262 7.70572 17.91 7.68891 17.91L7.68885 17.91C7.64475 17.9079 7.60065 17.9059 7.55655 17.9059H3.25783C3.22211 17.9059 3.18639 17.9059 3.15068 17.9079C3.14054 17.9079 3.1314 17.9099 3.12257 17.9117C3.11859 17.9126 3.11467 17.9134 3.11076 17.914C3.09395 17.916 3.08765 17.9282 3.08554 17.9404C3.08134 17.9668 3.07924 17.9911 3.07924 18.0175V19.2881C3.07924 19.3128 3.08107 19.3356 3.08302 19.36L3.08344 19.3653C3.08344 19.3795 3.10235 19.3957 3.11916 19.3957C3.16328 19.3978 3.2074 19.3978 3.25153 19.3978ZM5.40056 22.2219H3.247C3.22494 22.2219 3.20287 22.2214 3.18081 22.2209C3.15875 22.2204 3.13669 22.2199 3.11463 22.2199C3.09782 22.2199 3.08312 22.2037 3.08101 22.1854L3.08059 22.1801C3.07864 22.1558 3.07681 22.1329 3.07681 22.1083V20.8519C3.07681 20.7917 3.07681 20.7612 3.09203 20.7459C3.10761 20.7301 3.13912 20.7301 3.20287 20.7301H3.27011H7.53731C7.58561 20.7301 7.63391 20.7321 7.68221 20.7342L7.68228 20.7342C7.70539 20.7342 7.7222 20.7524 7.7222 20.7768C7.7243 20.8072 7.7243 20.8356 7.7243 20.8661V22.0981C7.7243 22.1326 7.7201 22.1671 7.7159 22.1996C7.7159 22.2057 7.70539 22.2138 7.69909 22.2179C7.69069 22.2219 7.68228 22.2219 7.67388 22.2219C7.65182 22.2219 7.62976 22.2225 7.6077 22.223C7.58563 22.2235 7.56357 22.224 7.54151 22.224C6.82716 22.2219 6.11281 22.2219 5.40056 22.2219ZM33.7138 22.2219H35.8695C36.5838 22.2219 37.2961 22.2219 38.0188 22.224C38.0409 22.224 38.0629 22.2235 38.085 22.223C38.1071 22.2225 38.1291 22.2219 38.1512 22.2219C38.1743 22.2219 38.1932 22.2037 38.1953 22.1834C38.1953 22.1702 38.1958 22.1575 38.1963 22.1448C38.1969 22.1321 38.1974 22.1194 38.1974 22.1063V20.8478C38.1974 20.8232 38.1956 20.8004 38.1936 20.776L38.1932 20.7707C38.1911 20.7565 38.1743 20.7382 38.1596 20.7362C38.1463 20.7355 38.133 20.7346 38.1197 20.7337C38.0931 20.7319 38.0664 20.7301 38.0398 20.7301H33.7012H33.7011C33.6654 20.7301 33.6297 20.7301 33.594 20.7321C33.5709 20.7342 33.5499 20.7524 33.5499 20.7727C33.5499 20.7879 33.5494 20.8027 33.5489 20.8174C33.5483 20.8321 33.5478 20.8468 33.5478 20.862V22.0941C33.5478 22.1245 33.5478 22.1529 33.5499 22.1834C33.5499 22.2016 33.5646 22.2179 33.5814 22.2179C33.6255 22.2199 33.6697 22.2219 33.7138 22.2219ZM5.39231 25.0449H3.25136H3.2513C3.2114 25.0449 3.1715 25.0449 3.1316 25.0429C3.09588 25.0408 3.07907 25.0348 3.07697 24.986C3.07487 24.9475 3.07487 24.9089 3.07487 24.8704V23.7296C3.07487 23.6911 3.07487 23.6525 3.07697 23.6139C3.07697 23.6018 3.08117 23.5896 3.08748 23.5774C3.09168 23.5713 3.09798 23.5632 3.10639 23.5612C3.11899 23.5571 3.1316 23.5531 3.1442 23.5531C3.18412 23.551 3.22404 23.551 3.26396 23.551H7.53116C7.55103 23.551 7.56888 23.5509 7.58491 23.5507C7.6575 23.55 7.69288 23.5497 7.7099 23.5672C7.72608 23.5838 7.72567 23.6166 7.72487 23.6805C7.72468 23.6963 7.72446 23.7139 7.72446 23.7337V24.8744C7.72446 24.913 7.72446 24.9515 7.72236 24.9901C7.72026 25.0287 7.70555 25.0429 7.66353 25.0429H7.54377C6.82765 25.0449 6.11154 25.0449 5.39332 25.0449H5.39231ZM33.7136 25.0445H35.8567H35.8577C36.5759 25.0445 37.2941 25.0445 38.0124 25.0424H38.1321C38.172 25.0424 38.1867 25.0282 38.1888 24.9897V24.9511V23.6541C38.1888 23.6318 38.1867 23.6094 38.1846 23.5891C38.1846 23.5749 38.1657 23.5546 38.151 23.5546C38.1322 23.5539 38.1136 23.553 38.0952 23.5521C38.0602 23.5503 38.0258 23.5485 37.9913 23.5485H33.7472H33.6674C33.5455 23.5506 33.5434 23.5526 33.5434 23.6724V24.673V24.9308C33.5434 24.9554 33.5453 24.9782 33.5472 25.0025L33.5476 25.0079C33.5476 25.0242 33.5645 25.0404 33.5813 25.0404C33.6254 25.0424 33.6695 25.0445 33.7136 25.0445ZM17.6116 15.0871H19.7525L19.7902 15.0869C19.8483 15.0864 19.8774 15.0862 19.8918 15.1006C19.9064 15.1151 19.9062 15.1442 19.906 15.2026L19.9059 15.2292V16.4348C19.9059 16.4693 19.9038 16.5038 19.9017 16.5363C19.9017 16.5525 19.8849 16.5668 19.866 16.5688C19.8534 16.5708 19.8387 16.5708 19.8261 16.5708H19.7189H15.4643C15.4414 16.5708 15.4214 16.5711 15.4039 16.5714C15.3433 16.5724 15.3132 16.5728 15.2985 16.558C15.284 16.5435 15.2844 16.5141 15.2853 16.4558L15.2856 16.4321L15.2857 16.4023V15.2474C15.2857 15.2048 15.2878 15.1622 15.2899 15.1196C15.2899 15.1033 15.3067 15.0891 15.3236 15.0871C15.3362 15.0851 15.3509 15.0851 15.3635 15.0851H15.4832C16.1934 15.0871 16.9014 15.0871 17.6116 15.0871ZM47.4814 22.2214H49.6098C50.3157 22.2214 51.0196 22.2214 51.7276 22.2254H51.8474C51.86 22.2254 51.8747 22.2254 51.8873 22.2234C51.9062 22.2214 51.9209 22.2071 51.923 22.1909C51.9251 22.1645 51.9272 22.1402 51.9272 22.1138V20.8553V20.8552C51.9272 20.8289 51.9272 20.8046 51.9251 20.7782C51.923 20.7559 51.9041 20.7356 51.8831 20.7356L51.877 20.7353C51.8287 20.7334 51.7824 20.7315 51.736 20.7315H47.5045H47.3848C47.3722 20.7315 47.3574 20.7336 47.3448 20.7356C47.3301 20.7376 47.3112 20.7518 47.3112 20.7681C47.3091 20.8005 47.307 20.8351 47.307 20.8696V22.0894V22.1666C47.307 22.2071 47.3196 22.2193 47.3616 22.2214H47.4814ZM17.599 25.0448H15.458C15.4139 25.0448 15.3698 25.0428 15.3257 25.0408C15.3089 25.0408 15.292 25.0245 15.292 25.0083L15.2916 25.003C15.2897 24.9786 15.2878 24.9558 15.2878 24.9312V24.6754V23.6748C15.2878 23.555 15.2899 23.553 15.4118 23.5509H15.4916H19.7084C19.7428 23.5509 19.7772 23.5527 19.8122 23.5545H19.8122H19.8122H19.8123C19.8307 23.5554 19.8493 23.5563 19.8681 23.557C19.8828 23.557 19.9017 23.5773 19.9017 23.5915L19.9021 23.5969C19.9041 23.6212 19.9059 23.6441 19.9059 23.6687V24.9393C19.9059 24.9657 19.9038 24.99 19.8996 25.0164C19.8975 25.0286 19.8891 25.0408 19.8723 25.0408C19.8366 25.0428 19.8009 25.0448 19.7672 25.0448H18.7419H17.599ZM47.4638 25.0445H49.6194H51.7478H51.7479C51.792 25.0445 51.8361 25.0445 51.8802 25.0424C51.9012 25.0404 51.9201 25.0221 51.9201 24.9998C51.9201 24.9724 51.9206 24.9445 51.9211 24.9166C51.9217 24.8887 51.9222 24.8608 51.9222 24.8334V23.7028C51.9222 23.6643 51.9201 23.6258 51.918 23.5873L51.918 23.5871C51.918 23.5749 51.8949 23.5526 51.8823 23.5526C51.8297 23.5506 51.7751 23.5485 51.7226 23.5485H47.5058H47.426C47.3654 23.5496 47.3349 23.5501 47.3196 23.5656C47.3041 23.5812 47.3041 23.6122 47.3041 23.6744V24.9328V24.9329C47.3041 24.9552 47.3041 24.9755 47.3062 24.9978C47.3069 25.0005 47.3074 25.0034 47.3078 25.0063C47.3088 25.0122 47.3097 25.0181 47.3125 25.0221C47.3167 25.0282 47.3251 25.0384 47.3314 25.0384C47.3755 25.0424 47.4197 25.0445 47.4638 25.0445ZM43.8621 27.8661L43.852 27.8669C43.8311 27.8686 43.8127 27.8701 43.7927 27.8701H41.7715C41.7547 27.8701 41.7358 27.8701 41.719 27.8681C41.7001 27.8661 41.6875 27.8539 41.6791 27.8397C41.6644 27.8092 41.6518 27.7767 41.6392 27.7443C41.5983 27.6352 41.5571 27.5259 41.5158 27.4164L41.5154 27.4154C41.4508 27.2439 41.386 27.0719 41.3219 26.8999C41.2967 26.8339 41.272 26.7675 41.2473 26.701C41.2226 26.6345 41.198 26.568 41.1727 26.5021C41.1675 26.488 41.1628 26.4739 41.1581 26.4598L41.158 26.4595C41.1533 26.4452 41.1486 26.431 41.1433 26.4168C41.1391 26.4067 41.1517 26.3884 41.1622 26.3864C41.1748 26.3844 41.1875 26.3823 41.2022 26.3823H41.2946H44.2339C44.2781 26.3823 44.3222 26.3844 44.3663 26.3864C44.3894 26.3864 44.4041 26.4087 44.3957 26.4331C44.393 26.4409 44.3904 26.4487 44.3879 26.4565C44.3864 26.4609 44.385 26.4653 44.3836 26.4697C44.3756 26.494 44.3677 26.5183 44.3579 26.5427C44.3034 26.6895 44.2494 26.8358 44.1955 26.9821L44.1951 26.983C44.141 27.1297 44.0869 27.2764 44.0322 27.4236C44.0091 27.4855 43.986 27.5479 43.9629 27.6103C43.9398 27.6727 43.9167 27.7351 43.8936 27.797C43.8882 27.8161 43.8782 27.8352 43.8675 27.8556L43.8675 27.8556L43.8621 27.8661ZM43.3494 29.2811C43.3557 29.2608 43.362 29.2405 43.3536 29.2182C43.3309 29.2047 43.3052 29.2052 43.2779 29.2058C43.2724 29.2059 43.2668 29.206 43.2611 29.206H42.2905C42.2761 29.206 42.2608 29.2079 42.2459 29.2098C42.2389 29.2106 42.232 29.2115 42.2253 29.2121C42.2148 29.2141 42.2022 29.2304 42.2043 29.2405C42.2096 29.2547 42.2143 29.2689 42.219 29.2831C42.2237 29.2974 42.2285 29.3116 42.2337 29.3258C42.3892 29.7378 42.5447 30.1519 42.7001 30.5659C42.7107 30.5944 42.7212 30.6207 42.7338 30.6492C42.7353 30.6537 42.7405 30.6583 42.7456 30.6629C42.7473 30.6644 42.749 30.6659 42.7506 30.6674C42.7758 30.6857 42.8304 30.6735 42.843 30.6451C42.8533 30.6237 42.8616 30.6014 42.87 30.5787C42.8735 30.5691 42.8771 30.5594 42.8808 30.5497C42.9302 30.4168 42.9791 30.2838 43.0279 30.1509C43.0768 30.0179 43.1256 29.885 43.175 29.752C43.2044 29.6739 43.2332 29.5953 43.2621 29.5167C43.291 29.438 43.3199 29.3593 43.3494 29.2811Z" fill="#898D9A"/>
</svg>
