<svg width="48" height="42" viewBox="0 0 48 42" fill="none" xmlns="http://www.w3.org/2000/svg">
<path d="M18.4179 30.3341C16.8316 30.2488 15.6478 29.5961 14.9555 28.4249C14.4911 27.6387 14.3497 26.6047 14.5622 25.5481C14.7977 24.3774 15.5971 23.3224 16.8241 22.5637C17.5292 22.1273 18.1327 21.8565 19.3615 21.4246C19.6705 21.316 19.9371 21.216 19.9543 21.2021C19.9789 21.1826 19.9824 21.1133 19.9701 20.8885C19.9348 20.249 20.0415 19.2526 20.2221 18.5336C20.5259 17.3236 21.1106 16.3475 21.8866 15.7554C22.4436 15.3299 23.1738 15.0101 23.9007 14.8729C24.3022 14.7974 24.9745 14.7976 25.3522 14.8736C26.9709 15.1995 27.8794 16.4472 27.5216 17.8529C27.4463 18.1493 27.2082 18.6352 27.0067 18.9039C26.4904 19.5925 25.7137 20.2048 24.6169 20.7874C24.4791 20.8608 24.0276 21.0826 23.614 21.2807C23.2005 21.4785 22.8492 21.6535 22.833 21.6698C22.8099 21.6928 22.8158 21.76 22.8604 21.986C23.0661 23.0307 23.412 23.9134 24.0027 24.9004C24.2375 25.2933 24.5623 25.7887 24.5992 25.8117C24.6527 25.8447 24.8712 25.4916 25.0137 25.1422C25.1899 24.7098 25.2908 24.1379 25.2411 23.8539C25.2053 23.6504 25.0942 23.4356 24.9524 23.2969C24.8873 23.2327 24.8333 23.172 24.8331 23.162C24.8329 23.1523 25.3834 23.1467 26.0568 23.1502L27.2812 23.1565L27.2743 23.3117C27.2647 23.524 27.1859 23.9766 27.1029 24.2988C26.8688 25.2047 26.4276 25.9795 25.6649 26.8257C25.5749 26.9255 25.5012 27.0233 25.5012 27.0433C25.5012 27.0633 25.6277 27.2021 25.782 27.3518C26.7461 28.2863 28.4538 29.364 29.8442 29.9152C29.9793 29.9689 30.0894 30.0236 30.089 30.0366C30.0885 30.0524 29.2858 30.0626 27.7431 30.0668L25.398 30.0728L25.2646 29.9978C24.9921 29.8446 24.3889 29.3571 23.8093 28.8215C23.6866 28.708 23.5703 28.6153 23.551 28.6153C23.5318 28.6153 23.3953 28.6945 23.2484 28.7915C22.4954 29.288 21.5955 29.7341 20.8344 29.988C19.9687 30.277 19.2541 30.3792 18.4179 30.3344V30.3341ZM20.3925 28.3024C20.7435 28.2398 21.1748 28.1124 21.5714 27.9541C21.97 27.7951 22.4643 27.552 22.4819 27.5059C22.4889 27.4878 22.3975 27.3351 22.2792 27.1663C21.7336 26.3889 21.1508 25.2956 20.7591 24.3151C20.6147 23.9536 20.3451 23.153 20.2935 22.9335C20.2772 22.8635 20.2477 22.8001 20.2279 22.7924C20.1733 22.7715 19.7253 23.0102 19.3383 23.2669C17.9625 24.1788 17.303 25.2921 17.4495 26.4554C17.5145 26.9724 17.6782 27.3492 17.976 27.6675C18.5265 28.2556 19.3871 28.4818 20.3925 28.3024ZM22.7276 20.2134C23.2368 19.9154 24.0443 19.1917 24.496 18.6291C25.0742 17.9092 25.3815 17.2373 25.3817 16.6924C25.3817 16.3809 25.3376 16.2415 25.1934 16.0973C25.05 15.9541 24.8882 15.8948 24.6411 15.8946C23.9079 15.8946 23.1149 16.765 22.7695 17.9492C22.5951 18.5461 22.5528 18.8674 22.5517 19.5967C22.5507 20.1537 22.5598 20.2776 22.6016 20.2776C22.6107 20.2776 22.6674 20.2487 22.7276 20.2134ZM34.8539 30.3202C33.6457 30.1986 32.8495 30.018 31.9513 29.6623C30.729 29.1778 29.9658 28.5778 29.3211 27.5947C29.1282 27.3004 28.8185 26.6825 28.6935 26.341C28.1344 24.8195 28.0116 22.904 28.3448 20.9057C28.6821 18.8832 29.4504 16.934 30.5104 15.4104C31.1981 14.4224 32.2212 13.3819 33.2773 12.5961C35.0213 11.2989 37.0286 10.5016 39.2587 10.2212C39.9352 10.1361 40.3141 10.1143 41.1131 10.1148C42.3217 10.1155 43.2423 10.2075 44.4578 10.449C45.2334 10.6034 46.4687 10.9368 46.4924 10.9984C46.5045 11.0295 45.7218 13.5381 45.6895 13.5718C45.6795 13.5822 45.5593 13.502 45.4228 13.3928C44.3235 12.5164 43.1842 11.9829 42.032 11.8055C41.664 11.7488 40.9724 11.7481 40.6117 11.8041C38.9965 12.0542 37.4989 13.0862 36.1694 14.8652C35.7375 15.4432 35.2616 16.2177 34.8915 16.9449C34.3901 17.9306 34.0454 18.8019 33.6967 19.967C32.5859 23.6739 32.5297 26.2639 33.5293 27.6659C33.941 28.2436 34.5428 28.6115 35.3065 28.7522C35.7449 28.8331 36.8092 28.784 36.9152 28.6783C36.9321 28.6615 37.4517 27.0359 38.0696 25.0657C39.085 21.8295 39.1948 21.4645 39.2064 21.2811C39.2217 21.0347 39.1759 20.8146 39.065 20.6026C38.9644 20.4098 38.6984 20.1483 38.4792 20.0267C38.3846 19.9742 38.307 19.9231 38.3067 19.9133C38.3065 19.9035 40.01 19.8954 42.0927 19.8954C44.1752 19.8954 45.8792 19.9035 45.8789 19.9133C45.8789 19.9231 45.7866 19.9735 45.6739 20.0249C45.0843 20.2945 44.6571 20.6986 44.403 21.2272C44.3479 21.3416 43.8713 22.8219 43.1556 25.1015L41.9972 28.7908L41.6624 28.9512C40.299 29.6056 38.631 30.0768 36.9673 30.2779C36.6616 30.3151 35.1098 30.346 34.8541 30.3202H34.8539ZM0.000160884 30.0505C-0.00751057 30.0384 0.042935 29.9959 0.111978 29.9561C0.523447 29.7193 0.985361 29.2278 1.1811 28.8182C1.23782 28.6997 6.43186 12.1572 6.54646 11.7297C6.56669 11.6549 6.58366 11.4968 6.58389 11.3787C6.58552 11.0179 6.47347 10.7578 6.20962 10.5081C6.13755 10.44 6.07874 10.3742 6.07874 10.3619C6.07874 10.3291 15.1485 10.3319 15.5644 10.3649C16.465 10.4363 17.3665 10.6757 18.056 11.0263C19.2332 11.6249 19.938 12.5334 20.1547 13.7313C20.2151 14.0646 20.2268 14.8062 20.1772 15.1651C19.9755 16.6283 19.3125 18.1802 18.4098 19.3031C16.9476 21.1219 14.5562 22.2849 11.6212 22.6048C10.6909 22.7062 9.51857 22.7317 8.68843 22.6685C8.44852 22.6501 8.2472 22.6401 8.24116 22.6462C8.21163 22.6759 6.3391 28.6841 6.31772 28.8182C6.2517 29.2318 6.46464 29.6967 6.8317 29.9403C6.90423 29.9885 6.95724 30.038 6.9498 30.0501C6.9312 30.08 0.0185259 30.0803 -7.1584e-05 30.0503L0.000160884 30.0505ZM10.2952 21.1268C10.9771 21.0059 11.5787 20.7534 12.1592 20.345C12.4412 20.1467 13.0205 19.5681 13.2594 19.2461C13.8574 18.4411 14.2972 17.4912 14.6519 16.2401C14.8779 15.4427 14.9741 14.8353 14.9739 14.2092C14.9739 13.7266 14.9302 13.4384 14.8088 13.115C14.6287 12.6352 14.2619 12.256 13.7958 12.0677C13.3954 11.9059 13.0537 11.8634 12.2317 11.8729L11.6119 11.8799L10.1713 16.4669C9.37932 18.9899 8.73539 21.0663 8.74073 21.0812C8.74631 21.0961 8.84581 21.1212 8.96158 21.137C9.07781 21.1528 9.1887 21.1695 9.20846 21.1744C9.29866 21.1965 10.1016 21.1614 10.2952 21.127V21.1268Z" fill="#898D9A"/>
</svg>
