<svg width="145" height="48" viewBox="0 0 145 48" fill="none" xmlns="http://www.w3.org/2000/svg">
<path d="M0.500488 12.8835C0.500488 12.8835 4.06667 27.4967 4.63582 29.8687C5.30012 32.6372 6.49707 33.6561 9.94809 32.9689L12.1749 23.9088C12.7393 21.6584 13.1178 20.0539 13.4806 17.7647H13.5445C13.7994 20.0764 14.1624 21.6651 14.6268 23.9167C14.6268 23.9167 15.5333 28.0298 15.9975 30.1901C16.4629 32.3496 17.7582 33.7107 21.1385 32.9697L26.4444 12.8851H22.1605L20.3491 21.5686C19.8621 24.0962 19.4201 26.0713 19.0794 28.3836H19.019C18.7093 26.0943 18.3155 24.1975 17.8203 21.7349L15.9342 12.8851H11.4707L9.45325 21.5119C8.88167 24.1333 8.34708 26.2502 8.00713 28.4842H7.94556C7.59742 26.3803 7.13372 23.7199 6.63159 21.1823C6.63159 21.1823 5.43295 15.0119 5.0124 12.8851L0.500905 12.8856L0.500488 12.8835ZM41.3387 12.8835V32.9682H45.4173V28.7033V12.8826H41.3387V12.8835ZM98.7824 12.8835V27.7003C98.7824 29.7432 99.1668 31.1744 99.9894 32.0488C100.708 32.8135 101.892 33.3087 103.31 33.3087C104.516 33.3087 105.702 33.08 106.261 32.8717L106.209 29.6844C105.793 29.7868 105.314 29.8687 104.659 29.8687C103.27 29.8687 102.804 28.9789 102.804 27.1447V21.4758H106.356V17.633H102.804V12.8836H98.7822L98.7824 12.8835ZM32.2238 17.5396C29.689 17.5396 27.6769 18.2513 26.5801 18.8851L27.3828 21.6336C28.3866 21.0008 29.9848 20.4769 31.4981 20.4769C34.0037 20.4705 34.4133 21.8936 34.4133 22.8064V23.0222C28.9538 23.014 25.5052 24.9032 25.5052 28.7541C25.5052 31.1053 27.2607 33.3087 30.3133 33.3087C32.1924 33.3087 33.764 32.5592 34.7058 31.3584H34.7982C34.7982 31.3584 35.4219 33.9662 38.858 32.969C38.6775 31.8836 38.6188 30.7264 38.6188 29.3327V23.9671C38.6188 20.5474 37.1587 17.5396 32.2238 17.5396L32.2238 17.5396ZM56.6218 17.5396C54.0695 17.5396 52.9226 18.833 52.2271 19.9304H52.1667V17.8802H48.2743V32.9691H52.3747V24.1201C52.3747 23.7052 52.4221 23.2666 52.5669 22.8849C52.9066 21.994 53.7355 20.9518 55.0589 20.9518C56.7134 20.9518 57.4876 22.3506 57.4876 24.3692V32.969H61.5835V24.0129C61.5835 23.6169 61.6378 23.1399 61.7543 22.7897C62.0911 21.7763 62.9847 20.9517 64.2149 20.9517C65.8922 20.9517 66.6972 22.3261 66.6972 24.7014V32.969H70.796V24.0821C70.796 19.3953 68.4162 17.5397 65.7298 17.5397C64.54 17.5397 63.601 17.838 62.7519 18.3592C62.0383 18.7971 61.3995 19.4193 60.8411 20.2386H60.7806C60.1309 18.6124 58.6066 17.5397 56.6211 17.5397L56.6218 17.5396ZM79.1379 17.5396C76.6037 17.5396 74.592 18.2513 73.4943 18.8851L74.298 21.6336C75.3008 21.0008 76.9001 20.4769 78.4126 20.4769C80.9164 20.4705 81.327 21.8936 81.327 22.8064V23.0222C75.8682 23.014 72.4193 24.9032 72.4193 28.7541C72.4193 31.1053 74.1757 33.3087 77.2299 33.3087C79.1075 33.3087 80.6796 32.5592 81.6197 31.3584H81.7125C81.7125 31.3584 82.3361 33.9662 85.7726 32.969C85.5919 31.8836 85.5339 30.7264 85.5339 29.3327V23.9671C85.5339 20.5474 84.0734 17.5396 79.1379 17.5396L79.1379 17.5396ZM96.1656 17.5396C94.5954 17.5396 92.8091 18.5531 92.0592 20.7257H91.9447V17.88H88.2536V32.9689H92.4614V25.2424C92.4614 24.8256 92.4867 24.4622 92.5526 24.1289C92.8638 22.5104 94.1018 21.4758 95.8786 21.4758C96.3663 21.4758 96.7154 21.5286 97.0931 21.5831V17.6329C96.7764 17.5689 96.5598 17.5394 96.1658 17.5394L96.1656 17.5396ZM34.545 25.6961V27.5784C34.545 27.8569 34.5208 28.1442 34.4436 28.3953C34.128 29.4408 33.045 30.3242 31.6911 30.3242C30.5624 30.3242 29.6657 29.6836 29.6657 28.3285C29.6657 26.2556 31.9475 25.6826 34.5451 25.6961H34.545ZM81.4591 25.6961V27.5784C81.4591 27.8569 81.4344 28.1442 81.3578 28.3953C81.0421 29.4408 79.9595 30.3242 78.6056 30.3242C77.4766 30.3242 76.5798 29.6836 76.5798 28.3285C76.5798 26.2556 78.8616 25.6826 81.4592 25.6961H81.4591Z" fill="#898D9A"/>
<path d="M128.408 5.62012C127.092 5.62012 126.045 6.35543 126.045 7.2506L126.845 16.3055C126.933 16.851 127.601 17.2718 128.409 17.2718C129.219 17.2708 129.884 16.8503 129.975 16.3055L130.778 7.2506C130.778 6.35551 129.729 5.62019 128.41 5.62019L128.408 5.62012ZM115.377 12.8835C114.693 12.8997 113.917 13.4173 113.423 14.2737C112.762 15.4141 112.879 16.6886 113.652 17.1357L121.893 20.9733C122.408 21.1648 123.107 20.7992 123.512 20.1012C123.512 20.1011 123.512 20.1009 123.512 20.1008C123.918 19.3994 123.887 18.6107 123.459 18.2609L116.016 13.0406C115.823 12.9286 115.605 12.8782 115.377 12.8836L115.377 12.8835ZM141.44 12.8835C141.212 12.8781 140.995 12.9285 140.802 13.0404L133.358 18.2607C132.933 18.6106 132.901 19.3993 133.306 20.1007L133.306 20.1011C133.712 20.7991 134.409 21.1647 134.924 20.9732L143.169 17.1358C143.945 16.6887 144.056 15.4143 143.4 14.2738C142.904 13.4174 142.126 12.8998 141.442 12.8836L141.44 12.8835ZM122.201 24.8302C122.094 24.8287 121.991 24.8452 121.894 24.8816L113.653 28.7146C112.88 29.1637 112.763 30.4386 113.424 31.5802C114.082 32.7184 115.243 33.2595 116.017 32.8132L123.46 27.5969C123.888 27.2428 123.92 26.4543 123.513 25.7536L123.516 25.7551C123.187 25.1843 122.663 24.8363 122.201 24.83L122.201 24.8302ZM134.62 24.8302C134.158 24.8364 133.635 25.1844 133.305 25.7552L133.308 25.7537C132.903 26.4544 132.934 27.2429 133.36 27.597L140.804 32.8133C141.576 33.2596 142.738 32.7186 143.399 31.5804C144.055 30.4387 143.944 29.1638 143.168 28.7148L134.926 24.8817C134.829 24.8453 134.726 24.8288 134.62 24.8303L134.62 24.8302ZM128.407 28.5829C127.601 28.5838 126.934 29.0028 126.846 29.547L126.046 38.6015C126.046 39.4981 127.093 40.2319 128.409 40.2319C129.729 40.2319 130.777 39.4981 130.777 38.6015L129.976 29.547C129.886 29.0028 129.22 28.5839 128.41 28.5829H128.407H128.407Z" fill="#898D9A"/>
</svg>
