<svg width="55" height="48" viewBox="0 0 55 48" fill="none" xmlns="http://www.w3.org/2000/svg">
<path d="M21.5347 34.6426C19.723 34.5452 18.3711 33.7997 17.5805 32.4621C17.05 31.5643 16.8886 30.3834 17.1312 29.1767C17.4002 27.8397 18.3132 26.6349 19.7145 25.7683C20.5197 25.27 21.2089 24.9607 22.6123 24.4674C22.9651 24.3434 23.2697 24.2293 23.2893 24.2133C23.3174 24.191 23.3214 24.1119 23.3074 23.8552C23.267 23.1248 23.3889 21.9869 23.5951 21.1658C23.9421 19.7839 24.6098 18.6691 25.4961 17.9929C26.1322 17.5071 26.9661 17.1417 27.7963 16.9851C28.2548 16.8988 29.0226 16.8991 29.454 16.9859C31.3026 17.3581 32.3401 18.783 31.9316 20.3884C31.8455 20.7269 31.5737 21.2818 31.3435 21.5887C30.7538 22.3751 29.8668 23.0744 28.6142 23.7397C28.4568 23.8236 27.9412 24.0769 27.4689 24.3031C26.9966 24.529 26.5955 24.7289 26.5769 24.7475C26.5506 24.7738 26.5572 24.8505 26.6082 25.1086C26.8432 26.3017 27.2382 27.3098 27.9128 28.437C28.181 28.8857 28.5519 29.4515 28.5941 29.4778C28.6551 29.5155 28.9047 29.1122 29.0674 28.7131C29.2687 28.2193 29.3839 27.5662 29.3271 27.2418C29.2862 27.0095 29.1593 26.7642 28.9973 26.6057C28.923 26.5324 28.8614 26.4631 28.8612 26.4517C28.8609 26.4405 29.4896 26.4342 30.2587 26.4382L31.657 26.4453L31.6491 26.6227C31.6382 26.8651 31.5482 27.382 31.4534 27.7499C31.1861 28.7846 30.6822 29.6694 29.8111 30.6358C29.7083 30.7497 29.6242 30.8615 29.6242 30.8843C29.6242 30.9072 29.7686 31.0657 29.9449 31.2366C31.0459 32.3039 32.9962 33.5347 34.5841 34.1642C34.7383 34.2255 34.8642 34.2879 34.8636 34.3028C34.8631 34.3208 33.9464 34.3325 32.1846 34.3373L29.5063 34.3442L29.3539 34.2585C29.0427 34.0835 28.3538 33.5268 27.6919 32.9151C27.5518 32.7855 27.419 32.6796 27.397 32.6796C27.3749 32.6796 27.2191 32.7701 27.0513 32.8808C26.1914 33.4479 25.1637 33.9574 24.2944 34.2473C23.3058 34.5773 22.4896 34.6941 21.5347 34.6429V34.6426ZM23.7897 32.3222C24.1906 32.2508 24.6831 32.1053 25.1361 31.9245C25.5914 31.7429 26.1558 31.4652 26.176 31.4127C26.1839 31.3919 26.0796 31.2175 25.9445 31.0248C25.3214 30.137 24.6558 28.8884 24.2084 27.7685C24.0436 27.3557 23.7356 26.4413 23.6767 26.1907C23.6581 26.1108 23.6243 26.0383 23.6018 26.0296C23.5394 26.0057 23.0278 26.2783 22.5857 26.5714C21.0146 27.613 20.2614 28.8844 20.4286 30.2129C20.503 30.8034 20.6899 31.2337 21.03 31.5972C21.6587 32.2689 22.6415 32.5272 23.7897 32.3222ZM26.4566 23.0842C27.038 22.7439 27.9603 21.9174 28.4762 21.2749C29.1365 20.4527 29.4874 19.6854 29.4877 19.0631C29.4877 18.7073 29.4373 18.548 29.2727 18.3834C29.1089 18.2199 28.9241 18.1522 28.6419 18.1519C27.8045 18.1519 26.8989 19.1459 26.5044 20.4983C26.3053 21.1801 26.257 21.547 26.2556 22.3799C26.2546 23.016 26.2649 23.1575 26.3127 23.1575C26.3231 23.1575 26.3878 23.1246 26.4566 23.0842ZM40.3054 34.6267C38.9256 34.4878 38.0163 34.2815 36.9905 33.8753C35.5945 33.3221 34.7229 32.6368 33.9867 31.5141C33.7664 31.178 33.4127 30.4723 33.2699 30.0823C32.6314 28.3446 32.4912 26.157 32.8717 23.8748C33.2569 21.5651 34.1343 19.3389 35.345 17.5989C36.1303 16.4706 37.2987 15.2822 38.5048 14.3849C40.4965 12.9034 42.7891 11.9928 45.3359 11.6726C46.1085 11.5755 46.5412 11.5505 47.4537 11.551C48.834 11.5518 49.8854 11.657 51.2736 11.9328C52.1593 12.1091 53.5701 12.4898 53.5972 12.5602C53.611 12.5957 52.7171 15.4606 52.6802 15.4991C52.6688 15.5111 52.5315 15.4195 52.3757 15.2947C51.1202 14.2938 49.819 13.6845 48.5032 13.4819C48.0829 13.4172 47.2931 13.4164 46.8811 13.4804C45.0364 13.766 43.3261 14.9445 41.8078 16.9763C41.3145 17.6363 40.7711 18.521 40.3484 19.3514C39.7757 20.4771 39.382 21.4722 38.9838 22.8028C37.7153 27.0363 37.651 29.9941 38.7926 31.5953C39.2628 32.2551 39.9502 32.6753 40.8223 32.836C41.323 32.9283 42.5384 32.8723 42.6595 32.7515C42.6789 32.7324 43.2723 30.8758 43.9779 28.6258C45.1376 24.9299 45.2629 24.5131 45.2762 24.3036C45.2937 24.0222 45.2414 23.7708 45.1148 23.5286C44.9998 23.3086 44.6961 23.0099 44.4457 22.871C44.3377 22.811 44.249 22.7526 44.2487 22.7415C44.2485 22.7303 46.194 22.721 48.5725 22.721C50.9508 22.721 52.8968 22.7303 52.8966 22.7415C52.8966 22.7526 52.7912 22.8102 52.6624 22.8689C51.9891 23.1769 51.5011 23.6383 51.211 24.242C51.148 24.3726 50.6038 26.0633 49.7863 28.6667L48.4634 32.88L48.0811 33.0632C46.524 33.8106 44.6191 34.3487 42.719 34.5784C42.3699 34.6208 40.5977 34.6562 40.3057 34.6267H40.3054ZM0.500637 34.3187C0.491875 34.3049 0.549487 34.2563 0.628338 34.2109C1.09826 33.9404 1.62579 33.3791 1.84933 32.9114C1.91411 32.776 7.84597 13.8836 7.97685 13.3954C7.99995 13.3099 8.01933 13.1294 8.0196 12.9945C8.02146 12.5825 7.89349 12.2854 7.59216 12.0002C7.50986 11.9225 7.44269 11.8473 7.44269 11.8333C7.44269 11.7958 17.8008 11.799 18.2758 11.8367C19.3043 11.9182 20.3339 12.1917 21.1213 12.592C22.4657 13.2757 23.2707 14.3132 23.5182 15.6813C23.5872 16.062 23.6005 16.9089 23.5439 17.3188C23.3135 18.9898 22.5563 20.7622 21.5254 22.0446C19.8554 24.1218 17.1243 25.45 13.7725 25.8153C12.71 25.9311 11.3712 25.9603 10.4231 25.8881C10.1491 25.8671 9.91918 25.8557 9.91228 25.8626C9.87856 25.8966 7.74004 32.7582 7.71561 32.9114C7.64021 33.3837 7.8834 33.9146 8.30261 34.1929C8.38545 34.2478 8.44598 34.3044 8.43748 34.3182C8.41624 34.3524 0.52161 34.3527 0.500371 34.3185L0.500637 34.3187ZM12.2582 24.1273C13.0368 23.9893 13.7239 23.7009 14.3869 23.2345C14.7089 23.008 15.3705 22.3472 15.6434 21.9795C16.3263 21.0601 16.8286 19.9753 17.2337 18.5464C17.4918 17.6358 17.6017 16.9421 17.6014 16.2271C17.6014 15.676 17.5515 15.3468 17.4129 14.9775C17.2072 14.4295 16.7882 13.9965 16.2559 13.7814C15.7987 13.5966 15.4085 13.5481 14.4697 13.5589L13.7619 13.5669L12.1167 18.8056C11.2121 21.6869 10.4767 24.0583 10.4828 24.0753C10.4892 24.0923 10.6028 24.121 10.735 24.139C10.8678 24.1571 10.9944 24.1762 11.017 24.1818C11.12 24.207 12.037 24.1669 12.2582 24.1276V24.1273Z" fill="#898D9A"/>
</svg>
