<svg width="63" height="48" viewBox="0 0 63 48" fill="none" xmlns="http://www.w3.org/2000/svg">
<path fill-rule="evenodd" clip-rule="evenodd" d="M12.5657 10.782C12.5676 10.7894 12.5702 10.7968 12.5729 10.8043C12.5768 10.8154 12.5808 10.8265 12.5822 10.8377C12.5846 10.8725 12.5846 10.9049 12.5846 10.9397V12.3176L12.5846 12.3377C12.5848 12.4138 12.5848 12.4508 12.5664 12.4689C12.549 12.4859 12.5151 12.4862 12.4493 12.4866L12.4141 12.487H11.6941H0.749525C0.712977 12.487 0.681772 12.4876 0.655137 12.4881H0.655129H0.655122H0.655116H0.65511H0.655106H0.655101H0.655098H0.655095H0.655092H0.65509H0.655087H0.655086H0.655084C0.575982 12.4897 0.537214 12.4905 0.518551 12.4715C0.500613 12.4533 0.50125 12.4168 0.502499 12.3452C0.502971 12.3181 0.503531 12.286 0.503208 12.248V10.782H12.5657ZM53.8212 21.3273L53.8104 21.3288C53.8012 21.33 53.7939 21.3309 53.7904 21.3343C53.7786 21.3552 53.7667 21.3761 53.7573 21.3992C53.7097 21.5276 53.6631 21.656 53.6162 21.7849L53.5818 21.8795L53.5251 22.0348C53.5109 22.0766 53.4944 22.116 53.4754 22.1578C53.4618 22.1591 53.4497 22.1612 53.4383 22.1632C53.4299 22.1647 53.4219 22.1661 53.4138 22.1671C53.3838 22.1686 53.3538 22.1681 53.3238 22.1676L53.3075 22.1673L53.2788 22.1671H44.0988L44.0809 22.1672L44.0577 22.1677L44.0576 22.1677C44.0065 22.1689 43.9539 22.1701 43.8998 22.1555C43.8832 22.116 43.8667 22.0743 43.8524 22.0348C43.7743 21.8284 43.6985 21.6219 43.6227 21.4155C43.6168 21.398 43.6089 21.3815 43.601 21.3647C43.5963 21.3547 43.5916 21.3447 43.5872 21.3343C43.5848 21.332 43.5801 21.3297 43.5753 21.3297C43.5659 21.3273 43.5564 21.3343 43.5564 21.3459L43.556 21.352V21.3521V21.3522V21.3522V21.3523V21.3523V21.3524V21.3524C43.5537 21.3848 43.5516 21.4153 43.5516 21.448V21.9908C43.5516 22.0302 43.5516 22.0696 43.5493 22.1091C43.5493 22.1439 43.5303 22.1647 43.4972 22.1671C43.4916 22.1671 43.4858 22.1673 43.4799 22.1676L43.4676 22.1682C43.4575 22.1688 43.4474 22.1694 43.438 22.1694H43.3338H38.5329C38.4785 22.1694 38.424 22.1694 38.3671 22.1671C38.334 22.1671 38.315 22.1462 38.315 22.1091C38.315 22.0914 38.3144 22.0737 38.3138 22.0563C38.3132 22.0395 38.3127 22.023 38.3127 22.007V20.6268C38.3127 20.6071 38.3133 20.5874 38.3138 20.5676C38.3144 20.5479 38.315 20.5282 38.315 20.5085C38.315 20.4899 38.334 20.4691 38.3506 20.4691C38.3695 20.4667 38.3908 20.4644 38.4098 20.4644H38.5448H47.9641C48.0014 20.4644 48.0324 20.4637 48.0583 20.4632C48.1279 20.4616 48.1609 20.4609 48.1818 20.4764C48.2006 20.4904 48.2097 20.5176 48.2268 20.5693L48.2268 20.5693C48.2357 20.5961 48.2468 20.6294 48.2625 20.6709C48.3539 20.9138 48.443 21.1579 48.5322 21.4023L48.5324 21.403L48.5328 21.4039L48.5332 21.405L48.5335 21.4059L48.5338 21.4066L48.5341 21.4075L48.5343 21.408L48.5345 21.4086L48.5346 21.4089L48.5347 21.4093L48.5349 21.4096L48.535 21.41L48.5351 21.4103L48.5352 21.4106L48.5354 21.411L48.5355 21.4113L48.5356 21.4117L48.5357 21.412L48.5359 21.4124L48.536 21.4127L48.5361 21.413L48.5363 21.4134L48.5364 21.4138L48.5365 21.414L48.5365 21.4141L48.5366 21.4143L48.5366 21.4144L48.5367 21.4146L48.5368 21.4147L48.5368 21.4149L48.5369 21.415L48.5369 21.4152L48.537 21.4154L48.5371 21.4158L48.5373 21.4162L48.539 21.4209L48.5402 21.424L48.5413 21.4271L48.5424 21.4302L48.5435 21.4332C48.58 21.5332 48.6165 21.6332 48.6533 21.7333C48.6575 21.7443 48.6615 21.7554 48.6655 21.7664L48.6655 21.7664C48.675 21.7923 48.6843 21.8179 48.6959 21.8423C48.699 21.8484 48.7083 21.8525 48.719 21.8572C48.7245 21.8597 48.7305 21.8623 48.7362 21.8655C48.7821 21.7555 48.8207 21.6455 48.8591 21.5363L48.8591 21.5363L48.8591 21.5362L48.8591 21.5362L48.8591 21.5361L48.8591 21.5361C48.8741 21.4934 48.889 21.4509 48.9043 21.4085C48.9327 21.3308 48.9612 21.2525 48.9896 21.1742C49.018 21.0959 49.0464 21.0177 49.0749 20.9399L49.1325 20.7799C49.168 20.6811 49.2038 20.5814 49.2406 20.4806C49.25 20.479 49.2591 20.4767 49.268 20.4745L49.268 20.4745C49.2838 20.4705 49.2989 20.4667 49.3141 20.4667C49.3591 20.4644 49.4041 20.4644 49.4491 20.4644H58.8091C58.8313 20.4644 58.8513 20.4642 58.8692 20.464C58.9507 20.4633 58.9908 20.4629 59.0102 20.4827C59.0289 20.5018 59.0284 20.5397 59.0275 20.614V20.6141C59.0273 20.6323 59.027 20.6527 59.027 20.6755V21.9954C59.027 22.0395 59.0247 22.0836 59.0223 22.1276C59.0223 22.1462 59.0033 22.1647 58.9844 22.1671C58.9702 22.1694 58.9536 22.1694 58.9394 22.1694H58.8352H54.0202H53.9609L53.9476 22.1694C53.8839 22.1695 53.8523 22.1695 53.8366 22.1537C53.8211 22.1381 53.8211 22.1071 53.8212 22.0456L53.8212 22.0325V21.4456C53.8258 21.4076 53.8237 21.3717 53.8215 21.3317L53.8212 21.3273ZM32.6403 31.8518H32.7967C32.8843 31.7753 32.9388 31.6871 32.9861 31.5967C33.0501 31.4784 33.1022 31.3577 33.1472 31.2325C33.2632 30.9193 33.3414 30.5946 33.4101 30.2698C33.4132 30.2546 33.4143 30.2383 33.4153 30.2224V30.2223L33.4153 30.2222L33.4153 30.222L33.4153 30.2219C33.4159 30.2137 33.4164 30.2057 33.4172 30.1979C33.4196 30.1793 33.4006 30.1561 33.384 30.1561L33.3775 30.1559C33.3088 30.1537 33.2421 30.1515 33.1732 30.1515H14.5265H14.4365L14.4173 30.1515C14.342 30.1514 14.3047 30.1513 14.2862 30.17C14.268 30.1883 14.2681 30.2249 14.2683 30.2974L14.2684 30.3232V31.6732L14.2683 31.7043C14.268 31.7799 14.2679 31.8172 14.2864 31.8354C14.3044 31.853 14.3401 31.8527 14.4102 31.8521H14.4103L14.4578 31.8518H32.6403ZM23.8324 15.7136H14.5007C14.4711 15.7136 14.4409 15.713 14.4107 15.7124L14.4106 15.7124C14.3805 15.7118 14.3503 15.7112 14.3207 15.7112C14.2947 15.7112 14.2733 15.6904 14.271 15.6649C14.2686 15.6417 14.2662 15.6161 14.2662 15.5906V14.1223C14.2662 14.0991 14.2686 14.0735 14.271 14.0503C14.2733 14.0318 14.2923 14.0156 14.3112 14.0132C14.3255 14.0109 14.342 14.0109 14.3562 14.0109H14.4912H32.5837H32.688L32.7025 14.0109C32.7429 14.0108 32.7649 14.0107 32.7835 14.0187C32.8057 14.0281 32.8231 14.0489 32.8614 14.0946L32.8632 14.0967C32.9295 14.1756 32.9793 14.2661 33.0266 14.3589C33.1095 14.5259 33.1711 14.7022 33.2256 14.8808C33.299 15.1151 33.3535 15.354 33.4056 15.5929C33.4099 15.6142 33.4123 15.6374 33.4145 15.659V15.659L33.4151 15.6649C33.4174 15.6904 33.4009 15.7112 33.3701 15.7112C33.3109 15.7136 33.2493 15.7136 33.1901 15.7136H27.07H23.8324ZM31.2154 33.3759H22.8595C20.4295 33.3759 17.9995 33.3759 15.5671 33.3736H14.4729C14.4232 33.3736 14.3734 33.3759 14.3237 33.3783C14.2976 33.3806 14.2763 33.3991 14.2739 33.4246L14.2739 33.4247C14.2716 33.4688 14.2692 33.5128 14.2692 33.5569V34.4384V34.9232C14.2692 34.958 14.2716 34.9928 14.2787 35.0252C14.2811 35.0368 14.2953 35.0508 14.3071 35.0531C14.345 35.0577 14.3853 35.06 14.4255 35.06C14.7261 35.0624 15.0243 35.0624 15.3248 35.0624H15.3255C15.9369 35.0624 16.5476 35.0629 17.1581 35.0635H17.159H17.1599H17.1608H17.1617H17.1625H17.1634H17.1643H17.1652H17.1661H17.167H17.1679H17.1688H17.1696H17.1705H17.1714H17.1723H17.1732H17.1741H17.175H17.1759H17.1767H17.1776H17.1785H17.1794H17.1803H17.1812H17.1821H17.1829H17.1838H17.1847H17.1856H17.1865C17.7869 35.0641 18.387 35.0647 18.9871 35.0647C19.6977 35.0647 20.4076 35.0653 21.1176 35.0658C21.8275 35.0664 22.5374 35.067 23.248 35.067H26.533C26.5526 35.067 26.5724 35.0667 26.5923 35.0665L26.5925 35.0665C26.6328 35.066 26.6734 35.0654 26.713 35.067C27.028 35.074 27.343 35.0716 27.658 35.0577C27.7977 35.0508 27.9375 35.0368 28.0748 35.016C28.3519 34.9742 28.6243 34.9162 28.892 34.8327C29.7896 34.5543 30.5925 34.1066 31.3101 33.5128C31.3457 33.485 31.3788 33.4525 31.4096 33.4223C31.4143 33.4177 31.4167 33.4038 31.4143 33.3968C31.412 33.3899 31.4025 33.3806 31.3954 33.3806C31.3362 33.3783 31.2746 33.3759 31.2154 33.3759ZM22.852 12.487H14.4962C14.437 12.487 14.3754 12.4847 14.3162 12.4824C14.2972 12.4824 14.2783 12.4638 14.2759 12.4453C14.2751 12.4333 14.274 12.4217 14.2729 12.4101C14.2708 12.3879 14.2688 12.3661 14.2688 12.3432V10.9491V10.8911C14.2712 10.8284 14.2854 10.8168 14.3493 10.8145H14.4535H15.7443H23.321H27.2976H27.5226C27.7689 10.8145 28.0105 10.847 28.2521 10.8911C28.9579 11.0163 29.6139 11.2738 30.2321 11.6218C30.611 11.8352 30.9663 12.0764 31.2979 12.3548C31.331 12.3826 31.3666 12.4128 31.3973 12.443C31.4021 12.4476 31.4044 12.4592 31.4044 12.4685C31.4044 12.4801 31.3973 12.4847 31.3855 12.4847C31.331 12.487 31.2766 12.487 31.2197 12.487H22.852ZM30.8836 22.1693H31.028C31.0399 22.161 31.0506 22.1551 31.06 22.1498L31.0707 22.1438C31.3833 21.8956 31.6746 21.6288 31.9422 21.3365C32.0891 21.1765 32.2265 21.0071 32.3449 20.8262C32.4041 20.7357 32.4609 20.6429 32.5059 20.5455C32.5296 20.4922 32.5178 20.469 32.4633 20.4666C32.4136 20.4643 32.3638 20.4643 32.3141 20.4643H29.2541H17.9708H17.8216C17.8074 20.4643 17.7908 20.4666 17.7766 20.469C17.7577 20.4713 17.7387 20.4898 17.7387 20.5084L17.7387 20.5085C17.7363 20.5525 17.734 20.5966 17.734 20.6406V21.9907L17.7337 22.0374C17.7331 22.1049 17.7328 22.1385 17.7494 22.1549C17.7658 22.1711 17.7986 22.1706 17.8638 22.1698C17.8806 22.1695 17.8996 22.1693 17.9211 22.1693H30.8836ZM31.0226 23.6959C31.0482 23.7168 31.0728 23.7372 31.0972 23.7573C31.1269 23.7819 31.1561 23.8062 31.1861 23.8304C31.4845 24.0786 31.7663 24.3407 32.0197 24.633C32.1524 24.7861 32.2779 24.9439 32.3821 25.1178C32.4271 25.1944 32.4674 25.2733 32.5076 25.3521C32.5108 25.3599 32.5087 25.3699 32.5062 25.3812C32.505 25.3866 32.5037 25.3925 32.5029 25.3985H32.3347H29.3789H17.9488C17.8896 25.3985 17.828 25.3962 17.7688 25.3939C17.7499 25.3939 17.7333 25.3753 17.7309 25.3544C17.7286 25.3196 17.7286 25.2872 17.7286 25.2524V23.8443C17.7286 23.827 17.7292 23.8102 17.7297 23.7934L17.7298 23.7933L17.7298 23.7931C17.7304 23.7764 17.7309 23.7596 17.7309 23.7423C17.7309 23.7191 17.7546 23.6982 17.7807 23.6959C17.7996 23.6935 17.8209 23.6935 17.8399 23.6935H17.9891H30.8L30.8348 23.6924C30.9006 23.6902 30.9642 23.688 31.0226 23.6959ZM12.3642 14.0109H6.54496C4.70942 14.0109 2.87388 14.0109 1.04308 14.0132H0.652287C0.618855 14.0132 0.58752 14.0152 0.554335 14.0174L0.548076 14.0178C0.531497 14.0178 0.512549 14.0387 0.512549 14.0573C0.510181 14.106 0.507812 14.1547 0.507812 14.2034V15.5233V15.6254C0.507812 15.7019 0.517286 15.7112 0.590708 15.7135H0.73992H12.35H12.4992C12.5134 15.7135 12.53 15.7112 12.5442 15.7089C12.5632 15.7066 12.5821 15.688 12.5821 15.6695C12.5845 15.6323 12.5869 15.5929 12.5869 15.5535V14.1733C12.5869 14.1408 12.5869 14.106 12.5845 14.0712C12.5821 14.0364 12.5632 14.0132 12.53 14.0132C12.4732 14.0109 12.4187 14.0109 12.3642 14.0109ZM6.62361 31.8519H0.804351C0.75206 31.8519 0.699768 31.8498 0.645381 31.8475L0.63856 31.8473C0.619613 31.8473 0.600665 31.8287 0.600665 31.8101C0.598297 31.7869 0.595929 31.7614 0.595929 31.7382V30.2722C0.595929 30.2594 0.596521 30.2472 0.597113 30.2351C0.597705 30.2229 0.598297 30.2107 0.598297 30.198C0.600665 30.1794 0.617244 30.1608 0.633824 30.1585C0.648034 30.1562 0.662245 30.1539 0.678824 30.1539H0.813825H12.4523C12.5115 30.1539 12.5731 30.1562 12.6323 30.1585C12.6513 30.1585 12.6702 30.1794 12.6726 30.1956L12.6731 30.2017C12.6753 30.2295 12.6773 30.2557 12.6773 30.2838V31.722V31.722C12.6773 31.7475 12.6773 31.7707 12.675 31.7962C12.6726 31.831 12.6537 31.8519 12.6205 31.8542C12.5755 31.8565 12.5305 31.8565 12.4855 31.8565H10.5505C9.2431 31.8519 7.93335 31.8519 6.62361 31.8519ZM0.82054 35.0596H6.6398C8.57007 35.0596 10.498 35.0596 12.4306 35.0573H12.5656C12.5846 35.0573 12.6059 35.0573 12.6248 35.055C12.6556 35.0527 12.6746 35.0318 12.6769 34.997C12.6793 34.9669 12.6793 34.939 12.6793 34.9089V34.9089V33.5286V33.5286C12.6793 33.4938 12.6793 33.4614 12.6769 33.4266C12.6769 33.4034 12.6533 33.3802 12.6296 33.3802L12.6229 33.3799C12.5684 33.3777 12.5161 33.3755 12.4638 33.3755H0.808698H0.704486C0.697381 33.3755 0.689683 33.3761 0.681986 33.3767C0.674289 33.3773 0.666591 33.3779 0.659486 33.3779C0.621591 33.3802 0.602643 33.3987 0.600275 33.4312C0.597906 33.4567 0.597906 33.4799 0.597906 33.5054V34.9297C0.597906 34.9579 0.599968 34.984 0.602168 35.0119L0.602643 35.0179C0.602643 35.0364 0.621591 35.055 0.640538 35.055C0.699749 35.0573 0.761329 35.0596 0.82054 35.0596ZM46.4178 15.7085L46.4111 15.7096C46.3984 15.7116 46.3858 15.7137 46.3732 15.7137C46.3432 15.7152 46.3132 15.7147 46.2832 15.7142L46.2831 15.7142C46.2681 15.714 46.2531 15.7137 46.2382 15.7137H35.0757C35.0165 15.7137 34.9549 15.7114 34.8957 15.7091C34.8768 15.7091 34.8578 15.6905 34.8555 15.6719C34.8546 15.6616 34.8535 15.6514 34.8525 15.6414L34.8524 15.6413C34.8504 15.6223 34.8484 15.6035 34.8484 15.5838V14.1456C34.8484 14.1201 34.8484 14.0969 34.8507 14.0714C34.8531 14.0296 34.872 14.011 34.917 14.011C34.962 14.0087 35.007 14.0087 35.052 14.0087H45.6437C45.6555 14.0087 45.6673 14.0085 45.6792 14.0084C45.7274 14.0076 45.7767 14.0069 45.8261 14.018C45.8403 14.0482 45.8545 14.0806 45.8663 14.1108C46.0558 14.6304 46.2453 15.1523 46.4324 15.6719C46.4347 15.6766 46.4324 15.6812 46.43 15.6859C46.4324 15.6928 46.4324 15.6975 46.43 15.7067L46.4178 15.7085ZM50.9887 15.6753V15.6753C50.9875 15.6847 50.9864 15.6946 50.9841 15.7044C51.0267 15.7152 51.0671 15.7157 51.1062 15.7163C51.1258 15.7165 51.1451 15.7168 51.1641 15.7183H62.2011H62.3218C62.3384 15.7183 62.355 15.7183 62.3668 15.7114C62.3787 15.7044 62.3929 15.6928 62.3953 15.6812C62.4024 15.6511 62.4024 15.6232 62.4024 15.5931V14.1409C62.4024 14.1128 62.4003 14.0867 62.3981 14.0588L62.3976 14.0528C62.3976 14.0365 62.3763 14.018 62.3574 14.018L62.3506 14.0177C62.2962 14.0155 62.2439 14.0133 62.1916 14.0133H51.7705C51.757 14.0133 51.7436 14.0131 51.7302 14.0128C51.7034 14.0123 51.6765 14.0118 51.6497 14.0133L51.6302 14.0157C51.617 14.0172 51.6039 14.0188 51.5928 14.0203C51.5652 14.0536 51.5529 14.0906 51.5404 14.1279L51.5403 14.128L51.536 14.1409C51.401 14.5167 51.2636 14.8948 51.1262 15.2729L51.0983 15.3505C51.0627 15.4492 51.0274 15.5471 50.9936 15.6464C50.9911 15.655 50.9899 15.6648 50.9887 15.6753ZM44.6559 10.8215L44.6656 10.8398L44.6656 10.8398C44.6716 10.8512 44.6773 10.8618 44.682 10.8725C44.8738 11.3968 45.0657 11.921 45.2551 12.4453C45.2567 12.4483 45.2562 12.4514 45.2557 12.4545L45.2553 12.4566L45.2551 12.4592C45.2551 12.462 45.2542 12.4649 45.253 12.4689L45.2514 12.474L45.2504 12.4777C45.2409 12.4789 45.2314 12.4806 45.222 12.4824C45.2125 12.4841 45.203 12.4859 45.1936 12.487C45.1604 12.4886 45.1272 12.488 45.0941 12.4875C45.0775 12.4873 45.0609 12.487 45.0443 12.487H35.0874C35.0282 12.487 34.9666 12.487 34.9074 12.4847C34.8743 12.4847 34.8553 12.4638 34.853 12.4267C34.8506 12.3919 34.8506 12.3594 34.8506 12.3246V10.9746C34.8506 10.9351 34.853 10.8957 34.8553 10.8586C34.8577 10.84 34.8743 10.8192 34.8932 10.8192C34.9074 10.8168 34.924 10.8168 34.9382 10.8168H35.0732H44.4593L44.4825 10.8159C44.5393 10.8136 44.5976 10.8113 44.6559 10.8215ZM52.1568 12.4594C52.1578 12.4652 52.1589 12.4712 52.1589 12.4777C52.214 12.4912 52.2675 12.4887 52.322 12.4861L52.3555 12.4847H62.1822H62.3172C62.3314 12.4847 62.348 12.4823 62.3622 12.48C62.3811 12.48 62.4001 12.4615 62.4001 12.4429L62.4001 12.4427C62.4025 12.394 62.4048 12.3454 62.4048 12.2968C62.4048 12.156 62.4051 12.0151 62.4054 11.874V11.8737V11.8735V11.8732V11.873V11.8727V11.8724V11.8722V11.8719C62.4059 11.5881 62.4064 11.304 62.4048 11.0209C62.4045 10.9923 62.4048 10.9676 62.405 10.9462V10.9462V10.9462V10.9462V10.9462V10.9462V10.9462V10.9461V10.9461V10.9461V10.9461V10.9461V10.9461V10.9461V10.9461V10.946V10.946V10.946V10.946V10.946V10.946V10.946C62.4056 10.8785 62.4059 10.8446 62.389 10.828C62.3721 10.8113 62.3379 10.812 62.2694 10.8134C62.2461 10.8139 62.2188 10.8145 62.1869 10.8145H52.9453H52.8553H52.8103C52.7511 10.8168 52.7392 10.8238 52.7203 10.8725C52.7084 10.9003 52.699 10.9281 52.6895 10.9559L52.6895 10.956C52.5386 11.3716 52.3877 11.7895 52.2369 12.2074L52.2368 12.2075L52.2347 12.2133L52.1566 12.436C52.1537 12.4429 52.1552 12.4508 52.1568 12.4594ZM42.9743 18.9402H38.5193C38.4672 18.9402 38.4151 18.9381 38.361 18.9358L38.3608 18.9358L38.3605 18.9358L38.3605 18.9358H38.3605H38.3604H38.3604L38.3535 18.9355C38.3346 18.9355 38.318 18.9147 38.318 18.8961C38.3156 18.8613 38.3156 18.8288 38.3156 18.794V17.386C38.3156 17.3466 38.318 17.3071 38.3227 17.27C38.3227 17.263 38.3346 17.2538 38.344 17.2491C38.3583 17.2445 38.3725 17.2422 38.389 17.2422H38.5383H46.816L46.8494 17.2424L46.8657 17.2427C46.8989 17.2432 46.932 17.2437 46.9652 17.2422C47.0007 17.2422 47.0196 17.2607 47.0315 17.2909C47.0599 17.3651 47.086 17.437 47.112 17.5113C47.2707 17.9427 47.4294 18.3765 47.5857 18.808C47.5975 18.8404 47.607 18.8729 47.6165 18.9054C47.6212 18.917 47.6047 18.9355 47.5928 18.9355C47.5383 18.9379 47.4839 18.9379 47.427 18.9379C45.9444 18.9402 44.4594 18.9402 42.9743 18.9402ZM49.8218 18.9205L49.823 18.924L49.8248 18.9296L49.8257 18.9334C49.8618 18.9408 49.8998 18.9416 49.9373 18.9424H49.9374C49.9589 18.9428 49.9803 18.9433 50.001 18.945H58.8163H58.8921L58.9104 18.9447C59.0297 18.943 59.0319 18.943 59.0319 18.8058V17.3838V17.3837C59.0319 17.3536 59.0319 17.3258 59.0295 17.2957C59.0295 17.2678 59.0106 17.247 58.9845 17.247C58.9277 17.2446 58.8732 17.2446 58.8187 17.2446H50.6168H50.4818L50.4753 17.2446C50.4518 17.2444 50.4301 17.2443 50.4084 17.2655C50.4033 17.2803 50.397 17.2958 50.3903 17.3119C50.3845 17.3261 50.3784 17.3408 50.3728 17.356C50.2 17.8385 50.0247 18.3233 49.8494 18.8058C49.8376 18.8383 49.8281 18.8708 49.8186 18.9032C49.8172 18.9076 49.8194 18.9137 49.8218 18.9205ZM58.1626 31.8519H54.0392C53.9894 31.8519 53.9397 31.8519 53.8899 31.8496C53.8521 31.8496 53.8331 31.8311 53.8307 31.7986L53.8306 31.7893L53.8303 31.7823L53.8296 31.7696C53.829 31.7597 53.8284 31.7499 53.8284 31.7406V30.2583C53.8284 30.2397 53.8307 30.2189 53.8307 30.2003C53.8331 30.1748 53.852 30.1539 53.8805 30.1539C53.9349 30.1516 53.9894 30.1516 54.0463 30.1516H57.2863H62.2647C62.2968 30.1516 62.3246 30.1511 62.3485 30.1507H62.3487H62.3488H62.3489H62.349H62.3491H62.3492C62.4257 30.1493 62.4636 30.1486 62.4819 30.1671C62.4999 30.1853 62.4992 30.2219 62.4978 30.2942V30.2942V30.2943V30.2943V30.2944V30.2945C62.4974 30.3173 62.4969 30.3438 62.4969 30.3743C62.4984 30.6602 62.4979 30.9451 62.4974 31.2303V31.2306V31.2309V31.2311V31.2314V31.2316V31.2319V31.2321V31.2324V31.2327V31.2329V31.2332V31.2334V31.2337V31.234V31.2342V31.2345V31.2347V31.235V31.2352C62.4971 31.3788 62.4969 31.5225 62.4969 31.6664C62.4969 31.7151 62.4945 31.7638 62.4921 31.8125C62.4921 31.8311 62.4708 31.8473 62.4519 31.8496C62.4376 31.8496 62.4211 31.8519 62.4069 31.8519H62.2719H58.1626ZM35.1609 31.8518H39.2393C40.6035 31.8518 41.9701 31.8518 43.332 31.8541C43.3606 31.8541 43.3887 31.8535 43.4164 31.8529L43.4166 31.8529H43.4167H43.4167H43.4168H43.4168H43.4169H43.4169L43.4511 31.8523C43.4667 31.852 43.4822 31.8518 43.4978 31.8518C43.5238 31.8518 43.5451 31.8309 43.5475 31.8077L43.548 31.8016C43.5502 31.7738 43.5522 31.7477 43.5522 31.7196V30.2814C43.5522 30.2533 43.5502 30.2272 43.548 30.1994L43.5475 30.1932C43.5451 30.177 43.5262 30.1561 43.5072 30.1561C43.4528 30.1538 43.3983 30.1515 43.3438 30.1515H35.1585C35.1135 30.1515 35.0685 30.1515 35.0235 30.1538C34.9667 30.1561 34.9501 30.17 34.9477 30.2211C34.9453 30.2651 34.9453 30.3092 34.9453 30.3533C34.9453 30.495 34.9451 30.6369 34.9448 30.7789V30.7792V30.7794V30.7797V30.7799V30.7802V30.7804V30.7807V30.781V30.7812V30.7815V30.7817V30.782V30.7823V30.7825V30.7828C34.9443 31.0696 34.9438 31.3568 34.9453 31.643C34.9453 31.6683 34.945 31.6906 34.9447 31.7102C34.9437 31.7824 34.9432 31.8186 34.961 31.8364C34.9789 31.8543 35.0152 31.8537 35.0878 31.8525C35.109 31.8522 35.1332 31.8518 35.1609 31.8518ZM58.1563 35.0599H54.0613C54.0287 35.0599 54.0006 35.0605 53.9764 35.0609L53.9761 35.0609C53.8992 35.0623 53.8614 35.063 53.8433 35.0444C53.8258 35.0266 53.8266 34.9909 53.8281 34.9209C53.8286 34.8971 53.8292 34.8695 53.8292 34.8373C53.8276 34.5433 53.8281 34.2493 53.8287 33.9559V33.9554V33.9549L53.8289 33.7979L53.8292 33.5174C53.8292 33.3805 53.8292 33.3782 53.9689 33.3782H54.0731H62.249L62.2741 33.3781L62.2973 33.3779L62.3398 33.3772C62.4219 33.3757 62.462 33.375 62.4814 33.3947C62.4999 33.4135 62.4993 33.4511 62.4982 33.5245C62.4978 33.5506 62.4974 33.5812 62.4977 33.6171C62.4993 33.9066 62.4987 34.195 62.4982 34.4837V34.484V34.4842V34.4845V34.4848V34.485V34.4853V34.4855V34.4858V34.486V34.4863V34.4866V34.4868V34.4871V34.4873C62.4979 34.6324 62.4977 34.7776 62.4977 34.9231V34.9298C62.4977 34.9944 62.4977 35.027 62.4814 35.0434C62.465 35.06 62.4317 35.06 62.3648 35.0599H62.3579H62.2372H58.1563ZM35.1774 35.06H39.2417C40.6059 35.06 41.9701 35.06 43.3367 35.0577C43.3936 35.0577 43.448 35.0577 43.5025 35.0554C43.5286 35.0531 43.5522 35.0322 43.5522 35.009L43.5523 34.9938L43.5527 34.9714L43.5534 34.9429C43.554 34.9209 43.5546 34.8988 43.5546 34.8768C43.5546 34.7329 43.5549 34.589 43.5551 34.4452V34.4449V34.4446V34.4444V34.4441V34.4439V34.4436V34.4433V34.4431V34.4428V34.4426V34.4423V34.4421V34.4418V34.4415V34.4413V34.441C43.5557 34.155 43.5562 33.8694 43.5546 33.5847L43.5545 33.5455L43.5546 33.517V33.5168V33.5166V33.5164V33.5163V33.5161C43.5551 33.447 43.5553 33.4111 43.5375 33.3925C43.5181 33.3724 43.4775 33.3727 43.3928 33.3733L43.3742 33.3735L43.3367 33.3736H35.1632H35.1631C35.1182 33.3736 35.0732 33.3736 35.0282 33.3759C34.9643 33.3783 34.9501 33.3945 34.9477 33.4548C34.9453 33.4989 34.9453 33.543 34.9453 33.587C34.9453 33.7264 34.9451 33.8655 34.9448 34.0044V34.0049V34.0054V34.0059V34.0065V34.007V34.0075V34.008V34.0085V34.009V34.0095V34.01V34.0105V34.011V34.0115V34.0121V34.0126C34.9443 34.2872 34.9438 34.5611 34.9453 34.835C34.9456 34.8657 34.9454 34.8922 34.9451 34.9152V34.9153C34.9444 34.9882 34.9441 35.0252 34.9624 35.0437C34.9813 35.0627 35.0199 35.0621 35.0981 35.0608L35.1357 35.0603L35.1774 35.06ZM45.1034 25.3916C45.0845 25.3475 45.0702 25.3104 45.056 25.2733C44.8769 24.7931 44.7001 24.3129 44.5233 23.8327L44.5232 23.8322L44.523 23.8318L44.5229 23.8314L44.5227 23.831L44.5225 23.8305L44.5224 23.8301L44.5222 23.8297L44.522 23.8293L44.5219 23.8288L44.5217 23.8284L44.5216 23.828L44.5214 23.8275L44.5212 23.8271L44.5211 23.8267L44.5209 23.8263L44.5208 23.8258L44.4923 23.7423C44.4829 23.7145 44.4995 23.6936 44.5279 23.6936C44.5681 23.6913 44.6084 23.6913 44.6486 23.6913H44.6487H52.744C52.7889 23.6913 52.8339 23.6936 52.8789 23.6959L52.879 23.6959C52.8979 23.6959 52.9121 23.7191 52.905 23.7377C52.9003 23.7516 52.8961 23.7655 52.892 23.7794C52.8878 23.7933 52.8837 23.8073 52.879 23.8212C52.7902 24.0648 52.7013 24.3089 52.6125 24.553C52.5237 24.7972 52.4349 25.0413 52.3461 25.2849C52.3366 25.3127 52.3248 25.3406 52.3129 25.3661C52.3058 25.3777 52.2916 25.387 52.2798 25.3916C52.2655 25.3963 52.2513 25.3963 52.2348 25.3963H52.114H45.2929C45.2775 25.3963 45.2623 25.3965 45.2471 25.3968C45.2012 25.3977 45.155 25.3986 45.1034 25.3916ZM46.2525 28.5042L46.2525 28.5042C46.2656 28.5442 46.2787 28.5844 46.3118 28.6204C46.352 28.6204 46.397 28.6227 46.4419 28.625L46.4421 28.6251H50.9871C51.0203 28.6251 51.0558 28.6251 51.0913 28.6227C51.115 28.6204 51.1292 28.6088 51.1387 28.5903C51.1505 28.5647 51.1624 28.5369 51.1718 28.5091C51.2607 28.2655 51.3495 28.0214 51.4383 27.7772C51.5271 27.5331 51.6159 27.2889 51.7047 27.0453C51.7142 27.0175 51.7237 26.9897 51.7308 26.9618C51.7355 26.9433 51.719 26.9224 51.6976 26.9224C51.6479 26.9201 51.5982 26.9178 51.5484 26.9178H45.8784H45.7576C45.7434 26.9178 45.7268 26.9201 45.7126 26.9224C45.7007 26.9224 45.6842 26.941 45.6865 26.9526C45.6936 26.9804 45.7007 27.0082 45.7102 27.0361C45.728 27.0848 45.7457 27.1329 45.7635 27.181C45.7813 27.2292 45.799 27.2773 45.8168 27.326C45.8878 27.5162 45.9583 27.707 46.0287 27.8978C46.0992 28.0886 46.1697 28.2794 46.2407 28.4696L46.2446 28.4805L46.2479 28.4901L46.2525 28.5042ZM33.2324 18.9311C33.2235 18.932 33.2152 18.9332 33.2073 18.9344C33.1941 18.9363 33.1817 18.9381 33.1684 18.9381C33.1416 18.9396 33.1147 18.9391 33.0879 18.9386L33.0623 18.9382L33.0476 18.9381H28.2184C28.1687 18.9381 28.119 18.9358 28.0693 18.9334L28.0692 18.9334C28.0502 18.9334 28.0337 18.9126 28.0313 18.894L28.0308 18.8879C28.0286 18.86 28.0266 18.834 28.0266 18.8059V17.3676C28.0266 17.3329 28.0289 17.3004 28.0337 17.2656C28.0337 17.2586 28.0455 17.2493 28.0526 17.2447C28.0621 17.2401 28.0716 17.2377 28.081 17.2377C28.1035 17.2377 28.126 17.2372 28.1485 17.2366C28.171 17.236 28.1935 17.2354 28.216 17.2354H33.3745H33.4953C33.5474 17.2377 33.564 17.2517 33.5616 17.3073C33.5616 17.3816 33.5592 17.4535 33.5521 17.5277C33.5095 17.9684 33.41 18.3953 33.2679 18.8151C33.2608 18.8592 33.2466 18.8963 33.2324 18.9311ZM33.2477 26.98L33.2307 26.9341C33.1669 26.9125 33.1154 26.915 33.0667 26.9173L33.0554 26.9178H28.2238C28.2075 26.9178 28.1907 26.9184 28.1735 26.919H28.1735H28.1735H28.1735H28.1735L28.1734 26.919C28.1557 26.9196 28.1376 26.9202 28.1196 26.9202C28.103 26.9202 28.0888 26.9225 28.0746 26.9248C28.058 26.9271 28.0343 26.948 28.0343 26.9642L28.0343 26.9644C28.0319 27.0084 28.0296 27.0524 28.0296 27.0965C28.0296 27.2424 28.0293 27.3886 28.0291 27.535C28.0285 27.8284 28.028 28.1224 28.0296 28.4164C28.0296 28.4422 28.0293 28.4648 28.029 28.4848C28.028 28.558 28.0274 28.5941 28.0452 28.6115C28.0625 28.6283 28.0969 28.6276 28.1648 28.6262H28.1649H28.1649H28.165H28.1651H28.1652C28.1879 28.6257 28.2143 28.6251 28.2451 28.6251H33.3467H33.4959C33.501 28.6244 33.5059 28.6239 33.5107 28.6234L33.5107 28.6234L33.5107 28.6234C33.5213 28.6224 33.5311 28.6214 33.5409 28.6182C33.5481 28.6135 33.5575 28.6042 33.5599 28.5973C33.5646 28.5741 33.567 28.5486 33.567 28.5254C33.5694 28.3769 33.5481 28.2308 33.5267 28.087C33.4794 27.7529 33.3965 27.4258 33.2923 27.1034C33.2784 27.0626 33.2632 27.0218 33.2477 26.98ZM3.98463 17.2491C3.99398 17.2482 4.00258 17.2469 4.01074 17.2457C4.02326 17.2439 4.03474 17.2422 4.04621 17.2422H4.167H9.01046C9.03533 17.2422 9.0602 17.2428 9.08507 17.2433L9.08513 17.2433C9.10998 17.2439 9.13482 17.2445 9.15967 17.2445C9.18573 17.2445 9.20467 17.2654 9.20467 17.2932C9.20704 17.3187 9.20704 17.3419 9.20704 17.3674V18.8196C9.20704 18.8497 9.20467 18.8776 9.19994 18.9077C9.19757 18.9193 9.18336 18.9309 9.17152 18.9379C9.16207 18.9434 9.14961 18.9431 9.13654 18.9427L9.12651 18.9425H9.00572H4.16227C4.11727 18.9425 4.07227 18.9425 4.02727 18.9402C3.987 18.9379 3.96805 18.9309 3.96569 18.8752C3.96332 18.8312 3.96332 18.7871 3.96332 18.743V18.743V17.437V17.437C3.96332 17.3929 3.96332 17.3489 3.96569 17.3048C3.96805 17.2955 3.97161 17.2862 3.97516 17.277C3.97871 17.2677 3.98226 17.2584 3.98463 17.2491ZM4.16544 22.1693H6.59546C7.20415 22.1693 7.81521 22.1693 8.431 22.167H9.07522C9.11074 22.167 9.1439 22.167 9.17943 22.1623C9.19364 22.16 9.20548 22.1484 9.20785 22.1322L9.20833 22.1261C9.21052 22.0983 9.21259 22.0722 9.21259 22.044V20.5919C9.21259 20.5638 9.21052 20.5377 9.20833 20.5098L9.20785 20.5038C9.20785 20.4875 9.18653 20.469 9.16758 20.469L9.16752 20.469C9.11781 20.4666 9.06809 20.4643 9.01837 20.4643H4.17255C4.13228 20.4643 4.09202 20.4643 4.05176 20.4666C4.04033 20.4666 4.03003 20.4688 4.02007 20.471C4.01559 20.4719 4.01117 20.4729 4.00676 20.4736C3.98781 20.4759 3.9807 20.4898 3.97833 20.5038C3.9736 20.5339 3.97123 20.5617 3.97123 20.5919V22.044C3.97123 22.0722 3.97329 22.0983 3.97549 22.1261L3.97597 22.1322C3.97597 22.1484 3.99728 22.167 4.01623 22.167C4.06597 22.1693 4.1157 22.1693 4.16544 22.1693ZM6.58776 25.3963H4.16011C4.13524 25.3963 4.11037 25.3957 4.0855 25.3951C4.06063 25.3945 4.03576 25.3939 4.01089 25.3939C3.99195 25.3939 3.97537 25.3754 3.973 25.3545L3.97252 25.3485C3.97032 25.3206 3.96826 25.2945 3.96826 25.2664V23.8305C3.96826 23.7614 3.96826 23.7266 3.98566 23.709C4.0033 23.6913 4.03882 23.6913 4.11037 23.6913H4.18616H8.99646C9.05091 23.6913 9.10536 23.6936 9.15982 23.6959L9.15988 23.6959C9.18593 23.6959 9.20488 23.7168 9.20488 23.7446C9.20725 23.7794 9.20725 23.8119 9.20725 23.8467V25.2548C9.20725 25.2942 9.20251 25.3336 9.19778 25.3707C9.19778 25.3777 9.18593 25.387 9.17883 25.3916C9.16936 25.3963 9.15988 25.3963 9.15041 25.3963C9.12554 25.3963 9.10067 25.3968 9.0758 25.3974C9.05093 25.398 9.02606 25.3986 9.0012 25.3986C8.19593 25.3963 7.39066 25.3963 6.58776 25.3963ZM38.5047 25.3963H40.9347C41.74 25.3963 42.5429 25.3963 43.3576 25.3986C43.3825 25.3986 43.4074 25.398 43.4322 25.3974C43.4571 25.3968 43.482 25.3963 43.5068 25.3963C43.5329 25.3963 43.5542 25.3754 43.5566 25.3522L43.5568 25.334L43.5578 25.3081L43.5587 25.284L43.5588 25.2753L43.559 25.264V23.8258C43.559 23.7957 43.5566 23.7678 43.5542 23.7377C43.5518 23.7214 43.5329 23.7006 43.5163 23.6982L43.4872 23.6965L43.4713 23.6954C43.4413 23.6933 43.4113 23.6913 43.3813 23.6913H38.4905H38.4905C38.4502 23.6913 38.41 23.6913 38.3697 23.6936C38.3437 23.6959 38.32 23.7168 38.32 23.74C38.32 23.7574 38.3194 23.7742 38.3188 23.791C38.3182 23.8078 38.3176 23.8247 38.3176 23.8421V25.2501C38.3176 25.2849 38.3176 25.3174 38.32 25.3522C38.32 25.3731 38.3366 25.3916 38.3555 25.3916C38.4052 25.3939 38.455 25.3963 38.5047 25.3963ZM6.57867 28.6228H4.16523C4.12023 28.6228 4.07523 28.6228 4.03023 28.6205C3.98997 28.6182 3.97102 28.6112 3.96865 28.5555C3.96628 28.5115 3.96628 28.4674 3.96628 28.4233V27.1196C3.96628 27.0756 3.96628 27.0315 3.96865 26.9874C3.96865 26.9735 3.97339 26.9596 3.98049 26.9457C3.98523 26.9387 3.99234 26.9294 4.00181 26.9271C4.01602 26.9225 4.03023 26.9178 4.04444 26.9178C4.08944 26.9155 4.13444 26.9155 4.17944 26.9155H8.98974C9.01203 26.9155 9.03206 26.9153 9.05006 26.9151H9.05034C9.1318 26.9143 9.17168 26.914 9.19097 26.9337C9.20947 26.9526 9.20901 26.9901 9.20811 27.0635C9.20789 27.0815 9.20764 27.1017 9.20764 27.1243V28.428C9.20764 28.472 9.20764 28.5161 9.20527 28.5602C9.2029 28.6042 9.18632 28.6205 9.13896 28.6205H9.00395C8.19632 28.6228 7.38868 28.6228 6.57867 28.6228ZM38.5045 28.6225H40.9203C41.7303 28.6225 42.5403 28.6225 43.3503 28.6202H43.4853C43.5303 28.6202 43.5469 28.604 43.5493 28.5599V28.5158V27.0336C43.5493 27.008 43.5469 26.9825 43.5446 26.9593C43.5446 26.9431 43.5232 26.9199 43.5067 26.9199C43.4854 26.9191 43.4645 26.918 43.4437 26.917C43.4042 26.9149 43.3654 26.9129 43.3267 26.9129H38.5424H38.4524C38.315 26.9153 38.3127 26.9176 38.3127 27.0544V28.198V28.4926C38.3127 28.5207 38.3147 28.5468 38.3169 28.5747L38.3174 28.5808C38.3174 28.5994 38.3363 28.6179 38.3553 28.6179C38.405 28.6202 38.4548 28.6225 38.5045 28.6225ZM20.3533 17.2421H22.7668L22.8092 17.2419C22.8744 17.2413 22.9072 17.2411 22.9236 17.2573C22.9402 17.2738 22.94 17.3071 22.9397 17.3741L22.9396 17.4045V18.7824C22.9396 18.8218 22.9373 18.8612 22.9349 18.8983C22.9349 18.9169 22.916 18.9331 22.8946 18.9355C22.8804 18.9378 22.8639 18.9378 22.8496 18.9378H22.7289H17.9328C17.9069 18.9378 17.8844 18.9381 17.8647 18.9385C17.7966 18.9395 17.7627 18.9401 17.7461 18.9234C17.7295 18.9068 17.73 18.8733 17.7309 18.8063C17.7312 18.7885 17.7315 18.7682 17.7315 18.7452V17.4253C17.7315 17.3766 17.7338 17.3279 17.7362 17.2792C17.7362 17.2606 17.7551 17.2444 17.7741 17.2421C17.7883 17.2398 17.8049 17.2398 17.8191 17.2398H17.9541C18.7546 17.2421 19.5528 17.2421 20.3533 17.2421ZM54.0249 25.3959H56.4242C57.22 25.3959 58.0134 25.3959 58.8116 25.4005H58.9466C58.9608 25.4005 58.9774 25.4005 58.9916 25.3982C59.0129 25.3959 59.0295 25.3796 59.0318 25.3611L59.0323 25.3549L59.0323 25.3548C59.0345 25.327 59.0366 25.301 59.0366 25.2729V23.8347V23.8346C59.0366 23.8045 59.0366 23.7767 59.0342 23.7466C59.0318 23.721 59.0105 23.6978 58.9868 23.6978L58.98 23.6976C58.9256 23.6953 58.8733 23.6932 58.821 23.6932H54.051H53.916C53.9018 23.6932 53.8852 23.6955 53.871 23.6978C53.8544 23.7002 53.8331 23.7164 53.8331 23.735C53.8307 23.7721 53.8284 23.8115 53.8284 23.8509V25.2451V25.3332C53.8284 25.3796 53.8426 25.3935 53.8899 25.3959H54.0249ZM20.3388 28.6226H17.9254C17.8756 28.6226 17.8259 28.6203 17.7761 28.618C17.7572 28.618 17.7383 28.5994 17.7383 28.5809L17.7378 28.5749C17.7356 28.547 17.7335 28.5209 17.7335 28.4927V28.2005V27.0569C17.7335 26.92 17.7359 26.9177 17.8733 26.9153H17.9633H22.7167C22.7555 26.9153 22.7943 26.9173 22.8338 26.9194L22.862 26.9208L22.8967 26.9223C22.9133 26.9223 22.9346 26.9455 22.9346 26.9617L22.9351 26.9678C22.9373 26.9956 22.9393 27.0218 22.9393 27.0499V28.502C22.9393 28.5322 22.937 28.56 22.9322 28.5902C22.9299 28.6041 22.9204 28.618 22.9014 28.618C22.8612 28.6203 22.8209 28.6226 22.783 28.6226H21.6272H20.3388ZM54.0044 28.6225H56.4344H58.8337C58.8834 28.6225 58.9331 28.6225 58.9829 28.6202C59.0066 28.6179 59.0279 28.597 59.0279 28.5715L59.028 28.545C59.0282 28.5227 59.0286 28.5002 59.029 28.4776L59.0291 28.4764C59.0297 28.4445 59.0303 28.4126 59.0303 28.3813V27.0892C59.0303 27.0452 59.0279 27.0012 59.0255 26.9572L59.0255 26.957C59.0255 26.9431 58.9995 26.9176 58.9852 26.9176C58.926 26.9153 58.8645 26.9129 58.8052 26.9129H54.0518H53.9618C53.8938 26.9141 53.8594 26.9147 53.8421 26.9321C53.8244 26.9499 53.8244 26.9853 53.8244 27.0568V28.495V28.4951C53.8244 28.5206 53.8244 28.5437 53.8268 28.5692C53.8276 28.5723 53.8281 28.5756 53.8286 28.579C53.8297 28.5857 53.8307 28.5924 53.8339 28.597C53.8386 28.604 53.8481 28.6156 53.8552 28.6156C53.9049 28.6202 53.9547 28.6225 54.0044 28.6225ZM49.9447 31.8472L49.9334 31.8481L49.9333 31.8481C49.9098 31.8501 49.889 31.8518 49.8665 31.8518H47.5881C47.5691 31.8518 47.5478 31.8518 47.5289 31.8495C47.5076 31.8472 47.4933 31.8332 47.4839 31.817C47.4673 31.7822 47.4531 31.7451 47.4389 31.708C47.3934 31.5852 47.3477 31.462 47.3018 31.3387L47.2999 31.3336L47.2996 31.3328C47.2267 31.1365 47.1535 30.9398 47.0812 30.743C47.0528 30.6676 47.025 30.5916 46.9972 30.5157C46.9693 30.4397 46.9415 30.3637 46.9131 30.2883C46.9097 30.2791 46.9065 30.2698 46.9034 30.2606C46.9011 30.2536 46.8988 30.2466 46.8965 30.2396C46.8912 30.2234 46.8858 30.2071 46.8799 30.1909C46.8752 30.1793 46.8894 30.1584 46.9012 30.1561C46.9154 30.1538 46.9297 30.1515 46.9462 30.1515H47.0504H50.3639C50.4136 30.1515 50.4634 30.1538 50.5131 30.1561C50.5391 30.1561 50.5557 30.1816 50.5462 30.2095C50.5415 30.2234 50.537 30.2373 50.5326 30.2512C50.5236 30.2791 50.5147 30.3069 50.5036 30.3347C50.442 30.5029 50.3811 30.6705 50.3201 30.8381C50.2591 31.0057 50.1981 31.1733 50.1365 31.3415C50.1105 31.4122 50.0844 31.4836 50.0583 31.555C50.0323 31.6263 50.0062 31.6976 49.9802 31.7683C49.9741 31.7901 49.9628 31.812 49.9508 31.8352C49.9488 31.8392 49.9467 31.8431 49.9447 31.8472ZM49.3667 33.4638C49.3738 33.4406 49.3809 33.4174 49.3714 33.3919C49.3458 33.3765 49.3169 33.3771 49.2862 33.3777C49.2799 33.3779 49.2736 33.378 49.2672 33.378H48.173C48.1568 33.378 48.1396 33.3801 48.1227 33.3823C48.1149 33.3832 48.1071 33.3842 48.0996 33.3849C48.0877 33.3873 48.0735 33.4058 48.0759 33.4174C48.0818 33.4337 48.0871 33.4499 48.0925 33.4661C48.0978 33.4824 48.1031 33.4986 48.109 33.5148C48.2835 33.9837 48.458 34.4548 48.6325 34.9259L48.6348 34.9322C48.6467 34.9647 48.6585 34.9948 48.6727 35.0273C48.6751 35.0342 48.6846 35.0412 48.6917 35.0482C48.7201 35.069 48.7817 35.0551 48.7959 35.0226C48.8075 34.9982 48.8168 34.9726 48.8263 34.9467C48.8303 34.9357 48.8343 34.9247 48.8385 34.9136C48.8942 34.7616 48.9493 34.6095 49.0044 34.4574C49.0595 34.3056 49.1145 34.1538 49.1701 34.002C49.2032 33.9127 49.2358 33.8228 49.2684 33.7329C49.3009 33.643 49.3335 33.5531 49.3667 33.4638Z" fill="#898D9A"/>
</svg>
