<svg width="127" height="48" viewBox="0 0 127 48" fill="none" xmlns="http://www.w3.org/2000/svg">
<path d="M87.0129 16.1926L83.822 16.2009V32.5738H98.4555C100.056 31.8946 100.913 30.7205 101.245 29.3497H87.0046L87.0129 16.1926ZM110.892 19.4643H123.099C124.795 19.1288 126.058 17.6317 126.412 16.1843H107.577C107.929 17.6317 109.211 19.1288 110.892 19.4643ZM71.3607 19.4187C73.0566 18.9259 74.4853 17.6317 74.8332 16.1968H56.9218V25.871H71.5822V29.2669L60.0838 29.2772C58.2802 29.7783 56.7562 30.9876 55.9921 32.5862L56.9218 32.5696H74.7338V22.6552H60.0838V19.4187H71.3607V19.4187ZM108.07 32.5696H111.244V25.9786H122.8V32.5696H125.973V22.6842L108.07 22.6676V32.5696ZM32.2518 19.4539H44.4564C46.1543 19.1164 47.4154 17.6193 47.7694 16.1719H28.9366C29.2886 17.6193 30.5683 19.1164 32.2518 19.4539V19.4539ZM0.5 16.2092C0.86651 17.6421 2.10685 19.1019 3.80687 19.4705H8.94422L9.20513 19.574V32.5365H12.4147V19.574L12.7046 19.4705H17.8481C19.5647 19.0274 20.7781 17.6421 21.1405 16.2092V16.1781H0.5V16.2092V16.2092ZM32.2518 32.5717H44.4564C46.1543 32.2321 47.4154 30.7391 47.7694 29.2897H28.9366C29.2886 30.7391 30.5683 32.2321 32.2518 32.5717V32.5717ZM32.2518 25.9248H44.4564C46.1543 25.5894 47.4154 24.0923 47.7694 22.6449H28.9366C29.2886 24.0923 30.5683 25.5894 32.2518 25.9248Z" fill="#898D9A"/>
</svg>
