<svg width="104" height="48" viewBox="0 0 104 48" fill="none" xmlns="http://www.w3.org/2000/svg">
<path fill-rule="evenodd" clip-rule="evenodd" d="M58.7813 17.6014C60.0812 16.8931 61.3805 16.5383 63.0346 16.5383C67.0524 16.5383 70.1245 20.084 70.1245 24.9282C70.1245 31.0731 66.3434 34.9729 60.0805 34.9729C57.8348 34.9729 55.5891 34.6181 53.4621 34.1452C53.5808 31.6634 53.7002 16.5383 53.4621 13.7023C53.228 12.2836 52.8718 11.6934 51.8093 11.4573L50.9823 11.3392V10.6302L58.9 9.21289C58.7813 10.3941 58.7813 13.8204 58.7813 17.6014ZM58.8986 33.5549C59.2521 33.6723 59.8437 33.6723 60.3166 33.6723C62.7985 33.6723 64.5713 30.0099 64.572 25.2817C64.572 21.5013 63.154 18.4292 60.5527 18.4292C59.9611 18.4292 59.4889 18.5472 58.7799 18.784C58.6625 24.9282 58.7799 31.9008 58.8986 33.5549ZM0.405273 9.6851H21.203L21.3217 16.657L20.1398 17.0119C18.9586 13.4662 17.3045 11.4579 14.113 11.4579H9.97777C9.85903 13.703 9.74098 17.4841 9.74098 21.502L12.5763 21.3832C14.3491 21.3832 15.1748 19.9659 15.5303 17.957H16.5942V26.3442H15.5303C15.1755 24.3359 14.3491 22.9179 12.5763 22.9179L9.7403 22.7999C9.7403 25.8713 9.85835 28.3531 9.97709 29.8898C10.2132 32.1356 10.8041 33.1987 12.3402 33.3161L13.7582 33.5536V34.4987H0.405273V33.5536L1.58716 33.3161C3.12321 33.1994 3.71348 32.1356 3.94958 29.8898C4.18637 26.2282 4.3051 18.5466 3.94958 14.2926C3.71416 12.0475 3.12253 11.1024 1.58716 10.8663L0.405273 10.7483V9.6851ZM36.8022 25.6372C36.8022 20.32 33.8482 16.3022 27.9394 16.3022C22.0306 16.3022 18.7224 20.5561 18.7224 25.6372C18.7224 30.955 21.6765 34.9736 27.5846 34.9736C33.4933 34.9736 36.8022 30.7182 36.8022 25.6372ZM24.2757 25.6372C24.2757 21.029 24.9847 17.484 27.5846 17.484C30.0671 17.484 31.2476 21.1471 31.2476 25.6372C31.2476 30.2453 30.5372 33.7903 27.8213 33.7903C25.4576 33.7903 24.2757 30.1273 24.2757 25.6372ZM80.7594 16.3022C74.7326 16.3022 71.6605 20.911 71.6605 25.7559C71.6605 31.1918 75.4416 34.9729 80.7594 34.9736C84.0676 34.9736 86.6668 33.3181 87.8487 31.664L87.3772 31.0737C86.1946 31.9015 85.2495 32.373 83.3586 32.373C79.1039 32.373 76.9769 29.1822 77.0957 24.8101H88.0855C88.0855 19.9659 85.721 16.3022 80.7594 16.3022ZM82.6496 23.3921L77.0957 23.5109C77.2131 20.7922 78.2783 17.484 80.2865 17.484C82.2948 17.484 82.6496 21.029 82.6496 23.3921ZM96.7142 16.3022C98.8412 16.3022 100.731 16.6563 102.149 17.2479L102.27 21.8561L101.444 22.0922C100.379 18.9014 98.9607 17.6014 96.835 17.6014C95.417 17.6014 94.3518 18.6653 94.3518 20.2013C94.3518 21.738 95.5324 22.5651 98.8419 23.8643C101.914 25.0469 103.215 26.4642 103.215 28.9461C103.215 32.6084 100.26 34.9729 95.6511 34.9729C93.4054 34.9729 90.8062 34.4993 89.3882 33.909L89.2694 28.71L90.0972 28.4725C91.3964 32.0182 93.0519 33.3174 95.2962 33.3174C97.1871 33.3174 98.251 32.0182 98.251 30.6002C98.251 29.1822 97.4232 28.3544 94.4699 27.292C91.6305 26.3462 89.6236 25.0469 89.6236 21.9741C89.6236 18.9014 92.3429 16.3022 96.7142 16.3022ZM44.7192 20.4388C46.6095 16.1841 50.1551 15.5945 52.1634 16.775L50.2725 21.6207C47.9094 20.0846 45.3095 20.7929 44.7192 21.6207C44.6005 24.4567 44.6005 28.9467 44.8366 31.1925C44.9553 32.6091 45.3102 33.3181 46.4914 33.4368L47.9094 33.5556V34.5007H36.9203V33.5556L37.7473 33.4368C38.8118 33.3181 39.2834 32.6091 39.4021 31.1925C39.5202 28.7113 39.6382 23.7477 39.4021 20.9117C39.2834 19.3749 38.8118 18.7847 37.7473 18.6659L36.9203 18.5479V17.8389L44.8366 16.3028L44.7192 20.4388Z" fill="#898D9A"/>
</svg>
