<svg width="144" height="48" viewBox="0 0 144 48" fill="none" xmlns="http://www.w3.org/2000/svg">
<path fill-rule="evenodd" clip-rule="evenodd" d="M78.6941 23.5711C78.6941 23.5711 77.3245 22.7242 76.4776 22.3965C76.4776 22.3965 73.8561 21.1816 73.336 20.6035C73.336 20.6035 72.3143 19.6406 72.9126 18.5223C72.9126 18.5223 73.163 17.7905 74.2427 17.7905C74.2427 17.7905 75.6483 17.8678 75.6483 19.0231V20.6527H80.6857L80.6769 18.2526C80.6769 18.2526 81.0643 14.3221 74.7434 14.1491C74.7434 14.1491 69.7719 13.8223 68.3461 16.5C68.3461 16.5 67.7865 17.0974 67.7865 19.1777V20.6808C67.7865 20.6808 67.7294 22.415 68.6149 23.5325C68.6149 23.5325 69.1157 24.2651 70.3491 25.0734C70.3491 25.0734 72.8537 26.4219 74.3569 27.1941C74.3569 27.1941 75.8741 28.0603 75.6746 29.4387C75.6746 29.4387 75.5508 30.854 74.0854 30.796C74.0854 30.796 72.7457 30.7362 72.7457 29.3482V27.7194H67.378V30.0853C67.378 30.0853 67.2278 34.6096 74.1249 34.6096C74.1249 34.6096 80.7155 34.7431 81.023 29.9667V28.0401C81.0221 28.0401 81.2558 25.1129 78.6941 23.5711ZM52.9045 14.7122L51.2178 25.2824H50.8233L49.2121 14.8071H40.7978L40.3761 33.949H45.3581L45.4178 19.5264H45.8097L48.4505 33.9463H53.6917L56.3 19.5317H56.647L56.7673 33.949H61.7757L61.2363 14.7122H52.9045ZM23.2477 14.7922L19.9331 33.927H25.2964L27.2599 19.0907H27.7009L29.6635 33.927H35.0259L31.7122 14.7922H23.2477ZM135.787 23.3076V26.1302H137.162V29.1602C137.162 30.6414 135.897 30.6686 135.897 30.6686C134.357 30.6686 134.415 29.2612 134.415 29.2612V18.7806C134.415 17.7009 135.781 17.6429 135.781 17.6429C137.092 17.6429 137.101 18.9308 137.101 18.9308V20.5244H142.151C142.316 17.4136 141.696 16.6607 141.696 16.6607C140.443 13.8478 135.704 14.0015 135.704 14.0015C128.422 14.0015 129.23 19.5888 129.23 19.5888V29.7224C129.387 34.9628 136.562 34.4304 136.684 34.426C139.875 34.0728 140.839 33.0581 140.839 33.0581C141.726 32.3993 141.955 31.4865 141.955 31.4865C142.209 30.955 142.272 29.2612 142.272 29.2612V23.3076H135.787ZM119.048 26.4219H118.829L113.705 14.7175H107.573V33.9507H112.563L112.265 22.2481H112.488L117.797 33.9507H123.741V14.7157H118.688L119.048 26.4219ZM95.3928 29.1584C95.3928 29.1584 95.4649 30.7371 94.0013 30.7371C94.0013 30.7371 92.4621 30.8197 92.4621 29.198L92.4463 14.7289H86.9732V29.0829C86.9732 29.0829 86.4118 34.5156 94.0786 34.5156C94.0786 34.5156 100.741 34.5947 100.741 29.3324V14.7298H95.3928V29.1584ZM12.8137 23.5711C12.8137 23.5711 11.4458 22.7242 10.5981 22.3974C10.5981 22.3974 7.97834 21.1833 7.45826 20.6044C7.45826 20.6044 6.43655 19.6398 7.0357 18.5241C7.0357 18.5241 7.2852 17.7923 8.36401 17.7923C8.36401 17.7923 9.7705 17.8687 9.7705 19.0239V20.6536H14.8096L14.8 18.2526C14.8 18.2526 15.1848 14.3221 8.86651 14.15C8.86651 14.15 8.39036 14.1192 7.69195 14.1544C7.69195 14.1544 3.86427 14.3599 2.49555 16.4596C2.48765 16.4754 2.47623 16.4868 2.46832 16.5009C2.46832 16.5009 1.90959 17.0974 1.90959 19.1786V20.6817C1.90959 20.6817 1.85161 22.4159 2.73802 23.5333C2.73802 23.5333 3.23878 24.266 4.4722 25.0742C4.4722 25.0742 6.97596 26.4228 8.47909 27.195C8.47909 27.195 9.99804 28.0594 9.79686 29.4396C9.79686 29.4396 9.67299 30.8548 8.20851 30.7969C8.20851 30.7969 6.86878 30.7371 6.86878 29.3491V27.7194H1.5002V30.087C1.5002 30.087 1.34998 34.6114 8.24717 34.6114C8.24717 34.6114 14.836 34.7449 15.1461 29.9684V28.0436C15.1461 28.0419 15.3763 25.1129 12.8137 23.5711Z" fill="#898D9A"/>
</svg>
